<svg id="nlp-airline" width="100%" height="auto" viewBox="0 0 1173 247" version="1.1" xmlns="http://www.w3.org/2000/svg" xmlns:xlink="http://www.w3.org/1999/xlink">
    <title>Airline Copy 2</title>
    <desc>Created with Sketch.</desc>
    <defs>
        <path id="airline-path-1" d="M115.964275,35.0006926 L120.213532,30.339058 C120.322487,30.2293724 120.376964,30.0374228 120.349726,29.8728945 C120.322487,29.7083662 120.213532,29.5712593 120.077337,29.4889952 L112.750094,25.3209453 L112.722855,25.3209453 C112.559423,25.2386812 112.450467,25.0741529 112.39599,24.8822033 C112.368751,24.6902536 112.423228,24.4983039 112.559423,24.361197 C112.695617,24.2240901 112.886288,24.1692474 113.104199,24.1966687 L123.563907,26.2532723 C123.72734,26.2806937 123.890772,26.2532723 124.026967,26.1435868 L128.439656,22.4691218 L128.466895,22.4417004 C128.766522,22.1400652 129.175104,21.9755369 129.610925,22.0029583 C130.046746,22.0303797 130.42809,22.2497507 130.700478,22.5788073 C131.163538,23.1546563 131.081821,24.0321405 130.509806,24.5805681 L130.482567,24.6079894 L126.887043,28.9954103 C126.778088,29.1325172 126.750849,29.2970455 126.778088,29.4615738 L128.848238,39.9913839 C128.875477,40.1833335 128.820999,40.3478618 128.712044,40.4849687 L128.603089,40.5672329 C128.466895,40.7043398 128.303462,40.7591825 128.140029,40.7317612 C127.976596,40.7043398 127.813163,40.5946543 127.731446,40.430126 L127.731446,40.4027046 L123.509429,32.9715105 C123.427713,32.8344036 123.291518,32.7247181 123.128085,32.6972967 C122.964653,32.6698753 122.80122,32.7247181 122.665026,32.8344036 L118.034426,37.1121389 C117.898232,37.2492458 117.843754,37.4137741 117.870993,37.6057238 L118.524725,41.3076101 C118.551963,41.4995598 118.497486,41.6915095 118.361292,41.8286164 C118.225098,41.9657233 118.034426,42.020566 117.843754,41.9931447 C117.653082,41.9657233 117.489649,41.8560378 117.407933,41.6640881 L115.501215,37.8250948 C115.446738,37.7154093 115.365021,37.6331452 115.256066,37.5783024 L111.306437,35.7136485 C111.143004,35.6313844 111.034049,35.4942775 111.00681,35.3023278 C110.979571,35.1103782 111.034049,34.9458499 111.170243,34.808743 L111.306437,34.6716361 C111.415392,34.5619506 111.551586,34.5071078 111.68778,34.5071078 C111.715019,34.5071078 111.742258,34.5071078 111.769497,34.5071078 L115.473977,35.1377995 C115.664648,35.2200637 115.85532,35.1377995 115.964275,35.0006926 Z"></path>
        <path id="airline-path-3" d="M25.4117647,21.2961876 C25.4041575,21.3416776 25.3988325,21.3879656 25.39617,21.4350517 C25.1264952,26.3036737 21.269651,30.1176471 16.6163343,30.1176471 C14.2375668,30.1176471 12.0090411,29.1364208 10.3411652,27.354731 C10.3388831,27.3523368 10.3366009,27.3495436 10.3339384,27.3471494 L2.23989076,18.8556916 C2.00939297,18.6138766 1.88235294,18.2922547 1.88235294,17.9502819 C1.88235294,17.6083092 2.00939297,17.2866873 2.23989076,17.0448723 C2.47799573,16.7950766 2.79027079,16.6705778 3.1029262,16.6705778 C3.41558161,16.6705778 3.72823702,16.7954756 3.96596164,17.0448723 L7.09061397,20.3229421 C7.40821405,20.656136 7.88556508,20.7554957 8.3001568,20.575531 C8.71512889,20.3951674 8.98556441,19.9705945 8.98556441,19.4997336 L8.98556441,3.16285519 C8.98556441,2.45656383 9.53328192,1.88235294 10.2061377,1.88235294 C10.8793738,1.88235294 11.4267109,2.45696286 11.4267109,3.16285519 L11.4267109,9.27566728 L11.4267109,14.1658371 C11.4267109,14.809081 11.9238406,15.3302203 12.5365996,15.3302203 C13.1493586,15.3302203 13.6464883,14.808682 13.6464883,14.1658371 L13.6464883,9.27566728 C13.6464883,8.56937592 14.1942058,7.99516503 14.8670615,7.99516503 C15.5402977,7.99516503 16.0876348,8.56977495 16.0876348,9.27566728 L16.0876348,11.7209517 L16.0876348,14.1662362 C16.0876348,14.8094801 16.5847645,15.3306193 17.1975235,15.3306193 C17.8102824,15.3306193 18.3074122,14.809081 18.3074122,14.1662362 L18.3074122,11.7209517 C18.3074122,11.0146604 18.8551297,10.4404495 19.5279854,10.4404495 C20.2012215,10.4404495 20.7485587,11.0150594 20.7485587,11.7209517 L20.7485587,14.1662362 L20.7485587,15.3888784 C20.7485587,16.0321223 21.2456884,16.5532616 21.8584474,16.5532616 C22.4715867,16.5532616 22.968336,16.0317233 22.968336,15.3888784 L22.968336,14.1662362 C22.968336,13.4603439 23.5160535,12.8857339 24.1889093,12.8857339 C24.861765,12.8857339 25.4094825,13.4603439 25.4094825,14.1662362 L25.4094825,21.2961876 L25.4117647,21.2961876 Z"></path>
        <filter id="airline-filter-4" x="-29.8%" y="-17.7%" width="159.5%" height="149.6%" filterUnits="objectBoundingBox">
            <feOffset dx="0" dy="2" in="SourceAlpha" result="shadowOffsetOuter1"></feOffset>
            <feGaussianBlur stdDeviation="2" in="shadowOffsetOuter1" result="shadowBlurOuter1"></feGaussianBlur>
            <feColorMatrix values="0 0 0 0 0   0 0 0 0 0   0 0 0 0 0  0 0 0 0.5 0" type="matrix" in="shadowBlurOuter1"></feColorMatrix>
        </filter>
    </defs>
    <g id="Airline-Copy-2" stroke="none" stroke-width="1" fill="none" fill-rule="evenodd">
        <rect id="Rectangle" fill="#13172C" x="0" y="0" width="1173" height="247"></rect>
        <g class="channel-header">
            <use id="Airline-Icon" fill="#FFFFFF" xlink:href="#airline-path-1"></use>
            <path d="M145.35,41.75 L151.2,25.25 C151.25,25.1 151.35,25 151.525,25 L154.675,25 C154.85,25 154.95,25.1 155,25.25 L160.75,41.75 C160.8,41.9 160.75,42 160.575,42 L157.325,42 C157.15,42 157.05,41.925 157,41.75 L156.025,38.775 L150.075,38.775 L149.125,41.75 C149.075,41.925 148.975,42 148.8,42 L145.525,42 C145.35,42 145.3,41.9 145.35,41.75 Z M151.1,35.65 L155.025,35.65 L153.1,29.7 L153.025,29.7 L151.1,35.65 Z M163.925,41.75 L163.925,25.25 C163.925,25.1 164.025,25 164.175,25 L167.35,25 C167.5,25 167.6,25.1 167.6,25.25 L167.6,41.75 C167.6,41.9 167.5,42 167.35,42 L164.175,42 C164.025,42 163.925,41.9 163.925,41.75 Z M185,42 L181.45,42 C181.225,42 181.15,41.925 181.075,41.75 L178.15,35.525 L175.875,35.525 C175.775,35.525 175.725,35.575 175.725,35.675 L175.725,41.75 C175.725,41.9 175.625,42 175.475,42 L172.3,42 C172.15,42 172.05,41.9 172.05,41.75 L172.05,25.25 C172.05,25.1 172.15,25 172.3,25 L179.075,25 C182.55,25 184.85,27.175 184.85,30.275 C184.85,32.45 183.7,34.175 181.825,35 L185.175,41.7 C185.25,41.85 185.175,42 185,42 Z M178.875,32.4 C180.275,32.4 181.175,31.575 181.175,30.275 C181.175,29 180.275,28.175 178.875,28.175 L175.875,28.175 C175.775,28.175 175.725,28.225 175.725,28.325 L175.725,32.25 C175.725,32.35 175.775,32.4 175.875,32.4 L178.875,32.4 Z M188.85,41.75 L188.85,25.25 C188.85,25.1 188.95,25 189.1,25 L192.275,25 C192.425,25 192.525,25.1 192.525,25.25 L192.525,38.575 C192.525,38.675 192.575,38.725 192.675,38.725 L200.175,38.725 C200.325,38.725 200.425,38.825 200.425,38.975 L200.425,41.75 C200.425,41.9 200.325,42 200.175,42 L189.1,42 C188.95,42 188.85,41.9 188.85,41.75 Z M203.8,41.75 L203.8,25.25 C203.8,25.1 203.9,25 204.05,25 L207.225,25 C207.375,25 207.475,25.1 207.475,25.25 L207.475,41.75 C207.475,41.9 207.375,42 207.225,42 L204.05,42 C203.9,42 203.8,41.9 203.8,41.75 Z M211.925,41.75 L211.925,25.25 C211.925,25.1 212.025,25 212.175,25 L215.175,25 C215.35,25 215.5,25.075 215.6,25.25 L221.6,35.95 L221.725,35.95 L221.725,25.25 C221.725,25.1 221.825,25 221.975,25 L224.8,25 C224.95,25 225.05,25.1 225.05,25.25 L225.05,41.75 C225.05,41.9 224.95,42 224.8,42 L221.825,42 C221.625,42 221.5,41.925 221.4,41.75 L215.375,31.075 L215.25,31.075 L215.25,41.75 C215.25,41.9 215.15,42 215,42 L212.175,42 C212.025,42 211.925,41.9 211.925,41.75 Z M229.5,41.75 L229.5,25.25 C229.5,25.1 229.6,25 229.75,25 L240.65,25 C240.8,25 240.9,25.1 240.9,25.25 L240.9,27.925 C240.9,28.075 240.8,28.175 240.65,28.175 L233.325,28.175 C233.225,28.175 233.175,28.225 233.175,28.325 L233.175,31.7 C233.175,31.8 233.225,31.85 233.325,31.85 L239.425,31.85 C239.575,31.85 239.675,31.95 239.675,32.1 L239.675,34.75 C239.675,34.9 239.575,35 239.425,35 L233.325,35 C233.225,35 233.175,35.05 233.175,35.15 L233.175,38.675 C233.175,38.775 233.225,38.825 233.325,38.825 L240.65,38.825 C240.8,38.825 240.9,38.925 240.9,39.075 L240.9,41.75 C240.9,41.9 240.8,42 240.65,42 L229.75,42 C229.6,42 229.5,41.9 229.5,41.75 Z" id="AIRLINE" fill="#FFFFFF" fill-rule="nonzero"></path>
            <path d="M298.975,41.85 L298.975,31.95 C298.975,31.86 299.035,31.8 299.125,31.8 L303.1,31.8 C305.32,31.8 306.355,32.895 306.355,34.515 C306.355,35.625 305.845,36.315 305.17,36.69 L305.17,36.72 C305.845,36.975 306.535,37.815 306.535,39.03 C306.535,41.04 305.2,42 302.995,42 L299.125,42 C299.035,42 298.975,41.94 298.975,41.85 Z M301.27,35.97 L302.83,35.97 C303.67,35.97 304.165,35.52 304.165,34.77 C304.165,34.02 303.67,33.585 302.83,33.585 L301.27,33.585 C301.21,33.585 301.18,33.615 301.18,33.675 L301.18,35.88 C301.18,35.94 301.21,35.97 301.27,35.97 Z M301.18,40.125 C301.18,40.185 301.21,40.215 301.27,40.215 L302.95,40.215 C303.85,40.215 304.33,39.735 304.33,38.94 C304.33,38.16 303.85,37.665 302.95,37.665 L301.27,37.665 C301.21,37.665 301.18,37.695 301.18,37.755 L301.18,40.125 Z M312.58,42.165 C310.795,42.165 309.385,41.34 308.86,39.69 C308.635,38.985 308.575,38.415 308.575,36.9 C308.575,35.385 308.635,34.815 308.86,34.11 C309.385,32.46 310.795,31.635 312.58,31.635 C314.365,31.635 315.775,32.46 316.3,34.11 C316.525,34.815 316.585,35.385 316.585,36.9 C316.585,38.415 316.525,38.985 316.3,39.69 C315.775,41.34 314.365,42.165 312.58,42.165 Z M312.58,40.215 C313.42,40.215 313.96,39.795 314.185,39.09 C314.305,38.73 314.35,38.235 314.35,36.9 C314.35,35.565 314.305,35.07 314.185,34.71 C313.96,34.005 313.42,33.585 312.58,33.585 C311.74,33.585 311.2,34.005 310.975,34.71 C310.855,35.07 310.81,35.565 310.81,36.9 C310.81,38.235 310.855,38.73 310.975,39.09 C311.2,39.795 311.74,40.215 312.58,40.215 Z M322.72,42.165 C320.935,42.165 319.525,41.34 319,39.69 C318.775,38.985 318.715,38.415 318.715,36.9 C318.715,35.385 318.775,34.815 319,34.11 C319.525,32.46 320.935,31.635 322.72,31.635 C324.505,31.635 325.915,32.46 326.44,34.11 C326.665,34.815 326.725,35.385 326.725,36.9 C326.725,38.415 326.665,38.985 326.44,39.69 C325.915,41.34 324.505,42.165 322.72,42.165 Z M322.72,40.215 C323.56,40.215 324.1,39.795 324.325,39.09 C324.445,38.73 324.49,38.235 324.49,36.9 C324.49,35.565 324.445,35.07 324.325,34.71 C324.1,34.005 323.56,33.585 322.72,33.585 C321.88,33.585 321.34,34.005 321.115,34.71 C320.995,35.07 320.95,35.565 320.95,36.9 C320.95,38.235 320.995,38.73 321.115,39.09 C321.34,39.795 321.88,40.215 322.72,40.215 Z M329.125,41.85 L329.125,31.95 C329.125,31.86 329.185,31.8 329.275,31.8 L331.18,31.8 C331.27,31.8 331.33,31.86 331.33,31.95 L331.33,36.36 L334.72,31.935 C334.795,31.83 334.855,31.8 334.975,31.8 L337.15,31.8 C337.24,31.8 337.285,31.905 337.21,31.995 L334.12,35.865 L337.495,41.82 C337.555,41.925 337.51,42 337.405,42 L335.2,42 C335.08,42 335.035,41.97 334.975,41.865 L332.665,37.575 L331.33,39.255 L331.33,41.85 C331.33,41.94 331.27,42 331.18,42 L329.275,42 C329.185,42 329.125,41.94 329.125,41.85 Z" id="BOOK" fill="#FFFFFF" fill-rule="nonzero"></path>
            <path d="M368.99,39.66 C368.765,39 368.705,38.475 368.705,36.9 C368.705,35.325 368.765,34.8 368.99,34.14 C369.53,32.475 370.835,31.635 372.62,31.635 C374.345,31.635 375.605,32.475 376.175,33.9 C376.22,33.975 376.19,34.05 376.1,34.08 L374.465,34.815 C374.375,34.86 374.3,34.83 374.255,34.74 C373.97,34.08 373.49,33.585 372.635,33.585 C371.84,33.585 371.33,34.005 371.105,34.71 C370.985,35.085 370.94,35.445 370.94,36.9 C370.94,38.355 370.985,38.715 371.105,39.09 C371.33,39.795 371.84,40.215 372.635,40.215 C373.49,40.215 373.97,39.72 374.255,39.06 C374.3,38.97 374.375,38.94 374.465,38.985 L376.1,39.72 C376.19,39.75 376.22,39.825 376.175,39.9 C375.605,41.325 374.345,42.165 372.62,42.165 C370.835,42.165 369.53,41.325 368.99,39.66 Z M378.32,41.85 L378.32,31.95 C378.32,31.86 378.38,31.8 378.47,31.8 L380.375,31.8 C380.465,31.8 380.525,31.86 380.525,31.95 L380.525,35.775 C380.525,35.835 380.555,35.865 380.615,35.865 L383.945,35.865 C384.005,35.865 384.035,35.835 384.035,35.775 L384.035,31.95 C384.035,31.86 384.095,31.8 384.185,31.8 L386.09,31.8 C386.18,31.8 386.24,31.86 386.24,31.95 L386.24,41.85 C386.24,41.94 386.18,42 386.09,42 L384.185,42 C384.095,42 384.035,41.94 384.035,41.85 L384.035,37.92 C384.035,37.86 384.005,37.83 383.945,37.83 L380.615,37.83 C380.555,37.83 380.525,37.86 380.525,37.92 L380.525,41.85 C380.525,41.94 380.465,42 380.375,42 L378.47,42 C378.38,42 378.32,41.94 378.32,41.85 Z M388.91,41.85 L388.91,31.95 C388.91,31.86 388.97,31.8 389.06,31.8 L395.6,31.8 C395.69,31.8 395.75,31.86 395.75,31.95 L395.75,33.555 C395.75,33.645 395.69,33.705 395.6,33.705 L391.205,33.705 C391.145,33.705 391.115,33.735 391.115,33.795 L391.115,35.82 C391.115,35.88 391.145,35.91 391.205,35.91 L394.865,35.91 C394.955,35.91 395.015,35.97 395.015,36.06 L395.015,37.65 C395.015,37.74 394.955,37.8 394.865,37.8 L391.205,37.8 C391.145,37.8 391.115,37.83 391.115,37.89 L391.115,40.005 C391.115,40.065 391.145,40.095 391.205,40.095 L395.6,40.095 C395.69,40.095 395.75,40.155 395.75,40.245 L395.75,41.85 C395.75,41.94 395.69,42 395.6,42 L389.06,42 C388.97,42 388.91,41.94 388.91,41.85 Z M398.12,39.66 C397.895,39 397.835,38.475 397.835,36.9 C397.835,35.325 397.895,34.8 398.12,34.14 C398.66,32.475 399.965,31.635 401.75,31.635 C403.475,31.635 404.735,32.475 405.305,33.9 C405.35,33.975 405.32,34.05 405.23,34.08 L403.595,34.815 C403.505,34.86 403.43,34.83 403.385,34.74 C403.1,34.08 402.62,33.585 401.765,33.585 C400.97,33.585 400.46,34.005 400.235,34.71 C400.115,35.085 400.07,35.445 400.07,36.9 C400.07,38.355 400.115,38.715 400.235,39.09 C400.46,39.795 400.97,40.215 401.765,40.215 C402.62,40.215 403.1,39.72 403.385,39.06 C403.43,38.97 403.505,38.94 403.595,38.985 L405.23,39.72 C405.32,39.75 405.35,39.825 405.305,39.9 C404.735,41.325 403.475,42.165 401.75,42.165 C399.965,42.165 398.66,41.325 398.12,39.66 Z M407.45,41.85 L407.45,31.95 C407.45,31.86 407.51,31.8 407.6,31.8 L409.505,31.8 C409.595,31.8 409.655,31.86 409.655,31.95 L409.655,36.36 L413.045,31.935 C413.12,31.83 413.18,31.8 413.3,31.8 L415.475,31.8 C415.565,31.8 415.61,31.905 415.535,31.995 L412.445,35.865 L415.82,41.82 C415.88,41.925 415.835,42 415.73,42 L413.525,42 C413.405,42 413.36,41.97 413.3,41.865 L410.99,37.575 L409.655,39.255 L409.655,41.85 C409.655,41.94 409.595,42 409.505,42 L407.6,42 C407.51,42 407.45,41.94 407.45,41.85 Z M422.105,41.85 L422.105,31.95 C422.105,31.86 422.165,31.8 422.255,31.8 L424.16,31.8 C424.25,31.8 424.31,31.86 424.31,31.95 L424.31,41.85 C424.31,41.94 424.25,42 424.16,42 L422.255,42 C422.165,42 422.105,41.94 422.105,41.85 Z M426.98,41.85 L426.98,31.95 C426.98,31.86 427.04,31.8 427.13,31.8 L428.93,31.8 C429.035,31.8 429.125,31.845 429.185,31.95 L432.785,38.37 L432.86,38.37 L432.86,31.95 C432.86,31.86 432.92,31.8 433.01,31.8 L434.705,31.8 C434.795,31.8 434.855,31.86 434.855,31.95 L434.855,41.85 C434.855,41.94 434.795,42 434.705,42 L432.92,42 C432.8,42 432.725,41.955 432.665,41.85 L429.05,35.445 L428.975,35.445 L428.975,41.85 C428.975,41.94 428.915,42 428.825,42 L427.13,42 C427.04,42 426.98,41.94 426.98,41.85 Z" id="CHECKIN" fill="#FFFFFF" fill-rule="nonzero"></path>
            <path d="M466.975,41.85 L466.975,31.95 C466.975,31.86 467.035,31.8 467.125,31.8 L473.665,31.8 C473.755,31.8 473.815,31.86 473.815,31.95 L473.815,33.555 C473.815,33.645 473.755,33.705 473.665,33.705 L469.27,33.705 C469.21,33.705 469.18,33.735 469.18,33.795 L469.18,35.94 C469.18,36 469.21,36.03 469.27,36.03 L472.93,36.03 C473.02,36.03 473.08,36.09 473.08,36.18 L473.08,37.77 C473.08,37.86 473.02,37.92 472.93,37.92 L469.27,37.92 C469.21,37.92 469.18,37.95 469.18,38.01 L469.18,41.85 C469.18,41.94 469.12,42 469.03,42 L467.125,42 C467.035,42 466.975,41.94 466.975,41.85 Z M476.05,41.85 L476.05,31.95 C476.05,31.86 476.11,31.8 476.2,31.8 L478.105,31.8 C478.195,31.8 478.255,31.86 478.255,31.95 L478.255,39.945 C478.255,40.005 478.285,40.035 478.345,40.035 L482.845,40.035 C482.935,40.035 482.995,40.095 482.995,40.185 L482.995,41.85 C482.995,41.94 482.935,42 482.845,42 L476.2,42 C476.11,42 476.05,41.94 476.05,41.85 Z M485.02,41.85 L485.02,31.95 C485.02,31.86 485.08,31.8 485.17,31.8 L487.075,31.8 C487.165,31.8 487.225,31.86 487.225,31.95 L487.225,41.85 C487.225,41.94 487.165,42 487.075,42 L485.17,42 C485.08,42 485.02,41.94 485.02,41.85 Z M489.91,39.69 C489.685,38.985 489.625,38.415 489.625,36.9 C489.625,35.385 489.685,34.815 489.91,34.11 C490.435,32.46 491.845,31.635 493.66,31.635 C495.565,31.635 496.81,32.58 497.29,33.81 C497.335,33.9 497.32,33.99 497.23,34.035 L495.625,34.71 C495.52,34.74 495.445,34.71 495.415,34.635 C495.01,33.945 494.5,33.585 493.66,33.585 C492.79,33.585 492.25,34.02 492.025,34.725 C491.905,35.085 491.86,35.565 491.86,36.9 C491.86,38.235 491.905,38.73 492.025,39.09 C492.25,39.795 492.805,40.215 493.69,40.215 C494.455,40.215 495.115,39.84 495.325,39.165 C495.4,38.91 495.445,38.595 495.445,38.16 C495.445,38.1 495.415,38.07 495.355,38.07 L493.975,38.07 C493.885,38.07 493.825,38.01 493.825,37.92 L493.825,36.48 C493.825,36.39 493.885,36.33 493.975,36.33 L497.485,36.33 C497.575,36.33 497.635,36.39 497.635,36.48 L497.635,37.32 C497.635,38.22 497.56,39.06 497.38,39.615 C496.87,41.25 495.46,42.165 493.66,42.165 C491.845,42.165 490.435,41.34 489.91,39.69 Z M500.035,41.85 L500.035,31.95 C500.035,31.86 500.095,31.8 500.185,31.8 L502.09,31.8 C502.18,31.8 502.24,31.86 502.24,31.95 L502.24,35.775 C502.24,35.835 502.27,35.865 502.33,35.865 L505.66,35.865 C505.72,35.865 505.75,35.835 505.75,35.775 L505.75,31.95 C505.75,31.86 505.81,31.8 505.9,31.8 L507.805,31.8 C507.895,31.8 507.955,31.86 507.955,31.95 L507.955,41.85 C507.955,41.94 507.895,42 507.805,42 L505.9,42 C505.81,42 505.75,41.94 505.75,41.85 L505.75,37.92 C505.75,37.86 505.72,37.83 505.66,37.83 L502.33,37.83 C502.27,37.83 502.24,37.86 502.24,37.92 L502.24,41.85 C502.24,41.94 502.18,42 502.09,42 L500.185,42 C500.095,42 500.035,41.94 500.035,41.85 Z M514.78,42 L512.875,42 C512.785,42 512.725,41.94 512.725,41.85 L512.725,33.855 C512.725,33.795 512.695,33.765 512.635,33.765 L510.055,33.765 C509.965,33.765 509.905,33.705 509.905,33.615 L509.905,31.95 C509.905,31.86 509.965,31.8 510.055,31.8 L517.6,31.8 C517.69,31.8 517.75,31.86 517.75,31.95 L517.75,33.615 C517.75,33.705 517.69,33.765 517.6,33.765 L515.02,33.765 C514.96,33.765 514.93,33.795 514.93,33.855 L514.93,41.85 C514.93,41.94 514.87,42 514.78,42 Z M527.23,42.165 C525.64,42.165 524.095,41.535 523.3,40.77 C523.24,40.71 523.21,40.605 523.285,40.515 L524.425,39.21 C524.485,39.135 524.575,39.135 524.65,39.195 C525.325,39.735 526.24,40.245 527.32,40.245 C528.385,40.245 528.985,39.75 528.985,39.03 C528.985,38.43 528.625,38.055 527.41,37.89 L526.87,37.815 C524.8,37.53 523.645,36.555 523.645,34.755 C523.645,32.88 525.055,31.635 527.26,31.635 C528.61,31.635 529.87,32.04 530.725,32.7 C530.815,32.76 530.83,32.82 530.755,32.925 L529.84,34.29 C529.78,34.365 529.705,34.38 529.63,34.335 C528.85,33.825 528.1,33.555 527.26,33.555 C526.36,33.555 525.895,34.02 525.895,34.665 C525.895,35.25 526.315,35.625 527.485,35.79 L528.025,35.865 C530.125,36.15 531.235,37.11 531.235,38.955 C531.235,40.8 529.87,42.165 527.23,42.165 Z M537.415,42 L535.51,42 C535.42,42 535.36,41.94 535.36,41.85 L535.36,33.855 C535.36,33.795 535.33,33.765 535.27,33.765 L532.69,33.765 C532.6,33.765 532.54,33.705 532.54,33.615 L532.54,31.95 C532.54,31.86 532.6,31.8 532.69,31.8 L540.235,31.8 C540.325,31.8 540.385,31.86 540.385,31.95 L540.385,33.615 C540.385,33.705 540.325,33.765 540.235,33.765 L537.655,33.765 C537.595,33.765 537.565,33.795 537.565,33.855 L537.565,41.85 C537.565,41.94 537.505,42 537.415,42 Z M540.61,41.85 L544.12,31.95 C544.15,31.86 544.21,31.8 544.315,31.8 L546.205,31.8 C546.31,31.8 546.37,31.86 546.4,31.95 L549.85,41.85 C549.88,41.94 549.85,42 549.745,42 L547.795,42 C547.69,42 547.63,41.955 547.6,41.85 L547.015,40.065 L543.445,40.065 L542.875,41.85 C542.845,41.955 542.785,42 542.68,42 L540.715,42 C540.61,42 540.58,41.94 540.61,41.85 Z M544.06,38.19 L546.415,38.19 L545.26,34.62 L545.215,34.62 L544.06,38.19 Z M554.95,42 L553.045,42 C552.955,42 552.895,41.94 552.895,41.85 L552.895,33.855 C552.895,33.795 552.865,33.765 552.805,33.765 L550.225,33.765 C550.135,33.765 550.075,33.705 550.075,33.615 L550.075,31.95 C550.075,31.86 550.135,31.8 550.225,31.8 L557.77,31.8 C557.86,31.8 557.92,31.86 557.92,31.95 L557.92,33.615 C557.92,33.705 557.86,33.765 557.77,33.765 L555.19,33.765 C555.13,33.765 555.1,33.795 555.1,33.855 L555.1,41.85 C555.1,41.94 555.04,42 554.95,42 Z M563.74,42.165 C561.445,42.165 559.825,40.785 559.825,38.25 L559.825,31.95 C559.825,31.86 559.885,31.8 559.975,31.8 L561.88,31.8 C561.97,31.8 562.03,31.86 562.03,31.95 L562.03,38.31 C562.03,39.525 562.705,40.215 563.74,40.215 C564.76,40.215 565.435,39.525 565.435,38.31 L565.435,31.95 C565.435,31.86 565.495,31.8 565.585,31.8 L567.49,31.8 C567.58,31.8 567.64,31.86 567.64,31.95 L567.64,38.25 C567.64,40.785 566.02,42.165 563.74,42.165 Z M573.7,42.165 C572.11,42.165 570.565,41.535 569.77,40.77 C569.71,40.71 569.68,40.605 569.755,40.515 L570.895,39.21 C570.955,39.135 571.045,39.135 571.12,39.195 C571.795,39.735 572.71,40.245 573.79,40.245 C574.855,40.245 575.455,39.75 575.455,39.03 C575.455,38.43 575.095,38.055 573.88,37.89 L573.34,37.815 C571.27,37.53 570.115,36.555 570.115,34.755 C570.115,32.88 571.525,31.635 573.73,31.635 C575.08,31.635 576.34,32.04 577.195,32.7 C577.285,32.76 577.3,32.82 577.225,32.925 L576.31,34.29 C576.25,34.365 576.175,34.38 576.1,34.335 C575.32,33.825 574.57,33.555 573.73,33.555 C572.83,33.555 572.365,34.02 572.365,34.665 C572.365,35.25 572.785,35.625 573.955,35.79 L574.495,35.865 C576.595,36.15 577.705,37.11 577.705,38.955 C577.705,40.8 576.34,42.165 573.7,42.165 Z" id="FLIGHTSTATUS" fill="#FFFFFF" fill-rule="nonzero"></path>
            <rect id="Rectangle" fill="#DB4145" x="298" y="48" width="41" height="4"></rect>
        </g>
        <g class="channel-tools">
            <g id="Group-9" transform="translate(1075.000000, 101.000000)">
                <circle id="Oval" fill="#DB4145" cx="23" cy="23" r="23"></circle>
                <g id="Group-5" transform="translate(11.000000, 13.000000)" stroke="#FFFFFF" stroke-linecap="round" stroke-width="5">
                    <path d="M0.5,10 L23.9335654,10" id="Line-8"></path>
                    <path d="M13.9800912,0.0465258522 L23.9335654,10" id="Line-8-Copy"></path>
                    <path d="M13.9800912,10.0465259 L23.9335654,20" id="Line-8-Copy-2" transform="translate(18.500000, 15.000000) scale(1, -1) translate(-18.500000, -15.000000) "></path>
                </g>
            </g>
            <mask id="mask-2" fill="white">
                <use xlink:href="#airline-path-1"></use>
            </mask>
            <g id="Group-4" transform="translate(877.000000, 178.000000)">
                <rect id="Rectangle" fill="#E51937" x="0" y="0" width="34" height="17"></rect>
                <path d="M11.6777344,13 L9.36914062,13 L5.64257812,6.51953125 L5.58984375,6.51953125 C5.66406287,7.66406822 5.70117188,8.48046631 5.70117188,8.96875 L5.70117188,13 L4.078125,13 L4.078125,4.43359375 L6.36914062,4.43359375 L10.0898438,10.8496094 L10.1308594,10.8496094 C10.0722653,9.73632256 10.0429688,8.94922105 10.0429688,8.48828125 L10.0429688,4.43359375 L11.6777344,4.43359375 L11.6777344,13 Z M18.7675781,13 L13.8339844,13 L13.8339844,4.43359375 L18.7675781,4.43359375 L18.7675781,5.921875 L15.6503906,5.921875 L15.6503906,7.80273438 L18.5507812,7.80273438 L18.5507812,9.29101562 L15.6503906,9.29101562 L15.6503906,11.5 L18.7675781,11.5 L18.7675781,13 Z M28.8984375,13 L26.8300781,13 L25.6699219,8.5 C25.6269529,8.33984295 25.5537115,8.00879157 25.4501953,7.50683594 C25.3466792,7.0048803 25.2871095,6.66796961 25.2714844,6.49609375 C25.2480468,6.7070323 25.1894536,7.0458961 25.0957031,7.51269531 C25.0019527,7.97949452 24.9296878,8.312499 24.8789062,8.51171875 L23.7246094,13 L21.6621094,13 L19.4765625,4.43359375 L21.2636719,4.43359375 L22.359375,9.109375 C22.5507822,9.97266057 22.6894527,10.7207 22.7753906,11.3535156 C22.7988282,11.1308583 22.8525386,10.7861351 22.9365234,10.3193359 C23.0205082,9.85253673 23.099609,9.49023566 23.1738281,9.23242188 L24.421875,4.43359375 L26.1386719,4.43359375 L27.3867188,9.23242188 C27.4414065,9.4472667 27.5097652,9.77538842 27.5917969,10.2167969 C27.6738285,10.6582053 27.7363279,11.0371078 27.7792969,11.3535156 C27.8183596,11.0488266 27.8808589,10.6689476 27.9667969,10.2138672 C28.0527348,9.75878679 28.130859,9.39062641 28.2011719,9.109375 L29.2910156,4.43359375 L31.078125,4.43359375 L28.8984375,13 Z" id="NEW" fill="#FFFFFF" fill-rule="nonzero"></path>
            </g>
            <path d="M888.956543,211 L887.09668,211 L882.532715,203.60498 L882.481934,203.60498 L882.513672,204.017578 C882.572917,204.804691 882.602539,205.524085 882.602539,206.175781 L882.602539,211 L881.225098,211 L881.225098,201.719727 L883.065918,201.719727 L887.617188,209.07666 L887.655273,209.07666 C887.64681,208.979329 887.629883,208.624922 887.604492,208.013428 C887.579101,207.401934 887.566406,206.924806 887.566406,206.582031 L887.566406,201.719727 L888.956543,201.719727 L888.956543,211 Z M895.640625,211 L895.342285,210.022461 L895.291504,210.022461 C894.952961,210.449872 894.612306,210.740803 894.269531,210.895264 C893.926756,211.049724 893.486656,211.126953 892.949219,211.126953 C892.259437,211.126953 891.720949,210.940757 891.33374,210.568359 C890.946531,210.195962 890.75293,209.669111 890.75293,208.987793 C890.75293,208.264157 891.021644,207.718264 891.559082,207.350098 C892.09652,206.981932 892.915359,206.780925 894.015625,206.74707 L895.228027,206.708984 L895.228027,206.334473 C895.228027,205.885903 895.123292,205.550538 894.913818,205.328369 C894.704345,205.1062 894.379559,204.995117 893.939453,204.995117 C893.579751,204.995117 893.234865,205.048014 892.904785,205.153809 C892.574705,205.259603 892.257326,205.384439 891.952637,205.52832 L891.470215,204.461914 C891.851076,204.26302 892.267901,204.111736 892.720703,204.008057 C893.173505,203.904378 893.600909,203.852539 894.00293,203.852539 C894.895838,203.852539 895.569741,204.047199 896.024658,204.436523 C896.479576,204.825848 896.707031,205.437333 896.707031,206.270996 L896.707031,211 L895.640625,211 Z M893.418945,209.984375 C893.960615,209.984375 894.395425,209.833091 894.723389,209.530518 C895.051353,209.227944 895.215332,208.803714 895.215332,208.257812 L895.215332,207.648438 L894.313965,207.686523 C893.611487,207.711914 893.100506,207.829345 892.781006,208.038818 C892.461506,208.248292 892.301758,208.568845 892.301758,209.000488 C892.301758,209.313641 892.394856,209.555907 892.581055,209.727295 C892.767254,209.898682 893.046548,209.984375 893.418945,209.984375 Z M901.404297,209.920898 C901.768231,209.920898 902.13216,209.86377 902.496094,209.749512 L902.496094,210.873047 C902.331054,210.944987 902.11841,211.005289 901.858154,211.053955 C901.597899,211.102621 901.328126,211.126953 901.048828,211.126953 C899.63541,211.126953 898.928711,210.382169 898.928711,208.892578 L898.928711,205.109375 L897.970215,205.109375 L897.970215,204.449219 L898.998535,203.90332 L899.506348,202.417969 L900.426758,202.417969 L900.426758,203.979492 L902.42627,203.979492 L902.42627,205.109375 L900.426758,205.109375 L900.426758,208.867188 C900.426758,209.22689 900.516682,209.492431 900.696533,209.663818 C900.876384,209.835206 901.112303,209.920898 901.404297,209.920898 Z M908.850098,211 L908.640625,210.07959 L908.564453,210.07959 C908.357095,210.405438 908.061932,210.661457 907.678955,210.847656 C907.295978,211.033855 906.859052,211.126953 906.368164,211.126953 C905.517574,211.126953 904.882815,210.915367 904.463867,210.492188 C904.04492,210.069008 903.835449,209.427901 903.835449,208.568848 L903.835449,203.979492 L905.339844,203.979492 L905.339844,208.308594 C905.339844,208.846031 905.449869,209.249103 905.669922,209.517822 C905.889975,209.786541 906.234861,209.920898 906.70459,209.920898 C907.330895,209.920898 907.791096,209.733644 908.085205,209.359131 C908.379315,208.984617 908.526367,208.357264 908.526367,207.477051 L908.526367,203.979492 L910.024414,203.979492 L910.024414,211 L908.850098,211 Z M915.711914,203.852539 C916.012371,203.852539 916.259927,203.873698 916.45459,203.916016 L916.308594,205.306152 C916.097004,205.255371 915.876954,205.22998 915.648438,205.22998 C915.051755,205.22998 914.56828,205.42464 914.197998,205.813965 C913.827716,206.20329 913.642578,206.708981 913.642578,207.331055 L913.642578,211 L912.150879,211 L912.150879,203.979492 L913.318848,203.979492 L913.515625,205.217285 L913.591797,205.217285 C913.824545,204.798338 914.128172,204.466147 914.502686,204.220703 C914.877199,203.975259 915.280271,203.852539 915.711914,203.852539 Z M921.888184,211 L921.589844,210.022461 L921.539062,210.022461 C921.200519,210.449872 920.859865,210.740803 920.51709,210.895264 C920.174315,211.049724 919.734215,211.126953 919.196777,211.126953 C918.506995,211.126953 917.968508,210.940757 917.581299,210.568359 C917.19409,210.195962 917.000488,209.669111 917.000488,208.987793 C917.000488,208.264157 917.269203,207.718264 917.806641,207.350098 C918.344078,206.981932 919.162918,206.780925 920.263184,206.74707 L921.475586,206.708984 L921.475586,206.334473 C921.475586,205.885903 921.370851,205.550538 921.161377,205.328369 C920.951903,205.1062 920.627118,204.995117 920.187012,204.995117 C919.827309,204.995117 919.482424,205.048014 919.152344,205.153809 C918.822264,205.259603 918.504884,205.384439 918.200195,205.52832 L917.717773,204.461914 C918.098635,204.26302 918.51546,204.111736 918.968262,204.008057 C919.421063,203.904378 919.848468,203.852539 920.250488,203.852539 C921.143396,203.852539 921.817299,204.047199 922.272217,204.436523 C922.727134,204.825848 922.95459,205.437333 922.95459,206.270996 L922.95459,211 L921.888184,211 Z M919.666504,209.984375 C920.208173,209.984375 920.642983,209.833091 920.970947,209.530518 C921.298911,209.227944 921.462891,208.803714 921.462891,208.257812 L921.462891,207.648438 L920.561523,207.686523 C919.859046,207.711914 919.348065,207.829345 919.028564,208.038818 C918.709064,208.248292 918.549316,208.568845 918.549316,209.000488 C918.549316,209.313641 918.642414,209.555907 918.828613,209.727295 C919.014812,209.898682 919.294106,209.984375 919.666504,209.984375 Z M926.52832,211 L925.036621,211 L925.036621,201.123047 L926.52832,201.123047 L926.52832,211 Z M932.196777,211 L932.196777,201.719727 L933.713867,201.719727 L933.713867,209.69873 L937.643066,209.69873 L937.643066,211 L932.196777,211 Z M943.476562,211 L943.178223,210.022461 L943.127441,210.022461 C942.788898,210.449872 942.448244,210.740803 942.105469,210.895264 C941.762694,211.049724 941.322594,211.126953 940.785156,211.126953 C940.095374,211.126953 939.556887,210.940757 939.169678,210.568359 C938.782469,210.195962 938.588867,209.669111 938.588867,208.987793 C938.588867,208.264157 938.857582,207.718264 939.39502,207.350098 C939.932457,206.981932 940.751297,206.780925 941.851562,206.74707 L943.063965,206.708984 L943.063965,206.334473 C943.063965,205.885903 942.95923,205.550538 942.749756,205.328369 C942.540282,205.1062 942.215497,204.995117 941.775391,204.995117 C941.415688,204.995117 941.070802,205.048014 940.740723,205.153809 C940.410643,205.259603 940.093263,205.384439 939.788574,205.52832 L939.306152,204.461914 C939.687014,204.26302 940.103839,204.111736 940.556641,204.008057 C941.009442,203.904378 941.436847,203.852539 941.838867,203.852539 C942.731775,203.852539 943.405678,204.047199 943.860596,204.436523 C944.315513,204.825848 944.542969,205.437333 944.542969,206.270996 L944.542969,211 L943.476562,211 Z M941.254883,209.984375 C941.796552,209.984375 942.231362,209.833091 942.559326,209.530518 C942.88729,209.227944 943.05127,208.803714 943.05127,208.257812 L943.05127,207.648438 L942.149902,207.686523 C941.447425,207.711914 940.936444,207.829345 940.616943,208.038818 C940.297443,208.248292 940.137695,208.568845 940.137695,209.000488 C940.137695,209.313641 940.230793,209.555907 940.416992,209.727295 C940.603191,209.898682 940.882485,209.984375 941.254883,209.984375 Z M952.80127,211 L951.303223,211 L951.303223,206.683594 C951.303223,206.141924 951.194256,205.737794 950.976318,205.471191 C950.758381,205.204589 950.412437,205.071289 949.938477,205.071289 C949.30794,205.071289 948.846681,205.257485 948.554688,205.629883 C948.262694,206.002281 948.116699,206.62646 948.116699,207.502441 L948.116699,211 L946.625,211 L946.625,203.979492 L947.792969,203.979492 L948.002441,204.899902 L948.078613,204.899902 C948.290203,204.565591 948.590656,204.307455 948.97998,204.125488 C949.369305,203.943521 949.800942,203.852539 950.274902,203.852539 C951.959156,203.852539 952.80127,204.709464 952.80127,206.42334 L952.80127,211 Z M960.805664,203.979492 L960.805664,204.79834 L959.605957,205.020508 C959.715984,205.168621 959.806966,205.350585 959.878906,205.566406 C959.950847,205.782228 959.986816,206.010741 959.986816,206.251953 C959.986816,206.97559 959.737144,207.544757 959.237793,207.959473 C958.738442,208.374188 958.050786,208.581543 957.174805,208.581543 C956.95052,208.581543 956.747397,208.564616 956.56543,208.530762 C956.243813,208.729656 956.083008,208.962401 956.083008,209.229004 C956.083008,209.389812 956.158121,209.510416 956.30835,209.59082 C956.458578,209.671224 956.734699,209.711426 957.136719,209.711426 L958.361816,209.711426 C959.136234,209.711426 959.724445,209.876463 960.126465,210.206543 C960.528485,210.536623 960.729492,211.012692 960.729492,211.634766 C960.729492,212.430343 960.401533,213.043943 959.745605,213.475586 C959.089678,213.907229 958.141771,214.123047 956.901855,214.123047 C955.94547,214.123047 955.215497,213.953778 954.711914,213.615234 C954.208331,213.276691 953.956543,212.794274 953.956543,212.167969 C953.956543,211.736326 954.093016,211.373455 954.365967,211.079346 C954.638917,210.785236 955.020831,210.581055 955.511719,210.466797 C955.312825,210.382161 955.148845,210.245688 955.019775,210.057373 C954.890706,209.869058 954.826172,209.671225 954.826172,209.463867 C954.826172,209.201496 954.900227,208.97933 955.04834,208.797363 C955.196453,208.615396 955.416502,208.435548 955.708496,208.257812 C955.344562,208.101236 955.049399,207.846275 954.822998,207.49292 C954.596597,207.139565 954.483398,206.725914 954.483398,206.251953 C954.483398,205.490231 954.723549,204.899904 955.203857,204.480957 C955.684166,204.06201 956.368648,203.852539 957.257324,203.852539 C957.456218,203.852539 957.664631,203.866292 957.882568,203.893799 C958.100506,203.921305 958.264485,203.94987 958.374512,203.979492 L960.805664,203.979492 Z M955.289551,212.091797 C955.289551,212.413413 955.434487,212.660969 955.724365,212.834473 C956.014243,213.007976 956.421547,213.094727 956.946289,213.094727 C957.758793,213.094727 958.36393,212.978354 958.761719,212.745605 C959.159507,212.512857 959.358398,212.203941 959.358398,211.818848 C959.358398,211.514159 959.249431,211.297283 959.031494,211.168213 C958.813557,211.039143 958.408369,210.974609 957.815918,210.974609 L956.686035,210.974609 C956.258624,210.974609 955.919028,211.075113 955.667236,211.276123 C955.415445,211.477133 955.289551,211.749022 955.289551,212.091797 Z M955.930664,206.251953 C955.930664,206.692059 956.043863,207.030598 956.270264,207.267578 C956.496665,207.504558 956.82145,207.623047 957.244629,207.623047 C958.107914,207.623047 958.539551,207.161788 958.539551,206.239258 C958.539551,205.782224 958.4327,205.429933 958.218994,205.182373 C958.005289,204.934813 957.680503,204.811035 957.244629,204.811035 C956.812986,204.811035 956.486085,204.933755 956.263916,205.179199 C956.041747,205.424643 955.930664,205.782224 955.930664,206.251953 Z M967.058105,211 L966.848633,210.07959 L966.772461,210.07959 C966.565103,210.405438 966.26994,210.661457 965.886963,210.847656 C965.503986,211.033855 965.06706,211.126953 964.576172,211.126953 C963.725582,211.126953 963.090822,210.915367 962.671875,210.492188 C962.252928,210.069008 962.043457,209.427901 962.043457,208.568848 L962.043457,203.979492 L963.547852,203.979492 L963.547852,208.308594 C963.547852,208.846031 963.657877,209.249103 963.87793,209.517822 C964.097983,209.786541 964.442869,209.920898 964.912598,209.920898 C965.538903,209.920898 965.999103,209.733644 966.293213,209.359131 C966.587322,208.984617 966.734375,208.357264 966.734375,207.477051 L966.734375,203.979492 L968.232422,203.979492 L968.232422,211 L967.058105,211 Z M974.751465,211 L974.453125,210.022461 L974.402344,210.022461 C974.0638,210.449872 973.723146,210.740803 973.380371,210.895264 C973.037596,211.049724 972.597496,211.126953 972.060059,211.126953 C971.370276,211.126953 970.831789,210.940757 970.44458,210.568359 C970.057371,210.195962 969.86377,209.669111 969.86377,208.987793 C969.86377,208.264157 970.132484,207.718264 970.669922,207.350098 C971.207359,206.981932 972.026199,206.780925 973.126465,206.74707 L974.338867,206.708984 L974.338867,206.334473 C974.338867,205.885903 974.234132,205.550538 974.024658,205.328369 C973.815184,205.1062 973.490399,204.995117 973.050293,204.995117 C972.690591,204.995117 972.345705,205.048014 972.015625,205.153809 C971.685545,205.259603 971.368166,205.384439 971.063477,205.52832 L970.581055,204.461914 C970.961916,204.26302 971.378741,204.111736 971.831543,204.008057 C972.284345,203.904378 972.711749,203.852539 973.11377,203.852539 C974.006678,203.852539 974.68058,204.047199 975.135498,204.436523 C975.590416,204.825848 975.817871,205.437333 975.817871,206.270996 L975.817871,211 L974.751465,211 Z M972.529785,209.984375 C973.071455,209.984375 973.506265,209.833091 973.834229,209.530518 C974.162192,209.227944 974.326172,208.803714 974.326172,208.257812 L974.326172,207.648438 L973.424805,207.686523 C972.722327,207.711914 972.211346,207.829345 971.891846,208.038818 C971.572345,208.248292 971.412598,208.568845 971.412598,209.000488 C971.412598,209.313641 971.505696,209.555907 971.691895,209.727295 C971.878093,209.898682 972.157387,209.984375 972.529785,209.984375 Z M983.828613,203.979492 L983.828613,204.79834 L982.628906,205.020508 C982.738933,205.168621 982.829915,205.350585 982.901855,205.566406 C982.973796,205.782228 983.009766,206.010741 983.009766,206.251953 C983.009766,206.97559 982.760094,207.544757 982.260742,207.959473 C981.761391,208.374188 981.073735,208.581543 980.197754,208.581543 C979.973469,208.581543 979.770346,208.564616 979.588379,208.530762 C979.266763,208.729656 979.105957,208.962401 979.105957,209.229004 C979.105957,209.389812 979.18107,209.510416 979.331299,209.59082 C979.481527,209.671224 979.757648,209.711426 980.159668,209.711426 L981.384766,209.711426 C982.159184,209.711426 982.747394,209.876463 983.149414,210.206543 C983.551434,210.536623 983.752441,211.012692 983.752441,211.634766 C983.752441,212.430343 983.424482,213.043943 982.768555,213.475586 C982.112627,213.907229 981.16472,214.123047 979.924805,214.123047 C978.96842,214.123047 978.238447,213.953778 977.734863,213.615234 C977.23128,213.276691 976.979492,212.794274 976.979492,212.167969 C976.979492,211.736326 977.115965,211.373455 977.388916,211.079346 C977.661867,210.785236 978.04378,210.581055 978.534668,210.466797 C978.335774,210.382161 978.171794,210.245688 978.042725,210.057373 C977.913655,209.869058 977.849121,209.671225 977.849121,209.463867 C977.849121,209.201496 977.923176,208.97933 978.071289,208.797363 C978.219402,208.615396 978.439452,208.435548 978.731445,208.257812 C978.367511,208.101236 978.072348,207.846275 977.845947,207.49292 C977.619546,207.139565 977.506348,206.725914 977.506348,206.251953 C977.506348,205.490231 977.746498,204.899904 978.226807,204.480957 C978.707115,204.06201 979.391597,203.852539 980.280273,203.852539 C980.479168,203.852539 980.68758,203.866292 980.905518,203.893799 C981.123455,203.921305 981.287434,203.94987 981.397461,203.979492 L983.828613,203.979492 Z M978.3125,212.091797 C978.3125,212.413413 978.457437,212.660969 978.747314,212.834473 C979.037192,213.007976 979.444496,213.094727 979.969238,213.094727 C980.781742,213.094727 981.38688,212.978354 981.784668,212.745605 C982.182456,212.512857 982.381348,212.203941 982.381348,211.818848 C982.381348,211.514159 982.272381,211.297283 982.054443,211.168213 C981.836506,211.039143 981.431318,210.974609 980.838867,210.974609 L979.708984,210.974609 C979.281573,210.974609 978.941977,211.075113 978.690186,211.276123 C978.438394,211.477133 978.3125,211.749022 978.3125,212.091797 Z M978.953613,206.251953 C978.953613,206.692059 979.066812,207.030598 979.293213,207.267578 C979.519614,207.504558 979.844399,207.623047 980.267578,207.623047 C981.130864,207.623047 981.5625,207.161788 981.5625,206.239258 C981.5625,205.782224 981.455649,205.429933 981.241943,205.182373 C981.028238,204.934813 980.703453,204.811035 980.267578,204.811035 C979.835935,204.811035 979.509034,204.933755 979.286865,205.179199 C979.064696,205.424643 978.953613,205.782224 978.953613,206.251953 Z M988.195801,211.126953 C987.103998,211.126953 986.250247,210.808516 985.634521,210.171631 C985.018796,209.534746 984.710938,208.65772 984.710938,207.540527 C984.710938,206.393712 984.996579,205.492354 985.567871,204.836426 C986.139163,204.180498 986.924149,203.852539 987.922852,203.852539 C988.849614,203.852539 989.581703,204.133949 990.119141,204.696777 C990.656578,205.259606 990.925293,206.034012 990.925293,207.02002 L990.925293,207.826172 L986.24707,207.826172 C986.268229,208.50749 986.452309,209.031167 986.799316,209.397217 C987.146323,209.763267 987.635088,209.946289 988.265625,209.946289 C988.680341,209.946289 989.066486,209.907146 989.424072,209.828857 C989.781659,209.750569 990.165688,209.620444 990.576172,209.438477 L990.576172,210.650879 C990.212238,210.824382 989.844077,210.947103 989.47168,211.019043 C989.099282,211.090983 988.673993,211.126953 988.195801,211.126953 Z M987.922852,204.982422 C987.448891,204.982422 987.069093,205.132648 986.783447,205.433105 C986.497801,205.733563 986.327474,206.171547 986.272461,206.74707 L989.458984,206.74707 C989.450521,206.167315 989.310874,205.728273 989.040039,205.429932 C988.769204,205.13159 988.396812,204.982422 987.922852,204.982422 Z M1001.50684,208.47998 C1001.50684,209.30518 1001.2085,209.952634 1000.61182,210.422363 C1000.01513,210.892092 999.192063,211.126953 998.142578,211.126953 C997.093094,211.126953 996.234053,210.964032 995.56543,210.638184 L995.56543,209.203613 C995.988609,209.402508 996.43823,209.559081 996.914307,209.67334 C997.390383,209.787598 997.833657,209.844727 998.244141,209.844727 C998.845055,209.844727 999.288329,209.73047 999.573975,209.501953 C999.859621,209.273436 1000.00244,208.966636 1000.00244,208.581543 C1000.00244,208.234536 999.871258,207.940431 999.608887,207.699219 C999.346516,207.458007 998.804854,207.172365 997.983887,206.842285 C997.137528,206.49951 996.540855,206.108075 996.193848,205.667969 C995.846841,205.227862 995.67334,204.698896 995.67334,204.081055 C995.67334,203.306637 995.948402,202.697268 996.498535,202.25293 C997.048668,201.808592 997.787105,201.586426 998.713867,201.586426 C999.602544,201.586426 1000.48697,201.781085 1001.36719,202.17041 L1000.88477,203.408203 C1000.05957,203.061196 999.323245,202.887695 998.675781,202.887695 C998.184893,202.887695 997.812501,202.994546 997.558594,203.208252 C997.304686,203.421957 997.177734,203.704425 997.177734,204.055664 C997.177734,204.296876 997.228515,204.503173 997.330078,204.674561 C997.431641,204.845948 997.598794,205.007812 997.831543,205.160156 C998.064292,205.312501 998.483233,205.513508 999.088379,205.763184 C999.769697,206.046714 1000.26904,206.311197 1000.58643,206.556641 C1000.90381,206.802085 1001.13656,207.079263 1001.28467,207.388184 C1001.43278,207.697104 1001.50684,208.061033 1001.50684,208.47998 Z M1006.21045,211.126953 C1005.11865,211.126953 1004.2649,210.808516 1003.64917,210.171631 C1003.03344,209.534746 1002.72559,208.65772 1002.72559,207.540527 C1002.72559,206.393712 1003.01123,205.492354 1003.58252,204.836426 C1004.15381,204.180498 1004.9388,203.852539 1005.9375,203.852539 C1006.86426,203.852539 1007.59635,204.133949 1008.13379,204.696777 C1008.67123,205.259606 1008.93994,206.034012 1008.93994,207.02002 L1008.93994,207.826172 L1004.26172,207.826172 C1004.28288,208.50749 1004.46696,209.031167 1004.81396,209.397217 C1005.16097,209.763267 1005.64974,209.946289 1006.28027,209.946289 C1006.69499,209.946289 1007.08113,209.907146 1007.43872,209.828857 C1007.79631,209.750569 1008.18034,209.620444 1008.59082,209.438477 L1008.59082,210.650879 C1008.22689,210.824382 1007.85873,210.947103 1007.48633,211.019043 C1007.11393,211.090983 1006.68864,211.126953 1006.21045,211.126953 Z M1005.9375,204.982422 C1005.46354,204.982422 1005.08374,205.132648 1004.7981,205.433105 C1004.51245,205.733563 1004.34212,206.171547 1004.28711,206.74707 L1007.47363,206.74707 C1007.46517,206.167315 1007.32552,205.728273 1007.05469,205.429932 C1006.78385,205.13159 1006.41146,204.982422 1005.9375,204.982422 Z M1015.02734,211 L1014.729,210.022461 L1014.67822,210.022461 C1014.33968,210.449872 1013.99903,210.740803 1013.65625,210.895264 C1013.31347,211.049724 1012.87338,211.126953 1012.33594,211.126953 C1011.64616,211.126953 1011.10767,210.940757 1010.72046,210.568359 C1010.33325,210.195962 1010.13965,209.669111 1010.13965,208.987793 C1010.13965,208.264157 1010.40836,207.718264 1010.9458,207.350098 C1011.48324,206.981932 1012.30208,206.780925 1013.40234,206.74707 L1014.61475,206.708984 L1014.61475,206.334473 C1014.61475,205.885903 1014.51001,205.550538 1014.30054,205.328369 C1014.09106,205.1062 1013.76628,204.995117 1013.32617,204.995117 C1012.96647,204.995117 1012.62158,205.048014 1012.2915,205.153809 C1011.96142,205.259603 1011.64404,205.384439 1011.33936,205.52832 L1010.85693,204.461914 C1011.23779,204.26302 1011.65462,204.111736 1012.10742,204.008057 C1012.56022,203.904378 1012.98763,203.852539 1013.38965,203.852539 C1014.28256,203.852539 1014.95646,204.047199 1015.41138,204.436523 C1015.86629,204.825848 1016.09375,205.437333 1016.09375,206.270996 L1016.09375,211 L1015.02734,211 Z M1012.80566,209.984375 C1013.34733,209.984375 1013.78214,209.833091 1014.11011,209.530518 C1014.43807,209.227944 1014.60205,208.803714 1014.60205,208.257812 L1014.60205,207.648438 L1013.70068,207.686523 C1012.99821,207.711914 1012.48722,207.829345 1012.16772,208.038818 C1011.84822,208.248292 1011.68848,208.568845 1011.68848,209.000488 C1011.68848,209.313641 1011.78157,209.555907 1011.96777,209.727295 C1012.15397,209.898682 1012.43327,209.984375 1012.80566,209.984375 Z M1021.73682,203.852539 C1022.03727,203.852539 1022.28483,203.873698 1022.47949,203.916016 L1022.3335,205.306152 C1022.12191,205.255371 1021.90186,205.22998 1021.67334,205.22998 C1021.07666,205.22998 1020.59318,205.42464 1020.2229,205.813965 C1019.85262,206.20329 1019.66748,206.708981 1019.66748,207.331055 L1019.66748,211 L1018.17578,211 L1018.17578,203.979492 L1019.34375,203.979492 L1019.54053,205.217285 L1019.6167,205.217285 C1019.84945,204.798338 1020.15307,204.466147 1020.52759,204.220703 C1020.9021,203.975259 1021.30517,203.852539 1021.73682,203.852539 Z M1026.35156,211.126953 C1025.28938,211.126953 1024.48218,210.816979 1023.92993,210.197021 C1023.37768,209.577064 1023.10156,208.687343 1023.10156,207.527832 C1023.10156,206.347162 1023.39038,205.439456 1023.96802,204.804688 C1024.54566,204.169919 1025.38037,203.852539 1026.47217,203.852539 C1027.21273,203.852539 1027.87923,203.99007 1028.47168,204.265137 L1028.021,205.464844 C1027.39046,205.2194 1026.86996,205.09668 1026.45947,205.09668 C1025.24495,205.09668 1024.6377,205.902824 1024.6377,207.515137 C1024.6377,208.30225 1024.78898,208.893634 1025.09155,209.289307 C1025.39413,209.684979 1025.8374,209.882812 1026.42139,209.882812 C1027.08578,209.882812 1027.71419,209.717775 1028.30664,209.387695 L1028.30664,210.688965 C1028.04004,210.845541 1027.75545,210.957682 1027.45288,211.025391 C1027.15031,211.093099 1026.78321,211.126953 1026.35156,211.126953 Z M1036.1333,211 L1034.63525,211 L1034.63525,206.683594 C1034.63525,206.141924 1034.52629,205.737794 1034.30835,205.471191 C1034.09041,205.204589 1033.74447,205.071289 1033.27051,205.071289 C1032.6442,205.071289 1032.184,205.258543 1031.88989,205.633057 C1031.59578,206.00757 1031.44873,206.634924 1031.44873,207.515137 L1031.44873,211 L1029.95703,211 L1029.95703,201.123047 L1031.44873,201.123047 L1031.44873,203.630371 C1031.44873,204.032391 1031.42334,204.461912 1031.37256,204.918945 L1031.46777,204.918945 C1031.6709,204.580402 1031.95337,204.318035 1032.31519,204.131836 C1032.677,203.945637 1033.09912,203.852539 1033.58154,203.852539 C1035.28272,203.852539 1036.1333,204.709464 1036.1333,206.42334 L1036.1333,211 Z" id="NaturalLanguageSearch" fill="#FFFFFF" fill-rule="nonzero"></path>
            <g id="Group-13" transform="translate(594.000000, 129.500000) rotate(-270.000000) translate(-594.000000, -129.500000) translate(590.000000, 122.000000)" stroke="#DB4145" stroke-linecap="round" stroke-width="2">
                <path d="M0.0454101562,0.480957031 L7.06445312,7.5" id="Line-4-Copy"></path>
                <path d="M0.0454101562,7.48095703 L7.06445312,14.5" id="Line-4-Copy-2" transform="translate(4.000000, 11.000000) scale(1, -1) translate(-4.000000, -11.000000) "></path>
            </g>
            <path d="M464.95,136 L462.95,136 C462.775,136 462.7,135.925 462.625,135.75 L459.225,128.8 L455.475,128.8 C455.375,128.8 455.325,128.85 455.325,128.95 L455.325,135.75 C455.325,135.9 455.225,136 455.075,136 L453.35,136 C453.2,136 453.1,135.9 453.1,135.75 L453.1,119.25 C453.1,119.1 453.2,119 453.35,119 L459.5,119 C462.675,119 464.825,120.95 464.825,123.9 C464.825,126.2 463.525,127.875 461.475,128.525 L465.1,135.7 C465.2,135.85 465.125,136 464.95,136 Z M459.45,126.725 C461.425,126.725 462.6,125.675 462.6,123.9 C462.6,122.125 461.425,121.075 459.45,121.075 L455.475,121.075 C455.375,121.075 455.325,121.125 455.325,121.225 L455.325,126.575 C455.325,126.675 455.375,126.725 455.475,126.725 L459.45,126.725 Z M473.1,136.275 C470.675,136.275 468.95,135.1 468.3,133.025 C468.05,132.25 467.9,131.375 467.9,130 C467.9,128.625 468.025,127.7 468.275,126.975 C468.95,124.9 470.7,123.75 472.975,123.75 C475.275,123.75 477,124.925 477.675,126.975 C477.925,127.75 478.05,128.575 478.05,130.4 C478.05,130.55 477.95,130.65 477.775,130.65 L470.2,130.65 C470.1,130.65 470.05,130.7 470.05,130.8 C470.05,131.45 470.125,131.85 470.25,132.25 C470.725,133.625 471.8,134.325 473.275,134.325 C474.7,134.325 475.7,133.75 476.35,133 C476.475,132.875 476.6,132.85 476.725,132.95 L477.75,133.875 C477.875,133.975 477.875,134.1 477.775,134.225 C476.825,135.425 475.2,136.275 473.1,136.275 Z M470.2,128.975 L475.75,128.975 C475.85,128.975 475.9,128.925 475.9,128.825 C475.9,128.275 475.85,127.85 475.725,127.475 C475.325,126.275 474.325,125.6 472.975,125.6 C471.625,125.6 470.625,126.275 470.225,127.475 C470.1,127.85 470.05,128.275 470.05,128.825 C470.05,128.925 470.1,128.975 470.2,128.975 Z M486.225,136.125 L485.3,136.125 C482.975,136.125 482.075,135.075 482.075,132.725 L482.075,125.875 C482.075,125.775 482.025,125.725 481.925,125.725 L480.925,125.725 C480.775,125.725 480.675,125.625 480.675,125.475 L480.675,124.275 C480.675,124.125 480.775,124.025 480.925,124.025 L481.925,124.025 C482.025,124.025 482.075,123.975 482.075,123.875 L482.075,120.5 C482.075,120.35 482.175,120.25 482.325,120.25 L483.925,120.25 C484.075,120.25 484.175,120.35 484.175,120.5 L484.175,123.875 C484.175,123.975 484.225,124.025 484.325,124.025 L486.225,124.025 C486.375,124.025 486.475,124.125 486.475,124.275 L486.475,125.475 C486.475,125.625 486.375,125.725 486.225,125.725 L484.325,125.725 C484.225,125.725 484.175,125.775 484.175,125.875 L484.175,132.65 C484.175,133.85 484.625,134.175 485.7,134.175 L486.225,134.175 C486.375,134.175 486.475,134.275 486.475,134.425 L486.475,135.875 C486.475,136.025 486.375,136.125 486.225,136.125 Z M499.25,136 L497.65,136 C497.5,136 497.4,135.9 497.4,135.75 L497.4,134.625 L497.375,134.625 C496.75,135.625 495.65,136.275 494.1,136.275 C491.475,136.275 489.95,134.475 489.95,131.75 L489.95,124.275 C489.95,124.125 490.05,124.025 490.2,124.025 L491.8,124.025 C491.95,124.025 492.05,124.125 492.05,124.275 L492.05,131.25 C492.05,133.2 492.925,134.325 494.7,134.325 C496.325,134.325 497.4,133.175 497.4,131.375 L497.4,124.275 C497.4,124.125 497.5,124.025 497.65,124.025 L499.25,124.025 C499.4,124.025 499.5,124.125 499.5,124.275 L499.5,135.75 C499.5,135.9 499.4,136 499.25,136 Z M505.85,136 L504.25,136 C504.1,136 504,135.9 504,135.75 L504,124.275 C504,124.125 504.1,124.025 504.25,124.025 L505.85,124.025 C506,124.025 506.1,124.125 506.1,124.275 L506.1,125.5 L506.125,125.5 C506.65,124.475 507.7,123.75 509.3,123.75 C510.25,123.75 511.15,124.1 511.75,124.65 C511.875,124.775 511.9,124.875 511.8,125 L510.875,126.225 C510.775,126.35 510.65,126.375 510.525,126.275 C509.975,125.925 509.375,125.7 508.675,125.7 C506.85,125.7 506.1,127.125 506.1,129.2 L506.1,135.75 C506.1,135.9 506,136 505.85,136 Z M524.025,136 L522.425,136 C522.275,136 522.175,135.9 522.175,135.75 L522.175,128.75 C522.175,126.825 521.3,125.7 519.5,125.7 C517.875,125.7 516.75,126.85 516.75,128.625 L516.75,135.75 C516.75,135.9 516.65,136 516.5,136 L514.9,136 C514.75,136 514.65,135.9 514.65,135.75 L514.65,124.275 C514.65,124.125 514.75,124.025 514.9,124.025 L516.5,124.025 C516.65,124.025 516.75,124.125 516.75,124.275 L516.75,125.375 L516.775,125.375 C517.35,124.45 518.5,123.75 520.125,123.75 C522.725,123.75 524.275,125.525 524.275,128.25 L524.275,135.75 C524.275,135.9 524.175,136 524.025,136 Z" id="Return" fill="#FFFFFF" fill-rule="nonzero"></path>
            <path d="M45.575,136 L43.85,136 C43.7,136 43.6,135.9 43.6,135.75 L43.6,121.225 C43.6,121.125 43.55,121.075 43.45,121.075 L38.8,121.075 C38.65,121.075 38.55,120.975 38.55,120.825 L38.55,119.25 C38.55,119.1 38.65,119 38.8,119 L50.625,119 C50.775,119 50.875,119.1 50.875,119.25 L50.875,120.825 C50.875,120.975 50.775,121.075 50.625,121.075 L45.975,121.075 C45.875,121.075 45.825,121.125 45.825,121.225 L45.825,135.75 C45.825,135.9 45.725,136 45.575,136 Z M56.625,136.275 C54.3,136.275 52.55,135.075 51.9,133.05 C51.625,132.225 51.5,131.4 51.5,130 C51.5,128.625 51.625,127.8 51.9,126.975 C52.55,124.925 54.3,123.75 56.625,123.75 C58.95,123.75 60.7,124.925 61.35,126.975 C61.625,127.8 61.75,128.625 61.75,130 C61.75,131.4 61.625,132.225 61.35,133.05 C60.7,135.075 58.95,136.275 56.625,136.275 Z M56.625,134.325 C57.95,134.325 58.925,133.65 59.325,132.45 C59.525,131.8 59.6,131.15 59.6,130 C59.6,128.85 59.525,128.225 59.325,127.575 C58.925,126.375 57.95,125.7 56.625,125.7 C55.3,125.7 54.325,126.375 53.925,127.575 C53.725,128.225 53.65,128.85 53.65,130 C53.65,131.15 53.725,131.8 53.925,132.45 C54.325,133.65 55.3,134.325 56.625,134.325 Z M67.375,136 L65.775,136 C65.625,136 65.525,135.9 65.525,135.75 L65.525,124.275 C65.525,124.125 65.625,124.025 65.775,124.025 L67.375,124.025 C67.525,124.025 67.625,124.125 67.625,124.275 L67.625,125.5 L67.65,125.5 C68.175,124.475 69.225,123.75 70.825,123.75 C71.775,123.75 72.675,124.1 73.275,124.65 C73.4,124.775 73.425,124.875 73.325,125 L72.4,126.225 C72.3,126.35 72.175,126.375 72.05,126.275 C71.5,125.925 70.9,125.7 70.2,125.7 C68.375,125.7 67.625,127.125 67.625,129.2 L67.625,135.75 C67.625,135.9 67.525,136 67.375,136 Z M80.125,136.275 C77.8,136.275 76.05,135.075 75.4,133.05 C75.125,132.225 75,131.4 75,130 C75,128.625 75.125,127.8 75.4,126.975 C76.05,124.925 77.8,123.75 80.125,123.75 C82.45,123.75 84.2,124.925 84.85,126.975 C85.125,127.8 85.25,128.625 85.25,130 C85.25,131.4 85.125,132.225 84.85,133.05 C84.2,135.075 82.45,136.275 80.125,136.275 Z M80.125,134.325 C81.45,134.325 82.425,133.65 82.825,132.45 C83.025,131.8 83.1,131.15 83.1,130 C83.1,128.85 83.025,128.225 82.825,127.575 C82.425,126.375 81.45,125.7 80.125,125.7 C78.8,125.7 77.825,126.375 77.425,127.575 C77.225,128.225 77.15,128.85 77.15,130 C77.15,131.15 77.225,131.8 77.425,132.45 C77.825,133.65 78.8,134.325 80.125,134.325 Z M98.4,136 L96.8,136 C96.65,136 96.55,135.9 96.55,135.75 L96.55,128.75 C96.55,126.825 95.675,125.7 93.875,125.7 C92.25,125.7 91.125,126.85 91.125,128.625 L91.125,135.75 C91.125,135.9 91.025,136 90.875,136 L89.275,136 C89.125,136 89.025,135.9 89.025,135.75 L89.025,124.275 C89.025,124.125 89.125,124.025 89.275,124.025 L90.875,124.025 C91.025,124.025 91.125,124.125 91.125,124.275 L91.125,125.375 L91.15,125.375 C91.725,124.45 92.875,123.75 94.5,123.75 C97.1,123.75 98.65,125.525 98.65,128.25 L98.65,135.75 C98.65,135.9 98.55,136 98.4,136 Z M107.425,136.125 L106.5,136.125 C104.175,136.125 103.275,135.075 103.275,132.725 L103.275,125.875 C103.275,125.775 103.225,125.725 103.125,125.725 L102.125,125.725 C101.975,125.725 101.875,125.625 101.875,125.475 L101.875,124.275 C101.875,124.125 101.975,124.025 102.125,124.025 L103.125,124.025 C103.225,124.025 103.275,123.975 103.275,123.875 L103.275,120.5 C103.275,120.35 103.375,120.25 103.525,120.25 L105.125,120.25 C105.275,120.25 105.375,120.35 105.375,120.5 L105.375,123.875 C105.375,123.975 105.425,124.025 105.525,124.025 L107.425,124.025 C107.575,124.025 107.675,124.125 107.675,124.275 L107.675,125.475 C107.675,125.625 107.575,125.725 107.425,125.725 L105.525,125.725 C105.425,125.725 105.375,125.775 105.375,125.875 L105.375,132.65 C105.375,133.85 105.825,134.175 106.9,134.175 L107.425,134.175 C107.575,134.175 107.675,134.275 107.675,134.425 L107.675,135.875 C107.675,136.025 107.575,136.125 107.425,136.125 Z M115.725,136.275 C113.4,136.275 111.65,135.075 111,133.05 C110.725,132.225 110.6,131.4 110.6,130 C110.6,128.625 110.725,127.8 111,126.975 C111.65,124.925 113.4,123.75 115.725,123.75 C118.05,123.75 119.8,124.925 120.45,126.975 C120.725,127.8 120.85,128.625 120.85,130 C120.85,131.4 120.725,132.225 120.45,133.05 C119.8,135.075 118.05,136.275 115.725,136.275 Z M115.725,134.325 C117.05,134.325 118.025,133.65 118.425,132.45 C118.625,131.8 118.7,131.15 118.7,130 C118.7,128.85 118.625,128.225 118.425,127.575 C118.025,126.375 117.05,125.7 115.725,125.7 C114.4,125.7 113.425,126.375 113.025,127.575 C112.825,128.225 112.75,128.85 112.75,130 C112.75,131.15 112.825,131.8 113.025,132.45 C113.425,133.65 114.4,134.325 115.725,134.325 Z M135.95,136 L134.25,136 C134.1,136 134,135.9 134,135.75 L134,129.05 L128.975,119.275 C128.925,119.125 129,119 129.175,119 L130.95,119 C131.125,119 131.225,119.075 131.325,119.25 L135.125,126.525 L135.175,126.525 L138.95,119.25 C139.025,119.075 139.125,119 139.3,119 L141.025,119 C141.225,119 141.275,119.125 141.225,119.275 L136.2,129.05 L136.2,135.75 C136.2,135.9 136.1,136 135.95,136 Z M149.5,136 L147.8,136 C147.65,136 147.55,135.9 147.55,135.75 L147.55,129.05 L142.525,119.275 C142.475,119.125 142.55,119 142.725,119 L144.5,119 C144.675,119 144.775,119.075 144.875,119.25 L148.675,126.525 L148.725,126.525 L152.5,119.25 C152.575,119.075 152.675,119 152.85,119 L154.575,119 C154.775,119 154.825,119.125 154.775,119.275 L149.75,129.05 L149.75,135.75 C149.75,135.9 149.65,136 149.5,136 Z M167.55,136 L157.1,136 C156.95,136 156.85,135.9 156.85,135.75 L156.85,134.175 C156.85,134.075 156.875,134 156.95,133.9 L165.25,121.1 L165.25,121.075 L157.4,121.075 C157.25,121.075 157.15,120.975 157.15,120.825 L157.15,119.25 C157.15,119.1 157.25,119 157.4,119 L167.55,119 C167.7,119 167.8,119.1 167.8,119.25 L167.8,120.825 C167.8,120.925 167.775,121 167.7,121.1 L159.375,133.9 L159.375,133.925 L167.55,133.925 C167.7,133.925 167.8,134.025 167.8,134.175 L167.8,135.75 C167.8,135.9 167.7,136 167.55,136 Z" id="TorontoYYZ" fill="#FFFFFF" fill-rule="nonzero"></path>
            <path d="M451,143.5 L601,143.5" id="Line-5-Copy" stroke="#FFFFFF" stroke-width="0.5" stroke-linecap="square"></path>
            <g id="Group-13-Copy-2" transform="translate(1029.500000, 129.500000) rotate(-270.000000) translate(-1029.500000, -129.500000) translate(1025.500000, 122.000000)" stroke="#DB4145" stroke-linecap="round" stroke-width="2">
                <path d="M0.0454101562,0.480957031 L7.06445312,7.5" id="Line-4-Copy"></path>
                <path d="M0.0454101562,7.48095703 L7.06445312,14.5" id="Line-4-Copy-2" transform="translate(4.000000, 11.000000) scale(1, -1) translate(-4.000000, -11.000000) "></path>
            </g>
            <path d="M833.1,135.75 L833.1,121.65 L833.05,121.65 L830.225,123.625 C830.075,123.725 829.95,123.675 829.95,123.475 L829.95,121.625 C829.95,121.475 830,121.375 830.125,121.275 L833.05,119.15 C833.175,119.05 833.275,119 833.45,119 L834.95,119 C835.1,119 835.2,119.1 835.2,119.25 L835.2,135.75 C835.2,135.9 835.1,136 834.95,136 L833.35,136 C833.2,136 833.1,135.9 833.1,135.75 Z M851.425,136 L849.7,136 C849.55,136 849.45,135.9 849.45,135.75 L849.45,119.25 C849.45,119.1 849.55,119 849.7,119 L855.75,119 C859.025,119 861.15,121 861.15,124.075 C861.15,127.15 859.025,129.15 855.75,129.15 L851.825,129.15 C851.725,129.15 851.675,129.2 851.675,129.3 L851.675,135.75 C851.675,135.9 851.575,136 851.425,136 Z M855.625,127.075 C857.725,127.075 858.95,125.925 858.95,124.075 C858.95,122.225 857.725,121.075 855.625,121.075 L851.825,121.075 C851.725,121.075 851.675,121.125 851.675,121.225 L851.675,126.925 C851.675,127.025 851.725,127.075 851.825,127.075 L855.625,127.075 Z M872.825,136 L871.35,136 C871.2,136 871.1,135.9 871.1,135.75 L871.1,134.7 L871.075,134.7 C870.525,135.6 869.35,136.275 867.525,136.275 C865.25,136.275 863.5,135.1 863.5,132.675 C863.5,130.15 865.25,128.975 868.175,128.975 L870.9,128.975 C871,128.975 871.05,128.925 871.05,128.825 L871.05,127.95 C871.05,126.3 870.4,125.6 868.175,125.6 C866.825,125.6 865.975,125.95 865.275,126.45 C865.15,126.55 865,126.55 864.925,126.425 L864.25,125.275 C864.175,125.125 864.2,125.025 864.3,124.925 C865.2,124.225 866.6,123.75 868.375,123.75 C871.775,123.75 873.075,124.875 873.075,127.825 L873.075,135.75 C873.075,135.9 872.975,136 872.825,136 Z M868.025,134.475 C869.9,134.475 871.05,133.6 871.05,132.125 L871.05,130.8 C871.05,130.7 871,130.65 870.9,130.65 L868.5,130.65 C866.425,130.65 865.525,131.25 865.525,132.6 C865.525,133.825 866.425,134.475 868.025,134.475 Z M881.6,136.275 C879.275,136.275 877.625,135.325 876.65,134.475 C876.55,134.375 876.55,134.225 876.65,134.125 L877.675,133.025 C877.775,132.925 877.925,132.925 878.025,133.025 C878.925,133.8 880.275,134.4 881.725,134.4 C883.475,134.4 884.35,133.65 884.35,132.575 C884.35,131.625 883.9,131.1 882.025,130.9 L880.75,130.775 C878.4,130.525 877.175,129.35 877.175,127.4 C877.175,125.125 878.8,123.75 881.625,123.75 C883.375,123.75 884.875,124.325 885.875,125.075 C886,125.15 886,125.3 885.925,125.425 L885.075,126.5 C884.975,126.625 884.85,126.625 884.725,126.55 C883.95,126.05 882.725,125.575 881.5,125.575 C880,125.575 879.225,126.25 879.225,127.225 C879.225,128.175 879.8,128.675 881.575,128.85 L882.825,128.975 C885.25,129.2 886.425,130.425 886.425,132.35 C886.425,134.7 884.725,136.275 881.6,136.275 Z M894.25,136.275 C891.925,136.275 890.275,135.325 889.3,134.475 C889.2,134.375 889.2,134.225 889.3,134.125 L890.325,133.025 C890.425,132.925 890.575,132.925 890.675,133.025 C891.575,133.8 892.925,134.4 894.375,134.4 C896.125,134.4 897,133.65 897,132.575 C897,131.625 896.55,131.1 894.675,130.9 L893.4,130.775 C891.05,130.525 889.825,129.35 889.825,127.4 C889.825,125.125 891.45,123.75 894.275,123.75 C896.025,123.75 897.525,124.325 898.525,125.075 C898.65,125.15 898.65,125.3 898.575,125.425 L897.725,126.5 C897.625,126.625 897.5,126.625 897.375,126.55 C896.6,126.05 895.375,125.575 894.15,125.575 C892.65,125.575 891.875,126.25 891.875,127.225 C891.875,128.175 892.45,128.675 894.225,128.85 L895.475,128.975 C897.9,129.2 899.075,130.425 899.075,132.35 C899.075,134.7 897.375,136.275 894.25,136.275 Z M907.25,136.275 C904.825,136.275 903.1,135.1 902.45,133.025 C902.2,132.25 902.05,131.375 902.05,130 C902.05,128.625 902.175,127.7 902.425,126.975 C903.1,124.9 904.85,123.75 907.125,123.75 C909.425,123.75 911.15,124.925 911.825,126.975 C912.075,127.75 912.2,128.575 912.2,130.4 C912.2,130.55 912.1,130.65 911.925,130.65 L904.35,130.65 C904.25,130.65 904.2,130.7 904.2,130.8 C904.2,131.45 904.275,131.85 904.4,132.25 C904.875,133.625 905.95,134.325 907.425,134.325 C908.85,134.325 909.85,133.75 910.5,133 C910.625,132.875 910.75,132.85 910.875,132.95 L911.9,133.875 C912.025,133.975 912.025,134.1 911.925,134.225 C910.975,135.425 909.35,136.275 907.25,136.275 Z M904.35,128.975 L909.9,128.975 C910,128.975 910.05,128.925 910.05,128.825 C910.05,128.275 910,127.85 909.875,127.475 C909.475,126.275 908.475,125.6 907.125,125.6 C905.775,125.6 904.775,126.275 904.375,127.475 C904.25,127.85 904.2,128.275 904.2,128.825 C904.2,128.925 904.25,128.975 904.35,128.975 Z M925.35,136 L923.75,136 C923.6,136 923.5,135.9 923.5,135.75 L923.5,128.75 C923.5,126.825 922.625,125.7 920.825,125.7 C919.2,125.7 918.075,126.85 918.075,128.625 L918.075,135.75 C918.075,135.9 917.975,136 917.825,136 L916.225,136 C916.075,136 915.975,135.9 915.975,135.75 L915.975,124.275 C915.975,124.125 916.075,124.025 916.225,124.025 L917.825,124.025 C917.975,124.025 918.075,124.125 918.075,124.275 L918.075,125.375 L918.1,125.375 C918.675,124.45 919.825,123.75 921.45,123.75 C924.05,123.75 925.6,125.525 925.6,128.25 L925.6,135.75 C925.6,135.9 925.5,136 925.35,136 Z M933.875,140.775 C932.2,140.775 930.525,140.05 929.725,139 C929.625,138.875 929.625,138.775 929.75,138.65 L930.775,137.625 C930.9,137.5 931.025,137.5 931.15,137.625 C931.975,138.375 932.825,138.825 933.975,138.825 C935.95,138.825 937,137.8 937,135.6 L937,134.2 L936.975,134.2 C936.425,135.2 935.4,135.85 933.65,135.85 C931.625,135.85 930.225,134.825 929.625,132.95 C929.325,132.05 929.225,131.175 929.225,129.8 C929.225,128.425 929.325,127.55 929.625,126.65 C930.225,124.775 931.625,123.75 933.65,123.75 C935.4,123.75 936.425,124.4 936.975,125.4 L937,125.4 L937,124.275 C937,124.125 937.1,124.025 937.25,124.025 L938.85,124.025 C939,124.025 939.1,124.125 939.1,124.275 L939.1,135.475 C939.1,138.875 937.25,140.775 933.875,140.775 Z M934.175,133.925 C935.425,133.925 936.3,133.35 936.725,132.125 C936.925,131.525 937,130.825 937,129.8 C937,128.775 936.925,128.1 936.725,127.475 C936.3,126.25 935.425,125.7 934.175,125.7 C932.875,125.7 932.05,126.325 931.65,127.475 C931.45,128.1 931.35,128.825 931.35,129.8 C931.35,130.775 931.45,131.525 931.65,132.125 C932.05,133.3 932.875,133.925 934.175,133.925 Z M948.075,136.275 C945.65,136.275 943.925,135.1 943.275,133.025 C943.025,132.25 942.875,131.375 942.875,130 C942.875,128.625 943,127.7 943.25,126.975 C943.925,124.9 945.675,123.75 947.95,123.75 C950.25,123.75 951.975,124.925 952.65,126.975 C952.9,127.75 953.025,128.575 953.025,130.4 C953.025,130.55 952.925,130.65 952.75,130.65 L945.175,130.65 C945.075,130.65 945.025,130.7 945.025,130.8 C945.025,131.45 945.1,131.85 945.225,132.25 C945.7,133.625 946.775,134.325 948.25,134.325 C949.675,134.325 950.675,133.75 951.325,133 C951.45,132.875 951.575,132.85 951.7,132.95 L952.725,133.875 C952.85,133.975 952.85,134.1 952.75,134.225 C951.8,135.425 950.175,136.275 948.075,136.275 Z M945.175,128.975 L950.725,128.975 C950.825,128.975 950.875,128.925 950.875,128.825 C950.875,128.275 950.825,127.85 950.7,127.475 C950.3,126.275 949.3,125.6 947.95,125.6 C946.6,125.6 945.6,126.275 945.2,127.475 C945.075,127.85 945.025,128.275 945.025,128.825 C945.025,128.925 945.075,128.975 945.175,128.975 Z M958.65,136 L957.05,136 C956.9,136 956.8,135.9 956.8,135.75 L956.8,124.275 C956.8,124.125 956.9,124.025 957.05,124.025 L958.65,124.025 C958.8,124.025 958.9,124.125 958.9,124.275 L958.9,125.5 L958.925,125.5 C959.45,124.475 960.5,123.75 962.1,123.75 C963.05,123.75 963.95,124.1 964.55,124.65 C964.675,124.775 964.7,124.875 964.6,125 L963.675,126.225 C963.575,126.35 963.45,126.375 963.325,126.275 C962.775,125.925 962.175,125.7 961.475,125.7 C959.65,125.7 958.9,127.125 958.9,129.2 L958.9,135.75 C958.9,135.9 958.8,136 958.65,136 Z" id="1Passenger" fill="#FFFFFF" fill-rule="nonzero"></path>
            <path d="M827,143.5 L1037,143.5" id="Line-5-Copy-3" stroke="#FFFFFF" stroke-width="0.5" stroke-linecap="square"></path>
            <path d="M319.4225,161 L318.3875,161 C318.2975,161 318.2375,160.94 318.2375,160.85 L318.2375,152.135 C318.2375,152.075 318.2075,152.045 318.1475,152.045 L315.3575,152.045 C315.2675,152.045 315.2075,151.985 315.2075,151.895 L315.2075,150.95 C315.2075,150.86 315.2675,150.8 315.3575,150.8 L322.4525,150.8 C322.5425,150.8 322.6025,150.86 322.6025,150.95 L322.6025,151.895 C322.6025,151.985 322.5425,152.045 322.4525,152.045 L319.6625,152.045 C319.6025,152.045 319.5725,152.075 319.5725,152.135 L319.5725,160.85 C319.5725,160.94 319.5125,161 319.4225,161 Z M326.5325,161.165 C325.1375,161.165 324.0875,160.445 323.6975,159.23 C323.5325,158.735 323.4575,158.24 323.4575,157.4 C323.4575,156.575 323.5325,156.08 323.6975,155.585 C324.0875,154.355 325.1375,153.65 326.5325,153.65 C327.9275,153.65 328.9775,154.355 329.3675,155.585 C329.5325,156.08 329.6075,156.575 329.6075,157.4 C329.6075,158.24 329.5325,158.735 329.3675,159.23 C328.9775,160.445 327.9275,161.165 326.5325,161.165 Z M326.5325,159.995 C327.3275,159.995 327.9125,159.59 328.1525,158.87 C328.2725,158.48 328.3175,158.09 328.3175,157.4 C328.3175,156.71 328.2725,156.335 328.1525,155.945 C327.9125,155.225 327.3275,154.82 326.5325,154.82 C325.7375,154.82 325.1525,155.225 324.9125,155.945 C324.7925,156.335 324.7475,156.71 324.7475,157.4 C324.7475,158.09 324.7925,158.48 324.9125,158.87 C325.1525,159.59 325.7375,159.995 326.5325,159.995 Z" id="To" fill="#FFFFFF" fill-rule="nonzero"></path>
            <path d="M248,143.5 L398,143.5" id="Line-5" stroke="#FFFFFF" stroke-width="0.5" stroke-linecap="square"></path>
            <path d="M95.6824999,160.85 L95.6824999,150.95 C95.6824999,150.86 95.7424999,150.8 95.8324999,150.8 L101.9675,150.8 C102.0575,150.8 102.1175,150.86 102.1175,150.95 L102.1175,151.895 C102.1175,151.985 102.0575,152.045 101.9675,152.045 L97.1074999,152.045 C97.0474999,152.045 97.0174999,152.075 97.0174999,152.135 L97.0174999,155.24 C97.0174999,155.3 97.0474999,155.33 97.1074999,155.33 L101.2325,155.33 C101.3225,155.33 101.3825,155.39 101.3825,155.48 L101.3825,156.425 C101.3825,156.515 101.3225,156.575 101.2325,156.575 L97.1074999,156.575 C97.0474999,156.575 97.0174999,156.605 97.0174999,156.665 L97.0174999,160.85 C97.0174999,160.94 96.9574999,161 96.8674999,161 L95.8324999,161 C95.7424999,161 95.6824999,160.94 95.6824999,160.85 Z M105.4625,161 L104.5025,161 C104.4125,161 104.3525,160.94 104.3525,160.85 L104.3525,153.965 C104.3525,153.875 104.4125,153.815 104.5025,153.815 L105.4625,153.815 C105.5525,153.815 105.6125,153.875 105.6125,153.965 L105.6125,154.7 L105.6275,154.7 C105.9425,154.085 106.5725,153.65 107.5325,153.65 C108.1025,153.65 108.6425,153.86 109.0025,154.19 C109.0775,154.265 109.0925,154.325 109.0325,154.4 L108.4775,155.135 C108.4175,155.21 108.3425,155.225 108.2675,155.165 C107.9375,154.955 107.5775,154.82 107.1575,154.82 C106.0625,154.82 105.6125,155.675 105.6125,156.92 L105.6125,160.85 C105.6125,160.94 105.5525,161 105.4625,161 Z M113.5925,161.165 C112.1975,161.165 111.1475,160.445 110.7575,159.23 C110.5925,158.735 110.5175,158.24 110.5175,157.4 C110.5175,156.575 110.5925,156.08 110.7575,155.585 C111.1475,154.355 112.1975,153.65 113.5925,153.65 C114.9875,153.65 116.0375,154.355 116.4275,155.585 C116.5925,156.08 116.6675,156.575 116.6675,157.4 C116.6675,158.24 116.5925,158.735 116.4275,159.23 C116.0375,160.445 114.9875,161.165 113.5925,161.165 Z M113.5925,159.995 C114.3875,159.995 114.9725,159.59 115.2125,158.87 C115.3325,158.48 115.3775,158.09 115.3775,157.4 C115.3775,156.71 115.3325,156.335 115.2125,155.945 C114.9725,155.225 114.3875,154.82 113.5925,154.82 C112.7975,154.82 112.2125,155.225 111.9725,155.945 C111.8525,156.335 111.8075,156.71 111.8075,157.4 C111.8075,158.09 111.8525,158.48 111.9725,158.87 C112.2125,159.59 112.7975,159.995 113.5925,159.995 Z M129.5525,161 L128.5925,161 C128.5025,161 128.4425,160.94 128.4425,160.85 L128.4425,156.65 C128.4425,155.495 127.9175,154.82 126.8375,154.82 C125.8775,154.82 125.1875,155.51 125.1875,156.575 L125.1875,160.85 C125.1875,160.94 125.1275,161 125.0375,161 L124.0775,161 C123.9875,161 123.9275,160.94 123.9275,160.85 L123.9275,156.65 C123.9275,155.495 123.4025,154.82 122.3225,154.82 C121.3475,154.82 120.6725,155.51 120.6725,156.575 L120.6725,160.85 C120.6725,160.94 120.6125,161 120.5225,161 L119.5625,161 C119.4725,161 119.4125,160.94 119.4125,160.85 L119.4125,153.965 C119.4125,153.875 119.4725,153.815 119.5625,153.815 L120.5225,153.815 C120.6125,153.815 120.6725,153.875 120.6725,153.965 L120.6725,154.625 L120.6875,154.625 C121.0325,154.07 121.7225,153.65 122.6975,153.65 C123.6725,153.65 124.3925,154.055 124.7975,154.775 L124.8125,154.775 C125.3075,154.085 126.0425,153.65 127.1375,153.65 C128.8025,153.65 129.7025,154.715 129.7025,156.35 L129.7025,160.85 C129.7025,160.94 129.6425,161 129.5525,161 Z" id="From" fill="#FFFFFF" fill-rule="nonzero"></path>
            <path d="M38,143.5 L188,143.5" id="Line-5" stroke="#FFFFFF" stroke-width="0.5" stroke-linecap="square"></path>
            <path d="M641.1,135.75 L641.1,119.25 C641.1,119.1 641.2,119 641.35,119 L651.575,119 C651.725,119 651.825,119.1 651.825,119.25 L651.825,120.825 C651.825,120.975 651.725,121.075 651.575,121.075 L643.475,121.075 C643.375,121.075 643.325,121.125 643.325,121.225 L643.325,126.4 C643.325,126.5 643.375,126.55 643.475,126.55 L650.35,126.55 C650.5,126.55 650.6,126.65 650.6,126.8 L650.6,128.375 C650.6,128.525 650.5,128.625 650.35,128.625 L643.475,128.625 C643.375,128.625 643.325,128.675 643.325,128.775 L643.325,135.75 C643.325,135.9 643.225,136 643.075,136 L641.35,136 C641.2,136 641.1,135.9 641.1,135.75 Z M658.775,136.275 C656.35,136.275 654.625,135.1 653.975,133.025 C653.725,132.25 653.575,131.375 653.575,130 C653.575,128.625 653.7,127.7 653.95,126.975 C654.625,124.9 656.375,123.75 658.65,123.75 C660.95,123.75 662.675,124.925 663.35,126.975 C663.6,127.75 663.725,128.575 663.725,130.4 C663.725,130.55 663.625,130.65 663.45,130.65 L655.875,130.65 C655.775,130.65 655.725,130.7 655.725,130.8 C655.725,131.45 655.8,131.85 655.925,132.25 C656.4,133.625 657.475,134.325 658.95,134.325 C660.375,134.325 661.375,133.75 662.025,133 C662.15,132.875 662.275,132.85 662.4,132.95 L663.425,133.875 C663.55,133.975 663.55,134.1 663.45,134.225 C662.5,135.425 660.875,136.275 658.775,136.275 Z M655.875,128.975 L661.425,128.975 C661.525,128.975 661.575,128.925 661.575,128.825 C661.575,128.275 661.525,127.85 661.4,127.475 C661,126.275 660,125.6 658.65,125.6 C657.3,125.6 656.3,126.275 655.9,127.475 C655.775,127.85 655.725,128.275 655.725,128.825 C655.725,128.925 655.775,128.975 655.875,128.975 Z M669.35,136 L667.75,136 C667.6,136 667.5,135.9 667.5,135.75 L667.5,119.25 C667.5,119.1 667.6,119 667.75,119 L669.35,119 C669.5,119 669.6,119.1 669.6,119.25 L669.6,125.4 L669.625,125.4 C670.2,124.45 671.225,123.75 673.025,123.75 C675.1,123.75 676.55,124.725 677.15,126.625 C677.475,127.575 677.575,128.525 677.575,130 C677.575,131.5 677.475,132.45 677.15,133.4 C676.55,135.3 675.1,136.275 673.025,136.275 C671.225,136.275 670.2,135.55 669.625,134.6 L669.6,134.6 L669.6,135.75 C669.6,135.9 669.5,136 669.35,136 Z M672.525,134.325 C673.85,134.325 674.75,133.675 675.15,132.5 C675.35,131.875 675.425,131.1 675.425,130 C675.425,128.925 675.35,128.15 675.15,127.5 C674.75,126.325 673.85,125.7 672.525,125.7 C671.2,125.7 670.275,126.3 669.875,127.5 C669.675,128.1 669.6,128.8 669.6,130 C669.6,131.2 669.675,131.925 669.875,132.5 C670.275,133.7 671.2,134.325 672.525,134.325 Z M687.675,135.75 L687.675,134.45 C687.675,134.3 687.7,134.225 687.8,134.1 L693.925,126.3 C694.675,125.35 695.125,124.425 695.125,123.35 C695.125,121.825 694.1,120.675 692.45,120.675 C690.825,120.675 689.925,121.65 689.675,123.175 C689.65,123.325 689.55,123.4 689.4,123.375 L687.875,123.05 C687.725,123 687.65,122.9 687.675,122.75 C687.9,120.725 689.5,118.725 692.5,118.725 C695.475,118.725 697.275,120.725 697.275,123.35 C697.275,124.875 696.65,126.125 695.625,127.425 L690.375,134.025 L690.375,134.05 L697.025,134.05 C697.175,134.05 697.275,134.15 697.275,134.3 L697.275,135.75 C697.275,135.9 697.175,136 697.025,136 L687.925,136 C687.775,136 687.675,135.9 687.675,135.75 Z M705.75,135.75 L705.75,121.65 L705.7,121.65 L702.875,123.625 C702.725,123.725 702.6,123.675 702.6,123.475 L702.6,121.625 C702.6,121.475 702.65,121.375 702.775,121.275 L705.7,119.15 C705.825,119.05 705.925,119 706.1,119 L707.6,119 C707.75,119 707.85,119.1 707.85,119.25 L707.85,135.75 C707.85,135.9 707.75,136 707.6,136 L706,136 C705.85,136 705.75,135.9 705.75,135.75 Z" id="Feb21" fill="#FFFFFF" fill-rule="nonzero"></path>
            <path d="M639,143.5 L789,143.5" id="Line-5-Copy-2" stroke="#FFFFFF" stroke-width="0.5" stroke-linecap="square"></path>
            <g id="noun_Calendar_684828" transform="translate(773.000000, 121.000000)" fill="#FFFFFF" fill-rule="nonzero">
                <path d="M12.82597,1.95847 L11.66125,1.95847 L11.66125,0.79375 L10.885,0.79375 L10.885,1.95847 L4.675,1.95847 L4.675,0.79375 L3.89875,0.79375 L3.89875,1.95847 L2.73472,1.95847 C1.66453,1.95847 0.79375,2.82925 0.79375,3.89944 L0.79375,12.82666 C0.79375,13.89685 1.66453,14.76763 2.73472,14.76763 L12.82597,14.76763 C13.89616,14.76763 14.76694,13.89685 14.76694,12.82666 L14.76694,5.83972 L14.76694,5.06347 L14.76694,3.89875 C14.76625,2.82856 13.89547,1.95847 12.82597,1.95847 Z M13.99,12.82597 C13.99,13.46767 13.46767,13.99 12.82597,13.99 L2.73472,13.99 C2.09233,13.99 1.57,13.46767 1.57,12.82597 L1.57,5.83972 L13.99,5.83972 L13.99,12.82597 Z M13.99,5.06347 L1.57,5.06347 L1.57,3.89875 C1.57,3.25636 2.09233,2.73403 2.73472,2.73403 L3.89944,2.73403 L3.89944,3.51028 L4.675,3.51028 L4.675,2.73472 L10.885,2.73472 L10.885,3.51097 L11.66125,3.51097 L11.66125,2.73472 L12.82597,2.73472 C13.46767,2.73472 13.99,3.25636 13.99,3.89875 L13.99,5.06347 Z" id="Shape"></path>
            </g>
            <g id="noun_hand-cursor_1038540_373636" class="cursor-hand" transform="translate(903.000000, 205.000000)" fill-rule="nonzero">
                <path d="M23.9364063,10.7041925 C23.4779967,10.7041925 23.0411156,10.8004658 22.6428374,10.9751553 C22.274625,9.45419255 20.9547022,8.32531056 19.3872011,8.32531056 C18.9287915,8.32531056 18.4919104,8.42158385 18.0936322,8.59627329 C17.7254198,7.07531056 16.405497,5.94642857 14.8383671,5.94642857 C14.4189316,5.94642857 14.0173128,6.02717391 13.6472444,6.17468944 L13.6472444,3.51164596 C13.6472444,1.57531056 12.1409883,0 10.2895331,0 C8.43807782,0 6.93182173,1.57531056 6.93182173,3.51164596 L6.93182173,16.6700311 L5.73179069,15.4149845 C4.42263218,14.0458075 2.29241933,14.0458075 0.983260817,15.4149845 C0.348910973,16.0784161 0,16.9600155 0,17.8979037 C0,18.8357919 0.349282155,19.7177795 0.983260817,20.380823 L8.87829954,28.6378106 C10.9160881,30.8059006 13.638336,32 16.544319,32 C22.1647552,32 26.8342233,27.4607919 27.2618248,21.6277174 C27.2829822,21.5392081 27.2941176,21.447205 27.2941176,21.3520963 L27.2941176,14.2158385 C27.2941176,12.2795031 25.7878616,10.7041925 23.9364063,10.7041925 Z" id="Shape" fill="#373636"></path>
                <g id="Path">
                    <use fill="black" fill-opacity="1" filter="url(#airline-filter-4)" xlink:href="#airline-path-3"></use>
                    <use fill="#FFFFFF" xlink:href="#airline-path-3"></use>
                </g>
            </g>
        </g>
    </g>
</svg>