<?xml version="1.0" encoding="UTF-8"?>
<svg width="892px" height="105px" viewBox="0 0 892 105" version="1.1" xmlns="http://www.w3.org/2000/svg" xmlns:xlink="http://www.w3.org/1999/xlink">
    <!-- Generator: Sketch 53.2 (72643) - https://sketchapp.com -->
    <title>Airline NLP Box</title>
    <desc>Created with Sketch.</desc>
    <g id="Website-Animations" stroke="none" stroke-width="1" fill="none" fill-rule="evenodd">
        <g id="Airline-Text-Outline" transform="translate(-101.000000, -89.000000)">
            <g id="Airline-NLP-Box" transform="translate(101.000000, 89.000000)">
                <rect id="Airline-Text-Input" stroke="#E5E5E5" fill="#FFFFFF" x="0.5" y="0.5" width="891" height="104"></rect>
                <path d="M22.184,41.706 L22.184,24.546 C22.184,24.39 22.288,24.286 22.444,24.286 L33.078,24.286 C33.234,24.286 33.338,24.39 33.338,24.546 L33.338,26.184 C33.338,26.34 33.234,26.444 33.078,26.444 L24.654,26.444 C24.55,26.444 24.498,26.496 24.498,26.6 L24.498,31.982 C24.498,32.086 24.55,32.138 24.654,32.138 L31.804,32.138 C31.96,32.138 32.064,32.242 32.064,32.398 L32.064,34.036 C32.064,34.192 31.96,34.296 31.804,34.296 L24.654,34.296 C24.55,34.296 24.498,34.348 24.498,34.452 L24.498,41.706 C24.498,41.862 24.394,41.966 24.238,41.966 L22.444,41.966 C22.288,41.966 22.184,41.862 22.184,41.706 Z M40.462,42.096 L39.578,42.096 C37.394,42.096 36.536,41.056 36.536,38.82 L36.536,24.546 C36.536,24.39 36.64,24.286 36.796,24.286 L38.46,24.286 C38.616,24.286 38.72,24.39 38.72,24.546 L38.72,38.69 C38.72,39.73 39.11,40.068 39.968,40.068 L40.462,40.068 C40.618,40.068 40.722,40.172 40.722,40.328 L40.722,41.836 C40.722,41.992 40.618,42.096 40.462,42.096 Z M44.466,46.646 L43.79,46.646 C43.634,46.646 43.53,46.542 43.53,46.386 L43.53,44.878 C43.53,44.722 43.634,44.618 43.79,44.618 L44.258,44.618 C45.272,44.618 45.818,44.176 46.364,42.746 L46.78,41.602 L42.204,29.772 C42.152,29.616 42.23,29.512 42.412,29.512 L44.232,29.512 C44.388,29.512 44.492,29.59 44.544,29.772 L47.82,38.768 L47.872,38.768 L51.018,29.772 C51.07,29.59 51.174,29.512 51.33,29.512 L53.098,29.512 C53.254,29.512 53.358,29.616 53.306,29.772 L48.392,42.928 C47.3,45.866 46.338,46.646 44.466,46.646 Z M64.668,41.966 L63.004,41.966 C62.848,41.966 62.744,41.862 62.744,41.706 L62.744,31.436 C62.744,31.332 62.692,31.28 62.588,31.28 L61.522,31.28 C61.366,31.28 61.262,31.176 61.262,31.02 L61.262,29.772 C61.262,29.616 61.366,29.512 61.522,29.512 L62.588,29.512 C62.692,29.512 62.744,29.46 62.744,29.356 L62.744,28.29 C62.744,25.352 63.94,24.286 66.54,24.286 L67.502,24.286 C67.658,24.286 67.762,24.39 67.762,24.546 L67.762,26.054 C67.762,26.21 67.658,26.314 67.502,26.314 L66.826,26.314 C65.24,26.314 64.928,26.652 64.928,28.186 L64.928,29.356 C64.928,29.46 64.98,29.512 65.084,29.512 L67.502,29.512 C67.658,29.512 67.762,29.616 67.762,29.772 L67.762,31.02 C67.762,31.176 67.658,31.28 67.502,31.28 L65.084,31.28 C64.98,31.28 64.928,31.332 64.928,31.436 L64.928,41.706 C64.928,41.862 64.824,41.966 64.668,41.966 Z M72.52,41.966 L70.856,41.966 C70.7,41.966 70.596,41.862 70.596,41.706 L70.596,29.772 C70.596,29.616 70.7,29.512 70.856,29.512 L72.52,29.512 C72.676,29.512 72.78,29.616 72.78,29.772 L72.78,31.046 L72.806,31.046 C73.352,29.98 74.444,29.226 76.108,29.226 C77.096,29.226 78.032,29.59 78.656,30.162 C78.786,30.292 78.812,30.396 78.708,30.526 L77.746,31.8 C77.642,31.93 77.512,31.956 77.382,31.852 C76.81,31.488 76.186,31.254 75.458,31.254 C73.56,31.254 72.78,32.736 72.78,34.894 L72.78,41.706 C72.78,41.862 72.676,41.966 72.52,41.966 Z M85.364,42.252 C82.946,42.252 81.126,41.004 80.45,38.898 C80.164,38.04 80.034,37.182 80.034,35.726 C80.034,34.296 80.164,33.438 80.45,32.58 C81.126,30.448 82.946,29.226 85.364,29.226 C87.782,29.226 89.602,30.448 90.278,32.58 C90.564,33.438 90.694,34.296 90.694,35.726 C90.694,37.182 90.564,38.04 90.278,38.898 C89.602,41.004 87.782,42.252 85.364,42.252 Z M85.364,40.224 C86.742,40.224 87.756,39.522 88.172,38.274 C88.38,37.598 88.458,36.922 88.458,35.726 C88.458,34.53 88.38,33.88 88.172,33.204 C87.756,31.956 86.742,31.254 85.364,31.254 C83.986,31.254 82.972,31.956 82.556,33.204 C82.348,33.88 82.27,34.53 82.27,35.726 C82.27,36.922 82.348,37.598 82.556,38.274 C82.972,39.522 83.986,40.224 85.364,40.224 Z M111.78,41.966 L110.116,41.966 C109.96,41.966 109.856,41.862 109.856,41.706 L109.856,34.426 C109.856,32.424 108.946,31.254 107.074,31.254 C105.41,31.254 104.214,32.45 104.214,34.296 L104.214,41.706 C104.214,41.862 104.11,41.966 103.954,41.966 L102.29,41.966 C102.134,41.966 102.03,41.862 102.03,41.706 L102.03,34.426 C102.03,32.424 101.12,31.254 99.248,31.254 C97.558,31.254 96.388,32.45 96.388,34.296 L96.388,41.706 C96.388,41.862 96.284,41.966 96.128,41.966 L94.464,41.966 C94.308,41.966 94.204,41.862 94.204,41.706 L94.204,29.772 C94.204,29.616 94.308,29.512 94.464,29.512 L96.128,29.512 C96.284,29.512 96.388,29.616 96.388,29.772 L96.388,30.916 L96.414,30.916 C97.012,29.954 98.208,29.226 99.898,29.226 C101.588,29.226 102.836,29.928 103.538,31.176 L103.564,31.176 C104.422,29.98 105.696,29.226 107.594,29.226 C110.48,29.226 112.04,31.072 112.04,33.906 L112.04,41.706 C112.04,41.862 111.936,41.966 111.78,41.966 Z M122.31,38.092 C121.972,37.078 121.842,36.064 121.842,33.126 C121.842,30.188 121.972,29.174 122.31,28.16 C123.194,25.378 125.3,24 128.186,24 C130.812,24 132.84,25.3 133.854,27.562 C133.906,27.692 133.88,27.822 133.75,27.9 L132.19,28.654 C132.034,28.732 131.878,28.654 131.826,28.524 C131.124,27.146 130.032,26.158 128.186,26.158 C126.262,26.158 125.092,27.094 124.52,28.758 C124.286,29.486 124.182,30.344 124.182,33.126 C124.182,35.908 124.286,36.766 124.52,37.494 C125.092,39.158 126.262,40.094 128.186,40.094 C130.032,40.094 131.124,39.106 131.826,37.728 C131.878,37.598 132.034,37.52 132.19,37.598 L133.75,38.352 C133.88,38.43 133.906,38.56 133.854,38.69 C132.84,40.952 130.812,42.252 128.186,42.252 C125.3,42.252 123.194,40.874 122.31,38.092 Z M146.88,41.966 L145.216,41.966 C145.06,41.966 144.956,41.862 144.956,41.706 L144.956,34.426 C144.956,32.424 144.046,31.254 142.174,31.254 C140.484,31.254 139.314,32.45 139.314,34.296 L139.314,41.706 C139.314,41.862 139.21,41.966 139.054,41.966 L137.39,41.966 C137.234,41.966 137.13,41.862 137.13,41.706 L137.13,24.546 C137.13,24.39 137.234,24.286 137.39,24.286 L139.054,24.286 C139.21,24.286 139.314,24.39 139.314,24.546 L139.314,30.916 L139.34,30.916 C139.938,29.954 141.134,29.226 142.824,29.226 C145.528,29.226 147.14,31.072 147.14,33.906 L147.14,41.706 C147.14,41.862 147.036,41.966 146.88,41.966 Z M153.25,26.704 L151.482,26.704 C151.326,26.704 151.222,26.6 151.222,26.444 L151.222,24.546 C151.222,24.39 151.326,24.286 151.482,24.286 L153.25,24.286 C153.406,24.286 153.51,24.39 153.51,24.546 L153.51,26.444 C153.51,26.6 153.406,26.704 153.25,26.704 Z M153.198,41.966 L151.534,41.966 C151.378,41.966 151.274,41.862 151.274,41.706 L151.274,29.772 C151.274,29.616 151.378,29.512 151.534,29.512 L153.198,29.512 C153.354,29.512 153.458,29.616 153.458,29.772 L153.458,41.706 C153.458,41.862 153.354,41.966 153.198,41.966 Z M156.968,35.726 C156.968,34.348 157.124,33.334 157.358,32.58 C158.06,30.422 159.88,29.226 162.272,29.226 C164.17,29.226 165.626,30.032 166.536,31.332 C166.614,31.462 166.614,31.566 166.458,31.696 L165.314,32.632 C165.184,32.736 165.054,32.736 164.95,32.606 C164.222,31.696 163.52,31.254 162.272,31.254 C160.92,31.254 159.906,31.904 159.49,33.204 C159.282,33.854 159.204,34.634 159.204,35.726 C159.204,36.844 159.282,37.624 159.49,38.274 C159.906,39.574 160.92,40.224 162.272,40.224 C163.52,40.224 164.222,39.782 164.95,38.872 C165.054,38.742 165.184,38.742 165.314,38.846 L166.458,39.782 C166.614,39.912 166.614,40.016 166.536,40.146 C165.626,41.446 164.17,42.252 162.272,42.252 C159.88,42.252 158.06,41.056 157.358,38.898 C157.124,38.144 156.968,37.13 156.968,35.726 Z M178.756,41.966 L177.222,41.966 C177.066,41.966 176.962,41.862 176.962,41.706 L176.962,40.614 L176.936,40.614 C176.364,41.55 175.142,42.252 173.244,42.252 C170.878,42.252 169.058,41.03 169.058,38.508 C169.058,35.882 170.878,34.66 173.92,34.66 L176.754,34.66 C176.858,34.66 176.91,34.608 176.91,34.504 L176.91,33.594 C176.91,31.878 176.234,31.15 173.92,31.15 C172.516,31.15 171.632,31.514 170.904,32.034 C170.774,32.138 170.618,32.138 170.54,32.008 L169.838,30.812 C169.76,30.656 169.786,30.552 169.89,30.448 C170.826,29.72 172.282,29.226 174.128,29.226 C177.664,29.226 179.016,30.396 179.016,33.464 L179.016,41.706 C179.016,41.862 178.912,41.966 178.756,41.966 Z M173.764,40.38 C175.714,40.38 176.91,39.47 176.91,37.936 L176.91,36.558 C176.91,36.454 176.858,36.402 176.754,36.402 L174.258,36.402 C172.1,36.402 171.164,37.026 171.164,38.43 C171.164,39.704 172.1,40.38 173.764,40.38 Z M187.232,46.932 C185.49,46.932 183.748,46.178 182.916,45.086 C182.812,44.956 182.812,44.852 182.942,44.722 L184.008,43.656 C184.138,43.526 184.268,43.526 184.398,43.656 C185.256,44.436 186.14,44.904 187.336,44.904 C189.39,44.904 190.482,43.838 190.482,41.55 L190.482,40.094 L190.456,40.094 C189.884,41.134 188.818,41.81 186.998,41.81 C184.892,41.81 183.436,40.744 182.812,38.794 C182.5,37.858 182.396,36.948 182.396,35.518 C182.396,34.088 182.5,33.178 182.812,32.242 C183.436,30.292 184.892,29.226 186.998,29.226 C188.818,29.226 189.884,29.902 190.456,30.942 L190.482,30.942 L190.482,29.772 C190.482,29.616 190.586,29.512 190.742,29.512 L192.406,29.512 C192.562,29.512 192.666,29.616 192.666,29.772 L192.666,41.42 C192.666,44.956 190.742,46.932 187.232,46.932 Z M187.544,39.808 C188.844,39.808 189.754,39.21 190.196,37.936 C190.404,37.312 190.482,36.584 190.482,35.518 C190.482,34.452 190.404,33.75 190.196,33.1 C189.754,31.826 188.844,31.254 187.544,31.254 C186.192,31.254 185.334,31.904 184.918,33.1 C184.71,33.75 184.606,34.504 184.606,35.518 C184.606,36.532 184.71,37.312 184.918,37.936 C185.334,39.158 186.192,39.808 187.544,39.808 Z M201.506,42.252 C199.088,42.252 197.268,41.004 196.592,38.898 C196.306,38.04 196.176,37.182 196.176,35.726 C196.176,34.296 196.306,33.438 196.592,32.58 C197.268,30.448 199.088,29.226 201.506,29.226 C203.924,29.226 205.744,30.448 206.42,32.58 C206.706,33.438 206.836,34.296 206.836,35.726 C206.836,37.182 206.706,38.04 206.42,38.898 C205.744,41.004 203.924,42.252 201.506,42.252 Z M201.506,40.224 C202.884,40.224 203.898,39.522 204.314,38.274 C204.522,37.598 204.6,36.922 204.6,35.726 C204.6,34.53 204.522,33.88 204.314,33.204 C203.898,31.956 202.884,31.254 201.506,31.254 C200.128,31.254 199.114,31.956 198.698,33.204 C198.49,33.88 198.412,34.53 198.412,35.726 C198.412,36.922 198.49,37.598 198.698,38.274 C199.114,39.522 200.128,40.224 201.506,40.224 Z M221.162,42.096 L220.2,42.096 C217.782,42.096 216.846,41.004 216.846,38.56 L216.846,31.436 C216.846,31.332 216.794,31.28 216.69,31.28 L215.65,31.28 C215.494,31.28 215.39,31.176 215.39,31.02 L215.39,29.772 C215.39,29.616 215.494,29.512 215.65,29.512 L216.69,29.512 C216.794,29.512 216.846,29.46 216.846,29.356 L216.846,25.846 C216.846,25.69 216.95,25.586 217.106,25.586 L218.77,25.586 C218.926,25.586 219.03,25.69 219.03,25.846 L219.03,29.356 C219.03,29.46 219.082,29.512 219.186,29.512 L221.162,29.512 C221.318,29.512 221.422,29.616 221.422,29.772 L221.422,31.02 C221.422,31.176 221.318,31.28 221.162,31.28 L219.186,31.28 C219.082,31.28 219.03,31.332 219.03,31.436 L219.03,38.482 C219.03,39.73 219.498,40.068 220.616,40.068 L221.162,40.068 C221.318,40.068 221.422,40.172 221.422,40.328 L221.422,41.836 C221.422,41.992 221.318,42.096 221.162,42.096 Z M229.378,42.252 C226.96,42.252 225.14,41.004 224.464,38.898 C224.178,38.04 224.048,37.182 224.048,35.726 C224.048,34.296 224.178,33.438 224.464,32.58 C225.14,30.448 226.96,29.226 229.378,29.226 C231.796,29.226 233.616,30.448 234.292,32.58 C234.578,33.438 234.708,34.296 234.708,35.726 C234.708,37.182 234.578,38.04 234.292,38.898 C233.616,41.004 231.796,42.252 229.378,42.252 Z M229.378,40.224 C230.756,40.224 231.77,39.522 232.186,38.274 C232.394,37.598 232.472,36.922 232.472,35.726 C232.472,34.53 232.394,33.88 232.186,33.204 C231.77,31.956 230.756,31.254 229.378,31.254 C228,31.254 226.986,31.956 226.57,33.204 C226.362,33.88 226.284,34.53 226.284,35.726 C226.284,36.922 226.362,37.598 226.57,38.274 C226.986,39.522 228,40.224 229.378,40.224 Z M244.51,41.706 L244.51,24.546 C244.51,24.39 244.614,24.286 244.77,24.286 L246.434,24.286 C246.642,24.286 246.772,24.338 246.876,24.546 L254.884,37.806 L254.988,37.806 L254.988,24.546 C254.988,24.39 255.092,24.286 255.248,24.286 L256.886,24.286 C257.042,24.286 257.146,24.39 257.146,24.546 L257.146,41.706 C257.146,41.862 257.042,41.966 256.886,41.966 L255.222,41.966 C255.04,41.966 254.884,41.914 254.78,41.706 L246.746,28.498 L246.668,28.498 L246.668,41.706 C246.668,41.862 246.564,41.966 246.408,41.966 L244.77,41.966 C244.614,41.966 244.51,41.862 244.51,41.706 Z M266.116,42.252 C263.594,42.252 261.8,41.03 261.124,38.872 C260.864,38.066 260.708,37.156 260.708,35.726 C260.708,34.296 260.838,33.334 261.098,32.58 C261.8,30.422 263.62,29.226 265.986,29.226 C268.378,29.226 270.172,30.448 270.874,32.58 C271.134,33.386 271.264,34.244 271.264,36.142 C271.264,36.298 271.16,36.402 270.978,36.402 L263.1,36.402 C262.996,36.402 262.944,36.454 262.944,36.558 C262.944,37.234 263.022,37.65 263.152,38.066 C263.646,39.496 264.764,40.224 266.298,40.224 C267.78,40.224 268.82,39.626 269.496,38.846 C269.626,38.716 269.756,38.69 269.886,38.794 L270.952,39.756 C271.082,39.86 271.082,39.99 270.978,40.12 C269.99,41.368 268.3,42.252 266.116,42.252 Z M263.1,34.66 L268.872,34.66 C268.976,34.66 269.028,34.608 269.028,34.504 C269.028,33.932 268.976,33.49 268.846,33.1 C268.43,31.852 267.39,31.15 265.986,31.15 C264.582,31.15 263.542,31.852 263.126,33.1 C262.996,33.49 262.944,33.932 262.944,34.504 C262.944,34.608 262.996,34.66 263.1,34.66 Z M286.968,41.966 L285.486,41.966 C285.33,41.966 285.226,41.862 285.174,41.706 L282.366,32.788 L282.314,32.788 L279.48,41.706 C279.428,41.862 279.324,41.966 279.168,41.966 L277.66,41.966 C277.504,41.966 277.4,41.862 277.348,41.706 L273.448,29.772 C273.396,29.616 273.474,29.512 273.63,29.512 L275.398,29.512 C275.58,29.512 275.658,29.564 275.736,29.772 L278.492,38.768 L278.544,38.768 L281.352,29.772 C281.404,29.59 281.508,29.512 281.664,29.512 L283.016,29.512 C283.172,29.512 283.302,29.59 283.354,29.772 L286.188,38.768 L286.24,38.768 L288.918,29.772 C288.97,29.564 289.074,29.512 289.256,29.512 L291.024,29.512 C291.18,29.512 291.258,29.616 291.206,29.772 L287.28,41.706 C287.228,41.862 287.15,41.966 286.968,41.966 Z M303.114,41.966 L301.58,41.966 C301.424,41.966 301.32,41.862 301.32,41.706 L301.32,40.614 L301.294,40.614 C300.722,41.55 299.5,42.252 297.602,42.252 C295.236,42.252 293.416,41.03 293.416,38.508 C293.416,35.882 295.236,34.66 298.278,34.66 L301.112,34.66 C301.216,34.66 301.268,34.608 301.268,34.504 L301.268,33.594 C301.268,31.878 300.592,31.15 298.278,31.15 C296.874,31.15 295.99,31.514 295.262,32.034 C295.132,32.138 294.976,32.138 294.898,32.008 L294.196,30.812 C294.118,30.656 294.144,30.552 294.248,30.448 C295.184,29.72 296.64,29.226 298.486,29.226 C302.022,29.226 303.374,30.396 303.374,33.464 L303.374,41.706 C303.374,41.862 303.27,41.966 303.114,41.966 Z M298.122,40.38 C300.072,40.38 301.268,39.47 301.268,37.936 L301.268,36.558 C301.268,36.454 301.216,36.402 301.112,36.402 L298.616,36.402 C296.458,36.402 295.522,37.026 295.522,38.43 C295.522,39.704 296.458,40.38 298.122,40.38 Z M309.458,41.966 L307.794,41.966 C307.638,41.966 307.534,41.862 307.534,41.706 L307.534,29.772 C307.534,29.616 307.638,29.512 307.794,29.512 L309.458,29.512 C309.614,29.512 309.718,29.616 309.718,29.772 L309.718,31.046 L309.744,31.046 C310.29,29.98 311.382,29.226 313.046,29.226 C314.034,29.226 314.97,29.59 315.594,30.162 C315.724,30.292 315.75,30.396 315.646,30.526 L314.684,31.8 C314.58,31.93 314.45,31.956 314.32,31.852 C313.748,31.488 313.124,31.254 312.396,31.254 C310.498,31.254 309.718,32.736 309.718,34.894 L309.718,41.706 C309.718,41.862 309.614,41.966 309.458,41.966 Z M328.412,41.966 L326.488,41.966 C326.306,41.966 326.176,41.888 326.072,41.706 L322.536,35.908 L320.378,38.43 L320.378,41.706 C320.378,41.862 320.274,41.966 320.118,41.966 L318.454,41.966 C318.298,41.966 318.194,41.862 318.194,41.706 L318.194,24.546 C318.194,24.39 318.298,24.286 318.454,24.286 L320.118,24.286 C320.274,24.286 320.378,24.39 320.378,24.546 L320.378,35.544 L325.292,29.746 C325.448,29.564 325.578,29.512 325.76,29.512 L327.684,29.512 C327.84,29.512 327.892,29.642 327.788,29.772 L323.966,34.218 L328.568,41.706 C328.646,41.81 328.568,41.966 328.412,41.966 Z M342.296,42.252 C339.878,42.252 338.058,41.004 337.382,38.898 C337.096,38.04 336.966,37.182 336.966,35.726 C336.966,34.296 337.096,33.438 337.382,32.58 C338.058,30.448 339.878,29.226 342.296,29.226 C344.714,29.226 346.534,30.448 347.21,32.58 C347.496,33.438 347.626,34.296 347.626,35.726 C347.626,37.182 347.496,38.04 347.21,38.898 C346.534,41.004 344.714,42.252 342.296,42.252 Z M342.296,40.224 C343.674,40.224 344.688,39.522 345.104,38.274 C345.312,37.598 345.39,36.922 345.39,35.726 C345.39,34.53 345.312,33.88 345.104,33.204 C344.688,31.956 343.674,31.254 342.296,31.254 C340.918,31.254 339.904,31.956 339.488,33.204 C339.28,33.88 339.202,34.53 339.202,35.726 C339.202,36.922 339.28,37.598 339.488,38.274 C339.904,39.522 340.918,40.224 342.296,40.224 Z M360.886,41.966 L359.222,41.966 C359.066,41.966 358.962,41.862 358.962,41.706 L358.962,34.426 C358.962,32.424 358.052,31.254 356.18,31.254 C354.49,31.254 353.32,32.45 353.32,34.296 L353.32,41.706 C353.32,41.862 353.216,41.966 353.06,41.966 L351.396,41.966 C351.24,41.966 351.136,41.862 351.136,41.706 L351.136,29.772 C351.136,29.616 351.24,29.512 351.396,29.512 L353.06,29.512 C353.216,29.512 353.32,29.616 353.32,29.772 L353.32,30.916 L353.346,30.916 C353.944,29.954 355.14,29.226 356.83,29.226 C359.534,29.226 361.146,31.072 361.146,33.906 L361.146,41.706 C361.146,41.862 361.042,41.966 360.886,41.966 Z M376.98,41.966 L375.186,41.966 C375.03,41.966 374.926,41.862 374.926,41.706 L374.926,26.6 C374.926,26.496 374.874,26.444 374.77,26.444 L369.934,26.444 C369.778,26.444 369.674,26.34 369.674,26.184 L369.674,24.546 C369.674,24.39 369.778,24.286 369.934,24.286 L382.232,24.286 C382.388,24.286 382.492,24.39 382.492,24.546 L382.492,26.184 C382.492,26.34 382.388,26.444 382.232,26.444 L377.396,26.444 C377.292,26.444 377.24,26.496 377.24,26.6 L377.24,41.706 C377.24,41.862 377.136,41.966 376.98,41.966 Z M393.282,41.966 L391.618,41.966 C391.462,41.966 391.358,41.862 391.358,41.706 L391.358,40.536 L391.332,40.536 C390.682,41.576 389.538,42.252 387.926,42.252 C385.196,42.252 383.61,40.38 383.61,37.546 L383.61,29.772 C383.61,29.616 383.714,29.512 383.87,29.512 L385.534,29.512 C385.69,29.512 385.794,29.616 385.794,29.772 L385.794,37.026 C385.794,39.054 386.704,40.224 388.55,40.224 C390.24,40.224 391.358,39.028 391.358,37.156 L391.358,29.772 C391.358,29.616 391.462,29.512 391.618,29.512 L393.282,29.512 C393.438,29.512 393.542,29.616 393.542,29.772 L393.542,41.706 C393.542,41.862 393.438,41.966 393.282,41.966 Z M402.46,42.252 C399.938,42.252 398.144,41.03 397.468,38.872 C397.208,38.066 397.052,37.156 397.052,35.726 C397.052,34.296 397.182,33.334 397.442,32.58 C398.144,30.422 399.964,29.226 402.33,29.226 C404.722,29.226 406.516,30.448 407.218,32.58 C407.478,33.386 407.608,34.244 407.608,36.142 C407.608,36.298 407.504,36.402 407.322,36.402 L399.444,36.402 C399.34,36.402 399.288,36.454 399.288,36.558 C399.288,37.234 399.366,37.65 399.496,38.066 C399.99,39.496 401.108,40.224 402.642,40.224 C404.124,40.224 405.164,39.626 405.84,38.846 C405.97,38.716 406.1,38.69 406.23,38.794 L407.296,39.756 C407.426,39.86 407.426,39.99 407.322,40.12 C406.334,41.368 404.644,42.252 402.46,42.252 Z M399.444,34.66 L405.216,34.66 C405.32,34.66 405.372,34.608 405.372,34.504 C405.372,33.932 405.32,33.49 405.19,33.1 C404.774,31.852 403.734,31.15 402.33,31.15 C400.926,31.15 399.886,31.852 399.47,33.1 C399.34,33.49 399.288,33.932 399.288,34.504 C399.288,34.608 399.34,34.66 399.444,34.66 Z M415.408,42.252 C412.99,42.252 411.274,41.264 410.26,40.38 C410.156,40.276 410.156,40.12 410.26,40.016 L411.326,38.872 C411.43,38.768 411.586,38.768 411.69,38.872 C412.626,39.678 414.03,40.302 415.538,40.302 C417.358,40.302 418.268,39.522 418.268,38.404 C418.268,37.416 417.8,36.87 415.85,36.662 L414.524,36.532 C412.08,36.272 410.806,35.05 410.806,33.022 C410.806,30.656 412.496,29.226 415.434,29.226 C417.254,29.226 418.814,29.824 419.854,30.604 C419.984,30.682 419.984,30.838 419.906,30.968 L419.022,32.086 C418.918,32.216 418.788,32.216 418.658,32.138 C417.852,31.618 416.578,31.124 415.304,31.124 C413.744,31.124 412.938,31.826 412.938,32.84 C412.938,33.828 413.536,34.348 415.382,34.53 L416.682,34.66 C419.204,34.894 420.426,36.168 420.426,38.17 C420.426,40.614 418.658,42.252 415.408,42.252 Z M433.322,41.966 L431.658,41.966 C431.502,41.966 431.398,41.862 431.398,41.706 L431.398,40.51 L431.372,40.51 C430.774,41.498 429.708,42.252 427.836,42.252 C425.678,42.252 424.17,41.238 423.546,39.262 C423.208,38.274 423.104,37.286 423.104,35.726 C423.104,34.192 423.208,33.204 423.546,32.216 C424.17,30.24 425.678,29.226 427.836,29.226 C429.708,29.226 430.774,29.954 431.372,30.942 L431.398,30.942 L431.398,24.546 C431.398,24.39 431.502,24.286 431.658,24.286 L433.322,24.286 C433.478,24.286 433.582,24.39 433.582,24.546 L433.582,41.706 C433.582,41.862 433.478,41.966 433.322,41.966 Z M428.356,40.224 C429.734,40.224 430.696,39.574 431.112,38.326 C431.32,37.728 431.398,36.974 431.398,35.726 C431.398,34.478 431.32,33.75 431.112,33.126 C430.696,31.878 429.734,31.254 428.356,31.254 C426.978,31.254 426.042,31.904 425.626,33.126 C425.418,33.802 425.34,34.608 425.34,35.726 C425.34,36.87 425.418,37.676 425.626,38.326 C426.042,39.548 426.978,40.224 428.356,40.224 Z M446.92,41.966 L445.386,41.966 C445.23,41.966 445.126,41.862 445.126,41.706 L445.126,40.614 L445.1,40.614 C444.528,41.55 443.306,42.252 441.408,42.252 C439.042,42.252 437.222,41.03 437.222,38.508 C437.222,35.882 439.042,34.66 442.084,34.66 L444.918,34.66 C445.022,34.66 445.074,34.608 445.074,34.504 L445.074,33.594 C445.074,31.878 444.398,31.15 442.084,31.15 C440.68,31.15 439.796,31.514 439.068,32.034 C438.938,32.138 438.782,32.138 438.704,32.008 L438.002,30.812 C437.924,30.656 437.95,30.552 438.054,30.448 C438.99,29.72 440.446,29.226 442.292,29.226 C445.828,29.226 447.18,30.396 447.18,33.464 L447.18,41.706 C447.18,41.862 447.076,41.966 446.92,41.966 Z M441.928,40.38 C443.878,40.38 445.074,39.47 445.074,37.936 L445.074,36.558 C445.074,36.454 445.022,36.402 444.918,36.402 L442.422,36.402 C440.264,36.402 439.328,37.026 439.328,38.43 C439.328,39.704 440.264,40.38 441.928,40.38 Z M452.016,46.646 L451.34,46.646 C451.184,46.646 451.08,46.542 451.08,46.386 L451.08,44.878 C451.08,44.722 451.184,44.618 451.34,44.618 L451.808,44.618 C452.822,44.618 453.368,44.176 453.914,42.746 L454.33,41.602 L449.754,29.772 C449.702,29.616 449.78,29.512 449.962,29.512 L451.782,29.512 C451.938,29.512 452.042,29.59 452.094,29.772 L455.37,38.768 L455.422,38.768 L458.568,29.772 C458.62,29.59 458.724,29.512 458.88,29.512 L460.648,29.512 C460.804,29.512 460.908,29.616 460.856,29.772 L455.942,42.928 C454.85,45.866 453.888,46.646 452.016,46.646 Z M471.802,41.966 L470.138,41.966 C469.982,41.966 469.878,41.862 469.878,41.706 L469.878,24.546 C469.878,24.39 469.982,24.286 470.138,24.286 L471.802,24.286 C471.958,24.286 472.062,24.39 472.062,24.546 L472.062,30.942 L472.088,30.942 C472.686,29.954 473.752,29.226 475.624,29.226 C477.782,29.226 479.29,30.24 479.914,32.216 C480.252,33.204 480.356,34.192 480.356,35.726 C480.356,37.286 480.252,38.274 479.914,39.262 C479.29,41.238 477.782,42.252 475.624,42.252 C473.752,42.252 472.686,41.498 472.088,40.51 L472.062,40.51 L472.062,41.706 C472.062,41.862 471.958,41.966 471.802,41.966 Z M475.104,40.224 C476.482,40.224 477.418,39.548 477.834,38.326 C478.042,37.676 478.12,36.87 478.12,35.726 C478.12,34.608 478.042,33.802 477.834,33.126 C477.418,31.904 476.482,31.254 475.104,31.254 C473.726,31.254 472.764,31.878 472.348,33.126 C472.14,33.75 472.062,34.478 472.062,35.726 C472.062,36.974 472.14,37.728 472.348,38.326 C472.764,39.574 473.726,40.224 475.104,40.224 Z M488.52,42.252 C485.998,42.252 484.204,41.03 483.528,38.872 C483.268,38.066 483.112,37.156 483.112,35.726 C483.112,34.296 483.242,33.334 483.502,32.58 C484.204,30.422 486.024,29.226 488.39,29.226 C490.782,29.226 492.576,30.448 493.278,32.58 C493.538,33.386 493.668,34.244 493.668,36.142 C493.668,36.298 493.564,36.402 493.382,36.402 L485.504,36.402 C485.4,36.402 485.348,36.454 485.348,36.558 C485.348,37.234 485.426,37.65 485.556,38.066 C486.05,39.496 487.168,40.224 488.702,40.224 C490.184,40.224 491.224,39.626 491.9,38.846 C492.03,38.716 492.16,38.69 492.29,38.794 L493.356,39.756 C493.486,39.86 493.486,39.99 493.382,40.12 C492.394,41.368 490.704,42.252 488.52,42.252 Z M485.504,34.66 L491.276,34.66 C491.38,34.66 491.432,34.608 491.432,34.504 C491.432,33.932 491.38,33.49 491.25,33.1 C490.834,31.852 489.794,31.15 488.39,31.15 C486.986,31.15 485.946,31.852 485.53,33.1 C485.4,33.49 485.348,33.932 485.348,34.504 C485.348,34.608 485.4,34.66 485.504,34.66 Z M499.518,41.966 L497.854,41.966 C497.698,41.966 497.594,41.862 497.594,41.706 L497.594,31.436 C497.594,31.332 497.542,31.28 497.438,31.28 L496.372,31.28 C496.216,31.28 496.112,31.176 496.112,31.02 L496.112,29.772 C496.112,29.616 496.216,29.512 496.372,29.512 L497.438,29.512 C497.542,29.512 497.594,29.46 497.594,29.356 L497.594,28.29 C497.594,25.352 498.79,24.286 501.39,24.286 L502.352,24.286 C502.508,24.286 502.612,24.39 502.612,24.546 L502.612,26.054 C502.612,26.21 502.508,26.314 502.352,26.314 L501.676,26.314 C500.09,26.314 499.778,26.652 499.778,28.186 L499.778,29.356 C499.778,29.46 499.83,29.512 499.934,29.512 L502.352,29.512 C502.508,29.512 502.612,29.616 502.612,29.772 L502.612,31.02 C502.612,31.176 502.508,31.28 502.352,31.28 L499.934,31.28 C499.83,31.28 499.778,31.332 499.778,31.436 L499.778,41.706 C499.778,41.862 499.674,41.966 499.518,41.966 Z M509.97,42.252 C507.552,42.252 505.732,41.004 505.056,38.898 C504.77,38.04 504.64,37.182 504.64,35.726 C504.64,34.296 504.77,33.438 505.056,32.58 C505.732,30.448 507.552,29.226 509.97,29.226 C512.388,29.226 514.208,30.448 514.884,32.58 C515.17,33.438 515.3,34.296 515.3,35.726 C515.3,37.182 515.17,38.04 514.884,38.898 C514.208,41.004 512.388,42.252 509.97,42.252 Z M509.97,40.224 C511.348,40.224 512.362,39.522 512.778,38.274 C512.986,37.598 513.064,36.922 513.064,35.726 C513.064,34.53 512.986,33.88 512.778,33.204 C512.362,31.956 511.348,31.254 509.97,31.254 C508.592,31.254 507.578,31.956 507.162,33.204 C506.954,33.88 506.876,34.53 506.876,35.726 C506.876,36.922 506.954,37.598 507.162,38.274 C507.578,39.522 508.592,40.224 509.97,40.224 Z M520.734,41.966 L519.07,41.966 C518.914,41.966 518.81,41.862 518.81,41.706 L518.81,29.772 C518.81,29.616 518.914,29.512 519.07,29.512 L520.734,29.512 C520.89,29.512 520.994,29.616 520.994,29.772 L520.994,31.046 L521.02,31.046 C521.566,29.98 522.658,29.226 524.322,29.226 C525.31,29.226 526.246,29.59 526.87,30.162 C527,30.292 527.026,30.396 526.922,30.526 L525.96,31.8 C525.856,31.93 525.726,31.956 525.596,31.852 C525.024,31.488 524.4,31.254 523.672,31.254 C521.774,31.254 520.994,32.736 520.994,34.894 L520.994,41.706 C520.994,41.862 520.89,41.966 520.734,41.966 Z M533.656,42.252 C531.134,42.252 529.34,41.03 528.664,38.872 C528.404,38.066 528.248,37.156 528.248,35.726 C528.248,34.296 528.378,33.334 528.638,32.58 C529.34,30.422 531.16,29.226 533.526,29.226 C535.918,29.226 537.712,30.448 538.414,32.58 C538.674,33.386 538.804,34.244 538.804,36.142 C538.804,36.298 538.7,36.402 538.518,36.402 L530.64,36.402 C530.536,36.402 530.484,36.454 530.484,36.558 C530.484,37.234 530.562,37.65 530.692,38.066 C531.186,39.496 532.304,40.224 533.838,40.224 C535.32,40.224 536.36,39.626 537.036,38.846 C537.166,38.716 537.296,38.69 537.426,38.794 L538.492,39.756 C538.622,39.86 538.622,39.99 538.518,40.12 C537.53,41.368 535.84,42.252 533.656,42.252 Z M530.64,34.66 L536.412,34.66 C536.516,34.66 536.568,34.608 536.568,34.504 C536.568,33.932 536.516,33.49 536.386,33.1 C535.97,31.852 534.93,31.15 533.526,31.15 C532.122,31.15 531.082,31.852 530.666,33.1 C530.536,33.49 530.484,33.932 530.484,34.504 C530.484,34.608 530.536,34.66 530.64,34.66 Z M552.766,41.706 L552.766,27.042 L552.714,27.042 L549.776,29.096 C549.62,29.2 549.49,29.148 549.49,28.94 L549.49,27.016 C549.49,26.86 549.542,26.756 549.672,26.652 L552.714,24.442 C552.844,24.338 552.948,24.286 553.13,24.286 L554.69,24.286 C554.846,24.286 554.95,24.39 554.95,24.546 L554.95,41.706 C554.95,41.862 554.846,41.966 554.69,41.966 L553.026,41.966 C552.87,41.966 552.766,41.862 552.766,41.706 Z M562.724,38.898 C562.516,38.222 562.334,37.286 562.334,33.126 C562.334,28.966 562.516,28.03 562.724,27.354 C563.426,25.196 565.116,24 567.56,24 C570.004,24 571.694,25.196 572.396,27.354 C572.604,28.03 572.786,28.966 572.786,33.126 C572.786,37.286 572.604,38.222 572.396,38.898 C571.694,41.056 570.004,42.252 567.56,42.252 C565.116,42.252 563.426,41.056 562.724,38.898 Z M564.882,38.456 C565.298,39.626 566.26,40.224 567.56,40.224 C568.86,40.224 569.822,39.626 570.238,38.456 C570.42,37.91 570.524,37.156 570.524,33.126 C570.524,29.096 570.42,28.342 570.238,27.796 C569.822,26.626 568.86,26.028 567.56,26.028 C566.26,26.028 565.298,26.626 564.882,27.796 C564.7,28.342 564.596,29.096 564.596,33.126 C564.596,37.156 564.7,37.91 564.882,38.456 Z M585.812,41.966 L584.278,41.966 C584.122,41.966 584.018,41.862 584.018,41.706 L584.018,40.614 L583.992,40.614 C583.42,41.55 582.198,42.252 580.3,42.252 C577.934,42.252 576.114,41.03 576.114,38.508 C576.114,35.882 577.934,34.66 580.976,34.66 L583.81,34.66 C583.914,34.66 583.966,34.608 583.966,34.504 L583.966,33.594 C583.966,31.878 583.29,31.15 580.976,31.15 C579.572,31.15 578.688,31.514 577.96,32.034 C577.83,32.138 577.674,32.138 577.596,32.008 L576.894,30.812 C576.816,30.656 576.842,30.552 576.946,30.448 C577.882,29.72 579.338,29.226 581.184,29.226 C584.72,29.226 586.072,30.396 586.072,33.464 L586.072,41.706 C586.072,41.862 585.968,41.966 585.812,41.966 Z M580.82,40.38 C582.77,40.38 583.966,39.47 583.966,37.936 L583.966,36.558 C583.966,36.454 583.914,36.402 583.81,36.402 L581.314,36.402 C579.156,36.402 578.22,37.026 578.22,38.43 C578.22,39.704 579.156,40.38 580.82,40.38 Z M607.808,41.966 L606.144,41.966 C605.988,41.966 605.884,41.862 605.884,41.706 L605.884,34.426 C605.884,32.424 604.974,31.254 603.102,31.254 C601.438,31.254 600.242,32.45 600.242,34.296 L600.242,41.706 C600.242,41.862 600.138,41.966 599.982,41.966 L598.318,41.966 C598.162,41.966 598.058,41.862 598.058,41.706 L598.058,34.426 C598.058,32.424 597.148,31.254 595.276,31.254 C593.586,31.254 592.416,32.45 592.416,34.296 L592.416,41.706 C592.416,41.862 592.312,41.966 592.156,41.966 L590.492,41.966 C590.336,41.966 590.232,41.862 590.232,41.706 L590.232,29.772 C590.232,29.616 590.336,29.512 590.492,29.512 L592.156,29.512 C592.312,29.512 592.416,29.616 592.416,29.772 L592.416,30.916 L592.442,30.916 C593.04,29.954 594.236,29.226 595.926,29.226 C597.616,29.226 598.864,29.928 599.566,31.176 L599.592,31.176 C600.45,29.98 601.724,29.226 603.622,29.226 C606.508,29.226 608.068,31.072 608.068,33.906 L608.068,41.706 C608.068,41.862 607.964,41.966 607.808,41.966 Z M627.516,41.966 L625.982,41.966 C625.826,41.966 625.722,41.862 625.722,41.706 L625.722,40.614 L625.696,40.614 C625.124,41.55 623.902,42.252 622.004,42.252 C619.638,42.252 617.818,41.03 617.818,38.508 C617.818,35.882 619.638,34.66 622.68,34.66 L625.514,34.66 C625.618,34.66 625.67,34.608 625.67,34.504 L625.67,33.594 C625.67,31.878 624.994,31.15 622.68,31.15 C621.276,31.15 620.392,31.514 619.664,32.034 C619.534,32.138 619.378,32.138 619.3,32.008 L618.598,30.812 C618.52,30.656 618.546,30.552 618.65,30.448 C619.586,29.72 621.042,29.226 622.888,29.226 C626.424,29.226 627.776,30.396 627.776,33.464 L627.776,41.706 C627.776,41.862 627.672,41.966 627.516,41.966 Z M622.524,40.38 C624.474,40.38 625.67,39.47 625.67,37.936 L625.67,36.558 C625.67,36.454 625.618,36.402 625.514,36.402 L623.018,36.402 C620.86,36.402 619.924,37.026 619.924,38.43 C619.924,39.704 620.86,40.38 622.524,40.38 Z M641.686,41.966 L640.022,41.966 C639.866,41.966 639.762,41.862 639.762,41.706 L639.762,34.426 C639.762,32.424 638.852,31.254 636.98,31.254 C635.29,31.254 634.12,32.45 634.12,34.296 L634.12,41.706 C634.12,41.862 634.016,41.966 633.86,41.966 L632.196,41.966 C632.04,41.966 631.936,41.862 631.936,41.706 L631.936,29.772 C631.936,29.616 632.04,29.512 632.196,29.512 L633.86,29.512 C634.016,29.512 634.12,29.616 634.12,29.772 L634.12,30.916 L634.146,30.916 C634.744,29.954 635.94,29.226 637.63,29.226 C640.334,29.226 641.946,31.072 641.946,33.906 L641.946,41.706 C641.946,41.862 641.842,41.966 641.686,41.966 Z M655.544,41.966 L653.88,41.966 C653.724,41.966 653.62,41.862 653.62,41.706 L653.62,40.51 L653.594,40.51 C652.996,41.498 651.93,42.252 650.058,42.252 C647.9,42.252 646.392,41.238 645.768,39.262 C645.43,38.274 645.326,37.286 645.326,35.726 C645.326,34.192 645.43,33.204 645.768,32.216 C646.392,30.24 647.9,29.226 650.058,29.226 C651.93,29.226 652.996,29.954 653.594,30.942 L653.62,30.942 L653.62,24.546 C653.62,24.39 653.724,24.286 653.88,24.286 L655.544,24.286 C655.7,24.286 655.804,24.39 655.804,24.546 L655.804,41.706 C655.804,41.862 655.7,41.966 655.544,41.966 Z M650.578,40.224 C651.956,40.224 652.918,39.574 653.334,38.326 C653.542,37.728 653.62,36.974 653.62,35.726 C653.62,34.478 653.542,33.75 653.334,33.126 C652.918,31.878 651.956,31.254 650.578,31.254 C649.2,31.254 648.264,31.904 647.848,33.126 C647.64,33.802 647.562,34.608 647.562,35.726 C647.562,36.87 647.64,37.676 647.848,38.326 C648.264,39.548 649.2,40.224 650.578,40.224 Z M670.884,42.096 L669.922,42.096 C667.504,42.096 666.568,41.004 666.568,38.56 L666.568,31.436 C666.568,31.332 666.516,31.28 666.412,31.28 L665.372,31.28 C665.216,31.28 665.112,31.176 665.112,31.02 L665.112,29.772 C665.112,29.616 665.216,29.512 665.372,29.512 L666.412,29.512 C666.516,29.512 666.568,29.46 666.568,29.356 L666.568,25.846 C666.568,25.69 666.672,25.586 666.828,25.586 L668.492,25.586 C668.648,25.586 668.752,25.69 668.752,25.846 L668.752,29.356 C668.752,29.46 668.804,29.512 668.908,29.512 L670.884,29.512 C671.04,29.512 671.144,29.616 671.144,29.772 L671.144,31.02 C671.144,31.176 671.04,31.28 670.884,31.28 L668.908,31.28 C668.804,31.28 668.752,31.332 668.752,31.436 L668.752,38.482 C668.752,39.73 669.22,40.068 670.338,40.068 L670.884,40.068 C671.04,40.068 671.144,40.172 671.144,40.328 L671.144,41.836 C671.144,41.992 671.04,42.096 670.884,42.096 Z M684.274,41.966 L682.61,41.966 C682.454,41.966 682.35,41.862 682.35,41.706 L682.35,34.426 C682.35,32.424 681.44,31.254 679.568,31.254 C677.878,31.254 676.708,32.45 676.708,34.296 L676.708,41.706 C676.708,41.862 676.604,41.966 676.448,41.966 L674.784,41.966 C674.628,41.966 674.524,41.862 674.524,41.706 L674.524,24.546 C674.524,24.39 674.628,24.286 674.784,24.286 L676.448,24.286 C676.604,24.286 676.708,24.39 676.708,24.546 L676.708,30.916 L676.734,30.916 C677.332,29.954 678.528,29.226 680.218,29.226 C682.922,29.226 684.534,31.072 684.534,33.906 L684.534,41.706 C684.534,41.862 684.43,41.966 684.274,41.966 Z M693.322,42.252 C690.8,42.252 689.006,41.03 688.33,38.872 C688.07,38.066 687.914,37.156 687.914,35.726 C687.914,34.296 688.044,33.334 688.304,32.58 C689.006,30.422 690.826,29.226 693.192,29.226 C695.584,29.226 697.378,30.448 698.08,32.58 C698.34,33.386 698.47,34.244 698.47,36.142 C698.47,36.298 698.366,36.402 698.184,36.402 L690.306,36.402 C690.202,36.402 690.15,36.454 690.15,36.558 C690.15,37.234 690.228,37.65 690.358,38.066 C690.852,39.496 691.97,40.224 693.504,40.224 C694.986,40.224 696.026,39.626 696.702,38.846 C696.832,38.716 696.962,38.69 697.092,38.794 L698.158,39.756 C698.288,39.86 698.288,39.99 698.184,40.12 C697.196,41.368 695.506,42.252 693.322,42.252 Z M690.306,34.66 L696.078,34.66 C696.182,34.66 696.234,34.608 696.234,34.504 C696.234,33.932 696.182,33.49 696.052,33.1 C695.636,31.852 694.596,31.15 693.192,31.15 C691.788,31.15 690.748,31.852 690.332,33.1 C690.202,33.49 690.15,33.932 690.15,34.504 C690.15,34.608 690.202,34.66 690.306,34.66 Z M711.73,41.966 L710.066,41.966 C709.91,41.966 709.806,41.862 709.806,41.706 L709.806,34.426 C709.806,32.424 708.896,31.254 707.024,31.254 C705.334,31.254 704.164,32.45 704.164,34.296 L704.164,41.706 C704.164,41.862 704.06,41.966 703.904,41.966 L702.24,41.966 C702.084,41.966 701.98,41.862 701.98,41.706 L701.98,29.772 C701.98,29.616 702.084,29.512 702.24,29.512 L703.904,29.512 C704.06,29.512 704.164,29.616 704.164,29.772 L704.164,30.916 L704.19,30.916 C704.788,29.954 705.984,29.226 707.674,29.226 C710.378,29.226 711.99,31.072 711.99,33.906 L711.99,41.706 C711.99,41.862 711.886,41.966 711.73,41.966 Z M724.288,41.966 L722.624,41.966 C722.468,41.966 722.364,41.862 722.364,41.706 L722.364,29.772 C722.364,29.616 722.468,29.512 722.624,29.512 L724.288,29.512 C724.444,29.512 724.548,29.616 724.548,29.772 L724.548,31.046 L724.574,31.046 C725.12,29.98 726.212,29.226 727.876,29.226 C728.864,29.226 729.8,29.59 730.424,30.162 C730.554,30.292 730.58,30.396 730.476,30.526 L729.514,31.8 C729.41,31.93 729.28,31.956 729.15,31.852 C728.578,31.488 727.954,31.254 727.226,31.254 C725.328,31.254 724.548,32.736 724.548,34.894 L724.548,41.706 C724.548,41.862 724.444,41.966 724.288,41.966 Z M737.21,42.252 C734.688,42.252 732.894,41.03 732.218,38.872 C731.958,38.066 731.802,37.156 731.802,35.726 C731.802,34.296 731.932,33.334 732.192,32.58 C732.894,30.422 734.714,29.226 737.08,29.226 C739.472,29.226 741.266,30.448 741.968,32.58 C742.228,33.386 742.358,34.244 742.358,36.142 C742.358,36.298 742.254,36.402 742.072,36.402 L734.194,36.402 C734.09,36.402 734.038,36.454 734.038,36.558 C734.038,37.234 734.116,37.65 734.246,38.066 C734.74,39.496 735.858,40.224 737.392,40.224 C738.874,40.224 739.914,39.626 740.59,38.846 C740.72,38.716 740.85,38.69 740.98,38.794 L742.046,39.756 C742.176,39.86 742.176,39.99 742.072,40.12 C741.084,41.368 739.394,42.252 737.21,42.252 Z M734.194,34.66 L739.966,34.66 C740.07,34.66 740.122,34.608 740.122,34.504 C740.122,33.932 740.07,33.49 739.94,33.1 C739.524,31.852 738.484,31.15 737.08,31.15 C735.676,31.15 734.636,31.852 734.22,33.1 C734.09,33.49 734.038,33.932 734.038,34.504 C734.038,34.608 734.09,34.66 734.194,34.66 Z M750.444,42.096 L749.482,42.096 C747.064,42.096 746.128,41.004 746.128,38.56 L746.128,31.436 C746.128,31.332 746.076,31.28 745.972,31.28 L744.932,31.28 C744.776,31.28 744.672,31.176 744.672,31.02 L744.672,29.772 C744.672,29.616 744.776,29.512 744.932,29.512 L745.972,29.512 C746.076,29.512 746.128,29.46 746.128,29.356 L746.128,25.846 C746.128,25.69 746.232,25.586 746.388,25.586 L748.052,25.586 C748.208,25.586 748.312,25.69 748.312,25.846 L748.312,29.356 C748.312,29.46 748.364,29.512 748.468,29.512 L750.444,29.512 C750.6,29.512 750.704,29.616 750.704,29.772 L750.704,31.02 C750.704,31.176 750.6,31.28 750.444,31.28 L748.468,31.28 C748.364,31.28 748.312,31.332 748.312,31.436 L748.312,38.482 C748.312,39.73 748.78,40.068 749.898,40.068 L750.444,40.068 C750.6,40.068 750.704,40.172 750.704,40.328 L750.704,41.836 C750.704,41.992 750.6,42.096 750.444,42.096 Z M763.574,41.966 L761.91,41.966 C761.754,41.966 761.65,41.862 761.65,41.706 L761.65,40.536 L761.624,40.536 C760.974,41.576 759.83,42.252 758.218,42.252 C755.488,42.252 753.902,40.38 753.902,37.546 L753.902,29.772 C753.902,29.616 754.006,29.512 754.162,29.512 L755.826,29.512 C755.982,29.512 756.086,29.616 756.086,29.772 L756.086,37.026 C756.086,39.054 756.996,40.224 758.842,40.224 C760.532,40.224 761.65,39.028 761.65,37.156 L761.65,29.772 C761.65,29.616 761.754,29.512 761.91,29.512 L763.574,29.512 C763.73,29.512 763.834,29.616 763.834,29.772 L763.834,41.706 C763.834,41.862 763.73,41.966 763.574,41.966 Z M770.022,41.966 L768.358,41.966 C768.202,41.966 768.098,41.862 768.098,41.706 L768.098,29.772 C768.098,29.616 768.202,29.512 768.358,29.512 L770.022,29.512 C770.178,29.512 770.282,29.616 770.282,29.772 L770.282,31.046 L770.308,31.046 C770.854,29.98 771.946,29.226 773.61,29.226 C774.598,29.226 775.534,29.59 776.158,30.162 C776.288,30.292 776.314,30.396 776.21,30.526 L775.248,31.8 C775.144,31.93 775.014,31.956 774.884,31.852 C774.312,31.488 773.688,31.254 772.96,31.254 C771.062,31.254 770.282,32.736 770.282,34.894 L770.282,41.706 C770.282,41.862 770.178,41.966 770.022,41.966 Z M788.508,41.966 L786.844,41.966 C786.688,41.966 786.584,41.862 786.584,41.706 L786.584,34.426 C786.584,32.424 785.674,31.254 783.802,31.254 C782.112,31.254 780.942,32.45 780.942,34.296 L780.942,41.706 C780.942,41.862 780.838,41.966 780.682,41.966 L779.018,41.966 C778.862,41.966 778.758,41.862 778.758,41.706 L778.758,29.772 C778.758,29.616 778.862,29.512 779.018,29.512 L780.682,29.512 C780.838,29.512 780.942,29.616 780.942,29.772 L780.942,30.916 L780.968,30.916 C781.566,29.954 782.762,29.226 784.452,29.226 C787.156,29.226 788.768,31.072 788.768,33.906 L788.768,41.706 C788.768,41.862 788.664,41.966 788.508,41.966 Z M27.878,75.966 L26.084,75.966 C25.928,75.966 25.824,75.862 25.824,75.706 L25.824,60.6 C25.824,60.496 25.772,60.444 25.668,60.444 L20.832,60.444 C20.676,60.444 20.572,60.34 20.572,60.184 L20.572,58.546 C20.572,58.39 20.676,58.286 20.832,58.286 L33.13,58.286 C33.286,58.286 33.39,58.39 33.39,58.546 L33.39,60.184 C33.39,60.34 33.286,60.444 33.13,60.444 L28.294,60.444 C28.19,60.444 28.138,60.496 28.138,60.6 L28.138,75.706 C28.138,75.862 28.034,75.966 27.878,75.966 Z M45.844,75.966 L44.18,75.966 C44.024,75.966 43.92,75.862 43.92,75.706 L43.92,68.426 C43.92,66.424 43.01,65.254 41.138,65.254 C39.448,65.254 38.278,66.45 38.278,68.296 L38.278,75.706 C38.278,75.862 38.174,75.966 38.018,75.966 L36.354,75.966 C36.198,75.966 36.094,75.862 36.094,75.706 L36.094,58.546 C36.094,58.39 36.198,58.286 36.354,58.286 L38.018,58.286 C38.174,58.286 38.278,58.39 38.278,58.546 L38.278,64.916 L38.304,64.916 C38.902,63.954 40.098,63.226 41.788,63.226 C44.492,63.226 46.104,65.072 46.104,67.906 L46.104,75.706 C46.104,75.862 46,75.966 45.844,75.966 Z M59.728,75.966 L58.064,75.966 C57.908,75.966 57.804,75.862 57.804,75.706 L57.804,74.536 L57.778,74.536 C57.128,75.576 55.984,76.252 54.372,76.252 C51.642,76.252 50.056,74.38 50.056,71.546 L50.056,63.772 C50.056,63.616 50.16,63.512 50.316,63.512 L51.98,63.512 C52.136,63.512 52.24,63.616 52.24,63.772 L52.24,71.026 C52.24,73.054 53.15,74.224 54.996,74.224 C56.686,74.224 57.804,73.028 57.804,71.156 L57.804,63.772 C57.804,63.616 57.908,63.512 58.064,63.512 L59.728,63.512 C59.884,63.512 59.988,63.616 59.988,63.772 L59.988,75.706 C59.988,75.862 59.884,75.966 59.728,75.966 Z M66.176,75.966 L64.512,75.966 C64.356,75.966 64.252,75.862 64.252,75.706 L64.252,63.772 C64.252,63.616 64.356,63.512 64.512,63.512 L66.176,63.512 C66.332,63.512 66.436,63.616 66.436,63.772 L66.436,65.046 L66.462,65.046 C67.008,63.98 68.1,63.226 69.764,63.226 C70.752,63.226 71.688,63.59 72.312,64.162 C72.442,64.292 72.468,64.396 72.364,64.526 L71.402,65.8 C71.298,65.93 71.168,65.956 71.038,65.852 C70.466,65.488 69.842,65.254 69.114,65.254 C67.216,65.254 66.436,66.736 66.436,68.894 L66.436,75.706 C66.436,75.862 66.332,75.966 66.176,75.966 Z M78.994,76.252 C76.576,76.252 74.86,75.264 73.846,74.38 C73.742,74.276 73.742,74.12 73.846,74.016 L74.912,72.872 C75.016,72.768 75.172,72.768 75.276,72.872 C76.212,73.678 77.616,74.302 79.124,74.302 C80.944,74.302 81.854,73.522 81.854,72.404 C81.854,71.416 81.386,70.87 79.436,70.662 L78.11,70.532 C75.666,70.272 74.392,69.05 74.392,67.022 C74.392,64.656 76.082,63.226 79.02,63.226 C80.84,63.226 82.4,63.824 83.44,64.604 C83.57,64.682 83.57,64.838 83.492,64.968 L82.608,66.086 C82.504,66.216 82.374,66.216 82.244,66.138 C81.438,65.618 80.164,65.124 78.89,65.124 C77.33,65.124 76.524,65.826 76.524,66.84 C76.524,67.828 77.122,68.348 78.968,68.53 L80.268,68.66 C82.79,68.894 84.012,70.168 84.012,72.17 C84.012,74.614 82.244,76.252 78.994,76.252 Z M96.908,75.966 L95.244,75.966 C95.088,75.966 94.984,75.862 94.984,75.706 L94.984,74.51 L94.958,74.51 C94.36,75.498 93.294,76.252 91.422,76.252 C89.264,76.252 87.756,75.238 87.132,73.262 C86.794,72.274 86.69,71.286 86.69,69.726 C86.69,68.192 86.794,67.204 87.132,66.216 C87.756,64.24 89.264,63.226 91.422,63.226 C93.294,63.226 94.36,63.954 94.958,64.942 L94.984,64.942 L94.984,58.546 C94.984,58.39 95.088,58.286 95.244,58.286 L96.908,58.286 C97.064,58.286 97.168,58.39 97.168,58.546 L97.168,75.706 C97.168,75.862 97.064,75.966 96.908,75.966 Z M91.942,74.224 C93.32,74.224 94.282,73.574 94.698,72.326 C94.906,71.728 94.984,70.974 94.984,69.726 C94.984,68.478 94.906,67.75 94.698,67.126 C94.282,65.878 93.32,65.254 91.942,65.254 C90.564,65.254 89.628,65.904 89.212,67.126 C89.004,67.802 88.926,68.608 88.926,69.726 C88.926,70.87 89.004,71.676 89.212,72.326 C89.628,73.548 90.564,74.224 91.942,74.224 Z M110.506,75.966 L108.972,75.966 C108.816,75.966 108.712,75.862 108.712,75.706 L108.712,74.614 L108.686,74.614 C108.114,75.55 106.892,76.252 104.994,76.252 C102.628,76.252 100.808,75.03 100.808,72.508 C100.808,69.882 102.628,68.66 105.67,68.66 L108.504,68.66 C108.608,68.66 108.66,68.608 108.66,68.504 L108.66,67.594 C108.66,65.878 107.984,65.15 105.67,65.15 C104.266,65.15 103.382,65.514 102.654,66.034 C102.524,66.138 102.368,66.138 102.29,66.008 L101.588,64.812 C101.51,64.656 101.536,64.552 101.64,64.448 C102.576,63.72 104.032,63.226 105.878,63.226 C109.414,63.226 110.766,64.396 110.766,67.464 L110.766,75.706 C110.766,75.862 110.662,75.966 110.506,75.966 Z M105.514,74.38 C107.464,74.38 108.66,73.47 108.66,71.936 L108.66,70.558 C108.66,70.454 108.608,70.402 108.504,70.402 L106.008,70.402 C103.85,70.402 102.914,71.026 102.914,72.43 C102.914,73.704 103.85,74.38 105.514,74.38 Z M115.602,80.646 L114.926,80.646 C114.77,80.646 114.666,80.542 114.666,80.386 L114.666,78.878 C114.666,78.722 114.77,78.618 114.926,78.618 L115.394,78.618 C116.408,78.618 116.954,78.176 117.5,76.746 L117.916,75.602 L113.34,63.772 C113.288,63.616 113.366,63.512 113.548,63.512 L115.368,63.512 C115.524,63.512 115.628,63.59 115.68,63.772 L118.956,72.768 L119.008,72.768 L122.154,63.772 C122.206,63.59 122.31,63.512 122.466,63.512 L124.234,63.512 C124.39,63.512 124.494,63.616 124.442,63.772 L119.528,76.928 C118.436,79.866 117.474,80.646 115.602,80.646 Z M138.118,76.252 C135.596,76.252 133.802,75.03 133.126,72.872 C132.866,72.066 132.71,71.156 132.71,69.726 C132.71,68.296 132.84,67.334 133.1,66.58 C133.802,64.422 135.622,63.226 137.988,63.226 C140.38,63.226 142.174,64.448 142.876,66.58 C143.136,67.386 143.266,68.244 143.266,70.142 C143.266,70.298 143.162,70.402 142.98,70.402 L135.102,70.402 C134.998,70.402 134.946,70.454 134.946,70.558 C134.946,71.234 135.024,71.65 135.154,72.066 C135.648,73.496 136.766,74.224 138.3,74.224 C139.782,74.224 140.822,73.626 141.498,72.846 C141.628,72.716 141.758,72.69 141.888,72.794 L142.954,73.756 C143.084,73.86 143.084,73.99 142.98,74.12 C141.992,75.368 140.302,76.252 138.118,76.252 Z M135.102,68.66 L140.874,68.66 C140.978,68.66 141.03,68.608 141.03,68.504 C141.03,67.932 140.978,67.49 140.848,67.1 C140.432,65.852 139.392,65.15 137.988,65.15 C136.584,65.15 135.544,65.852 135.128,67.1 C134.998,67.49 134.946,67.932 134.946,68.504 C134.946,68.608 134.998,68.66 135.102,68.66 Z M151.586,75.966 L150.104,75.966 C149.922,75.966 149.844,75.862 149.792,75.706 L145.32,63.772 C145.268,63.616 145.346,63.512 145.528,63.512 L147.322,63.512 C147.504,63.512 147.582,63.59 147.66,63.772 L150.884,72.716 L150.936,72.716 L154.082,63.772 C154.134,63.59 154.238,63.512 154.394,63.512 L156.162,63.512 C156.344,63.512 156.422,63.616 156.37,63.772 L151.924,75.706 C151.872,75.862 151.768,75.966 151.586,75.966 Z M163.728,76.252 C161.206,76.252 159.412,75.03 158.736,72.872 C158.476,72.066 158.32,71.156 158.32,69.726 C158.32,68.296 158.45,67.334 158.71,66.58 C159.412,64.422 161.232,63.226 163.598,63.226 C165.99,63.226 167.784,64.448 168.486,66.58 C168.746,67.386 168.876,68.244 168.876,70.142 C168.876,70.298 168.772,70.402 168.59,70.402 L160.712,70.402 C160.608,70.402 160.556,70.454 160.556,70.558 C160.556,71.234 160.634,71.65 160.764,72.066 C161.258,73.496 162.376,74.224 163.91,74.224 C165.392,74.224 166.432,73.626 167.108,72.846 C167.238,72.716 167.368,72.69 167.498,72.794 L168.564,73.756 C168.694,73.86 168.694,73.99 168.59,74.12 C167.602,75.368 165.912,76.252 163.728,76.252 Z M160.712,68.66 L166.484,68.66 C166.588,68.66 166.64,68.608 166.64,68.504 C166.64,67.932 166.588,67.49 166.458,67.1 C166.042,65.852 165.002,65.15 163.598,65.15 C162.194,65.15 161.154,65.852 160.738,67.1 C160.608,67.49 160.556,67.932 160.556,68.504 C160.556,68.608 160.608,68.66 160.712,68.66 Z M182.136,75.966 L180.472,75.966 C180.316,75.966 180.212,75.862 180.212,75.706 L180.212,68.426 C180.212,66.424 179.302,65.254 177.43,65.254 C175.74,65.254 174.57,66.45 174.57,68.296 L174.57,75.706 C174.57,75.862 174.466,75.966 174.31,75.966 L172.646,75.966 C172.49,75.966 172.386,75.862 172.386,75.706 L172.386,63.772 C172.386,63.616 172.49,63.512 172.646,63.512 L174.31,63.512 C174.466,63.512 174.57,63.616 174.57,63.772 L174.57,64.916 L174.596,64.916 C175.194,63.954 176.39,63.226 178.08,63.226 C180.784,63.226 182.396,65.072 182.396,67.906 L182.396,75.706 C182.396,75.862 182.292,75.966 182.136,75.966 Z M188.506,60.704 L186.738,60.704 C186.582,60.704 186.478,60.6 186.478,60.444 L186.478,58.546 C186.478,58.39 186.582,58.286 186.738,58.286 L188.506,58.286 C188.662,58.286 188.766,58.39 188.766,58.546 L188.766,60.444 C188.766,60.6 188.662,60.704 188.506,60.704 Z M188.454,75.966 L186.79,75.966 C186.634,75.966 186.53,75.862 186.53,75.706 L186.53,63.772 C186.53,63.616 186.634,63.512 186.79,63.512 L188.454,63.512 C188.61,63.512 188.714,63.616 188.714,63.772 L188.714,75.706 C188.714,75.862 188.61,75.966 188.454,75.966 Z M202.728,75.966 L201.064,75.966 C200.908,75.966 200.804,75.862 200.804,75.706 L200.804,68.426 C200.804,66.424 199.894,65.254 198.022,65.254 C196.332,65.254 195.162,66.45 195.162,68.296 L195.162,75.706 C195.162,75.862 195.058,75.966 194.902,75.966 L193.238,75.966 C193.082,75.966 192.978,75.862 192.978,75.706 L192.978,63.772 C192.978,63.616 193.082,63.512 193.238,63.512 L194.902,63.512 C195.058,63.512 195.162,63.616 195.162,63.772 L195.162,64.916 L195.188,64.916 C195.786,63.954 196.982,63.226 198.672,63.226 C201.376,63.226 202.988,65.072 202.988,67.906 L202.988,75.706 C202.988,75.862 202.884,75.966 202.728,75.966 Z M211.178,80.932 C209.436,80.932 207.694,80.178 206.862,79.086 C206.758,78.956 206.758,78.852 206.888,78.722 L207.954,77.656 C208.084,77.526 208.214,77.526 208.344,77.656 C209.202,78.436 210.086,78.904 211.282,78.904 C213.336,78.904 214.428,77.838 214.428,75.55 L214.428,74.094 L214.402,74.094 C213.83,75.134 212.764,75.81 210.944,75.81 C208.838,75.81 207.382,74.744 206.758,72.794 C206.446,71.858 206.342,70.948 206.342,69.518 C206.342,68.088 206.446,67.178 206.758,66.242 C207.382,64.292 208.838,63.226 210.944,63.226 C212.764,63.226 213.83,63.902 214.402,64.942 L214.428,64.942 L214.428,63.772 C214.428,63.616 214.532,63.512 214.688,63.512 L216.352,63.512 C216.508,63.512 216.612,63.616 216.612,63.772 L216.612,75.42 C216.612,78.956 214.688,80.932 211.178,80.932 Z M211.49,73.808 C212.79,73.808 213.7,73.21 214.142,71.936 C214.35,71.312 214.428,70.584 214.428,69.518 C214.428,68.452 214.35,67.75 214.142,67.1 C213.7,65.826 212.79,65.254 211.49,65.254 C210.138,65.254 209.28,65.904 208.864,67.1 C208.656,67.75 208.552,68.504 208.552,69.518 C208.552,70.532 208.656,71.312 208.864,71.936 C209.28,73.158 210.138,73.808 211.49,73.808 Z M229.456,75.966 L227.792,75.966 C227.636,75.966 227.532,75.862 227.532,75.706 L227.532,65.436 C227.532,65.332 227.48,65.28 227.376,65.28 L226.31,65.28 C226.154,65.28 226.05,65.176 226.05,65.02 L226.05,63.772 C226.05,63.616 226.154,63.512 226.31,63.512 L227.376,63.512 C227.48,63.512 227.532,63.46 227.532,63.356 L227.532,62.29 C227.532,59.352 228.728,58.286 231.328,58.286 L232.29,58.286 C232.446,58.286 232.55,58.39 232.55,58.546 L232.55,60.054 C232.55,60.21 232.446,60.314 232.29,60.314 L231.614,60.314 C230.028,60.314 229.716,60.652 229.716,62.186 L229.716,63.356 C229.716,63.46 229.768,63.512 229.872,63.512 L232.29,63.512 C232.446,63.512 232.55,63.616 232.55,63.772 L232.55,65.02 C232.55,65.176 232.446,65.28 232.29,65.28 L229.872,65.28 C229.768,65.28 229.716,65.332 229.716,65.436 L229.716,75.706 C229.716,75.862 229.612,75.966 229.456,75.966 Z M237.308,75.966 L235.644,75.966 C235.488,75.966 235.384,75.862 235.384,75.706 L235.384,63.772 C235.384,63.616 235.488,63.512 235.644,63.512 L237.308,63.512 C237.464,63.512 237.568,63.616 237.568,63.772 L237.568,65.046 L237.594,65.046 C238.14,63.98 239.232,63.226 240.896,63.226 C241.884,63.226 242.82,63.59 243.444,64.162 C243.574,64.292 243.6,64.396 243.496,64.526 L242.534,65.8 C242.43,65.93 242.3,65.956 242.17,65.852 C241.598,65.488 240.974,65.254 240.246,65.254 C238.348,65.254 237.568,66.736 237.568,68.894 L237.568,75.706 C237.568,75.862 237.464,75.966 237.308,75.966 Z M250.152,76.252 C247.734,76.252 245.914,75.004 245.238,72.898 C244.952,72.04 244.822,71.182 244.822,69.726 C244.822,68.296 244.952,67.438 245.238,66.58 C245.914,64.448 247.734,63.226 250.152,63.226 C252.57,63.226 254.39,64.448 255.066,66.58 C255.352,67.438 255.482,68.296 255.482,69.726 C255.482,71.182 255.352,72.04 255.066,72.898 C254.39,75.004 252.57,76.252 250.152,76.252 Z M250.152,74.224 C251.53,74.224 252.544,73.522 252.96,72.274 C253.168,71.598 253.246,70.922 253.246,69.726 C253.246,68.53 253.168,67.88 252.96,67.204 C252.544,65.956 251.53,65.254 250.152,65.254 C248.774,65.254 247.76,65.956 247.344,67.204 C247.136,67.88 247.058,68.53 247.058,69.726 C247.058,70.922 247.136,71.598 247.344,72.274 C247.76,73.522 248.774,74.224 250.152,74.224 Z M276.568,75.966 L274.904,75.966 C274.748,75.966 274.644,75.862 274.644,75.706 L274.644,68.426 C274.644,66.424 273.734,65.254 271.862,65.254 C270.198,65.254 269.002,66.45 269.002,68.296 L269.002,75.706 C269.002,75.862 268.898,75.966 268.742,75.966 L267.078,75.966 C266.922,75.966 266.818,75.862 266.818,75.706 L266.818,68.426 C266.818,66.424 265.908,65.254 264.036,65.254 C262.346,65.254 261.176,66.45 261.176,68.296 L261.176,75.706 C261.176,75.862 261.072,75.966 260.916,75.966 L259.252,75.966 C259.096,75.966 258.992,75.862 258.992,75.706 L258.992,63.772 C258.992,63.616 259.096,63.512 259.252,63.512 L260.916,63.512 C261.072,63.512 261.176,63.616 261.176,63.772 L261.176,64.916 L261.202,64.916 C261.8,63.954 262.996,63.226 264.686,63.226 C266.376,63.226 267.624,63.928 268.326,65.176 L268.352,65.176 C269.21,63.98 270.484,63.226 272.382,63.226 C275.268,63.226 276.828,65.072 276.828,67.906 L276.828,75.706 C276.828,75.862 276.724,75.966 276.568,75.966 Z M287.254,75.706 L287.254,58.546 C287.254,58.39 287.358,58.286 287.514,58.286 L289.308,58.286 C289.464,58.286 289.568,58.39 289.568,58.546 L289.568,73.652 C289.568,73.756 289.62,73.808 289.724,73.808 L298.148,73.808 C298.304,73.808 298.408,73.912 298.408,74.068 L298.408,75.706 C298.408,75.862 298.304,75.966 298.148,75.966 L287.514,75.966 C287.358,75.966 287.254,75.862 287.254,75.706 Z M300.306,72.118 C299.994,71.104 299.838,70.038 299.838,67.126 C299.838,64.214 299.994,63.148 300.306,62.134 C301.19,59.404 303.374,58 306.364,58 C309.458,58 311.356,59.56 312.24,61.51 C312.318,61.666 312.292,61.796 312.162,61.874 L310.602,62.628 C310.446,62.706 310.316,62.654 310.238,62.498 C309.38,60.912 308.236,60.158 306.364,60.158 C304.362,60.158 303.088,61.094 302.542,62.784 C302.308,63.434 302.178,64.422 302.178,67.126 C302.178,69.83 302.308,70.818 302.542,71.468 C303.088,73.158 304.362,74.094 306.364,74.094 C308.158,74.094 309.614,73.21 310.16,71.546 C310.342,70.948 310.498,70.09 310.498,68.764 C310.498,68.66 310.446,68.608 310.342,68.608 L306.91,68.608 C306.754,68.608 306.65,68.504 306.65,68.348 L306.65,66.84 C306.65,66.684 306.754,66.58 306.91,66.58 L312.552,66.58 C312.708,66.58 312.812,66.684 312.812,66.84 L312.812,68.166 C312.812,69.752 312.63,71.208 312.37,72.066 C311.512,74.744 309.302,76.252 306.364,76.252 C303.374,76.252 301.19,74.848 300.306,72.118 Z M314.476,75.706 L320.612,58.546 C320.664,58.39 320.742,58.286 320.924,58.286 L322.614,58.286 C322.796,58.286 322.9,58.39 322.952,58.546 L329.01,75.706 C329.062,75.862 328.984,75.966 328.828,75.966 L327.008,75.966 C326.826,75.966 326.722,75.888 326.67,75.706 L325.318,71.858 L318.168,71.858 L316.816,75.706 C316.738,75.888 316.634,75.966 316.478,75.966 L314.658,75.966 C314.502,75.966 314.424,75.862 314.476,75.706 Z M318.922,69.726 L324.564,69.726 L321.782,61.692 L321.73,61.692 L318.922,69.726 Z M347.08,75.966 L345.546,75.966 C345.39,75.966 345.286,75.862 345.286,75.706 L345.286,74.614 L345.26,74.614 C344.688,75.55 343.466,76.252 341.568,76.252 C339.202,76.252 337.382,75.03 337.382,72.508 C337.382,69.882 339.202,68.66 342.244,68.66 L345.078,68.66 C345.182,68.66 345.234,68.608 345.234,68.504 L345.234,67.594 C345.234,65.878 344.558,65.15 342.244,65.15 C340.84,65.15 339.956,65.514 339.228,66.034 C339.098,66.138 338.942,66.138 338.864,66.008 L338.162,64.812 C338.084,64.656 338.11,64.552 338.214,64.448 C339.15,63.72 340.606,63.226 342.452,63.226 C345.988,63.226 347.34,64.396 347.34,67.464 L347.34,75.706 C347.34,75.862 347.236,75.966 347.08,75.966 Z M342.088,74.38 C344.038,74.38 345.234,73.47 345.234,71.936 L345.234,70.558 C345.234,70.454 345.182,70.402 345.078,70.402 L342.582,70.402 C340.424,70.402 339.488,71.026 339.488,72.43 C339.488,73.704 340.424,74.38 342.088,74.38 Z M353.476,60.704 L351.708,60.704 C351.552,60.704 351.448,60.6 351.448,60.444 L351.448,58.546 C351.448,58.39 351.552,58.286 351.708,58.286 L353.476,58.286 C353.632,58.286 353.736,58.39 353.736,58.546 L353.736,60.444 C353.736,60.6 353.632,60.704 353.476,60.704 Z M353.424,75.966 L351.76,75.966 C351.604,75.966 351.5,75.862 351.5,75.706 L351.5,63.772 C351.5,63.616 351.604,63.512 351.76,63.512 L353.424,63.512 C353.58,63.512 353.684,63.616 353.684,63.772 L353.684,75.706 C353.684,75.862 353.58,75.966 353.424,75.966 Z M359.872,75.966 L358.208,75.966 C358.052,75.966 357.948,75.862 357.948,75.706 L357.948,63.772 C357.948,63.616 358.052,63.512 358.208,63.512 L359.872,63.512 C360.028,63.512 360.132,63.616 360.132,63.772 L360.132,65.046 L360.158,65.046 C360.704,63.98 361.796,63.226 363.46,63.226 C364.448,63.226 365.384,63.59 366.008,64.162 C366.138,64.292 366.164,64.396 366.06,64.526 L365.098,65.8 C364.994,65.93 364.864,65.956 364.734,65.852 C364.162,65.488 363.538,65.254 362.81,65.254 C360.912,65.254 360.132,66.736 360.132,68.894 L360.132,75.706 C360.132,75.862 360.028,75.966 359.872,75.966 Z M370.532,80.646 L368.868,80.646 C368.712,80.646 368.608,80.542 368.608,80.386 L368.608,63.772 C368.608,63.616 368.712,63.512 368.868,63.512 L370.532,63.512 C370.688,63.512 370.792,63.616 370.792,63.772 L370.792,64.942 L370.818,64.942 C371.416,63.954 372.482,63.226 374.354,63.226 C376.512,63.226 378.02,64.24 378.644,66.216 C378.982,67.204 379.086,68.192 379.086,69.726 C379.086,71.286 378.982,72.274 378.644,73.262 C378.02,75.238 376.512,76.252 374.354,76.252 C372.482,76.252 371.416,75.498 370.818,74.51 L370.792,74.51 L370.792,80.386 C370.792,80.542 370.688,80.646 370.532,80.646 Z M373.834,74.224 C375.212,74.224 376.148,73.548 376.564,72.326 C376.772,71.676 376.85,70.87 376.85,69.726 C376.85,68.608 376.772,67.802 376.564,67.126 C376.148,65.904 375.212,65.254 373.834,65.254 C372.456,65.254 371.494,65.878 371.078,67.126 C370.87,67.75 370.792,68.478 370.792,69.726 C370.792,70.974 370.87,71.728 371.078,72.326 C371.494,73.574 372.456,74.224 373.834,74.224 Z M387.172,76.252 C384.754,76.252 382.934,75.004 382.258,72.898 C381.972,72.04 381.842,71.182 381.842,69.726 C381.842,68.296 381.972,67.438 382.258,66.58 C382.934,64.448 384.754,63.226 387.172,63.226 C389.59,63.226 391.41,64.448 392.086,66.58 C392.372,67.438 392.502,68.296 392.502,69.726 C392.502,71.182 392.372,72.04 392.086,72.898 C391.41,75.004 389.59,76.252 387.172,76.252 Z M387.172,74.224 C388.55,74.224 389.564,73.522 389.98,72.274 C390.188,71.598 390.266,70.922 390.266,69.726 C390.266,68.53 390.188,67.88 389.98,67.204 C389.564,65.956 388.55,65.254 387.172,65.254 C385.794,65.254 384.78,65.956 384.364,67.204 C384.156,67.88 384.078,68.53 384.078,69.726 C384.078,70.922 384.156,71.598 384.364,72.274 C384.78,73.522 385.794,74.224 387.172,74.224 Z M397.936,75.966 L396.272,75.966 C396.116,75.966 396.012,75.862 396.012,75.706 L396.012,63.772 C396.012,63.616 396.116,63.512 396.272,63.512 L397.936,63.512 C398.092,63.512 398.196,63.616 398.196,63.772 L398.196,65.046 L398.222,65.046 C398.768,63.98 399.86,63.226 401.524,63.226 C402.512,63.226 403.448,63.59 404.072,64.162 C404.202,64.292 404.228,64.396 404.124,64.526 L403.162,65.8 C403.058,65.93 402.928,65.956 402.798,65.852 C402.226,65.488 401.602,65.254 400.874,65.254 C398.976,65.254 398.196,66.736 398.196,68.894 L398.196,75.706 C398.196,75.862 398.092,75.966 397.936,75.966 Z M411.248,76.096 L410.286,76.096 C407.868,76.096 406.932,75.004 406.932,72.56 L406.932,65.436 C406.932,65.332 406.88,65.28 406.776,65.28 L405.736,65.28 C405.58,65.28 405.476,65.176 405.476,65.02 L405.476,63.772 C405.476,63.616 405.58,63.512 405.736,63.512 L406.776,63.512 C406.88,63.512 406.932,63.46 406.932,63.356 L406.932,59.846 C406.932,59.69 407.036,59.586 407.192,59.586 L408.856,59.586 C409.012,59.586 409.116,59.69 409.116,59.846 L409.116,63.356 C409.116,63.46 409.168,63.512 409.272,63.512 L411.248,63.512 C411.404,63.512 411.508,63.616 411.508,63.772 L411.508,65.02 C411.508,65.176 411.404,65.28 411.248,65.28 L409.272,65.28 C409.168,65.28 409.116,65.332 409.116,65.436 L409.116,72.482 C409.116,73.73 409.584,74.068 410.702,74.068 L411.248,74.068 C411.404,74.068 411.508,74.172 411.508,74.328 L411.508,75.836 C411.508,75.992 411.404,76.096 411.248,76.096 Z M414.706,75.706 L414.706,73.47 C414.706,73.314 414.81,73.21 414.966,73.21 L416.942,73.21 C417.098,73.21 417.202,73.314 417.202,73.47 L417.202,75.706 C417.202,75.862 417.098,75.966 416.942,75.966 L414.966,75.966 C414.81,75.966 414.706,75.862 414.706,75.706 Z M426.9,75.706 L426.9,58.546 C426.9,58.39 427.004,58.286 427.16,58.286 L428.954,58.286 C429.11,58.286 429.214,58.39 429.214,58.546 L429.214,75.706 C429.214,75.862 429.11,75.966 428.954,75.966 L427.16,75.966 C427.004,75.966 426.9,75.862 426.9,75.706 Z M451.964,75.966 L450.482,75.966 C450.326,75.966 450.222,75.862 450.17,75.706 L447.362,66.788 L447.31,66.788 L444.476,75.706 C444.424,75.862 444.32,75.966 444.164,75.966 L442.656,75.966 C442.5,75.966 442.396,75.862 442.344,75.706 L438.444,63.772 C438.392,63.616 438.47,63.512 438.626,63.512 L440.394,63.512 C440.576,63.512 440.654,63.564 440.732,63.772 L443.488,72.768 L443.54,72.768 L446.348,63.772 C446.4,63.59 446.504,63.512 446.66,63.512 L448.012,63.512 C448.168,63.512 448.298,63.59 448.35,63.772 L451.184,72.768 L451.236,72.768 L453.914,63.772 C453.966,63.564 454.07,63.512 454.252,63.512 L456.02,63.512 C456.176,63.512 456.254,63.616 456.202,63.772 L452.276,75.706 C452.224,75.862 452.146,75.966 451.964,75.966 Z M468.11,75.966 L466.576,75.966 C466.42,75.966 466.316,75.862 466.316,75.706 L466.316,74.614 L466.29,74.614 C465.718,75.55 464.496,76.252 462.598,76.252 C460.232,76.252 458.412,75.03 458.412,72.508 C458.412,69.882 460.232,68.66 463.274,68.66 L466.108,68.66 C466.212,68.66 466.264,68.608 466.264,68.504 L466.264,67.594 C466.264,65.878 465.588,65.15 463.274,65.15 C461.87,65.15 460.986,65.514 460.258,66.034 C460.128,66.138 459.972,66.138 459.894,66.008 L459.192,64.812 C459.114,64.656 459.14,64.552 459.244,64.448 C460.18,63.72 461.636,63.226 463.482,63.226 C467.018,63.226 468.37,64.396 468.37,67.464 L468.37,75.706 C468.37,75.862 468.266,75.966 468.11,75.966 Z M463.118,74.38 C465.068,74.38 466.264,73.47 466.264,71.936 L466.264,70.558 C466.264,70.454 466.212,70.402 466.108,70.402 L463.612,70.402 C461.454,70.402 460.518,71.026 460.518,72.43 C460.518,73.704 461.454,74.38 463.118,74.38 Z M482.28,75.966 L480.616,75.966 C480.46,75.966 480.356,75.862 480.356,75.706 L480.356,68.426 C480.356,66.424 479.446,65.254 477.574,65.254 C475.884,65.254 474.714,66.45 474.714,68.296 L474.714,75.706 C474.714,75.862 474.61,75.966 474.454,75.966 L472.79,75.966 C472.634,75.966 472.53,75.862 472.53,75.706 L472.53,63.772 C472.53,63.616 472.634,63.512 472.79,63.512 L474.454,63.512 C474.61,63.512 474.714,63.616 474.714,63.772 L474.714,64.916 L474.74,64.916 C475.338,63.954 476.534,63.226 478.224,63.226 C480.928,63.226 482.54,65.072 482.54,67.906 L482.54,75.706 C482.54,75.862 482.436,75.966 482.28,75.966 Z M491.25,76.096 L490.288,76.096 C487.87,76.096 486.934,75.004 486.934,72.56 L486.934,65.436 C486.934,65.332 486.882,65.28 486.778,65.28 L485.738,65.28 C485.582,65.28 485.478,65.176 485.478,65.02 L485.478,63.772 C485.478,63.616 485.582,63.512 485.738,63.512 L486.778,63.512 C486.882,63.512 486.934,63.46 486.934,63.356 L486.934,59.846 C486.934,59.69 487.038,59.586 487.194,59.586 L488.858,59.586 C489.014,59.586 489.118,59.69 489.118,59.846 L489.118,63.356 C489.118,63.46 489.17,63.512 489.274,63.512 L491.25,63.512 C491.406,63.512 491.51,63.616 491.51,63.772 L491.51,65.02 C491.51,65.176 491.406,65.28 491.25,65.28 L489.274,65.28 C489.17,65.28 489.118,65.332 489.118,65.436 L489.118,72.482 C489.118,73.73 489.586,74.068 490.704,74.068 L491.25,74.068 C491.406,74.068 491.51,74.172 491.51,74.328 L491.51,75.836 C491.51,75.992 491.406,76.096 491.25,76.096 Z M505.706,76.096 L504.744,76.096 C502.326,76.096 501.39,75.004 501.39,72.56 L501.39,65.436 C501.39,65.332 501.338,65.28 501.234,65.28 L500.194,65.28 C500.038,65.28 499.934,65.176 499.934,65.02 L499.934,63.772 C499.934,63.616 500.038,63.512 500.194,63.512 L501.234,63.512 C501.338,63.512 501.39,63.46 501.39,63.356 L501.39,59.846 C501.39,59.69 501.494,59.586 501.65,59.586 L503.314,59.586 C503.47,59.586 503.574,59.69 503.574,59.846 L503.574,63.356 C503.574,63.46 503.626,63.512 503.73,63.512 L505.706,63.512 C505.862,63.512 505.966,63.616 505.966,63.772 L505.966,65.02 C505.966,65.176 505.862,65.28 505.706,65.28 L503.73,65.28 C503.626,65.28 503.574,65.332 503.574,65.436 L503.574,72.482 C503.574,73.73 504.042,74.068 505.16,74.068 L505.706,74.068 C505.862,74.068 505.966,74.172 505.966,74.328 L505.966,75.836 C505.966,75.992 505.862,76.096 505.706,76.096 Z M513.922,76.252 C511.504,76.252 509.684,75.004 509.008,72.898 C508.722,72.04 508.592,71.182 508.592,69.726 C508.592,68.296 508.722,67.438 509.008,66.58 C509.684,64.448 511.504,63.226 513.922,63.226 C516.34,63.226 518.16,64.448 518.836,66.58 C519.122,67.438 519.252,68.296 519.252,69.726 C519.252,71.182 519.122,72.04 518.836,72.898 C518.16,75.004 516.34,76.252 513.922,76.252 Z M513.922,74.224 C515.3,74.224 516.314,73.522 516.73,72.274 C516.938,71.598 517.016,70.922 517.016,69.726 C517.016,68.53 516.938,67.88 516.73,67.204 C516.314,65.956 515.3,65.254 513.922,65.254 C512.544,65.254 511.53,65.956 511.114,67.204 C510.906,67.88 510.828,68.53 510.828,69.726 C510.828,70.922 510.906,71.598 511.114,72.274 C511.53,73.522 512.544,74.224 513.922,74.224 Z M531.342,75.966 L529.678,75.966 C529.522,75.966 529.418,75.862 529.418,75.706 L529.418,65.436 C529.418,65.332 529.366,65.28 529.262,65.28 L528.196,65.28 C528.04,65.28 527.936,65.176 527.936,65.02 L527.936,63.772 C527.936,63.616 528.04,63.512 528.196,63.512 L529.262,63.512 C529.366,63.512 529.418,63.46 529.418,63.356 L529.418,62.29 C529.418,59.352 530.614,58.286 533.214,58.286 L534.176,58.286 C534.332,58.286 534.436,58.39 534.436,58.546 L534.436,60.054 C534.436,60.21 534.332,60.314 534.176,60.314 L533.5,60.314 C531.914,60.314 531.602,60.652 531.602,62.186 L531.602,63.356 C531.602,63.46 531.654,63.512 531.758,63.512 L534.176,63.512 C534.332,63.512 534.436,63.616 534.436,63.772 L534.436,65.02 C534.436,65.176 534.332,65.28 534.176,65.28 L531.758,65.28 C531.654,65.28 531.602,65.332 531.602,65.436 L531.602,75.706 C531.602,75.862 531.498,75.966 531.342,75.966 Z M541.144,76.096 L540.26,76.096 C538.076,76.096 537.218,75.056 537.218,72.82 L537.218,58.546 C537.218,58.39 537.322,58.286 537.478,58.286 L539.142,58.286 C539.298,58.286 539.402,58.39 539.402,58.546 L539.402,72.69 C539.402,73.73 539.792,74.068 540.65,74.068 L541.144,74.068 C541.3,74.068 541.404,74.172 541.404,74.328 L541.404,75.836 C541.404,75.992 541.3,76.096 541.144,76.096 Z M545.148,80.646 L544.472,80.646 C544.316,80.646 544.212,80.542 544.212,80.386 L544.212,78.878 C544.212,78.722 544.316,78.618 544.472,78.618 L544.94,78.618 C545.954,78.618 546.5,78.176 547.046,76.746 L547.462,75.602 L542.886,63.772 C542.834,63.616 542.912,63.512 543.094,63.512 L544.914,63.512 C545.07,63.512 545.174,63.59 545.226,63.772 L548.502,72.768 L548.554,72.768 L551.7,63.772 C551.752,63.59 551.856,63.512 552.012,63.512 L553.78,63.512 C553.936,63.512 554.04,63.616 553.988,63.772 L549.074,76.928 C547.982,79.866 547.02,80.646 545.148,80.646 Z M564.934,75.966 L563.27,75.966 C563.114,75.966 563.01,75.862 563.01,75.706 L563.01,58.546 C563.01,58.39 563.114,58.286 563.27,58.286 L564.934,58.286 C565.09,58.286 565.194,58.39 565.194,58.546 L565.194,64.942 L565.22,64.942 C565.818,63.954 566.884,63.226 568.756,63.226 C570.914,63.226 572.422,64.24 573.046,66.216 C573.384,67.204 573.488,68.192 573.488,69.726 C573.488,71.286 573.384,72.274 573.046,73.262 C572.422,75.238 570.914,76.252 568.756,76.252 C566.884,76.252 565.818,75.498 565.22,74.51 L565.194,74.51 L565.194,75.706 C565.194,75.862 565.09,75.966 564.934,75.966 Z M568.236,74.224 C569.614,74.224 570.55,73.548 570.966,72.326 C571.174,71.676 571.252,70.87 571.252,69.726 C571.252,68.608 571.174,67.802 570.966,67.126 C570.55,65.904 569.614,65.254 568.236,65.254 C566.858,65.254 565.896,65.878 565.48,67.126 C565.272,67.75 565.194,68.478 565.194,69.726 C565.194,70.974 565.272,71.728 565.48,72.326 C565.896,73.574 566.858,74.224 568.236,74.224 Z M586.488,75.966 L584.824,75.966 C584.668,75.966 584.564,75.862 584.564,75.706 L584.564,74.536 L584.538,74.536 C583.888,75.576 582.744,76.252 581.132,76.252 C578.402,76.252 576.816,74.38 576.816,71.546 L576.816,63.772 C576.816,63.616 576.92,63.512 577.076,63.512 L578.74,63.512 C578.896,63.512 579,63.616 579,63.772 L579,71.026 C579,73.054 579.91,74.224 581.756,74.224 C583.446,74.224 584.564,73.028 584.564,71.156 L584.564,63.772 C584.564,63.616 584.668,63.512 584.824,63.512 L586.488,63.512 C586.644,63.512 586.748,63.616 586.748,63.772 L586.748,75.706 C586.748,75.862 586.644,75.966 586.488,75.966 Z M595.302,76.252 C592.884,76.252 591.168,75.264 590.154,74.38 C590.05,74.276 590.05,74.12 590.154,74.016 L591.22,72.872 C591.324,72.768 591.48,72.768 591.584,72.872 C592.52,73.678 593.924,74.302 595.432,74.302 C597.252,74.302 598.162,73.522 598.162,72.404 C598.162,71.416 597.694,70.87 595.744,70.662 L594.418,70.532 C591.974,70.272 590.7,69.05 590.7,67.022 C590.7,64.656 592.39,63.226 595.328,63.226 C597.148,63.226 598.708,63.824 599.748,64.604 C599.878,64.682 599.878,64.838 599.8,64.968 L598.916,66.086 C598.812,66.216 598.682,66.216 598.552,66.138 C597.746,65.618 596.472,65.124 595.198,65.124 C593.638,65.124 592.832,65.826 592.832,66.84 C592.832,67.828 593.43,68.348 595.276,68.53 L596.576,68.66 C599.098,68.894 600.32,70.168 600.32,72.17 C600.32,74.614 598.552,76.252 595.302,76.252 Z M605.728,60.704 L603.96,60.704 C603.804,60.704 603.7,60.6 603.7,60.444 L603.7,58.546 C603.7,58.39 603.804,58.286 603.96,58.286 L605.728,58.286 C605.884,58.286 605.988,58.39 605.988,58.546 L605.988,60.444 C605.988,60.6 605.884,60.704 605.728,60.704 Z M605.676,75.966 L604.012,75.966 C603.856,75.966 603.752,75.862 603.752,75.706 L603.752,63.772 C603.752,63.616 603.856,63.512 604.012,63.512 L605.676,63.512 C605.832,63.512 605.936,63.616 605.936,63.772 L605.936,75.706 C605.936,75.862 605.832,75.966 605.676,75.966 Z M619.95,75.966 L618.286,75.966 C618.13,75.966 618.026,75.862 618.026,75.706 L618.026,68.426 C618.026,66.424 617.116,65.254 615.244,65.254 C613.554,65.254 612.384,66.45 612.384,68.296 L612.384,75.706 C612.384,75.862 612.28,75.966 612.124,75.966 L610.46,75.966 C610.304,75.966 610.2,75.862 610.2,75.706 L610.2,63.772 C610.2,63.616 610.304,63.512 610.46,63.512 L612.124,63.512 C612.28,63.512 612.384,63.616 612.384,63.772 L612.384,64.916 L612.41,64.916 C613.008,63.954 614.204,63.226 615.894,63.226 C618.598,63.226 620.21,65.072 620.21,67.906 L620.21,75.706 C620.21,75.862 620.106,75.966 619.95,75.966 Z M628.998,76.252 C626.476,76.252 624.682,75.03 624.006,72.872 C623.746,72.066 623.59,71.156 623.59,69.726 C623.59,68.296 623.72,67.334 623.98,66.58 C624.682,64.422 626.502,63.226 628.868,63.226 C631.26,63.226 633.054,64.448 633.756,66.58 C634.016,67.386 634.146,68.244 634.146,70.142 C634.146,70.298 634.042,70.402 633.86,70.402 L625.982,70.402 C625.878,70.402 625.826,70.454 625.826,70.558 C625.826,71.234 625.904,71.65 626.034,72.066 C626.528,73.496 627.646,74.224 629.18,74.224 C630.662,74.224 631.702,73.626 632.378,72.846 C632.508,72.716 632.638,72.69 632.768,72.794 L633.834,73.756 C633.964,73.86 633.964,73.99 633.86,74.12 C632.872,75.368 631.182,76.252 628.998,76.252 Z M625.982,68.66 L631.754,68.66 C631.858,68.66 631.91,68.608 631.91,68.504 C631.91,67.932 631.858,67.49 631.728,67.1 C631.312,65.852 630.272,65.15 628.868,65.15 C627.464,65.15 626.424,65.852 626.008,67.1 C625.878,67.49 625.826,67.932 625.826,68.504 C625.826,68.608 625.878,68.66 625.982,68.66 Z M641.946,76.252 C639.528,76.252 637.812,75.264 636.798,74.38 C636.694,74.276 636.694,74.12 636.798,74.016 L637.864,72.872 C637.968,72.768 638.124,72.768 638.228,72.872 C639.164,73.678 640.568,74.302 642.076,74.302 C643.896,74.302 644.806,73.522 644.806,72.404 C644.806,71.416 644.338,70.87 642.388,70.662 L641.062,70.532 C638.618,70.272 637.344,69.05 637.344,67.022 C637.344,64.656 639.034,63.226 641.972,63.226 C643.792,63.226 645.352,63.824 646.392,64.604 C646.522,64.682 646.522,64.838 646.444,64.968 L645.56,66.086 C645.456,66.216 645.326,66.216 645.196,66.138 C644.39,65.618 643.116,65.124 641.842,65.124 C640.282,65.124 639.476,65.826 639.476,66.84 C639.476,67.828 640.074,68.348 641.92,68.53 L643.22,68.66 C645.742,68.894 646.964,70.168 646.964,72.17 C646.964,74.614 645.196,76.252 641.946,76.252 Z M654.686,76.252 C652.268,76.252 650.552,75.264 649.538,74.38 C649.434,74.276 649.434,74.12 649.538,74.016 L650.604,72.872 C650.708,72.768 650.864,72.768 650.968,72.872 C651.904,73.678 653.308,74.302 654.816,74.302 C656.636,74.302 657.546,73.522 657.546,72.404 C657.546,71.416 657.078,70.87 655.128,70.662 L653.802,70.532 C651.358,70.272 650.084,69.05 650.084,67.022 C650.084,64.656 651.774,63.226 654.712,63.226 C656.532,63.226 658.092,63.824 659.132,64.604 C659.262,64.682 659.262,64.838 659.184,64.968 L658.3,66.086 C658.196,66.216 658.066,66.216 657.936,66.138 C657.13,65.618 655.856,65.124 654.582,65.124 C653.022,65.124 652.216,65.826 652.216,66.84 C652.216,67.828 652.814,68.348 654.66,68.53 L655.96,68.66 C658.482,68.894 659.704,70.168 659.704,72.17 C659.704,74.614 657.936,76.252 654.686,76.252 Z M668.622,69.726 C668.622,68.348 668.778,67.334 669.012,66.58 C669.714,64.422 671.534,63.226 673.926,63.226 C675.824,63.226 677.28,64.032 678.19,65.332 C678.268,65.462 678.268,65.566 678.112,65.696 L676.968,66.632 C676.838,66.736 676.708,66.736 676.604,66.606 C675.876,65.696 675.174,65.254 673.926,65.254 C672.574,65.254 671.56,65.904 671.144,67.204 C670.936,67.854 670.858,68.634 670.858,69.726 C670.858,70.844 670.936,71.624 671.144,72.274 C671.56,73.574 672.574,74.224 673.926,74.224 C675.174,74.224 675.876,73.782 676.604,72.872 C676.708,72.742 676.838,72.742 676.968,72.846 L678.112,73.782 C678.268,73.912 678.268,74.016 678.19,74.146 C677.28,75.446 675.824,76.252 673.926,76.252 C671.534,76.252 669.714,75.056 669.012,72.898 C668.778,72.144 668.622,71.13 668.622,69.726 Z M685.522,76.096 L684.638,76.096 C682.454,76.096 681.596,75.056 681.596,72.82 L681.596,58.546 C681.596,58.39 681.7,58.286 681.856,58.286 L683.52,58.286 C683.676,58.286 683.78,58.39 683.78,58.546 L683.78,72.69 C683.78,73.73 684.17,74.068 685.028,74.068 L685.522,74.068 C685.678,74.068 685.782,74.172 685.782,74.328 L685.782,75.836 C685.782,75.992 685.678,76.096 685.522,76.096 Z M697.924,75.966 L696.39,75.966 C696.234,75.966 696.13,75.862 696.13,75.706 L696.13,74.614 L696.104,74.614 C695.532,75.55 694.31,76.252 692.412,76.252 C690.046,76.252 688.226,75.03 688.226,72.508 C688.226,69.882 690.046,68.66 693.088,68.66 L695.922,68.66 C696.026,68.66 696.078,68.608 696.078,68.504 L696.078,67.594 C696.078,65.878 695.402,65.15 693.088,65.15 C691.684,65.15 690.8,65.514 690.072,66.034 C689.942,66.138 689.786,66.138 689.708,66.008 L689.006,64.812 C688.928,64.656 688.954,64.552 689.058,64.448 C689.994,63.72 691.45,63.226 693.296,63.226 C696.832,63.226 698.184,64.396 698.184,67.464 L698.184,75.706 C698.184,75.862 698.08,75.966 697.924,75.966 Z M692.932,74.38 C694.882,74.38 696.078,73.47 696.078,71.936 L696.078,70.558 C696.078,70.454 696.026,70.402 695.922,70.402 L693.426,70.402 C691.268,70.402 690.332,71.026 690.332,72.43 C690.332,73.704 691.268,74.38 692.932,74.38 Z M706.634,76.252 C704.216,76.252 702.5,75.264 701.486,74.38 C701.382,74.276 701.382,74.12 701.486,74.016 L702.552,72.872 C702.656,72.768 702.812,72.768 702.916,72.872 C703.852,73.678 705.256,74.302 706.764,74.302 C708.584,74.302 709.494,73.522 709.494,72.404 C709.494,71.416 709.026,70.87 707.076,70.662 L705.75,70.532 C703.306,70.272 702.032,69.05 702.032,67.022 C702.032,64.656 703.722,63.226 706.66,63.226 C708.48,63.226 710.04,63.824 711.08,64.604 C711.21,64.682 711.21,64.838 711.132,64.968 L710.248,66.086 C710.144,66.216 710.014,66.216 709.884,66.138 C709.078,65.618 707.804,65.124 706.53,65.124 C704.97,65.124 704.164,65.826 704.164,66.84 C704.164,67.828 704.762,68.348 706.608,68.53 L707.908,68.66 C710.43,68.894 711.652,70.168 711.652,72.17 C711.652,74.614 709.884,76.252 706.634,76.252 Z M719.374,76.252 C716.956,76.252 715.24,75.264 714.226,74.38 C714.122,74.276 714.122,74.12 714.226,74.016 L715.292,72.872 C715.396,72.768 715.552,72.768 715.656,72.872 C716.592,73.678 717.996,74.302 719.504,74.302 C721.324,74.302 722.234,73.522 722.234,72.404 C722.234,71.416 721.766,70.87 719.816,70.662 L718.49,70.532 C716.046,70.272 714.772,69.05 714.772,67.022 C714.772,64.656 716.462,63.226 719.4,63.226 C721.22,63.226 722.78,63.824 723.82,64.604 C723.95,64.682 723.95,64.838 723.872,64.968 L722.988,66.086 C722.884,66.216 722.754,66.216 722.624,66.138 C721.818,65.618 720.544,65.124 719.27,65.124 C717.71,65.124 716.904,65.826 716.904,66.84 C716.904,67.828 717.502,68.348 719.348,68.53 L720.648,68.66 C723.17,68.894 724.392,70.168 724.392,72.17 C724.392,74.614 722.624,76.252 719.374,76.252 Z M727.512,75.706 L727.512,73.47 C727.512,73.314 727.616,73.21 727.772,73.21 L729.748,73.21 C729.904,73.21 730.008,73.314 730.008,73.47 L730.008,75.706 C730.008,75.862 729.904,75.966 729.748,75.966 L727.772,75.966 C727.616,75.966 727.512,75.862 727.512,75.706 Z" id="FlyfromChicagotoNewarkonTuesdaybefore10amandthenreturnThursdayeveningfromLGAairport.Iwanttofybusinessclass." fill="#666666" fill-rule="nonzero"></path>
            </g>
        </g>
    </g>
</svg>