<?xml version="1.0" encoding="UTF-8"?>
<svg id="email" width="503px" height="482px" viewBox="0 0 503 482" version="1.1" xmlns="http://www.w3.org/2000/svg" xmlns:xlink="http://www.w3.org/1999/xlink">
    <!-- Generator: Sketch 53.2 (72643) - https://sketchapp.com -->
    <title>Email</title>
    <desc>Created with Sketch.</desc>
    <defs>
        <filter x="-11.0%" y="-11.5%" width="122.0%" height="123.0%" filterUnits="objectBoundingBox" id="email-filter-1">
            <feOffset dx="0" dy="2" in="SourceAlpha" result="shadowOffsetOuter1"></feOffset>
            <feGaussianBlur stdDeviation="12" in="shadowOffsetOuter1" result="shadowBlurOuter1"></feGaussianBlur>
            <feColorMatrix values="0 0 0 0 0   0 0 0 0 0   0 0 0 0 0  0 0 0 0.254534528 0" type="matrix" in="shadowBlurOuter1" result="shadowMatrixOuter1"></feColorMatrix>
            <feMerge>
                <feMergeNode in="shadowMatrixOuter1"></feMergeNode>
                <feMergeNode in="SourceGraphic"></feMergeNode>
            </feMerge>
        </filter>
    </defs>
    <g id="Website-Animations" stroke="none" stroke-width="1" fill="none" fill-rule="evenodd">
        <g id="Artboard" transform="translate(-245.000000, -164.000000)">
            <g id="Email" filter="url(#filter-1)" transform="translate(269.000000, 186.000000)">
                <g id="Window">
                    <rect id="Background" stroke="#999999" fill="#FFFFFF" x="0.5" y="0.5" width="454" height="433"></rect>
                    <rect id="Header" stroke="#979797" fill="#333333" x="0.5" y="0.5" width="454" height="36.1184211"></rect>
                    <path d="M16.2801255,21.9433333 L16.2801255,12.7033333 C16.2801255,12.6193333 16.3361255,12.5633333 16.4201255,12.5633333 L17.7081255,12.5633333 C17.8201255,12.5633333 17.8901255,12.6053333 17.9461255,12.7033333 L21.8241255,19.2693333 L21.8801255,19.2693333 L21.8801255,12.7033333 C21.8801255,12.6193333 21.9361255,12.5633333 22.0201255,12.5633333 L23.2381255,12.5633333 C23.3221255,12.5633333 23.3781255,12.6193333 23.3781255,12.7033333 L23.3781255,21.9433333 C23.3781255,22.0273333 23.3221255,22.0833333 23.2381255,22.0833333 L21.9641255,22.0833333 C21.8521255,22.0833333 21.7821255,22.0413333 21.7261255,21.9433333 L17.8341255,15.3913333 L17.7781255,15.3913333 L17.7781255,21.9433333 C17.7781255,22.0273333 17.7221255,22.0833333 17.6381255,22.0833333 L16.4201255,22.0833333 C16.3361255,22.0833333 16.2801255,22.0273333 16.2801255,21.9433333 Z M28.1381255,22.2373333 C26.7101255,22.2373333 25.7021255,21.5373333 25.3241255,20.3613333 C25.1841255,19.9273333 25.0861255,19.4093333 25.0861255,18.7093333 C25.0861255,18.0093333 25.1701255,17.4773333 25.3101255,17.0433333 C25.6881255,15.8673333 26.7241255,15.1813333 28.0681255,15.1813333 C29.4541255,15.1813333 30.4621255,15.8953333 30.8401255,17.0433333 C30.9941255,17.5193333 31.0641255,17.9813333 31.0641255,19.0733333 C31.0641255,19.1573333 31.0081255,19.2133333 30.9101255,19.2133333 L26.7521255,19.2133333 C26.6961255,19.2133333 26.6681255,19.2413333 26.6681255,19.2973333 C26.6681255,19.4933333 26.7101255,19.6613333 26.7661255,19.8153333 C26.9901255,20.4733333 27.5221255,20.8373333 28.2781255,20.8373333 C29.0341255,20.8373333 29.5241255,20.5573333 29.8601255,20.1933333 C29.9301255,20.1233333 30.0001255,20.1093333 30.0701255,20.1653333 L30.8961255,20.8933333 C30.9661255,20.9493333 30.9661255,21.0193333 30.9101255,21.0893333 C30.3361255,21.7613333 29.3841255,22.2373333 28.1381255,22.2373333 Z M29.4821255,17.9533333 C29.4821255,17.7153333 29.4541255,17.5473333 29.3981255,17.3793333 C29.2161255,16.8333333 28.7121255,16.5113333 28.0821255,16.5113333 C27.4381255,16.5113333 26.9341255,16.8333333 26.7521255,17.3793333 C26.6961255,17.5473333 26.6681255,17.7153333 26.6681255,17.9533333 C26.6681255,18.0093333 26.6961255,18.0373333 26.7521255,18.0373333 L29.3981255,18.0373333 C29.4541255,18.0373333 29.4821255,18.0093333 29.4821255,17.9533333 Z M39.6321255,22.0833333 L38.4841255,22.0833333 C38.4001255,22.0833333 38.3441255,22.0273333 38.3161255,21.9433333 L37.0141255,17.6313333 L36.9861255,17.6313333 L35.6701255,21.9433333 C35.6421255,22.0273333 35.5861255,22.0833333 35.5021255,22.0833333 L34.3541255,22.0833333 C34.2701255,22.0833333 34.2141255,22.0273333 34.1861255,21.9433333 L32.0581255,15.4753333 C32.0301255,15.3913333 32.0721255,15.3353333 32.1561255,15.3353333 L33.5001255,15.3353333 C33.5981255,15.3353333 33.6541255,15.3773333 33.6821255,15.4753333 L34.9841255,19.9273333 L35.0121255,19.9273333 L36.3001255,15.4753333 C36.3281255,15.3913333 36.3981255,15.3353333 36.4821255,15.3353333 L37.4901255,15.3353333 C37.5741255,15.3353333 37.6441255,15.3913333 37.6721255,15.4753333 L39.0441255,19.9273333 L39.0721255,19.9273333 L40.3041255,15.4753333 C40.3321255,15.3773333 40.3881255,15.3353333 40.4861255,15.3353333 L41.8301255,15.3353333 C41.9141255,15.3353333 41.9561255,15.3913333 41.9281255,15.4753333 L39.8001255,21.9433333 C39.7721255,22.0273333 39.7161255,22.0833333 39.6321255,22.0833333 Z M46.6181255,21.9433333 L46.6181255,12.7033333 C46.6181255,12.6193333 46.6741255,12.5633333 46.7581255,12.5633333 L48.0041255,12.5633333 C48.1301255,12.5633333 48.2001255,12.6053333 48.2421255,12.7033333 L50.8601255,18.5693333 L50.9161255,18.5693333 L53.4921255,12.7033333 C53.5341255,12.6053333 53.6041255,12.5633333 53.7301255,12.5633333 L54.9621255,12.5633333 C55.0461255,12.5633333 55.1021255,12.6193333 55.1021255,12.7033333 L55.1021255,21.9433333 C55.1021255,22.0273333 55.0461255,22.0833333 54.9621255,22.0833333 L53.7441255,22.0833333 C53.6601255,22.0833333 53.6041255,22.0273333 53.6041255,21.9433333 L53.6041255,16.1193333 L53.5481255,16.1193333 L51.5321255,20.5993333 C51.4761255,20.7253333 51.3921255,20.7813333 51.2661255,20.7813333 L50.4541255,20.7813333 C50.3281255,20.7813333 50.2441255,20.7253333 50.1881255,20.5993333 L48.1721255,16.1193333 L48.1161255,16.1193333 L48.1161255,21.9433333 C48.1161255,22.0273333 48.0601255,22.0833333 47.9761255,22.0833333 L46.7581255,22.0833333 C46.6741255,22.0833333 46.6181255,22.0273333 46.6181255,21.9433333 Z M59.8621255,22.2373333 C58.4341255,22.2373333 57.4261255,21.5373333 57.0481255,20.3613333 C56.9081255,19.9273333 56.8101255,19.4093333 56.8101255,18.7093333 C56.8101255,18.0093333 56.8941255,17.4773333 57.0341255,17.0433333 C57.4121255,15.8673333 58.4481255,15.1813333 59.7921255,15.1813333 C61.1781255,15.1813333 62.1861255,15.8953333 62.5641255,17.0433333 C62.7181255,17.5193333 62.7881255,17.9813333 62.7881255,19.0733333 C62.7881255,19.1573333 62.7321255,19.2133333 62.6341255,19.2133333 L58.4761255,19.2133333 C58.4201255,19.2133333 58.3921255,19.2413333 58.3921255,19.2973333 C58.3921255,19.4933333 58.4341255,19.6613333 58.4901255,19.8153333 C58.7141255,20.4733333 59.2461255,20.8373333 60.0021255,20.8373333 C60.7581255,20.8373333 61.2481255,20.5573333 61.5841255,20.1933333 C61.6541255,20.1233333 61.7241255,20.1093333 61.7941255,20.1653333 L62.6201255,20.8933333 C62.6901255,20.9493333 62.6901255,21.0193333 62.6341255,21.0893333 C62.0601255,21.7613333 61.1081255,22.2373333 59.8621255,22.2373333 Z M61.2061255,17.9533333 C61.2061255,17.7153333 61.1781255,17.5473333 61.1221255,17.3793333 C60.9401255,16.8333333 60.4361255,16.5113333 59.8061255,16.5113333 C59.1621255,16.5113333 58.6581255,16.8333333 58.4761255,17.3793333 C58.4201255,17.5473333 58.3921255,17.7153333 58.3921255,17.9533333 C58.3921255,18.0093333 58.4201255,18.0373333 58.4761255,18.0373333 L61.1221255,18.0373333 C61.1781255,18.0373333 61.2061255,18.0093333 61.2061255,17.9533333 Z M66.9601255,22.2373333 C65.5741255,22.2373333 64.6221255,21.6913333 64.0621255,21.1733333 C64.0061255,21.1173333 64.0061255,21.0333333 64.0621255,20.9773333 L64.8601255,20.1373333 C64.9161255,20.0813333 65.0001255,20.0813333 65.0561255,20.1373333 C65.5461255,20.5853333 66.3301255,20.9073333 67.0301255,20.9073333 C67.8561255,20.9073333 68.2761255,20.5713333 68.2761255,20.1093333 C68.2761255,19.7033333 68.0381255,19.4513333 67.1561255,19.3673333 L66.4281255,19.2973333 C65.0561255,19.1573333 64.3561255,18.4573333 64.3561255,17.3093333 C64.3561255,16.0073333 65.2941255,15.1813333 66.9741255,15.1813333 C68.0241255,15.1813333 68.9061255,15.5313333 69.5081255,16.0073333 C69.5781255,16.0633333 69.5781255,16.1473333 69.5361255,16.2033333 L68.8501255,17.0293333 C68.7941255,17.0993333 68.7241255,17.0993333 68.6541255,17.0573333 C68.2341255,16.7633333 67.5621255,16.4973333 66.8901255,16.4973333 C66.2181255,16.4973333 65.8681255,16.7913333 65.8681255,17.1973333 C65.8681255,17.5893333 66.1061255,17.8273333 66.9741255,17.9113333 L67.7021255,17.9813333 C69.1161255,18.1213333 69.7881255,18.8493333 69.7881255,19.9553333 C69.7881255,21.2993333 68.8081255,22.2373333 66.9601255,22.2373333 Z M73.9321255,22.2373333 C72.5461255,22.2373333 71.5941255,21.6913333 71.0341255,21.1733333 C70.9781255,21.1173333 70.9781255,21.0333333 71.0341255,20.9773333 L71.8321255,20.1373333 C71.8881255,20.0813333 71.9721255,20.0813333 72.0281255,20.1373333 C72.5181255,20.5853333 73.3021255,20.9073333 74.0021255,20.9073333 C74.8281255,20.9073333 75.2481255,20.5713333 75.2481255,20.1093333 C75.2481255,19.7033333 75.0101255,19.4513333 74.1281255,19.3673333 L73.4001255,19.2973333 C72.0281255,19.1573333 71.3281255,18.4573333 71.3281255,17.3093333 C71.3281255,16.0073333 72.2661255,15.1813333 73.9461255,15.1813333 C74.9961255,15.1813333 75.8781255,15.5313333 76.4801255,16.0073333 C76.5501255,16.0633333 76.5501255,16.1473333 76.5081255,16.2033333 L75.8221255,17.0293333 C75.7661255,17.0993333 75.6961255,17.0993333 75.6261255,17.0573333 C75.2061255,16.7633333 74.5341255,16.4973333 73.8621255,16.4973333 C73.1901255,16.4973333 72.8401255,16.7913333 72.8401255,17.1973333 C72.8401255,17.5893333 73.0781255,17.8273333 73.9461255,17.9113333 L74.6741255,17.9813333 C76.0881255,18.1213333 76.7601255,18.8493333 76.7601255,19.9553333 C76.7601255,21.2993333 75.7801255,22.2373333 73.9321255,22.2373333 Z M83.6061255,22.0833333 L82.4301255,22.0833333 C82.3461255,22.0833333 82.2901255,22.0273333 82.2901255,21.9433333 L82.2901255,21.4533333 L82.2761255,21.4533333 C81.9541255,21.9153333 81.3241255,22.2373333 80.3721255,22.2373333 C79.1401255,22.2373333 78.1041255,21.5933333 78.1041255,20.1793333 C78.1041255,18.7093333 79.1401255,18.0373333 80.8061255,18.0373333 L82.1781255,18.0373333 C82.2341255,18.0373333 82.2621255,18.0093333 82.2621255,17.9533333 L82.2621255,17.6313333 C82.2621255,16.8613333 81.8981255,16.5113333 80.7641255,16.5113333 C80.0081255,16.5113333 79.5461255,16.7213333 79.2241255,16.9733333 C79.1541255,17.0293333 79.0701255,17.0153333 79.0281255,16.9453333 L78.5101255,16.0213333 C78.4681255,15.9513333 78.4821255,15.8813333 78.5381255,15.8393333 C79.0841255,15.4473333 79.8261255,15.1813333 80.9321255,15.1813333 C82.9901255,15.1813333 83.7461255,15.8813333 83.7461255,17.5333333 L83.7461255,21.9433333 C83.7461255,22.0273333 83.6901255,22.0833333 83.6061255,22.0833333 Z M80.7641255,20.9633333 C81.7301255,20.9633333 82.2621255,20.5853333 82.2621255,19.8153333 L82.2621255,19.2973333 C82.2621255,19.2413333 82.2341255,19.2133333 82.1781255,19.2133333 L81.0581255,19.2133333 C80.0501255,19.2133333 79.6021255,19.4933333 79.6021255,20.1233333 C79.6021255,20.6833333 80.0081255,20.9633333 80.7641255,20.9633333 Z M88.0441255,24.7573333 C87.1061255,24.7573333 86.1121255,24.3653333 85.5941255,23.7493333 C85.5381255,23.6793333 85.5381255,23.6233333 85.6081255,23.5533333 L86.4341255,22.7273333 C86.5041255,22.6573333 86.5741255,22.6573333 86.6441255,22.7273333 C87.0641255,23.1333333 87.5541255,23.3573333 88.1141255,23.3573333 C89.1501255,23.3573333 89.6261255,22.7973333 89.6261255,21.7473333 L89.6261255,21.1173333 L89.6121255,21.1173333 C89.3041255,21.5933333 88.7301255,21.9013333 87.8621255,21.9013333 C86.7281255,21.9013333 85.9161255,21.3273333 85.5661255,20.2633333 C85.3981255,19.7453333 85.3421255,19.2833333 85.3421255,18.5413333 C85.3421255,17.7993333 85.3981255,17.3513333 85.5661255,16.8333333 C85.9161255,15.7553333 86.7281255,15.1813333 87.8621255,15.1813333 C88.7301255,15.1813333 89.3041255,15.4893333 89.6121255,15.9793333 L89.6261255,15.9793333 L89.6261255,15.4753333 C89.6261255,15.3913333 89.6821255,15.3353333 89.7661255,15.3353333 L91.0541255,15.3353333 C91.1381255,15.3353333 91.1941255,15.3913333 91.1941255,15.4753333 L91.1941255,21.6633333 C91.1941255,23.5953333 90.1161255,24.7573333 88.0441255,24.7573333 Z M88.2681255,20.5153333 C88.9121255,20.5153333 89.2901255,20.2073333 89.4721255,19.6473333 C89.5841255,19.3393333 89.6261255,19.0033333 89.6261255,18.5413333 C89.6261255,18.0933333 89.5841255,17.7573333 89.4721255,17.4353333 C89.2901255,16.8893333 88.9121255,16.5813333 88.2681255,16.5813333 C87.6381255,16.5813333 87.2601255,16.8893333 87.0781255,17.4353333 C86.9661255,17.7573333 86.9241255,18.0933333 86.9241255,18.5413333 C86.9241255,19.0033333 86.9661255,19.3393333 87.0781255,19.6473333 C87.2601255,20.2073333 87.6381255,20.5153333 88.2681255,20.5153333 Z M95.9261255,22.2373333 C94.4981255,22.2373333 93.4901255,21.5373333 93.1121255,20.3613333 C92.9721255,19.9273333 92.8741255,19.4093333 92.8741255,18.7093333 C92.8741255,18.0093333 92.9581255,17.4773333 93.0981255,17.0433333 C93.4761255,15.8673333 94.5121255,15.1813333 95.8561255,15.1813333 C97.2421255,15.1813333 98.2501255,15.8953333 98.6281255,17.0433333 C98.7821255,17.5193333 98.8521255,17.9813333 98.8521255,19.0733333 C98.8521255,19.1573333 98.7961255,19.2133333 98.6981255,19.2133333 L94.5401255,19.2133333 C94.4841255,19.2133333 94.4561255,19.2413333 94.4561255,19.2973333 C94.4561255,19.4933333 94.4981255,19.6613333 94.5541255,19.8153333 C94.7781255,20.4733333 95.3101255,20.8373333 96.0661255,20.8373333 C96.8221255,20.8373333 97.3121255,20.5573333 97.6481255,20.1933333 C97.7181255,20.1233333 97.7881255,20.1093333 97.8581255,20.1653333 L98.6841255,20.8933333 C98.7541255,20.9493333 98.7541255,21.0193333 98.6981255,21.0893333 C98.1241255,21.7613333 97.1721255,22.2373333 95.9261255,22.2373333 Z M97.2701255,17.9533333 C97.2701255,17.7153333 97.2421255,17.5473333 97.1861255,17.3793333 C97.0041255,16.8333333 96.5001255,16.5113333 95.8701255,16.5113333 C95.2261255,16.5113333 94.7221255,16.8333333 94.5401255,17.3793333 C94.4841255,17.5473333 94.4561255,17.7153333 94.4561255,17.9533333 C94.4561255,18.0093333 94.4841255,18.0373333 94.5401255,18.0373333 L97.1861255,18.0373333 C97.2421255,18.0373333 97.2701255,18.0093333 97.2701255,17.9533333 Z" id="NewMessage" fill="#FFFFFF" fill-rule="nonzero"></path>
                    <path d="M0,76.5 L453.84059,76.5" id="Line-3" stroke="#CCCCCC"></path>
                    <path d="M0,117.5 L453.84059,117.5" id="Line-3-Copy" stroke="#CCCCCC"></path>
                </g>
                <path d="M19.151,62 L17.978,62 C17.876,62 17.808,61.932 17.808,61.83 L17.808,51.953 C17.808,51.885 17.774,51.851 17.706,51.851 L14.544,51.851 C14.442,51.851 14.374,51.783 14.374,51.681 L14.374,50.61 C14.374,50.508 14.442,50.44 14.544,50.44 L22.585,50.44 C22.687,50.44 22.755,50.508 22.755,50.61 L22.755,51.681 C22.755,51.783 22.687,51.851 22.585,51.851 L19.423,51.851 C19.355,51.851 19.321,51.885 19.321,51.953 L19.321,61.83 C19.321,61.932 19.253,62 19.151,62 Z M26.393,62.187 C24.812,62.187 23.622,61.371 23.18,59.994 C22.993,59.433 22.908,58.872 22.908,57.92 C22.908,56.985 22.993,56.424 23.18,55.863 C23.622,54.469 24.812,53.67 26.393,53.67 C27.974,53.67 29.164,54.469 29.606,55.863 C29.793,56.424 29.878,56.985 29.878,57.92 C29.878,58.872 29.793,59.433 29.606,59.994 C29.164,61.371 27.974,62.187 26.393,62.187 Z M26.393,60.861 C27.294,60.861 27.957,60.402 28.229,59.586 C28.365,59.144 28.416,58.702 28.416,57.92 C28.416,57.138 28.365,56.713 28.229,56.271 C27.957,55.455 27.294,54.996 26.393,54.996 C25.492,54.996 24.829,55.455 24.557,56.271 C24.421,56.713 24.37,57.138 24.37,57.92 C24.37,58.702 24.421,59.144 24.557,59.586 C24.829,60.402 25.492,60.861 26.393,60.861 Z" id="To" fill="#999999" fill-rule="nonzero"></path>
                <path d="M18.93,101.187 C17.298,101.187 15.717,100.524 14.867,99.742 C14.799,99.674 14.782,99.572 14.85,99.487 L15.598,98.603 C15.666,98.518 15.751,98.518 15.836,98.586 C16.584,99.181 17.74,99.776 19.066,99.776 C20.664,99.776 21.616,98.977 21.616,97.804 C21.616,96.818 21.055,96.155 19.202,95.917 L18.624,95.832 C16.38,95.526 15.224,94.455 15.224,92.636 C15.224,90.579 16.703,89.253 18.998,89.253 C20.358,89.253 21.667,89.695 22.517,90.324 C22.602,90.392 22.619,90.477 22.551,90.562 L21.973,91.497 C21.905,91.582 21.82,91.582 21.735,91.531 C20.8,90.953 19.933,90.664 18.947,90.664 C17.536,90.664 16.754,91.429 16.754,92.534 C16.754,93.503 17.4,94.149 19.185,94.387 L19.746,94.472 C22.007,94.778 23.146,95.815 23.146,97.702 C23.146,99.725 21.718,101.187 18.93,101.187 Z M31.646,101 L30.558,101 C30.456,101 30.388,100.932 30.388,100.83 L30.388,100.065 L30.371,100.065 C29.946,100.745 29.198,101.187 28.144,101.187 C26.359,101.187 25.322,99.963 25.322,98.11 L25.322,93.027 C25.322,92.925 25.39,92.857 25.492,92.857 L26.58,92.857 C26.682,92.857 26.75,92.925 26.75,93.027 L26.75,97.77 C26.75,99.096 27.345,99.861 28.552,99.861 C29.657,99.861 30.388,99.079 30.388,97.855 L30.388,93.027 C30.388,92.925 30.456,92.857 30.558,92.857 L31.646,92.857 C31.748,92.857 31.816,92.925 31.816,93.027 L31.816,100.83 C31.816,100.932 31.748,101 31.646,101 Z M35.862,101 L34.774,101 C34.672,101 34.604,100.932 34.604,100.83 L34.604,89.61 C34.604,89.508 34.672,89.44 34.774,89.44 L35.862,89.44 C35.964,89.44 36.032,89.508 36.032,89.61 L36.032,93.792 L36.049,93.792 C36.44,93.146 37.137,92.67 38.361,92.67 C39.772,92.67 40.758,93.333 41.166,94.625 C41.387,95.271 41.455,95.917 41.455,96.92 C41.455,97.94 41.387,98.586 41.166,99.232 C40.758,100.524 39.772,101.187 38.361,101.187 C37.137,101.187 36.44,100.694 36.049,100.048 L36.032,100.048 L36.032,100.83 C36.032,100.932 35.964,101 35.862,101 Z M38.021,99.861 C38.922,99.861 39.534,99.419 39.806,98.62 C39.942,98.195 39.993,97.668 39.993,96.92 C39.993,96.189 39.942,95.662 39.806,95.22 C39.534,94.421 38.922,93.996 38.021,93.996 C37.12,93.996 36.491,94.404 36.219,95.22 C36.083,95.628 36.032,96.104 36.032,96.92 C36.032,97.736 36.083,98.229 36.219,98.62 C36.491,99.436 37.12,99.861 38.021,99.861 Z M45.042,91.021 L43.886,91.021 C43.784,91.021 43.716,90.953 43.716,90.851 L43.716,89.61 C43.716,89.508 43.784,89.44 43.886,89.44 L45.042,89.44 C45.144,89.44 45.212,89.508 45.212,89.61 L45.212,90.851 C45.212,90.953 45.144,91.021 45.042,91.021 Z M42.747,104.06 L42.407,104.06 C42.305,104.06 42.237,103.992 42.237,103.89 L42.237,102.904 C42.237,102.802 42.305,102.734 42.407,102.734 L42.679,102.734 C43.478,102.734 43.75,102.513 43.75,101.646 L43.75,93.027 C43.75,92.925 43.818,92.857 43.92,92.857 L45.008,92.857 C45.11,92.857 45.178,92.925 45.178,93.027 L45.178,101.612 C45.178,103.363 44.396,104.06 42.747,104.06 Z M51.009,101.187 C49.36,101.187 48.187,100.388 47.745,98.977 C47.575,98.45 47.473,97.855 47.473,96.92 C47.473,95.985 47.558,95.356 47.728,94.863 C48.187,93.452 49.377,92.67 50.924,92.67 C52.488,92.67 53.661,93.469 54.12,94.863 C54.29,95.39 54.375,95.951 54.375,97.192 C54.375,97.294 54.307,97.362 54.188,97.362 L49.037,97.362 C48.969,97.362 48.935,97.396 48.935,97.464 C48.935,97.906 48.986,98.178 49.071,98.45 C49.394,99.385 50.125,99.861 51.128,99.861 C52.097,99.861 52.777,99.47 53.219,98.96 C53.304,98.875 53.389,98.858 53.474,98.926 L54.171,99.555 C54.256,99.623 54.256,99.708 54.188,99.793 C53.542,100.609 52.437,101.187 51.009,101.187 Z M49.037,96.223 L52.811,96.223 C52.879,96.223 52.913,96.189 52.913,96.121 C52.913,95.747 52.879,95.458 52.794,95.203 C52.522,94.387 51.842,93.928 50.924,93.928 C50.006,93.928 49.326,94.387 49.054,95.203 C48.969,95.458 48.935,95.747 48.935,96.121 C48.935,96.189 48.969,96.223 49.037,96.223 Z M56.177,96.92 C56.177,96.019 56.279,95.356 56.432,94.863 C56.891,93.452 58.081,92.67 59.645,92.67 C60.886,92.67 61.838,93.197 62.433,94.047 C62.484,94.132 62.484,94.2 62.382,94.285 L61.634,94.897 C61.549,94.965 61.464,94.965 61.396,94.88 C60.92,94.285 60.461,93.996 59.645,93.996 C58.761,93.996 58.098,94.421 57.826,95.271 C57.69,95.696 57.639,96.206 57.639,96.92 C57.639,97.651 57.69,98.161 57.826,98.586 C58.098,99.436 58.761,99.861 59.645,99.861 C60.461,99.861 60.92,99.572 61.396,98.977 C61.464,98.892 61.549,98.892 61.634,98.96 L62.382,99.572 C62.484,99.657 62.484,99.725 62.433,99.81 C61.838,100.66 60.886,101.187 59.645,101.187 C58.081,101.187 56.891,100.405 56.432,98.994 C56.279,98.501 56.177,97.838 56.177,96.92 Z M67.686,101.085 L67.057,101.085 C65.476,101.085 64.864,100.371 64.864,98.773 L64.864,94.115 C64.864,94.047 64.83,94.013 64.762,94.013 L64.082,94.013 C63.98,94.013 63.912,93.945 63.912,93.843 L63.912,93.027 C63.912,92.925 63.98,92.857 64.082,92.857 L64.762,92.857 C64.83,92.857 64.864,92.823 64.864,92.755 L64.864,90.46 C64.864,90.358 64.932,90.29 65.034,90.29 L66.122,90.29 C66.224,90.29 66.292,90.358 66.292,90.46 L66.292,92.755 C66.292,92.823 66.326,92.857 66.394,92.857 L67.686,92.857 C67.788,92.857 67.856,92.925 67.856,93.027 L67.856,93.843 C67.856,93.945 67.788,94.013 67.686,94.013 L66.394,94.013 C66.326,94.013 66.292,94.047 66.292,94.115 L66.292,98.722 C66.292,99.538 66.598,99.759 67.329,99.759 L67.686,99.759 C67.788,99.759 67.856,99.827 67.856,99.929 L67.856,100.915 C67.856,101.017 67.788,101.085 67.686,101.085 Z" id="Subject" fill="#999999" fill-rule="nonzero"></path>
                <path d="M61.784,62 L60.216,62 C60.12,62 60.056,61.936 60.056,61.84 L60.056,52.912 C60.056,52.848 60.024,52.816 59.96,52.816 L57.112,52.816 C57.016,52.816 56.952,52.752 56.952,52.656 L56.952,51.28 C56.952,51.184 57.016,51.12 57.112,51.12 L64.888,51.12 C64.984,51.12 65.048,51.184 65.048,51.28 L65.048,52.656 C65.048,52.752 64.984,52.816 64.888,52.816 L62.04,52.816 C61.976,52.816 61.944,52.848 61.944,52.912 L61.944,61.84 C61.944,61.936 61.88,62 61.784,62 Z M67.528,62 L66.056,62 C65.96,62 65.896,61.936 65.896,61.84 L65.896,54.448 C65.896,54.352 65.96,54.288 66.056,54.288 L67.528,54.288 C67.624,54.288 67.688,54.352 67.688,54.448 L67.688,55.104 L67.704,55.104 C68.072,54.512 68.728,54.112 69.704,54.112 C70.312,54.112 70.92,54.352 71.32,54.752 C71.4,54.832 71.416,54.896 71.352,54.976 L70.504,56.048 C70.44,56.128 70.36,56.144 70.28,56.08 C69.928,55.856 69.56,55.712 69.144,55.712 C68.136,55.712 67.688,56.432 67.688,57.664 L67.688,61.84 C67.688,61.936 67.624,62 67.528,62 Z M78.312,62 L76.968,62 C76.872,62 76.808,61.936 76.808,61.84 L76.808,61.28 L76.792,61.28 C76.424,61.808 75.704,62.176 74.616,62.176 C73.208,62.176 72.024,61.44 72.024,59.824 C72.024,58.144 73.208,57.376 75.112,57.376 L76.68,57.376 C76.744,57.376 76.776,57.344 76.776,57.28 L76.776,56.912 C76.776,56.032 76.36,55.632 75.064,55.632 C74.2,55.632 73.672,55.872 73.304,56.16 C73.224,56.224 73.128,56.208 73.08,56.128 L72.488,55.072 C72.44,54.992 72.456,54.912 72.52,54.864 C73.144,54.416 73.992,54.112 75.256,54.112 C77.608,54.112 78.472,54.912 78.472,56.8 L78.472,61.84 C78.472,61.936 78.408,62 78.312,62 Z M75.064,60.72 C76.168,60.72 76.776,60.288 76.776,59.408 L76.776,58.816 C76.776,58.752 76.744,58.72 76.68,58.72 L75.4,58.72 C74.248,58.72 73.736,59.04 73.736,59.76 C73.736,60.4 74.2,60.72 75.064,60.72 Z M84.104,62 L82.824,62 C82.712,62 82.648,61.936 82.616,61.84 L79.896,54.448 C79.864,54.352 79.928,54.288 80.024,54.288 L81.592,54.288 C81.688,54.288 81.752,54.352 81.784,54.448 L83.48,59.456 L83.512,59.456 L85.176,54.448 C85.208,54.352 85.272,54.288 85.368,54.288 L86.904,54.288 C87,54.288 87.064,54.352 87.032,54.448 L84.312,61.84 C84.28,61.936 84.216,62 84.104,62 Z M91.496,62.176 C89.864,62.176 88.712,61.376 88.28,60.032 C88.12,59.536 88.008,58.944 88.008,58.144 C88.008,57.344 88.104,56.736 88.264,56.24 C88.696,54.896 89.88,54.112 91.416,54.112 C93,54.112 94.152,54.928 94.584,56.24 C94.76,56.784 94.84,57.312 94.84,58.56 C94.84,58.656 94.776,58.72 94.664,58.72 L89.912,58.72 C89.848,58.72 89.816,58.752 89.816,58.816 C89.816,59.04 89.864,59.232 89.928,59.408 C90.184,60.16 90.792,60.576 91.656,60.576 C92.52,60.576 93.08,60.256 93.464,59.84 C93.544,59.76 93.624,59.744 93.704,59.808 L94.648,60.64 C94.728,60.704 94.728,60.784 94.664,60.864 C94.008,61.632 92.92,62.176 91.496,62.176 Z M93.032,57.28 C93.032,57.008 93,56.816 92.936,56.624 C92.728,56 92.152,55.632 91.432,55.632 C90.696,55.632 90.12,56 89.912,56.624 C89.848,56.816 89.816,57.008 89.816,57.28 C89.816,57.344 89.848,57.376 89.912,57.376 L92.936,57.376 C93,57.376 93.032,57.344 93.032,57.28 Z M99.544,62.096 L98.84,62.096 C97.336,62.096 96.728,61.376 96.728,59.888 L96.728,51.28 C96.728,51.184 96.792,51.12 96.888,51.12 L98.36,51.12 C98.456,51.12 98.52,51.184 98.52,51.28 L98.52,59.792 C98.52,60.32 98.728,60.496 99.192,60.496 L99.544,60.496 C99.64,60.496 99.704,60.56 99.704,60.656 L99.704,61.936 C99.704,62.032 99.64,62.096 99.544,62.096 Z M104.312,61.84 L108.04,51.28 C108.072,51.184 108.136,51.12 108.248,51.12 L109.72,51.12 C109.832,51.12 109.896,51.184 109.928,51.28 L113.608,61.84 C113.64,61.936 113.608,62 113.496,62 L111.928,62 C111.816,62 111.752,61.952 111.72,61.84 L111,59.728 L106.904,59.728 L106.184,61.84 C106.152,61.952 106.088,62 105.976,62 L104.424,62 C104.312,62 104.28,61.936 104.312,61.84 Z M107.48,58.048 L110.424,58.048 L108.984,53.824 L108.936,53.824 L107.48,58.048 Z M117.704,65.056 C116.632,65.056 115.496,64.608 114.904,63.904 C114.84,63.824 114.84,63.76 114.92,63.68 L115.864,62.736 C115.944,62.656 116.024,62.656 116.104,62.736 C116.584,63.2 117.144,63.456 117.784,63.456 C118.968,63.456 119.512,62.816 119.512,61.616 L119.512,60.896 L119.496,60.896 C119.144,61.44 118.488,61.792 117.496,61.792 C116.2,61.792 115.272,61.136 114.872,59.92 C114.68,59.328 114.616,58.8 114.616,57.952 C114.616,57.104 114.68,56.592 114.872,56 C115.272,54.768 116.2,54.112 117.496,54.112 C118.488,54.112 119.144,54.464 119.496,55.024 L119.512,55.024 L119.512,54.448 C119.512,54.352 119.576,54.288 119.672,54.288 L121.144,54.288 C121.24,54.288 121.304,54.352 121.304,54.448 L121.304,61.52 C121.304,63.728 120.072,65.056 117.704,65.056 Z M117.96,60.208 C118.696,60.208 119.128,59.856 119.336,59.216 C119.464,58.864 119.512,58.48 119.512,57.952 C119.512,57.44 119.464,57.056 119.336,56.688 C119.128,56.064 118.696,55.712 117.96,55.712 C117.24,55.712 116.808,56.064 116.6,56.688 C116.472,57.056 116.424,57.44 116.424,57.952 C116.424,58.48 116.472,58.864 116.6,59.216 C116.808,59.856 117.24,60.208 117.96,60.208 Z M126.712,62.176 C125.08,62.176 123.928,61.376 123.496,60.032 C123.336,59.536 123.224,58.944 123.224,58.144 C123.224,57.344 123.32,56.736 123.48,56.24 C123.912,54.896 125.096,54.112 126.632,54.112 C128.216,54.112 129.368,54.928 129.8,56.24 C129.976,56.784 130.056,57.312 130.056,58.56 C130.056,58.656 129.992,58.72 129.88,58.72 L125.128,58.72 C125.064,58.72 125.032,58.752 125.032,58.816 C125.032,59.04 125.08,59.232 125.144,59.408 C125.4,60.16 126.008,60.576 126.872,60.576 C127.736,60.576 128.296,60.256 128.68,59.84 C128.76,59.76 128.84,59.744 128.92,59.808 L129.864,60.64 C129.944,60.704 129.944,60.784 129.88,60.864 C129.224,61.632 128.136,62.176 126.712,62.176 Z M128.248,57.28 C128.248,57.008 128.216,56.816 128.152,56.624 C127.944,56 127.368,55.632 126.648,55.632 C125.912,55.632 125.336,56 125.128,56.624 C125.064,56.816 125.032,57.008 125.032,57.28 C125.032,57.344 125.064,57.376 125.128,57.376 L128.152,57.376 C128.216,57.376 128.248,57.344 128.248,57.28 Z M138.328,62 L136.856,62 C136.76,62 136.696,61.936 136.696,61.84 L136.696,57.392 C136.696,56.4 136.2,55.712 135.24,55.712 C134.312,55.712 133.768,56.4 133.768,57.392 L133.768,61.84 C133.768,61.936 133.704,62 133.608,62 L132.136,62 C132.04,62 131.976,61.936 131.976,61.84 L131.976,54.448 C131.976,54.352 132.04,54.288 132.136,54.288 L133.608,54.288 C133.704,54.288 133.768,54.352 133.768,54.448 L133.768,55.008 L133.784,55.008 C134.12,54.528 134.792,54.112 135.816,54.112 C137.464,54.112 138.488,55.328 138.488,56.976 L138.488,61.84 C138.488,61.936 138.424,62 138.328,62 Z M143.768,62.096 L143,62.096 C141.448,62.096 140.856,61.344 140.856,59.84 L140.856,55.776 C140.856,55.712 140.824,55.68 140.76,55.68 L140.248,55.68 C140.152,55.68 140.088,55.616 140.088,55.52 L140.088,54.448 C140.088,54.352 140.152,54.288 140.248,54.288 L140.76,54.288 C140.824,54.288 140.856,54.256 140.856,54.192 L140.856,52.08 C140.856,51.984 140.92,51.92 141.016,51.92 L142.488,51.92 C142.584,51.92 142.648,51.984 142.648,52.08 L142.648,54.192 C142.648,54.256 142.68,54.288 142.744,54.288 L143.768,54.288 C143.864,54.288 143.928,54.352 143.928,54.448 L143.928,55.52 C143.928,55.616 143.864,55.68 143.768,55.68 L142.744,55.68 C142.68,55.68 142.648,55.712 142.648,55.776 L142.648,59.776 C142.648,60.32 142.872,60.496 143.368,60.496 L143.768,60.496 C143.864,60.496 143.928,60.56 143.928,60.656 L143.928,61.936 C143.928,62.032 143.864,62.096 143.768,62.096 Z" id="TravelAgent" fill="#333333" fill-rule="nonzero"></path>
                <path d="M89.184,101 L87.616,101 C87.52,101 87.456,100.936 87.456,100.84 L87.456,91.912 C87.456,91.848 87.424,91.816 87.36,91.816 L84.512,91.816 C84.416,91.816 84.352,91.752 84.352,91.656 L84.352,90.28 C84.352,90.184 84.416,90.12 84.512,90.12 L92.288,90.12 C92.384,90.12 92.448,90.184 92.448,90.28 L92.448,91.656 C92.448,91.752 92.384,91.816 92.288,91.816 L89.44,91.816 C89.376,91.816 89.344,91.848 89.344,91.912 L89.344,100.84 C89.344,100.936 89.28,101 89.184,101 Z M94.928,101 L93.456,101 C93.36,101 93.296,100.936 93.296,100.84 L93.296,93.448 C93.296,93.352 93.36,93.288 93.456,93.288 L94.928,93.288 C95.024,93.288 95.088,93.352 95.088,93.448 L95.088,94.104 L95.104,94.104 C95.472,93.512 96.128,93.112 97.104,93.112 C97.712,93.112 98.32,93.352 98.72,93.752 C98.8,93.832 98.816,93.896 98.752,93.976 L97.904,95.048 C97.84,95.128 97.76,95.144 97.68,95.08 C97.328,94.856 96.96,94.712 96.544,94.712 C95.536,94.712 95.088,95.432 95.088,96.664 L95.088,100.84 C95.088,100.936 95.024,101 94.928,101 Z M105.712,101 L104.368,101 C104.272,101 104.208,100.936 104.208,100.84 L104.208,100.28 L104.192,100.28 C103.824,100.808 103.104,101.176 102.016,101.176 C100.608,101.176 99.424,100.44 99.424,98.824 C99.424,97.144 100.608,96.376 102.512,96.376 L104.08,96.376 C104.144,96.376 104.176,96.344 104.176,96.28 L104.176,95.912 C104.176,95.032 103.76,94.632 102.464,94.632 C101.6,94.632 101.072,94.872 100.704,95.16 C100.624,95.224 100.528,95.208 100.48,95.128 L99.888,94.072 C99.84,93.992 99.856,93.912 99.92,93.864 C100.544,93.416 101.392,93.112 102.656,93.112 C105.008,93.112 105.872,93.912 105.872,95.8 L105.872,100.84 C105.872,100.936 105.808,101 105.712,101 Z M102.464,99.72 C103.568,99.72 104.176,99.288 104.176,98.408 L104.176,97.816 C104.176,97.752 104.144,97.72 104.08,97.72 L102.8,97.72 C101.648,97.72 101.136,98.04 101.136,98.76 C101.136,99.4 101.6,99.72 102.464,99.72 Z M111.504,101 L110.224,101 C110.112,101 110.048,100.936 110.016,100.84 L107.296,93.448 C107.264,93.352 107.328,93.288 107.424,93.288 L108.992,93.288 C109.088,93.288 109.152,93.352 109.184,93.448 L110.88,98.456 L110.912,98.456 L112.576,93.448 C112.608,93.352 112.672,93.288 112.768,93.288 L114.304,93.288 C114.4,93.288 114.464,93.352 114.432,93.448 L111.712,100.84 C111.68,100.936 111.616,101 111.504,101 Z M118.896,101.176 C117.264,101.176 116.112,100.376 115.68,99.032 C115.52,98.536 115.408,97.944 115.408,97.144 C115.408,96.344 115.504,95.736 115.664,95.24 C116.096,93.896 117.28,93.112 118.816,93.112 C120.4,93.112 121.552,93.928 121.984,95.24 C122.16,95.784 122.24,96.312 122.24,97.56 C122.24,97.656 122.176,97.72 122.064,97.72 L117.312,97.72 C117.248,97.72 117.216,97.752 117.216,97.816 C117.216,98.04 117.264,98.232 117.328,98.408 C117.584,99.16 118.192,99.576 119.056,99.576 C119.92,99.576 120.48,99.256 120.864,98.84 C120.944,98.76 121.024,98.744 121.104,98.808 L122.048,99.64 C122.128,99.704 122.128,99.784 122.064,99.864 C121.408,100.632 120.32,101.176 118.896,101.176 Z M120.432,96.28 C120.432,96.008 120.4,95.816 120.336,95.624 C120.128,95 119.552,94.632 118.832,94.632 C118.096,94.632 117.52,95 117.312,95.624 C117.248,95.816 117.216,96.008 117.216,96.28 C117.216,96.344 117.248,96.376 117.312,96.376 L120.336,96.376 C120.4,96.376 120.432,96.344 120.432,96.28 Z M126.944,101.096 L126.24,101.096 C124.736,101.096 124.128,100.376 124.128,98.888 L124.128,90.28 C124.128,90.184 124.192,90.12 124.288,90.12 L125.76,90.12 C125.856,90.12 125.92,90.184 125.92,90.28 L125.92,98.792 C125.92,99.32 126.128,99.496 126.592,99.496 L126.944,99.496 C127.04,99.496 127.104,99.56 127.104,99.656 L127.104,100.936 C127.104,101.032 127.04,101.096 126.944,101.096 Z M140.576,101 L138.8,101 C138.672,101 138.608,100.952 138.56,100.84 L136.48,96.6 L134.608,96.6 C134.544,96.6 134.512,96.632 134.512,96.696 L134.512,100.84 C134.512,100.936 134.448,101 134.352,101 L132.784,101 C132.688,101 132.624,100.936 132.624,100.84 L132.624,90.28 C132.624,90.184 132.688,90.12 132.784,90.12 L136.992,90.12 C138.992,90.12 140.464,91.448 140.464,93.368 C140.464,94.792 139.648,95.896 138.4,96.36 L140.688,100.792 C140.752,100.904 140.688,101 140.576,101 Z M136.928,94.904 C137.92,94.904 138.592,94.296 138.592,93.368 C138.592,92.424 137.92,91.816 136.928,91.816 L134.608,91.816 C134.544,91.816 134.512,91.848 134.512,91.912 L134.512,94.808 C134.512,94.872 134.544,94.904 134.608,94.904 L136.928,94.904 Z M145.36,101.176 C143.728,101.176 142.576,100.376 142.144,99.032 C141.984,98.536 141.872,97.944 141.872,97.144 C141.872,96.344 141.968,95.736 142.128,95.24 C142.56,93.896 143.744,93.112 145.28,93.112 C146.864,93.112 148.016,93.928 148.448,95.24 C148.624,95.784 148.704,96.312 148.704,97.56 C148.704,97.656 148.64,97.72 148.528,97.72 L143.776,97.72 C143.712,97.72 143.68,97.752 143.68,97.816 C143.68,98.04 143.728,98.232 143.792,98.408 C144.048,99.16 144.656,99.576 145.52,99.576 C146.384,99.576 146.944,99.256 147.328,98.84 C147.408,98.76 147.488,98.744 147.568,98.808 L148.512,99.64 C148.592,99.704 148.592,99.784 148.528,99.864 C147.872,100.632 146.784,101.176 145.36,101.176 Z M146.896,96.28 C146.896,96.008 146.864,95.816 146.8,95.624 C146.592,95 146.016,94.632 145.296,94.632 C144.56,94.632 143.984,95 143.776,95.624 C143.712,95.816 143.68,96.008 143.68,96.28 C143.68,96.344 143.712,96.376 143.776,96.376 L146.8,96.376 C146.864,96.376 146.896,96.344 146.896,96.28 Z M153.472,101.176 C151.888,101.176 150.8,100.552 150.16,99.96 C150.096,99.896 150.096,99.8 150.16,99.736 L151.072,98.776 C151.136,98.712 151.232,98.712 151.296,98.776 C151.856,99.288 152.752,99.656 153.552,99.656 C154.496,99.656 154.976,99.272 154.976,98.744 C154.976,98.28 154.704,97.992 153.696,97.896 L152.864,97.816 C151.296,97.656 150.496,96.856 150.496,95.544 C150.496,94.056 151.568,93.112 153.488,93.112 C154.688,93.112 155.696,93.512 156.384,94.056 C156.464,94.12 156.464,94.216 156.416,94.28 L155.632,95.224 C155.568,95.304 155.488,95.304 155.408,95.256 C154.928,94.92 154.16,94.616 153.392,94.616 C152.624,94.616 152.224,94.952 152.224,95.416 C152.224,95.864 152.496,96.136 153.488,96.232 L154.32,96.312 C155.936,96.472 156.704,97.304 156.704,98.568 C156.704,100.104 155.584,101.176 153.472,101.176 Z M161.664,101.176 C160.032,101.176 158.88,100.376 158.448,99.032 C158.288,98.536 158.176,97.944 158.176,97.144 C158.176,96.344 158.272,95.736 158.432,95.24 C158.864,93.896 160.048,93.112 161.584,93.112 C163.168,93.112 164.32,93.928 164.752,95.24 C164.928,95.784 165.008,96.312 165.008,97.56 C165.008,97.656 164.944,97.72 164.832,97.72 L160.08,97.72 C160.016,97.72 159.984,97.752 159.984,97.816 C159.984,98.04 160.032,98.232 160.096,98.408 C160.352,99.16 160.96,99.576 161.824,99.576 C162.688,99.576 163.248,99.256 163.632,98.84 C163.712,98.76 163.792,98.744 163.872,98.808 L164.816,99.64 C164.896,99.704 164.896,99.784 164.832,99.864 C164.176,100.632 163.088,101.176 161.664,101.176 Z M163.2,96.28 C163.2,96.008 163.168,95.816 163.104,95.624 C162.896,95 162.32,94.632 161.6,94.632 C160.864,94.632 160.288,95 160.08,95.624 C160.016,95.816 159.984,96.008 159.984,96.28 C159.984,96.344 160.016,96.376 160.08,96.376 L163.104,96.376 C163.168,96.376 163.2,96.344 163.2,96.28 Z M168.56,101 L167.088,101 C166.992,101 166.928,100.936 166.928,100.84 L166.928,93.448 C166.928,93.352 166.992,93.288 167.088,93.288 L168.56,93.288 C168.656,93.288 168.72,93.352 168.72,93.448 L168.72,94.104 L168.736,94.104 C169.104,93.512 169.76,93.112 170.736,93.112 C171.344,93.112 171.952,93.352 172.352,93.752 C172.432,93.832 172.448,93.896 172.384,93.976 L171.536,95.048 C171.472,95.128 171.392,95.144 171.312,95.08 C170.96,94.856 170.592,94.712 170.176,94.712 C169.168,94.712 168.72,95.432 168.72,96.664 L168.72,100.84 C168.72,100.936 168.656,101 168.56,101 Z M177.056,101 L175.776,101 C175.664,101 175.6,100.936 175.568,100.84 L172.848,93.448 C172.816,93.352 172.88,93.288 172.976,93.288 L174.544,93.288 C174.64,93.288 174.704,93.352 174.736,93.448 L176.432,98.456 L176.464,98.456 L178.128,93.448 C178.16,93.352 178.224,93.288 178.32,93.288 L179.856,93.288 C179.952,93.288 180.016,93.352 179.984,93.448 L177.264,100.84 C177.232,100.936 177.168,101 177.056,101 Z M187.392,101 L186.048,101 C185.952,101 185.888,100.936 185.888,100.84 L185.888,100.28 L185.872,100.28 C185.504,100.808 184.784,101.176 183.696,101.176 C182.288,101.176 181.104,100.44 181.104,98.824 C181.104,97.144 182.288,96.376 184.192,96.376 L185.76,96.376 C185.824,96.376 185.856,96.344 185.856,96.28 L185.856,95.912 C185.856,95.032 185.44,94.632 184.144,94.632 C183.28,94.632 182.752,94.872 182.384,95.16 C182.304,95.224 182.208,95.208 182.16,95.128 L181.568,94.072 C181.52,93.992 181.536,93.912 181.6,93.864 C182.224,93.416 183.072,93.112 184.336,93.112 C186.688,93.112 187.552,93.912 187.552,95.8 L187.552,100.84 C187.552,100.936 187.488,101 187.392,101 Z M184.144,99.72 C185.248,99.72 185.856,99.288 185.856,98.408 L185.856,97.816 C185.856,97.752 185.824,97.72 185.76,97.72 L184.48,97.72 C183.328,97.72 182.816,98.04 182.816,98.76 C182.816,99.4 183.28,99.72 184.144,99.72 Z M192.848,101.096 L192.08,101.096 C190.528,101.096 189.936,100.344 189.936,98.84 L189.936,94.776 C189.936,94.712 189.904,94.68 189.84,94.68 L189.328,94.68 C189.232,94.68 189.168,94.616 189.168,94.52 L189.168,93.448 C189.168,93.352 189.232,93.288 189.328,93.288 L189.84,93.288 C189.904,93.288 189.936,93.256 189.936,93.192 L189.936,91.08 C189.936,90.984 190,90.92 190.096,90.92 L191.568,90.92 C191.664,90.92 191.728,90.984 191.728,91.08 L191.728,93.192 C191.728,93.256 191.76,93.288 191.824,93.288 L192.848,93.288 C192.944,93.288 193.008,93.352 193.008,93.448 L193.008,94.52 C193.008,94.616 192.944,94.68 192.848,94.68 L191.824,94.68 C191.76,94.68 191.728,94.712 191.728,94.776 L191.728,98.776 C191.728,99.32 191.952,99.496 192.448,99.496 L192.848,99.496 C192.944,99.496 193.008,99.56 193.008,99.656 L193.008,100.936 C193.008,101.032 192.944,101.096 192.848,101.096 Z M196.592,91.832 L195.12,91.832 C195.024,91.832 194.96,91.768 194.96,91.672 L194.96,90.28 C194.96,90.184 195.024,90.12 195.12,90.12 L196.592,90.12 C196.688,90.12 196.752,90.184 196.752,90.28 L196.752,91.672 C196.752,91.768 196.688,91.832 196.592,91.832 Z M196.592,101 L195.12,101 C195.024,101 194.96,100.936 194.96,100.84 L194.96,93.448 C194.96,93.352 195.024,93.288 195.12,93.288 L196.592,93.288 C196.688,93.288 196.752,93.352 196.752,93.448 L196.752,100.84 C196.752,100.936 196.688,101 196.592,101 Z M202.112,101.176 C200.544,101.176 199.36,100.392 198.928,99.048 C198.752,98.504 198.672,97.992 198.672,97.144 C198.672,96.296 198.752,95.784 198.928,95.24 C199.36,93.896 200.544,93.112 202.112,93.112 C203.664,93.112 204.848,93.896 205.28,95.24 C205.456,95.784 205.536,96.296 205.536,97.144 C205.536,97.992 205.456,98.504 205.28,99.048 C204.848,100.392 203.664,101.176 202.112,101.176 Z M202.112,99.576 C202.832,99.576 203.328,99.208 203.552,98.568 C203.68,98.168 203.712,97.8 203.712,97.144 C203.712,96.488 203.68,96.136 203.552,95.72 C203.328,95.08 202.832,94.712 202.112,94.712 C201.392,94.712 200.88,95.08 200.656,95.72 C200.528,96.136 200.496,96.488 200.496,97.144 C200.496,97.8 200.528,98.168 200.656,98.568 C200.88,99.208 201.392,99.576 202.112,99.576 Z M213.808,101 L212.336,101 C212.24,101 212.176,100.936 212.176,100.84 L212.176,96.392 C212.176,95.4 211.68,94.712 210.72,94.712 C209.792,94.712 209.248,95.4 209.248,96.392 L209.248,100.84 C209.248,100.936 209.184,101 209.088,101 L207.616,101 C207.52,101 207.456,100.936 207.456,100.84 L207.456,93.448 C207.456,93.352 207.52,93.288 207.616,93.288 L209.088,93.288 C209.184,93.288 209.248,93.352 209.248,93.448 L209.248,94.008 L209.264,94.008 C209.6,93.528 210.272,93.112 211.296,93.112 C212.944,93.112 213.968,94.328 213.968,95.976 L213.968,100.84 C213.968,100.936 213.904,101 213.808,101 Z M219.072,101.176 C217.488,101.176 216.4,100.552 215.76,99.96 C215.696,99.896 215.696,99.8 215.76,99.736 L216.672,98.776 C216.736,98.712 216.832,98.712 216.896,98.776 C217.456,99.288 218.352,99.656 219.152,99.656 C220.096,99.656 220.576,99.272 220.576,98.744 C220.576,98.28 220.304,97.992 219.296,97.896 L218.464,97.816 C216.896,97.656 216.096,96.856 216.096,95.544 C216.096,94.056 217.168,93.112 219.088,93.112 C220.288,93.112 221.296,93.512 221.984,94.056 C222.064,94.12 222.064,94.216 222.016,94.28 L221.232,95.224 C221.168,95.304 221.088,95.304 221.008,95.256 C220.528,94.92 219.76,94.616 218.992,94.616 C218.224,94.616 217.824,94.952 217.824,95.416 C217.824,95.864 218.096,96.136 219.088,96.232 L219.92,96.312 C221.536,96.472 222.304,97.304 222.304,98.568 C222.304,100.104 221.184,101.176 219.072,101.176 Z" id="TravelReservations" fill="#333333" fill-rule="nonzero"></path>
                <g id="Message" opacity="0.4" transform="translate(10.000000, 124.000000)" fill="#333333">
                    <rect id="Line-1" x="0" y="0" width="187.356643" height="9.53307393" rx="3"></rect>
                    <rect id="Line-2" x="0" y="21.92607" width="240.615385" height="9.53307393" rx="3"></rect>
                    <rect id="Line-3" x="0" y="43.8521401" width="408" height="9.53307393" rx="3"></rect>
                    <rect id="Line-4" x="0" y="57.1984436" width="93.2027972" height="9.53307393" rx="3"></rect>
                    <rect id="Line-5" x="0" y="79.1245136" width="408" height="9.53307393" rx="3"></rect>
                    <rect id="Line-6" x="0" y="92.4708171" width="149.314685" height="9.53307393" rx="3"></rect>
                    <rect id="Line-7" x="0" y="114.873541" width="408" height="9.53307393" rx="3"></rect>
                    <rect id="Line-8" x="0" y="128.219844" width="264.391608" height="9.53307393" rx="3"></rect>
                    <rect id="Line-9" x="0" y="150.622568" width="233.958042" height="9.53307393" rx="3"></rect>
                    <rect id="Line-10" x="0" y="172.548638" width="400.391608" height="9.53307393" rx="3"></rect>
                    <rect id="Line-11" x="0" y="185.894942" width="408" height="9.53307393" rx="3"></rect>
                    <rect id="Line-12" x="0" y="199.241245" width="154.06993" height="9.53307393" rx="3"></rect>
                    <rect id="Line-13" x="0" y="221.643969" width="408" height="9.53307393" rx="3"></rect>
                    <rect id="Line-14" x="0" y="234.990272" width="264.391608" height="9.53307393" rx="3"></rect>
                </g>
                <g id="Button-Send" transform="translate(9.000000, 397.000000)">
                    <rect id="Rectangle" fill="#4A90E2" x="0" y="0" width="86" height="28" rx="3"></rect>
                    <path d="M32.1167778,18.6195172 C30.7167778,18.6195172 29.3587778,18.0595172 28.6167778,17.3595172 C28.5607778,17.3035172 28.5327778,17.2195172 28.5887778,17.1495172 L29.4567778,16.1415172 C29.5127778,16.0715172 29.5967778,16.0715172 29.6527778,16.1275172 C30.2687778,16.6175172 31.1787778,17.1355172 32.2427778,17.1355172 C33.3767778,17.1355172 34.0347778,16.5615172 34.0347778,15.7635172 C34.0347778,15.0775172 33.6147778,14.6295172 32.2987778,14.4475172 L31.7947778,14.3775172 C29.9607778,14.1255172 28.9247778,13.2435172 28.9247778,11.6615172 C28.9247778,9.93951724 30.1847778,8.79151724 32.1447778,8.79151724 C33.3347778,8.79151724 34.4687778,9.16951724 35.2247778,9.74351724 C35.2947778,9.79951724 35.3087778,9.85551724 35.2527778,9.93951724 L34.5807778,10.9755172 C34.5247778,11.0455172 34.4547778,11.0595172 34.3847778,11.0175172 C33.6147778,10.5135172 32.9007778,10.2755172 32.1027778,10.2755172 C31.1367778,10.2755172 30.6047778,10.8075172 30.6047778,11.5495172 C30.6047778,12.2075172 31.0667778,12.6555172 32.3547778,12.8375172 L32.8587778,12.9075172 C34.6927778,13.1595172 35.7007778,14.0275172 35.7007778,15.6655172 C35.7007778,17.3595172 34.4827778,18.6195172 32.1167778,18.6195172 Z M39.9987778,18.6195172 C38.5707778,18.6195172 37.5627778,17.9195172 37.1847778,16.7435172 C37.0447778,16.3095172 36.9467778,15.7915172 36.9467778,15.0915172 C36.9467778,14.3915172 37.0307778,13.8595172 37.1707778,13.4255172 C37.5487778,12.2495172 38.5847778,11.5635172 39.9287778,11.5635172 C41.3147778,11.5635172 42.3227778,12.2775172 42.7007778,13.4255172 C42.8547778,13.9015172 42.9247778,14.3635172 42.9247778,15.4555172 C42.9247778,15.5395172 42.8687778,15.5955172 42.7707778,15.5955172 L38.6127778,15.5955172 C38.5567778,15.5955172 38.5287778,15.6235172 38.5287778,15.6795172 C38.5287778,15.8755172 38.5707778,16.0435172 38.6267778,16.1975172 C38.8507778,16.8555172 39.3827778,17.2195172 40.1387778,17.2195172 C40.8947778,17.2195172 41.3847778,16.9395172 41.7207778,16.5755172 C41.7907778,16.5055172 41.8607778,16.4915172 41.9307778,16.5475172 L42.7567778,17.2755172 C42.8267778,17.3315172 42.8267778,17.4015172 42.7707778,17.4715172 C42.1967778,18.1435172 41.2447778,18.6195172 39.9987778,18.6195172 Z M41.3427778,14.3355172 C41.3427778,14.0975172 41.3147778,13.9295172 41.2587778,13.7615172 C41.0767778,13.2155172 40.5727778,12.8935172 39.9427778,12.8935172 C39.2987778,12.8935172 38.7947778,13.2155172 38.6127778,13.7615172 C38.5567778,13.9295172 38.5287778,14.0975172 38.5287778,14.3355172 C38.5287778,14.3915172 38.5567778,14.4195172 38.6127778,14.4195172 L41.2587778,14.4195172 C41.3147778,14.4195172 41.3427778,14.3915172 41.3427778,14.3355172 Z M50.1627778,18.4655172 L48.8747778,18.4655172 C48.7907778,18.4655172 48.7347778,18.4095172 48.7347778,18.3255172 L48.7347778,14.4335172 C48.7347778,13.5655172 48.3007778,12.9635172 47.4607778,12.9635172 C46.6487778,12.9635172 46.1727778,13.5655172 46.1727778,14.4335172 L46.1727778,18.3255172 C46.1727778,18.4095172 46.1167778,18.4655172 46.0327778,18.4655172 L44.7447778,18.4655172 C44.6607778,18.4655172 44.6047778,18.4095172 44.6047778,18.3255172 L44.6047778,11.8575172 C44.6047778,11.7735172 44.6607778,11.7175172 44.7447778,11.7175172 L46.0327778,11.7175172 C46.1167778,11.7175172 46.1727778,11.7735172 46.1727778,11.8575172 L46.1727778,12.3475172 L46.1867778,12.3475172 C46.4807778,11.9275172 47.0687778,11.5635172 47.9647778,11.5635172 C49.4067778,11.5635172 50.3027778,12.6275172 50.3027778,14.0695172 L50.3027778,18.3255172 C50.3027778,18.4095172 50.2467778,18.4655172 50.1627778,18.4655172 Z M57.7227778,18.4655172 L56.4347778,18.4655172 C56.3507778,18.4655172 56.2947778,18.4095172 56.2947778,18.3255172 L56.2947778,17.8215172 L56.2807778,17.8215172 C55.9587778,18.2835172 55.3987778,18.6195172 54.4887778,18.6195172 C53.3407778,18.6195172 52.5007778,18.0735172 52.1507778,16.9955172 C51.9827778,16.4775172 51.9127778,16.0015172 51.9127778,15.0915172 C51.9127778,14.1815172 51.9827778,13.7055172 52.1507778,13.1875172 C52.5007778,12.1095172 53.3407778,11.5635172 54.4887778,11.5635172 C55.3987778,11.5635172 55.9587778,11.8995172 56.2807778,12.3615172 L56.2947778,12.3615172 L56.2947778,9.08551724 C56.2947778,9.00151724 56.3507778,8.94551724 56.4347778,8.94551724 L57.7227778,8.94551724 C57.8067778,8.94551724 57.8627778,9.00151724 57.8627778,9.08551724 L57.8627778,18.3255172 C57.8627778,18.4095172 57.8067778,18.4655172 57.7227778,18.4655172 Z M54.8947778,17.2195172 C55.5387778,17.2195172 55.9727778,16.9115172 56.1547778,16.3515172 C56.2527778,16.0435172 56.2947778,15.7075172 56.2947778,15.0915172 C56.2947778,14.4755172 56.2527778,14.1395172 56.1547778,13.8315172 C55.9727778,13.2715172 55.5387778,12.9635172 54.8947778,12.9635172 C54.2647778,12.9635172 53.8307778,13.2715172 53.6487778,13.8315172 C53.5507778,14.1395172 53.5087778,14.4755172 53.5087778,15.0915172 C53.5087778,15.7075172 53.5507778,16.0435172 53.6487778,16.3515172 C53.8307778,16.9115172 54.2647778,17.2195172 54.8947778,17.2195172 Z" id="Send" fill="#FFFFFF" fill-rule="nonzero"></path>
                </g>
                <g id="Icon-Delete" transform="translate(424.000000, 397.000000)">
                    <polygon id="Path" points="0 0 23 0 23 23 0 23"></polygon>
                    <path d="M5.75,20.125 L17.25,20.125 L17.25,6.70833333 L5.75,6.70833333 L5.75,20.125 Z M18.2083333,3.83333333 L14.8541667,3.83333333 L13.8958333,2.875 L9.10416667,2.875 L8.14583333,3.83333333 L4.79166667,3.83333333 L4.79166667,5.75 L18.2083333,5.75 L18.2083333,3.83333333 Z" id="Shape" fill="#999999" fill-rule="nonzero"></path>
                </g>
            </g>
        </g>
    </g>
</svg>