<?xml version="1.0" encoding="UTF-8"?>
<svg width="892px" height="105px" viewBox="0 0 892 105" version="1.1" xmlns="http://www.w3.org/2000/svg" xmlns:xlink="http://www.w3.org/1999/xlink">
    <!-- Generator: Sketch 53.2 (72643) - https://sketchapp.com -->
    <title>Hotel NLP Box</title>
    <desc>Created with Sketch.</desc>
    <g id="Website-Animations" stroke="none" stroke-width="1" fill="none" fill-rule="evenodd">
        <g id="Hotel-Text-Outline" transform="translate(-101.000000, -89.000000)">
            <g id="Hotel-NLP-Box" transform="translate(101.000000, 89.000000)">
                <rect id="Airline-Text-Input" stroke="#E5E5E5" fill="#FFFFFF" x="0.5" y="0.5" width="891" height="104"></rect>
                <path d="M27.54,42.252 C25.044,42.252 22.626,41.238 21.326,40.042 C21.222,39.938 21.196,39.782 21.3,39.652 L22.444,38.3 C22.548,38.17 22.678,38.17 22.808,38.274 C23.952,39.184 25.72,40.094 27.748,40.094 C30.192,40.094 31.648,38.872 31.648,37.078 C31.648,35.57 30.79,34.556 27.956,34.192 L27.072,34.062 C23.64,33.594 21.872,31.956 21.872,29.174 C21.872,26.028 24.134,24 27.644,24 C29.724,24 31.726,24.676 33.026,25.638 C33.156,25.742 33.182,25.872 33.078,26.002 L32.194,27.432 C32.09,27.562 31.96,27.562 31.83,27.484 C30.4,26.6 29.074,26.158 27.566,26.158 C25.408,26.158 24.212,27.328 24.212,29.018 C24.212,30.5 25.2,31.488 27.93,31.852 L28.788,31.982 C32.246,32.45 33.988,34.036 33.988,36.922 C33.988,40.016 31.804,42.252 27.54,42.252 Z M42.074,42.096 L41.112,42.096 C38.694,42.096 37.758,41.004 37.758,38.56 L37.758,31.436 C37.758,31.332 37.706,31.28 37.602,31.28 L36.562,31.28 C36.406,31.28 36.302,31.176 36.302,31.02 L36.302,29.772 C36.302,29.616 36.406,29.512 36.562,29.512 L37.602,29.512 C37.706,29.512 37.758,29.46 37.758,29.356 L37.758,25.846 C37.758,25.69 37.862,25.586 38.018,25.586 L39.682,25.586 C39.838,25.586 39.942,25.69 39.942,25.846 L39.942,29.356 C39.942,29.46 39.994,29.512 40.098,29.512 L42.074,29.512 C42.23,29.512 42.334,29.616 42.334,29.772 L42.334,31.02 C42.334,31.176 42.23,31.28 42.074,31.28 L40.098,31.28 C39.994,31.28 39.942,31.332 39.942,31.436 L39.942,38.482 C39.942,39.73 40.41,40.068 41.528,40.068 L42.074,40.068 C42.23,40.068 42.334,40.172 42.334,40.328 L42.334,41.836 C42.334,41.992 42.23,42.096 42.074,42.096 Z M54.788,41.966 L53.254,41.966 C53.098,41.966 52.994,41.862 52.994,41.706 L52.994,40.614 L52.968,40.614 C52.396,41.55 51.174,42.252 49.276,42.252 C46.91,42.252 45.09,41.03 45.09,38.508 C45.09,35.882 46.91,34.66 49.952,34.66 L52.786,34.66 C52.89,34.66 52.942,34.608 52.942,34.504 L52.942,33.594 C52.942,31.878 52.266,31.15 49.952,31.15 C48.548,31.15 47.664,31.514 46.936,32.034 C46.806,32.138 46.65,32.138 46.572,32.008 L45.87,30.812 C45.792,30.656 45.818,30.552 45.922,30.448 C46.858,29.72 48.314,29.226 50.16,29.226 C53.696,29.226 55.048,30.396 55.048,33.464 L55.048,41.706 C55.048,41.862 54.944,41.966 54.788,41.966 Z M49.796,40.38 C51.746,40.38 52.942,39.47 52.942,37.936 L52.942,36.558 C52.942,36.454 52.89,36.402 52.786,36.402 L50.29,36.402 C48.132,36.402 47.196,37.026 47.196,38.43 C47.196,39.704 48.132,40.38 49.796,40.38 Z M59.884,46.646 L59.208,46.646 C59.052,46.646 58.948,46.542 58.948,46.386 L58.948,44.878 C58.948,44.722 59.052,44.618 59.208,44.618 L59.676,44.618 C60.69,44.618 61.236,44.176 61.782,42.746 L62.198,41.602 L57.622,29.772 C57.57,29.616 57.648,29.512 57.83,29.512 L59.65,29.512 C59.806,29.512 59.91,29.59 59.962,29.772 L63.238,38.768 L63.29,38.768 L66.436,29.772 C66.488,29.59 66.592,29.512 66.748,29.512 L68.516,29.512 C68.672,29.512 68.776,29.616 68.724,29.772 L63.81,42.928 C62.718,45.866 61.756,46.646 59.884,46.646 Z M79.722,26.704 L77.954,26.704 C77.798,26.704 77.694,26.6 77.694,26.444 L77.694,24.546 C77.694,24.39 77.798,24.286 77.954,24.286 L79.722,24.286 C79.878,24.286 79.982,24.39 79.982,24.546 L79.982,26.444 C79.982,26.6 79.878,26.704 79.722,26.704 Z M79.67,41.966 L78.006,41.966 C77.85,41.966 77.746,41.862 77.746,41.706 L77.746,29.772 C77.746,29.616 77.85,29.512 78.006,29.512 L79.67,29.512 C79.826,29.512 79.93,29.616 79.93,29.772 L79.93,41.706 C79.93,41.862 79.826,41.966 79.67,41.966 Z M93.944,41.966 L92.28,41.966 C92.124,41.966 92.02,41.862 92.02,41.706 L92.02,34.426 C92.02,32.424 91.11,31.254 89.238,31.254 C87.548,31.254 86.378,32.45 86.378,34.296 L86.378,41.706 C86.378,41.862 86.274,41.966 86.118,41.966 L84.454,41.966 C84.298,41.966 84.194,41.862 84.194,41.706 L84.194,29.772 C84.194,29.616 84.298,29.512 84.454,29.512 L86.118,29.512 C86.274,29.512 86.378,29.616 86.378,29.772 L86.378,30.916 L86.404,30.916 C87.002,29.954 88.198,29.226 89.888,29.226 C92.592,29.226 94.204,31.072 94.204,33.906 L94.204,41.706 C94.204,41.862 94.1,41.966 93.944,41.966 Z M110.038,41.966 L108.244,41.966 C108.088,41.966 107.984,41.862 107.984,41.706 L107.984,26.6 C107.984,26.496 107.932,26.444 107.828,26.444 L102.992,26.444 C102.836,26.444 102.732,26.34 102.732,26.184 L102.732,24.546 C102.732,24.39 102.836,24.286 102.992,24.286 L115.29,24.286 C115.446,24.286 115.55,24.39 115.55,24.546 L115.55,26.184 C115.55,26.34 115.446,26.444 115.29,26.444 L110.454,26.444 C110.35,26.444 110.298,26.496 110.298,26.6 L110.298,41.706 C110.298,41.862 110.194,41.966 110.038,41.966 Z M121.114,42.252 C118.696,42.252 116.876,41.004 116.2,38.898 C115.914,38.04 115.784,37.182 115.784,35.726 C115.784,34.296 115.914,33.438 116.2,32.58 C116.876,30.448 118.696,29.226 121.114,29.226 C123.532,29.226 125.352,30.448 126.028,32.58 C126.314,33.438 126.444,34.296 126.444,35.726 C126.444,37.182 126.314,38.04 126.028,38.898 C125.352,41.004 123.532,42.252 121.114,42.252 Z M121.114,40.224 C122.492,40.224 123.506,39.522 123.922,38.274 C124.13,37.598 124.208,36.922 124.208,35.726 C124.208,34.53 124.13,33.88 123.922,33.204 C123.506,31.956 122.492,31.254 121.114,31.254 C119.736,31.254 118.722,31.956 118.306,33.204 C118.098,33.88 118.02,34.53 118.02,35.726 C118.02,36.922 118.098,37.598 118.306,38.274 C118.722,39.522 119.736,40.224 121.114,40.224 Z M131.878,41.966 L130.214,41.966 C130.058,41.966 129.954,41.862 129.954,41.706 L129.954,29.772 C129.954,29.616 130.058,29.512 130.214,29.512 L131.878,29.512 C132.034,29.512 132.138,29.616 132.138,29.772 L132.138,31.046 L132.164,31.046 C132.71,29.98 133.802,29.226 135.466,29.226 C136.454,29.226 137.39,29.59 138.014,30.162 C138.144,30.292 138.17,30.396 138.066,30.526 L137.104,31.8 C137,31.93 136.87,31.956 136.74,31.852 C136.168,31.488 135.544,31.254 134.816,31.254 C132.918,31.254 132.138,32.736 132.138,34.894 L132.138,41.706 C132.138,41.862 132.034,41.966 131.878,41.966 Z M144.722,42.252 C142.304,42.252 140.484,41.004 139.808,38.898 C139.522,38.04 139.392,37.182 139.392,35.726 C139.392,34.296 139.522,33.438 139.808,32.58 C140.484,30.448 142.304,29.226 144.722,29.226 C147.14,29.226 148.96,30.448 149.636,32.58 C149.922,33.438 150.052,34.296 150.052,35.726 C150.052,37.182 149.922,38.04 149.636,38.898 C148.96,41.004 147.14,42.252 144.722,42.252 Z M144.722,40.224 C146.1,40.224 147.114,39.522 147.53,38.274 C147.738,37.598 147.816,36.922 147.816,35.726 C147.816,34.53 147.738,33.88 147.53,33.204 C147.114,31.956 146.1,31.254 144.722,31.254 C143.344,31.254 142.33,31.956 141.914,33.204 C141.706,33.88 141.628,34.53 141.628,35.726 C141.628,36.922 141.706,37.598 141.914,38.274 C142.33,39.522 143.344,40.224 144.722,40.224 Z M163.312,41.966 L161.648,41.966 C161.492,41.966 161.388,41.862 161.388,41.706 L161.388,34.426 C161.388,32.424 160.478,31.254 158.606,31.254 C156.916,31.254 155.746,32.45 155.746,34.296 L155.746,41.706 C155.746,41.862 155.642,41.966 155.486,41.966 L153.822,41.966 C153.666,41.966 153.562,41.862 153.562,41.706 L153.562,29.772 C153.562,29.616 153.666,29.512 153.822,29.512 L155.486,29.512 C155.642,29.512 155.746,29.616 155.746,29.772 L155.746,30.916 L155.772,30.916 C156.37,29.954 157.566,29.226 159.256,29.226 C161.96,29.226 163.572,31.072 163.572,33.906 L163.572,41.706 C163.572,41.862 163.468,41.966 163.312,41.966 Z M172.282,42.096 L171.32,42.096 C168.902,42.096 167.966,41.004 167.966,38.56 L167.966,31.436 C167.966,31.332 167.914,31.28 167.81,31.28 L166.77,31.28 C166.614,31.28 166.51,31.176 166.51,31.02 L166.51,29.772 C166.51,29.616 166.614,29.512 166.77,29.512 L167.81,29.512 C167.914,29.512 167.966,29.46 167.966,29.356 L167.966,25.846 C167.966,25.69 168.07,25.586 168.226,25.586 L169.89,25.586 C170.046,25.586 170.15,25.69 170.15,25.846 L170.15,29.356 C170.15,29.46 170.202,29.512 170.306,29.512 L172.282,29.512 C172.438,29.512 172.542,29.616 172.542,29.772 L172.542,31.02 C172.542,31.176 172.438,31.28 172.282,31.28 L170.306,31.28 C170.202,31.28 170.15,31.332 170.15,31.436 L170.15,38.482 C170.15,39.73 170.618,40.068 171.736,40.068 L172.282,40.068 C172.438,40.068 172.542,40.172 172.542,40.328 L172.542,41.836 C172.542,41.992 172.438,42.096 172.282,42.096 Z M180.498,42.252 C178.08,42.252 176.26,41.004 175.584,38.898 C175.298,38.04 175.168,37.182 175.168,35.726 C175.168,34.296 175.298,33.438 175.584,32.58 C176.26,30.448 178.08,29.226 180.498,29.226 C182.916,29.226 184.736,30.448 185.412,32.58 C185.698,33.438 185.828,34.296 185.828,35.726 C185.828,37.182 185.698,38.04 185.412,38.898 C184.736,41.004 182.916,42.252 180.498,42.252 Z M180.498,40.224 C181.876,40.224 182.89,39.522 183.306,38.274 C183.514,37.598 183.592,36.922 183.592,35.726 C183.592,34.53 183.514,33.88 183.306,33.204 C182.89,31.956 181.876,31.254 180.498,31.254 C179.12,31.254 178.106,31.956 177.69,33.204 C177.482,33.88 177.404,34.53 177.404,35.726 C177.404,36.922 177.482,37.598 177.69,38.274 C178.106,39.522 179.12,40.224 180.498,40.224 Z M197.918,41.966 L196.254,41.966 C196.098,41.966 195.994,41.862 195.994,41.706 L195.994,31.436 C195.994,31.332 195.942,31.28 195.838,31.28 L194.772,31.28 C194.616,31.28 194.512,31.176 194.512,31.02 L194.512,29.772 C194.512,29.616 194.616,29.512 194.772,29.512 L195.838,29.512 C195.942,29.512 195.994,29.46 195.994,29.356 L195.994,28.29 C195.994,25.352 197.19,24.286 199.79,24.286 L200.752,24.286 C200.908,24.286 201.012,24.39 201.012,24.546 L201.012,26.054 C201.012,26.21 200.908,26.314 200.752,26.314 L200.076,26.314 C198.49,26.314 198.178,26.652 198.178,28.186 L198.178,29.356 C198.178,29.46 198.23,29.512 198.334,29.512 L200.752,29.512 C200.908,29.512 201.012,29.616 201.012,29.772 L201.012,31.02 C201.012,31.176 200.908,31.28 200.752,31.28 L198.334,31.28 C198.23,31.28 198.178,31.332 198.178,31.436 L198.178,41.706 C198.178,41.862 198.074,41.966 197.918,41.966 Z M205.77,41.966 L204.106,41.966 C203.95,41.966 203.846,41.862 203.846,41.706 L203.846,29.772 C203.846,29.616 203.95,29.512 204.106,29.512 L205.77,29.512 C205.926,29.512 206.03,29.616 206.03,29.772 L206.03,31.046 L206.056,31.046 C206.602,29.98 207.694,29.226 209.358,29.226 C210.346,29.226 211.282,29.59 211.906,30.162 C212.036,30.292 212.062,30.396 211.958,30.526 L210.996,31.8 C210.892,31.93 210.762,31.956 210.632,31.852 C210.06,31.488 209.436,31.254 208.708,31.254 C206.81,31.254 206.03,32.736 206.03,34.894 L206.03,41.706 C206.03,41.862 205.926,41.966 205.77,41.966 Z M218.614,42.252 C216.196,42.252 214.376,41.004 213.7,38.898 C213.414,38.04 213.284,37.182 213.284,35.726 C213.284,34.296 213.414,33.438 213.7,32.58 C214.376,30.448 216.196,29.226 218.614,29.226 C221.032,29.226 222.852,30.448 223.528,32.58 C223.814,33.438 223.944,34.296 223.944,35.726 C223.944,37.182 223.814,38.04 223.528,38.898 C222.852,41.004 221.032,42.252 218.614,42.252 Z M218.614,40.224 C219.992,40.224 221.006,39.522 221.422,38.274 C221.63,37.598 221.708,36.922 221.708,35.726 C221.708,34.53 221.63,33.88 221.422,33.204 C221.006,31.956 219.992,31.254 218.614,31.254 C217.236,31.254 216.222,31.956 215.806,33.204 C215.598,33.88 215.52,34.53 215.52,35.726 C215.52,36.922 215.598,37.598 215.806,38.274 C216.222,39.522 217.236,40.224 218.614,40.224 Z M245.03,41.966 L243.366,41.966 C243.21,41.966 243.106,41.862 243.106,41.706 L243.106,34.426 C243.106,32.424 242.196,31.254 240.324,31.254 C238.66,31.254 237.464,32.45 237.464,34.296 L237.464,41.706 C237.464,41.862 237.36,41.966 237.204,41.966 L235.54,41.966 C235.384,41.966 235.28,41.862 235.28,41.706 L235.28,34.426 C235.28,32.424 234.37,31.254 232.498,31.254 C230.808,31.254 229.638,32.45 229.638,34.296 L229.638,41.706 C229.638,41.862 229.534,41.966 229.378,41.966 L227.714,41.966 C227.558,41.966 227.454,41.862 227.454,41.706 L227.454,29.772 C227.454,29.616 227.558,29.512 227.714,29.512 L229.378,29.512 C229.534,29.512 229.638,29.616 229.638,29.772 L229.638,30.916 L229.664,30.916 C230.262,29.954 231.458,29.226 233.148,29.226 C234.838,29.226 236.086,29.928 236.788,31.176 L236.814,31.176 C237.672,29.98 238.946,29.226 240.844,29.226 C243.73,29.226 245.29,31.072 245.29,33.906 L245.29,41.706 C245.29,41.862 245.186,41.966 245.03,41.966 Z M254.39,40.432 C254.286,40.328 254.286,40.172 254.39,40.068 L255.69,38.95 C255.82,38.846 255.95,38.872 256.08,39.002 C256.626,39.522 257.562,40.094 258.654,40.094 C260.708,40.094 261.93,38.898 261.93,36.298 L261.93,24.546 C261.93,24.39 262.034,24.286 262.19,24.286 L263.984,24.286 C264.14,24.286 264.244,24.39 264.244,24.546 L264.244,36.298 C264.244,40.224 262.034,42.252 258.576,42.252 C256.86,42.252 255.248,41.472 254.39,40.432 Z M277.92,41.966 L276.256,41.966 C276.1,41.966 275.996,41.862 275.996,41.706 L275.996,40.536 L275.97,40.536 C275.32,41.576 274.176,42.252 272.564,42.252 C269.834,42.252 268.248,40.38 268.248,37.546 L268.248,29.772 C268.248,29.616 268.352,29.512 268.508,29.512 L270.172,29.512 C270.328,29.512 270.432,29.616 270.432,29.772 L270.432,37.026 C270.432,39.054 271.342,40.224 273.188,40.224 C274.878,40.224 275.996,39.028 275.996,37.156 L275.996,29.772 C275.996,29.616 276.1,29.512 276.256,29.512 L277.92,29.512 C278.076,29.512 278.18,29.616 278.18,29.772 L278.18,41.706 C278.18,41.862 278.076,41.966 277.92,41.966 Z M292.194,41.966 L290.53,41.966 C290.374,41.966 290.27,41.862 290.27,41.706 L290.27,34.426 C290.27,32.424 289.36,31.254 287.488,31.254 C285.798,31.254 284.628,32.45 284.628,34.296 L284.628,41.706 C284.628,41.862 284.524,41.966 284.368,41.966 L282.704,41.966 C282.548,41.966 282.444,41.862 282.444,41.706 L282.444,29.772 C282.444,29.616 282.548,29.512 282.704,29.512 L284.368,29.512 C284.524,29.512 284.628,29.616 284.628,29.772 L284.628,30.916 L284.654,30.916 C285.252,29.954 286.448,29.226 288.138,29.226 C290.842,29.226 292.454,31.072 292.454,33.906 L292.454,41.706 C292.454,41.862 292.35,41.966 292.194,41.966 Z M301.242,42.252 C298.72,42.252 296.926,41.03 296.25,38.872 C295.99,38.066 295.834,37.156 295.834,35.726 C295.834,34.296 295.964,33.334 296.224,32.58 C296.926,30.422 298.746,29.226 301.112,29.226 C303.504,29.226 305.298,30.448 306,32.58 C306.26,33.386 306.39,34.244 306.39,36.142 C306.39,36.298 306.286,36.402 306.104,36.402 L298.226,36.402 C298.122,36.402 298.07,36.454 298.07,36.558 C298.07,37.234 298.148,37.65 298.278,38.066 C298.772,39.496 299.89,40.224 301.424,40.224 C302.906,40.224 303.946,39.626 304.622,38.846 C304.752,38.716 304.882,38.69 305.012,38.794 L306.078,39.756 C306.208,39.86 306.208,39.99 306.104,40.12 C305.116,41.368 303.426,42.252 301.242,42.252 Z M298.226,34.66 L303.998,34.66 C304.102,34.66 304.154,34.608 304.154,34.504 C304.154,33.932 304.102,33.49 303.972,33.1 C303.556,31.852 302.516,31.15 301.112,31.15 C299.708,31.15 298.668,31.852 298.252,33.1 C298.122,33.49 298.07,33.932 298.07,34.504 C298.07,34.608 298.122,34.66 298.226,34.66 Z M317.83,41.68 L323.862,26.392 L323.862,26.314 L318.48,26.314 C318.376,26.314 318.324,26.366 318.324,26.47 L318.324,28.68 C318.324,28.836 318.22,28.94 318.064,28.94 L316.504,28.94 C316.348,28.94 316.244,28.836 316.244,28.68 L316.244,24.546 C316.244,24.39 316.348,24.286 316.504,24.286 L325.942,24.286 C326.098,24.286 326.202,24.39 326.202,24.546 L326.202,26.158 C326.202,26.262 326.176,26.34 326.15,26.418 L320.066,41.732 C319.988,41.914 319.936,41.966 319.728,41.966 L317.986,41.966 C317.83,41.966 317.752,41.862 317.83,41.68 Z M341.048,42.096 L340.086,42.096 C337.668,42.096 336.732,41.004 336.732,38.56 L336.732,31.436 C336.732,31.332 336.68,31.28 336.576,31.28 L335.536,31.28 C335.38,31.28 335.276,31.176 335.276,31.02 L335.276,29.772 C335.276,29.616 335.38,29.512 335.536,29.512 L336.576,29.512 C336.68,29.512 336.732,29.46 336.732,29.356 L336.732,25.846 C336.732,25.69 336.836,25.586 336.992,25.586 L338.656,25.586 C338.812,25.586 338.916,25.69 338.916,25.846 L338.916,29.356 C338.916,29.46 338.968,29.512 339.072,29.512 L341.048,29.512 C341.204,29.512 341.308,29.616 341.308,29.772 L341.308,31.02 C341.308,31.176 341.204,31.28 341.048,31.28 L339.072,31.28 C338.968,31.28 338.916,31.332 338.916,31.436 L338.916,38.482 C338.916,39.73 339.384,40.068 340.502,40.068 L341.048,40.068 C341.204,40.068 341.308,40.172 341.308,40.328 L341.308,41.836 C341.308,41.992 341.204,42.096 341.048,42.096 Z M349.264,42.252 C346.846,42.252 345.026,41.004 344.35,38.898 C344.064,38.04 343.934,37.182 343.934,35.726 C343.934,34.296 344.064,33.438 344.35,32.58 C345.026,30.448 346.846,29.226 349.264,29.226 C351.682,29.226 353.502,30.448 354.178,32.58 C354.464,33.438 354.594,34.296 354.594,35.726 C354.594,37.182 354.464,38.04 354.178,38.898 C353.502,41.004 351.682,42.252 349.264,42.252 Z M349.264,40.224 C350.642,40.224 351.656,39.522 352.072,38.274 C352.28,37.598 352.358,36.922 352.358,35.726 C352.358,34.53 352.28,33.88 352.072,33.204 C351.656,31.956 350.642,31.254 349.264,31.254 C347.886,31.254 346.872,31.956 346.456,33.204 C346.248,33.88 346.17,34.53 346.17,35.726 C346.17,36.922 346.248,37.598 346.456,38.274 C346.872,39.522 347.886,40.224 349.264,40.224 Z M363.07,40.432 C362.966,40.328 362.966,40.172 363.07,40.068 L364.37,38.95 C364.5,38.846 364.63,38.872 364.76,39.002 C365.306,39.522 366.242,40.094 367.334,40.094 C369.388,40.094 370.61,38.898 370.61,36.298 L370.61,24.546 C370.61,24.39 370.714,24.286 370.87,24.286 L372.664,24.286 C372.82,24.286 372.924,24.39 372.924,24.546 L372.924,36.298 C372.924,40.224 370.714,42.252 367.256,42.252 C365.54,42.252 363.928,41.472 363.07,40.432 Z M386.6,41.966 L384.936,41.966 C384.78,41.966 384.676,41.862 384.676,41.706 L384.676,40.536 L384.65,40.536 C384,41.576 382.856,42.252 381.244,42.252 C378.514,42.252 376.928,40.38 376.928,37.546 L376.928,29.772 C376.928,29.616 377.032,29.512 377.188,29.512 L378.852,29.512 C379.008,29.512 379.112,29.616 379.112,29.772 L379.112,37.026 C379.112,39.054 380.022,40.224 381.868,40.224 C383.558,40.224 384.676,39.028 384.676,37.156 L384.676,29.772 C384.676,29.616 384.78,29.512 384.936,29.512 L386.6,29.512 C386.756,29.512 386.86,29.616 386.86,29.772 L386.86,41.706 C386.86,41.862 386.756,41.966 386.6,41.966 Z M400.874,41.966 L399.21,41.966 C399.054,41.966 398.95,41.862 398.95,41.706 L398.95,34.426 C398.95,32.424 398.04,31.254 396.168,31.254 C394.478,31.254 393.308,32.45 393.308,34.296 L393.308,41.706 C393.308,41.862 393.204,41.966 393.048,41.966 L391.384,41.966 C391.228,41.966 391.124,41.862 391.124,41.706 L391.124,29.772 C391.124,29.616 391.228,29.512 391.384,29.512 L393.048,29.512 C393.204,29.512 393.308,29.616 393.308,29.772 L393.308,30.916 L393.334,30.916 C393.932,29.954 395.128,29.226 396.818,29.226 C399.522,29.226 401.134,31.072 401.134,33.906 L401.134,41.706 C401.134,41.862 401.03,41.966 400.874,41.966 Z M409.922,42.252 C407.4,42.252 405.606,41.03 404.93,38.872 C404.67,38.066 404.514,37.156 404.514,35.726 C404.514,34.296 404.644,33.334 404.904,32.58 C405.606,30.422 407.426,29.226 409.792,29.226 C412.184,29.226 413.978,30.448 414.68,32.58 C414.94,33.386 415.07,34.244 415.07,36.142 C415.07,36.298 414.966,36.402 414.784,36.402 L406.906,36.402 C406.802,36.402 406.75,36.454 406.75,36.558 C406.75,37.234 406.828,37.65 406.958,38.066 C407.452,39.496 408.57,40.224 410.104,40.224 C411.586,40.224 412.626,39.626 413.302,38.846 C413.432,38.716 413.562,38.69 413.692,38.794 L414.758,39.756 C414.888,39.86 414.888,39.99 414.784,40.12 C413.796,41.368 412.106,42.252 409.922,42.252 Z M406.906,34.66 L412.678,34.66 C412.782,34.66 412.834,34.608 412.834,34.504 C412.834,33.932 412.782,33.49 412.652,33.1 C412.236,31.852 411.196,31.15 409.792,31.15 C408.388,31.15 407.348,31.852 406.932,33.1 C406.802,33.49 406.75,33.932 406.75,34.504 C406.75,34.608 406.802,34.66 406.906,34.66 Z M427.212,41.706 L431.164,34.374 L431.112,34.322 C430.774,34.556 430.072,34.738 429.318,34.738 C426.536,34.738 424.3,32.71 424.3,29.486 C424.3,26.028 426.666,24 429.734,24 C432.828,24 435.142,26.028 435.142,29.408 C435.142,30.812 434.648,32.19 433.972,33.438 L429.474,41.784 C429.396,41.94 429.318,41.966 429.136,41.966 L427.368,41.966 C427.186,41.966 427.134,41.862 427.212,41.706 Z M429.734,32.71 C431.658,32.71 432.906,31.358 432.906,29.382 C432.906,27.406 431.658,26.028 429.734,26.028 C427.81,26.028 426.536,27.406 426.536,29.382 C426.536,31.358 427.81,32.71 429.734,32.71 Z M454.226,41.966 L452.692,41.966 C452.536,41.966 452.432,41.862 452.432,41.706 L452.432,40.614 L452.406,40.614 C451.834,41.55 450.612,42.252 448.714,42.252 C446.348,42.252 444.528,41.03 444.528,38.508 C444.528,35.882 446.348,34.66 449.39,34.66 L452.224,34.66 C452.328,34.66 452.38,34.608 452.38,34.504 L452.38,33.594 C452.38,31.878 451.704,31.15 449.39,31.15 C447.986,31.15 447.102,31.514 446.374,32.034 C446.244,32.138 446.088,32.138 446.01,32.008 L445.308,30.812 C445.23,30.656 445.256,30.552 445.36,30.448 C446.296,29.72 447.752,29.226 449.598,29.226 C453.134,29.226 454.486,30.396 454.486,33.464 L454.486,41.706 C454.486,41.862 454.382,41.966 454.226,41.966 Z M449.234,40.38 C451.184,40.38 452.38,39.47 452.38,37.936 L452.38,36.558 C452.38,36.454 452.328,36.402 452.224,36.402 L449.728,36.402 C447.57,36.402 446.634,37.026 446.634,38.43 C446.634,39.704 447.57,40.38 449.234,40.38 Z M463.222,42.096 L462.26,42.096 C459.842,42.096 458.906,41.004 458.906,38.56 L458.906,31.436 C458.906,31.332 458.854,31.28 458.75,31.28 L457.71,31.28 C457.554,31.28 457.45,31.176 457.45,31.02 L457.45,29.772 C457.45,29.616 457.554,29.512 457.71,29.512 L458.75,29.512 C458.854,29.512 458.906,29.46 458.906,29.356 L458.906,25.846 C458.906,25.69 459.01,25.586 459.166,25.586 L460.83,25.586 C460.986,25.586 461.09,25.69 461.09,25.846 L461.09,29.356 C461.09,29.46 461.142,29.512 461.246,29.512 L463.222,29.512 C463.378,29.512 463.482,29.616 463.482,29.772 L463.482,31.02 C463.482,31.176 463.378,31.28 463.222,31.28 L461.246,31.28 C461.142,31.28 461.09,31.332 461.09,31.436 L461.09,38.482 C461.09,39.73 461.558,40.068 462.676,40.068 L463.222,40.068 C463.378,40.068 463.482,40.172 463.482,40.328 L463.482,41.836 C463.482,41.992 463.378,42.096 463.222,42.096 Z M482.176,41.966 L480.642,41.966 C480.486,41.966 480.382,41.862 480.382,41.706 L480.382,40.614 L480.356,40.614 C479.784,41.55 478.562,42.252 476.664,42.252 C474.298,42.252 472.478,41.03 472.478,38.508 C472.478,35.882 474.298,34.66 477.34,34.66 L480.174,34.66 C480.278,34.66 480.33,34.608 480.33,34.504 L480.33,33.594 C480.33,31.878 479.654,31.15 477.34,31.15 C475.936,31.15 475.052,31.514 474.324,32.034 C474.194,32.138 474.038,32.138 473.96,32.008 L473.258,30.812 C473.18,30.656 473.206,30.552 473.31,30.448 C474.246,29.72 475.702,29.226 477.548,29.226 C481.084,29.226 482.436,30.396 482.436,33.464 L482.436,41.706 C482.436,41.862 482.332,41.966 482.176,41.966 Z M477.184,40.38 C479.134,40.38 480.33,39.47 480.33,37.936 L480.33,36.558 C480.33,36.454 480.278,36.402 480.174,36.402 L477.678,36.402 C475.52,36.402 474.584,37.026 474.584,38.43 C474.584,39.704 475.52,40.38 477.184,40.38 Z M495.176,41.966 L493.512,41.966 C493.356,41.966 493.252,41.862 493.252,41.706 L493.252,31.436 C493.252,31.332 493.2,31.28 493.096,31.28 L492.03,31.28 C491.874,31.28 491.77,31.176 491.77,31.02 L491.77,29.772 C491.77,29.616 491.874,29.512 492.03,29.512 L493.096,29.512 C493.2,29.512 493.252,29.46 493.252,29.356 L493.252,28.29 C493.252,25.352 494.448,24.286 497.048,24.286 L498.01,24.286 C498.166,24.286 498.27,24.39 498.27,24.546 L498.27,26.054 C498.27,26.21 498.166,26.314 498.01,26.314 L497.334,26.314 C495.748,26.314 495.436,26.652 495.436,28.186 L495.436,29.356 C495.436,29.46 495.488,29.512 495.592,29.512 L498.01,29.512 C498.166,29.512 498.27,29.616 498.27,29.772 L498.27,31.02 C498.27,31.176 498.166,31.28 498.01,31.28 L495.592,31.28 C495.488,31.28 495.436,31.332 495.436,31.436 L495.436,41.706 C495.436,41.862 495.332,41.966 495.176,41.966 Z M505.628,42.252 C503.21,42.252 501.39,41.004 500.714,38.898 C500.428,38.04 500.298,37.182 500.298,35.726 C500.298,34.296 500.428,33.438 500.714,32.58 C501.39,30.448 503.21,29.226 505.628,29.226 C508.046,29.226 509.866,30.448 510.542,32.58 C510.828,33.438 510.958,34.296 510.958,35.726 C510.958,37.182 510.828,38.04 510.542,38.898 C509.866,41.004 508.046,42.252 505.628,42.252 Z M505.628,40.224 C507.006,40.224 508.02,39.522 508.436,38.274 C508.644,37.598 508.722,36.922 508.722,35.726 C508.722,34.53 508.644,33.88 508.436,33.204 C508.02,31.956 507.006,31.254 505.628,31.254 C504.25,31.254 503.236,31.956 502.82,33.204 C502.612,33.88 502.534,34.53 502.534,35.726 C502.534,36.922 502.612,37.598 502.82,38.274 C503.236,39.522 504.25,40.224 505.628,40.224 Z M523.958,41.966 L522.294,41.966 C522.138,41.966 522.034,41.862 522.034,41.706 L522.034,40.536 L522.008,40.536 C521.358,41.576 520.214,42.252 518.602,42.252 C515.872,42.252 514.286,40.38 514.286,37.546 L514.286,29.772 C514.286,29.616 514.39,29.512 514.546,29.512 L516.21,29.512 C516.366,29.512 516.47,29.616 516.47,29.772 L516.47,37.026 C516.47,39.054 517.38,40.224 519.226,40.224 C520.916,40.224 522.034,39.028 522.034,37.156 L522.034,29.772 C522.034,29.616 522.138,29.512 522.294,29.512 L523.958,29.512 C524.114,29.512 524.218,29.616 524.218,29.772 L524.218,41.706 C524.218,41.862 524.114,41.966 523.958,41.966 Z M530.406,41.966 L528.742,41.966 C528.586,41.966 528.482,41.862 528.482,41.706 L528.482,29.772 C528.482,29.616 528.586,29.512 528.742,29.512 L530.406,29.512 C530.562,29.512 530.666,29.616 530.666,29.772 L530.666,31.046 L530.692,31.046 C531.238,29.98 532.33,29.226 533.994,29.226 C534.982,29.226 535.918,29.59 536.542,30.162 C536.672,30.292 536.698,30.396 536.594,30.526 L535.632,31.8 C535.528,31.93 535.398,31.956 535.268,31.852 C534.696,31.488 534.072,31.254 533.344,31.254 C531.446,31.254 530.666,32.736 530.666,34.894 L530.666,41.706 C530.666,41.862 530.562,41.966 530.406,41.966 Z M538.128,36.064 C537.972,36.064 537.868,35.96 537.868,35.804 L537.868,34.296 C537.868,34.14 537.972,34.036 538.128,34.036 L545.044,34.036 C545.2,34.036 545.304,34.14 545.304,34.296 L545.304,35.804 C545.304,35.96 545.2,36.064 545.044,36.064 L538.128,36.064 Z M552.948,42.252 C550.53,42.252 548.814,41.264 547.8,40.38 C547.696,40.276 547.696,40.12 547.8,40.016 L548.866,38.872 C548.97,38.768 549.126,38.768 549.23,38.872 C550.166,39.678 551.57,40.302 553.078,40.302 C554.898,40.302 555.808,39.522 555.808,38.404 C555.808,37.416 555.34,36.87 553.39,36.662 L552.064,36.532 C549.62,36.272 548.346,35.05 548.346,33.022 C548.346,30.656 550.036,29.226 552.974,29.226 C554.794,29.226 556.354,29.824 557.394,30.604 C557.524,30.682 557.524,30.838 557.446,30.968 L556.562,32.086 C556.458,32.216 556.328,32.216 556.198,32.138 C555.392,31.618 554.118,31.124 552.844,31.124 C551.284,31.124 550.478,31.826 550.478,32.84 C550.478,33.828 551.076,34.348 552.922,34.53 L554.222,34.66 C556.744,34.894 557.966,36.168 557.966,38.17 C557.966,40.614 556.198,42.252 552.948,42.252 Z M565.974,42.096 L565.012,42.096 C562.594,42.096 561.658,41.004 561.658,38.56 L561.658,31.436 C561.658,31.332 561.606,31.28 561.502,31.28 L560.462,31.28 C560.306,31.28 560.202,31.176 560.202,31.02 L560.202,29.772 C560.202,29.616 560.306,29.512 560.462,29.512 L561.502,29.512 C561.606,29.512 561.658,29.46 561.658,29.356 L561.658,25.846 C561.658,25.69 561.762,25.586 561.918,25.586 L563.582,25.586 C563.738,25.586 563.842,25.69 563.842,25.846 L563.842,29.356 C563.842,29.46 563.894,29.512 563.998,29.512 L565.974,29.512 C566.13,29.512 566.234,29.616 566.234,29.772 L566.234,31.02 C566.234,31.176 566.13,31.28 565.974,31.28 L563.998,31.28 C563.894,31.28 563.842,31.332 563.842,31.436 L563.842,38.482 C563.842,39.73 564.31,40.068 565.428,40.068 L565.974,40.068 C566.13,40.068 566.234,40.172 566.234,40.328 L566.234,41.836 C566.234,41.992 566.13,42.096 565.974,42.096 Z M578.688,41.966 L577.154,41.966 C576.998,41.966 576.894,41.862 576.894,41.706 L576.894,40.614 L576.868,40.614 C576.296,41.55 575.074,42.252 573.176,42.252 C570.81,42.252 568.99,41.03 568.99,38.508 C568.99,35.882 570.81,34.66 573.852,34.66 L576.686,34.66 C576.79,34.66 576.842,34.608 576.842,34.504 L576.842,33.594 C576.842,31.878 576.166,31.15 573.852,31.15 C572.448,31.15 571.564,31.514 570.836,32.034 C570.706,32.138 570.55,32.138 570.472,32.008 L569.77,30.812 C569.692,30.656 569.718,30.552 569.822,30.448 C570.758,29.72 572.214,29.226 574.06,29.226 C577.596,29.226 578.948,30.396 578.948,33.464 L578.948,41.706 C578.948,41.862 578.844,41.966 578.688,41.966 Z M573.696,40.38 C575.646,40.38 576.842,39.47 576.842,37.936 L576.842,36.558 C576.842,36.454 576.79,36.402 576.686,36.402 L574.19,36.402 C572.032,36.402 571.096,37.026 571.096,38.43 C571.096,39.704 572.032,40.38 573.696,40.38 Z M585.032,41.966 L583.368,41.966 C583.212,41.966 583.108,41.862 583.108,41.706 L583.108,29.772 C583.108,29.616 583.212,29.512 583.368,29.512 L585.032,29.512 C585.188,29.512 585.292,29.616 585.292,29.772 L585.292,31.046 L585.318,31.046 C585.864,29.98 586.956,29.226 588.62,29.226 C589.608,29.226 590.544,29.59 591.168,30.162 C591.298,30.292 591.324,30.396 591.22,30.526 L590.258,31.8 C590.154,31.93 590.024,31.956 589.894,31.852 C589.322,31.488 588.698,31.254 587.97,31.254 C586.072,31.254 585.292,32.736 585.292,34.894 L585.292,41.706 C585.292,41.862 585.188,41.966 585.032,41.966 Z M609.758,41.966 L608.094,41.966 C607.938,41.966 607.834,41.862 607.834,41.706 L607.834,34.426 C607.834,32.424 606.924,31.254 605.052,31.254 C603.362,31.254 602.192,32.45 602.192,34.296 L602.192,41.706 C602.192,41.862 602.088,41.966 601.932,41.966 L600.268,41.966 C600.112,41.966 600.008,41.862 600.008,41.706 L600.008,24.546 C600.008,24.39 600.112,24.286 600.268,24.286 L601.932,24.286 C602.088,24.286 602.192,24.39 602.192,24.546 L602.192,30.916 L602.218,30.916 C602.816,29.954 604.012,29.226 605.702,29.226 C608.406,29.226 610.018,31.072 610.018,33.906 L610.018,41.706 C610.018,41.862 609.914,41.966 609.758,41.966 Z M618.728,42.252 C616.31,42.252 614.49,41.004 613.814,38.898 C613.528,38.04 613.398,37.182 613.398,35.726 C613.398,34.296 613.528,33.438 613.814,32.58 C614.49,30.448 616.31,29.226 618.728,29.226 C621.146,29.226 622.966,30.448 623.642,32.58 C623.928,33.438 624.058,34.296 624.058,35.726 C624.058,37.182 623.928,38.04 623.642,38.898 C622.966,41.004 621.146,42.252 618.728,42.252 Z M618.728,40.224 C620.106,40.224 621.12,39.522 621.536,38.274 C621.744,37.598 621.822,36.922 621.822,35.726 C621.822,34.53 621.744,33.88 621.536,33.204 C621.12,31.956 620.106,31.254 618.728,31.254 C617.35,31.254 616.336,31.956 615.92,33.204 C615.712,33.88 615.634,34.53 615.634,35.726 C615.634,36.922 615.712,37.598 615.92,38.274 C616.336,39.522 617.35,40.224 618.728,40.224 Z M632.144,42.096 L631.182,42.096 C628.764,42.096 627.828,41.004 627.828,38.56 L627.828,31.436 C627.828,31.332 627.776,31.28 627.672,31.28 L626.632,31.28 C626.476,31.28 626.372,31.176 626.372,31.02 L626.372,29.772 C626.372,29.616 626.476,29.512 626.632,29.512 L627.672,29.512 C627.776,29.512 627.828,29.46 627.828,29.356 L627.828,25.846 C627.828,25.69 627.932,25.586 628.088,25.586 L629.752,25.586 C629.908,25.586 630.012,25.69 630.012,25.846 L630.012,29.356 C630.012,29.46 630.064,29.512 630.168,29.512 L632.144,29.512 C632.3,29.512 632.404,29.616 632.404,29.772 L632.404,31.02 C632.404,31.176 632.3,31.28 632.144,31.28 L630.168,31.28 C630.064,31.28 630.012,31.332 630.012,31.436 L630.012,38.482 C630.012,39.73 630.48,40.068 631.598,40.068 L632.144,40.068 C632.3,40.068 632.404,40.172 632.404,40.328 L632.404,41.836 C632.404,41.992 632.3,42.096 632.144,42.096 Z M640.438,42.252 C637.916,42.252 636.122,41.03 635.446,38.872 C635.186,38.066 635.03,37.156 635.03,35.726 C635.03,34.296 635.16,33.334 635.42,32.58 C636.122,30.422 637.942,29.226 640.308,29.226 C642.7,29.226 644.494,30.448 645.196,32.58 C645.456,33.386 645.586,34.244 645.586,36.142 C645.586,36.298 645.482,36.402 645.3,36.402 L637.422,36.402 C637.318,36.402 637.266,36.454 637.266,36.558 C637.266,37.234 637.344,37.65 637.474,38.066 C637.968,39.496 639.086,40.224 640.62,40.224 C642.102,40.224 643.142,39.626 643.818,38.846 C643.948,38.716 644.078,38.69 644.208,38.794 L645.274,39.756 C645.404,39.86 645.404,39.99 645.3,40.12 C644.312,41.368 642.622,42.252 640.438,42.252 Z M637.422,34.66 L643.194,34.66 C643.298,34.66 643.35,34.608 643.35,34.504 C643.35,33.932 643.298,33.49 643.168,33.1 C642.752,31.852 641.712,31.15 640.308,31.15 C638.904,31.15 637.864,31.852 637.448,33.1 C637.318,33.49 637.266,33.932 637.266,34.504 C637.266,34.608 637.318,34.66 637.422,34.66 Z M652.97,42.096 L652.086,42.096 C649.902,42.096 649.044,41.056 649.044,38.82 L649.044,24.546 C649.044,24.39 649.148,24.286 649.304,24.286 L650.968,24.286 C651.124,24.286 651.228,24.39 651.228,24.546 L651.228,38.69 C651.228,39.73 651.618,40.068 652.476,40.068 L652.97,40.068 C653.126,40.068 653.23,40.172 653.23,40.328 L653.23,41.836 C653.23,41.992 653.126,42.096 652.97,42.096 Z M672.288,41.966 L670.624,41.966 C670.468,41.966 670.364,41.862 670.364,41.706 L670.364,34.426 C670.364,32.424 669.454,31.254 667.582,31.254 C665.892,31.254 664.722,32.45 664.722,34.296 L664.722,41.706 C664.722,41.862 664.618,41.966 664.462,41.966 L662.798,41.966 C662.642,41.966 662.538,41.862 662.538,41.706 L662.538,29.772 C662.538,29.616 662.642,29.512 662.798,29.512 L664.462,29.512 C664.618,29.512 664.722,29.616 664.722,29.772 L664.722,30.916 L664.748,30.916 C665.346,29.954 666.542,29.226 668.232,29.226 C670.936,29.226 672.548,31.072 672.548,33.906 L672.548,41.706 C672.548,41.862 672.444,41.966 672.288,41.966 Z M681.336,42.252 C678.814,42.252 677.02,41.03 676.344,38.872 C676.084,38.066 675.928,37.156 675.928,35.726 C675.928,34.296 676.058,33.334 676.318,32.58 C677.02,30.422 678.84,29.226 681.206,29.226 C683.598,29.226 685.392,30.448 686.094,32.58 C686.354,33.386 686.484,34.244 686.484,36.142 C686.484,36.298 686.38,36.402 686.198,36.402 L678.32,36.402 C678.216,36.402 678.164,36.454 678.164,36.558 C678.164,37.234 678.242,37.65 678.372,38.066 C678.866,39.496 679.984,40.224 681.518,40.224 C683,40.224 684.04,39.626 684.716,38.846 C684.846,38.716 684.976,38.69 685.106,38.794 L686.172,39.756 C686.302,39.86 686.302,39.99 686.198,40.12 C685.21,41.368 683.52,42.252 681.336,42.252 Z M678.32,34.66 L684.092,34.66 C684.196,34.66 684.248,34.608 684.248,34.504 C684.248,33.932 684.196,33.49 684.066,33.1 C683.65,31.852 682.61,31.15 681.206,31.15 C679.802,31.15 678.762,31.852 678.346,33.1 C678.216,33.49 678.164,33.932 678.164,34.504 C678.164,34.608 678.216,34.66 678.32,34.66 Z M699.068,41.966 L697.534,41.966 C697.378,41.966 697.274,41.862 697.274,41.706 L697.274,40.614 L697.248,40.614 C696.676,41.55 695.454,42.252 693.556,42.252 C691.19,42.252 689.37,41.03 689.37,38.508 C689.37,35.882 691.19,34.66 694.232,34.66 L697.066,34.66 C697.17,34.66 697.222,34.608 697.222,34.504 L697.222,33.594 C697.222,31.878 696.546,31.15 694.232,31.15 C692.828,31.15 691.944,31.514 691.216,32.034 C691.086,32.138 690.93,32.138 690.852,32.008 L690.15,30.812 C690.072,30.656 690.098,30.552 690.202,30.448 C691.138,29.72 692.594,29.226 694.44,29.226 C697.976,29.226 699.328,30.396 699.328,33.464 L699.328,41.706 C699.328,41.862 699.224,41.966 699.068,41.966 Z M694.076,40.38 C696.026,40.38 697.222,39.47 697.222,37.936 L697.222,36.558 C697.222,36.454 697.17,36.402 697.066,36.402 L694.57,36.402 C692.412,36.402 691.476,37.026 691.476,38.43 C691.476,39.704 692.412,40.38 694.076,40.38 Z M705.412,41.966 L703.748,41.966 C703.592,41.966 703.488,41.862 703.488,41.706 L703.488,29.772 C703.488,29.616 703.592,29.512 703.748,29.512 L705.412,29.512 C705.568,29.512 705.672,29.616 705.672,29.772 L705.672,31.046 L705.698,31.046 C706.244,29.98 707.336,29.226 709,29.226 C709.988,29.226 710.924,29.59 711.548,30.162 C711.678,30.292 711.704,30.396 711.6,30.526 L710.638,31.8 C710.534,31.93 710.404,31.956 710.274,31.852 C709.702,31.488 709.078,31.254 708.35,31.254 C706.452,31.254 705.672,32.736 705.672,34.894 L705.672,41.706 C705.672,41.862 705.568,41.966 705.412,41.966 Z M724.964,42.096 L724.002,42.096 C721.584,42.096 720.648,41.004 720.648,38.56 L720.648,31.436 C720.648,31.332 720.596,31.28 720.492,31.28 L719.452,31.28 C719.296,31.28 719.192,31.176 719.192,31.02 L719.192,29.772 C719.192,29.616 719.296,29.512 719.452,29.512 L720.492,29.512 C720.596,29.512 720.648,29.46 720.648,29.356 L720.648,25.846 C720.648,25.69 720.752,25.586 720.908,25.586 L722.572,25.586 C722.728,25.586 722.832,25.69 722.832,25.846 L722.832,29.356 C722.832,29.46 722.884,29.512 722.988,29.512 L724.964,29.512 C725.12,29.512 725.224,29.616 725.224,29.772 L725.224,31.02 C725.224,31.176 725.12,31.28 724.964,31.28 L722.988,31.28 C722.884,31.28 722.832,31.332 722.832,31.436 L722.832,38.482 C722.832,39.73 723.3,40.068 724.418,40.068 L724.964,40.068 C725.12,40.068 725.224,40.172 725.224,40.328 L725.224,41.836 C725.224,41.992 725.12,42.096 724.964,42.096 Z M738.354,41.966 L736.69,41.966 C736.534,41.966 736.43,41.862 736.43,41.706 L736.43,34.426 C736.43,32.424 735.52,31.254 733.648,31.254 C731.958,31.254 730.788,32.45 730.788,34.296 L730.788,41.706 C730.788,41.862 730.684,41.966 730.528,41.966 L728.864,41.966 C728.708,41.966 728.604,41.862 728.604,41.706 L728.604,24.546 C728.604,24.39 728.708,24.286 728.864,24.286 L730.528,24.286 C730.684,24.286 730.788,24.39 730.788,24.546 L730.788,30.916 L730.814,30.916 C731.412,29.954 732.608,29.226 734.298,29.226 C737.002,29.226 738.614,31.072 738.614,33.906 L738.614,41.706 C738.614,41.862 738.51,41.966 738.354,41.966 Z M747.402,42.252 C744.88,42.252 743.086,41.03 742.41,38.872 C742.15,38.066 741.994,37.156 741.994,35.726 C741.994,34.296 742.124,33.334 742.384,32.58 C743.086,30.422 744.906,29.226 747.272,29.226 C749.664,29.226 751.458,30.448 752.16,32.58 C752.42,33.386 752.55,34.244 752.55,36.142 C752.55,36.298 752.446,36.402 752.264,36.402 L744.386,36.402 C744.282,36.402 744.23,36.454 744.23,36.558 C744.23,37.234 744.308,37.65 744.438,38.066 C744.932,39.496 746.05,40.224 747.584,40.224 C749.066,40.224 750.106,39.626 750.782,38.846 C750.912,38.716 751.042,38.69 751.172,38.794 L752.238,39.756 C752.368,39.86 752.368,39.99 752.264,40.12 C751.276,41.368 749.586,42.252 747.402,42.252 Z M744.386,34.66 L750.158,34.66 C750.262,34.66 750.314,34.608 750.314,34.504 C750.314,33.932 750.262,33.49 750.132,33.1 C749.716,31.852 748.676,31.15 747.272,31.15 C745.868,31.15 744.828,31.852 744.412,33.1 C744.282,33.49 744.23,33.932 744.23,34.504 C744.23,34.608 744.282,34.66 744.386,34.66 Z M762.196,38.092 C761.858,37.078 761.728,36.064 761.728,33.126 C761.728,30.188 761.858,29.174 762.196,28.16 C763.08,25.378 765.186,24 768.072,24 C770.698,24 772.726,25.3 773.74,27.562 C773.792,27.692 773.766,27.822 773.636,27.9 L772.076,28.654 C771.92,28.732 771.764,28.654 771.712,28.524 C771.01,27.146 769.918,26.158 768.072,26.158 C766.148,26.158 764.978,27.094 764.406,28.758 C764.172,29.486 764.068,30.344 764.068,33.126 C764.068,35.908 764.172,36.766 764.406,37.494 C764.978,39.158 766.148,40.094 768.072,40.094 C769.918,40.094 771.01,39.106 771.712,37.728 C771.764,37.598 771.92,37.52 772.076,37.598 L773.636,38.352 C773.766,38.43 773.792,38.56 773.74,38.69 C772.726,40.952 770.698,42.252 768.072,42.252 C765.186,42.252 763.08,40.874 762.196,38.092 Z M777.068,41.706 L777.068,24.546 C777.068,24.39 777.172,24.286 777.328,24.286 L778.992,24.286 C779.2,24.286 779.33,24.338 779.434,24.546 L787.442,37.806 L787.546,37.806 L787.546,24.546 C787.546,24.39 787.65,24.286 787.806,24.286 L789.444,24.286 C789.6,24.286 789.704,24.39 789.704,24.546 L789.704,41.706 C789.704,41.862 789.6,41.966 789.444,41.966 L787.78,41.966 C787.598,41.966 787.442,41.914 787.338,41.706 L779.304,28.498 L779.226,28.498 L779.226,41.706 C779.226,41.862 779.122,41.966 778.966,41.966 L777.328,41.966 C777.172,41.966 777.068,41.862 777.068,41.706 Z M805.72,41.966 L803.926,41.966 C803.77,41.966 803.666,41.862 803.666,41.706 L803.666,26.6 C803.666,26.496 803.614,26.444 803.51,26.444 L798.674,26.444 C798.518,26.444 798.414,26.34 798.414,26.184 L798.414,24.546 C798.414,24.39 798.518,24.286 798.674,24.286 L810.972,24.286 C811.128,24.286 811.232,24.39 811.232,24.546 L811.232,26.184 C811.232,26.34 811.128,26.444 810.972,26.444 L806.136,26.444 C806.032,26.444 805.98,26.496 805.98,26.6 L805.98,41.706 C805.98,41.862 805.876,41.966 805.72,41.966 Z M816.796,42.252 C814.378,42.252 812.558,41.004 811.882,38.898 C811.596,38.04 811.466,37.182 811.466,35.726 C811.466,34.296 811.596,33.438 811.882,32.58 C812.558,30.448 814.378,29.226 816.796,29.226 C819.214,29.226 821.034,30.448 821.71,32.58 C821.996,33.438 822.126,34.296 822.126,35.726 C822.126,37.182 821.996,38.04 821.71,38.898 C821.034,41.004 819.214,42.252 816.796,42.252 Z M816.796,40.224 C818.174,40.224 819.188,39.522 819.604,38.274 C819.812,37.598 819.89,36.922 819.89,35.726 C819.89,34.53 819.812,33.88 819.604,33.204 C819.188,31.956 818.174,31.254 816.796,31.254 C815.418,31.254 814.404,31.956 813.988,33.204 C813.78,33.88 813.702,34.53 813.702,35.726 C813.702,36.922 813.78,37.598 813.988,38.274 C814.404,39.522 815.418,40.224 816.796,40.224 Z M837.726,41.966 L836.244,41.966 C836.088,41.966 835.984,41.862 835.932,41.706 L833.124,32.788 L833.072,32.788 L830.238,41.706 C830.186,41.862 830.082,41.966 829.926,41.966 L828.418,41.966 C828.262,41.966 828.158,41.862 828.106,41.706 L824.206,29.772 C824.154,29.616 824.232,29.512 824.388,29.512 L826.156,29.512 C826.338,29.512 826.416,29.564 826.494,29.772 L829.25,38.768 L829.302,38.768 L832.11,29.772 C832.162,29.59 832.266,29.512 832.422,29.512 L833.774,29.512 C833.93,29.512 834.06,29.59 834.112,29.772 L836.946,38.768 L836.998,38.768 L839.676,29.772 C839.728,29.564 839.832,29.512 840.014,29.512 L841.782,29.512 C841.938,29.512 842.016,29.616 841.964,29.772 L838.038,41.706 C837.986,41.862 837.908,41.966 837.726,41.966 Z M849.556,42.252 C847.034,42.252 845.24,41.03 844.564,38.872 C844.304,38.066 844.148,37.156 844.148,35.726 C844.148,34.296 844.278,33.334 844.538,32.58 C845.24,30.422 847.06,29.226 849.426,29.226 C851.818,29.226 853.612,30.448 854.314,32.58 C854.574,33.386 854.704,34.244 854.704,36.142 C854.704,36.298 854.6,36.402 854.418,36.402 L846.54,36.402 C846.436,36.402 846.384,36.454 846.384,36.558 C846.384,37.234 846.462,37.65 846.592,38.066 C847.086,39.496 848.204,40.224 849.738,40.224 C851.22,40.224 852.26,39.626 852.936,38.846 C853.066,38.716 853.196,38.69 853.326,38.794 L854.392,39.756 C854.522,39.86 854.522,39.99 854.418,40.12 C853.43,41.368 851.74,42.252 849.556,42.252 Z M846.54,34.66 L852.312,34.66 C852.416,34.66 852.468,34.608 852.468,34.504 C852.468,33.932 852.416,33.49 852.286,33.1 C851.87,31.852 850.83,31.15 849.426,31.15 C848.022,31.15 846.982,31.852 846.566,33.1 C846.436,33.49 846.384,33.932 846.384,34.504 C846.384,34.608 846.436,34.66 846.54,34.66 Z M860.138,41.966 L858.474,41.966 C858.318,41.966 858.214,41.862 858.214,41.706 L858.214,29.772 C858.214,29.616 858.318,29.512 858.474,29.512 L860.138,29.512 C860.294,29.512 860.398,29.616 860.398,29.772 L860.398,31.046 L860.424,31.046 C860.97,29.98 862.062,29.226 863.726,29.226 C864.714,29.226 865.65,29.59 866.274,30.162 C866.404,30.292 866.43,30.396 866.326,30.526 L865.364,31.8 C865.26,31.93 865.13,31.956 865,31.852 C864.428,31.488 863.804,31.254 863.076,31.254 C861.178,31.254 860.398,32.736 860.398,34.894 L860.398,41.706 C860.398,41.862 860.294,41.966 860.138,41.966 Z M866.82,41.706 L866.82,39.47 C866.82,39.314 866.924,39.21 867.08,39.21 L869.056,39.21 C869.212,39.21 869.316,39.314 869.316,39.47 L869.316,41.706 C869.316,41.862 869.212,41.966 869.056,41.966 L867.08,41.966 C866.924,41.966 866.82,41.862 866.82,41.706 Z" id="Hotel-Text-Outlines" fill="#666666" fill-rule="nonzero"></path>
            </g>
        </g>
    </g>
</svg>