<svg id="itinerary-3" xmlns="http://www.w3.org/2000/svg" xmlns:xlink="http://www.w3.org/1999/xlink" width="327px" height="454px" viewBox="0 0 327 454" version="1.1">
    <!-- Generator: Sketch 53.2 (72643) - https://sketchapp.com -->
    <title>Itinerary 3</title>
    <desc>Created with Sketch.</desc>
    <defs>
        <rect id="itinerary-3-path-1" x="0" y="0" width="313" height="47" rx="4"/>
        <filter x="-1.0%" y="-6.4%" width="101.9%" height="112.8%" filterUnits="objectBoundingBox" id="itinerary-3-filter-3">
            <feOffset dx="0" dy="0" in="SourceAlpha" result="shadowOffsetOuter1"/>
            <feGaussianBlur stdDeviation="1" in="shadowOffsetOuter1" result="shadowBlurOuter1"/>
            <feColorMatrix values="0 0 0 0 0   0 0 0 0 0   0 0 0 0 0  0 0 0 0.257048234 0" type="matrix" in="shadowBlurOuter1"/>
        </filter>
        <polygon id="itinerary-3-path-4" points="7.0625 0 8 0.75 4 3.95 0 0.75 0.9375 0 4 2.45"/>
        <rect id="itinerary-3-path-6" x="0" y="0" width="313" height="65" rx="4"/>
        <filter x="-2.2%" y="-7.7%" width="104.5%" height="121.5%" filterUnits="objectBoundingBox" id="itinerary-3-filter-8">
            <feOffset dx="0" dy="2" in="SourceAlpha" result="shadowOffsetOuter1"/>
            <feGaussianBlur stdDeviation="2" in="shadowOffsetOuter1" result="shadowBlurOuter1"/>
            <feColorMatrix values="0 0 0 0 0   0 0 0 0 0   0 0 0 0 0  0 0 0 0.245103034 0" type="matrix" in="shadowBlurOuter1"/>
        </filter>
        <path d="M16.3340183,18.4606537 L17.7700568,17.0246153 C17.8570894,16.9375827 17.9006057,16.8070337 17.8570894,16.7200011 L16.0294041,7.7121235 C15.9858878,7.58157455 16.0294041,7.49454192 16.1164367,7.40750928 L20.2069705,3.31697551 C20.9032316,2.62071444 20.9032316,1.4892902 20.2069705,0.793029135 L20.2069705,0.793029135 C19.5107094,0.0967680662 18.3792852,0.0967680662 17.6830241,0.793029135 L13.4619414,5.01411186 C13.3749088,5.1011445 13.2878761,5.14466081 13.1573272,5.1011445 L4.01890065,3.40400814 C3.8883517,3.40400814 3.80131907,3.40400814 3.71428644,3.49104077 L2.23473167,5.01411186 C2.0606664,5.18817713 2.10418272,5.49279135 2.3217643,5.57982398 L9.24085867,8.62596615 C9.45844025,8.71299879 9.50195657,9.017613 9.3278913,9.19167827 L4.84571067,13.6738589 C4.75867804,13.7608915 4.62812909,13.8044078 4.54109645,13.7608915 L1.58198691,13.1516631 C1.45143796,13.1081468 1.36440533,13.1516631 1.2773727,13.2386957 L0.407046361,14.1090221 C0.232981094,14.2830873 0.276497411,14.5441852 0.494078995,14.6747342 L3.45318854,16.1107726 C3.45318854,16.154289 3.49670485,16.154289 3.54022117,16.1978053 L4.80219436,17.4597785 C4.84571067,17.5032948 4.84571067,17.5032948 4.84571067,17.5468111 L6.36878176,20.5494369 C6.45581439,20.7670185 6.76042861,20.8105348 6.93449388,20.6364696 L7.67427126,19.8966922 C7.7613039,19.8096596 7.80482021,19.6791106 7.7613039,19.592078 L7.15207546,16.5894521 C7.10855914,16.4589032 7.15207546,16.3718705 7.23910809,16.2848379 L11.9823866,11.5415594 C12.1564519,11.3674941 12.4175498,11.4110104 12.5480987,11.628592 L15.8118225,18.3736211 C15.8988551,18.5912027 16.159953,18.634719 16.3340183,18.4606537 Z" id="itinerary-3-path-9"/>
        <rect id="itinerary-3-path-11" x="0" y="0" width="313" height="92" rx="4"/>
        <filter x="-2.2%" y="-5.4%" width="104.5%" height="115.2%" filterUnits="objectBoundingBox" id="itinerary-3-filter-13">
            <feOffset dx="0" dy="2" in="SourceAlpha" result="shadowOffsetOuter1"/>
            <feGaussianBlur stdDeviation="2" in="shadowOffsetOuter1" result="shadowBlurOuter1"/>
            <feColorMatrix values="0 0 0 0 0   0 0 0 0 0   0 0 0 0 0  0 0 0 0.245103034 0" type="matrix" in="shadowBlurOuter1"/>
        </filter>
        <rect id="itinerary-3-path-14" x="0" y="0" width="313" height="65" rx="4"/>
        <filter x="-2.2%" y="-7.7%" width="104.5%" height="121.5%" filterUnits="objectBoundingBox" id="itinerary-3-filter-16">
            <feOffset dx="0" dy="2" in="SourceAlpha" result="shadowOffsetOuter1"/>
            <feGaussianBlur stdDeviation="2" in="shadowOffsetOuter1" result="shadowBlurOuter1"/>
            <feColorMatrix values="0 0 0 0 0   0 0 0 0 0   0 0 0 0 0  0 0 0 0.245103034 0" type="matrix" in="shadowBlurOuter1"/>
        </filter>
        <path d="M16.3340183,18.4606537 L17.7700568,17.0246153 C17.8570894,16.9375827 17.9006057,16.8070337 17.8570894,16.7200011 L16.0294041,7.7121235 C15.9858878,7.58157455 16.0294041,7.49454192 16.1164367,7.40750928 L20.2069705,3.31697551 C20.9032316,2.62071444 20.9032316,1.4892902 20.2069705,0.793029135 L20.2069705,0.793029135 C19.5107094,0.0967680662 18.3792852,0.0967680662 17.6830241,0.793029135 L13.4619414,5.01411186 C13.3749088,5.1011445 13.2878761,5.14466081 13.1573272,5.1011445 L4.01890065,3.40400814 C3.8883517,3.40400814 3.80131907,3.40400814 3.71428644,3.49104077 L2.23473167,5.01411186 C2.0606664,5.18817713 2.10418272,5.49279135 2.3217643,5.57982398 L9.24085867,8.62596615 C9.45844025,8.71299879 9.50195657,9.017613 9.3278913,9.19167827 L4.84571067,13.6738589 C4.75867804,13.7608915 4.62812909,13.8044078 4.54109645,13.7608915 L1.58198691,13.1516631 C1.45143796,13.1081468 1.36440533,13.1516631 1.2773727,13.2386957 L0.407046361,14.1090221 C0.232981094,14.2830873 0.276497411,14.5441852 0.494078995,14.6747342 L3.45318854,16.1107726 C3.45318854,16.154289 3.49670485,16.154289 3.54022117,16.1978053 L4.80219436,17.4597785 C4.84571067,17.5032948 4.84571067,17.5032948 4.84571067,17.5468111 L6.36878176,20.5494369 C6.45581439,20.7670185 6.76042861,20.8105348 6.93449388,20.6364696 L7.67427126,19.8966922 C7.7613039,19.8096596 7.80482021,19.6791106 7.7613039,19.592078 L7.15207546,16.5894521 C7.10855914,16.4589032 7.15207546,16.3718705 7.23910809,16.2848379 L11.9823866,11.5415594 C12.1564519,11.3674941 12.4175498,11.4110104 12.5480987,11.628592 L15.8118225,18.3736211 C15.8988551,18.5912027 16.159953,18.634719 16.3340183,18.4606537 Z" id="itinerary-3-path-17"/>
        <rect id="itinerary-3-path-19" x="0" y="0" width="151" height="21"/>
        <filter x="-4.0%" y="-28.6%" width="107.9%" height="157.1%" filterUnits="objectBoundingBox" id="itinerary-3-filter-20">
            <feOffset dx="0" dy="0" in="SourceAlpha" result="shadowOffsetOuter1"/>
            <feGaussianBlur stdDeviation="2" in="shadowOffsetOuter1" result="shadowBlurOuter1"/>
            <feComposite in="shadowBlurOuter1" in2="SourceAlpha" operator="out" result="shadowBlurOuter1"/>
            <feColorMatrix values="0 0 0 0 0   0 0 0 0 0   0 0 0 0 0  0 0 0 0.253000453 0" type="matrix" in="shadowBlurOuter1"/>
        </filter>
        <rect id="itinerary-3-path-21" x="0" y="0" width="151" height="21"/>
        <filter x="-4.0%" y="-28.6%" width="107.9%" height="157.1%" filterUnits="objectBoundingBox" id="itinerary-3-filter-22">
            <feOffset dx="0" dy="0" in="SourceAlpha" result="shadowOffsetOuter1"/>
            <feGaussianBlur stdDeviation="2" in="shadowOffsetOuter1" result="shadowBlurOuter1"/>
            <feComposite in="shadowBlurOuter1" in2="SourceAlpha" operator="out" result="shadowBlurOuter1"/>
            <feColorMatrix values="0 0 0 0 0   0 0 0 0 0   0 0 0 0 0  0 0 0 0.253000453 0" type="matrix" in="shadowBlurOuter1"/>
        </filter>
        <path d="M0,2.4916997 C0,1.11557195 1.11965717,0 2.50728552,0 L261.492714,0 C262.87745,0 264,1.10965268 264,2.4916997 L264,41.5083003 C264,42.884428 262.880343,44 261.492714,44 L2.50728552,44 C1.12254997,44 0,42.8903473 0,41.5083003 L0,2.4916997 Z" id="itinerary-3-path-23"/>
        <filter x="-2.7%" y="-11.4%" width="105.3%" height="131.8%" filterUnits="objectBoundingBox" id="itinerary-3-filter-24">
            <feOffset dx="0" dy="2" in="SourceAlpha" result="shadowOffsetOuter1"/>
            <feGaussianBlur stdDeviation="2" in="shadowOffsetOuter1" result="shadowBlurOuter1"/>
            <feColorMatrix values="0 0 0 0 0   0 0 0 0 0   0 0 0 0 0  0 0 0 0.248907343 0" type="matrix" in="shadowBlurOuter1"/>
        </filter>
    </defs>
    <g id="Website-Animations" stroke="none" stroke-width="1" fill="none" fill-rule="evenodd">
        <g id="Artboard-Copy-2" transform="translate(-820.000000, -68.000000)">
            <g id="Itinerary-3" transform="translate(824.000000, 70.000000)">
                <g class="itinerary-3-card" id="Card-3.1" transform="translate(4.000000, 0.000000)">
                    <g id="Card">
                        <mask id="itinerary-3-mask-2" fill="white">
                            <use xlink:href="#itinerary-3-path-1"/>
                        </mask>
                        <g id="White-Background">
                            <use fill="black" fill-opacity="1" filter="url(#itinerary-3-filter-3)" xlink:href="#itinerary-3-path-1"/>
                            <use fill="#FFFFFF" fill-rule="evenodd" xlink:href="#itinerary-3-path-1"/>
                        </g>
                        <rect id="Green-Stripe" fill="#7ED321" mask="url(#itinerary-3-mask-2)" x="0" y="-2" width="313" height="4"/>
                    </g>
                    <path d="M242.03,19 L241.34,19 C241.28,19 241.24,18.96 241.24,18.9 L241.24,13.09 C241.24,13.05 241.22,13.03 241.18,13.03 L239.32,13.03 C239.26,13.03 239.22,12.99 239.22,12.93 L239.22,12.3 C239.22,12.24 239.26,12.2 239.32,12.2 L244.05,12.2 C244.11,12.2 244.15,12.24 244.15,12.3 L244.15,12.93 C244.15,12.99 244.11,13.03 244.05,13.03 L242.19,13.03 C242.15,13.03 242.13,13.05 242.13,13.09 L242.13,18.9 C242.13,18.96 242.09,19 242.03,19 Z M247.22,19.11 C246.08,19.11 245.26,18.57 244.91,17.52 C244.78,17.13 244.73,16.72 244.73,15.6 C244.73,14.48 244.78,14.07 244.91,13.68 C245.26,12.63 246.08,12.09 247.22,12.09 C248.37,12.09 249.19,12.63 249.54,13.68 C249.67,14.07 249.72,14.48 249.72,15.6 C249.72,16.72 249.67,17.13 249.54,17.52 C249.19,18.57 248.37,19.11 247.22,19.11 Z M247.22,18.28 C247.98,18.28 248.46,17.92 248.67,17.27 C248.75,17.02 248.82,16.58 248.82,15.6 C248.82,14.62 248.75,14.18 248.67,13.93 C248.46,13.28 247.98,12.92 247.22,12.92 C246.47,12.92 245.99,13.28 245.78,13.93 C245.7,14.18 245.63,14.62 245.63,15.6 C245.63,16.58 245.7,17.02 245.78,17.27 C245.99,17.92 246.47,18.28 247.22,18.28 Z M253.11,19 L252.42,19 C252.36,19 252.32,18.96 252.32,18.9 L252.32,13.09 C252.32,13.05 252.3,13.03 252.26,13.03 L250.4,13.03 C250.34,13.03 250.3,12.99 250.3,12.93 L250.3,12.3 C250.3,12.24 250.34,12.2 250.4,12.2 L255.13,12.2 C255.19,12.2 255.23,12.24 255.23,12.3 L255.23,12.93 C255.23,12.99 255.19,13.03 255.13,13.03 L253.27,13.03 C253.23,13.03 253.21,13.05 253.21,13.09 L253.21,18.9 C253.21,18.96 253.17,19 253.11,19 Z M254.97,18.9 L257.33,12.3 C257.35,12.24 257.38,12.2 257.45,12.2 L258.1,12.2 C258.17,12.2 258.21,12.24 258.23,12.3 L260.56,18.9 C260.58,18.96 260.55,19 260.49,19 L259.79,19 C259.72,19 259.68,18.97 259.66,18.9 L259.14,17.42 L256.39,17.42 L255.87,18.9 C255.84,18.97 255.8,19 255.74,19 L255.04,19 C254.98,19 254.95,18.96 254.97,18.9 Z M256.68,16.6 L258.85,16.6 L257.78,13.51 L257.76,13.51 L256.68,16.6 Z M261.64,18.9 L261.64,12.3 C261.64,12.24 261.68,12.2 261.74,12.2 L262.43,12.2 C262.49,12.2 262.53,12.24 262.53,12.3 L262.53,18.11 C262.53,18.15 262.55,18.17 262.59,18.17 L265.83,18.17 C265.89,18.17 265.93,18.21 265.93,18.27 L265.93,18.9 C265.93,18.96 265.89,19 265.83,19 L261.74,19 C261.68,19 261.64,18.96 261.64,18.9 Z" id="TOTAL" fill="#575757" fill-rule="nonzero"/>
                    <path d="M240.104,34.024 C240.024,33.96 240.008,33.864 240.072,33.784 L240.92,32.712 C240.984,32.632 241.08,32.632 241.144,32.696 C241.608,33.08 242.344,33.48 243.192,33.56 L243.192,30.28 C241.368,29.976 240.264,28.84 240.264,27.208 C240.264,25.432 241.48,24.152 243.192,23.976 L243.192,23.144 C243.192,23.048 243.256,22.984 243.352,22.984 L243.976,22.984 C244.072,22.984 244.136,23.048 244.136,23.144 L244.136,23.976 C245.064,24.056 245.912,24.376 246.584,24.824 C246.664,24.888 246.68,24.952 246.616,25.048 L245.88,26.136 C245.816,26.216 245.736,26.216 245.656,26.168 C245.192,25.88 244.68,25.672 244.136,25.592 L244.136,28.712 C246.072,29.032 247.08,30.152 247.08,31.8 C247.08,33.608 245.96,34.872 244.136,35.128 L244.136,35.976 C244.136,36.072 244.072,36.136 243.976,36.136 L243.352,36.136 C243.256,36.136 243.192,36.072 243.192,35.976 L243.192,35.16 C241.976,35.112 240.936,34.68 240.104,34.024 Z M243.192,28.52 L243.192,25.592 C242.472,25.736 242.008,26.312 242.008,27.08 C242.008,27.752 242.28,28.264 243.192,28.52 Z M244.136,33.512 C244.92,33.32 245.336,32.76 245.336,31.864 C245.336,31.256 245.048,30.728 244.136,30.456 L244.136,33.512 Z M248.68,34.84 L248.68,33.64 C248.68,33.544 248.696,33.496 248.76,33.432 L252.6,28.648 C253.032,28.12 253.304,27.608 253.304,26.984 C253.304,26.168 252.776,25.544 251.864,25.544 C251,25.544 250.504,26.072 250.392,26.904 C250.376,27 250.312,27.048 250.216,27.032 L248.808,26.744 C248.712,26.728 248.664,26.648 248.68,26.552 C248.824,25.272 249.848,23.944 251.912,23.944 C253.944,23.944 255.112,25.288 255.112,26.984 C255.112,27.96 254.728,28.76 254.088,29.528 L250.92,33.368 L250.92,33.4 L254.952,33.4 C255.048,33.4 255.112,33.464 255.112,33.56 L255.112,34.84 C255.112,34.936 255.048,35 254.952,35 L248.84,35 C248.744,35 248.68,34.936 248.68,34.84 Z M256.968,36.616 L256.968,33.208 C256.968,33.112 257.032,33.048 257.128,33.048 L258.632,33.048 C258.728,33.048 258.792,33.112 258.792,33.208 L258.792,34.952 C258.792,35.112 258.776,35.192 258.68,35.288 L257.352,36.664 C257.272,36.744 257.208,36.776 257.128,36.776 C257.032,36.776 256.968,36.712 256.968,36.616 Z M261.912,34.84 L264.312,30.488 L264.28,30.456 C264.136,30.536 263.8,30.6 263.464,30.6 C261.8,30.6 260.36,29.384 260.36,27.384 C260.36,25.16 261.912,23.944 263.832,23.944 C265.784,23.944 267.304,25.16 267.304,27.304 C267.304,28.168 267.016,29.032 266.584,29.8 L263.752,34.904 C263.704,34.984 263.672,35 263.56,35 L262.008,35 C261.896,35 261.864,34.936 261.912,34.84 Z M263.832,29 C264.856,29 265.496,28.296 265.496,27.272 C265.496,26.248 264.856,25.544 263.832,25.544 C262.824,25.544 262.184,26.248 262.184,27.272 C262.184,28.296 262.824,29 263.832,29 Z M270.296,34.84 L272.696,30.488 L272.664,30.456 C272.52,30.536 272.184,30.6 271.848,30.6 C270.184,30.6 268.744,29.384 268.744,27.384 C268.744,25.16 270.296,23.944 272.216,23.944 C274.168,23.944 275.688,25.16 275.688,27.304 C275.688,28.168 275.4,29.032 274.968,29.8 L272.136,34.904 C272.088,34.984 272.056,35 271.944,35 L270.392,35 C270.28,35 270.248,34.936 270.296,34.84 Z M272.216,29 C273.24,29 273.88,28.296 273.88,27.272 C273.88,26.248 273.24,25.544 272.216,25.544 C271.208,25.544 270.568,26.248 270.568,27.272 C270.568,28.296 271.208,29 272.216,29 Z M277.096,31.912 C277.096,30.68 277.72,29.768 278.456,29.304 L278.456,29.272 C277.912,28.904 277.336,28.104 277.336,27.048 C277.336,25.416 278.504,23.944 280.6,23.944 C282.712,23.944 283.88,25.416 283.88,27.048 C283.88,28.104 283.304,28.904 282.76,29.272 L282.76,29.304 C283.496,29.768 284.12,30.68 284.12,31.912 C284.12,33.848 282.664,35.176 280.6,35.176 C278.552,35.176 277.096,33.848 277.096,31.912 Z M280.6,28.488 C281.496,28.488 282.072,27.8 282.072,27.016 C282.072,26.216 281.496,25.544 280.6,25.544 C279.72,25.544 279.144,26.216 279.144,27.016 C279.144,27.8 279.72,28.488 280.6,28.488 Z M278.904,31.832 C278.904,32.856 279.576,33.576 280.6,33.576 C281.64,33.576 282.312,32.856 282.312,31.832 C282.312,30.824 281.64,30.088 280.6,30.088 C279.576,30.088 278.904,30.824 278.904,31.832 Z M285.656,34.84 L285.656,33.208 C285.656,33.112 285.72,33.048 285.816,33.048 L287.416,33.048 C287.512,33.048 287.576,33.112 287.576,33.208 L287.576,34.84 C287.576,34.936 287.512,35 287.416,35 L285.816,35 C285.72,35 285.656,34.936 285.656,34.84 Z M289.384,34.84 L289.384,33.64 C289.384,33.544 289.4,33.496 289.464,33.432 L293.304,28.648 C293.736,28.12 294.008,27.608 294.008,26.984 C294.008,26.168 293.48,25.544 292.568,25.544 C291.704,25.544 291.208,26.072 291.096,26.904 C291.08,27 291.016,27.048 290.92,27.032 L289.512,26.744 C289.416,26.728 289.368,26.648 289.384,26.552 C289.528,25.272 290.552,23.944 292.616,23.944 C294.648,23.944 295.816,25.288 295.816,26.984 C295.816,27.96 295.432,28.76 294.792,29.528 L291.624,33.368 L291.624,33.4 L295.656,33.4 C295.752,33.4 295.816,33.464 295.816,33.56 L295.816,34.84 C295.816,34.936 295.752,35 295.656,35 L289.544,35 C289.448,35 289.384,34.936 289.384,34.84 Z M298.84,34.824 L302.392,25.768 L302.392,25.72 L299.688,25.72 C299.624,25.72 299.592,25.752 299.592,25.816 L299.592,27.064 C299.592,27.16 299.528,27.224 299.432,27.224 L298.056,27.224 C297.96,27.224 297.896,27.16 297.896,27.064 L297.896,24.28 C297.896,24.184 297.96,24.12 298.056,24.12 L304.152,24.12 C304.248,24.12 304.312,24.184 304.312,24.28 L304.312,25.528 C304.312,25.656 304.296,25.736 304.264,25.816 L300.664,34.856 C300.616,34.968 300.584,35 300.456,35 L298.936,35 C298.84,35 298.792,34.936 298.84,34.824 Z" id="$2,998.27" fill="#575757" fill-rule="nonzero"/>
                    <g id="Icon-Chevron" transform="translate(112.000000, 33.000000)">
                        <mask id="itinerary-3-mask-5" fill="white">
                            <use xlink:href="#itinerary-3-path-4"/>
                        </mask>
                        <use id="itinerary-3-Mask" fill="#333333" xlink:href="#itinerary-3-path-4"/>
                        <g id="↳🎨icon-color" mask="url(#itinerary-3-mask-5)" fill="#333333">
                            <g transform="translate(-32.000000, -27.200000)" id="Icon-Shade">
                                <rect x="0" y="0" width="72" height="57.6"/>
                            </g>
                        </g>
                    </g>
                    <g id="Icon-Avatar-3" transform="translate(11.000000, 12.000000)" fill="#595959">
                        <path d="M21.427209,20.2310749 C18.3916334,18.8978549 15.0211939,17.2417506 14.7384064,16.2102626 L14.7384064,15.1283823 C15.3681687,14.3961378 15.8647121,13.3746039 16.1583994,12.1788742 C16.8650653,11.6152264 17.0406722,10.4530916 16.4557198,9.6362377 L16.4557198,7.21242763 C16.4557198,4.71209582 15.2301055,3 12.4288742,3 C9.69970228,3 8.40081748,4.71209582 8.40081748,7.21242763 L8.40081748,9.63685983 C7.81647071,10.4530916 7.99328859,11.6146042 8.69813796,12.1788742 C8.9918252,13.3746039 9.48897411,14.3961378 10.1187364,15.1283823 L10.1187364,16.2102626 C9.83655447,17.2405063 6.46550941,18.8966106 3.4299339,20.2310749 C3.17136802,20.3461685 3,20.6317252 3,20.9508768 L3,23.6583772 C3,24.0832905 3.2991371,24.4285714 3.66791139,24.4285714 L21.1892315,24.4285714 C21.5580058,24.4285714 21.8571429,24.0832905 21.8571429,23.6583772 L21.8571429,20.9508768 C21.8571429,20.6317252 21.6857748,20.3449243 21.427209,20.2310749 L21.427209,20.2310749 Z" id="Avatar-3"/>
                    </g>
                    <rect class="mock-text" id="Text-1" fill="#D8D8D8" x="47" y="12" width="101" height="8" rx="4"/>
                    <rect class="mock-text" id="Text-2" fill="#D8D8D8" x="47" y="29" width="60" height="8" rx="4"/>
                </g>
                <g class="itinerary-3-card" id="Card-3.2" transform="translate(6.000000, 96.000000)">
                    <g id="Card">
                        <mask id="itinerary-3-mask-7" fill="white">
                            <use xlink:href="#itinerary-3-path-6"/>
                        </mask>
                        <g id="White-Background">
                            <use fill="black" fill-opacity="1" filter="url(#itinerary-3-filter-8)" xlink:href="#itinerary-3-path-6"/>
                            <use fill="#FFFFFF" fill-rule="evenodd" xlink:href="#itinerary-3-path-6"/>
                        </g>
                        <rect id="Green-Stripe" fill="#7ED321" mask="url(#itinerary-3-mask-7)" x="0" y="-2" width="313" height="4"/>
                    </g>
                    <g id="Icon-Plane" transform="translate(11.000000, 13.000000)">
                        <mask id="itinerary-3-mask-10" fill="white">
                            <use xlink:href="#itinerary-3-path-9"/>
                        </mask>
                        <use id="Airplane" fill="#CCCCCC" xlink:href="#itinerary-3-path-9"/>
                    </g>
                    <rect class="mock-text" id="Text-1" fill="#666666" x="45" y="10" width="34" height="4" rx="2"/>
                    <rect class="mock-text" id="Text-2" fill="#CCCCCC" x="45" y="22" width="42" height="4" rx="2"/>
                    <rect class="mock-text" id="Text-3" fill="#666666" x="45" y="37" width="55" height="4" rx="2"/>
                    <rect class="mock-text" id="Text-4" fill="#CCCCCC" x="45" y="49" width="63" height="4" rx="2"/>
                    <rect class="mock-text" id="Text-5" fill="#666666" x="125" y="10" width="34" height="4" rx="2"/>
                    <rect class="mock-text" id="Text-6" fill="#CCCCCC" x="125" y="22" width="34" height="4" rx="2"/>
                    <rect class="mock-text" id="Text-7" fill="#666666" x="125" y="37" width="47" height="4" rx="2"/>
                    <rect class="mock-text" id="Text-8" fill="#CCCCCC" x="211" y="10" width="97" height="4" rx="2"/>
                    <rect class="mock-text" id="Text-9" fill="#666666" x="274" y="25" width="34" height="4" rx="2"/>
                </g>
                <g class="itinerary-3-card" id="Card-3.3" transform="translate(6.000000, 173.000000)">
                    <g id="Card">
                        <mask id="itinerary-3-mask-12" fill="white">
                            <use xlink:href="#itinerary-3-path-11"/>
                        </mask>
                        <g id="White-Background">
                            <use fill="black" fill-opacity="1" filter="url(#itinerary-3-filter-13)" xlink:href="#itinerary-3-path-11"/>
                            <use fill="#FFFFFF" fill-rule="evenodd" xlink:href="#itinerary-3-path-11"/>
                        </g>
                        <rect id="Green-Stripe" fill="#7ED321" mask="url(#itinerary-3-mask-12)" x="0" y="-2" width="313" height="4"/>
                    </g>
                    <g id="Icon-Hotel" transform="translate(8.000000, 16.000000)" fill="#CCCCCC">
                        <path d="M1.34917647,9.88235294 L22.5256471,9.88235294 L24,9.88235294 L24,14.5882353 L22.5256471,14.5882353 L22.5256471,11.2941176 L1.34917647,11.2941176 L1.34917647,14.5882353 L0,14.5882353 L0,0 L1.34917647,0 L1.34917647,9.88235294 Z M4.23529412,7.05882353 C3.19569929,7.05882353 2.35294118,6.21606541 2.35294118,5.17647059 C2.35294118,4.13687577 3.19569929,3.29411765 4.23529412,3.29411765 C5.27488894,3.29411765 6.11764706,4.13687577 6.11764706,5.17647059 C6.11764706,6.21606541 5.27488894,7.05882353 4.23529412,7.05882353 Z M2.35294118,8.94117647 L2.35294118,7.52941176 L6.58823529,7.52941176 L6.58823529,3.76470588 L8,3.76470588 L8,8.94117647 L7.52941176,8.94117647 L6.58823529,8.94117647 L2.35294118,8.94117647 Z M8.94117647,3.76470588 L23.0588235,3.76470588 L23.0588235,8.94117647 L8.94117647,8.94117647 L8.94117647,3.76470588 Z" id="Combined-Shape"/>
                    </g>
                    <rect class="mock-text" id="Text-1" fill="#666666" x="45" y="15" width="126" height="4" rx="2"/>
                    <rect class="mock-text" id="Text-2" fill="#CCCCCC" x="45" y="29" width="149" height="4" rx="2"/>
                    <rect class="mock-text" id="Text-3" fill="#CCCCCC" x="45" y="43" width="149" height="4" rx="2"/>
                    <rect class="mock-text" id="Text-4" fill="#666666" x="45" y="56" width="48" height="4" rx="2"/>
                    <rect class="mock-text" id="Text-5" fill="#666666" x="124" y="56" width="48" height="4" rx="2"/>
                    <rect class="mock-text" id="Text-6" fill="#CCCCCC" x="211" y="14.5" width="97" height="4" rx="2"/>
                    <rect class="mock-text" id="Text-7" fill="#666666" x="274" y="55" width="34" height="4" rx="2"/>
                </g>
                <g class="itinerary-3-card" id="Card-3.4" transform="translate(6.000000, 313.000000)">
                    <g id="Card">
                        <mask id="itinerary-3-mask-15" fill="white">
                            <use xlink:href="#itinerary-3-path-14"/>
                        </mask>
                        <g id="White-Background">
                            <use fill="black" fill-opacity="1" filter="url(#itinerary-3-filter-16)" xlink:href="#itinerary-3-path-14"/>
                            <use fill="#FFFFFF" fill-rule="evenodd" xlink:href="#itinerary-3-path-14"/>
                        </g>
                        <rect id="Green-Stripe" fill="#7ED321" mask="url(#itinerary-3-mask-15)" x="0" y="-2" width="313" height="4"/>
                    </g>
                    <g id="Icon-Plane" transform="translate(11.000000, 13.000000)">
                        <mask id="itinerary-3-mask-18" fill="white">
                            <use xlink:href="#itinerary-3-path-17"/>
                        </mask>
                        <use id="Airplane" fill="#CCCCCC" xlink:href="#itinerary-3-path-17"/>
                    </g>
                    <rect class="mock-text" id="Text-1" fill="#666666" x="45" y="10" width="34" height="4" rx="2"/>
                    <rect class="mock-text" id="Text-2" fill="#CCCCCC" x="45" y="22" width="42" height="4" rx="2"/>
                    <rect class="mock-text" id="Text-3" fill="#666666" x="45" y="37" width="55" height="4" rx="2"/>
                    <rect class="mock-text" id="Text-4" fill="#CCCCCC" x="45" y="49" width="63" height="4" rx="2"/>
                    <rect class="mock-text" id="Text-5" fill="#666666" x="125" y="10" width="34" height="4" rx="2"/>
                    <rect class="mock-text" id="Text-6" fill="#CCCCCC" x="125" y="22" width="34" height="4" rx="2"/>
                    <rect class="mock-text" id="Text-7" fill="#666666" x="125" y="37" width="47" height="4" rx="2"/>
                    <rect class="mock-text" id="Text-8" fill="#CCCCCC" x="211" y="10" width="97" height="4" rx="2"/>
                    <rect class="mock-text" id="Text-9" fill="#666666" x="274" y="25" width="34" height="4" rx="2"/>
                </g>
                <g class="itinerary-3-date" id="Date-3.1" transform="translate(0.000000, 63.000000)">
                    <path d="M156,11.198748 L319,11.198748" id="Dotted-Line" stroke="#979797" opacity="0.2" stroke-linecap="square" stroke-dasharray="2,4"/>
                    <g id="Grey-Rectangle">
                        <use fill="black" fill-opacity="1" filter="url(#itinerary-3-filter-20)" xlink:href="#itinerary-3-path-19"/>
                        <use fill-opacity="0.6" fill="#333333" fill-rule="evenodd" xlink:href="#itinerary-3-path-19"/>
                    </g>
                    <path d="M18.64,16 L17.04,16 C16.928,16 16.864,15.936 16.832,15.84 L14.944,9.072 L14.912,9.072 L13.008,15.84 C12.976,15.936 12.912,16 12.8,16 L11.2,16 C11.104,16 11.04,15.936 11.008,15.84 L8.192,5.28 C8.176,5.184 8.208,5.12 8.32,5.12 L10.384,5.12 C10.496,5.12 10.56,5.184 10.576,5.28 L12.144,12.112 L12.176,12.112 L14.032,5.28 C14.064,5.184 14.128,5.12 14.24,5.12 L15.632,5.12 C15.728,5.12 15.792,5.184 15.824,5.28 L17.744,12.112 L17.776,12.112 L19.28,5.28 C19.296,5.168 19.36,5.12 19.472,5.12 L21.52,5.12 C21.632,5.12 21.664,5.184 21.648,5.28 L18.848,15.84 C18.832,15.936 18.752,16 18.64,16 Z M22.88,15.84 L22.88,5.28 C22.88,5.184 22.944,5.12 23.04,5.12 L30.016,5.12 C30.112,5.12 30.176,5.184 30.176,5.28 L30.176,6.992 C30.176,7.088 30.112,7.152 30.016,7.152 L25.328,7.152 C25.264,7.152 25.232,7.184 25.232,7.248 L25.232,9.408 C25.232,9.472 25.264,9.504 25.328,9.504 L29.232,9.504 C29.328,9.504 29.392,9.568 29.392,9.664 L29.392,11.36 C29.392,11.456 29.328,11.52 29.232,11.52 L25.328,11.52 C25.264,11.52 25.232,11.552 25.232,11.616 L25.232,13.872 C25.232,13.936 25.264,13.968 25.328,13.968 L30.016,13.968 C30.112,13.968 30.176,14.032 30.176,14.128 L30.176,15.84 C30.176,15.936 30.112,16 30.016,16 L23.04,16 C22.944,16 22.88,15.936 22.88,15.84 Z M31.92,15.84 L31.92,5.28 C31.92,5.184 31.984,5.12 32.08,5.12 L36.128,5.12 C38.032,5.12 39.36,5.936 39.888,7.568 C40.08,8.176 40.176,8.784 40.176,10.56 C40.176,12.336 40.08,12.944 39.888,13.552 C39.36,15.184 38.032,16 36.128,16 L32.08,16 C31.984,16 31.92,15.936 31.92,15.84 Z M34.272,13.808 C34.272,13.872 34.304,13.904 34.368,13.904 L35.6,13.904 C36.688,13.904 37.344,13.584 37.616,12.704 C37.728,12.384 37.792,11.968 37.792,10.56 C37.792,9.152 37.728,8.736 37.616,8.416 C37.344,7.536 36.688,7.216 35.6,7.216 L34.368,7.216 C34.304,7.216 34.272,7.248 34.272,7.312 L34.272,13.808 Z M41.92,17.552 L41.92,13.92 C41.92,13.824 41.984,13.76 42.08,13.76 L43.888,13.76 C43.984,13.76 44.048,13.824 44.048,13.92 L44.048,15.856 C44.048,16 44,16.08 43.904,16.176 L42.32,17.616 C42.224,17.696 42.16,17.728 42.08,17.728 C41.984,17.728 41.92,17.664 41.92,17.552 Z M49.824,15.84 L49.824,5.28 C49.824,5.184 49.888,5.12 49.984,5.12 L51.888,5.12 C52.016,5.12 52.096,5.168 52.144,5.28 L54.896,11.488 L54.96,11.488 L57.664,5.28 C57.712,5.168 57.792,5.12 57.92,5.12 L59.792,5.12 C59.888,5.12 59.952,5.184 59.952,5.28 L59.952,15.84 C59.952,15.936 59.888,16 59.792,16 L57.984,16 C57.888,16 57.824,15.936 57.824,15.84 L57.824,9.712 L57.76,9.712 L55.744,14.304 C55.68,14.448 55.584,14.512 55.44,14.512 L54.336,14.512 C54.192,14.512 54.096,14.448 54.032,14.304 L52.016,9.712 L51.952,9.712 L51.952,15.84 C51.952,15.936 51.888,16 51.792,16 L49.984,16 C49.888,16 49.824,15.936 49.824,15.84 Z M61.216,15.84 L64.96,5.28 C64.992,5.184 65.056,5.12 65.168,5.12 L67.184,5.12 C67.296,5.12 67.36,5.184 67.392,5.28 L71.072,15.84 C71.104,15.936 71.072,16 70.96,16 L68.88,16 C68.768,16 68.704,15.952 68.672,15.84 L68.048,13.936 L64.24,13.936 L63.632,15.84 C63.6,15.952 63.536,16 63.424,16 L61.328,16 C61.216,16 61.184,15.936 61.216,15.84 Z M64.896,11.936 L67.408,11.936 L66.176,8.128 L66.128,8.128 L64.896,11.936 Z M76.848,16 L74.816,16 C74.72,16 74.656,15.936 74.656,15.84 L74.656,11.664 L71.44,5.28 C71.408,5.2 71.44,5.12 71.552,5.12 L73.632,5.12 C73.744,5.12 73.824,5.168 73.872,5.28 L75.84,9.248 L75.888,9.248 L77.856,5.28 C77.904,5.168 77.984,5.12 78.096,5.12 L80.112,5.12 C80.224,5.12 80.272,5.2 80.224,5.28 L77.008,11.664 L77.008,15.84 C77.008,15.936 76.944,16 76.848,16 Z M88.032,15.84 L88.032,7.648 L88,7.648 L86.272,8.832 C86.176,8.896 86.096,8.864 86.096,8.736 L86.096,6.752 C86.096,6.656 86.128,6.592 86.208,6.528 L88.032,5.216 C88.112,5.152 88.208,5.12 88.32,5.12 L90.112,5.12 C90.208,5.12 90.272,5.184 90.272,5.28 L90.272,15.84 C90.272,15.936 90.208,16 90.112,16 L88.192,16 C88.096,16 88.032,15.936 88.032,15.84 Z M94.016,17.552 L94.016,13.92 C94.016,13.824 94.08,13.76 94.176,13.76 L95.984,13.76 C96.08,13.76 96.144,13.824 96.144,13.92 L96.144,15.856 C96.144,16 96.096,16.08 96,16.176 L94.416,17.616 C94.32,17.696 94.256,17.728 94.176,17.728 C94.08,17.728 94.016,17.664 94.016,17.552 Z M101.92,15.84 L101.92,14.352 C101.92,14.256 101.936,14.208 102,14.128 L105.824,9.584 C106.24,9.104 106.464,8.64 106.464,8.08 C106.464,7.36 106.032,6.832 105.28,6.832 C104.544,6.832 104.096,7.28 104,8.112 C104,8.208 103.936,8.256 103.824,8.24 L102.064,7.952 C101.968,7.936 101.92,7.856 101.936,7.76 C102.048,6.256 103.264,4.944 105.36,4.944 C107.44,4.944 108.704,6.288 108.704,8.048 C108.704,9.088 108.288,9.904 107.6,10.688 L104.736,14.064 L104.736,14.096 L108.544,14.096 C108.64,14.096 108.704,14.16 108.704,14.256 L108.704,15.84 C108.704,15.936 108.64,16 108.544,16 L102.08,16 C101.984,16 101.92,15.936 101.92,15.84 Z M110.944,13.952 C110.784,13.472 110.704,12.976 110.704,10.56 C110.704,8.144 110.784,7.648 110.944,7.168 C111.392,5.776 112.512,4.944 114.224,4.944 C115.936,4.944 117.056,5.776 117.504,7.168 C117.664,7.648 117.744,8.144 117.744,10.56 C117.744,12.976 117.664,13.472 117.504,13.952 C117.056,15.344 115.936,16.176 114.224,16.176 C112.512,16.176 111.392,15.344 110.944,13.952 Z M113.12,13.552 C113.28,14.048 113.648,14.288 114.224,14.288 C114.784,14.288 115.168,14.048 115.328,13.552 C115.424,13.264 115.456,12.944 115.456,10.56 C115.456,8.176 115.424,7.856 115.328,7.568 C115.168,7.072 114.784,6.832 114.224,6.832 C113.648,6.832 113.28,7.072 113.12,7.568 C113.024,7.856 112.992,8.176 112.992,10.56 C112.992,12.944 113.024,13.264 113.12,13.552 Z M122.544,15.84 L122.544,7.648 L122.512,7.648 L120.784,8.832 C120.688,8.896 120.608,8.864 120.608,8.736 L120.608,6.752 C120.608,6.656 120.64,6.592 120.72,6.528 L122.544,5.216 C122.624,5.152 122.72,5.12 122.832,5.12 L124.624,5.12 C124.72,5.12 124.784,5.184 124.784,5.28 L124.784,15.84 C124.784,15.936 124.72,16 124.624,16 L122.704,16 C122.608,16 122.544,15.936 122.544,15.84 Z M129.888,15.84 L132.192,11.632 L132.16,11.6 C132.048,11.648 131.776,11.696 131.488,11.696 C129.776,11.696 128.368,10.416 128.368,8.416 C128.368,6.224 129.952,4.944 132.016,4.944 C134.096,4.944 135.664,6.224 135.664,8.368 C135.664,9.296 135.376,10.128 134.864,11.056 L132.224,15.888 C132.176,15.984 132.144,16 132.032,16 L130,16 C129.872,16 129.84,15.936 129.888,15.84 Z M132.016,9.856 C132.896,9.856 133.456,9.232 133.456,8.336 C133.456,7.456 132.896,6.832 132.016,6.832 C131.136,6.832 130.576,7.456 130.576,8.336 C130.576,9.232 131.136,9.856 132.016,9.856 Z" id="WED,MAY1,2019" fill="#FFFFFF" fill-rule="nonzero"/>
                </g>
                <g class="itinerary-3-date" id="Date-3.2" transform="translate(0.000000, 281.000000)">
                    <path d="M156,10.5 L319,10.5" id="Dotted-Line" stroke="#979797" opacity="0.2" stroke-linecap="square" stroke-dasharray="2,4"/>
                    <g id="Grey-Rectangle">
                        <use fill="black" fill-opacity="1" filter="url(#itinerary-3-filter-22)" xlink:href="#itinerary-3-path-21"/>
                        <use fill-opacity="0.6" fill="#333333" fill-rule="evenodd" xlink:href="#itinerary-3-path-21"/>
                    </g>
                    <path d="M9.04,15.84 L9.04,5.28 C9.04,5.184 9.104,5.12 9.2,5.12 L11.104,5.12 C11.232,5.12 11.312,5.168 11.36,5.28 L14.112,11.488 L14.176,11.488 L16.88,5.28 C16.928,5.168 17.008,5.12 17.136,5.12 L19.008,5.12 C19.104,5.12 19.168,5.184 19.168,5.28 L19.168,15.84 C19.168,15.936 19.104,16 19.008,16 L17.2,16 C17.104,16 17.04,15.936 17.04,15.84 L17.04,9.712 L16.976,9.712 L14.96,14.304 C14.896,14.448 14.8,14.512 14.656,14.512 L13.552,14.512 C13.408,14.512 13.312,14.448 13.248,14.304 L11.232,9.712 L11.168,9.712 L11.168,15.84 C11.168,15.936 11.104,16 11.008,16 L9.2,16 C9.104,16 9.04,15.936 9.04,15.84 Z M25.232,16.176 C23.328,16.176 21.824,15.296 21.264,13.536 C21.024,12.784 20.96,12.176 20.96,10.56 C20.96,8.944 21.024,8.336 21.264,7.584 C21.824,5.824 23.328,4.944 25.232,4.944 C27.136,4.944 28.64,5.824 29.2,7.584 C29.44,8.336 29.504,8.944 29.504,10.56 C29.504,12.176 29.44,12.784 29.2,13.536 C28.64,15.296 27.136,16.176 25.232,16.176 Z M25.232,14.096 C26.128,14.096 26.704,13.648 26.944,12.896 C27.072,12.512 27.12,11.984 27.12,10.56 C27.12,9.136 27.072,8.608 26.944,8.224 C26.704,7.472 26.128,7.024 25.232,7.024 C24.336,7.024 23.76,7.472 23.52,8.224 C23.392,8.608 23.344,9.136 23.344,10.56 C23.344,11.984 23.392,12.512 23.52,12.896 C23.76,13.648 24.336,14.096 25.232,14.096 Z M31.296,15.84 L31.296,5.28 C31.296,5.184 31.36,5.12 31.456,5.12 L33.376,5.12 C33.488,5.12 33.584,5.168 33.648,5.28 L37.488,12.128 L37.568,12.128 L37.568,5.28 C37.568,5.184 37.632,5.12 37.728,5.12 L39.536,5.12 C39.632,5.12 39.696,5.184 39.696,5.28 L39.696,15.84 C39.696,15.936 39.632,16 39.536,16 L37.632,16 C37.504,16 37.424,15.952 37.36,15.84 L33.504,9.008 L33.424,9.008 L33.424,15.84 C33.424,15.936 33.36,16 33.264,16 L31.456,16 C31.36,16 31.296,15.936 31.296,15.84 Z M41.696,17.552 L41.696,13.92 C41.696,13.824 41.76,13.76 41.856,13.76 L43.664,13.76 C43.76,13.76 43.824,13.824 43.824,13.92 L43.824,15.856 C43.824,16 43.776,16.08 43.68,16.176 L42.096,17.616 C42,17.696 41.936,17.728 41.856,17.728 C41.76,17.728 41.696,17.664 41.696,17.552 Z M49.6,15.84 L49.6,5.28 C49.6,5.184 49.664,5.12 49.76,5.12 L51.664,5.12 C51.792,5.12 51.872,5.168 51.92,5.28 L54.672,11.488 L54.736,11.488 L57.44,5.28 C57.488,5.168 57.568,5.12 57.696,5.12 L59.568,5.12 C59.664,5.12 59.728,5.184 59.728,5.28 L59.728,15.84 C59.728,15.936 59.664,16 59.568,16 L57.76,16 C57.664,16 57.6,15.936 57.6,15.84 L57.6,9.712 L57.536,9.712 L55.52,14.304 C55.456,14.448 55.36,14.512 55.216,14.512 L54.112,14.512 C53.968,14.512 53.872,14.448 53.808,14.304 L51.792,9.712 L51.728,9.712 L51.728,15.84 C51.728,15.936 51.664,16 51.568,16 L49.76,16 C49.664,16 49.6,15.936 49.6,15.84 Z M60.992,15.84 L64.736,5.28 C64.768,5.184 64.832,5.12 64.944,5.12 L66.96,5.12 C67.072,5.12 67.136,5.184 67.168,5.28 L70.848,15.84 C70.88,15.936 70.848,16 70.736,16 L68.656,16 C68.544,16 68.48,15.952 68.448,15.84 L67.824,13.936 L64.016,13.936 L63.408,15.84 C63.376,15.952 63.312,16 63.2,16 L61.104,16 C60.992,16 60.96,15.936 60.992,15.84 Z M64.672,11.936 L67.184,11.936 L65.952,8.128 L65.904,8.128 L64.672,11.936 Z M76.624,16 L74.592,16 C74.496,16 74.432,15.936 74.432,15.84 L74.432,11.664 L71.216,5.28 C71.184,5.2 71.216,5.12 71.328,5.12 L73.408,5.12 C73.52,5.12 73.6,5.168 73.648,5.28 L75.616,9.248 L75.664,9.248 L77.632,5.28 C77.68,5.168 77.76,5.12 77.872,5.12 L79.888,5.12 C80,5.12 80.048,5.2 80,5.28 L76.784,11.664 L76.784,15.84 C76.784,15.936 76.72,16 76.624,16 Z M84.736,12.752 C84.736,11.824 85.024,10.992 85.536,10.064 L88.176,5.232 C88.224,5.136 88.256,5.12 88.368,5.12 L90.4,5.12 C90.528,5.12 90.56,5.184 90.512,5.28 L88.208,9.488 L88.24,9.52 C88.352,9.472 88.624,9.424 88.912,9.424 C90.624,9.424 92.032,10.704 92.032,12.704 C92.032,14.896 90.448,16.176 88.384,16.176 C86.304,16.176 84.736,14.896 84.736,12.752 Z M86.944,12.784 C86.944,13.664 87.504,14.288 88.384,14.288 C89.264,14.288 89.824,13.664 89.824,12.784 C89.824,11.888 89.264,11.264 88.384,11.264 C87.504,11.264 86.944,11.888 86.944,12.784 Z M93.792,17.552 L93.792,13.92 C93.792,13.824 93.856,13.76 93.952,13.76 L95.76,13.76 C95.856,13.76 95.92,13.824 95.92,13.92 L95.92,15.856 C95.92,16 95.872,16.08 95.776,16.176 L94.192,17.616 C94.096,17.696 94.032,17.728 93.952,17.728 C93.856,17.728 93.792,17.664 93.792,17.552 Z M101.696,15.84 L101.696,14.352 C101.696,14.256 101.712,14.208 101.776,14.128 L105.6,9.584 C106.016,9.104 106.24,8.64 106.24,8.08 C106.24,7.36 105.808,6.832 105.056,6.832 C104.32,6.832 103.872,7.28 103.776,8.112 C103.776,8.208 103.712,8.256 103.6,8.24 L101.84,7.952 C101.744,7.936 101.696,7.856 101.712,7.76 C101.824,6.256 103.04,4.944 105.136,4.944 C107.216,4.944 108.48,6.288 108.48,8.048 C108.48,9.088 108.064,9.904 107.376,10.688 L104.512,14.064 L104.512,14.096 L108.32,14.096 C108.416,14.096 108.48,14.16 108.48,14.256 L108.48,15.84 C108.48,15.936 108.416,16 108.32,16 L101.856,16 C101.76,16 101.696,15.936 101.696,15.84 Z M110.72,13.952 C110.56,13.472 110.48,12.976 110.48,10.56 C110.48,8.144 110.56,7.648 110.72,7.168 C111.168,5.776 112.288,4.944 114,4.944 C115.712,4.944 116.832,5.776 117.28,7.168 C117.44,7.648 117.52,8.144 117.52,10.56 C117.52,12.976 117.44,13.472 117.28,13.952 C116.832,15.344 115.712,16.176 114,16.176 C112.288,16.176 111.168,15.344 110.72,13.952 Z M112.896,13.552 C113.056,14.048 113.424,14.288 114,14.288 C114.56,14.288 114.944,14.048 115.104,13.552 C115.2,13.264 115.232,12.944 115.232,10.56 C115.232,8.176 115.2,7.856 115.104,7.568 C114.944,7.072 114.56,6.832 114,6.832 C113.424,6.832 113.056,7.072 112.896,7.568 C112.8,7.856 112.768,8.176 112.768,10.56 C112.768,12.944 112.8,13.264 112.896,13.552 Z M122.32,15.84 L122.32,7.648 L122.288,7.648 L120.56,8.832 C120.464,8.896 120.384,8.864 120.384,8.736 L120.384,6.752 C120.384,6.656 120.416,6.592 120.496,6.528 L122.32,5.216 C122.4,5.152 122.496,5.12 122.608,5.12 L124.4,5.12 C124.496,5.12 124.56,5.184 124.56,5.28 L124.56,15.84 C124.56,15.936 124.496,16 124.4,16 L122.48,16 C122.384,16 122.32,15.936 122.32,15.84 Z M129.664,15.84 L131.968,11.632 L131.936,11.6 C131.824,11.648 131.552,11.696 131.264,11.696 C129.552,11.696 128.144,10.416 128.144,8.416 C128.144,6.224 129.728,4.944 131.792,4.944 C133.872,4.944 135.44,6.224 135.44,8.368 C135.44,9.296 135.152,10.128 134.64,11.056 L132,15.888 C131.952,15.984 131.92,16 131.808,16 L129.776,16 C129.648,16 129.616,15.936 129.664,15.84 Z M131.792,9.856 C132.672,9.856 133.232,9.232 133.232,8.336 C133.232,7.456 132.672,6.832 131.792,6.832 C130.912,6.832 130.352,7.456 130.352,8.336 C130.352,9.232 130.912,9.856 131.792,9.856 Z" id="MON,MAY6,2019" fill="#FFFFFF" fill-rule="nonzero"/>
                </g>
                <g id="Button-3" transform="translate(31.000000, 402.000000)">
                    <g id="Rounded-Rectangle">
                        <use fill="black" fill-opacity="1" filter="url(#itinerary-3-filter-24)" xlink:href="#itinerary-3-path-23"/>
                        <use fill="#4C8CA7" fill-rule="evenodd" xlink:href="#itinerary-3-path-23"/>
                    </g>
                    <path d="M90.06,27.8 L90.06,14.6 C90.06,14.48 90.14,14.4 90.26,14.4 L95.32,14.4 C98.2,14.4 99.56,15.84 99.56,18.02 C99.56,19.56 98.84,20.44 97.98,20.9 L97.98,20.94 C98.82,21.26 99.8,22.34 99.8,24 C99.8,26.7 98.1,28 95.12,28 L90.26,28 C90.14,28 90.06,27.92 90.06,27.8 Z M92.54,20.06 L95.26,20.06 C96.46,20.06 97.2,19.34 97.2,18.28 C97.2,17.2 96.46,16.48 95.26,16.48 L92.54,16.48 C92.46,16.48 92.42,16.52 92.42,16.6 L92.42,19.94 C92.42,20.02 92.46,20.06 92.54,20.06 Z M92.42,25.8 C92.42,25.88 92.46,25.92 92.54,25.92 L95.38,25.92 C96.7,25.92 97.44,25.16 97.44,24.02 C97.44,22.9 96.7,22.14 95.38,22.14 L92.54,22.14 C92.46,22.14 92.42,22.18 92.42,22.26 L92.42,25.8 Z M105.94,28.22 C103.98,28.22 102.5,27.24 101.96,25.56 C101.74,24.88 101.64,24.24 101.64,23.18 C101.64,22.12 101.74,21.48 101.96,20.8 C102.5,19.12 103.98,18.14 105.94,18.14 C107.88,18.14 109.36,19.12 109.9,20.8 C110.12,21.48 110.22,22.12 110.22,23.18 C110.22,24.24 110.12,24.88 109.9,25.56 C109.36,27.24 107.88,28.22 105.94,28.22 Z M105.94,26.22 C106.84,26.22 107.46,25.76 107.74,24.96 C107.9,24.46 107.94,24 107.94,23.18 C107.94,22.36 107.9,21.92 107.74,21.4 C107.46,20.6 106.84,20.14 105.94,20.14 C105.04,20.14 104.4,20.6 104.12,21.4 C103.96,21.92 103.92,22.36 103.92,23.18 C103.92,24 103.96,24.46 104.12,24.96 C104.4,25.76 105.04,26.22 105.94,26.22 Z M116.4,28.22 C114.44,28.22 112.96,27.24 112.42,25.56 C112.2,24.88 112.1,24.24 112.1,23.18 C112.1,22.12 112.2,21.48 112.42,20.8 C112.96,19.12 114.44,18.14 116.4,18.14 C118.34,18.14 119.82,19.12 120.36,20.8 C120.58,21.48 120.68,22.12 120.68,23.18 C120.68,24.24 120.58,24.88 120.36,25.56 C119.82,27.24 118.34,28.22 116.4,28.22 Z M116.4,26.22 C117.3,26.22 117.92,25.76 118.2,24.96 C118.36,24.46 118.4,24 118.4,23.18 C118.4,22.36 118.36,21.92 118.2,21.4 C117.92,20.6 117.3,20.14 116.4,20.14 C115.5,20.14 114.86,20.6 114.58,21.4 C114.42,21.92 114.38,22.36 114.38,23.18 C114.38,24 114.42,24.46 114.58,24.96 C114.86,25.76 115.5,26.22 116.4,26.22 Z M131.48,28 L129.38,28 C129.24,28 129.14,27.94 129.06,27.8 L126.62,23.76 L125.32,25.26 L125.32,27.8 C125.32,27.92 125.24,28 125.12,28 L123.28,28 C123.16,28 123.08,27.92 123.08,27.8 L123.08,14.6 C123.08,14.48 123.16,14.4 123.28,14.4 L125.12,14.4 C125.24,14.4 125.32,14.48 125.32,14.6 L125.32,22.44 L128.62,18.56 C128.74,18.42 128.84,18.36 129,18.36 L131.04,18.36 C131.16,18.36 131.2,18.48 131.12,18.56 L128.06,22.08 L131.58,27.8 C131.64,27.88 131.6,28 131.48,28 Z M138.28,27.8 L138.28,14.6 C138.28,14.48 138.36,14.4 138.48,14.4 L140.32,14.4 C140.48,14.4 140.58,14.46 140.66,14.6 L146.2,23.98 L146.28,23.98 L146.28,14.6 C146.28,14.48 146.36,14.4 146.48,14.4 L148.22,14.4 C148.34,14.4 148.42,14.48 148.42,14.6 L148.42,27.8 C148.42,27.92 148.34,28 148.22,28 L146.4,28 C146.24,28 146.14,27.94 146.06,27.8 L140.5,18.44 L140.42,18.44 L140.42,27.8 C140.42,27.92 140.34,28 140.22,28 L138.48,28 C138.36,28 138.28,27.92 138.28,27.8 Z M155.16,28.22 C153.2,28.22 151.72,27.24 151.18,25.56 C150.96,24.88 150.86,24.24 150.86,23.18 C150.86,22.12 150.96,21.48 151.18,20.8 C151.72,19.12 153.2,18.14 155.16,18.14 C157.1,18.14 158.58,19.12 159.12,20.8 C159.34,21.48 159.44,22.12 159.44,23.18 C159.44,24.24 159.34,24.88 159.12,25.56 C158.58,27.24 157.1,28.22 155.16,28.22 Z M155.16,26.22 C156.06,26.22 156.68,25.76 156.96,24.96 C157.12,24.46 157.16,24 157.16,23.18 C157.16,22.36 157.12,21.92 156.96,21.4 C156.68,20.6 156.06,20.14 155.16,20.14 C154.26,20.14 153.62,20.6 153.34,21.4 C153.18,21.92 153.14,22.36 153.14,23.18 C153.14,24 153.18,24.46 153.34,24.96 C153.62,25.76 154.26,26.22 155.16,26.22 Z M171.68,28 L170.04,28 C169.92,28 169.84,27.92 169.8,27.8 L167.94,21.64 L167.9,21.64 L166.02,27.8 C165.98,27.92 165.9,28 165.78,28 L164.14,28 C164.02,28 163.94,27.92 163.9,27.8 L160.86,18.56 C160.82,18.44 160.88,18.36 161,18.36 L162.92,18.36 C163.06,18.36 163.14,18.42 163.18,18.56 L165.04,24.92 L165.08,24.92 L166.92,18.56 C166.96,18.44 167.06,18.36 167.18,18.36 L168.62,18.36 C168.74,18.36 168.84,18.44 168.88,18.56 L170.84,24.92 L170.88,24.92 L172.64,18.56 C172.68,18.42 172.76,18.36 172.9,18.36 L174.82,18.36 C174.94,18.36 175,18.44 174.96,18.56 L171.92,27.8 C171.88,27.92 171.8,28 171.68,28 Z" id="BookNow" fill="#F7F7F7" fill-rule="nonzero"/>
                </g>
            </g>
        </g>
    </g>
</svg>