<?xml version="1.0" encoding="UTF-8"?>
<svg id="itinerary-2" width="327px" height="454px" viewBox="0 0 327 454" version="1.1" xmlns="http://www.w3.org/2000/svg" xmlns:xlink="http://www.w3.org/1999/xlink">
    <!-- Generator: Sketch 53.2 (72643) - https://sketchapp.com -->
    <title>Itinerary 2</title>
    <desc>Created with Sketch.</desc>
    <defs>
        <rect id="itinerary-2-path-1" x="0" y="0" width="313" height="47" rx="4"></rect>
        <filter x="-1.0%" y="-6.4%" width="101.9%" height="112.8%" filterUnits="objectBoundingBox" id="itinerary-2-filter-3">
            <feOffset dx="0" dy="0" in="SourceAlpha" result="shadowOffsetOuter1"></feOffset>
            <feGaussianBlur stdDeviation="1" in="shadowOffsetOuter1" result="shadowBlurOuter1"></feGaussianBlur>
            <feColorMatrix values="0 0 0 0 0   0 0 0 0 0   0 0 0 0 0  0 0 0 0.257048234 0" type="matrix" in="shadowBlurOuter1"></feColorMatrix>
        </filter>
        <polygon id="itinerary-2-path-4" points="7.0625 0 8 0.75 4 3.95 0 0.75 0.9375 0 4 2.45"></polygon>
        <rect id="itinerary-2-path-6" x="0" y="0" width="313" height="65" rx="4"></rect>
        <filter x="-2.2%" y="-7.7%" width="104.5%" height="121.5%" filterUnits="objectBoundingBox" id="itinerary-2-filter-8">
            <feOffset dx="0" dy="2" in="SourceAlpha" result="shadowOffsetOuter1"></feOffset>
            <feGaussianBlur stdDeviation="2" in="shadowOffsetOuter1" result="shadowBlurOuter1"></feGaussianBlur>
            <feColorMatrix values="0 0 0 0 0   0 0 0 0 0   0 0 0 0 0  0 0 0 0.245103034 0" type="matrix" in="shadowBlurOuter1"></feColorMatrix>
        </filter>
        <path d="M16.3340183,18.4606537 L17.7700568,17.0246153 C17.8570894,16.9375827 17.9006057,16.8070337 17.8570894,16.7200011 L16.0294041,7.7121235 C15.9858878,7.58157455 16.0294041,7.49454192 16.1164367,7.40750928 L20.2069705,3.31697551 C20.9032316,2.62071444 20.9032316,1.4892902 20.2069705,0.793029135 L20.2069705,0.793029135 C19.5107094,0.0967680662 18.3792852,0.0967680662 17.6830241,0.793029135 L13.4619414,5.01411186 C13.3749088,5.1011445 13.2878761,5.14466081 13.1573272,5.1011445 L4.01890065,3.40400814 C3.8883517,3.40400814 3.80131907,3.40400814 3.71428644,3.49104077 L2.23473167,5.01411186 C2.0606664,5.18817713 2.10418272,5.49279135 2.3217643,5.57982398 L9.24085867,8.62596615 C9.45844025,8.71299879 9.50195657,9.017613 9.3278913,9.19167827 L4.84571067,13.6738589 C4.75867804,13.7608915 4.62812909,13.8044078 4.54109645,13.7608915 L1.58198691,13.1516631 C1.45143796,13.1081468 1.36440533,13.1516631 1.2773727,13.2386957 L0.407046361,14.1090221 C0.232981094,14.2830873 0.276497411,14.5441852 0.494078995,14.6747342 L3.45318854,16.1107726 C3.45318854,16.154289 3.49670485,16.154289 3.54022117,16.1978053 L4.80219436,17.4597785 C4.84571067,17.5032948 4.84571067,17.5032948 4.84571067,17.5468111 L6.36878176,20.5494369 C6.45581439,20.7670185 6.76042861,20.8105348 6.93449388,20.6364696 L7.67427126,19.8966922 C7.7613039,19.8096596 7.80482021,19.6791106 7.7613039,19.592078 L7.15207546,16.5894521 C7.10855914,16.4589032 7.15207546,16.3718705 7.23910809,16.2848379 L11.9823866,11.5415594 C12.1564519,11.3674941 12.4175498,11.4110104 12.5480987,11.628592 L15.8118225,18.3736211 C15.8988551,18.5912027 16.159953,18.634719 16.3340183,18.4606537 Z" id="itinerary-2-path-9"></path>
        <rect id="itinerary-2-path-11" x="0" y="0" width="313" height="92" rx="4"></rect>
        <filter x="-2.2%" y="-5.4%" width="104.5%" height="115.2%" filterUnits="objectBoundingBox" id="itinerary-2-filter-13">
            <feOffset dx="0" dy="2" in="SourceAlpha" result="shadowOffsetOuter1"></feOffset>
            <feGaussianBlur stdDeviation="2" in="shadowOffsetOuter1" result="shadowBlurOuter1"></feGaussianBlur>
            <feColorMatrix values="0 0 0 0 0   0 0 0 0 0   0 0 0 0 0  0 0 0 0.245103034 0" type="matrix" in="shadowBlurOuter1"></feColorMatrix>
        </filter>
        <path d="M20.5957708,15.1649387 L12.6219405,1.23704053 C12.1849991,0.474081056 11.3709329,0 10.4970501,0 C9.62316724,0 8.809101,0.474081056 8.37215959,1.23704053 L0.327530814,15.2888784 C-0.109176938,16.0518379 -0.109176938,16.9997644 0.327530814,17.7629595 C0.764472224,18.5259189 1.57853847,19 2.45242129,19 L18.5465857,19 C19.8994684,19 21,17.8901979 21,16.5259189 C20.9997663,16.039114 20.8602722,15.5692743 20.5957708,15.1649387 Z M18.546352,17.350377 L2.45242129,17.350377 C2.16128279,17.350377 1.8897716,17.1922714 1.74420235,16.9380302 C1.5986331,16.6835533 1.5986331,16.3675778 1.74420235,16.1133365 L9.78906478,2.06196984 C9.93463403,1.80749293 10.2061452,1.649623 10.4972837,1.649623 C10.7884222,1.649623 11.0599334,1.80772856 11.2055027,2.06196984 L19.1928851,16.0129595 C19.2026988,16.0301602 19.2132134,16.0471254 19.224429,16.0636192 C19.3162568,16.1998115 19.3646241,16.3598021 19.3646241,16.5259189 C19.3641568,16.980443 18.9973129,17.350377 18.546352,17.350377 Z M10.4993866,12.7822809 C11.004089,12.7822809 11.4134587,12.3696984 11.4134587,11.860509 L11.4134587,7.06998115 C11.4134587,6.56079171 11.004089,6.14820924 10.4993866,6.14820924 C9.99468427,6.14820924 9.58531456,6.56079171 9.58531456,7.06998115 L9.58531456,11.860509 C9.58531456,12.3696984 9.99468427,12.7822809 10.4993866,12.7822809 Z M10.4993866,13.3230443 C10.1909574,13.3230443 9.89164087,13.4479265 9.67223553,13.6670594 C9.45493312,13.8861923 9.33109411,14.1901508 9.33109411,14.5011781 C9.33109411,14.8098492 9.45493312,15.1138077 9.67223553,15.3329406 C9.89164087,15.5520735 10.1930603,15.679312 10.4993866,15.679312 C10.8054793,15.679312 11.1068988,15.5520735 11.3242012,15.3329406 C11.5436065,15.1138077 11.6676792,14.8098492 11.6676792,14.5011781 C11.6676792,14.1901508 11.5438402,13.8861923 11.3242012,13.6670594 C11.1068988,13.4476909 10.8054793,13.3230443 10.4993866,13.3230443 Z" id="itinerary-2-path-14"></path>
        <rect id="itinerary-2-path-16" x="0" y="0" width="313" height="65" rx="4"></rect>
        <filter x="-2.2%" y="-7.7%" width="104.5%" height="121.5%" filterUnits="objectBoundingBox" id="itinerary-2-filter-18">
            <feOffset dx="0" dy="2" in="SourceAlpha" result="shadowOffsetOuter1"></feOffset>
            <feGaussianBlur stdDeviation="2" in="shadowOffsetOuter1" result="shadowBlurOuter1"></feGaussianBlur>
            <feColorMatrix values="0 0 0 0 0   0 0 0 0 0   0 0 0 0 0  0 0 0 0.245103034 0" type="matrix" in="shadowBlurOuter1"></feColorMatrix>
        </filter>
        <path d="M16.3340183,18.4606537 L17.7700568,17.0246153 C17.8570894,16.9375827 17.9006057,16.8070337 17.8570894,16.7200011 L16.0294041,7.7121235 C15.9858878,7.58157455 16.0294041,7.49454192 16.1164367,7.40750928 L20.2069705,3.31697551 C20.9032316,2.62071444 20.9032316,1.4892902 20.2069705,0.793029135 L20.2069705,0.793029135 C19.5107094,0.0967680662 18.3792852,0.0967680662 17.6830241,0.793029135 L13.4619414,5.01411186 C13.3749088,5.1011445 13.2878761,5.14466081 13.1573272,5.1011445 L4.01890065,3.40400814 C3.8883517,3.40400814 3.80131907,3.40400814 3.71428644,3.49104077 L2.23473167,5.01411186 C2.0606664,5.18817713 2.10418272,5.49279135 2.3217643,5.57982398 L9.24085867,8.62596615 C9.45844025,8.71299879 9.50195657,9.017613 9.3278913,9.19167827 L4.84571067,13.6738589 C4.75867804,13.7608915 4.62812909,13.8044078 4.54109645,13.7608915 L1.58198691,13.1516631 C1.45143796,13.1081468 1.36440533,13.1516631 1.2773727,13.2386957 L0.407046361,14.1090221 C0.232981094,14.2830873 0.276497411,14.5441852 0.494078995,14.6747342 L3.45318854,16.1107726 C3.45318854,16.154289 3.49670485,16.154289 3.54022117,16.1978053 L4.80219436,17.4597785 C4.84571067,17.5032948 4.84571067,17.5032948 4.84571067,17.5468111 L6.36878176,20.5494369 C6.45581439,20.7670185 6.76042861,20.8105348 6.93449388,20.6364696 L7.67427126,19.8966922 C7.7613039,19.8096596 7.80482021,19.6791106 7.7613039,19.592078 L7.15207546,16.5894521 C7.10855914,16.4589032 7.15207546,16.3718705 7.23910809,16.2848379 L11.9823866,11.5415594 C12.1564519,11.3674941 12.4175498,11.4110104 12.5480987,11.628592 L15.8118225,18.3736211 C15.8988551,18.5912027 16.159953,18.634719 16.3340183,18.4606537 Z" id="itinerary-2-path-19"></path>
        <rect id="itinerary-2-path-21" x="0" y="0" width="151" height="21"></rect>
        <filter x="-4.0%" y="-28.6%" width="107.9%" height="157.1%" filterUnits="objectBoundingBox" id="itinerary-2-filter-22">
            <feOffset dx="0" dy="0" in="SourceAlpha" result="shadowOffsetOuter1"></feOffset>
            <feGaussianBlur stdDeviation="2" in="shadowOffsetOuter1" result="shadowBlurOuter1"></feGaussianBlur>
            <feComposite in="shadowBlurOuter1" in2="SourceAlpha" operator="out" result="shadowBlurOuter1"></feComposite>
            <feColorMatrix values="0 0 0 0 0   0 0 0 0 0   0 0 0 0 0  0 0 0 0.253000453 0" type="matrix" in="shadowBlurOuter1"></feColorMatrix>
        </filter>
        <rect id="itinerary-2-path-23" x="0" y="0" width="151" height="21"></rect>
        <filter x="-4.0%" y="-28.6%" width="107.9%" height="157.1%" filterUnits="objectBoundingBox" id="itinerary-2-filter-24">
            <feOffset dx="0" dy="0" in="SourceAlpha" result="shadowOffsetOuter1"></feOffset>
            <feGaussianBlur stdDeviation="2" in="shadowOffsetOuter1" result="shadowBlurOuter1"></feGaussianBlur>
            <feComposite in="shadowBlurOuter1" in2="SourceAlpha" operator="out" result="shadowBlurOuter1"></feComposite>
            <feColorMatrix values="0 0 0 0 0   0 0 0 0 0   0 0 0 0 0  0 0 0 0.253000453 0" type="matrix" in="shadowBlurOuter1"></feColorMatrix>
        </filter>
        <path d="M0,2.4916997 C0,1.11557195 1.11965717,0 2.50728552,0 L261.492714,0 C262.87745,0 264,1.10965268 264,2.4916997 L264,41.5083003 C264,42.884428 262.880343,44 261.492714,44 L2.50728552,44 C1.12254997,44 0,42.8903473 0,41.5083003 L0,2.4916997 Z" id="itinerary-2-path-25"></path>
        <filter x="-2.7%" y="-11.4%" width="105.3%" height="131.8%" filterUnits="objectBoundingBox" id="itinerary-2-filter-26">
            <feOffset dx="0" dy="2" in="SourceAlpha" result="shadowOffsetOuter1"></feOffset>
            <feGaussianBlur stdDeviation="2" in="shadowOffsetOuter1" result="shadowBlurOuter1"></feGaussianBlur>
            <feColorMatrix values="0 0 0 0 0   0 0 0 0 0   0 0 0 0 0  0 0 0 0.248907343 0" type="matrix" in="shadowBlurOuter1"></feColorMatrix>
        </filter>
    </defs>
    <g id="Website-Animations" stroke="none" stroke-width="1" fill="none" fill-rule="evenodd">
        <g id="Artboard-Copy-2" transform="translate(-433.000000, -68.000000)">
            <g id="Itinerary-2" transform="translate(437.000000, 70.000000)">
                <g class="itinerary-2-card" id="Card-2.1" transform="translate(4.000000, 0.000000)">
                    <g id="Card">
                        <mask id="itinerary-2-mask-2" fill="white">
                            <use xlink:href="#itinerary-2-path-1"></use>
                        </mask>
                        <g id="White-Background">
                            <use fill="black" fill-opacity="1" filter="url(#itinerary-2-filter-3)" xlink:href="#itinerary-2-path-1"></use>
                            <use fill="#FFFFFF" fill-rule="evenodd" xlink:href="#itinerary-2-path-1"></use>
                        </g>
                        <rect id="Green-Stripe" fill="#7ED321" mask="url(#itinerary-2-mask-2)" x="0" y="-2" width="313" height="4"></rect>
                    </g>
                    <path d="M242.03,19 L241.34,19 C241.28,19 241.24,18.96 241.24,18.9 L241.24,13.09 C241.24,13.05 241.22,13.03 241.18,13.03 L239.32,13.03 C239.26,13.03 239.22,12.99 239.22,12.93 L239.22,12.3 C239.22,12.24 239.26,12.2 239.32,12.2 L244.05,12.2 C244.11,12.2 244.15,12.24 244.15,12.3 L244.15,12.93 C244.15,12.99 244.11,13.03 244.05,13.03 L242.19,13.03 C242.15,13.03 242.13,13.05 242.13,13.09 L242.13,18.9 C242.13,18.96 242.09,19 242.03,19 Z M247.22,19.11 C246.08,19.11 245.26,18.57 244.91,17.52 C244.78,17.13 244.73,16.72 244.73,15.6 C244.73,14.48 244.78,14.07 244.91,13.68 C245.26,12.63 246.08,12.09 247.22,12.09 C248.37,12.09 249.19,12.63 249.54,13.68 C249.67,14.07 249.72,14.48 249.72,15.6 C249.72,16.72 249.67,17.13 249.54,17.52 C249.19,18.57 248.37,19.11 247.22,19.11 Z M247.22,18.28 C247.98,18.28 248.46,17.92 248.67,17.27 C248.75,17.02 248.82,16.58 248.82,15.6 C248.82,14.62 248.75,14.18 248.67,13.93 C248.46,13.28 247.98,12.92 247.22,12.92 C246.47,12.92 245.99,13.28 245.78,13.93 C245.7,14.18 245.63,14.62 245.63,15.6 C245.63,16.58 245.7,17.02 245.78,17.27 C245.99,17.92 246.47,18.28 247.22,18.28 Z M253.11,19 L252.42,19 C252.36,19 252.32,18.96 252.32,18.9 L252.32,13.09 C252.32,13.05 252.3,13.03 252.26,13.03 L250.4,13.03 C250.34,13.03 250.3,12.99 250.3,12.93 L250.3,12.3 C250.3,12.24 250.34,12.2 250.4,12.2 L255.13,12.2 C255.19,12.2 255.23,12.24 255.23,12.3 L255.23,12.93 C255.23,12.99 255.19,13.03 255.13,13.03 L253.27,13.03 C253.23,13.03 253.21,13.05 253.21,13.09 L253.21,18.9 C253.21,18.96 253.17,19 253.11,19 Z M254.97,18.9 L257.33,12.3 C257.35,12.24 257.38,12.2 257.45,12.2 L258.1,12.2 C258.17,12.2 258.21,12.24 258.23,12.3 L260.56,18.9 C260.58,18.96 260.55,19 260.49,19 L259.79,19 C259.72,19 259.68,18.97 259.66,18.9 L259.14,17.42 L256.39,17.42 L255.87,18.9 C255.84,18.97 255.8,19 255.74,19 L255.04,19 C254.98,19 254.95,18.96 254.97,18.9 Z M256.68,16.6 L258.85,16.6 L257.78,13.51 L257.76,13.51 L256.68,16.6 Z M261.64,18.9 L261.64,12.3 C261.64,12.24 261.68,12.2 261.74,12.2 L262.43,12.2 C262.49,12.2 262.53,12.24 262.53,12.3 L262.53,18.11 C262.53,18.15 262.55,18.17 262.59,18.17 L265.83,18.17 C265.89,18.17 265.93,18.21 265.93,18.27 L265.93,18.9 C265.93,18.96 265.89,19 265.83,19 L261.74,19 C261.68,19 261.64,18.96 261.64,18.9 Z" id="TOTAL" fill="#575757" fill-rule="nonzero"></path>
                    <path d="M240.104,34.024 C240.024,33.96 240.008,33.864 240.072,33.784 L240.92,32.712 C240.984,32.632 241.08,32.632 241.144,32.696 C241.608,33.08 242.344,33.48 243.192,33.56 L243.192,30.28 C241.368,29.976 240.264,28.84 240.264,27.208 C240.264,25.432 241.48,24.152 243.192,23.976 L243.192,23.144 C243.192,23.048 243.256,22.984 243.352,22.984 L243.976,22.984 C244.072,22.984 244.136,23.048 244.136,23.144 L244.136,23.976 C245.064,24.056 245.912,24.376 246.584,24.824 C246.664,24.888 246.68,24.952 246.616,25.048 L245.88,26.136 C245.816,26.216 245.736,26.216 245.656,26.168 C245.192,25.88 244.68,25.672 244.136,25.592 L244.136,28.712 C246.072,29.032 247.08,30.152 247.08,31.8 C247.08,33.608 245.96,34.872 244.136,35.128 L244.136,35.976 C244.136,36.072 244.072,36.136 243.976,36.136 L243.352,36.136 C243.256,36.136 243.192,36.072 243.192,35.976 L243.192,35.16 C241.976,35.112 240.936,34.68 240.104,34.024 Z M243.192,28.52 L243.192,25.592 C242.472,25.736 242.008,26.312 242.008,27.08 C242.008,27.752 242.28,28.264 243.192,28.52 Z M244.136,33.512 C244.92,33.32 245.336,32.76 245.336,31.864 C245.336,31.256 245.048,30.728 244.136,30.456 L244.136,33.512 Z M248.68,34.84 L248.68,33.64 C248.68,33.544 248.696,33.496 248.76,33.432 L252.6,28.648 C253.032,28.12 253.304,27.608 253.304,26.984 C253.304,26.168 252.776,25.544 251.864,25.544 C251,25.544 250.504,26.072 250.392,26.904 C250.376,27 250.312,27.048 250.216,27.032 L248.808,26.744 C248.712,26.728 248.664,26.648 248.68,26.552 C248.824,25.272 249.848,23.944 251.912,23.944 C253.944,23.944 255.112,25.288 255.112,26.984 C255.112,27.96 254.728,28.76 254.088,29.528 L250.92,33.368 L250.92,33.4 L254.952,33.4 C255.048,33.4 255.112,33.464 255.112,33.56 L255.112,34.84 C255.112,34.936 255.048,35 254.952,35 L248.84,35 C248.744,35 248.68,34.936 248.68,34.84 Z M256.968,36.616 L256.968,33.208 C256.968,33.112 257.032,33.048 257.128,33.048 L258.632,33.048 C258.728,33.048 258.792,33.112 258.792,33.208 L258.792,34.952 C258.792,35.112 258.776,35.192 258.68,35.288 L257.352,36.664 C257.272,36.744 257.208,36.776 257.128,36.776 C257.032,36.776 256.968,36.712 256.968,36.616 Z M263.4,34.84 L263.4,26.264 L263.368,26.264 L261.704,27.432 C261.608,27.496 261.528,27.464 261.528,27.336 L261.528,25.704 C261.528,25.608 261.56,25.544 261.64,25.48 L263.384,24.216 C263.464,24.152 263.544,24.12 263.672,24.12 L265.032,24.12 C265.128,24.12 265.192,24.184 265.192,24.28 L265.192,34.84 C265.192,34.936 265.128,35 265.032,35 L263.56,35 C263.464,35 263.4,34.936 263.4,34.84 Z M271.784,34.84 L271.784,26.264 L271.752,26.264 L270.088,27.432 C269.992,27.496 269.912,27.464 269.912,27.336 L269.912,25.704 C269.912,25.608 269.944,25.544 270.024,25.48 L271.768,24.216 C271.848,24.152 271.928,24.12 272.056,24.12 L273.416,24.12 C273.512,24.12 273.576,24.184 273.576,24.28 L273.576,34.84 C273.576,34.936 273.512,35 273.416,35 L271.944,35 C271.848,35 271.784,34.936 271.784,34.84 Z M278.44,34.824 L281.992,25.768 L281.992,25.72 L279.288,25.72 C279.224,25.72 279.192,25.752 279.192,25.816 L279.192,27.064 C279.192,27.16 279.128,27.224 279.032,27.224 L277.656,27.224 C277.56,27.224 277.496,27.16 277.496,27.064 L277.496,24.28 C277.496,24.184 277.56,24.12 277.656,24.12 L283.752,24.12 C283.848,24.12 283.912,24.184 283.912,24.28 L283.912,25.528 C283.912,25.656 283.896,25.736 283.864,25.816 L280.264,34.856 C280.216,34.968 280.184,35 280.056,35 L278.536,35 C278.44,35 278.392,34.936 278.44,34.824 Z M285.656,34.84 L285.656,33.208 C285.656,33.112 285.72,33.048 285.816,33.048 L287.416,33.048 C287.512,33.048 287.576,33.112 287.576,33.208 L287.576,34.84 C287.576,34.936 287.512,35 287.416,35 L285.816,35 C285.72,35 285.656,34.936 285.656,34.84 Z M289.528,33.048 C289.384,32.6 289.304,32.088 289.304,29.56 C289.304,27.032 289.384,26.52 289.528,26.072 C289.96,24.712 291,23.944 292.616,23.944 C294.232,23.944 295.272,24.712 295.72,26.072 C295.864,26.52 295.944,27.032 295.944,29.56 C295.944,32.088 295.864,32.6 295.72,33.048 C295.272,34.408 294.232,35.176 292.616,35.176 C291,35.176 289.96,34.408 289.528,33.048 Z M291.288,32.712 C291.496,33.288 291.944,33.576 292.616,33.576 C293.288,33.576 293.752,33.288 293.96,32.712 C294.072,32.376 294.104,32.008 294.104,29.56 C294.104,27.112 294.072,26.744 293.96,26.408 C293.752,25.832 293.288,25.544 292.616,25.544 C291.944,25.544 291.496,25.832 291.288,26.408 C291.176,26.744 291.144,27.112 291.144,29.56 C291.144,32.008 291.176,32.376 291.288,32.712 Z M297.912,32.936 C297.896,32.856 297.944,32.776 298.04,32.744 L299.4,32.408 C299.496,32.392 299.56,32.44 299.592,32.536 C299.8,33.144 300.296,33.576 301.096,33.576 C301.72,33.576 302.248,33.256 302.44,32.68 C302.552,32.392 302.584,32.04 302.584,31.48 C302.584,30.888 302.536,30.552 302.44,30.28 C302.232,29.64 301.704,29.384 301.08,29.384 C300.36,29.384 299.928,29.768 299.752,30.136 C299.704,30.248 299.672,30.296 299.56,30.296 L298.216,30.296 C298.12,30.296 298.056,30.232 298.056,30.136 L298.056,24.28 C298.056,24.184 298.12,24.12 298.216,24.12 L304.008,24.12 C304.104,24.12 304.168,24.184 304.168,24.28 L304.168,25.56 C304.168,25.656 304.104,25.72 304.008,25.72 L299.8,25.72 C299.736,25.72 299.704,25.752 299.704,25.816 L299.704,28.264 L299.752,28.264 C300.008,28.056 300.568,27.784 301.352,27.784 C302.744,27.784 303.768,28.44 304.152,29.624 C304.296,30.088 304.392,30.6 304.392,31.48 C304.392,32.2 304.312,32.76 304.168,33.192 C303.752,34.456 302.536,35.176 301.096,35.176 C299.416,35.176 298.152,34.28 297.912,32.936 Z" id="$2,117.05" fill="#575757" fill-rule="nonzero"></path>
                    <g id="Icon-Chevron" transform="translate(112.000000, 33.000000)">
                        <mask id="itinerary-2-mask-5" fill="white">
                            <use xlink:href="#itinerary-2-path-4"></use>
                        </mask>
                        <use id="itinerary-2-Mask" fill="#333333" xlink:href="#itinerary-2-path-4"></use>
                        <g id="↳🎨icon-color" mask="url(#itinerary-2-mask-5)" fill="#333333">
                            <g transform="translate(-32.000000, -27.200000)" id="Icon-Shade">
                                <rect x="0" y="0" width="72" height="57.6"></rect>
                            </g>
                        </g>
                    </g>
                    <g id="Icon-Avatar-2" transform="translate(11.000000, 12.000000)" fill="#595959">
                        <path d="M21.427209,20.2310749 C18.3916334,18.8978549 15.0211939,17.2417506 14.7384064,16.2102626 L14.7384064,15.1283823 C15.3681687,14.3961378 15.8647121,13.3746039 16.1583994,12.1788742 C16.8650653,11.6152264 17.0406722,10.4530916 16.4557198,9.6362377 L16.4557198,7.21242763 C16.4557198,4.71209582 15.2301055,3 12.4288742,3 C9.69970228,3 8.40081748,4.71209582 8.40081748,7.21242763 L8.40081748,9.63685983 C7.81647071,10.4530916 7.99328859,11.6146042 8.69813796,12.1788742 C8.9918252,13.3746039 9.48897411,14.3961378 10.1187364,15.1283823 L10.1187364,16.2102626 C9.83655447,17.2405063 6.46550941,18.8966106 3.4299339,20.2310749 C3.17136802,20.3461685 3,20.6317252 3,20.9508768 L3,23.6583772 C3,24.0832905 3.2991371,24.4285714 3.66791139,24.4285714 L21.1892315,24.4285714 C21.5580058,24.4285714 21.8571429,24.0832905 21.8571429,23.6583772 L21.8571429,20.9508768 C21.8571429,20.6317252 21.6857748,20.3449243 21.427209,20.2310749 L21.427209,20.2310749 Z" id="Avatar-2"></path>
                    </g>
                    <rect class="mock-text" id="Text-1" fill="#D8D8D8" x="47" y="12" width="101" height="8" rx="4"></rect>
                    <rect class="mock-text" id="Text-2" fill="#D8D8D8" x="47" y="29" width="60" height="8" rx="4"></rect>
                </g>
                <g class="itinerary-2-card" id="Card-2.2" transform="translate(6.000000, 96.000000)">
                    <g id="Card">
                        <mask id="itinerary-2-mask-7" fill="white">
                            <use xlink:href="#itinerary-2-path-6"></use>
                        </mask>
                        <g id="White-Background">
                            <use fill="black" fill-opacity="1" filter="url(#itinerary-2-filter-8)" xlink:href="#itinerary-2-path-6"></use>
                            <use fill="#FFFFFF" fill-rule="evenodd" xlink:href="#itinerary-2-path-6"></use>
                        </g>
                        <rect id="Green-Stripe" fill="#7ED321" mask="url(#itinerary-2-mask-7)" x="0" y="-2" width="313" height="4"></rect>
                    </g>
                    <g id="Icon-Plane" transform="translate(11.000000, 13.000000)">
                        <mask id="itinerary-2-mask-10" fill="white">
                            <use xlink:href="#itinerary-2-path-9"></use>
                        </mask>
                        <use id="Airplane" fill="#CCCCCC" xlink:href="#itinerary-2-path-9"></use>
                    </g>
                    <rect class="mock-text" id="Text-1" fill="#666666" x="45" y="10" width="34" height="4" rx="2"></rect>
                    <rect class="mock-text" id="Text-2" fill="#CCCCCC" x="45" y="22" width="42" height="4" rx="2"></rect>
                    <rect class="mock-text" id="Text-3" fill="#666666" x="45" y="37" width="55" height="4" rx="2"></rect>
                    <rect class="mock-text" id="Text-4" fill="#CCCCCC" x="45" y="49" width="63" height="4" rx="2"></rect>
                    <rect class="mock-text" id="Text-5" fill="#666666" x="125" y="10" width="34" height="4" rx="2"></rect>
                    <rect class="mock-text" id="Text-6" fill="#CCCCCC" x="125" y="22" width="34" height="4" rx="2"></rect>
                    <rect class="mock-text" id="Text-7" fill="#666666" x="125" y="37" width="47" height="4" rx="2"></rect>
                    <rect class="mock-text" id="Text-8" fill="#CCCCCC" x="211" y="10" width="97" height="4" rx="2"></rect>
                    <rect class="mock-text" id="Text-9" fill="#666666" x="274" y="25" width="34" height="4" rx="2"></rect>
                </g>
                <g class="itinerary-2-card has-error" id="Card-2.3" transform="translate(6.000000, 173.000000)">
                    <g id="Card">
                        <mask id="itinerary-2-mask-12" fill="white">
                            <use xlink:href="#itinerary-2-path-11"></use>
                        </mask>
                        <g id="White-Background">
                            <use fill="black" fill-opacity="1" filter="url(#itinerary-2-filter-13)" xlink:href="#itinerary-2-path-11"></use>
                            <use fill="#FFFFFF" fill-rule="evenodd" xlink:href="#itinerary-2-path-11"></use>
                        </g>
                        <rect class="warning-stripe" id="Green-Stripe" fill="#F5A623" mask="url(#itinerary-2-mask-12)" x="0" y="-2" width="313" height="4"></rect>
                    </g>
                    <g id="Icon-Hotel" transform="translate(8.000000, 16.000000)" fill="#CCCCCC">
                        <path d="M1.34917647,9.88235294 L22.5256471,9.88235294 L24,9.88235294 L24,14.5882353 L22.5256471,14.5882353 L22.5256471,11.2941176 L1.34917647,11.2941176 L1.34917647,14.5882353 L0,14.5882353 L0,0 L1.34917647,0 L1.34917647,9.88235294 Z M4.23529412,7.05882353 C3.19569929,7.05882353 2.35294118,6.21606541 2.35294118,5.17647059 C2.35294118,4.13687577 3.19569929,3.29411765 4.23529412,3.29411765 C5.27488894,3.29411765 6.11764706,4.13687577 6.11764706,5.17647059 C6.11764706,6.21606541 5.27488894,7.05882353 4.23529412,7.05882353 Z M2.35294118,8.94117647 L2.35294118,7.52941176 L6.58823529,7.52941176 L6.58823529,3.76470588 L8,3.76470588 L8,8.94117647 L7.52941176,8.94117647 L6.58823529,8.94117647 L2.35294118,8.94117647 Z M8.94117647,3.76470588 L23.0588235,3.76470588 L23.0588235,8.94117647 L8.94117647,8.94117647 L8.94117647,3.76470588 Z" id="Combined-Shape"></path>
                    </g>
                    <rect class="mock-text" id="Text-1" fill="#666666" x="45" y="15" width="126" height="4" rx="2"></rect>
                    <rect class="mock-text" id="Text-2" fill="#CCCCCC" x="45" y="29" width="149" height="4" rx="2"></rect>
                    <rect class="mock-text" id="Text-3" fill="#CCCCCC" x="45" y="43" width="149" height="4" rx="2"></rect>
                    <rect class="mock-text" id="Text-4" fill="#666666" x="45" y="56" width="48" height="4" rx="2"></rect>
                    <rect class="mock-text" id="Text-5" fill="#666666" x="124" y="56" width="48" height="4" rx="2"></rect>
                    <rect class="mock-text" id="Text-6" fill="#CCCCCC" x="211" y="14.5" width="97" height="4" rx="2"></rect>
                    <rect class="mock-text" id="Text-7" fill="#666666" x="274" y="55" width="34" height="4" rx="2"></rect>
                    <g class="warning-icon" id="noun_Warning_936841_db4145" transform="translate(10.000000, 39.000000)">
                        <path d="M20.5957708,15.1649387 L12.6219405,1.23704053 C12.1849991,0.474081056 11.3709329,0 10.4970501,0 C9.62316724,0 8.809101,0.474081056 8.37215959,1.23704053 L0.327530814,15.2888784 C-0.109176938,16.0518379 -0.109176938,16.9997644 0.327530814,17.7629595 C0.764472224,18.5259189 1.57853847,19 2.45242129,19 L18.5465857,19 C19.8994684,19 21,17.8901979 21,16.5259189 C20.9997663,16.039114 20.8602722,15.5692743 20.5957708,15.1649387 Z" id="Shape" fill="#FFFFFF" fill-rule="nonzero"></path>
                        <g id="Rectangle">
                            <mask id="itinerary-2-mask-15" fill="white">
                                <use xlink:href="#itinerary-2-path-14"></use>
                            </mask>
                            <use id="itinerary-2-Mask" fill="#DB4145" fill-rule="nonzero" xlink:href="#itinerary-2-path-14"></use>
                            <rect fill="#F5A623" mask="url(#itinerary-2-mask-15)" x="0" y="0" width="21" height="19"></rect>
                        </g>
                    </g>
                </g>
                <g class="itinerary-2-card" id="Card-2.4" transform="translate(6.000000, 313.000000)">
                    <g id="Card">
                        <mask id="itinerary-2-mask-17" fill="white">
                            <use xlink:href="#itinerary-2-path-16"></use>
                        </mask>
                        <g id="White-Background">
                            <use fill="black" fill-opacity="1" filter="url(#itinerary-2-filter-18)" xlink:href="#itinerary-2-path-16"></use>
                            <use fill="#FFFFFF" fill-rule="evenodd" xlink:href="#itinerary-2-path-16"></use>
                        </g>
                        <rect id="Green-Stripe" fill="#7ED321" mask="url(#itinerary-2-mask-17)" x="0" y="-2" width="313" height="4"></rect>
                    </g>
                    <g id="Icon-Plane" transform="translate(11.000000, 13.000000)">
                        <mask id="itinerary-2-mask-20" fill="white">
                            <use xlink:href="#itinerary-2-path-19"></use>
                        </mask>
                        <use id="Airplane" fill="#CCCCCC" xlink:href="#itinerary-2-path-19"></use>
                    </g>
                    <rect class="mock-text" id="Text-1" fill="#666666" x="45" y="10" width="34" height="4" rx="2"></rect>
                    <rect class="mock-text" id="Text-2" fill="#CCCCCC" x="45" y="22" width="42" height="4" rx="2"></rect>
                    <rect class="mock-text" id="Text-3" fill="#666666" x="45" y="37" width="55" height="4" rx="2"></rect>
                    <rect class="mock-text" id="Text-4" fill="#CCCCCC" x="45" y="49" width="63" height="4" rx="2"></rect>
                    <rect class="mock-text" id="Text-5" fill="#666666" x="125" y="10" width="34" height="4" rx="2"></rect>
                    <rect class="mock-text" id="Text-6" fill="#CCCCCC" x="125" y="22" width="34" height="4" rx="2"></rect>
                    <rect class="mock-text" id="Text-7" fill="#666666" x="125" y="37" width="47" height="4" rx="2"></rect>
                    <rect class="mock-text" id="Text-8" fill="#CCCCCC" x="211" y="10" width="97" height="4" rx="2"></rect>
                    <rect class="mock-text" id="Text-9" fill="#666666" x="274" y="25" width="34" height="4" rx="2"></rect>
                </g>
                <g class="itinerary-2-date" id="Date-2.1" transform="translate(0.000000, 63.000000)">
                    <path d="M156,11.198748 L319,11.198748" id="Dotted-Line" stroke="#979797" opacity="0.2" stroke-linecap="square" stroke-dasharray="2,4"></path>
                    <g id="Grey-Rectangle">
                        <use fill="black" fill-opacity="1" filter="url(#itinerary-2-filter-22)" xlink:href="#itinerary-2-path-21"></use>
                        <use fill-opacity="0.6" fill="#333333" fill-rule="evenodd" xlink:href="#itinerary-2-path-21"></use>
                    </g>
                    <path d="M13.472,16 L11.44,16 C11.344,16 11.28,15.936 11.28,15.84 L11.28,7.312 C11.28,7.248 11.248,7.216 11.184,7.216 L8.432,7.216 C8.336,7.216 8.272,7.152 8.272,7.056 L8.272,5.28 C8.272,5.184 8.336,5.12 8.432,5.12 L16.48,5.12 C16.576,5.12 16.64,5.184 16.64,5.28 L16.64,7.056 C16.64,7.152 16.576,7.216 16.48,7.216 L13.728,7.216 C13.664,7.216 13.632,7.248 13.632,7.312 L13.632,15.84 C13.632,15.936 13.568,16 13.472,16 Z M22.08,16.176 C19.632,16.176 17.904,14.704 17.904,12 L17.904,5.28 C17.904,5.184 17.968,5.12 18.064,5.12 L20.096,5.12 C20.192,5.12 20.256,5.184 20.256,5.28 L20.256,12.064 C20.256,13.36 20.976,14.096 22.08,14.096 C23.168,14.096 23.888,13.36 23.888,12.064 L23.888,5.28 C23.888,5.184 23.952,5.12 24.048,5.12 L26.08,5.12 C26.176,5.12 26.24,5.184 26.24,5.28 L26.24,12 C26.24,14.704 24.512,16.176 22.08,16.176 Z M28.272,15.84 L28.272,5.28 C28.272,5.184 28.336,5.12 28.432,5.12 L35.408,5.12 C35.504,5.12 35.568,5.184 35.568,5.28 L35.568,6.992 C35.568,7.088 35.504,7.152 35.408,7.152 L30.72,7.152 C30.656,7.152 30.624,7.184 30.624,7.248 L30.624,9.408 C30.624,9.472 30.656,9.504 30.72,9.504 L34.624,9.504 C34.72,9.504 34.784,9.568 34.784,9.664 L34.784,11.36 C34.784,11.456 34.72,11.52 34.624,11.52 L30.72,11.52 C30.656,11.52 30.624,11.552 30.624,11.616 L30.624,13.872 C30.624,13.936 30.656,13.968 30.72,13.968 L35.408,13.968 C35.504,13.968 35.568,14.032 35.568,14.128 L35.568,15.84 C35.568,15.936 35.504,16 35.408,16 L28.432,16 C28.336,16 28.272,15.936 28.272,15.84 Z M37.232,17.552 L37.232,13.92 C37.232,13.824 37.296,13.76 37.392,13.76 L39.2,13.76 C39.296,13.76 39.36,13.824 39.36,13.92 L39.36,15.856 C39.36,16 39.312,16.08 39.216,16.176 L37.632,17.616 C37.536,17.696 37.472,17.728 37.392,17.728 C37.296,17.728 37.232,17.664 37.232,17.552 Z M44.32,15.84 L48.064,5.28 C48.096,5.184 48.16,5.12 48.272,5.12 L50.288,5.12 C50.4,5.12 50.464,5.184 50.496,5.28 L54.176,15.84 C54.208,15.936 54.176,16 54.064,16 L51.984,16 C51.872,16 51.808,15.952 51.776,15.84 L51.152,13.936 L47.344,13.936 L46.736,15.84 C46.704,15.952 46.64,16 46.528,16 L44.432,16 C44.32,16 44.288,15.936 44.32,15.84 Z M48,11.936 L50.512,11.936 L49.28,8.128 L49.232,8.128 L48,11.936 Z M57.632,16 L55.6,16 C55.504,16 55.44,15.936 55.44,15.84 L55.44,5.28 C55.44,5.184 55.504,5.12 55.6,5.12 L59.824,5.12 C62.192,5.12 63.616,6.544 63.616,8.624 C63.616,10.672 62.176,12.112 59.824,12.112 L57.888,12.112 C57.824,12.112 57.792,12.144 57.792,12.208 L57.792,15.84 C57.792,15.936 57.728,16 57.632,16 Z M59.68,10.08 C60.672,10.08 61.264,9.504 61.264,8.624 C61.264,7.744 60.672,7.152 59.68,7.152 L57.888,7.152 C57.824,7.152 57.792,7.184 57.792,7.248 L57.792,9.984 C57.792,10.048 57.824,10.08 57.888,10.08 L59.68,10.08 Z M73.408,16 L71.136,16 C70.992,16 70.944,15.952 70.896,15.84 L69.024,11.856 L67.568,11.856 C67.504,11.856 67.472,11.888 67.472,11.952 L67.472,15.84 C67.472,15.936 67.408,16 67.312,16 L65.28,16 C65.184,16 65.12,15.936 65.12,15.84 L65.12,5.28 C65.12,5.184 65.184,5.12 65.28,5.12 L69.616,5.12 C71.84,5.12 73.312,6.512 73.312,8.496 C73.312,9.888 72.576,10.992 71.376,11.52 L73.52,15.808 C73.568,15.904 73.52,16 73.408,16 Z M69.488,9.856 C70.384,9.856 70.96,9.328 70.96,8.496 C70.96,7.68 70.384,7.152 69.488,7.152 L67.568,7.152 C67.504,7.152 67.472,7.184 67.472,7.248 L67.472,9.76 C67.472,9.824 67.504,9.856 67.568,9.856 L69.488,9.856 Z M78.88,15.84 L78.88,14.352 C78.88,14.256 78.896,14.208 78.96,14.128 L82.784,9.584 C83.2,9.104 83.424,8.64 83.424,8.08 C83.424,7.36 82.992,6.832 82.24,6.832 C81.504,6.832 81.056,7.28 80.96,8.112 C80.96,8.208 80.896,8.256 80.784,8.24 L79.024,7.952 C78.928,7.936 78.88,7.856 78.896,7.76 C79.008,6.256 80.224,4.944 82.32,4.944 C84.4,4.944 85.664,6.288 85.664,8.048 C85.664,9.088 85.248,9.904 84.56,10.688 L81.696,14.064 L81.696,14.096 L85.504,14.096 C85.6,14.096 85.664,14.16 85.664,14.256 L85.664,15.84 C85.664,15.936 85.6,16 85.504,16 L79.04,16 C78.944,16 78.88,15.936 78.88,15.84 Z M87.696,17.552 L87.696,13.92 C87.696,13.824 87.76,13.76 87.856,13.76 L89.664,13.76 C89.76,13.76 89.824,13.824 89.824,13.92 L89.824,15.856 C89.824,16 89.776,16.08 89.68,16.176 L88.096,17.616 C88,17.696 87.936,17.728 87.856,17.728 C87.76,17.728 87.696,17.664 87.696,17.552 Z M95.6,15.84 L95.6,14.352 C95.6,14.256 95.616,14.208 95.68,14.128 L99.504,9.584 C99.92,9.104 100.144,8.64 100.144,8.08 C100.144,7.36 99.712,6.832 98.96,6.832 C98.224,6.832 97.776,7.28 97.68,8.112 C97.68,8.208 97.616,8.256 97.504,8.24 L95.744,7.952 C95.648,7.936 95.6,7.856 95.616,7.76 C95.728,6.256 96.944,4.944 99.04,4.944 C101.12,4.944 102.384,6.288 102.384,8.048 C102.384,9.088 101.968,9.904 101.28,10.688 L98.416,14.064 L98.416,14.096 L102.224,14.096 C102.32,14.096 102.384,14.16 102.384,14.256 L102.384,15.84 C102.384,15.936 102.32,16 102.224,16 L95.76,16 C95.664,16 95.6,15.936 95.6,15.84 Z M104.624,13.952 C104.464,13.472 104.384,12.976 104.384,10.56 C104.384,8.144 104.464,7.648 104.624,7.168 C105.072,5.776 106.192,4.944 107.904,4.944 C109.616,4.944 110.736,5.776 111.184,7.168 C111.344,7.648 111.424,8.144 111.424,10.56 C111.424,12.976 111.344,13.472 111.184,13.952 C110.736,15.344 109.616,16.176 107.904,16.176 C106.192,16.176 105.072,15.344 104.624,13.952 Z M106.8,13.552 C106.96,14.048 107.328,14.288 107.904,14.288 C108.464,14.288 108.848,14.048 109.008,13.552 C109.104,13.264 109.136,12.944 109.136,10.56 C109.136,8.176 109.104,7.856 109.008,7.568 C108.848,7.072 108.464,6.832 107.904,6.832 C107.328,6.832 106.96,7.072 106.8,7.568 C106.704,7.856 106.672,8.176 106.672,10.56 C106.672,12.944 106.704,13.264 106.8,13.552 Z M116.224,15.84 L116.224,7.648 L116.192,7.648 L114.464,8.832 C114.368,8.896 114.288,8.864 114.288,8.736 L114.288,6.752 C114.288,6.656 114.32,6.592 114.4,6.528 L116.224,5.216 C116.304,5.152 116.4,5.12 116.512,5.12 L118.304,5.12 C118.4,5.12 118.464,5.184 118.464,5.28 L118.464,15.84 C118.464,15.936 118.4,16 118.304,16 L116.384,16 C116.288,16 116.224,15.936 116.224,15.84 Z M123.568,15.84 L125.872,11.632 L125.84,11.6 C125.728,11.648 125.456,11.696 125.168,11.696 C123.456,11.696 122.048,10.416 122.048,8.416 C122.048,6.224 123.632,4.944 125.696,4.944 C127.776,4.944 129.344,6.224 129.344,8.368 C129.344,9.296 129.056,10.128 128.544,11.056 L125.904,15.888 C125.856,15.984 125.824,16 125.712,16 L123.68,16 C123.552,16 123.52,15.936 123.568,15.84 Z M125.696,9.856 C126.576,9.856 127.136,9.232 127.136,8.336 C127.136,7.456 126.576,6.832 125.696,6.832 C124.816,6.832 124.256,7.456 124.256,8.336 C124.256,9.232 124.816,9.856 125.696,9.856 Z" id="TUE,APR2,2019" fill="#FFFFFF" fill-rule="nonzero"></path>
                </g>
                <g class="itinerary-2-date" id="Date-2.2" transform="translate(0.000000, 281.000000)">
                    <path d="M156,10.5 L319,10.5" id="Dotted-Line" stroke="#979797" opacity="0.2" stroke-linecap="square" stroke-dasharray="2,4"></path>
                    <g id="Grey-Rectangle">
                        <use fill="black" fill-opacity="1" filter="url(#itinerary-2-filter-24)" xlink:href="#itinerary-2-path-23"></use>
                        <use fill-opacity="0.6" fill="#333333" fill-rule="evenodd" xlink:href="#itinerary-2-path-23"></use>
                    </g>
                    <path d="M9.04,15.84 L9.04,5.28 C9.04,5.184 9.104,5.12 9.2,5.12 L11.104,5.12 C11.232,5.12 11.312,5.168 11.36,5.28 L14.112,11.488 L14.176,11.488 L16.88,5.28 C16.928,5.168 17.008,5.12 17.136,5.12 L19.008,5.12 C19.104,5.12 19.168,5.184 19.168,5.28 L19.168,15.84 C19.168,15.936 19.104,16 19.008,16 L17.2,16 C17.104,16 17.04,15.936 17.04,15.84 L17.04,9.712 L16.976,9.712 L14.96,14.304 C14.896,14.448 14.8,14.512 14.656,14.512 L13.552,14.512 C13.408,14.512 13.312,14.448 13.248,14.304 L11.232,9.712 L11.168,9.712 L11.168,15.84 C11.168,15.936 11.104,16 11.008,16 L9.2,16 C9.104,16 9.04,15.936 9.04,15.84 Z M25.232,16.176 C23.328,16.176 21.824,15.296 21.264,13.536 C21.024,12.784 20.96,12.176 20.96,10.56 C20.96,8.944 21.024,8.336 21.264,7.584 C21.824,5.824 23.328,4.944 25.232,4.944 C27.136,4.944 28.64,5.824 29.2,7.584 C29.44,8.336 29.504,8.944 29.504,10.56 C29.504,12.176 29.44,12.784 29.2,13.536 C28.64,15.296 27.136,16.176 25.232,16.176 Z M25.232,14.096 C26.128,14.096 26.704,13.648 26.944,12.896 C27.072,12.512 27.12,11.984 27.12,10.56 C27.12,9.136 27.072,8.608 26.944,8.224 C26.704,7.472 26.128,7.024 25.232,7.024 C24.336,7.024 23.76,7.472 23.52,8.224 C23.392,8.608 23.344,9.136 23.344,10.56 C23.344,11.984 23.392,12.512 23.52,12.896 C23.76,13.648 24.336,14.096 25.232,14.096 Z M31.296,15.84 L31.296,5.28 C31.296,5.184 31.36,5.12 31.456,5.12 L33.376,5.12 C33.488,5.12 33.584,5.168 33.648,5.28 L37.488,12.128 L37.568,12.128 L37.568,5.28 C37.568,5.184 37.632,5.12 37.728,5.12 L39.536,5.12 C39.632,5.12 39.696,5.184 39.696,5.28 L39.696,15.84 C39.696,15.936 39.632,16 39.536,16 L37.632,16 C37.504,16 37.424,15.952 37.36,15.84 L33.504,9.008 L33.424,9.008 L33.424,15.84 C33.424,15.936 33.36,16 33.264,16 L31.456,16 C31.36,16 31.296,15.936 31.296,15.84 Z M41.696,17.552 L41.696,13.92 C41.696,13.824 41.76,13.76 41.856,13.76 L43.664,13.76 C43.76,13.76 43.824,13.824 43.824,13.92 L43.824,15.856 C43.824,16 43.776,16.08 43.68,16.176 L42.096,17.616 C42,17.696 41.936,17.728 41.856,17.728 C41.76,17.728 41.696,17.664 41.696,17.552 Z M48.784,15.84 L52.528,5.28 C52.56,5.184 52.624,5.12 52.736,5.12 L54.752,5.12 C54.864,5.12 54.928,5.184 54.96,5.28 L58.64,15.84 C58.672,15.936 58.64,16 58.528,16 L56.448,16 C56.336,16 56.272,15.952 56.24,15.84 L55.616,13.936 L51.808,13.936 L51.2,15.84 C51.168,15.952 51.104,16 50.992,16 L48.896,16 C48.784,16 48.752,15.936 48.784,15.84 Z M52.464,11.936 L54.976,11.936 L53.744,8.128 L53.696,8.128 L52.464,11.936 Z M62.096,16 L60.064,16 C59.968,16 59.904,15.936 59.904,15.84 L59.904,5.28 C59.904,5.184 59.968,5.12 60.064,5.12 L64.288,5.12 C66.656,5.12 68.08,6.544 68.08,8.624 C68.08,10.672 66.64,12.112 64.288,12.112 L62.352,12.112 C62.288,12.112 62.256,12.144 62.256,12.208 L62.256,15.84 C62.256,15.936 62.192,16 62.096,16 Z M64.144,10.08 C65.136,10.08 65.728,9.504 65.728,8.624 C65.728,7.744 65.136,7.152 64.144,7.152 L62.352,7.152 C62.288,7.152 62.256,7.184 62.256,7.248 L62.256,9.984 C62.256,10.048 62.288,10.08 62.352,10.08 L64.144,10.08 Z M77.872,16 L75.6,16 C75.456,16 75.408,15.952 75.36,15.84 L73.488,11.856 L72.032,11.856 C71.968,11.856 71.936,11.888 71.936,11.952 L71.936,15.84 C71.936,15.936 71.872,16 71.776,16 L69.744,16 C69.648,16 69.584,15.936 69.584,15.84 L69.584,5.28 C69.584,5.184 69.648,5.12 69.744,5.12 L74.08,5.12 C76.304,5.12 77.776,6.512 77.776,8.496 C77.776,9.888 77.04,10.992 75.84,11.52 L77.984,15.808 C78.032,15.904 77.984,16 77.872,16 Z M73.952,9.856 C74.848,9.856 75.424,9.328 75.424,8.496 C75.424,7.68 74.848,7.152 73.952,7.152 L72.032,7.152 C71.968,7.152 71.936,7.184 71.936,7.248 L71.936,9.76 C71.936,9.824 71.968,9.856 72.032,9.856 L73.952,9.856 Z M83.072,12.864 C83.072,11.648 83.68,10.784 84.368,10.32 L84.368,10.288 C83.856,9.92 83.312,9.136 83.312,8.112 C83.312,6.432 84.544,4.944 86.752,4.944 C88.96,4.944 90.192,6.432 90.192,8.112 C90.192,9.136 89.648,9.92 89.136,10.288 L89.136,10.32 C89.824,10.784 90.432,11.648 90.432,12.864 C90.432,14.864 88.864,16.176 86.752,16.176 C84.64,16.176 83.072,14.864 83.072,12.864 Z M86.752,9.376 C87.504,9.376 88,8.8 88,8.112 C88,7.408 87.504,6.832 86.752,6.832 C86,6.832 85.504,7.408 85.504,8.112 C85.504,8.8 86,9.376 86.752,9.376 Z M85.28,12.768 C85.28,13.664 85.872,14.288 86.752,14.288 C87.632,14.288 88.224,13.664 88.224,12.768 C88.224,11.888 87.632,11.264 86.752,11.264 C85.872,11.264 85.28,11.888 85.28,12.768 Z M92.16,17.552 L92.16,13.92 C92.16,13.824 92.224,13.76 92.32,13.76 L94.128,13.76 C94.224,13.76 94.288,13.824 94.288,13.92 L94.288,15.856 C94.288,16 94.24,16.08 94.144,16.176 L92.56,17.616 C92.464,17.696 92.4,17.728 92.32,17.728 C92.224,17.728 92.16,17.664 92.16,17.552 Z M100.064,15.84 L100.064,14.352 C100.064,14.256 100.08,14.208 100.144,14.128 L103.968,9.584 C104.384,9.104 104.608,8.64 104.608,8.08 C104.608,7.36 104.176,6.832 103.424,6.832 C102.688,6.832 102.24,7.28 102.144,8.112 C102.144,8.208 102.08,8.256 101.968,8.24 L100.208,7.952 C100.112,7.936 100.064,7.856 100.08,7.76 C100.192,6.256 101.408,4.944 103.504,4.944 C105.584,4.944 106.848,6.288 106.848,8.048 C106.848,9.088 106.432,9.904 105.744,10.688 L102.88,14.064 L102.88,14.096 L106.688,14.096 C106.784,14.096 106.848,14.16 106.848,14.256 L106.848,15.84 C106.848,15.936 106.784,16 106.688,16 L100.224,16 C100.128,16 100.064,15.936 100.064,15.84 Z M109.088,13.952 C108.928,13.472 108.848,12.976 108.848,10.56 C108.848,8.144 108.928,7.648 109.088,7.168 C109.536,5.776 110.656,4.944 112.368,4.944 C114.08,4.944 115.2,5.776 115.648,7.168 C115.808,7.648 115.888,8.144 115.888,10.56 C115.888,12.976 115.808,13.472 115.648,13.952 C115.2,15.344 114.08,16.176 112.368,16.176 C110.656,16.176 109.536,15.344 109.088,13.952 Z M111.264,13.552 C111.424,14.048 111.792,14.288 112.368,14.288 C112.928,14.288 113.312,14.048 113.472,13.552 C113.568,13.264 113.6,12.944 113.6,10.56 C113.6,8.176 113.568,7.856 113.472,7.568 C113.312,7.072 112.928,6.832 112.368,6.832 C111.792,6.832 111.424,7.072 111.264,7.568 C111.168,7.856 111.136,8.176 111.136,10.56 C111.136,12.944 111.168,13.264 111.264,13.552 Z M120.688,15.84 L120.688,7.648 L120.656,7.648 L118.928,8.832 C118.832,8.896 118.752,8.864 118.752,8.736 L118.752,6.752 C118.752,6.656 118.784,6.592 118.864,6.528 L120.688,5.216 C120.768,5.152 120.864,5.12 120.976,5.12 L122.768,5.12 C122.864,5.12 122.928,5.184 122.928,5.28 L122.928,15.84 C122.928,15.936 122.864,16 122.768,16 L120.848,16 C120.752,16 120.688,15.936 120.688,15.84 Z M128.032,15.84 L130.336,11.632 L130.304,11.6 C130.192,11.648 129.92,11.696 129.632,11.696 C127.92,11.696 126.512,10.416 126.512,8.416 C126.512,6.224 128.096,4.944 130.16,4.944 C132.24,4.944 133.808,6.224 133.808,8.368 C133.808,9.296 133.52,10.128 133.008,11.056 L130.368,15.888 C130.32,15.984 130.288,16 130.176,16 L128.144,16 C128.016,16 127.984,15.936 128.032,15.84 Z M130.16,9.856 C131.04,9.856 131.6,9.232 131.6,8.336 C131.6,7.456 131.04,6.832 130.16,6.832 C129.28,6.832 128.72,7.456 128.72,8.336 C128.72,9.232 129.28,9.856 130.16,9.856 Z" id="MON,APR8,2019" fill="#FFFFFF" fill-rule="nonzero"></path>
                </g>
                <g id="Button-2" transform="translate(31.000000, 402.000000)">
                    <g id="Rounded-Rectangle">
                        <use fill="black" fill-opacity="1" filter="url(#itinerary-2-filter-26)" xlink:href="#itinerary-2-path-25"></use>
                        <use fill="#4C8CA7" fill-rule="evenodd" xlink:href="#itinerary-2-path-25"></use>
                    </g>
                    <path d="M90.06,27.8 L90.06,14.6 C90.06,14.48 90.14,14.4 90.26,14.4 L95.32,14.4 C98.2,14.4 99.56,15.84 99.56,18.02 C99.56,19.56 98.84,20.44 97.98,20.9 L97.98,20.94 C98.82,21.26 99.8,22.34 99.8,24 C99.8,26.7 98.1,28 95.12,28 L90.26,28 C90.14,28 90.06,27.92 90.06,27.8 Z M92.54,20.06 L95.26,20.06 C96.46,20.06 97.2,19.34 97.2,18.28 C97.2,17.2 96.46,16.48 95.26,16.48 L92.54,16.48 C92.46,16.48 92.42,16.52 92.42,16.6 L92.42,19.94 C92.42,20.02 92.46,20.06 92.54,20.06 Z M92.42,25.8 C92.42,25.88 92.46,25.92 92.54,25.92 L95.38,25.92 C96.7,25.92 97.44,25.16 97.44,24.02 C97.44,22.9 96.7,22.14 95.38,22.14 L92.54,22.14 C92.46,22.14 92.42,22.18 92.42,22.26 L92.42,25.8 Z M105.94,28.22 C103.98,28.22 102.5,27.24 101.96,25.56 C101.74,24.88 101.64,24.24 101.64,23.18 C101.64,22.12 101.74,21.48 101.96,20.8 C102.5,19.12 103.98,18.14 105.94,18.14 C107.88,18.14 109.36,19.12 109.9,20.8 C110.12,21.48 110.22,22.12 110.22,23.18 C110.22,24.24 110.12,24.88 109.9,25.56 C109.36,27.24 107.88,28.22 105.94,28.22 Z M105.94,26.22 C106.84,26.22 107.46,25.76 107.74,24.96 C107.9,24.46 107.94,24 107.94,23.18 C107.94,22.36 107.9,21.92 107.74,21.4 C107.46,20.6 106.84,20.14 105.94,20.14 C105.04,20.14 104.4,20.6 104.12,21.4 C103.96,21.92 103.92,22.36 103.92,23.18 C103.92,24 103.96,24.46 104.12,24.96 C104.4,25.76 105.04,26.22 105.94,26.22 Z M116.4,28.22 C114.44,28.22 112.96,27.24 112.42,25.56 C112.2,24.88 112.1,24.24 112.1,23.18 C112.1,22.12 112.2,21.48 112.42,20.8 C112.96,19.12 114.44,18.14 116.4,18.14 C118.34,18.14 119.82,19.12 120.36,20.8 C120.58,21.48 120.68,22.12 120.68,23.18 C120.68,24.24 120.58,24.88 120.36,25.56 C119.82,27.24 118.34,28.22 116.4,28.22 Z M116.4,26.22 C117.3,26.22 117.92,25.76 118.2,24.96 C118.36,24.46 118.4,24 118.4,23.18 C118.4,22.36 118.36,21.92 118.2,21.4 C117.92,20.6 117.3,20.14 116.4,20.14 C115.5,20.14 114.86,20.6 114.58,21.4 C114.42,21.92 114.38,22.36 114.38,23.18 C114.38,24 114.42,24.46 114.58,24.96 C114.86,25.76 115.5,26.22 116.4,26.22 Z M131.48,28 L129.38,28 C129.24,28 129.14,27.94 129.06,27.8 L126.62,23.76 L125.32,25.26 L125.32,27.8 C125.32,27.92 125.24,28 125.12,28 L123.28,28 C123.16,28 123.08,27.92 123.08,27.8 L123.08,14.6 C123.08,14.48 123.16,14.4 123.28,14.4 L125.12,14.4 C125.24,14.4 125.32,14.48 125.32,14.6 L125.32,22.44 L128.62,18.56 C128.74,18.42 128.84,18.36 129,18.36 L131.04,18.36 C131.16,18.36 131.2,18.48 131.12,18.56 L128.06,22.08 L131.58,27.8 C131.64,27.88 131.6,28 131.48,28 Z M138.28,27.8 L138.28,14.6 C138.28,14.48 138.36,14.4 138.48,14.4 L140.32,14.4 C140.48,14.4 140.58,14.46 140.66,14.6 L146.2,23.98 L146.28,23.98 L146.28,14.6 C146.28,14.48 146.36,14.4 146.48,14.4 L148.22,14.4 C148.34,14.4 148.42,14.48 148.42,14.6 L148.42,27.8 C148.42,27.92 148.34,28 148.22,28 L146.4,28 C146.24,28 146.14,27.94 146.06,27.8 L140.5,18.44 L140.42,18.44 L140.42,27.8 C140.42,27.92 140.34,28 140.22,28 L138.48,28 C138.36,28 138.28,27.92 138.28,27.8 Z M155.16,28.22 C153.2,28.22 151.72,27.24 151.18,25.56 C150.96,24.88 150.86,24.24 150.86,23.18 C150.86,22.12 150.96,21.48 151.18,20.8 C151.72,19.12 153.2,18.14 155.16,18.14 C157.1,18.14 158.58,19.12 159.12,20.8 C159.34,21.48 159.44,22.12 159.44,23.18 C159.44,24.24 159.34,24.88 159.12,25.56 C158.58,27.24 157.1,28.22 155.16,28.22 Z M155.16,26.22 C156.06,26.22 156.68,25.76 156.96,24.96 C157.12,24.46 157.16,24 157.16,23.18 C157.16,22.36 157.12,21.92 156.96,21.4 C156.68,20.6 156.06,20.14 155.16,20.14 C154.26,20.14 153.62,20.6 153.34,21.4 C153.18,21.92 153.14,22.36 153.14,23.18 C153.14,24 153.18,24.46 153.34,24.96 C153.62,25.76 154.26,26.22 155.16,26.22 Z M171.68,28 L170.04,28 C169.92,28 169.84,27.92 169.8,27.8 L167.94,21.64 L167.9,21.64 L166.02,27.8 C165.98,27.92 165.9,28 165.78,28 L164.14,28 C164.02,28 163.94,27.92 163.9,27.8 L160.86,18.56 C160.82,18.44 160.88,18.36 161,18.36 L162.92,18.36 C163.06,18.36 163.14,18.42 163.18,18.56 L165.04,24.92 L165.08,24.92 L166.92,18.56 C166.96,18.44 167.06,18.36 167.18,18.36 L168.62,18.36 C168.74,18.36 168.84,18.44 168.88,18.56 L170.84,24.92 L170.88,24.92 L172.64,18.56 C172.68,18.42 172.76,18.36 172.9,18.36 L174.82,18.36 C174.94,18.36 175,18.44 174.96,18.56 L171.92,27.8 C171.88,27.92 171.8,28 171.68,28 Z" id="BookNow" fill="#F7F7F7" fill-rule="nonzero"></path>
                </g>
            </g>
        </g>
    </g>
</svg>