<?xml version="1.0" encoding="UTF-8"?>
<svg id="itinerary" width="331px" height="431px" viewBox="0 0 331 431" version="1.1" xmlns="http://www.w3.org/2000/svg" xmlns:xlink="http://www.w3.org/1999/xlink">
    <!-- Generator: Sketch 53.2 (72643) - https://sketchapp.com -->
    <title>Group</title>
    <desc>Created with Sketch.</desc>
    <defs>
        <filter x="-5.0%" y="-2.7%" width="110.0%" height="105.0%" filterUnits="objectBoundingBox" id="filter-1">
            <feOffset dx="0" dy="2" in="SourceAlpha" result="shadowOffsetOuter1"></feOffset>
            <feGaussianBlur stdDeviation="2" in="shadowOffsetOuter1" result="shadowBlurOuter1"></feGaussianBlur>
            <feColorMatrix values="0 0 0 0 0   0 0 0 0 0   0 0 0 0 0  0 0 0 0.246803977 0" type="matrix" in="shadowBlurOuter1" result="shadowMatrixOuter1"></feColorMatrix>
            <feMerge>
                <feMergeNode in="shadowMatrixOuter1"></feMergeNode>
                <feMergeNode in="SourceGraphic"></feMergeNode>
            </feMerge>
        </filter>
        <rect id="itinerary-path-2" x="0" y="0" width="313" height="47" rx="4"></rect>
        <filter x="-1.0%" y="-6.4%" width="101.9%" height="112.8%" filterUnits="objectBoundingBox" id="filter-4">
            <feOffset dx="0" dy="0" in="SourceAlpha" result="shadowOffsetOuter1"></feOffset>
            <feGaussianBlur stdDeviation="1" in="shadowOffsetOuter1" result="shadowBlurOuter1"></feGaussianBlur>
            <feColorMatrix values="0 0 0 0 0   0 0 0 0 0   0 0 0 0 0  0 0 0 0.257048234 0" type="matrix" in="shadowBlurOuter1"></feColorMatrix>
        </filter>
        <polygon id="itinerary-path-5" points="7.0625 0 8 0.75 4 3.95 0 0.75 0.9375 0 4 2.45"></polygon>
        <rect id="itinerary-path-7" x="0" y="63" width="151" height="21"></rect>
        <filter x="-4.0%" y="-28.6%" width="107.9%" height="157.1%" filterUnits="objectBoundingBox" id="filter-8">
            <feOffset dx="0" dy="0" in="SourceAlpha" result="shadowOffsetOuter1"></feOffset>
            <feGaussianBlur stdDeviation="2" in="shadowOffsetOuter1" result="shadowBlurOuter1"></feGaussianBlur>
            <feComposite in="shadowBlurOuter1" in2="SourceAlpha" operator="out" result="shadowBlurOuter1"></feComposite>
            <feColorMatrix values="0 0 0 0 0   0 0 0 0 0   0 0 0 0 0  0 0 0 0.253000453 0" type="matrix" in="shadowBlurOuter1"></feColorMatrix>
        </filter>
        <rect id="itinerary-path-9" x="0" y="0" width="313" height="65" rx="4"></rect>
        <filter x="-2.2%" y="-7.7%" width="104.5%" height="121.5%" filterUnits="objectBoundingBox" id="filter-11">
            <feOffset dx="0" dy="2" in="SourceAlpha" result="shadowOffsetOuter1"></feOffset>
            <feGaussianBlur stdDeviation="2" in="shadowOffsetOuter1" result="shadowBlurOuter1"></feGaussianBlur>
            <feColorMatrix values="0 0 0 0 0   0 0 0 0 0   0 0 0 0 0  0 0 0 0.245103034 0" type="matrix" in="shadowBlurOuter1"></feColorMatrix>
        </filter>
        <path d="M16.3340183,18.4606537 L17.7700568,17.0246153 C17.8570894,16.9375827 17.9006057,16.8070337 17.8570894,16.7200011 L16.0294041,7.7121235 C15.9858878,7.58157455 16.0294041,7.49454192 16.1164367,7.40750928 L20.2069705,3.31697551 C20.9032316,2.62071444 20.9032316,1.4892902 20.2069705,0.793029135 L20.2069705,0.793029135 C19.5107094,0.0967680662 18.3792852,0.0967680662 17.6830241,0.793029135 L13.4619414,5.01411186 C13.3749088,5.1011445 13.2878761,5.14466081 13.1573272,5.1011445 L4.01890065,3.40400814 C3.8883517,3.40400814 3.80131907,3.40400814 3.71428644,3.49104077 L2.23473167,5.01411186 C2.0606664,5.18817713 2.10418272,5.49279135 2.3217643,5.57982398 L9.24085867,8.62596615 C9.45844025,8.71299879 9.50195657,9.017613 9.3278913,9.19167827 L4.84571067,13.6738589 C4.75867804,13.7608915 4.62812909,13.8044078 4.54109645,13.7608915 L1.58198691,13.1516631 C1.45143796,13.1081468 1.36440533,13.1516631 1.2773727,13.2386957 L0.407046361,14.1090221 C0.232981094,14.2830873 0.276497411,14.5441852 0.494078995,14.6747342 L3.45318854,16.1107726 C3.45318854,16.154289 3.49670485,16.154289 3.54022117,16.1978053 L4.80219436,17.4597785 C4.84571067,17.5032948 4.84571067,17.5032948 4.84571067,17.5468111 L6.36878176,20.5494369 C6.45581439,20.7670185 6.76042861,20.8105348 6.93449388,20.6364696 L7.67427126,19.8966922 C7.7613039,19.8096596 7.80482021,19.6791106 7.7613039,19.592078 L7.15207546,16.5894521 C7.10855914,16.4589032 7.15207546,16.3718705 7.23910809,16.2848379 L11.9823866,11.5415594 C12.1564519,11.3674941 12.4175498,11.4110104 12.5480987,11.628592 L15.8118225,18.3736211 C15.8988551,18.5912027 16.159953,18.634719 16.3340183,18.4606537 Z" id="itinerary-path-12"></path>
        <rect id="itinerary-path-14" x="0" y="0" width="313" height="65" rx="4"></rect>
        <filter x="-2.2%" y="-7.7%" width="104.5%" height="121.5%" filterUnits="objectBoundingBox" id="filter-16">
            <feOffset dx="0" dy="2" in="SourceAlpha" result="shadowOffsetOuter1"></feOffset>
            <feGaussianBlur stdDeviation="2" in="shadowOffsetOuter1" result="shadowBlurOuter1"></feGaussianBlur>
            <feColorMatrix values="0 0 0 0 0   0 0 0 0 0   0 0 0 0 0  0 0 0 0.245103034 0" type="matrix" in="shadowBlurOuter1"></feColorMatrix>
        </filter>
        <path d="M16.3340183,18.4606537 L17.7700568,17.0246153 C17.8570894,16.9375827 17.9006057,16.8070337 17.8570894,16.7200011 L16.0294041,7.7121235 C15.9858878,7.58157455 16.0294041,7.49454192 16.1164367,7.40750928 L20.2069705,3.31697551 C20.9032316,2.62071444 20.9032316,1.4892902 20.2069705,0.793029135 L20.2069705,0.793029135 C19.5107094,0.0967680662 18.3792852,0.0967680662 17.6830241,0.793029135 L13.4619414,5.01411186 C13.3749088,5.1011445 13.2878761,5.14466081 13.1573272,5.1011445 L4.01890065,3.40400814 C3.8883517,3.40400814 3.80131907,3.40400814 3.71428644,3.49104077 L2.23473167,5.01411186 C2.0606664,5.18817713 2.10418272,5.49279135 2.3217643,5.57982398 L9.24085867,8.62596615 C9.45844025,8.71299879 9.50195657,9.017613 9.3278913,9.19167827 L4.84571067,13.6738589 C4.75867804,13.7608915 4.62812909,13.8044078 4.54109645,13.7608915 L1.58198691,13.1516631 C1.45143796,13.1081468 1.36440533,13.1516631 1.2773727,13.2386957 L0.407046361,14.1090221 C0.232981094,14.2830873 0.276497411,14.5441852 0.494078995,14.6747342 L3.45318854,16.1107726 C3.45318854,16.154289 3.49670485,16.154289 3.54022117,16.1978053 L4.80219436,17.4597785 C4.84571067,17.5032948 4.84571067,17.5032948 4.84571067,17.5468111 L6.36878176,20.5494369 C6.45581439,20.7670185 6.76042861,20.8105348 6.93449388,20.6364696 L7.67427126,19.8966922 C7.7613039,19.8096596 7.80482021,19.6791106 7.7613039,19.592078 L7.15207546,16.5894521 C7.10855914,16.4589032 7.15207546,16.3718705 7.23910809,16.2848379 L11.9823866,11.5415594 C12.1564519,11.3674941 12.4175498,11.4110104 12.5480987,11.628592 L15.8118225,18.3736211 C15.8988551,18.5912027 16.159953,18.634719 16.3340183,18.4606537 Z" id="itinerary-path-17"></path>
        <rect id="itinerary-path-19" x="0" y="0" width="313" height="92" rx="4"></rect>
        <filter x="-2.2%" y="-5.4%" width="104.5%" height="115.2%" filterUnits="objectBoundingBox" id="filter-21">
            <feOffset dx="0" dy="2" in="SourceAlpha" result="shadowOffsetOuter1"></feOffset>
            <feGaussianBlur stdDeviation="2" in="shadowOffsetOuter1" result="shadowBlurOuter1"></feGaussianBlur>
            <feColorMatrix values="0 0 0 0 0   0 0 0 0 0   0 0 0 0 0  0 0 0 0.245103034 0" type="matrix" in="shadowBlurOuter1"></feColorMatrix>
        </filter>
        <rect id="itinerary-path-22" x="0" y="244" width="151" height="21"></rect>
        <filter x="-4.0%" y="-28.6%" width="107.9%" height="157.1%" filterUnits="objectBoundingBox" id="filter-23">
            <feOffset dx="0" dy="0" in="SourceAlpha" result="shadowOffsetOuter1"></feOffset>
            <feGaussianBlur stdDeviation="2" in="shadowOffsetOuter1" result="shadowBlurOuter1"></feGaussianBlur>
            <feComposite in="shadowBlurOuter1" in2="SourceAlpha" operator="out" result="shadowBlurOuter1"></feComposite>
            <feColorMatrix values="0 0 0 0 0   0 0 0 0 0   0 0 0 0 0  0 0 0 0.253000453 0" type="matrix" in="shadowBlurOuter1"></feColorMatrix>
        </filter>
    </defs>
    <g id="Marketing-Website-V0.7" stroke="none" stroke-width="1" fill="none" fill-rule="evenodd">
        <g id="Desktop-1400px-Agencies-&amp;-TMCs" transform="translate(-850.000000, -1388.000000)">
            <g id="Section-2" transform="translate(0.000000, 1199.000000)">
                <g id="Group" transform="translate(856.000000, 192.000000)">
                    <path d="M156,74.198748 L319,74.198748" id="Line-Copy-3" stroke="#979797" opacity="0.2" stroke-linecap="square" stroke-dasharray="2,4"></path>
                    <g id="Buttons/Solid/Large" transform="translate(31.000000, 378.000000)">
                        <path d="M0,2.4916997 C0,1.11557195 1.11965717,0 2.50728552,0 L261.492714,0 C262.87745,0 264,1.10965268 264,2.4916997 L264,41.5083003 C264,42.884428 262.880343,44 261.492714,44 L2.50728552,44 C1.12254997,44 0,42.8903473 0,41.5083003 L0,2.4916997 Z" id="Rectangle-2" fill="#E57A7C"></path>
                        <path d="M90.06,27.8 L90.06,14.6 C90.06,14.48 90.14,14.4 90.26,14.4 L95.32,14.4 C98.2,14.4 99.56,15.84 99.56,18.02 C99.56,19.56 98.84,20.44 97.98,20.9 L97.98,20.94 C98.82,21.26 99.8,22.34 99.8,24 C99.8,26.7 98.1,28 95.12,28 L90.26,28 C90.14,28 90.06,27.92 90.06,27.8 Z M92.54,20.06 L95.26,20.06 C96.46,20.06 97.2,19.34 97.2,18.28 C97.2,17.2 96.46,16.48 95.26,16.48 L92.54,16.48 C92.46,16.48 92.42,16.52 92.42,16.6 L92.42,19.94 C92.42,20.02 92.46,20.06 92.54,20.06 Z M92.42,25.8 C92.42,25.88 92.46,25.92 92.54,25.92 L95.38,25.92 C96.7,25.92 97.44,25.16 97.44,24.02 C97.44,22.9 96.7,22.14 95.38,22.14 L92.54,22.14 C92.46,22.14 92.42,22.18 92.42,22.26 L92.42,25.8 Z M105.94,28.22 C103.98,28.22 102.5,27.24 101.96,25.56 C101.74,24.88 101.64,24.24 101.64,23.18 C101.64,22.12 101.74,21.48 101.96,20.8 C102.5,19.12 103.98,18.14 105.94,18.14 C107.88,18.14 109.36,19.12 109.9,20.8 C110.12,21.48 110.22,22.12 110.22,23.18 C110.22,24.24 110.12,24.88 109.9,25.56 C109.36,27.24 107.88,28.22 105.94,28.22 Z M105.94,26.22 C106.84,26.22 107.46,25.76 107.74,24.96 C107.9,24.46 107.94,24 107.94,23.18 C107.94,22.36 107.9,21.92 107.74,21.4 C107.46,20.6 106.84,20.14 105.94,20.14 C105.04,20.14 104.4,20.6 104.12,21.4 C103.96,21.92 103.92,22.36 103.92,23.18 C103.92,24 103.96,24.46 104.12,24.96 C104.4,25.76 105.04,26.22 105.94,26.22 Z M116.4,28.22 C114.44,28.22 112.96,27.24 112.42,25.56 C112.2,24.88 112.1,24.24 112.1,23.18 C112.1,22.12 112.2,21.48 112.42,20.8 C112.96,19.12 114.44,18.14 116.4,18.14 C118.34,18.14 119.82,19.12 120.36,20.8 C120.58,21.48 120.68,22.12 120.68,23.18 C120.68,24.24 120.58,24.88 120.36,25.56 C119.82,27.24 118.34,28.22 116.4,28.22 Z M116.4,26.22 C117.3,26.22 117.92,25.76 118.2,24.96 C118.36,24.46 118.4,24 118.4,23.18 C118.4,22.36 118.36,21.92 118.2,21.4 C117.92,20.6 117.3,20.14 116.4,20.14 C115.5,20.14 114.86,20.6 114.58,21.4 C114.42,21.92 114.38,22.36 114.38,23.18 C114.38,24 114.42,24.46 114.58,24.96 C114.86,25.76 115.5,26.22 116.4,26.22 Z M131.48,28 L129.38,28 C129.24,28 129.14,27.94 129.06,27.8 L126.62,23.76 L125.32,25.26 L125.32,27.8 C125.32,27.92 125.24,28 125.12,28 L123.28,28 C123.16,28 123.08,27.92 123.08,27.8 L123.08,14.6 C123.08,14.48 123.16,14.4 123.28,14.4 L125.12,14.4 C125.24,14.4 125.32,14.48 125.32,14.6 L125.32,22.44 L128.62,18.56 C128.74,18.42 128.84,18.36 129,18.36 L131.04,18.36 C131.16,18.36 131.2,18.48 131.12,18.56 L128.06,22.08 L131.58,27.8 C131.64,27.88 131.6,28 131.48,28 Z M138.28,27.8 L138.28,14.6 C138.28,14.48 138.36,14.4 138.48,14.4 L140.32,14.4 C140.48,14.4 140.58,14.46 140.66,14.6 L146.2,23.98 L146.28,23.98 L146.28,14.6 C146.28,14.48 146.36,14.4 146.48,14.4 L148.22,14.4 C148.34,14.4 148.42,14.48 148.42,14.6 L148.42,27.8 C148.42,27.92 148.34,28 148.22,28 L146.4,28 C146.24,28 146.14,27.94 146.06,27.8 L140.5,18.44 L140.42,18.44 L140.42,27.8 C140.42,27.92 140.34,28 140.22,28 L138.48,28 C138.36,28 138.28,27.92 138.28,27.8 Z M155.16,28.22 C153.2,28.22 151.72,27.24 151.18,25.56 C150.96,24.88 150.86,24.24 150.86,23.18 C150.86,22.12 150.96,21.48 151.18,20.8 C151.72,19.12 153.2,18.14 155.16,18.14 C157.1,18.14 158.58,19.12 159.12,20.8 C159.34,21.48 159.44,22.12 159.44,23.18 C159.44,24.24 159.34,24.88 159.12,25.56 C158.58,27.24 157.1,28.22 155.16,28.22 Z M155.16,26.22 C156.06,26.22 156.68,25.76 156.96,24.96 C157.12,24.46 157.16,24 157.16,23.18 C157.16,22.36 157.12,21.92 156.96,21.4 C156.68,20.6 156.06,20.14 155.16,20.14 C154.26,20.14 153.62,20.6 153.34,21.4 C153.18,21.92 153.14,22.36 153.14,23.18 C153.14,24 153.18,24.46 153.34,24.96 C153.62,25.76 154.26,26.22 155.16,26.22 Z M171.68,28 L170.04,28 C169.92,28 169.84,27.92 169.8,27.8 L167.94,21.64 L167.9,21.64 L166.02,27.8 C165.98,27.92 165.9,28 165.78,28 L164.14,28 C164.02,28 163.94,27.92 163.9,27.8 L160.86,18.56 C160.82,18.44 160.88,18.36 161,18.36 L162.92,18.36 C163.06,18.36 163.14,18.42 163.18,18.56 L165.04,24.92 L165.08,24.92 L166.92,18.56 C166.96,18.44 167.06,18.36 167.18,18.36 L168.62,18.36 C168.74,18.36 168.84,18.44 168.88,18.56 L170.84,24.92 L170.88,24.92 L172.64,18.56 C172.68,18.42 172.76,18.36 172.9,18.36 L174.82,18.36 C174.94,18.36 175,18.44 174.96,18.56 L171.92,27.8 C171.88,27.92 171.8,28 171.68,28 Z" id="BookNow" fill="#F7F7F7" fill-rule="nonzero"></path>
                    </g>
                    <g id="Group-7" transform="translate(4.000000, 0.000000)">
                        <g id="Rectangle">
                            <mask id="mask-3" fill="white">
                                <use xlink:href="#itinerary-path-2"></use>
                            </mask>
                            <g id="Mask">
                                <use fill="black" fill-opacity="1" filter="url(#filter-4)" xlink:href="#itinerary-path-2"></use>
                                <use fill="#FFFFFF" fill-rule="evenodd" xlink:href="#itinerary-path-2"></use>
                            </g>
                            <rect fill="#7ED321" mask="url(#mask-3)" x="0" y="-2" width="313" height="4"></rect>
                        </g>
                        <path d="M242.03,19 L241.34,19 C241.28,19 241.24,18.96 241.24,18.9 L241.24,13.09 C241.24,13.05 241.22,13.03 241.18,13.03 L239.32,13.03 C239.26,13.03 239.22,12.99 239.22,12.93 L239.22,12.3 C239.22,12.24 239.26,12.2 239.32,12.2 L244.05,12.2 C244.11,12.2 244.15,12.24 244.15,12.3 L244.15,12.93 C244.15,12.99 244.11,13.03 244.05,13.03 L242.19,13.03 C242.15,13.03 242.13,13.05 242.13,13.09 L242.13,18.9 C242.13,18.96 242.09,19 242.03,19 Z M247.22,19.11 C246.08,19.11 245.26,18.57 244.91,17.52 C244.78,17.13 244.73,16.72 244.73,15.6 C244.73,14.48 244.78,14.07 244.91,13.68 C245.26,12.63 246.08,12.09 247.22,12.09 C248.37,12.09 249.19,12.63 249.54,13.68 C249.67,14.07 249.72,14.48 249.72,15.6 C249.72,16.72 249.67,17.13 249.54,17.52 C249.19,18.57 248.37,19.11 247.22,19.11 Z M247.22,18.28 C247.98,18.28 248.46,17.92 248.67,17.27 C248.75,17.02 248.82,16.58 248.82,15.6 C248.82,14.62 248.75,14.18 248.67,13.93 C248.46,13.28 247.98,12.92 247.22,12.92 C246.47,12.92 245.99,13.28 245.78,13.93 C245.7,14.18 245.63,14.62 245.63,15.6 C245.63,16.58 245.7,17.02 245.78,17.27 C245.99,17.92 246.47,18.28 247.22,18.28 Z M253.11,19 L252.42,19 C252.36,19 252.32,18.96 252.32,18.9 L252.32,13.09 C252.32,13.05 252.3,13.03 252.26,13.03 L250.4,13.03 C250.34,13.03 250.3,12.99 250.3,12.93 L250.3,12.3 C250.3,12.24 250.34,12.2 250.4,12.2 L255.13,12.2 C255.19,12.2 255.23,12.24 255.23,12.3 L255.23,12.93 C255.23,12.99 255.19,13.03 255.13,13.03 L253.27,13.03 C253.23,13.03 253.21,13.05 253.21,13.09 L253.21,18.9 C253.21,18.96 253.17,19 253.11,19 Z M254.97,18.9 L257.33,12.3 C257.35,12.24 257.38,12.2 257.45,12.2 L258.1,12.2 C258.17,12.2 258.21,12.24 258.23,12.3 L260.56,18.9 C260.58,18.96 260.55,19 260.49,19 L259.79,19 C259.72,19 259.68,18.97 259.66,18.9 L259.14,17.42 L256.39,17.42 L255.87,18.9 C255.84,18.97 255.8,19 255.74,19 L255.04,19 C254.98,19 254.95,18.96 254.97,18.9 Z M256.68,16.6 L258.85,16.6 L257.78,13.51 L257.76,13.51 L256.68,16.6 Z M261.64,18.9 L261.64,12.3 C261.64,12.24 261.68,12.2 261.74,12.2 L262.43,12.2 C262.49,12.2 262.53,12.24 262.53,12.3 L262.53,18.11 C262.53,18.15 262.55,18.17 262.59,18.17 L265.83,18.17 C265.89,18.17 265.93,18.21 265.93,18.27 L265.93,18.9 C265.93,18.96 265.89,19 265.83,19 L261.74,19 C261.68,19 261.64,18.96 261.64,18.9 Z" id="TOTAL" fill="#575757" fill-rule="nonzero"></path>
                        <path d="M240.104,34.024 C240.024,33.96 240.008,33.864 240.072,33.784 L240.92,32.712 C240.984,32.632 241.08,32.632 241.144,32.696 C241.608,33.08 242.344,33.48 243.192,33.56 L243.192,30.28 C241.368,29.976 240.264,28.84 240.264,27.208 C240.264,25.432 241.48,24.152 243.192,23.976 L243.192,23.144 C243.192,23.048 243.256,22.984 243.352,22.984 L243.976,22.984 C244.072,22.984 244.136,23.048 244.136,23.144 L244.136,23.976 C245.064,24.056 245.912,24.376 246.584,24.824 C246.664,24.888 246.68,24.952 246.616,25.048 L245.88,26.136 C245.816,26.216 245.736,26.216 245.656,26.168 C245.192,25.88 244.68,25.672 244.136,25.592 L244.136,28.712 C246.072,29.032 247.08,30.152 247.08,31.8 C247.08,33.608 245.96,34.872 244.136,35.128 L244.136,35.976 C244.136,36.072 244.072,36.136 243.976,36.136 L243.352,36.136 C243.256,36.136 243.192,36.072 243.192,35.976 L243.192,35.16 C241.976,35.112 240.936,34.68 240.104,34.024 Z M243.192,28.52 L243.192,25.592 C242.472,25.736 242.008,26.312 242.008,27.08 C242.008,27.752 242.28,28.264 243.192,28.52 Z M244.136,33.512 C244.92,33.32 245.336,32.76 245.336,31.864 C245.336,31.256 245.048,30.728 244.136,30.456 L244.136,33.512 Z M248.504,32.84 C248.488,32.744 248.536,32.664 248.632,32.632 L250.024,32.312 C250.104,32.296 250.184,32.328 250.216,32.424 C250.44,33.064 250.968,33.576 251.864,33.576 C252.872,33.576 253.464,32.888 253.464,31.96 C253.464,30.856 252.76,30.184 251.688,30.184 L251.224,30.184 C251.128,30.184 251.064,30.12 251.064,30.024 L251.064,28.76 C251.064,28.664 251.128,28.6 251.224,28.6 L251.656,28.6 C252.616,28.6 253.24,27.976 253.24,27.016 C253.24,26.152 252.696,25.544 251.784,25.544 C250.984,25.544 250.52,25.992 250.328,26.664 C250.296,26.76 250.232,26.792 250.136,26.776 L248.776,26.456 C248.68,26.44 248.632,26.36 248.648,26.264 C248.888,24.952 250.088,23.944 251.848,23.944 C253.88,23.944 255.048,25.192 255.048,26.952 C255.048,27.864 254.632,28.68 253.832,29.208 L253.832,29.24 C254.472,29.512 255.272,30.456 255.272,31.88 C255.272,33.864 253.816,35.176 251.864,35.176 C250.168,35.176 248.84,34.328 248.504,32.84 Z M256.968,36.616 L256.968,33.208 C256.968,33.112 257.032,33.048 257.128,33.048 L258.632,33.048 C258.728,33.048 258.792,33.112 258.792,33.208 L258.792,34.952 C258.792,35.112 258.776,35.192 258.68,35.288 L257.352,36.664 C257.272,36.744 257.208,36.776 257.128,36.776 C257.032,36.776 256.968,36.712 256.968,36.616 Z M263.4,34.84 L263.4,26.264 L263.368,26.264 L261.704,27.432 C261.608,27.496 261.528,27.464 261.528,27.336 L261.528,25.704 C261.528,25.608 261.56,25.544 261.64,25.48 L263.384,24.216 C263.464,24.152 263.544,24.12 263.672,24.12 L265.032,24.12 C265.128,24.12 265.192,24.184 265.192,24.28 L265.192,34.84 C265.192,34.936 265.128,35 265.032,35 L263.56,35 C263.464,35 263.4,34.936 263.4,34.84 Z M271.784,34.84 L271.784,26.264 L271.752,26.264 L270.088,27.432 C269.992,27.496 269.912,27.464 269.912,27.336 L269.912,25.704 C269.912,25.608 269.944,25.544 270.024,25.48 L271.768,24.216 C271.848,24.152 271.928,24.12 272.056,24.12 L273.416,24.12 C273.512,24.12 273.576,24.184 273.576,24.28 L273.576,34.84 C273.576,34.936 273.512,35 273.416,35 L271.944,35 C271.848,35 271.784,34.936 271.784,34.84 Z M278.44,34.824 L281.992,25.768 L281.992,25.72 L279.288,25.72 C279.224,25.72 279.192,25.752 279.192,25.816 L279.192,27.064 C279.192,27.16 279.128,27.224 279.032,27.224 L277.656,27.224 C277.56,27.224 277.496,27.16 277.496,27.064 L277.496,24.28 C277.496,24.184 277.56,24.12 277.656,24.12 L283.752,24.12 C283.848,24.12 283.912,24.184 283.912,24.28 L283.912,25.528 C283.912,25.656 283.896,25.736 283.864,25.816 L280.264,34.856 C280.216,34.968 280.184,35 280.056,35 L278.536,35 C278.44,35 278.392,34.936 278.44,34.824 Z M285.656,34.84 L285.656,33.208 C285.656,33.112 285.72,33.048 285.816,33.048 L287.416,33.048 C287.512,33.048 287.576,33.112 287.576,33.208 L287.576,34.84 C287.576,34.936 287.512,35 287.416,35 L285.816,35 C285.72,35 285.656,34.936 285.656,34.84 Z M289.528,33.048 C289.384,32.6 289.304,32.088 289.304,29.56 C289.304,27.032 289.384,26.52 289.528,26.072 C289.96,24.712 291,23.944 292.616,23.944 C294.232,23.944 295.272,24.712 295.72,26.072 C295.864,26.52 295.944,27.032 295.944,29.56 C295.944,32.088 295.864,32.6 295.72,33.048 C295.272,34.408 294.232,35.176 292.616,35.176 C291,35.176 289.96,34.408 289.528,33.048 Z M291.288,32.712 C291.496,33.288 291.944,33.576 292.616,33.576 C293.288,33.576 293.752,33.288 293.96,32.712 C294.072,32.376 294.104,32.008 294.104,29.56 C294.104,27.112 294.072,26.744 293.96,26.408 C293.752,25.832 293.288,25.544 292.616,25.544 C291.944,25.544 291.496,25.832 291.288,26.408 C291.176,26.744 291.144,27.112 291.144,29.56 C291.144,32.008 291.176,32.376 291.288,32.712 Z M297.912,32.936 C297.896,32.856 297.944,32.776 298.04,32.744 L299.4,32.408 C299.496,32.392 299.56,32.44 299.592,32.536 C299.8,33.144 300.296,33.576 301.096,33.576 C301.72,33.576 302.248,33.256 302.44,32.68 C302.552,32.392 302.584,32.04 302.584,31.48 C302.584,30.888 302.536,30.552 302.44,30.28 C302.232,29.64 301.704,29.384 301.08,29.384 C300.36,29.384 299.928,29.768 299.752,30.136 C299.704,30.248 299.672,30.296 299.56,30.296 L298.216,30.296 C298.12,30.296 298.056,30.232 298.056,30.136 L298.056,24.28 C298.056,24.184 298.12,24.12 298.216,24.12 L304.008,24.12 C304.104,24.12 304.168,24.184 304.168,24.28 L304.168,25.56 C304.168,25.656 304.104,25.72 304.008,25.72 L299.8,25.72 C299.736,25.72 299.704,25.752 299.704,25.816 L299.704,28.264 L299.752,28.264 C300.008,28.056 300.568,27.784 301.352,27.784 C302.744,27.784 303.768,28.44 304.152,29.624 C304.296,30.088 304.392,30.6 304.392,31.48 C304.392,32.2 304.312,32.76 304.168,33.192 C303.752,34.456 302.536,35.176 301.096,35.176 C299.416,35.176 298.152,34.28 297.912,32.936 Z" id="$3,117.05" fill="#575757" fill-rule="nonzero"></path>
                        <g id="Icons/Chevron/Down" transform="translate(111.000000, 30.000000)">
                            <rect id="Rectangle" fill-opacity="0" fill="#FFFFFF" x="0" y="0" width="10" height="10"></rect>
                            <g id="Group" stroke-width="1" transform="translate(1.000000, 3.000000)">
                                <mask id="mask-6" fill="white">
                                    <use xlink:href="#itinerary-path-5"></use>
                                </mask>
                                <use id="Mask" fill="#333333" xlink:href="#itinerary-path-5"></use>
                                <g id="↳🎨icon-color" mask="url(#mask-6)" fill="#333333">
                                    <g transform="translate(-32.000000, -27.200000)" id="Icon-Shade">
                                        <rect x="0" y="0" width="72" height="57.6"></rect>
                                    </g>
                                </g>
                            </g>
                        </g>
                        <g id="Icons/Avatar3" transform="translate(8.000000, 9.000000)" fill="#595959">
                            <g id="placeholder_avatar" transform="translate(3.000000, 3.000000)">
                                <path d="M21.427209,20.2310749 C18.3916334,18.8978549 15.0211939,17.2417506 14.7384064,16.2102626 L14.7384064,15.1283823 C15.3681687,14.3961378 15.8647121,13.3746039 16.1583994,12.1788742 C16.8650653,11.6152264 17.0406722,10.4530916 16.4557198,9.6362377 L16.4557198,7.21242763 C16.4557198,4.71209582 15.2301055,3 12.4288742,3 C9.69970228,3 8.40081748,4.71209582 8.40081748,7.21242763 L8.40081748,9.63685983 C7.81647071,10.4530916 7.99328859,11.6146042 8.69813796,12.1788742 C8.9918252,13.3746039 9.48897411,14.3961378 10.1187364,15.1283823 L10.1187364,16.2102626 C9.83655447,17.2405063 6.46550941,18.8966106 3.4299339,20.2310749 C3.17136802,20.3461685 3,20.6317252 3,20.9508768 L3,23.6583772 C3,24.0832905 3.2991371,24.4285714 3.66791139,24.4285714 L21.1892315,24.4285714 C21.5580058,24.4285714 21.8571429,24.0832905 21.8571429,23.6583772 L21.8571429,20.9508768 C21.8571429,20.6317252 21.6857748,20.3449243 21.427209,20.2310749 L21.427209,20.2310749 Z" id="Stroke-50"></path>
                            </g>
                        </g>
                        <rect id="Rectangle" fill="#D8D8D8" x="47" y="12" width="101" height="6" rx="3"></rect>
                        <rect id="Rectangle-Copy-19" fill="#D8D8D8" x="47" y="29" width="60" height="6" rx="3"></rect>
                    </g>
                    <g id="Rectangle-Copy-3">
                        <use fill="black" fill-opacity="1" filter="url(#filter-8)" xlink:href="#itinerary-path-7"></use>
                        <use fill-opacity="0.6" fill="#333333" fill-rule="evenodd" xlink:href="#itinerary-path-7"></use>
                    </g>
                    <path d="M12.704,79.176 C11.008,79.176 9.36,78.504 8.512,77.688 C8.448,77.624 8.416,77.512 8.496,77.416 L9.712,76.024 C9.776,75.944 9.872,75.944 9.952,76.008 C10.672,76.584 11.648,77.128 12.8,77.128 C13.936,77.128 14.576,76.6 14.576,75.832 C14.576,75.192 14.192,74.792 12.896,74.616 L12.32,74.536 C10.112,74.232 8.88,73.192 8.88,71.272 C8.88,69.272 10.384,67.944 12.736,67.944 C14.176,67.944 15.52,68.376 16.432,69.08 C16.528,69.144 16.544,69.208 16.464,69.32 L15.488,70.776 C15.424,70.856 15.344,70.872 15.264,70.824 C14.432,70.28 13.632,69.992 12.736,69.992 C11.776,69.992 11.28,70.488 11.28,71.176 C11.28,71.8 11.728,72.2 12.976,72.376 L13.552,72.456 C15.792,72.76 16.976,73.784 16.976,75.752 C16.976,77.72 15.52,79.176 12.704,79.176 Z M22.688,79.176 C20.24,79.176 18.512,77.704 18.512,75 L18.512,68.28 C18.512,68.184 18.576,68.12 18.672,68.12 L20.704,68.12 C20.8,68.12 20.864,68.184 20.864,68.28 L20.864,75.064 C20.864,76.36 21.584,77.096 22.688,77.096 C23.776,77.096 24.496,76.36 24.496,75.064 L24.496,68.28 C24.496,68.184 24.56,68.12 24.656,68.12 L26.688,68.12 C26.784,68.12 26.848,68.184 26.848,68.28 L26.848,75 C26.848,77.704 25.12,79.176 22.688,79.176 Z M28.88,78.84 L28.88,68.28 C28.88,68.184 28.944,68.12 29.04,68.12 L30.96,68.12 C31.072,68.12 31.168,68.168 31.232,68.28 L35.072,75.128 L35.152,75.128 L35.152,68.28 C35.152,68.184 35.216,68.12 35.312,68.12 L37.12,68.12 C37.216,68.12 37.28,68.184 37.28,68.28 L37.28,78.84 C37.28,78.936 37.216,79 37.12,79 L35.216,79 C35.088,79 35.008,78.952 34.944,78.84 L31.088,72.008 L31.008,72.008 L31.008,78.84 C31.008,78.936 30.944,79 30.848,79 L29.04,79 C28.944,79 28.88,78.936 28.88,78.84 Z M39.28,80.552 L39.28,76.92 C39.28,76.824 39.344,76.76 39.44,76.76 L41.248,76.76 C41.344,76.76 41.408,76.824 41.408,76.92 L41.408,78.856 C41.408,79 41.36,79.08 41.264,79.176 L39.68,80.616 C39.584,80.696 39.52,80.728 39.44,80.728 C39.344,80.728 39.28,80.664 39.28,80.552 Z M46.48,77.784 C46.432,77.704 46.432,77.624 46.496,77.56 L47.984,76.424 C48.048,76.376 48.128,76.376 48.208,76.456 C48.48,76.776 48.96,77.096 49.536,77.096 C50.56,77.096 51.136,76.44 51.136,75.208 L51.136,68.28 C51.136,68.184 51.2,68.12 51.296,68.12 L53.328,68.12 C53.424,68.12 53.488,68.184 53.488,68.28 L53.488,75.096 C53.488,77.768 52,79.176 49.52,79.176 C48.192,79.176 46.992,78.584 46.48,77.784 Z M54.704,78.84 L58.448,68.28 C58.48,68.184 58.544,68.12 58.656,68.12 L60.672,68.12 C60.784,68.12 60.848,68.184 60.88,68.28 L64.56,78.84 C64.592,78.936 64.56,79 64.448,79 L62.368,79 C62.256,79 62.192,78.952 62.16,78.84 L61.536,76.936 L57.728,76.936 L57.12,78.84 C57.088,78.952 57.024,79 56.912,79 L54.816,79 C54.704,79 54.672,78.936 54.704,78.84 Z M58.384,74.936 L60.896,74.936 L59.664,71.128 L59.616,71.128 L58.384,74.936 Z M65.824,78.84 L65.824,68.28 C65.824,68.184 65.888,68.12 65.984,68.12 L67.904,68.12 C68.016,68.12 68.112,68.168 68.176,68.28 L72.016,75.128 L72.096,75.128 L72.096,68.28 C72.096,68.184 72.16,68.12 72.256,68.12 L74.064,68.12 C74.16,68.12 74.224,68.184 74.224,68.28 L74.224,78.84 C74.224,78.936 74.16,79 74.064,79 L72.16,79 C72.032,79 71.952,78.952 71.888,78.84 L68.032,72.008 L67.952,72.008 L67.952,78.84 C67.952,78.936 67.888,79 67.792,79 L65.984,79 C65.888,79 65.824,78.936 65.824,78.84 Z M81.168,78.824 L84.624,70.12 L84.624,70.072 L82.336,70.072 C82.272,70.072 82.24,70.104 82.24,70.168 L82.24,71.304 C82.24,71.4 82.176,71.464 82.08,71.464 L80.304,71.464 C80.208,71.464 80.144,71.4 80.144,71.304 L80.144,68.28 C80.144,68.184 80.208,68.12 80.304,68.12 L86.816,68.12 C86.912,68.12 86.976,68.184 86.976,68.28 L86.976,69.944 C86.976,70.024 86.96,70.088 86.944,70.136 L83.488,78.856 C83.44,78.968 83.376,79 83.264,79 L81.264,79 C81.168,79 81.12,78.936 81.168,78.824 Z M88.896,80.552 L88.896,76.92 C88.896,76.824 88.96,76.76 89.056,76.76 L90.864,76.76 C90.96,76.76 91.024,76.824 91.024,76.92 L91.024,78.856 C91.024,79 90.976,79.08 90.88,79.176 L89.296,80.616 C89.2,80.696 89.136,80.728 89.056,80.728 C88.96,80.728 88.896,80.664 88.896,80.552 Z M96.8,78.84 L96.8,77.352 C96.8,77.256 96.816,77.208 96.88,77.128 L100.704,72.584 C101.12,72.104 101.344,71.64 101.344,71.08 C101.344,70.36 100.912,69.832 100.16,69.832 C99.424,69.832 98.976,70.28 98.88,71.112 C98.88,71.208 98.816,71.256 98.704,71.24 L96.944,70.952 C96.848,70.936 96.8,70.856 96.816,70.76 C96.928,69.256 98.144,67.944 100.24,67.944 C102.32,67.944 103.584,69.288 103.584,71.048 C103.584,72.088 103.168,72.904 102.48,73.688 L99.616,77.064 L99.616,77.096 L103.424,77.096 C103.52,77.096 103.584,77.16 103.584,77.256 L103.584,78.84 C103.584,78.936 103.52,79 103.424,79 L96.96,79 C96.864,79 96.8,78.936 96.8,78.84 Z M105.824,76.952 C105.664,76.472 105.584,75.976 105.584,73.56 C105.584,71.144 105.664,70.648 105.824,70.168 C106.272,68.776 107.392,67.944 109.104,67.944 C110.816,67.944 111.936,68.776 112.384,70.168 C112.544,70.648 112.624,71.144 112.624,73.56 C112.624,75.976 112.544,76.472 112.384,76.952 C111.936,78.344 110.816,79.176 109.104,79.176 C107.392,79.176 106.272,78.344 105.824,76.952 Z M108,76.552 C108.16,77.048 108.528,77.288 109.104,77.288 C109.664,77.288 110.048,77.048 110.208,76.552 C110.304,76.264 110.336,75.944 110.336,73.56 C110.336,71.176 110.304,70.856 110.208,70.568 C110.048,70.072 109.664,69.832 109.104,69.832 C108.528,69.832 108.16,70.072 108,70.568 C107.904,70.856 107.872,71.176 107.872,73.56 C107.872,75.944 107.904,76.264 108,76.552 Z M117.424,78.84 L117.424,70.648 L117.392,70.648 L115.664,71.832 C115.568,71.896 115.488,71.864 115.488,71.736 L115.488,69.752 C115.488,69.656 115.52,69.592 115.6,69.528 L117.424,68.216 C117.504,68.152 117.6,68.12 117.712,68.12 L119.504,68.12 C119.6,68.12 119.664,68.184 119.664,68.28 L119.664,78.84 C119.664,78.936 119.6,79 119.504,79 L117.584,79 C117.488,79 117.424,78.936 117.424,78.84 Z M123.216,75.864 C123.216,74.648 123.824,73.784 124.512,73.32 L124.512,73.288 C124,72.92 123.456,72.136 123.456,71.112 C123.456,69.432 124.688,67.944 126.896,67.944 C129.104,67.944 130.336,69.432 130.336,71.112 C130.336,72.136 129.792,72.92 129.28,73.288 L129.28,73.32 C129.968,73.784 130.576,74.648 130.576,75.864 C130.576,77.864 129.008,79.176 126.896,79.176 C124.784,79.176 123.216,77.864 123.216,75.864 Z M126.896,72.376 C127.648,72.376 128.144,71.8 128.144,71.112 C128.144,70.408 127.648,69.832 126.896,69.832 C126.144,69.832 125.648,70.408 125.648,71.112 C125.648,71.8 126.144,72.376 126.896,72.376 Z M125.424,75.768 C125.424,76.664 126.016,77.288 126.896,77.288 C127.776,77.288 128.368,76.664 128.368,75.768 C128.368,74.888 127.776,74.264 126.896,74.264 C126.016,74.264 125.424,74.888 125.424,75.768 Z" id="SUN,JAN7,2018" fill="#FFFFFF" fill-rule="nonzero"></path>
                    <g id="Group-5" transform="translate(6.000000, 96.000000)">
                        <g id="Rectangle">
                            <mask id="mask-10" fill="white">
                                <use xlink:href="#itinerary-path-9"></use>
                            </mask>
                            <g id="Mask">
                                <use fill="black" fill-opacity="1" filter="url(#filter-11)" xlink:href="#itinerary-path-9"></use>
                                <use fill="#FFFFFF" fill-rule="evenodd" xlink:href="#itinerary-path-9"></use>
                            </g>
                            <rect fill="#7ED321" mask="url(#mask-10)" x="0" y="-2" width="313" height="4"></rect>
                        </g>
                        <g id="Icons/Plane-Copy-18" transform="translate(11.000000, 13.000000)">
                            <mask id="mask-13" fill="white">
                                <use xlink:href="#itinerary-path-12"></use>
                            </mask>
                            <use id="Mask" fill="#CCCCCC" xlink:href="#itinerary-path-12"></use>
                        </g>
                        <rect id="Rectangle-Copy-43" fill="#666666" x="45" y="10" width="34" height="4" rx="2"></rect>
                        <rect id="Rectangle-Copy-78" fill="#666666" x="45" y="37" width="55" height="4" rx="2"></rect>
                        <rect id="Rectangle-Copy-76" fill="#CCCCCC" x="45" y="22" width="42" height="4" rx="2"></rect>
                        <rect id="Rectangle-Copy-80" fill="#CCCCCC" x="45" y="49" width="63" height="4" rx="2"></rect>
                        <rect id="Rectangle-Copy-75" fill="#666666" x="125" y="10" width="34" height="4" rx="2"></rect>
                        <rect id="Rectangle-Copy-82" fill="#666666" x="274" y="25" width="34" height="4" rx="2"></rect>
                        <rect id="Rectangle-Copy-79" fill="#666666" x="125" y="37" width="47" height="4" rx="2"></rect>
                        <rect id="Rectangle-Copy-77" fill="#CCCCCC" x="125" y="22" width="34" height="4" rx="2"></rect>
                        <rect id="Rectangle-Copy-81" fill="#CCCCCC" x="211" y="10" width="97" height="4" rx="2"></rect>
                    </g>
                    <g id="Group-5-Copy" transform="translate(6.000000, 276.000000)">
                        <g id="Rectangle">
                            <mask id="mask-15" fill="white">
                                <use xlink:href="#itinerary-path-14"></use>
                            </mask>
                            <g id="Mask">
                                <use fill="black" fill-opacity="1" filter="url(#filter-16)" xlink:href="#itinerary-path-14"></use>
                                <use fill="#FFFFFF" fill-rule="evenodd" xlink:href="#itinerary-path-14"></use>
                            </g>
                            <rect fill="#7ED321" mask="url(#mask-15)" x="0" y="-2" width="313" height="4"></rect>
                        </g>
                        <g id="Icons/Plane-Copy-19" transform="translate(11.000000, 13.000000)">
                            <mask id="mask-18" fill="white">
                                <use xlink:href="#itinerary-path-17"></use>
                            </mask>
                            <use id="Mask" fill="#CCCCCC" xlink:href="#itinerary-path-17"></use>
                        </g>
                        <rect id="Rectangle-Copy-43" fill="#666666" x="45" y="10" width="34" height="4" rx="2"></rect>
                        <rect id="Rectangle-Copy-78" fill="#666666" x="45" y="37" width="55" height="4" rx="2"></rect>
                        <rect id="Rectangle-Copy-76" fill="#CCCCCC" x="45" y="22" width="42" height="4" rx="2"></rect>
                        <rect id="Rectangle-Copy-80" fill="#CCCCCC" x="45" y="49" width="63" height="4" rx="2"></rect>
                        <rect id="Rectangle-Copy-75" fill="#666666" x="125" y="10" width="34" height="4" rx="2"></rect>
                        <rect id="Rectangle-Copy-82" fill="#666666" x="274" y="25" width="34" height="4" rx="2"></rect>
                        <rect id="Rectangle-Copy-79" fill="#666666" x="125" y="37" width="47" height="4" rx="2"></rect>
                        <rect id="Rectangle-Copy-77" fill="#CCCCCC" x="125" y="22" width="34" height="4" rx="2"></rect>
                        <rect id="Rectangle-Copy-81" fill="#CCCCCC" x="211" y="10" width="97" height="4" rx="2"></rect>
                    </g>
                    <g id="Group-4" transform="translate(6.000000, 173.000000)">
                        <g id="Rectangle">
                            <mask id="mask-20" fill="white">
                                <use xlink:href="#itinerary-path-19"></use>
                            </mask>
                            <g id="Mask">
                                <use fill="black" fill-opacity="1" filter="url(#filter-21)" xlink:href="#itinerary-path-19"></use>
                                <use fill="#FFFFFF" fill-rule="evenodd" xlink:href="#itinerary-path-19"></use>
                            </g>
                            <rect fill="#7ED321" mask="url(#mask-20)" x="0" y="-2" width="313" height="4"></rect>
                        </g>
                        <g id="Icons/Plane-Copy-21" transform="translate(8.000000, 16.000000)" fill="#CCCCCC">
                            <g id="Rectangle">
                                <g id="Mask">
                                    <polygon id="Path" points="1.34917647 9.88235294 1.34917647 0 0 0 0 14.5882353 1.34917647 14.5882353 1.34917647 11.2941176 22.5256471 11.2941176 22.5256471 14.5882353 24 14.5882353 24 9.88235294 22.5256471 9.88235294"></polygon>
                                    <circle id="Oval" cx="4.23529412" cy="5.17647059" r="1.88235294"></circle>
                                    <polygon id="Path" points="2.35294118 8.94117647 6.58823529 8.94117647 7.52941176 8.94117647 8 8.94117647 8 3.76470588 6.58823529 3.76470588 6.58823529 7.52941176 2.35294118 7.52941176"></polygon>
                                    <rect id="Rectangle" x="8.94117647" y="3.76470588" width="14.1176471" height="5.17647059"></rect>
                                </g>
                            </g>
                        </g>
                        <rect id="Rectangle-Copy-83" fill="#666666" x="45" y="15" width="126" height="4" rx="2"></rect>
                        <rect id="Rectangle-Copy-84" fill="#CCCCCC" x="45" y="29" width="149" height="4" rx="2"></rect>
                        <rect id="Rectangle-Copy-85" fill="#CCCCCC" x="45" y="43" width="149" height="4" rx="2"></rect>
                        <rect id="Rectangle-Copy-86" fill="#666666" x="45" y="56" width="48" height="4" rx="2"></rect>
                        <rect id="Rectangle-Copy-87" fill="#666666" x="124" y="56" width="48" height="4" rx="2"></rect>
                        <rect id="Rectangle-Copy-88" fill="#666666" x="274" y="55" width="34" height="4" rx="2"></rect>
                        <rect id="Rectangle-Copy-89" fill="#CCCCCC" x="211" y="14.5" width="97" height="4" rx="2"></rect>
                    </g>
                    <g id="Rectangle">
                        <use fill="black" fill-opacity="1" filter="url(#filter-23)" xlink:href="#itinerary-path-22"></use>
                        <use fill-opacity="0.6" fill="#333333" fill-rule="evenodd" xlink:href="#itinerary-path-22"></use>
                    </g>
                    <path d="M13.472,260 L11.44,260 C11.344,260 11.28,259.936 11.28,259.84 L11.28,251.312 C11.28,251.248 11.248,251.216 11.184,251.216 L8.432,251.216 C8.336,251.216 8.272,251.152 8.272,251.056 L8.272,249.28 C8.272,249.184 8.336,249.12 8.432,249.12 L16.48,249.12 C16.576,249.12 16.64,249.184 16.64,249.28 L16.64,251.056 C16.64,251.152 16.576,251.216 16.48,251.216 L13.728,251.216 C13.664,251.216 13.632,251.248 13.632,251.312 L13.632,259.84 C13.632,259.936 13.568,260 13.472,260 Z M22.08,260.176 C19.632,260.176 17.904,258.704 17.904,256 L17.904,249.28 C17.904,249.184 17.968,249.12 18.064,249.12 L20.096,249.12 C20.192,249.12 20.256,249.184 20.256,249.28 L20.256,256.064 C20.256,257.36 20.976,258.096 22.08,258.096 C23.168,258.096 23.888,257.36 23.888,256.064 L23.888,249.28 C23.888,249.184 23.952,249.12 24.048,249.12 L26.08,249.12 C26.176,249.12 26.24,249.184 26.24,249.28 L26.24,256 C26.24,258.704 24.512,260.176 22.08,260.176 Z M28.272,259.84 L28.272,249.28 C28.272,249.184 28.336,249.12 28.432,249.12 L35.408,249.12 C35.504,249.12 35.568,249.184 35.568,249.28 L35.568,250.992 C35.568,251.088 35.504,251.152 35.408,251.152 L30.72,251.152 C30.656,251.152 30.624,251.184 30.624,251.248 L30.624,253.408 C30.624,253.472 30.656,253.504 30.72,253.504 L34.624,253.504 C34.72,253.504 34.784,253.568 34.784,253.664 L34.784,255.36 C34.784,255.456 34.72,255.52 34.624,255.52 L30.72,255.52 C30.656,255.52 30.624,255.552 30.624,255.616 L30.624,257.872 C30.624,257.936 30.656,257.968 30.72,257.968 L35.408,257.968 C35.504,257.968 35.568,258.032 35.568,258.128 L35.568,259.84 C35.568,259.936 35.504,260 35.408,260 L28.432,260 C28.336,260 28.272,259.936 28.272,259.84 Z M37.232,261.552 L37.232,257.92 C37.232,257.824 37.296,257.76 37.392,257.76 L39.2,257.76 C39.296,257.76 39.36,257.824 39.36,257.92 L39.36,259.856 C39.36,260 39.312,260.08 39.216,260.176 L37.632,261.616 C37.536,261.696 37.472,261.728 37.392,261.728 C37.296,261.728 37.232,261.664 37.232,261.552 Z M44.432,258.784 C44.384,258.704 44.384,258.624 44.448,258.56 L45.936,257.424 C46,257.376 46.08,257.376 46.16,257.456 C46.432,257.776 46.912,258.096 47.488,258.096 C48.512,258.096 49.088,257.44 49.088,256.208 L49.088,249.28 C49.088,249.184 49.152,249.12 49.248,249.12 L51.28,249.12 C51.376,249.12 51.44,249.184 51.44,249.28 L51.44,256.096 C51.44,258.768 49.952,260.176 47.472,260.176 C46.144,260.176 44.944,259.584 44.432,258.784 Z M52.656,259.84 L56.4,249.28 C56.432,249.184 56.496,249.12 56.608,249.12 L58.624,249.12 C58.736,249.12 58.8,249.184 58.832,249.28 L62.512,259.84 C62.544,259.936 62.512,260 62.4,260 L60.32,260 C60.208,260 60.144,259.952 60.112,259.84 L59.488,257.936 L55.68,257.936 L55.072,259.84 C55.04,259.952 54.976,260 54.864,260 L52.768,260 C52.656,260 52.624,259.936 52.656,259.84 Z M56.336,255.936 L58.848,255.936 L57.616,252.128 L57.568,252.128 L56.336,255.936 Z M63.776,259.84 L63.776,249.28 C63.776,249.184 63.84,249.12 63.936,249.12 L65.856,249.12 C65.968,249.12 66.064,249.168 66.128,249.28 L69.968,256.128 L70.048,256.128 L70.048,249.28 C70.048,249.184 70.112,249.12 70.208,249.12 L72.016,249.12 C72.112,249.12 72.176,249.184 72.176,249.28 L72.176,259.84 C72.176,259.936 72.112,260 72.016,260 L70.112,260 C69.984,260 69.904,259.952 69.84,259.84 L65.984,253.008 L65.904,253.008 L65.904,259.84 C65.904,259.936 65.84,260 65.744,260 L63.936,260 C63.84,260 63.776,259.936 63.776,259.84 Z M79.312,259.84 L81.616,255.632 L81.584,255.6 C81.472,255.648 81.2,255.696 80.912,255.696 C79.2,255.696 77.792,254.416 77.792,252.416 C77.792,250.224 79.376,248.944 81.44,248.944 C83.52,248.944 85.088,250.224 85.088,252.368 C85.088,253.296 84.8,254.128 84.288,255.056 L81.648,259.888 C81.6,259.984 81.568,260 81.456,260 L79.424,260 C79.296,260 79.264,259.936 79.312,259.84 Z M81.44,253.856 C82.32,253.856 82.88,253.232 82.88,252.336 C82.88,251.456 82.32,250.832 81.44,250.832 C80.56,250.832 80,251.456 80,252.336 C80,253.232 80.56,253.856 81.44,253.856 Z M86.848,261.552 L86.848,257.92 C86.848,257.824 86.912,257.76 87.008,257.76 L88.816,257.76 C88.912,257.76 88.976,257.824 88.976,257.92 L88.976,259.856 C88.976,260 88.928,260.08 88.832,260.176 L87.248,261.616 C87.152,261.696 87.088,261.728 87.008,261.728 C86.912,261.728 86.848,261.664 86.848,261.552 Z M94.752,259.84 L94.752,258.352 C94.752,258.256 94.768,258.208 94.832,258.128 L98.656,253.584 C99.072,253.104 99.296,252.64 99.296,252.08 C99.296,251.36 98.864,250.832 98.112,250.832 C97.376,250.832 96.928,251.28 96.832,252.112 C96.832,252.208 96.768,252.256 96.656,252.24 L94.896,251.952 C94.8,251.936 94.752,251.856 94.768,251.76 C94.88,250.256 96.096,248.944 98.192,248.944 C100.272,248.944 101.536,250.288 101.536,252.048 C101.536,253.088 101.12,253.904 100.432,254.688 L97.568,258.064 L97.568,258.096 L101.376,258.096 C101.472,258.096 101.536,258.16 101.536,258.256 L101.536,259.84 C101.536,259.936 101.472,260 101.376,260 L94.912,260 C94.816,260 94.752,259.936 94.752,259.84 Z M103.776,257.952 C103.616,257.472 103.536,256.976 103.536,254.56 C103.536,252.144 103.616,251.648 103.776,251.168 C104.224,249.776 105.344,248.944 107.056,248.944 C108.768,248.944 109.888,249.776 110.336,251.168 C110.496,251.648 110.576,252.144 110.576,254.56 C110.576,256.976 110.496,257.472 110.336,257.952 C109.888,259.344 108.768,260.176 107.056,260.176 C105.344,260.176 104.224,259.344 103.776,257.952 Z M105.952,257.552 C106.112,258.048 106.48,258.288 107.056,258.288 C107.616,258.288 108,258.048 108.16,257.552 C108.256,257.264 108.288,256.944 108.288,254.56 C108.288,252.176 108.256,251.856 108.16,251.568 C108,251.072 107.616,250.832 107.056,250.832 C106.48,250.832 106.112,251.072 105.952,251.568 C105.856,251.856 105.824,252.176 105.824,254.56 C105.824,256.944 105.856,257.264 105.952,257.552 Z M115.376,259.84 L115.376,251.648 L115.344,251.648 L113.616,252.832 C113.52,252.896 113.44,252.864 113.44,252.736 L113.44,250.752 C113.44,250.656 113.472,250.592 113.552,250.528 L115.376,249.216 C115.456,249.152 115.552,249.12 115.664,249.12 L117.456,249.12 C117.552,249.12 117.616,249.184 117.616,249.28 L117.616,259.84 C117.616,259.936 117.552,260 117.456,260 L115.536,260 C115.44,260 115.376,259.936 115.376,259.84 Z M121.168,256.864 C121.168,255.648 121.776,254.784 122.464,254.32 L122.464,254.288 C121.952,253.92 121.408,253.136 121.408,252.112 C121.408,250.432 122.64,248.944 124.848,248.944 C127.056,248.944 128.288,250.432 128.288,252.112 C128.288,253.136 127.744,253.92 127.232,254.288 L127.232,254.32 C127.92,254.784 128.528,255.648 128.528,256.864 C128.528,258.864 126.96,260.176 124.848,260.176 C122.736,260.176 121.168,258.864 121.168,256.864 Z M124.848,253.376 C125.6,253.376 126.096,252.8 126.096,252.112 C126.096,251.408 125.6,250.832 124.848,250.832 C124.096,250.832 123.6,251.408 123.6,252.112 C123.6,252.8 124.096,253.376 124.848,253.376 Z M123.376,256.768 C123.376,257.664 123.968,258.288 124.848,258.288 C125.728,258.288 126.32,257.664 126.32,256.768 C126.32,255.888 125.728,255.264 124.848,255.264 C123.968,255.264 123.376,255.888 123.376,256.768 Z" id="TUE,JAN9,2018" fill="#FFFFFF" fill-rule="nonzero"></path>
                    <path d="M156,254.5 L319,254.5" id="Line-Copy-4" stroke="#979797" opacity="0.2" stroke-linecap="square" stroke-dasharray="2,4"></path>
                </g>
            </g>
        </g>
    </g>
</svg>