<?xml version="1.0" encoding="UTF-8"?>
<svg id="itinerary-1" width="327px" height="454px" viewBox="0 0 327 454" version="1.1" xmlns="http://www.w3.org/2000/svg" xmlns:xlink="http://www.w3.org/1999/xlink">
    <!-- Generator: Sketch 53.2 (72643) - https://sketchapp.com -->
    <title>Itinerary 1</title>
    <desc>Created with Sketch.</desc>
    <defs>
        <filter id="inset-shadow">
            <feOffset dx="1" dy="2"/>
            <feGaussianBlur stdDeviation="3"  result="offset-blur"/>
            <feComposite operator="out" in="SourceGraphic" in2="offset-blur" result="inverse"/>
            <feFlood flood-color="black" flood-opacity="0.5" result="color"/>
            <feComposite operator="in" in="color" in2="inverse" result="shadow"/>
            <feComponentTransfer in="shadow" result="shadow">
                <feFuncA type="linear" slope="1.8"/>
            </feComponentTransfer>
            <feComposite operator="over" in="shadow" in2="SourceGraphic"/>
        </filter>
        <filter id="dropshadow" height="130%">
            <feGaussianBlur in="SourceAlpha" stdDeviation="3"/>
            <feOffset dx="2" dy="2" result="offsetblur"/>
            <feComponentTransfer>
                <feFuncA type="linear" slope="0.5"/>
            </feComponentTransfer>
            <feMerge> 
                <feMergeNode/>
                <feMergeNode in="SourceGraphic"/>
            </feMerge>
        </filter>
        <rect id="itinerary-1-path-1" x="0" y="0" width="313" height="47" rx="4"></rect>
        <filter x="-1.0%" y="-6.4%" width="101.9%" height="112.8%" filterUnits="objectBoundingBox" id="itinerary-1-filter-3">
            <feOffset dx="0" dy="0" in="SourceAlpha" result="shadowOffsetOuter1"></feOffset>
            <feGaussianBlur stdDeviation="1" in="shadowOffsetOuter1" result="shadowBlurOuter1"></feGaussianBlur>
            <feColorMatrix values="0 0 0 0 0   0 0 0 0 0   0 0 0 0 0  0 0 0 0.257048234 0" type="matrix" in="shadowBlurOuter1"></feColorMatrix>
        </filter>
        <polygon id="itinerary-1-path-4" points="7.0625 0 8 0.75 4 3.95 0 0.75 0.9375 0 4 2.45"></polygon>
        <rect id="itinerary-1-path-6" x="0" y="0" width="313" height="65" rx="4"></rect>
        <filter x="-2.2%" y="-7.7%" width="104.5%" height="121.5%" filterUnits="objectBoundingBox" id="itinerary-1-filter-8">
            <feOffset dx="0" dy="2" in="SourceAlpha" result="shadowOffsetOuter1"></feOffset>
            <feGaussianBlur stdDeviation="2" in="shadowOffsetOuter1" result="shadowBlurOuter1"></feGaussianBlur>
            <feColorMatrix values="0 0 0 0 0   0 0 0 0 0   0 0 0 0 0  0 0 0 0.245103034 0" type="matrix" in="shadowBlurOuter1"></feColorMatrix>
        </filter>
        <path d="M16.3340183,18.4606537 L17.7700568,17.0246153 C17.8570894,16.9375827 17.9006057,16.8070337 17.8570894,16.7200011 L16.0294041,7.7121235 C15.9858878,7.58157455 16.0294041,7.49454192 16.1164367,7.40750928 L20.2069705,3.31697551 C20.9032316,2.62071444 20.9032316,1.4892902 20.2069705,0.793029135 L20.2069705,0.793029135 C19.5107094,0.0967680662 18.3792852,0.0967680662 17.6830241,0.793029135 L13.4619414,5.01411186 C13.3749088,5.1011445 13.2878761,5.14466081 13.1573272,5.1011445 L4.01890065,3.40400814 C3.8883517,3.40400814 3.80131907,3.40400814 3.71428644,3.49104077 L2.23473167,5.01411186 C2.0606664,5.18817713 2.10418272,5.49279135 2.3217643,5.57982398 L9.24085867,8.62596615 C9.45844025,8.71299879 9.50195657,9.017613 9.3278913,9.19167827 L4.84571067,13.6738589 C4.75867804,13.7608915 4.62812909,13.8044078 4.54109645,13.7608915 L1.58198691,13.1516631 C1.45143796,13.1081468 1.36440533,13.1516631 1.2773727,13.2386957 L0.407046361,14.1090221 C0.232981094,14.2830873 0.276497411,14.5441852 0.494078995,14.6747342 L3.45318854,16.1107726 C3.45318854,16.154289 3.49670485,16.154289 3.54022117,16.1978053 L4.80219436,17.4597785 C4.84571067,17.5032948 4.84571067,17.5032948 4.84571067,17.5468111 L6.36878176,20.5494369 C6.45581439,20.7670185 6.76042861,20.8105348 6.93449388,20.6364696 L7.67427126,19.8966922 C7.7613039,19.8096596 7.80482021,19.6791106 7.7613039,19.592078 L7.15207546,16.5894521 C7.10855914,16.4589032 7.15207546,16.3718705 7.23910809,16.2848379 L11.9823866,11.5415594 C12.1564519,11.3674941 12.4175498,11.4110104 12.5480987,11.628592 L15.8118225,18.3736211 C15.8988551,18.5912027 16.159953,18.634719 16.3340183,18.4606537 Z" id="itinerary-1-path-9"></path>
        <rect id="itinerary-1-path-11" x="0" y="0" width="313" height="92" rx="4"></rect>
        <filter x="-2.2%" y="-5.4%" width="104.5%" height="115.2%" filterUnits="objectBoundingBox" id="itinerary-1-filter-13">
            <feOffset dx="0" dy="2" in="SourceAlpha" result="shadowOffsetOuter1"></feOffset>
            <feGaussianBlur stdDeviation="2" in="shadowOffsetOuter1" result="shadowBlurOuter1"></feGaussianBlur>
            <feColorMatrix values="0 0 0 0 0   0 0 0 0 0   0 0 0 0 0  0 0 0 0.245103034 0" type="matrix" in="shadowBlurOuter1"></feColorMatrix>
        </filter>
        <rect id="itinerary-1-path-14" x="0" y="0" width="313" height="65" rx="4"></rect>
        <filter x="-2.2%" y="-7.7%" width="104.5%" height="121.5%" filterUnits="objectBoundingBox" id="itinerary-1-filter-16">
            <feOffset dx="0" dy="2" in="SourceAlpha" result="shadowOffsetOuter1"></feOffset>
            <feGaussianBlur stdDeviation="2" in="shadowOffsetOuter1" result="shadowBlurOuter1"></feGaussianBlur>
            <feColorMatrix values="0 0 0 0 0   0 0 0 0 0   0 0 0 0 0  0 0 0 0.245103034 0" type="matrix" in="shadowBlurOuter1"></feColorMatrix>
        </filter>
        <path d="M16.3340183,18.4606537 L17.7700568,17.0246153 C17.8570894,16.9375827 17.9006057,16.8070337 17.8570894,16.7200011 L16.0294041,7.7121235 C15.9858878,7.58157455 16.0294041,7.49454192 16.1164367,7.40750928 L20.2069705,3.31697551 C20.9032316,2.62071444 20.9032316,1.4892902 20.2069705,0.793029135 L20.2069705,0.793029135 C19.5107094,0.0967680662 18.3792852,0.0967680662 17.6830241,0.793029135 L13.4619414,5.01411186 C13.3749088,5.1011445 13.2878761,5.14466081 13.1573272,5.1011445 L4.01890065,3.40400814 C3.8883517,3.40400814 3.80131907,3.40400814 3.71428644,3.49104077 L2.23473167,5.01411186 C2.0606664,5.18817713 2.10418272,5.49279135 2.3217643,5.57982398 L9.24085867,8.62596615 C9.45844025,8.71299879 9.50195657,9.017613 9.3278913,9.19167827 L4.84571067,13.6738589 C4.75867804,13.7608915 4.62812909,13.8044078 4.54109645,13.7608915 L1.58198691,13.1516631 C1.45143796,13.1081468 1.36440533,13.1516631 1.2773727,13.2386957 L0.407046361,14.1090221 C0.232981094,14.2830873 0.276497411,14.5441852 0.494078995,14.6747342 L3.45318854,16.1107726 C3.45318854,16.154289 3.49670485,16.154289 3.54022117,16.1978053 L4.80219436,17.4597785 C4.84571067,17.5032948 4.84571067,17.5032948 4.84571067,17.5468111 L6.36878176,20.5494369 C6.45581439,20.7670185 6.76042861,20.8105348 6.93449388,20.6364696 L7.67427126,19.8966922 C7.7613039,19.8096596 7.80482021,19.6791106 7.7613039,19.592078 L7.15207546,16.5894521 C7.10855914,16.4589032 7.15207546,16.3718705 7.23910809,16.2848379 L11.9823866,11.5415594 C12.1564519,11.3674941 12.4175498,11.4110104 12.5480987,11.628592 L15.8118225,18.3736211 C15.8988551,18.5912027 16.159953,18.634719 16.3340183,18.4606537 Z" id="itinerary-1-path-17"></path>
        <rect id="itinerary-1-path-19" x="0" y="0" width="151" height="21"></rect>
        <filter x="-4.0%" y="-28.6%" width="107.9%" height="157.1%" filterUnits="objectBoundingBox" id="itinerary-1-filter-20">
            <feOffset dx="0" dy="0" in="SourceAlpha" result="shadowOffsetOuter1"></feOffset>
            <feGaussianBlur stdDeviation="2" in="shadowOffsetOuter1" result="shadowBlurOuter1"></feGaussianBlur>
            <feComposite in="shadowBlurOuter1" in2="SourceAlpha" operator="out" result="shadowBlurOuter1"></feComposite>
            <feColorMatrix values="0 0 0 0 0   0 0 0 0 0   0 0 0 0 0  0 0 0 0.253000453 0" type="matrix" in="shadowBlurOuter1"></feColorMatrix>
        </filter>
        <rect id="itinerary-1-path-21" x="0" y="0" width="151" height="21"></rect>
        <filter x="-4.0%" y="-28.6%" width="107.9%" height="157.1%" filterUnits="objectBoundingBox" id="itinerary-1-filter-22">
            <feOffset dx="0" dy="0" in="SourceAlpha" result="shadowOffsetOuter1"></feOffset>
            <feGaussianBlur stdDeviation="2" in="shadowOffsetOuter1" result="shadowBlurOuter1"></feGaussianBlur>
            <feComposite in="shadowBlurOuter1" in2="SourceAlpha" operator="out" result="shadowBlurOuter1"></feComposite>
            <feColorMatrix values="0 0 0 0 0   0 0 0 0 0   0 0 0 0 0  0 0 0 0.253000453 0" type="matrix" in="shadowBlurOuter1"></feColorMatrix>
        </filter>
        <path d="M0,2.4916997 C0,1.11557195 1.11965717,0 2.50728552,0 L261.492714,0 C262.87745,0 264,1.10965268 264,2.4916997 L264,41.5083003 C264,42.884428 262.880343,44 261.492714,44 L2.50728552,44 C1.12254997,44 0,42.8903473 0,41.5083003 L0,2.4916997 Z" id="itinerary-1-path-23"></path>
        <filter x="-2.7%" y="-11.4%" width="105.3%" height="131.8%" filterUnits="objectBoundingBox" id="itinerary-1-filter-24">
            <feOffset dx="0" dy="2" in="SourceAlpha" result="shadowOffsetOuter1"></feOffset>
            <feGaussianBlur stdDeviation="2" in="shadowOffsetOuter1" result="shadowBlurOuter1"></feGaussianBlur>
            <feColorMatrix values="0 0 0 0 0   0 0 0 0 0   0 0 0 0 0  0 0 0 0.248907343 0" type="matrix" in="shadowBlurOuter1"></feColorMatrix>
        </filter>
    </defs>
    <g id="Website-Animations" stroke="none" stroke-width="1" fill="none" fill-rule="evenodd">
        <g id="Artboard-Copy-2" transform="translate(-46.000000, -68.000000)">
            <g id="Itinerary-1" transform="translate(50.000000, 70.000000)">
                <g id="Card-1.1" class="itinerary-1-card" transform="translate(4.000000, 0.000000)">
                    <g id="Card">
                        <mask id="itinerary-1-mask-2" fill="white">
                            <use xlink:href="#itinerary-1-path-1"></use>
                        </mask>
                        <g id="White-Background">
                            <use fill="black" fill-opacity="1" filter="url(#itinerary-1-filter-3)" xlink:href="#itinerary-1-path-1"></use>
                            <use fill="#FFFFFF" fill-rule="evenodd" xlink:href="#itinerary-1-path-1"></use>
                        </g>
                        <rect id="Green-Stripe" fill="#7ED321" mask="url(#itinerary-1-mask-2)" x="0" y="-2" width="313" height="4"></rect>
                    </g>
                    <path xmlns="http://www.w3.org/2000/svg" d="M242.03,19 L241.34,19 C241.28,19 241.24,18.96 241.24,18.9 L241.24,13.09 C241.24,13.05 241.22,13.03 241.18,13.03 L239.32,13.03 C239.26,13.03 239.22,12.99 239.22,12.93 L239.22,12.3 C239.22,12.24 239.26,12.2 239.32,12.2 L244.05,12.2 C244.11,12.2 244.15,12.24 244.15,12.3 L244.15,12.93 C244.15,12.99 244.11,13.03 244.05,13.03 L242.19,13.03 C242.15,13.03 242.13,13.05 242.13,13.09 L242.13,18.9 C242.13,18.96 242.09,19 242.03,19 Z M247.22,19.11 C246.08,19.11 245.26,18.57 244.91,17.52 C244.78,17.13 244.73,16.72 244.73,15.6 C244.73,14.48 244.78,14.07 244.91,13.68 C245.26,12.63 246.08,12.09 247.22,12.09 C248.37,12.09 249.19,12.63 249.54,13.68 C249.67,14.07 249.72,14.48 249.72,15.6 C249.72,16.72 249.67,17.13 249.54,17.52 C249.19,18.57 248.37,19.11 247.22,19.11 Z M247.22,18.28 C247.98,18.28 248.46,17.92 248.67,17.27 C248.75,17.02 248.82,16.58 248.82,15.6 C248.82,14.62 248.75,14.18 248.67,13.93 C248.46,13.28 247.98,12.92 247.22,12.92 C246.47,12.92 245.99,13.28 245.78,13.93 C245.7,14.18 245.63,14.62 245.63,15.6 C245.63,16.58 245.7,17.02 245.78,17.27 C245.99,17.92 246.47,18.28 247.22,18.28 Z M253.11,19 L252.42,19 C252.36,19 252.32,18.96 252.32,18.9 L252.32,13.09 C252.32,13.05 252.3,13.03 252.26,13.03 L250.4,13.03 C250.34,13.03 250.3,12.99 250.3,12.93 L250.3,12.3 C250.3,12.24 250.34,12.2 250.4,12.2 L255.13,12.2 C255.19,12.2 255.23,12.24 255.23,12.3 L255.23,12.93 C255.23,12.99 255.19,13.03 255.13,13.03 L253.27,13.03 C253.23,13.03 253.21,13.05 253.21,13.09 L253.21,18.9 C253.21,18.96 253.17,19 253.11,19 Z M254.97,18.9 L257.33,12.3 C257.35,12.24 257.38,12.2 257.45,12.2 L258.1,12.2 C258.17,12.2 258.21,12.24 258.23,12.3 L260.56,18.9 C260.58,18.96 260.55,19 260.49,19 L259.79,19 C259.72,19 259.68,18.97 259.66,18.9 L259.14,17.42 L256.39,17.42 L255.87,18.9 C255.84,18.97 255.8,19 255.74,19 L255.04,19 C254.98,19 254.95,18.96 254.97,18.9 Z M256.68,16.6 L258.85,16.6 L257.78,13.51 L257.76,13.51 L256.68,16.6 Z M261.64,18.9 L261.64,12.3 C261.64,12.24 261.68,12.2 261.74,12.2 L262.43,12.2 C262.49,12.2 262.53,12.24 262.53,12.3 L262.53,18.11 C262.53,18.15 262.55,18.17 262.59,18.17 L265.83,18.17 C265.89,18.17 265.93,18.21 265.93,18.27 L265.93,18.9 C265.93,18.96 265.89,19 265.83,19 L261.74,19 C261.68,19 261.64,18.96 261.64,18.9 Z" id="TOTAL" fill="#575757" fill-rule="nonzero"/>
                    <path d="M240.104,34.024 C240.024,33.96 240.008,33.864 240.072,33.784 L240.92,32.712 C240.984,32.632 241.08,32.632 241.144,32.696 C241.608,33.08 242.344,33.48 243.192,33.56 L243.192,30.28 C241.368,29.976 240.264,28.84 240.264,27.208 C240.264,25.432 241.48,24.152 243.192,23.976 L243.192,23.144 C243.192,23.048 243.256,22.984 243.352,22.984 L243.976,22.984 C244.072,22.984 244.136,23.048 244.136,23.144 L244.136,23.976 C245.064,24.056 245.912,24.376 246.584,24.824 C246.664,24.888 246.68,24.952 246.616,25.048 L245.88,26.136 C245.816,26.216 245.736,26.216 245.656,26.168 C245.192,25.88 244.68,25.672 244.136,25.592 L244.136,28.712 C246.072,29.032 247.08,30.152 247.08,31.8 C247.08,33.608 245.96,34.872 244.136,35.128 L244.136,35.976 C244.136,36.072 244.072,36.136 243.976,36.136 L243.352,36.136 C243.256,36.136 243.192,36.072 243.192,35.976 L243.192,35.16 C241.976,35.112 240.936,34.68 240.104,34.024 Z M243.192,28.52 L243.192,25.592 C242.472,25.736 242.008,26.312 242.008,27.08 C242.008,27.752 242.28,28.264 243.192,28.52 Z M244.136,33.512 C244.92,33.32 245.336,32.76 245.336,31.864 C245.336,31.256 245.048,30.728 244.136,30.456 L244.136,33.512 Z M251.48,34.84 L251.48,26.264 L251.448,26.264 L249.784,27.432 C249.688,27.496 249.608,27.464 249.608,27.336 L249.608,25.704 C249.608,25.608 249.64,25.544 249.72,25.48 L251.464,24.216 C251.544,24.152 251.624,24.12 251.752,24.12 L253.112,24.12 C253.208,24.12 253.272,24.184 253.272,24.28 L253.272,34.84 C253.272,34.936 253.208,35 253.112,35 L251.64,35 C251.544,35 251.48,34.936 251.48,34.84 Z M256.968,36.616 L256.968,33.208 C256.968,33.112 257.032,33.048 257.128,33.048 L258.632,33.048 C258.728,33.048 258.792,33.112 258.792,33.208 L258.792,34.952 C258.792,35.112 258.776,35.192 258.68,35.288 L257.352,36.664 C257.272,36.744 257.208,36.776 257.128,36.776 C257.032,36.776 256.968,36.712 256.968,36.616 Z M261.672,34.824 L265.224,25.768 L265.224,25.72 L262.52,25.72 C262.456,25.72 262.424,25.752 262.424,25.816 L262.424,27.064 C262.424,27.16 262.36,27.224 262.264,27.224 L260.888,27.224 C260.792,27.224 260.728,27.16 260.728,27.064 L260.728,24.28 C260.728,24.184 260.792,24.12 260.888,24.12 L266.984,24.12 C267.08,24.12 267.144,24.184 267.144,24.28 L267.144,25.528 C267.144,25.656 267.128,25.736 267.096,25.816 L263.496,34.856 C263.448,34.968 263.416,35 263.288,35 L261.768,35 C261.672,35 261.624,34.936 261.672,34.824 Z M271.784,34.84 L271.784,26.264 L271.752,26.264 L270.088,27.432 C269.992,27.496 269.912,27.464 269.912,27.336 L269.912,25.704 C269.912,25.608 269.944,25.544 270.024,25.48 L271.768,24.216 C271.848,24.152 271.928,24.12 272.056,24.12 L273.416,24.12 C273.512,24.12 273.576,24.184 273.576,24.28 L273.576,34.84 C273.576,34.936 273.512,35 273.416,35 L271.944,35 C271.848,35 271.784,34.936 271.784,34.84 Z M277.512,32.936 C277.496,32.856 277.544,32.776 277.64,32.744 L279,32.408 C279.096,32.392 279.16,32.44 279.192,32.536 C279.4,33.144 279.896,33.576 280.696,33.576 C281.32,33.576 281.848,33.256 282.04,32.68 C282.152,32.392 282.184,32.04 282.184,31.48 C282.184,30.888 282.136,30.552 282.04,30.28 C281.832,29.64 281.304,29.384 280.68,29.384 C279.96,29.384 279.528,29.768 279.352,30.136 C279.304,30.248 279.272,30.296 279.16,30.296 L277.816,30.296 C277.72,30.296 277.656,30.232 277.656,30.136 L277.656,24.28 C277.656,24.184 277.72,24.12 277.816,24.12 L283.608,24.12 C283.704,24.12 283.768,24.184 283.768,24.28 L283.768,25.56 C283.768,25.656 283.704,25.72 283.608,25.72 L279.4,25.72 C279.336,25.72 279.304,25.752 279.304,25.816 L279.304,28.264 L279.352,28.264 C279.608,28.056 280.168,27.784 280.952,27.784 C282.344,27.784 283.368,28.44 283.752,29.624 C283.896,30.088 283.992,30.6 283.992,31.48 C283.992,32.2 283.912,32.76 283.768,33.192 C283.352,34.456 282.136,35.176 280.696,35.176 C279.016,35.176 277.752,34.28 277.512,32.936 Z M285.656,34.84 L285.656,33.208 C285.656,33.112 285.72,33.048 285.816,33.048 L287.416,33.048 C287.512,33.048 287.576,33.112 287.576,33.208 L287.576,34.84 C287.576,34.936 287.512,35 287.416,35 L285.816,35 C285.72,35 285.656,34.936 285.656,34.84 Z M289.384,34.84 L289.384,33.64 C289.384,33.544 289.4,33.496 289.464,33.432 L293.304,28.648 C293.736,28.12 294.008,27.608 294.008,26.984 C294.008,26.168 293.48,25.544 292.568,25.544 C291.704,25.544 291.208,26.072 291.096,26.904 C291.08,27 291.016,27.048 290.92,27.032 L289.512,26.744 C289.416,26.728 289.368,26.648 289.384,26.552 C289.528,25.272 290.552,23.944 292.616,23.944 C294.648,23.944 295.816,25.288 295.816,26.984 C295.816,27.96 295.432,28.76 294.792,29.528 L291.624,33.368 L291.624,33.4 L295.656,33.4 C295.752,33.4 295.816,33.464 295.816,33.56 L295.816,34.84 C295.816,34.936 295.752,35 295.656,35 L289.544,35 C289.448,35 289.384,34.936 289.384,34.84 Z M297.496,31.912 C297.496,30.68 298.12,29.768 298.856,29.304 L298.856,29.272 C298.312,28.904 297.736,28.104 297.736,27.048 C297.736,25.416 298.904,23.944 301,23.944 C303.112,23.944 304.28,25.416 304.28,27.048 C304.28,28.104 303.704,28.904 303.16,29.272 L303.16,29.304 C303.896,29.768 304.52,30.68 304.52,31.912 C304.52,33.848 303.064,35.176 301,35.176 C298.952,35.176 297.496,33.848 297.496,31.912 Z M301,28.488 C301.896,28.488 302.472,27.8 302.472,27.016 C302.472,26.216 301.896,25.544 301,25.544 C300.12,25.544 299.544,26.216 299.544,27.016 C299.544,27.8 300.12,28.488 301,28.488 Z M299.304,31.832 C299.304,32.856 299.976,33.576 301,33.576 C302.04,33.576 302.712,32.856 302.712,31.832 C302.712,30.824 302.04,30.088 301,30.088 C299.976,30.088 299.304,30.824 299.304,31.832 Z" id="$1,715.28" fill="#575757" fill-rule="nonzero"></path>
                    <g id="Icon-Chevron" transform="translate(112.000000, 33.000000)">
                        <mask id="itinerary-1-mask-5" fill="white">
                            <use xlink:href="#itinerary-1-path-4"></use>
                        </mask>
                        <use id="Mask" fill="#333333" xlink:href="#itinerary-1-path-4"></use>
                    </g>
                    <g id="Icon-Avatar-1" transform="translate(11.000000, 12.000000)" fill="#595959">
                        <path d="M21.427209,20.2310749 C18.3916334,18.8978549 15.0211939,17.2417506 14.7384064,16.2102626 L14.7384064,15.1283823 C15.3681687,14.3961378 15.8647121,13.3746039 16.1583994,12.1788742 C16.8650653,11.6152264 17.0406722,10.4530916 16.4557198,9.6362377 L16.4557198,7.21242763 C16.4557198,4.71209582 15.2301055,3 12.4288742,3 C9.69970228,3 8.40081748,4.71209582 8.40081748,7.21242763 L8.40081748,9.63685983 C7.81647071,10.4530916 7.99328859,11.6146042 8.69813796,12.1788742 C8.9918252,13.3746039 9.48897411,14.3961378 10.1187364,15.1283823 L10.1187364,16.2102626 C9.83655447,17.2405063 6.46550941,18.8966106 3.4299339,20.2310749 C3.17136802,20.3461685 3,20.6317252 3,20.9508768 L3,23.6583772 C3,24.0832905 3.2991371,24.4285714 3.66791139,24.4285714 L21.1892315,24.4285714 C21.5580058,24.4285714 21.8571429,24.0832905 21.8571429,23.6583772 L21.8571429,20.9508768 C21.8571429,20.6317252 21.6857748,20.3449243 21.427209,20.2310749 L21.427209,20.2310749 Z" id="Avatar-1"></path>
                    </g>
                    <rect class="mock-text" id="Text-1.1.1" fill="#D8D8D8" x="47" y="12" width="101" height="8" rx="4"></rect>
                    <rect class="mock-text" id="Text-1.1.2" fill="#D8D8D8" x="47" y="29" width="60" height="8" rx="4"></rect>
                </g>
                <g id="Card-1.2" class="itinerary-1-card" transform="translate(6.000000, 96.000000)">
                    <g id="Card">
                        <mask id="itinerary-1-mask-7" fill="white">
                            <use xlink:href="#itinerary-1-path-6"></use>
                        </mask>
                        <g id="White-Background">
                            <use fill="black" fill-opacity="1" filter="url(#itinerary-1-filter-8)" xlink:href="#itinerary-1-path-6"></use>
                            <use fill="#FFFFFF" fill-rule="evenodd" xlink:href="#itinerary-1-path-6"></use>
                        </g>
                        <rect id="Green-Stripe" fill="#7ED321" mask="url(#itinerary-1-mask-7)" x="0" y="-2" width="313" height="4"></rect>
                    </g>
                    <g id="Icon-Plane" transform="translate(11.000000, 13.000000)">
                        <mask id="itinerary-1-mask-10" fill="white">
                            <use xlink:href="#itinerary-1-path-9"></use>
                        </mask>
                        <use id="Airplane" fill="#CCCCCC" xlink:href="#itinerary-1-path-9"></use>
                    </g>
                    <rect class="mock-text" id="Text-1" fill="#666666" x="45" y="10" width="34" height="4" rx="2"></rect>
                    <rect class="mock-text" id="Text-2" fill="#CCCCCC" x="45" y="22" width="42" height="4" rx="2"></rect>
                    <rect class="mock-text" id="Text-3" fill="#666666" x="45" y="37" width="55" height="4" rx="2"></rect>
                    <rect class="mock-text" id="Text-4" fill="#CCCCCC" x="45" y="49" width="63" height="4" rx="2"></rect>
                    <rect class="mock-text" id="Text-5" fill="#666666" x="125" y="10" width="34" height="4" rx="2"></rect>
                    <rect class="mock-text" id="Text-6" fill="#CCCCCC" x="125" y="22" width="34" height="4" rx="2"></rect>
                    <rect class="mock-text" id="Text-7" fill="#666666" x="125" y="37" width="47" height="4" rx="2"></rect>
                    <rect class="mock-text" id="Text-8" fill="#CCCCCC" x="211" y="10" width="97" height="4" rx="2"></rect>
                    <rect class="mock-text" id="Text-9" fill="#666666" x="274" y="25" width="34" height="4" rx="2"></rect>
                </g>
                <g id="Card-1.3" class="itinerary-1-card" transform="translate(6.000000, 173.000000)">
                    <g id="Card">
                        <mask id="itinerary-1-mask-12" fill="white">
                            <use xlink:href="#itinerary-1-path-11"></use>
                        </mask>
                        <g id="White-Background">
                            <use fill="black" fill-opacity="1" filter="url(#itinerary-1-filter-13)" xlink:href="#itinerary-1-path-11"></use>
                            <use fill="#FFFFFF" fill-rule="evenodd" xlink:href="#itinerary-1-path-11"></use>
                        </g>
                        <rect id="Green-Stripe" fill="#7ED321" mask="url(#itinerary-1-mask-12)" x="0" y="-2" width="313" height="4"></rect>
                    </g>
                    <g id="Icon-Hotel" transform="translate(8.000000, 16.000000)" fill="#CCCCCC">
                        <path d="M1.34917647,9.88235294 L22.5256471,9.88235294 L24,9.88235294 L24,14.5882353 L22.5256471,14.5882353 L22.5256471,11.2941176 L1.34917647,11.2941176 L1.34917647,14.5882353 L0,14.5882353 L0,0 L1.34917647,0 L1.34917647,9.88235294 Z M4.23529412,7.05882353 C3.19569929,7.05882353 2.35294118,6.21606541 2.35294118,5.17647059 C2.35294118,4.13687577 3.19569929,3.29411765 4.23529412,3.29411765 C5.27488894,3.29411765 6.11764706,4.13687577 6.11764706,5.17647059 C6.11764706,6.21606541 5.27488894,7.05882353 4.23529412,7.05882353 Z M2.35294118,8.94117647 L2.35294118,7.52941176 L6.58823529,7.52941176 L6.58823529,3.76470588 L8,3.76470588 L8,8.94117647 L7.52941176,8.94117647 L6.58823529,8.94117647 L2.35294118,8.94117647 Z M8.94117647,3.76470588 L23.0588235,3.76470588 L23.0588235,8.94117647 L8.94117647,8.94117647 L8.94117647,3.76470588 Z" id="Combined-Shape"></path>
                    </g>
                    <rect class="mock-text" id="Text-1" fill="#666666" x="45" y="15" width="126" height="4" rx="2"></rect>
                    <rect class="mock-text" id="Text-2" fill="#CCCCCC" x="45" y="29" width="149" height="4" rx="2"></rect>
                    <rect class="mock-text" id="Text-3" fill="#CCCCCC" x="45" y="43" width="149" height="4" rx="2"></rect>
                    <rect class="mock-text" id="Text-4" fill="#666666" x="45" y="56" width="48" height="4" rx="2"></rect>
                    <rect class="mock-text" id="Text-5" fill="#666666" x="124" y="56" width="48" height="4" rx="2"></rect>
                    <rect class="mock-text" id="Text-6" fill="#CCCCCC" x="211" y="14.5" width="97" height="4" rx="2"></rect>
                    <rect class="mock-text" id="Text-7" fill="#666666" x="274" y="55" width="34" height="4" rx="2"></rect>
                </g>
                <g id="Card-1.4" class="itinerary-1-card" transform="translate(6.000000, 313.000000)">
                    <g id="Card">
                        <mask id="itinerary-1-mask-15" fill="white">
                            <use xlink:href="#itinerary-1-path-14"></use>
                        </mask>
                        <g id="White-Background">
                            <use fill="black" fill-opacity="1" filter="url(#itinerary-1-filter-16)" xlink:href="#itinerary-1-path-14"></use>
                            <use fill="#FFFFFF" fill-rule="evenodd" xlink:href="#itinerary-1-path-14"></use>
                        </g>
                        <rect id="Green-Stripe" fill="#7ED321" mask="url(#itinerary-1-mask-15)" x="0" y="-2" width="313" height="4"></rect>
                    </g>
                    <g id="Icon-Plane" transform="translate(11.000000, 13.000000)">
                        <mask id="itinerary-1-mask-18" fill="white">
                            <use xlink:href="#itinerary-1-path-17"></use>
                        </mask>
                        <use id="Airplane" fill="#CCCCCC" xlink:href="#itinerary-1-path-17"></use>
                    </g>
                    <rect class="mock-text" id="Text-1" fill="#666666" x="45" y="10" width="34" height="4" rx="2"></rect>
                    <rect class="mock-text" id="Text-2" fill="#CCCCCC" x="45" y="22" width="42" height="4" rx="2"></rect>
                    <rect class="mock-text" id="Text-3" fill="#666666" x="45" y="37" width="55" height="4" rx="2"></rect>
                    <rect class="mock-text" id="Text-4" fill="#CCCCCC" x="45" y="49" width="63" height="4" rx="2"></rect>
                    <rect class="mock-text" id="Text-5" fill="#666666" x="125" y="10" width="34" height="4" rx="2"></rect>
                    <rect class="mock-text" id="Text-6" fill="#CCCCCC" x="125" y="22" width="34" height="4" rx="2"></rect>
                    <rect class="mock-text" id="Text-7" fill="#666666" x="125" y="37" width="47" height="4" rx="2"></rect>
                    <rect class="mock-text" id="Text-8" fill="#CCCCCC" x="211" y="10" width="97" height="4" rx="2"></rect>
                    <rect class="mock-text" id="Text-9" fill="#666666" x="274" y="25" width="34" height="4" rx="2"></rect>
                </g>
                <g id="Date-1.1" class="itinerary-1-date" transform="translate(0.000000, 63.000000)">
                    <path d="M156,11.198748 L319,11.198748" id="Dotted-Line" stroke="#979797" opacity="0.2" stroke-linecap="square" stroke-dasharray="2,4"></path>
                    <g id="Grey-Rectangle">
                        <use fill="black" fill-opacity="1" filter="url(#itinerary-1-filter-20)" xlink:href="#itinerary-1-path-19"></use>
                        <use fill-opacity="0.6" fill="#333333" fill-rule="evenodd" xlink:href="#itinerary-1-path-19"></use>
                    </g>
                    <path d="M13.472,16 L11.44,16 C11.344,16 11.28,15.936 11.28,15.84 L11.28,7.312 C11.28,7.248 11.248,7.216 11.184,7.216 L8.432,7.216 C8.336,7.216 8.272,7.152 8.272,7.056 L8.272,5.28 C8.272,5.184 8.336,5.12 8.432,5.12 L16.48,5.12 C16.576,5.12 16.64,5.184 16.64,5.28 L16.64,7.056 C16.64,7.152 16.576,7.216 16.48,7.216 L13.728,7.216 C13.664,7.216 13.632,7.248 13.632,7.312 L13.632,15.84 C13.632,15.936 13.568,16 13.472,16 Z M17.952,15.84 L17.952,5.28 C17.952,5.184 18.016,5.12 18.112,5.12 L20.144,5.12 C20.24,5.12 20.304,5.184 20.304,5.28 L20.304,9.36 C20.304,9.424 20.336,9.456 20.4,9.456 L23.952,9.456 C24.016,9.456 24.048,9.424 24.048,9.36 L24.048,5.28 C24.048,5.184 24.112,5.12 24.208,5.12 L26.24,5.12 C26.336,5.12 26.4,5.184 26.4,5.28 L26.4,15.84 C26.4,15.936 26.336,16 26.24,16 L24.208,16 C24.112,16 24.048,15.936 24.048,15.84 L24.048,11.648 C24.048,11.584 24.016,11.552 23.952,11.552 L20.4,11.552 C20.336,11.552 20.304,11.584 20.304,11.648 L20.304,15.84 C20.304,15.936 20.24,16 20.144,16 L18.112,16 C18.016,16 17.952,15.936 17.952,15.84 Z M32.608,16.176 C30.16,16.176 28.432,14.704 28.432,12 L28.432,5.28 C28.432,5.184 28.496,5.12 28.592,5.12 L30.624,5.12 C30.72,5.12 30.784,5.184 30.784,5.28 L30.784,12.064 C30.784,13.36 31.504,14.096 32.608,14.096 C33.696,14.096 34.416,13.36 34.416,12.064 L34.416,5.28 C34.416,5.184 34.48,5.12 34.576,5.12 L36.608,5.12 C36.704,5.12 36.768,5.184 36.768,5.28 L36.768,12 C36.768,14.704 35.04,16.176 32.608,16.176 Z M38.72,17.552 L38.72,13.92 C38.72,13.824 38.784,13.76 38.88,13.76 L40.688,13.76 C40.784,13.76 40.848,13.824 40.848,13.92 L40.848,15.856 C40.848,16 40.8,16.08 40.704,16.176 L39.12,17.616 C39.024,17.696 38.96,17.728 38.88,17.728 C38.784,17.728 38.72,17.664 38.72,17.552 Z M46.624,15.84 L46.624,5.28 C46.624,5.184 46.688,5.12 46.784,5.12 L48.688,5.12 C48.816,5.12 48.896,5.168 48.944,5.28 L51.696,11.488 L51.76,11.488 L54.464,5.28 C54.512,5.168 54.592,5.12 54.72,5.12 L56.592,5.12 C56.688,5.12 56.752,5.184 56.752,5.28 L56.752,15.84 C56.752,15.936 56.688,16 56.592,16 L54.784,16 C54.688,16 54.624,15.936 54.624,15.84 L54.624,9.712 L54.56,9.712 L52.544,14.304 C52.48,14.448 52.384,14.512 52.24,14.512 L51.136,14.512 C50.992,14.512 50.896,14.448 50.832,14.304 L48.816,9.712 L48.752,9.712 L48.752,15.84 C48.752,15.936 48.688,16 48.592,16 L46.784,16 C46.688,16 46.624,15.936 46.624,15.84 Z M58.016,15.84 L61.76,5.28 C61.792,5.184 61.856,5.12 61.968,5.12 L63.984,5.12 C64.096,5.12 64.16,5.184 64.192,5.28 L67.872,15.84 C67.904,15.936 67.872,16 67.76,16 L65.68,16 C65.568,16 65.504,15.952 65.472,15.84 L64.848,13.936 L61.04,13.936 L60.432,15.84 C60.4,15.952 60.336,16 60.224,16 L58.128,16 C58.016,16 57.984,15.936 58.016,15.84 Z M61.696,11.936 L64.208,11.936 L62.976,8.128 L62.928,8.128 L61.696,11.936 Z M77.424,16 L75.152,16 C75.008,16 74.96,15.952 74.912,15.84 L73.04,11.856 L71.584,11.856 C71.52,11.856 71.488,11.888 71.488,11.952 L71.488,15.84 C71.488,15.936 71.424,16 71.328,16 L69.296,16 C69.2,16 69.136,15.936 69.136,15.84 L69.136,5.28 C69.136,5.184 69.2,5.12 69.296,5.12 L73.632,5.12 C75.856,5.12 77.328,6.512 77.328,8.496 C77.328,9.888 76.592,10.992 75.392,11.52 L77.536,15.808 C77.584,15.904 77.536,16 77.424,16 Z M73.504,9.856 C74.4,9.856 74.976,9.328 74.976,8.496 C74.976,7.68 74.4,7.152 73.504,7.152 L71.584,7.152 C71.52,7.152 71.488,7.184 71.488,7.248 L71.488,9.76 C71.488,9.824 71.52,9.856 71.584,9.856 L73.504,9.856 Z M83.984,15.824 L87.44,7.12 L87.44,7.072 L85.152,7.072 C85.088,7.072 85.056,7.104 85.056,7.168 L85.056,8.304 C85.056,8.4 84.992,8.464 84.896,8.464 L83.12,8.464 C83.024,8.464 82.96,8.4 82.96,8.304 L82.96,5.28 C82.96,5.184 83.024,5.12 83.12,5.12 L89.632,5.12 C89.728,5.12 89.792,5.184 89.792,5.28 L89.792,6.944 C89.792,7.024 89.776,7.088 89.76,7.136 L86.304,15.856 C86.256,15.968 86.192,16 86.08,16 L84.08,16 C83.984,16 83.936,15.936 83.984,15.824 Z M91.712,17.552 L91.712,13.92 C91.712,13.824 91.776,13.76 91.872,13.76 L93.68,13.76 C93.776,13.76 93.84,13.824 93.84,13.92 L93.84,15.856 C93.84,16 93.792,16.08 93.696,16.176 L92.112,17.616 C92.016,17.696 91.952,17.728 91.872,17.728 C91.776,17.728 91.712,17.664 91.712,17.552 Z M99.616,15.84 L99.616,14.352 C99.616,14.256 99.632,14.208 99.696,14.128 L103.52,9.584 C103.936,9.104 104.16,8.64 104.16,8.08 C104.16,7.36 103.728,6.832 102.976,6.832 C102.24,6.832 101.792,7.28 101.696,8.112 C101.696,8.208 101.632,8.256 101.52,8.24 L99.76,7.952 C99.664,7.936 99.616,7.856 99.632,7.76 C99.744,6.256 100.96,4.944 103.056,4.944 C105.136,4.944 106.4,6.288 106.4,8.048 C106.4,9.088 105.984,9.904 105.296,10.688 L102.432,14.064 L102.432,14.096 L106.24,14.096 C106.336,14.096 106.4,14.16 106.4,14.256 L106.4,15.84 C106.4,15.936 106.336,16 106.24,16 L99.776,16 C99.68,16 99.616,15.936 99.616,15.84 Z M108.64,13.952 C108.48,13.472 108.4,12.976 108.4,10.56 C108.4,8.144 108.48,7.648 108.64,7.168 C109.088,5.776 110.208,4.944 111.92,4.944 C113.632,4.944 114.752,5.776 115.2,7.168 C115.36,7.648 115.44,8.144 115.44,10.56 C115.44,12.976 115.36,13.472 115.2,13.952 C114.752,15.344 113.632,16.176 111.92,16.176 C110.208,16.176 109.088,15.344 108.64,13.952 Z M110.816,13.552 C110.976,14.048 111.344,14.288 111.92,14.288 C112.48,14.288 112.864,14.048 113.024,13.552 C113.12,13.264 113.152,12.944 113.152,10.56 C113.152,8.176 113.12,7.856 113.024,7.568 C112.864,7.072 112.48,6.832 111.92,6.832 C111.344,6.832 110.976,7.072 110.816,7.568 C110.72,7.856 110.688,8.176 110.688,10.56 C110.688,12.944 110.72,13.264 110.816,13.552 Z M120.24,15.84 L120.24,7.648 L120.208,7.648 L118.48,8.832 C118.384,8.896 118.304,8.864 118.304,8.736 L118.304,6.752 C118.304,6.656 118.336,6.592 118.416,6.528 L120.24,5.216 C120.32,5.152 120.416,5.12 120.528,5.12 L122.32,5.12 C122.416,5.12 122.48,5.184 122.48,5.28 L122.48,15.84 C122.48,15.936 122.416,16 122.32,16 L120.4,16 C120.304,16 120.24,15.936 120.24,15.84 Z M127.584,15.84 L129.888,11.632 L129.856,11.6 C129.744,11.648 129.472,11.696 129.184,11.696 C127.472,11.696 126.064,10.416 126.064,8.416 C126.064,6.224 127.648,4.944 129.712,4.944 C131.792,4.944 133.36,6.224 133.36,8.368 C133.36,9.296 133.072,10.128 132.56,11.056 L129.92,15.888 C129.872,15.984 129.84,16 129.728,16 L127.696,16 C127.568,16 127.536,15.936 127.584,15.84 Z M129.712,9.856 C130.592,9.856 131.152,9.232 131.152,8.336 C131.152,7.456 130.592,6.832 129.712,6.832 C128.832,6.832 128.272,7.456 128.272,8.336 C128.272,9.232 128.832,9.856 129.712,9.856 Z" id="THU,MAR7,2019" fill="#FFFFFF" fill-rule="nonzero"></path>
                </g>
                <g id="Date-1.2" class="itinerary-1-date" transform="translate(0.000000, 281.000000)">
                    <path d="M156,10.5 L319,10.5" id="Dotted-Line" stroke="#979797" opacity="0.2" stroke-linecap="square" stroke-dasharray="2,4"></path>
                    <g id="Grey-Rectangle">
                        <use fill="black" fill-opacity="1" filter="url(#itinerary-1-filter-22)" xlink:href="#itinerary-1-path-21"></use>
                        <use fill-opacity="0.6" fill="#333333" fill-rule="evenodd" xlink:href="#itinerary-1-path-21"></use>
                    </g>
                    <path d="M12.704,16.176 C11.008,16.176 9.36,15.504 8.512,14.688 C8.448,14.624 8.416,14.512 8.496,14.416 L9.712,13.024 C9.776,12.944 9.872,12.944 9.952,13.008 C10.672,13.584 11.648,14.128 12.8,14.128 C13.936,14.128 14.576,13.6 14.576,12.832 C14.576,12.192 14.192,11.792 12.896,11.616 L12.32,11.536 C10.112,11.232 8.88,10.192 8.88,8.272 C8.88,6.272 10.384,4.944 12.736,4.944 C14.176,4.944 15.52,5.376 16.432,6.08 C16.528,6.144 16.544,6.208 16.464,6.32 L15.488,7.776 C15.424,7.856 15.344,7.872 15.264,7.824 C14.432,7.28 13.632,6.992 12.736,6.992 C11.776,6.992 11.28,7.488 11.28,8.176 C11.28,8.8 11.728,9.2 12.976,9.376 L13.552,9.456 C15.792,9.76 16.976,10.784 16.976,12.752 C16.976,14.72 15.52,16.176 12.704,16.176 Z M17.744,15.84 L21.488,5.28 C21.52,5.184 21.584,5.12 21.696,5.12 L23.712,5.12 C23.824,5.12 23.888,5.184 23.92,5.28 L27.6,15.84 C27.632,15.936 27.6,16 27.488,16 L25.408,16 C25.296,16 25.232,15.952 25.2,15.84 L24.576,13.936 L20.768,13.936 L20.16,15.84 C20.128,15.952 20.064,16 19.952,16 L17.856,16 C17.744,16 17.712,15.936 17.744,15.84 Z M21.424,11.936 L23.936,11.936 L22.704,8.128 L22.656,8.128 L21.424,11.936 Z M33.296,16 L31.264,16 C31.168,16 31.104,15.936 31.104,15.84 L31.104,7.312 C31.104,7.248 31.072,7.216 31.008,7.216 L28.256,7.216 C28.16,7.216 28.096,7.152 28.096,7.056 L28.096,5.28 C28.096,5.184 28.16,5.12 28.256,5.12 L36.304,5.12 C36.4,5.12 36.464,5.184 36.464,5.28 L36.464,7.056 C36.464,7.152 36.4,7.216 36.304,7.216 L33.552,7.216 C33.488,7.216 33.456,7.248 33.456,7.312 L33.456,15.84 C33.456,15.936 33.392,16 33.296,16 Z M37.696,17.552 L37.696,13.92 C37.696,13.824 37.76,13.76 37.856,13.76 L39.664,13.76 C39.76,13.76 39.824,13.824 39.824,13.92 L39.824,15.856 C39.824,16 39.776,16.08 39.68,16.176 L38.096,17.616 C38,17.696 37.936,17.728 37.856,17.728 C37.76,17.728 37.696,17.664 37.696,17.552 Z M45.6,15.84 L45.6,5.28 C45.6,5.184 45.664,5.12 45.76,5.12 L47.664,5.12 C47.792,5.12 47.872,5.168 47.92,5.28 L50.672,11.488 L50.736,11.488 L53.44,5.28 C53.488,5.168 53.568,5.12 53.696,5.12 L55.568,5.12 C55.664,5.12 55.728,5.184 55.728,5.28 L55.728,15.84 C55.728,15.936 55.664,16 55.568,16 L53.76,16 C53.664,16 53.6,15.936 53.6,15.84 L53.6,9.712 L53.536,9.712 L51.52,14.304 C51.456,14.448 51.36,14.512 51.216,14.512 L50.112,14.512 C49.968,14.512 49.872,14.448 49.808,14.304 L47.792,9.712 L47.728,9.712 L47.728,15.84 C47.728,15.936 47.664,16 47.568,16 L45.76,16 C45.664,16 45.6,15.936 45.6,15.84 Z M56.992,15.84 L60.736,5.28 C60.768,5.184 60.832,5.12 60.944,5.12 L62.96,5.12 C63.072,5.12 63.136,5.184 63.168,5.28 L66.848,15.84 C66.88,15.936 66.848,16 66.736,16 L64.656,16 C64.544,16 64.48,15.952 64.448,15.84 L63.824,13.936 L60.016,13.936 L59.408,15.84 C59.376,15.952 59.312,16 59.2,16 L57.104,16 C56.992,16 56.96,15.936 56.992,15.84 Z M60.672,11.936 L63.184,11.936 L61.952,8.128 L61.904,8.128 L60.672,11.936 Z M76.4,16 L74.128,16 C73.984,16 73.936,15.952 73.888,15.84 L72.016,11.856 L70.56,11.856 C70.496,11.856 70.464,11.888 70.464,11.952 L70.464,15.84 C70.464,15.936 70.4,16 70.304,16 L68.272,16 C68.176,16 68.112,15.936 68.112,15.84 L68.112,5.28 C68.112,5.184 68.176,5.12 68.272,5.12 L72.608,5.12 C74.832,5.12 76.304,6.512 76.304,8.496 C76.304,9.888 75.568,10.992 74.368,11.52 L76.512,15.808 C76.56,15.904 76.512,16 76.4,16 Z M72.48,9.856 C73.376,9.856 73.952,9.328 73.952,8.496 C73.952,7.68 73.376,7.152 72.48,7.152 L70.56,7.152 C70.496,7.152 70.464,7.184 70.464,7.248 L70.464,9.76 C70.464,9.824 70.496,9.856 70.56,9.856 L72.48,9.856 Z M83.152,15.84 L85.456,11.632 L85.424,11.6 C85.312,11.648 85.04,11.696 84.752,11.696 C83.04,11.696 81.632,10.416 81.632,8.416 C81.632,6.224 83.216,4.944 85.28,4.944 C87.36,4.944 88.928,6.224 88.928,8.368 C88.928,9.296 88.64,10.128 88.128,11.056 L85.488,15.888 C85.44,15.984 85.408,16 85.296,16 L83.264,16 C83.136,16 83.104,15.936 83.152,15.84 Z M85.28,9.856 C86.16,9.856 86.72,9.232 86.72,8.336 C86.72,7.456 86.16,6.832 85.28,6.832 C84.4,6.832 83.84,7.456 83.84,8.336 C83.84,9.232 84.4,9.856 85.28,9.856 Z M90.688,17.552 L90.688,13.92 C90.688,13.824 90.752,13.76 90.848,13.76 L92.656,13.76 C92.752,13.76 92.816,13.824 92.816,13.92 L92.816,15.856 C92.816,16 92.768,16.08 92.672,16.176 L91.088,17.616 C90.992,17.696 90.928,17.728 90.848,17.728 C90.752,17.728 90.688,17.664 90.688,17.552 Z M98.592,15.84 L98.592,14.352 C98.592,14.256 98.608,14.208 98.672,14.128 L102.496,9.584 C102.912,9.104 103.136,8.64 103.136,8.08 C103.136,7.36 102.704,6.832 101.952,6.832 C101.216,6.832 100.768,7.28 100.672,8.112 C100.672,8.208 100.608,8.256 100.496,8.24 L98.736,7.952 C98.64,7.936 98.592,7.856 98.608,7.76 C98.72,6.256 99.936,4.944 102.032,4.944 C104.112,4.944 105.376,6.288 105.376,8.048 C105.376,9.088 104.96,9.904 104.272,10.688 L101.408,14.064 L101.408,14.096 L105.216,14.096 C105.312,14.096 105.376,14.16 105.376,14.256 L105.376,15.84 C105.376,15.936 105.312,16 105.216,16 L98.752,16 C98.656,16 98.592,15.936 98.592,15.84 Z M107.616,13.952 C107.456,13.472 107.376,12.976 107.376,10.56 C107.376,8.144 107.456,7.648 107.616,7.168 C108.064,5.776 109.184,4.944 110.896,4.944 C112.608,4.944 113.728,5.776 114.176,7.168 C114.336,7.648 114.416,8.144 114.416,10.56 C114.416,12.976 114.336,13.472 114.176,13.952 C113.728,15.344 112.608,16.176 110.896,16.176 C109.184,16.176 108.064,15.344 107.616,13.952 Z M109.792,13.552 C109.952,14.048 110.32,14.288 110.896,14.288 C111.456,14.288 111.84,14.048 112,13.552 C112.096,13.264 112.128,12.944 112.128,10.56 C112.128,8.176 112.096,7.856 112,7.568 C111.84,7.072 111.456,6.832 110.896,6.832 C110.32,6.832 109.952,7.072 109.792,7.568 C109.696,7.856 109.664,8.176 109.664,10.56 C109.664,12.944 109.696,13.264 109.792,13.552 Z M119.216,15.84 L119.216,7.648 L119.184,7.648 L117.456,8.832 C117.36,8.896 117.28,8.864 117.28,8.736 L117.28,6.752 C117.28,6.656 117.312,6.592 117.392,6.528 L119.216,5.216 C119.296,5.152 119.392,5.12 119.504,5.12 L121.296,5.12 C121.392,5.12 121.456,5.184 121.456,5.28 L121.456,15.84 C121.456,15.936 121.392,16 121.296,16 L119.376,16 C119.28,16 119.216,15.936 119.216,15.84 Z M126.56,15.84 L128.864,11.632 L128.832,11.6 C128.72,11.648 128.448,11.696 128.16,11.696 C126.448,11.696 125.04,10.416 125.04,8.416 C125.04,6.224 126.624,4.944 128.688,4.944 C130.768,4.944 132.336,6.224 132.336,8.368 C132.336,9.296 132.048,10.128 131.536,11.056 L128.896,15.888 C128.848,15.984 128.816,16 128.704,16 L126.672,16 C126.544,16 126.512,15.936 126.56,15.84 Z M128.688,9.856 C129.568,9.856 130.128,9.232 130.128,8.336 C130.128,7.456 129.568,6.832 128.688,6.832 C127.808,6.832 127.248,7.456 127.248,8.336 C127.248,9.232 127.808,9.856 128.688,9.856 Z" id="SAT,MAR9,2019" fill="#FFFFFF" fill-rule="nonzero"></path>
                </g>
                <g id="Button-1" transform="translate(31.000000, 402.000000)">
                    <g id="Rounded-Rectangle">
                        <use fill="black" fill-opacity="1" filter="url(#itinerary-1-filter-24)" xlink:href="#itinerary-1-path-23"></use>
                        <use fill="#4C8CA7" fill-rule="evenodd" xlink:href="#itinerary-1-path-23"></use>
                    </g>
                    <path d="M90.06,27.8 L90.06,14.6 C90.06,14.48 90.14,14.4 90.26,14.4 L95.32,14.4 C98.2,14.4 99.56,15.84 99.56,18.02 C99.56,19.56 98.84,20.44 97.98,20.9 L97.98,20.94 C98.82,21.26 99.8,22.34 99.8,24 C99.8,26.7 98.1,28 95.12,28 L90.26,28 C90.14,28 90.06,27.92 90.06,27.8 Z M92.54,20.06 L95.26,20.06 C96.46,20.06 97.2,19.34 97.2,18.28 C97.2,17.2 96.46,16.48 95.26,16.48 L92.54,16.48 C92.46,16.48 92.42,16.52 92.42,16.6 L92.42,19.94 C92.42,20.02 92.46,20.06 92.54,20.06 Z M92.42,25.8 C92.42,25.88 92.46,25.92 92.54,25.92 L95.38,25.92 C96.7,25.92 97.44,25.16 97.44,24.02 C97.44,22.9 96.7,22.14 95.38,22.14 L92.54,22.14 C92.46,22.14 92.42,22.18 92.42,22.26 L92.42,25.8 Z M105.94,28.22 C103.98,28.22 102.5,27.24 101.96,25.56 C101.74,24.88 101.64,24.24 101.64,23.18 C101.64,22.12 101.74,21.48 101.96,20.8 C102.5,19.12 103.98,18.14 105.94,18.14 C107.88,18.14 109.36,19.12 109.9,20.8 C110.12,21.48 110.22,22.12 110.22,23.18 C110.22,24.24 110.12,24.88 109.9,25.56 C109.36,27.24 107.88,28.22 105.94,28.22 Z M105.94,26.22 C106.84,26.22 107.46,25.76 107.74,24.96 C107.9,24.46 107.94,24 107.94,23.18 C107.94,22.36 107.9,21.92 107.74,21.4 C107.46,20.6 106.84,20.14 105.94,20.14 C105.04,20.14 104.4,20.6 104.12,21.4 C103.96,21.92 103.92,22.36 103.92,23.18 C103.92,24 103.96,24.46 104.12,24.96 C104.4,25.76 105.04,26.22 105.94,26.22 Z M116.4,28.22 C114.44,28.22 112.96,27.24 112.42,25.56 C112.2,24.88 112.1,24.24 112.1,23.18 C112.1,22.12 112.2,21.48 112.42,20.8 C112.96,19.12 114.44,18.14 116.4,18.14 C118.34,18.14 119.82,19.12 120.36,20.8 C120.58,21.48 120.68,22.12 120.68,23.18 C120.68,24.24 120.58,24.88 120.36,25.56 C119.82,27.24 118.34,28.22 116.4,28.22 Z M116.4,26.22 C117.3,26.22 117.92,25.76 118.2,24.96 C118.36,24.46 118.4,24 118.4,23.18 C118.4,22.36 118.36,21.92 118.2,21.4 C117.92,20.6 117.3,20.14 116.4,20.14 C115.5,20.14 114.86,20.6 114.58,21.4 C114.42,21.92 114.38,22.36 114.38,23.18 C114.38,24 114.42,24.46 114.58,24.96 C114.86,25.76 115.5,26.22 116.4,26.22 Z M131.48,28 L129.38,28 C129.24,28 129.14,27.94 129.06,27.8 L126.62,23.76 L125.32,25.26 L125.32,27.8 C125.32,27.92 125.24,28 125.12,28 L123.28,28 C123.16,28 123.08,27.92 123.08,27.8 L123.08,14.6 C123.08,14.48 123.16,14.4 123.28,14.4 L125.12,14.4 C125.24,14.4 125.32,14.48 125.32,14.6 L125.32,22.44 L128.62,18.56 C128.74,18.42 128.84,18.36 129,18.36 L131.04,18.36 C131.16,18.36 131.2,18.48 131.12,18.56 L128.06,22.08 L131.58,27.8 C131.64,27.88 131.6,28 131.48,28 Z M138.28,27.8 L138.28,14.6 C138.28,14.48 138.36,14.4 138.48,14.4 L140.32,14.4 C140.48,14.4 140.58,14.46 140.66,14.6 L146.2,23.98 L146.28,23.98 L146.28,14.6 C146.28,14.48 146.36,14.4 146.48,14.4 L148.22,14.4 C148.34,14.4 148.42,14.48 148.42,14.6 L148.42,27.8 C148.42,27.92 148.34,28 148.22,28 L146.4,28 C146.24,28 146.14,27.94 146.06,27.8 L140.5,18.44 L140.42,18.44 L140.42,27.8 C140.42,27.92 140.34,28 140.22,28 L138.48,28 C138.36,28 138.28,27.92 138.28,27.8 Z M155.16,28.22 C153.2,28.22 151.72,27.24 151.18,25.56 C150.96,24.88 150.86,24.24 150.86,23.18 C150.86,22.12 150.96,21.48 151.18,20.8 C151.72,19.12 153.2,18.14 155.16,18.14 C157.1,18.14 158.58,19.12 159.12,20.8 C159.34,21.48 159.44,22.12 159.44,23.18 C159.44,24.24 159.34,24.88 159.12,25.56 C158.58,27.24 157.1,28.22 155.16,28.22 Z M155.16,26.22 C156.06,26.22 156.68,25.76 156.96,24.96 C157.12,24.46 157.16,24 157.16,23.18 C157.16,22.36 157.12,21.92 156.96,21.4 C156.68,20.6 156.06,20.14 155.16,20.14 C154.26,20.14 153.62,20.6 153.34,21.4 C153.18,21.92 153.14,22.36 153.14,23.18 C153.14,24 153.18,24.46 153.34,24.96 C153.62,25.76 154.26,26.22 155.16,26.22 Z M171.68,28 L170.04,28 C169.92,28 169.84,27.92 169.8,27.8 L167.94,21.64 L167.9,21.64 L166.02,27.8 C165.98,27.92 165.9,28 165.78,28 L164.14,28 C164.02,28 163.94,27.92 163.9,27.8 L160.86,18.56 C160.82,18.44 160.88,18.36 161,18.36 L162.92,18.36 C163.06,18.36 163.14,18.42 163.18,18.56 L165.04,24.92 L165.08,24.92 L166.92,18.56 C166.96,18.44 167.06,18.36 167.18,18.36 L168.62,18.36 C168.74,18.36 168.84,18.44 168.88,18.56 L170.84,24.92 L170.88,24.92 L172.64,18.56 C172.68,18.42 172.76,18.36 172.9,18.36 L174.82,18.36 C174.94,18.36 175,18.44 174.96,18.56 L171.92,27.8 C171.88,27.92 171.8,28 171.68,28 Z" id="BookNow" fill="#F7F7F7" fill-rule="nonzero"></path>
                </g>
            </g>
        </g>
    </g>
</svg>