<?xml version="1.0" encoding="UTF-8"?>
<svg width="892px" height="105px" viewBox="0 0 892 105" version="1.1" xmlns="http://www.w3.org/2000/svg" xmlns:xlink="http://www.w3.org/1999/xlink">
    <!-- Generator: Sketch 53.2 (72643) - https://sketchapp.com -->
    <title>OTA NLP Box</title>
    <desc>Created with Sketch.</desc>
    <g id="Website-Animations" stroke="none" stroke-width="1" fill="none" fill-rule="evenodd">
        <g id="OTA-Text-Outline" transform="translate(-101.000000, -89.000000)">
            <g id="OTA-NLP-Box" transform="translate(101.000000, 89.000000)">
                <rect id="OTA-Text-Input" stroke="#E5E5E5" fill="#FFFFFF" x="0.5" y="0.5" width="891" height="104"></rect>
                <path d="M22.184,43.266 L22.184,26.106 C22.184,25.95 22.288,25.846 22.444,25.846 L33.078,25.846 C33.234,25.846 33.338,25.95 33.338,26.106 L33.338,27.744 C33.338,27.9 33.234,28.004 33.078,28.004 L24.654,28.004 C24.55,28.004 24.498,28.056 24.498,28.16 L24.498,33.542 C24.498,33.646 24.55,33.698 24.654,33.698 L31.804,33.698 C31.96,33.698 32.064,33.802 32.064,33.958 L32.064,35.596 C32.064,35.752 31.96,35.856 31.804,35.856 L24.654,35.856 C24.55,35.856 24.498,35.908 24.498,36.012 L24.498,43.266 C24.498,43.422 24.394,43.526 24.238,43.526 L22.444,43.526 C22.288,43.526 22.184,43.422 22.184,43.266 Z M40.462,43.656 L39.578,43.656 C37.394,43.656 36.536,42.616 36.536,40.38 L36.536,26.106 C36.536,25.95 36.64,25.846 36.796,25.846 L38.46,25.846 C38.616,25.846 38.72,25.95 38.72,26.106 L38.72,40.25 C38.72,41.29 39.11,41.628 39.968,41.628 L40.462,41.628 C40.618,41.628 40.722,41.732 40.722,41.888 L40.722,43.396 C40.722,43.552 40.618,43.656 40.462,43.656 Z M44.466,48.206 L43.79,48.206 C43.634,48.206 43.53,48.102 43.53,47.946 L43.53,46.438 C43.53,46.282 43.634,46.178 43.79,46.178 L44.258,46.178 C45.272,46.178 45.818,45.736 46.364,44.306 L46.78,43.162 L42.204,31.332 C42.152,31.176 42.23,31.072 42.412,31.072 L44.232,31.072 C44.388,31.072 44.492,31.15 44.544,31.332 L47.82,40.328 L47.872,40.328 L51.018,31.332 C51.07,31.15 51.174,31.072 51.33,31.072 L53.098,31.072 C53.254,31.072 53.358,31.176 53.306,31.332 L48.392,44.488 C47.3,47.426 46.338,48.206 44.466,48.206 Z M66.904,43.656 L65.942,43.656 C63.524,43.656 62.588,42.564 62.588,40.12 L62.588,32.996 C62.588,32.892 62.536,32.84 62.432,32.84 L61.392,32.84 C61.236,32.84 61.132,32.736 61.132,32.58 L61.132,31.332 C61.132,31.176 61.236,31.072 61.392,31.072 L62.432,31.072 C62.536,31.072 62.588,31.02 62.588,30.916 L62.588,27.406 C62.588,27.25 62.692,27.146 62.848,27.146 L64.512,27.146 C64.668,27.146 64.772,27.25 64.772,27.406 L64.772,30.916 C64.772,31.02 64.824,31.072 64.928,31.072 L66.904,31.072 C67.06,31.072 67.164,31.176 67.164,31.332 L67.164,32.58 C67.164,32.736 67.06,32.84 66.904,32.84 L64.928,32.84 C64.824,32.84 64.772,32.892 64.772,32.996 L64.772,40.042 C64.772,41.29 65.24,41.628 66.358,41.628 L66.904,41.628 C67.06,41.628 67.164,41.732 67.164,41.888 L67.164,43.396 C67.164,43.552 67.06,43.656 66.904,43.656 Z M75.12,43.812 C72.702,43.812 70.882,42.564 70.206,40.458 C69.92,39.6 69.79,38.742 69.79,37.286 C69.79,35.856 69.92,34.998 70.206,34.14 C70.882,32.008 72.702,30.786 75.12,30.786 C77.538,30.786 79.358,32.008 80.034,34.14 C80.32,34.998 80.45,35.856 80.45,37.286 C80.45,38.742 80.32,39.6 80.034,40.458 C79.358,42.564 77.538,43.812 75.12,43.812 Z M75.12,41.784 C76.498,41.784 77.512,41.082 77.928,39.834 C78.136,39.158 78.214,38.482 78.214,37.286 C78.214,36.09 78.136,35.44 77.928,34.764 C77.512,33.516 76.498,32.814 75.12,32.814 C73.742,32.814 72.728,33.516 72.312,34.764 C72.104,35.44 72.026,36.09 72.026,37.286 C72.026,38.482 72.104,39.158 72.312,39.834 C72.728,41.082 73.742,41.784 75.12,41.784 Z M90.252,43.266 L90.252,26.106 C90.252,25.95 90.356,25.846 90.512,25.846 L92.176,25.846 C92.384,25.846 92.514,25.898 92.618,26.106 L100.626,39.366 L100.73,39.366 L100.73,26.106 C100.73,25.95 100.834,25.846 100.99,25.846 L102.628,25.846 C102.784,25.846 102.888,25.95 102.888,26.106 L102.888,43.266 C102.888,43.422 102.784,43.526 102.628,43.526 L100.964,43.526 C100.782,43.526 100.626,43.474 100.522,43.266 L92.488,30.058 L92.41,30.058 L92.41,43.266 C92.41,43.422 92.306,43.526 92.15,43.526 L90.512,43.526 C90.356,43.526 90.252,43.422 90.252,43.266 Z M112.794,43.526 L111.026,43.526 C110.87,43.526 110.766,43.422 110.766,43.266 L110.766,36.298 L105.54,26.132 C105.488,25.976 105.566,25.846 105.748,25.846 L107.594,25.846 C107.776,25.846 107.88,25.924 107.984,26.106 L111.936,33.672 L111.988,33.672 L115.914,26.106 C115.992,25.924 116.096,25.846 116.278,25.846 L118.072,25.846 C118.28,25.846 118.332,25.976 118.28,26.132 L113.054,36.298 L113.054,43.266 C113.054,43.422 112.95,43.526 112.794,43.526 Z M120.464,39.652 C120.126,38.638 119.996,37.624 119.996,34.686 C119.996,31.748 120.126,30.734 120.464,29.72 C121.348,26.938 123.454,25.56 126.34,25.56 C128.966,25.56 130.994,26.86 132.008,29.122 C132.06,29.252 132.034,29.382 131.904,29.46 L130.344,30.214 C130.188,30.292 130.032,30.214 129.98,30.084 C129.278,28.706 128.186,27.718 126.34,27.718 C124.416,27.718 123.246,28.654 122.674,30.318 C122.44,31.046 122.336,31.904 122.336,34.686 C122.336,37.468 122.44,38.326 122.674,39.054 C123.246,40.718 124.416,41.654 126.34,41.654 C128.186,41.654 129.278,40.666 129.98,39.288 C130.032,39.158 130.188,39.08 130.344,39.158 L131.904,39.912 C132.034,39.99 132.06,40.12 132.008,40.25 C130.994,42.512 128.966,43.812 126.34,43.812 C123.454,43.812 121.348,42.434 120.464,39.652 Z M146.1,43.812 C143.682,43.812 141.862,42.564 141.186,40.458 C140.9,39.6 140.77,38.742 140.77,37.286 C140.77,35.856 140.9,34.998 141.186,34.14 C141.862,32.008 143.682,30.786 146.1,30.786 C148.518,30.786 150.338,32.008 151.014,34.14 C151.3,34.998 151.43,35.856 151.43,37.286 C151.43,38.742 151.3,39.6 151.014,40.458 C150.338,42.564 148.518,43.812 146.1,43.812 Z M146.1,41.784 C147.478,41.784 148.492,41.082 148.908,39.834 C149.116,39.158 149.194,38.482 149.194,37.286 C149.194,36.09 149.116,35.44 148.908,34.764 C148.492,33.516 147.478,32.814 146.1,32.814 C144.722,32.814 143.708,33.516 143.292,34.764 C143.084,35.44 143.006,36.09 143.006,37.286 C143.006,38.482 143.084,39.158 143.292,39.834 C143.708,41.082 144.722,41.784 146.1,41.784 Z M164.69,43.526 L163.026,43.526 C162.87,43.526 162.766,43.422 162.766,43.266 L162.766,35.986 C162.766,33.984 161.856,32.814 159.984,32.814 C158.294,32.814 157.124,34.01 157.124,35.856 L157.124,43.266 C157.124,43.422 157.02,43.526 156.864,43.526 L155.2,43.526 C155.044,43.526 154.94,43.422 154.94,43.266 L154.94,31.332 C154.94,31.176 155.044,31.072 155.2,31.072 L156.864,31.072 C157.02,31.072 157.124,31.176 157.124,31.332 L157.124,32.476 L157.15,32.476 C157.748,31.514 158.944,30.786 160.634,30.786 C163.338,30.786 164.95,32.632 164.95,35.466 L164.95,43.266 C164.95,43.422 164.846,43.526 164.69,43.526 Z M174.05,41.992 C173.946,41.888 173.946,41.732 174.05,41.628 L175.35,40.51 C175.48,40.406 175.61,40.432 175.74,40.562 C176.286,41.082 177.222,41.654 178.314,41.654 C180.368,41.654 181.59,40.458 181.59,37.858 L181.59,26.106 C181.59,25.95 181.694,25.846 181.85,25.846 L183.644,25.846 C183.8,25.846 183.904,25.95 183.904,26.106 L183.904,37.858 C183.904,41.784 181.694,43.812 178.236,43.812 C176.52,43.812 174.908,43.032 174.05,41.992 Z M197.58,43.526 L195.916,43.526 C195.76,43.526 195.656,43.422 195.656,43.266 L195.656,42.096 L195.63,42.096 C194.98,43.136 193.836,43.812 192.224,43.812 C189.494,43.812 187.908,41.94 187.908,39.106 L187.908,31.332 C187.908,31.176 188.012,31.072 188.168,31.072 L189.832,31.072 C189.988,31.072 190.092,31.176 190.092,31.332 L190.092,38.586 C190.092,40.614 191.002,41.784 192.848,41.784 C194.538,41.784 195.656,40.588 195.656,38.716 L195.656,31.332 C195.656,31.176 195.76,31.072 195.916,31.072 L197.58,31.072 C197.736,31.072 197.84,31.176 197.84,31.332 L197.84,43.266 C197.84,43.422 197.736,43.526 197.58,43.526 Z M205.978,43.656 L205.094,43.656 C202.91,43.656 202.052,42.616 202.052,40.38 L202.052,26.106 C202.052,25.95 202.156,25.846 202.312,25.846 L203.976,25.846 C204.132,25.846 204.236,25.95 204.236,26.106 L204.236,40.25 C204.236,41.29 204.626,41.628 205.484,41.628 L205.978,41.628 C206.134,41.628 206.238,41.732 206.238,41.888 L206.238,43.396 C206.238,43.552 206.134,43.656 205.978,43.656 Z M209.982,48.206 L209.306,48.206 C209.15,48.206 209.046,48.102 209.046,47.946 L209.046,46.438 C209.046,46.282 209.15,46.178 209.306,46.178 L209.774,46.178 C210.788,46.178 211.334,45.736 211.88,44.306 L212.296,43.162 L207.72,31.332 C207.668,31.176 207.746,31.072 207.928,31.072 L209.748,31.072 C209.904,31.072 210.008,31.15 210.06,31.332 L213.336,40.328 L213.388,40.328 L216.534,31.332 C216.586,31.15 216.69,31.072 216.846,31.072 L218.614,31.072 C218.77,31.072 218.874,31.176 218.822,31.332 L213.908,44.488 C212.816,47.426 211.854,48.206 209.982,48.206 Z M232.056,43.266 L232.056,28.602 L232.004,28.602 L229.066,30.656 C228.91,30.76 228.78,30.708 228.78,30.5 L228.78,28.576 C228.78,28.42 228.832,28.316 228.962,28.212 L232.004,26.002 C232.134,25.898 232.238,25.846 232.42,25.846 L233.98,25.846 C234.136,25.846 234.24,25.95 234.24,26.106 L234.24,43.266 C234.24,43.422 234.136,43.526 233.98,43.526 L232.316,43.526 C232.16,43.526 232.056,43.422 232.056,43.266 Z M241.858,43.266 L241.858,41.914 C241.858,41.758 241.884,41.68 241.988,41.55 L248.358,33.438 C249.138,32.45 249.606,31.488 249.606,30.37 C249.606,28.784 248.54,27.588 246.824,27.588 C245.134,27.588 244.198,28.602 243.938,30.188 C243.912,30.344 243.808,30.422 243.652,30.396 L242.066,30.058 C241.91,30.006 241.832,29.902 241.858,29.746 C242.092,27.64 243.756,25.56 246.876,25.56 C249.97,25.56 251.842,27.64 251.842,30.37 C251.842,31.956 251.192,33.256 250.126,34.608 L244.666,41.472 L244.666,41.498 L251.582,41.498 C251.738,41.498 251.842,41.602 251.842,41.758 L251.842,43.266 C251.842,43.422 251.738,43.526 251.582,43.526 L242.118,43.526 C241.962,43.526 241.858,43.422 241.858,43.266 Z M260.604,43.656 L259.642,43.656 C257.224,43.656 256.288,42.564 256.288,40.12 L256.288,32.996 C256.288,32.892 256.236,32.84 256.132,32.84 L255.092,32.84 C254.936,32.84 254.832,32.736 254.832,32.58 L254.832,31.332 C254.832,31.176 254.936,31.072 255.092,31.072 L256.132,31.072 C256.236,31.072 256.288,31.02 256.288,30.916 L256.288,27.406 C256.288,27.25 256.392,27.146 256.548,27.146 L258.212,27.146 C258.368,27.146 258.472,27.25 258.472,27.406 L258.472,30.916 C258.472,31.02 258.524,31.072 258.628,31.072 L260.604,31.072 C260.76,31.072 260.864,31.176 260.864,31.332 L260.864,32.58 C260.864,32.736 260.76,32.84 260.604,32.84 L258.628,32.84 C258.524,32.84 258.472,32.892 258.472,32.996 L258.472,40.042 C258.472,41.29 258.94,41.628 260.058,41.628 L260.604,41.628 C260.76,41.628 260.864,41.732 260.864,41.888 L260.864,43.396 C260.864,43.552 260.76,43.656 260.604,43.656 Z M273.994,43.526 L272.33,43.526 C272.174,43.526 272.07,43.422 272.07,43.266 L272.07,35.986 C272.07,33.984 271.16,32.814 269.288,32.814 C267.598,32.814 266.428,34.01 266.428,35.856 L266.428,43.266 C266.428,43.422 266.324,43.526 266.168,43.526 L264.504,43.526 C264.348,43.526 264.244,43.422 264.244,43.266 L264.244,26.106 C264.244,25.95 264.348,25.846 264.504,25.846 L266.168,25.846 C266.324,25.846 266.428,25.95 266.428,26.106 L266.428,32.476 L266.454,32.476 C267.052,31.514 268.248,30.786 269.938,30.786 C272.642,30.786 274.254,32.632 274.254,35.466 L274.254,43.266 C274.254,43.422 274.15,43.526 273.994,43.526 Z M278.076,41.03 C278.076,40.874 278.18,40.77 278.336,40.77 L280.156,40.77 C280.312,40.77 280.416,40.874 280.416,41.03 L280.416,43.448 C280.416,43.708 280.39,43.838 280.26,44.02 L278.648,46.152 C278.544,46.282 278.44,46.334 278.31,46.334 C278.18,46.334 278.076,46.23 278.076,46.1 L278.076,41.03 Z M294.352,43.812 C291.934,43.812 290.218,42.824 289.204,41.94 C289.1,41.836 289.1,41.68 289.204,41.576 L290.27,40.432 C290.374,40.328 290.53,40.328 290.634,40.432 C291.57,41.238 292.974,41.862 294.482,41.862 C296.302,41.862 297.212,41.082 297.212,39.964 C297.212,38.976 296.744,38.43 294.794,38.222 L293.468,38.092 C291.024,37.832 289.75,36.61 289.75,34.582 C289.75,32.216 291.44,30.786 294.378,30.786 C296.198,30.786 297.758,31.384 298.798,32.164 C298.928,32.242 298.928,32.398 298.85,32.528 L297.966,33.646 C297.862,33.776 297.732,33.776 297.602,33.698 C296.796,33.178 295.522,32.684 294.248,32.684 C292.688,32.684 291.882,33.386 291.882,34.4 C291.882,35.388 292.48,35.908 294.326,36.09 L295.626,36.22 C298.148,36.454 299.37,37.728 299.37,39.73 C299.37,42.174 297.602,43.812 294.352,43.812 Z M307.378,43.656 L306.416,43.656 C303.998,43.656 303.062,42.564 303.062,40.12 L303.062,32.996 C303.062,32.892 303.01,32.84 302.906,32.84 L301.866,32.84 C301.71,32.84 301.606,32.736 301.606,32.58 L301.606,31.332 C301.606,31.176 301.71,31.072 301.866,31.072 L302.906,31.072 C303.01,31.072 303.062,31.02 303.062,30.916 L303.062,27.406 C303.062,27.25 303.166,27.146 303.322,27.146 L304.986,27.146 C305.142,27.146 305.246,27.25 305.246,27.406 L305.246,30.916 C305.246,31.02 305.298,31.072 305.402,31.072 L307.378,31.072 C307.534,31.072 307.638,31.176 307.638,31.332 L307.638,32.58 C307.638,32.736 307.534,32.84 307.378,32.84 L305.402,32.84 C305.298,32.84 305.246,32.892 305.246,32.996 L305.246,40.042 C305.246,41.29 305.714,41.628 306.832,41.628 L307.378,41.628 C307.534,41.628 307.638,41.732 307.638,41.888 L307.638,43.396 C307.638,43.552 307.534,43.656 307.378,43.656 Z M320.092,43.526 L318.558,43.526 C318.402,43.526 318.298,43.422 318.298,43.266 L318.298,42.174 L318.272,42.174 C317.7,43.11 316.478,43.812 314.58,43.812 C312.214,43.812 310.394,42.59 310.394,40.068 C310.394,37.442 312.214,36.22 315.256,36.22 L318.09,36.22 C318.194,36.22 318.246,36.168 318.246,36.064 L318.246,35.154 C318.246,33.438 317.57,32.71 315.256,32.71 C313.852,32.71 312.968,33.074 312.24,33.594 C312.11,33.698 311.954,33.698 311.876,33.568 L311.174,32.372 C311.096,32.216 311.122,32.112 311.226,32.008 C312.162,31.28 313.618,30.786 315.464,30.786 C319,30.786 320.352,31.956 320.352,35.024 L320.352,43.266 C320.352,43.422 320.248,43.526 320.092,43.526 Z M315.1,41.94 C317.05,41.94 318.246,41.03 318.246,39.496 L318.246,38.118 C318.246,38.014 318.194,37.962 318.09,37.962 L315.594,37.962 C313.436,37.962 312.5,38.586 312.5,39.99 C312.5,41.264 313.436,41.94 315.1,41.94 Z M325.188,48.206 L324.512,48.206 C324.356,48.206 324.252,48.102 324.252,47.946 L324.252,46.438 C324.252,46.282 324.356,46.178 324.512,46.178 L324.98,46.178 C325.994,46.178 326.54,45.736 327.086,44.306 L327.502,43.162 L322.926,31.332 C322.874,31.176 322.952,31.072 323.134,31.072 L324.954,31.072 C325.11,31.072 325.214,31.15 325.266,31.332 L328.542,40.328 L328.594,40.328 L331.74,31.332 C331.792,31.15 331.896,31.072 332.052,31.072 L333.82,31.072 C333.976,31.072 334.08,31.176 334.028,31.332 L329.114,44.488 C328.022,47.426 327.06,48.206 325.188,48.206 Z M342.972,43.266 L342.972,41.914 C342.972,41.758 342.998,41.68 343.102,41.55 L349.472,33.438 C350.252,32.45 350.72,31.488 350.72,30.37 C350.72,28.784 349.654,27.588 347.938,27.588 C346.248,27.588 345.312,28.602 345.052,30.188 C345.026,30.344 344.922,30.422 344.766,30.396 L343.18,30.058 C343.024,30.006 342.946,29.902 342.972,29.746 C343.206,27.64 344.87,25.56 347.99,25.56 C351.084,25.56 352.956,27.64 352.956,30.37 C352.956,31.956 352.306,33.256 351.24,34.608 L345.78,41.472 L345.78,41.498 L352.696,41.498 C352.852,41.498 352.956,41.602 352.956,41.758 L352.956,43.266 C352.956,43.422 352.852,43.526 352.696,43.526 L343.232,43.526 C343.076,43.526 342.972,43.422 342.972,43.266 Z M373.132,43.526 L371.468,43.526 C371.312,43.526 371.208,43.422 371.208,43.266 L371.208,35.986 C371.208,33.984 370.298,32.814 368.426,32.814 C366.736,32.814 365.566,34.01 365.566,35.856 L365.566,43.266 C365.566,43.422 365.462,43.526 365.306,43.526 L363.642,43.526 C363.486,43.526 363.382,43.422 363.382,43.266 L363.382,31.332 C363.382,31.176 363.486,31.072 363.642,31.072 L365.306,31.072 C365.462,31.072 365.566,31.176 365.566,31.332 L365.566,32.476 L365.592,32.476 C366.19,31.514 367.386,30.786 369.076,30.786 C371.78,30.786 373.392,32.632 373.392,35.466 L373.392,43.266 C373.392,43.422 373.288,43.526 373.132,43.526 Z M379.502,28.264 L377.734,28.264 C377.578,28.264 377.474,28.16 377.474,28.004 L377.474,26.106 C377.474,25.95 377.578,25.846 377.734,25.846 L379.502,25.846 C379.658,25.846 379.762,25.95 379.762,26.106 L379.762,28.004 C379.762,28.16 379.658,28.264 379.502,28.264 Z M379.45,43.526 L377.786,43.526 C377.63,43.526 377.526,43.422 377.526,43.266 L377.526,31.332 C377.526,31.176 377.63,31.072 377.786,31.072 L379.45,31.072 C379.606,31.072 379.71,31.176 379.71,31.332 L379.71,43.266 C379.71,43.422 379.606,43.526 379.45,43.526 Z M388.03,48.492 C386.288,48.492 384.546,47.738 383.714,46.646 C383.61,46.516 383.61,46.412 383.74,46.282 L384.806,45.216 C384.936,45.086 385.066,45.086 385.196,45.216 C386.054,45.996 386.938,46.464 388.134,46.464 C390.188,46.464 391.28,45.398 391.28,43.11 L391.28,41.654 L391.254,41.654 C390.682,42.694 389.616,43.37 387.796,43.37 C385.69,43.37 384.234,42.304 383.61,40.354 C383.298,39.418 383.194,38.508 383.194,37.078 C383.194,35.648 383.298,34.738 383.61,33.802 C384.234,31.852 385.69,30.786 387.796,30.786 C389.616,30.786 390.682,31.462 391.254,32.502 L391.28,32.502 L391.28,31.332 C391.28,31.176 391.384,31.072 391.54,31.072 L393.204,31.072 C393.36,31.072 393.464,31.176 393.464,31.332 L393.464,42.98 C393.464,46.516 391.54,48.492 388.03,48.492 Z M388.342,41.368 C389.642,41.368 390.552,40.77 390.994,39.496 C391.202,38.872 391.28,38.144 391.28,37.078 C391.28,36.012 391.202,35.31 390.994,34.66 C390.552,33.386 389.642,32.814 388.342,32.814 C386.99,32.814 386.132,33.464 385.716,34.66 C385.508,35.31 385.404,36.064 385.404,37.078 C385.404,38.092 385.508,38.872 385.716,39.496 C386.132,40.718 386.99,41.368 388.342,41.368 Z M407.478,43.526 L405.814,43.526 C405.658,43.526 405.554,43.422 405.554,43.266 L405.554,35.986 C405.554,33.984 404.644,32.814 402.772,32.814 C401.082,32.814 399.912,34.01 399.912,35.856 L399.912,43.266 C399.912,43.422 399.808,43.526 399.652,43.526 L397.988,43.526 C397.832,43.526 397.728,43.422 397.728,43.266 L397.728,26.106 C397.728,25.95 397.832,25.846 397.988,25.846 L399.652,25.846 C399.808,25.846 399.912,25.95 399.912,26.106 L399.912,32.476 L399.938,32.476 C400.536,31.514 401.732,30.786 403.422,30.786 C406.126,30.786 407.738,32.632 407.738,35.466 L407.738,43.266 C407.738,43.422 407.634,43.526 407.478,43.526 Z M416.448,43.656 L415.486,43.656 C413.068,43.656 412.132,42.564 412.132,40.12 L412.132,32.996 C412.132,32.892 412.08,32.84 411.976,32.84 L410.936,32.84 C410.78,32.84 410.676,32.736 410.676,32.58 L410.676,31.332 C410.676,31.176 410.78,31.072 410.936,31.072 L411.976,31.072 C412.08,31.072 412.132,31.02 412.132,30.916 L412.132,27.406 C412.132,27.25 412.236,27.146 412.392,27.146 L414.056,27.146 C414.212,27.146 414.316,27.25 414.316,27.406 L414.316,30.916 C414.316,31.02 414.368,31.072 414.472,31.072 L416.448,31.072 C416.604,31.072 416.708,31.176 416.708,31.332 L416.708,32.58 C416.708,32.736 416.604,32.84 416.448,32.84 L414.472,32.84 C414.368,32.84 414.316,32.892 414.316,32.996 L414.316,40.042 C414.316,41.29 414.784,41.628 415.902,41.628 L416.448,41.628 C416.604,41.628 416.708,41.732 416.708,41.888 L416.708,43.396 C416.708,43.552 416.604,43.656 416.448,43.656 Z M424.378,43.812 C421.96,43.812 420.244,42.824 419.23,41.94 C419.126,41.836 419.126,41.68 419.23,41.576 L420.296,40.432 C420.4,40.328 420.556,40.328 420.66,40.432 C421.596,41.238 423,41.862 424.508,41.862 C426.328,41.862 427.238,41.082 427.238,39.964 C427.238,38.976 426.77,38.43 424.82,38.222 L423.494,38.092 C421.05,37.832 419.776,36.61 419.776,34.582 C419.776,32.216 421.466,30.786 424.404,30.786 C426.224,30.786 427.784,31.384 428.824,32.164 C428.954,32.242 428.954,32.398 428.876,32.528 L427.992,33.646 C427.888,33.776 427.758,33.776 427.628,33.698 C426.822,33.178 425.548,32.684 424.274,32.684 C422.714,32.684 421.908,33.386 421.908,34.4 C421.908,35.388 422.506,35.908 424.352,36.09 L425.652,36.22 C428.174,36.454 429.396,37.728 429.396,39.73 C429.396,42.174 427.628,43.812 424.378,43.812 Z M448.818,43.526 L447.154,43.526 C446.998,43.526 446.894,43.422 446.894,43.266 L446.894,35.986 C446.894,33.984 445.984,32.814 444.112,32.814 C442.422,32.814 441.252,34.01 441.252,35.856 L441.252,43.266 C441.252,43.422 441.148,43.526 440.992,43.526 L439.328,43.526 C439.172,43.526 439.068,43.422 439.068,43.266 L439.068,31.332 C439.068,31.176 439.172,31.072 439.328,31.072 L440.992,31.072 C441.148,31.072 441.252,31.176 441.252,31.332 L441.252,32.476 L441.278,32.476 C441.876,31.514 443.072,30.786 444.762,30.786 C447.466,30.786 449.078,32.632 449.078,35.466 L449.078,43.266 C449.078,43.422 448.974,43.526 448.818,43.526 Z M457.866,43.812 C455.344,43.812 453.55,42.59 452.874,40.432 C452.614,39.626 452.458,38.716 452.458,37.286 C452.458,35.856 452.588,34.894 452.848,34.14 C453.55,31.982 455.37,30.786 457.736,30.786 C460.128,30.786 461.922,32.008 462.624,34.14 C462.884,34.946 463.014,35.804 463.014,37.702 C463.014,37.858 462.91,37.962 462.728,37.962 L454.85,37.962 C454.746,37.962 454.694,38.014 454.694,38.118 C454.694,38.794 454.772,39.21 454.902,39.626 C455.396,41.056 456.514,41.784 458.048,41.784 C459.53,41.784 460.57,41.186 461.246,40.406 C461.376,40.276 461.506,40.25 461.636,40.354 L462.702,41.316 C462.832,41.42 462.832,41.55 462.728,41.68 C461.74,42.928 460.05,43.812 457.866,43.812 Z M454.85,36.22 L460.622,36.22 C460.726,36.22 460.778,36.168 460.778,36.064 C460.778,35.492 460.726,35.05 460.596,34.66 C460.18,33.412 459.14,32.71 457.736,32.71 C456.332,32.71 455.292,33.412 454.876,34.66 C454.746,35.05 454.694,35.492 454.694,36.064 C454.694,36.168 454.746,36.22 454.85,36.22 Z M475.598,43.526 L474.064,43.526 C473.908,43.526 473.804,43.422 473.804,43.266 L473.804,42.174 L473.778,42.174 C473.206,43.11 471.984,43.812 470.086,43.812 C467.72,43.812 465.9,42.59 465.9,40.068 C465.9,37.442 467.72,36.22 470.762,36.22 L473.596,36.22 C473.7,36.22 473.752,36.168 473.752,36.064 L473.752,35.154 C473.752,33.438 473.076,32.71 470.762,32.71 C469.358,32.71 468.474,33.074 467.746,33.594 C467.616,33.698 467.46,33.698 467.382,33.568 L466.68,32.372 C466.602,32.216 466.628,32.112 466.732,32.008 C467.668,31.28 469.124,30.786 470.97,30.786 C474.506,30.786 475.858,31.956 475.858,35.024 L475.858,43.266 C475.858,43.422 475.754,43.526 475.598,43.526 Z M470.606,41.94 C472.556,41.94 473.752,41.03 473.752,39.496 L473.752,38.118 C473.752,38.014 473.7,37.962 473.596,37.962 L471.1,37.962 C468.942,37.962 468.006,38.586 468.006,39.99 C468.006,41.264 468.942,41.94 470.606,41.94 Z M481.942,43.526 L480.278,43.526 C480.122,43.526 480.018,43.422 480.018,43.266 L480.018,31.332 C480.018,31.176 480.122,31.072 480.278,31.072 L481.942,31.072 C482.098,31.072 482.202,31.176 482.202,31.332 L482.202,32.606 L482.228,32.606 C482.774,31.54 483.866,30.786 485.53,30.786 C486.518,30.786 487.454,31.15 488.078,31.722 C488.208,31.852 488.234,31.956 488.13,32.086 L487.168,33.36 C487.064,33.49 486.934,33.516 486.804,33.412 C486.232,33.048 485.608,32.814 484.88,32.814 C482.982,32.814 482.202,34.296 482.202,36.454 L482.202,43.266 C482.202,43.422 482.098,43.526 481.942,43.526 Z M502.378,43.526 L500.584,43.526 C500.428,43.526 500.324,43.422 500.324,43.266 L500.324,28.16 C500.324,28.056 500.272,28.004 500.168,28.004 L495.332,28.004 C495.176,28.004 495.072,27.9 495.072,27.744 L495.072,26.106 C495.072,25.95 495.176,25.846 495.332,25.846 L507.63,25.846 C507.786,25.846 507.89,25.95 507.89,26.106 L507.89,27.744 C507.89,27.9 507.786,28.004 507.63,28.004 L502.794,28.004 C502.69,28.004 502.638,28.056 502.638,28.16 L502.638,43.266 C502.638,43.422 502.534,43.526 502.378,43.526 Z M512.57,28.264 L510.802,28.264 C510.646,28.264 510.542,28.16 510.542,28.004 L510.542,26.106 C510.542,25.95 510.646,25.846 510.802,25.846 L512.57,25.846 C512.726,25.846 512.83,25.95 512.83,26.106 L512.83,28.004 C512.83,28.16 512.726,28.264 512.57,28.264 Z M512.518,43.526 L510.854,43.526 C510.698,43.526 510.594,43.422 510.594,43.266 L510.594,31.332 C510.594,31.176 510.698,31.072 510.854,31.072 L512.518,31.072 C512.674,31.072 512.778,31.176 512.778,31.332 L512.778,43.266 C512.778,43.422 512.674,43.526 512.518,43.526 Z M534.618,43.526 L532.954,43.526 C532.798,43.526 532.694,43.422 532.694,43.266 L532.694,35.986 C532.694,33.984 531.784,32.814 529.912,32.814 C528.248,32.814 527.052,34.01 527.052,35.856 L527.052,43.266 C527.052,43.422 526.948,43.526 526.792,43.526 L525.128,43.526 C524.972,43.526 524.868,43.422 524.868,43.266 L524.868,35.986 C524.868,33.984 523.958,32.814 522.086,32.814 C520.396,32.814 519.226,34.01 519.226,35.856 L519.226,43.266 C519.226,43.422 519.122,43.526 518.966,43.526 L517.302,43.526 C517.146,43.526 517.042,43.422 517.042,43.266 L517.042,31.332 C517.042,31.176 517.146,31.072 517.302,31.072 L518.966,31.072 C519.122,31.072 519.226,31.176 519.226,31.332 L519.226,32.476 L519.252,32.476 C519.85,31.514 521.046,30.786 522.736,30.786 C524.426,30.786 525.674,31.488 526.376,32.736 L526.402,32.736 C527.26,31.54 528.534,30.786 530.432,30.786 C533.318,30.786 534.878,32.632 534.878,35.466 L534.878,43.266 C534.878,43.422 534.774,43.526 534.618,43.526 Z M543.666,43.812 C541.144,43.812 539.35,42.59 538.674,40.432 C538.414,39.626 538.258,38.716 538.258,37.286 C538.258,35.856 538.388,34.894 538.648,34.14 C539.35,31.982 541.17,30.786 543.536,30.786 C545.928,30.786 547.722,32.008 548.424,34.14 C548.684,34.946 548.814,35.804 548.814,37.702 C548.814,37.858 548.71,37.962 548.528,37.962 L540.65,37.962 C540.546,37.962 540.494,38.014 540.494,38.118 C540.494,38.794 540.572,39.21 540.702,39.626 C541.196,41.056 542.314,41.784 543.848,41.784 C545.33,41.784 546.37,41.186 547.046,40.406 C547.176,40.276 547.306,40.25 547.436,40.354 L548.502,41.316 C548.632,41.42 548.632,41.55 548.528,41.68 C547.54,42.928 545.85,43.812 543.666,43.812 Z M540.65,36.22 L546.422,36.22 C546.526,36.22 546.578,36.168 546.578,36.064 C546.578,35.492 546.526,35.05 546.396,34.66 C545.98,33.412 544.94,32.71 543.536,32.71 C542.132,32.71 541.092,33.412 540.676,34.66 C540.546,35.05 540.494,35.492 540.494,36.064 C540.494,36.168 540.546,36.22 540.65,36.22 Z M556.614,43.812 C554.196,43.812 552.48,42.824 551.466,41.94 C551.362,41.836 551.362,41.68 551.466,41.576 L552.532,40.432 C552.636,40.328 552.792,40.328 552.896,40.432 C553.832,41.238 555.236,41.862 556.744,41.862 C558.564,41.862 559.474,41.082 559.474,39.964 C559.474,38.976 559.006,38.43 557.056,38.222 L555.73,38.092 C553.286,37.832 552.012,36.61 552.012,34.582 C552.012,32.216 553.702,30.786 556.64,30.786 C558.46,30.786 560.02,31.384 561.06,32.164 C561.19,32.242 561.19,32.398 561.112,32.528 L560.228,33.646 C560.124,33.776 559.994,33.776 559.864,33.698 C559.058,33.178 557.784,32.684 556.51,32.684 C554.95,32.684 554.144,33.386 554.144,34.4 C554.144,35.388 554.742,35.908 556.588,36.09 L557.888,36.22 C560.41,36.454 561.632,37.728 561.632,39.73 C561.632,42.174 559.864,43.812 556.614,43.812 Z M576.712,43.812 C574.216,43.812 571.798,42.798 570.498,41.602 C570.394,41.498 570.368,41.342 570.472,41.212 L571.616,39.86 C571.72,39.73 571.85,39.73 571.98,39.834 C573.124,40.744 574.892,41.654 576.92,41.654 C579.364,41.654 580.82,40.432 580.82,38.638 C580.82,37.13 579.962,36.116 577.128,35.752 L576.244,35.622 C572.812,35.154 571.044,33.516 571.044,30.734 C571.044,27.588 573.306,25.56 576.816,25.56 C578.896,25.56 580.898,26.236 582.198,27.198 C582.328,27.302 582.354,27.432 582.25,27.562 L581.366,28.992 C581.262,29.122 581.132,29.122 581.002,29.044 C579.572,28.16 578.246,27.718 576.738,27.718 C574.58,27.718 573.384,28.888 573.384,30.578 C573.384,32.06 574.372,33.048 577.102,33.412 L577.96,33.542 C581.418,34.01 583.16,35.596 583.16,38.482 C583.16,41.576 580.976,43.812 576.712,43.812 Z M596.134,48.206 L594.47,48.206 C594.314,48.206 594.21,48.102 594.21,47.946 L594.21,42.07 L594.184,42.07 C593.586,43.058 592.52,43.812 590.648,43.812 C588.49,43.812 586.982,42.798 586.358,40.822 C586.02,39.834 585.916,38.846 585.916,37.286 C585.916,35.752 586.02,34.764 586.358,33.776 C586.982,31.8 588.49,30.786 590.648,30.786 C592.52,30.786 593.586,31.514 594.184,32.502 L594.21,32.502 L594.21,31.332 C594.21,31.176 594.314,31.072 594.47,31.072 L596.134,31.072 C596.29,31.072 596.394,31.176 596.394,31.332 L596.394,47.946 C596.394,48.102 596.29,48.206 596.134,48.206 Z M591.168,41.784 C592.546,41.784 593.508,41.134 593.924,39.886 C594.132,39.288 594.21,38.534 594.21,37.286 C594.21,36.038 594.132,35.31 593.924,34.686 C593.508,33.438 592.546,32.814 591.168,32.814 C589.79,32.814 588.854,33.464 588.438,34.686 C588.23,35.362 588.152,36.168 588.152,37.286 C588.152,38.43 588.23,39.236 588.438,39.886 C588.854,41.108 589.79,41.784 591.168,41.784 Z M610.148,43.526 L608.484,43.526 C608.328,43.526 608.224,43.422 608.224,43.266 L608.224,42.096 L608.198,42.096 C607.548,43.136 606.404,43.812 604.792,43.812 C602.062,43.812 600.476,41.94 600.476,39.106 L600.476,31.332 C600.476,31.176 600.58,31.072 600.736,31.072 L602.4,31.072 C602.556,31.072 602.66,31.176 602.66,31.332 L602.66,38.586 C602.66,40.614 603.57,41.784 605.416,41.784 C607.106,41.784 608.224,40.588 608.224,38.716 L608.224,31.332 C608.224,31.176 608.328,31.072 608.484,31.072 L610.148,31.072 C610.304,31.072 610.408,31.176 610.408,31.332 L610.408,43.266 C610.408,43.422 610.304,43.526 610.148,43.526 Z M623.746,43.526 L622.212,43.526 C622.056,43.526 621.952,43.422 621.952,43.266 L621.952,42.174 L621.926,42.174 C621.354,43.11 620.132,43.812 618.234,43.812 C615.868,43.812 614.048,42.59 614.048,40.068 C614.048,37.442 615.868,36.22 618.91,36.22 L621.744,36.22 C621.848,36.22 621.9,36.168 621.9,36.064 L621.9,35.154 C621.9,33.438 621.224,32.71 618.91,32.71 C617.506,32.71 616.622,33.074 615.894,33.594 C615.764,33.698 615.608,33.698 615.53,33.568 L614.828,32.372 C614.75,32.216 614.776,32.112 614.88,32.008 C615.816,31.28 617.272,30.786 619.118,30.786 C622.654,30.786 624.006,31.956 624.006,35.024 L624.006,43.266 C624.006,43.422 623.902,43.526 623.746,43.526 Z M618.754,41.94 C620.704,41.94 621.9,41.03 621.9,39.496 L621.9,38.118 C621.9,38.014 621.848,37.962 621.744,37.962 L619.248,37.962 C617.09,37.962 616.154,38.586 616.154,39.99 C616.154,41.264 617.09,41.94 618.754,41.94 Z M630.09,43.526 L628.426,43.526 C628.27,43.526 628.166,43.422 628.166,43.266 L628.166,31.332 C628.166,31.176 628.27,31.072 628.426,31.072 L630.09,31.072 C630.246,31.072 630.35,31.176 630.35,31.332 L630.35,32.606 L630.376,32.606 C630.922,31.54 632.014,30.786 633.678,30.786 C634.666,30.786 635.602,31.15 636.226,31.722 C636.356,31.852 636.382,31.956 636.278,32.086 L635.316,33.36 C635.212,33.49 635.082,33.516 634.952,33.412 C634.38,33.048 633.756,32.814 633.028,32.814 C631.13,32.814 630.35,34.296 630.35,36.454 L630.35,43.266 C630.35,43.422 630.246,43.526 630.09,43.526 Z M643.012,43.812 C640.49,43.812 638.696,42.59 638.02,40.432 C637.76,39.626 637.604,38.716 637.604,37.286 C637.604,35.856 637.734,34.894 637.994,34.14 C638.696,31.982 640.516,30.786 642.882,30.786 C645.274,30.786 647.068,32.008 647.77,34.14 C648.03,34.946 648.16,35.804 648.16,37.702 C648.16,37.858 648.056,37.962 647.874,37.962 L639.996,37.962 C639.892,37.962 639.84,38.014 639.84,38.118 C639.84,38.794 639.918,39.21 640.048,39.626 C640.542,41.056 641.66,41.784 643.194,41.784 C644.676,41.784 645.716,41.186 646.392,40.406 C646.522,40.276 646.652,40.25 646.782,40.354 L647.848,41.316 C647.978,41.42 647.978,41.55 647.874,41.68 C646.886,42.928 645.196,43.812 643.012,43.812 Z M639.996,36.22 L645.768,36.22 C645.872,36.22 645.924,36.168 645.924,36.064 C645.924,35.492 645.872,35.05 645.742,34.66 C645.326,33.412 644.286,32.71 642.882,32.71 C641.478,32.71 640.438,33.412 640.022,34.66 C639.892,35.05 639.84,35.492 639.84,36.064 C639.84,36.168 639.892,36.22 639.996,36.22 Z M660.51,45.45 C658.456,42.304 657.416,38.56 657.416,34.998 C657.416,31.436 658.456,27.666 660.51,24.546 C660.64,24.364 660.744,24.286 660.926,24.286 L661.836,24.286 C661.992,24.286 662.07,24.39 661.992,24.546 C660.432,27.666 659.522,31.436 659.522,34.998 C659.522,38.56 660.458,42.382 661.992,45.45 C662.07,45.606 661.992,45.71 661.836,45.71 L660.926,45.71 C660.744,45.71 660.64,45.632 660.51,45.45 Z M674.81,43.526 L673.146,43.526 C672.99,43.526 672.886,43.422 672.886,43.266 L672.886,42.096 L672.86,42.096 C672.21,43.136 671.066,43.812 669.454,43.812 C666.724,43.812 665.138,41.94 665.138,39.106 L665.138,31.332 C665.138,31.176 665.242,31.072 665.398,31.072 L667.062,31.072 C667.218,31.072 667.322,31.176 667.322,31.332 L667.322,38.586 C667.322,40.614 668.232,41.784 670.078,41.784 C671.768,41.784 672.886,40.588 672.886,38.716 L672.886,31.332 C672.886,31.176 672.99,31.072 673.146,31.072 L674.81,31.072 C674.966,31.072 675.07,31.176 675.07,31.332 L675.07,43.266 C675.07,43.422 674.966,43.526 674.81,43.526 Z M689.084,43.526 L687.42,43.526 C687.264,43.526 687.16,43.422 687.16,43.266 L687.16,35.986 C687.16,33.984 686.25,32.814 684.378,32.814 C682.688,32.814 681.518,34.01 681.518,35.856 L681.518,43.266 C681.518,43.422 681.414,43.526 681.258,43.526 L679.594,43.526 C679.438,43.526 679.334,43.422 679.334,43.266 L679.334,31.332 C679.334,31.176 679.438,31.072 679.594,31.072 L681.258,31.072 C681.414,31.072 681.518,31.176 681.518,31.332 L681.518,32.476 L681.544,32.476 C682.142,31.514 683.338,30.786 685.028,30.786 C687.732,30.786 689.344,32.632 689.344,35.466 L689.344,43.266 C689.344,43.422 689.24,43.526 689.084,43.526 Z M702.942,43.526 L701.278,43.526 C701.122,43.526 701.018,43.422 701.018,43.266 L701.018,42.07 L700.992,42.07 C700.394,43.058 699.328,43.812 697.456,43.812 C695.298,43.812 693.79,42.798 693.166,40.822 C692.828,39.834 692.724,38.846 692.724,37.286 C692.724,35.752 692.828,34.764 693.166,33.776 C693.79,31.8 695.298,30.786 697.456,30.786 C699.328,30.786 700.394,31.514 700.992,32.502 L701.018,32.502 L701.018,26.106 C701.018,25.95 701.122,25.846 701.278,25.846 L702.942,25.846 C703.098,25.846 703.202,25.95 703.202,26.106 L703.202,43.266 C703.202,43.422 703.098,43.526 702.942,43.526 Z M697.976,41.784 C699.354,41.784 700.316,41.134 700.732,39.886 C700.94,39.288 701.018,38.534 701.018,37.286 C701.018,36.038 700.94,35.31 700.732,34.686 C700.316,33.438 699.354,32.814 697.976,32.814 C696.598,32.814 695.662,33.464 695.246,34.686 C695.038,35.362 694.96,36.168 694.96,37.286 C694.96,38.43 695.038,39.236 695.246,39.886 C695.662,41.108 696.598,41.784 697.976,41.784 Z M712.12,43.812 C709.598,43.812 707.804,42.59 707.128,40.432 C706.868,39.626 706.712,38.716 706.712,37.286 C706.712,35.856 706.842,34.894 707.102,34.14 C707.804,31.982 709.624,30.786 711.99,30.786 C714.382,30.786 716.176,32.008 716.878,34.14 C717.138,34.946 717.268,35.804 717.268,37.702 C717.268,37.858 717.164,37.962 716.982,37.962 L709.104,37.962 C709,37.962 708.948,38.014 708.948,38.118 C708.948,38.794 709.026,39.21 709.156,39.626 C709.65,41.056 710.768,41.784 712.302,41.784 C713.784,41.784 714.824,41.186 715.5,40.406 C715.63,40.276 715.76,40.25 715.89,40.354 L716.956,41.316 C717.086,41.42 717.086,41.55 716.982,41.68 C715.994,42.928 714.304,43.812 712.12,43.812 Z M709.104,36.22 L714.876,36.22 C714.98,36.22 715.032,36.168 715.032,36.064 C715.032,35.492 714.98,35.05 714.85,34.66 C714.434,33.412 713.394,32.71 711.99,32.71 C710.586,32.71 709.546,33.412 709.13,34.66 C709,35.05 708.948,35.492 708.948,36.064 C708.948,36.168 709,36.22 709.104,36.22 Z M722.702,43.526 L721.038,43.526 C720.882,43.526 720.778,43.422 720.778,43.266 L720.778,31.332 C720.778,31.176 720.882,31.072 721.038,31.072 L722.702,31.072 C722.858,31.072 722.962,31.176 722.962,31.332 L722.962,32.606 L722.988,32.606 C723.534,31.54 724.626,30.786 726.29,30.786 C727.278,30.786 728.214,31.15 728.838,31.722 C728.968,31.852 728.994,31.956 728.89,32.086 L727.928,33.36 C727.824,33.49 727.694,33.516 727.564,33.412 C726.992,33.048 726.368,32.814 725.64,32.814 C723.742,32.814 722.962,34.296 722.962,36.454 L722.962,43.266 C722.962,43.422 722.858,43.526 722.702,43.526 Z M737.132,42.07 C737.028,41.992 737.002,41.81 737.106,41.706 L738.068,40.406 C738.172,40.276 738.328,40.302 738.432,40.38 C739.342,41.03 740.616,41.68 742.098,41.784 L742.098,35.544 C738.978,34.972 737.418,33.256 737.418,30.708 C737.418,27.822 739.316,25.846 742.098,25.586 L742.098,24.26 C742.098,24.104 742.202,24 742.358,24 L743.112,24 C743.268,24 743.372,24.104 743.372,24.26 L743.372,25.586 C744.854,25.716 746.206,26.21 747.246,26.886 C747.376,26.99 747.402,27.094 747.298,27.25 L746.466,28.524 C746.362,28.654 746.232,28.68 746.102,28.602 C745.218,28.082 744.308,27.744 743.372,27.64 L743.372,33.62 C746.544,34.166 748.104,35.856 748.104,38.456 C748.104,41.342 746.336,43.396 743.372,43.734 L743.372,45.112 C743.372,45.268 743.268,45.372 743.112,45.372 L742.358,45.372 C742.202,45.372 742.098,45.268 742.098,45.112 L742.098,43.812 C740.148,43.734 738.406,43.032 737.132,42.07 Z M742.098,33.386 L742.098,27.64 C740.538,27.848 739.55,28.94 739.55,30.526 C739.55,31.956 740.174,32.918 742.098,33.386 Z M743.372,41.706 C744.984,41.42 745.972,40.328 745.972,38.586 C745.972,37.182 745.27,36.22 743.372,35.778 L743.372,41.706 Z M751.38,40.068 C751.354,39.912 751.432,39.808 751.588,39.756 L753.174,39.366 C753.33,39.314 753.434,39.392 753.486,39.548 C753.85,40.666 754.76,41.784 756.632,41.784 C758.53,41.784 759.674,40.458 759.674,38.664 C759.674,36.688 758.4,35.388 756.424,35.388 L755.644,35.388 C755.488,35.388 755.384,35.284 755.384,35.128 L755.384,33.62 C755.384,33.464 755.488,33.36 755.644,33.36 L756.398,33.36 C758.166,33.36 759.336,32.19 759.336,30.396 C759.336,28.758 758.27,27.588 756.502,27.588 C754.864,27.588 754.006,28.55 753.694,29.746 C753.642,29.902 753.538,29.98 753.382,29.954 L751.822,29.564 C751.666,29.538 751.588,29.408 751.614,29.252 C751.978,27.276 753.746,25.56 756.58,25.56 C759.7,25.56 761.572,27.562 761.572,30.344 C761.572,32.112 760.61,33.386 759.388,34.14 L759.388,34.192 C760.48,34.66 761.91,36.168 761.91,38.586 C761.91,41.68 759.7,43.812 756.632,43.812 C753.772,43.812 751.874,42.226 751.38,40.068 Z M765.94,40.458 C765.732,39.782 765.55,38.846 765.55,34.686 C765.55,30.526 765.732,29.59 765.94,28.914 C766.642,26.756 768.332,25.56 770.776,25.56 C773.22,25.56 774.91,26.756 775.612,28.914 C775.82,29.59 776.002,30.526 776.002,34.686 C776.002,38.846 775.82,39.782 775.612,40.458 C774.91,42.616 773.22,43.812 770.776,43.812 C768.332,43.812 766.642,42.616 765.94,40.458 Z M768.098,40.016 C768.514,41.186 769.476,41.784 770.776,41.784 C772.076,41.784 773.038,41.186 773.454,40.016 C773.636,39.47 773.74,38.716 773.74,34.686 C773.74,30.656 773.636,29.902 773.454,29.356 C773.038,28.186 772.076,27.588 770.776,27.588 C769.476,27.588 768.514,28.186 768.098,29.356 C767.916,29.902 767.812,30.656 767.812,34.686 C767.812,38.716 767.916,39.47 768.098,40.016 Z M780.032,40.458 C779.824,39.782 779.642,38.846 779.642,34.686 C779.642,30.526 779.824,29.59 780.032,28.914 C780.734,26.756 782.424,25.56 784.868,25.56 C787.312,25.56 789.002,26.756 789.704,28.914 C789.912,29.59 790.094,30.526 790.094,34.686 C790.094,38.846 789.912,39.782 789.704,40.458 C789.002,42.616 787.312,43.812 784.868,43.812 C782.424,43.812 780.734,42.616 780.032,40.458 Z M782.19,40.016 C782.606,41.186 783.568,41.784 784.868,41.784 C786.168,41.784 787.13,41.186 787.546,40.016 C787.728,39.47 787.832,38.716 787.832,34.686 C787.832,30.656 787.728,29.902 787.546,29.356 C787.13,28.186 786.168,27.588 784.868,27.588 C783.568,27.588 782.606,28.186 782.19,29.356 C782.008,29.902 781.904,30.656 781.904,34.686 C781.904,38.716 782.008,39.47 782.19,40.016 Z M793.5,43.552 L799.246,25.82 C799.298,25.664 799.402,25.56 799.584,25.56 L800.988,25.56 C801.144,25.56 801.222,25.664 801.17,25.82 L795.398,43.552 C795.346,43.708 795.242,43.812 795.06,43.812 L793.682,43.812 C793.526,43.812 793.448,43.708 793.5,43.552 Z M814.638,43.526 L812.974,43.526 C812.818,43.526 812.714,43.422 812.714,43.266 L812.714,35.986 C812.714,33.984 811.804,32.814 809.932,32.814 C808.242,32.814 807.072,34.01 807.072,35.856 L807.072,43.266 C807.072,43.422 806.968,43.526 806.812,43.526 L805.148,43.526 C804.992,43.526 804.888,43.422 804.888,43.266 L804.888,31.332 C804.888,31.176 804.992,31.072 805.148,31.072 L806.812,31.072 C806.968,31.072 807.072,31.176 807.072,31.332 L807.072,32.476 L807.098,32.476 C807.696,31.514 808.892,30.786 810.582,30.786 C813.286,30.786 814.898,32.632 814.898,35.466 L814.898,43.266 C814.898,43.422 814.794,43.526 814.638,43.526 Z M821.008,28.264 L819.24,28.264 C819.084,28.264 818.98,28.16 818.98,28.004 L818.98,26.106 C818.98,25.95 819.084,25.846 819.24,25.846 L821.008,25.846 C821.164,25.846 821.268,25.95 821.268,26.106 L821.268,28.004 C821.268,28.16 821.164,28.264 821.008,28.264 Z M820.956,43.526 L819.292,43.526 C819.136,43.526 819.032,43.422 819.032,43.266 L819.032,31.332 C819.032,31.176 819.136,31.072 819.292,31.072 L820.956,31.072 C821.112,31.072 821.216,31.176 821.216,31.332 L821.216,43.266 C821.216,43.422 821.112,43.526 820.956,43.526 Z M829.536,48.492 C827.794,48.492 826.052,47.738 825.22,46.646 C825.116,46.516 825.116,46.412 825.246,46.282 L826.312,45.216 C826.442,45.086 826.572,45.086 826.702,45.216 C827.56,45.996 828.444,46.464 829.64,46.464 C831.694,46.464 832.786,45.398 832.786,43.11 L832.786,41.654 L832.76,41.654 C832.188,42.694 831.122,43.37 829.302,43.37 C827.196,43.37 825.74,42.304 825.116,40.354 C824.804,39.418 824.7,38.508 824.7,37.078 C824.7,35.648 824.804,34.738 825.116,33.802 C825.74,31.852 827.196,30.786 829.302,30.786 C831.122,30.786 832.188,31.462 832.76,32.502 L832.786,32.502 L832.786,31.332 C832.786,31.176 832.89,31.072 833.046,31.072 L834.71,31.072 C834.866,31.072 834.97,31.176 834.97,31.332 L834.97,42.98 C834.97,46.516 833.046,48.492 829.536,48.492 Z M829.848,41.368 C831.148,41.368 832.058,40.77 832.5,39.496 C832.708,38.872 832.786,38.144 832.786,37.078 C832.786,36.012 832.708,35.31 832.5,34.66 C832.058,33.386 831.148,32.814 829.848,32.814 C828.496,32.814 827.638,33.464 827.222,34.66 C827.014,35.31 826.91,36.064 826.91,37.078 C826.91,38.092 827.014,38.872 827.222,39.496 C827.638,40.718 828.496,41.368 829.848,41.368 Z M848.984,43.526 L847.32,43.526 C847.164,43.526 847.06,43.422 847.06,43.266 L847.06,35.986 C847.06,33.984 846.15,32.814 844.278,32.814 C842.588,32.814 841.418,34.01 841.418,35.856 L841.418,43.266 C841.418,43.422 841.314,43.526 841.158,43.526 L839.494,43.526 C839.338,43.526 839.234,43.422 839.234,43.266 L839.234,26.106 C839.234,25.95 839.338,25.846 839.494,25.846 L841.158,25.846 C841.314,25.846 841.418,25.95 841.418,26.106 L841.418,32.476 L841.444,32.476 C842.042,31.514 843.238,30.786 844.928,30.786 C847.632,30.786 849.244,32.632 849.244,35.466 L849.244,43.266 C849.244,43.422 849.14,43.526 848.984,43.526 Z M857.954,43.656 L856.992,43.656 C854.574,43.656 853.638,42.564 853.638,40.12 L853.638,32.996 C853.638,32.892 853.586,32.84 853.482,32.84 L852.442,32.84 C852.286,32.84 852.182,32.736 852.182,32.58 L852.182,31.332 C852.182,31.176 852.286,31.072 852.442,31.072 L853.482,31.072 C853.586,31.072 853.638,31.02 853.638,30.916 L853.638,27.406 C853.638,27.25 853.742,27.146 853.898,27.146 L855.562,27.146 C855.718,27.146 855.822,27.25 855.822,27.406 L855.822,30.916 C855.822,31.02 855.874,31.072 855.978,31.072 L857.954,31.072 C858.11,31.072 858.214,31.176 858.214,31.332 L858.214,32.58 C858.214,32.736 858.11,32.84 857.954,32.84 L855.978,32.84 C855.874,32.84 855.822,32.892 855.822,32.996 L855.822,40.042 C855.822,41.29 856.29,41.628 857.408,41.628 L857.954,41.628 C858.11,41.628 858.214,41.732 858.214,41.888 L858.214,43.396 C858.214,43.552 858.11,43.656 857.954,43.656 Z M860.658,45.45 C862.192,42.382 863.128,38.56 863.128,34.998 C863.128,31.436 862.218,27.666 860.658,24.546 C860.58,24.39 860.658,24.286 860.814,24.286 L861.724,24.286 C861.906,24.286 862.01,24.364 862.14,24.546 C864.194,27.666 865.234,31.436 865.234,34.998 C865.234,38.56 864.194,42.304 862.14,45.45 C862.01,45.632 861.906,45.71 861.724,45.71 L860.814,45.71 C860.658,45.71 860.58,45.606 860.658,45.45 Z M26.708,77.656 L25.746,77.656 C23.328,77.656 22.392,76.564 22.392,74.12 L22.392,66.996 C22.392,66.892 22.34,66.84 22.236,66.84 L21.196,66.84 C21.04,66.84 20.936,66.736 20.936,66.58 L20.936,65.332 C20.936,65.176 21.04,65.072 21.196,65.072 L22.236,65.072 C22.34,65.072 22.392,65.02 22.392,64.916 L22.392,61.406 C22.392,61.25 22.496,61.146 22.652,61.146 L24.316,61.146 C24.472,61.146 24.576,61.25 24.576,61.406 L24.576,64.916 C24.576,65.02 24.628,65.072 24.732,65.072 L26.708,65.072 C26.864,65.072 26.968,65.176 26.968,65.332 L26.968,66.58 C26.968,66.736 26.864,66.84 26.708,66.84 L24.732,66.84 C24.628,66.84 24.576,66.892 24.576,66.996 L24.576,74.042 C24.576,75.29 25.044,75.628 26.162,75.628 L26.708,75.628 C26.864,75.628 26.968,75.732 26.968,75.888 L26.968,77.396 C26.968,77.552 26.864,77.656 26.708,77.656 Z M40.098,77.526 L38.434,77.526 C38.278,77.526 38.174,77.422 38.174,77.266 L38.174,69.986 C38.174,67.984 37.264,66.814 35.392,66.814 C33.702,66.814 32.532,68.01 32.532,69.856 L32.532,77.266 C32.532,77.422 32.428,77.526 32.272,77.526 L30.608,77.526 C30.452,77.526 30.348,77.422 30.348,77.266 L30.348,60.106 C30.348,59.95 30.452,59.846 30.608,59.846 L32.272,59.846 C32.428,59.846 32.532,59.95 32.532,60.106 L32.532,66.476 L32.558,66.476 C33.156,65.514 34.352,64.786 36.042,64.786 C38.746,64.786 40.358,66.632 40.358,69.466 L40.358,77.266 C40.358,77.422 40.254,77.526 40.098,77.526 Z M49.146,77.812 C46.624,77.812 44.83,76.59 44.154,74.432 C43.894,73.626 43.738,72.716 43.738,71.286 C43.738,69.856 43.868,68.894 44.128,68.14 C44.83,65.982 46.65,64.786 49.016,64.786 C51.408,64.786 53.202,66.008 53.904,68.14 C54.164,68.946 54.294,69.804 54.294,71.702 C54.294,71.858 54.19,71.962 54.008,71.962 L46.13,71.962 C46.026,71.962 45.974,72.014 45.974,72.118 C45.974,72.794 46.052,73.21 46.182,73.626 C46.676,75.056 47.794,75.784 49.328,75.784 C50.81,75.784 51.85,75.186 52.526,74.406 C52.656,74.276 52.786,74.25 52.916,74.354 L53.982,75.316 C54.112,75.42 54.112,75.55 54.008,75.68 C53.02,76.928 51.33,77.812 49.146,77.812 Z M46.13,70.22 L51.902,70.22 C52.006,70.22 52.058,70.168 52.058,70.064 C52.058,69.492 52.006,69.05 51.876,68.66 C51.46,67.412 50.42,66.71 49.016,66.71 C47.612,66.71 46.572,67.412 46.156,68.66 C46.026,69.05 45.974,69.492 45.974,70.064 C45.974,70.168 46.026,70.22 46.13,70.22 Z M67.554,77.526 L65.89,77.526 C65.734,77.526 65.63,77.422 65.63,77.266 L65.63,69.986 C65.63,67.984 64.72,66.814 62.848,66.814 C61.158,66.814 59.988,68.01 59.988,69.856 L59.988,77.266 C59.988,77.422 59.884,77.526 59.728,77.526 L58.064,77.526 C57.908,77.526 57.804,77.422 57.804,77.266 L57.804,65.332 C57.804,65.176 57.908,65.072 58.064,65.072 L59.728,65.072 C59.884,65.072 59.988,65.176 59.988,65.332 L59.988,66.476 L60.014,66.476 C60.612,65.514 61.808,64.786 63.498,64.786 C66.202,64.786 67.814,66.632 67.814,69.466 L67.814,77.266 C67.814,77.422 67.71,77.526 67.554,77.526 Z M80.112,77.526 L78.448,77.526 C78.292,77.526 78.188,77.422 78.188,77.266 L78.188,65.332 C78.188,65.176 78.292,65.072 78.448,65.072 L80.112,65.072 C80.268,65.072 80.372,65.176 80.372,65.332 L80.372,66.606 L80.398,66.606 C80.944,65.54 82.036,64.786 83.7,64.786 C84.688,64.786 85.624,65.15 86.248,65.722 C86.378,65.852 86.404,65.956 86.3,66.086 L85.338,67.36 C85.234,67.49 85.104,67.516 84.974,67.412 C84.402,67.048 83.778,66.814 83.05,66.814 C81.152,66.814 80.372,68.296 80.372,70.454 L80.372,77.266 C80.372,77.422 80.268,77.526 80.112,77.526 Z M93.034,77.812 C90.512,77.812 88.718,76.59 88.042,74.432 C87.782,73.626 87.626,72.716 87.626,71.286 C87.626,69.856 87.756,68.894 88.016,68.14 C88.718,65.982 90.538,64.786 92.904,64.786 C95.296,64.786 97.09,66.008 97.792,68.14 C98.052,68.946 98.182,69.804 98.182,71.702 C98.182,71.858 98.078,71.962 97.896,71.962 L90.018,71.962 C89.914,71.962 89.862,72.014 89.862,72.118 C89.862,72.794 89.94,73.21 90.07,73.626 C90.564,75.056 91.682,75.784 93.216,75.784 C94.698,75.784 95.738,75.186 96.414,74.406 C96.544,74.276 96.674,74.25 96.804,74.354 L97.87,75.316 C98,75.42 98,75.55 97.896,75.68 C96.908,76.928 95.218,77.812 93.034,77.812 Z M90.018,70.22 L95.79,70.22 C95.894,70.22 95.946,70.168 95.946,70.064 C95.946,69.492 95.894,69.05 95.764,68.66 C95.348,67.412 94.308,66.71 92.904,66.71 C91.5,66.71 90.46,67.412 90.044,68.66 C89.914,69.05 89.862,69.492 89.862,70.064 C89.862,70.168 89.914,70.22 90.018,70.22 Z M106.268,77.656 L105.306,77.656 C102.888,77.656 101.952,76.564 101.952,74.12 L101.952,66.996 C101.952,66.892 101.9,66.84 101.796,66.84 L100.756,66.84 C100.6,66.84 100.496,66.736 100.496,66.58 L100.496,65.332 C100.496,65.176 100.6,65.072 100.756,65.072 L101.796,65.072 C101.9,65.072 101.952,65.02 101.952,64.916 L101.952,61.406 C101.952,61.25 102.056,61.146 102.212,61.146 L103.876,61.146 C104.032,61.146 104.136,61.25 104.136,61.406 L104.136,64.916 C104.136,65.02 104.188,65.072 104.292,65.072 L106.268,65.072 C106.424,65.072 106.528,65.176 106.528,65.332 L106.528,66.58 C106.528,66.736 106.424,66.84 106.268,66.84 L104.292,66.84 C104.188,66.84 104.136,66.892 104.136,66.996 L104.136,74.042 C104.136,75.29 104.604,75.628 105.722,75.628 L106.268,75.628 C106.424,75.628 106.528,75.732 106.528,75.888 L106.528,77.396 C106.528,77.552 106.424,77.656 106.268,77.656 Z M119.398,77.526 L117.734,77.526 C117.578,77.526 117.474,77.422 117.474,77.266 L117.474,76.096 L117.448,76.096 C116.798,77.136 115.654,77.812 114.042,77.812 C111.312,77.812 109.726,75.94 109.726,73.106 L109.726,65.332 C109.726,65.176 109.83,65.072 109.986,65.072 L111.65,65.072 C111.806,65.072 111.91,65.176 111.91,65.332 L111.91,72.586 C111.91,74.614 112.82,75.784 114.666,75.784 C116.356,75.784 117.474,74.588 117.474,72.716 L117.474,65.332 C117.474,65.176 117.578,65.072 117.734,65.072 L119.398,65.072 C119.554,65.072 119.658,65.176 119.658,65.332 L119.658,77.266 C119.658,77.422 119.554,77.526 119.398,77.526 Z M125.846,77.526 L124.182,77.526 C124.026,77.526 123.922,77.422 123.922,77.266 L123.922,65.332 C123.922,65.176 124.026,65.072 124.182,65.072 L125.846,65.072 C126.002,65.072 126.106,65.176 126.106,65.332 L126.106,66.606 L126.132,66.606 C126.678,65.54 127.77,64.786 129.434,64.786 C130.422,64.786 131.358,65.15 131.982,65.722 C132.112,65.852 132.138,65.956 132.034,66.086 L131.072,67.36 C130.968,67.49 130.838,67.516 130.708,67.412 C130.136,67.048 129.512,66.814 128.784,66.814 C126.886,66.814 126.106,68.296 126.106,70.454 L126.106,77.266 C126.106,77.422 126.002,77.526 125.846,77.526 Z M144.332,77.526 L142.668,77.526 C142.512,77.526 142.408,77.422 142.408,77.266 L142.408,69.986 C142.408,67.984 141.498,66.814 139.626,66.814 C137.936,66.814 136.766,68.01 136.766,69.856 L136.766,77.266 C136.766,77.422 136.662,77.526 136.506,77.526 L134.842,77.526 C134.686,77.526 134.582,77.422 134.582,77.266 L134.582,65.332 C134.582,65.176 134.686,65.072 134.842,65.072 L136.506,65.072 C136.662,65.072 136.766,65.176 136.766,65.332 L136.766,66.476 L136.792,66.476 C137.39,65.514 138.586,64.786 140.276,64.786 C142.98,64.786 144.592,66.632 144.592,69.466 L144.592,77.266 C144.592,77.422 144.488,77.526 144.332,77.526 Z M148.414,77.266 L148.414,75.03 C148.414,74.874 148.518,74.77 148.674,74.77 L150.65,74.77 C150.806,74.77 150.91,74.874 150.91,75.03 L150.91,77.266 C150.91,77.422 150.806,77.526 150.65,77.526 L148.674,77.526 C148.518,77.526 148.414,77.422 148.414,77.266 Z" id="OTA-Text-Outlines" fill="#666666" fill-rule="nonzero"></path>
            </g>
        </g>
    </g>
</svg>