<?xml version="1.0" encoding="utf-8"?>
<svg id="iPhone" version="1.1" xmlns="http://www.w3.org/2000/svg" xmlns:xlink="http://www.w3.org/1999/xlink" height="760" width="371">
  <defs>
    <rect id="rect-0" opacity="1" x="0" y="0" width="371" height="760"/>
    <path id="path-1" opacity="1" fill-rule="evenodd" d="M2.47332763671875,42 C2.47332763671875,18.819564819335938 21.292892456054688,0 44.47332763671875,0 L329,0 C352.180419921875,0 371,18.819564819335938 371,42 L371,718 C371,741.180419921875 352.180419921875,760 329,760 L44.47332763671875,760 C21.292892456054688,760 2.47332763671875,741.180419921875 2.47332763671875,718 L2.47332763671875,287.8887634277344 C1.0683441162109375,287.6395263671875 0,286.4110412597656 0,284.9349365234375 L0,234.08941650390625 C0,232.61334228515625 1.0683441162109375,231.38482666015625 2.47332763671875,231.13558959960938 L2.47332763671875,217.44976806640625 C1.0683441162109375,217.20053100585938 0,215.97201538085938 0,214.49594116210938 L0,163.65040588378906 C0,162.17433166503906 1.0683441162109375,160.94580078125 2.47332763671875,160.69656372070312 L2.47332763671875,128.4741668701172 C1.0683441162109375,128.2249298095703 0,126.99639892578125 0,125.52032470703125 L0,99.39024353027344 C0,97.91416931152344 1.0683441162109375,96.68563842773438 2.47332763671875,96.4364013671875 L2.47332763671875,42Z"/>
    <filter id="filter-2" filterUnits="userSpaceOnUse" x="-50%" y="-50%" width="200%" height="200%">
      <feOffset in="SourceAlpha" result="shadow-1-feOffset-shadow" dx="0" dy="2"/>
      <feGaussianBlur in="shadow-1-feOffset-shadow" result="shadow-1-feGaussianBlur-shadow" stdDeviation="2"/>
      <feColorMatrix in="shadow-1-feGaussianBlur-shadow" result="shadow-1-feColorMatrix-shadow" type="matrix" values="0 0 0 0 0  0 0 0 0 0  0 0 0 0 0  0 0 0 0.5 0"/>
    </filter>
    <radialGradient id="radialGradient-3" cx="0.5" cy="0.5" r="1.3925545102836572">
      <stop offset="1" stop-color="rgb(237,237,237)" stop-opacity="1"/>
      <stop offset="0" stop-color="rgb(255,255,255)" stop-opacity="1"/>
    </radialGradient>
    <path id="path-4" opacity="1" fill-rule="evenodd" d="M56.84000000000006,12.357723577235674 L316.6333333333332,12.357723577235674 C339.8137643620812,12.357723577235674 358.6333333333332,31.177292548487674 358.6333333333332,54.357723577235674 L358.6333333333332,705.6422764227644 C358.6333333333332,728.8227074515124 339.8137643620812,747.6422764227644 316.6333333333332,747.6422764227644 L56.84000000000006,747.6422764227644 C33.659568971252064,747.6422764227644 14.840000000000067,728.8227074515124 14.84000000000006,705.6422764227644 L14.84000000000006,54.357723577235674 C14.84000000000006,31.177292548487678 33.65956897125206,12.357723577235681 56.84000000000006,12.357723577235674Z"/>
    <path id="path-5" opacity="1" fill-rule="evenodd" d="M215.17999267578125,708.0975952148438 C215.17999267578125,692.41064453125 202.43496704101562,679.6748046875 186.73666381835938,679.6748046875 C171.03836059570312,679.6748046875 158.2933349609375,692.41064453125 158.2933349609375,708.0975952148438 C158.2933349609375,723.7845458984375 171.03836059570312,736.5203247070312 186.73666381835938,736.5203247070312 C202.43496704101562,736.5203247070312 215.17999267578125,723.7845458984375 215.17999267578125,708.0975952148438 L215.17999267578125,708.0975952148438ZM211.47000122070312,708.0975952148438 C211.47000122070312,694.456787109375 200.38735961914062,683.3821411132812 186.73666381835938,683.3821411132812 C173.08596801757812,683.3821411132812 162.00332641601562,694.456787109375 162.00332641601562,708.0975952148438 C162.00332641601562,721.7384033203125 173.08596801757812,732.8130493164062 186.73666381835938,732.8130493164062 C200.38735961914062,732.8130493164062 211.47000122070312,721.7384033203125 211.47000122070312,708.0975952148438 L211.47000122070312,708.0975952148438Z"/>
    <radialGradient id="radialGradient-6" cx="0.5" cy="0.5" r="1.7877628500628961">
      <stop offset="1" stop-color="rgb(0,0,0)" stop-opacity="1"/>
      <stop offset="0" stop-color="rgb(255,255,255)" stop-opacity="1"/>
    </radialGradient>
    <rect id="rect-7" opacity="1" x="23.496666666666613" y="91.44715447154499" width="326.4800000000001" height="575.8699186991864" rx="0" ry="0"/>
    <mask id="mask-8" maskUnits="userSpaceOnUse" maskContentUnits="userSpaceOnUse">
      <rect opacity="1" x="0" y="0" width="371" height="760" fill="black"/>
      <use xlink:href="#rect-7" fill="white"/>
    </mask>
    <rect id="rect-9" opacity="1" x="24.733333333333064" y="92.68292682926858" width="324.0066666666669" height="573.3983739837395" rx="0" ry="0"/>
    <mask id="mask-10" maskUnits="userSpaceOnUse" maskContentUnits="userSpaceOnUse">
      <rect opacity="1" x="0" y="0" width="371" height="760" fill="black"/>
      <use xlink:href="#rect-9" fill="white"/>
    </mask>
    <ellipse id="ellipse-11" opacity="1" rx="3.710000000000008" ry="3.7073170731707314" cx="185.50000000000065" cy="25.95121951219524"/>
    <ellipse id="ellipse-12" opacity="1" rx="5.564999999999998" ry="5.560975609756099" cx="127.99499999999972" cy="48.8130081300813"/>
    <radialGradient id="radialGradient-13" cx="0.5" cy="0.5" r="0.9370335667070708">
      <stop offset="1" stop-color="rgb(16,37,77)" stop-opacity="1"/>
      <stop offset="0" stop-color="rgb(29,77,146)" stop-opacity="1"/>
    </radialGradient>
    <path id="path-14" opacity="1" fill-rule="evenodd" d="M158.82000000000016,46.95934959349597 L213.41666666666686,46.95934959349597 C215.07241174014885,46.95934959349597 216.41666666666686,48.30360452001397 216.41666666666686,49.95934959349597 L216.41666666666686,50.13821138211385 C216.41666666666686,51.793956455595854 215.07241174014885,53.13821138211385 213.41666666666686,53.13821138211385 L158.82000000000016,53.13821138211385 C157.16425492651817,53.13821138211385 155.82000000000016,51.793956455595854 155.82000000000016,50.13821138211385 L155.82000000000016,49.95934959349597 C155.82000000000016,48.30360452001397 157.16425492651817,46.95934959349597 158.82000000000016,46.95934959349597Z"/>
    <mask id="mask-15" maskUnits="userSpaceOnUse" maskContentUnits="userSpaceOnUse">
      <rect opacity="1" x="0" y="0" width="371" height="760" fill="black"/>
      <use xlink:href="#path-14" fill="white"/>
    </mask>
    <rect id="rect-16" opacity="1" x="25.96999999999963" y="93.91869918699206" width="321.53333333333376" height="72.91056910569107" rx="0" ry="0"/>
    <path id="path-17" opacity="1" fill-rule="evenodd" d="M25.96999999999963,168.06504065040656 L347.5033333333334,168.06504065040656 "/>
    <ellipse id="ellipse-18" opacity="1" rx="9.275000000000034" ry="9.268292682926834" cx="324.62500000000017" cy="130.37398373983743"/>
    <path id="path-19" opacity="1" fill-rule="evenodd" d="M48.22999999999999,123.57723577235765 L39.57333333333332,130.99186991869973 L48.22999999999999,138.40650406504085 "/>
    <ellipse id="ellipse-20" opacity="1" rx="17.931666666666672" ry="17.91869918699186" cx="186.11833333333294" cy="129.13821138211372"/>
    <mask id="mask-21" maskUnits="userSpaceOnUse" maskContentUnits="userSpaceOnUse">
      <rect opacity="1" x="0" y="0" width="371" height="760" fill="Black"/>
      <use xlink:href="#ellipse-20" fill="White"/>
    </mask>
    <path id="path-22" opacity="1" fill-rule="evenodd" d="M178.0800000000006,142.11382113821145 C178.0800000000006,142.11382113821145 180.55333333333394,138.40650406503985 180.55333333333394,135.93495934959356 L192.9200000000006,135.93495934959356 C192.9200000000006,135.93495934959356 192.92000000000033,142.11382113821173 194.1566666666673,143.34959349593504 C194.1566666666673,143.34959349593504 192.9200000000002,148.29268292682934 190.44666666666728,148.29268292682934 C187.97333333333438,148.29268292682934 183.02666666666727,148.29268292682934 183.02666666666727,148.29268292682934 C183.02666666666727,148.29268292682934 178.66271312473341,145.02527978522295 178.0800000000006,142.11382113821145Z"/>
    <radialGradient id="radialGradient-23" cx="0.6344517940563562" cy="0.8843565489600224" r="0.6538068995300138">
      <stop offset="1" stop-color="rgb(238,183,148)" stop-opacity="1"/>
      <stop offset="0" stop-color="rgb(255,228,210)" stop-opacity="1"/>
    </radialGradient>
    <ellipse id="ellipse-24" opacity="1" rx="8.656666666666666" ry="12.975609756097569" cx="187.6213672733172" cy="127.23848058762927"/>
    <radialGradient id="radialGradient-25" cx="0.5" cy="0.5475590788091721" r="0.5070188775799092">
      <stop offset="1" stop-color="rgb(251,209,182)" stop-opacity="1"/>
      <stop offset="0" stop-color="rgb(255,228,210)" stop-opacity="1"/>
    </radialGradient>
    <path id="path-26" opacity="1" fill-rule="evenodd" d="M178.9857878115684,126.63332322798301 C178.9857878115684,126.63332322798301 181.17166666666503,119.20596026242714 186.11833333333195,119.20596026242714 C187.39628961148637,119.20596026242714 190.64933064200312,118.93292214622775 191.68333333333214,119.20596026242714 C194.6517106403453,119.98978815269516 194.81769573869832,123.6822164467175 196.25694673506644,127.84190244180621 L197.86666666666702,122.34146341463492 L197.162734546634,117.37007278992516 C197.162734546634,117.37007278992516 193.36234321373985,113.26195414560132 191.68333333333322,112.4552845528472 C189.5318617304168,111.42162373762537 187.50753373917794,112.45528455284648 186.11833333333303,112.45528455284648 C182.4083333333326,112.45528455284648 178.0800000000006,116.08454145276824 178.0800000000006,119.20596026242728 C178.0800000000006,122.32737907208634 178.9857878115684,126.63332322798301 178.9857878115684,126.63332322798301Z"/>
    <path id="path-27" opacity="1" fill-rule="evenodd" d="M170.66000000000025,142.1138211382116 L178.98578781156849,139.64227642276444 C178.98578781156849,139.64227642276444 179.31666666666678,145.82113821138287 184.26333333333358,148.29268292682946 L190.4466666666669,148.29268292682949 C190.4466666666669,148.29268292682949 192.9200000000009,146.87262153750902 194.15666666666692,140.78590426468963 L202.8133333333336,142.1138211382116 L192.92000000000024,149.52845528455305 L175.6066666666669,149.52845528455305 L170.66000000000025,142.1138211382116Z"/>
    <path id="path-28" opacity="1" fill-rule="evenodd" d="M321.5333251953125,106.27642822265625 L321.5333251953125,97.62602233886719 L341.32000732421875,97.62602233886719 L341.32000732421875,100.09756469726562 L342.55670166015625,100.09756469726562 L342.55670166015625,103.80488586425781 L341.32000732421875,103.80488586425781 L341.32000732421875,106.27642822265625 L321.5333251953125,106.27642822265625Z"/>
    <mask id="mask-29" maskUnits="userSpaceOnUse" maskContentUnits="userSpaceOnUse">
      <rect opacity="1" x="0" y="0" width="371" height="760" fill="black"/>
      <use xlink:href="#path-28" fill="white"/>
    </mask>
    <rect id="rect-30" opacity="1" x="322.77" y="98.86178861788585" width="17.313333333333333" height="6.17886178861788" rx="0" ry="0"/>
    <ellipse id="ellipse-31" opacity="1" rx="2.4733333333333327" ry="2.471544715447152" cx="33.39000000000004" cy="102.56910569105682"/>
    <ellipse id="ellipse-32" opacity="1" rx="2.4733333333333327" ry="2.471544715447152" cx="39.573333333333096" cy="102.56910569105682"/>
    <ellipse id="ellipse-33" opacity="1" rx="2.4733333333333363" ry="2.471544715447152" cx="45.756666666667094" cy="102.56910569105682"/>
    <ellipse id="ellipse-34" opacity="1" rx="2.4733333333333327" ry="2.471544715447152" cx="51.93999999999957" cy="102.56910569105682"/>
    <ellipse id="ellipse-35" opacity="1" rx="2.4733333333333327" ry="2.471544715447152" cx="58.123333333333306" cy="102.56910569105682"/>
    <path id="path-36" opacity="1" fill-rule="evenodd" d="M63.070000000000334,101.33333333333299 C63.070000000000334,101.33333333333299 65.54333333333352,97.62601626016226 69.25333333333367,97.62601626016226 C72.96333333333381,97.62601626016226 75.43666666666698,101.33333333333299 75.43666666666698,101.33333333333299 "/>
    <path id="path-37" opacity="1" fill-rule="evenodd" d="M65.54333333333386,103.80487804878042 C65.54333333333386,103.80487804878042 67.02733333333377,101.33333333333326 69.25333333333386,101.33333333333326 C71.47933333333394,101.33333333333326 72.96333333333384,103.80487804878042 72.96333333333384,103.80487804878042 "/>
    <ellipse id="ellipse-38" opacity="1" rx="1.2366666666666646" ry="1.2357723577235689" cx="69.2533333333336" cy="105.040650406504"/>
    <path id="path-39" opacity="1" fill-rule="evenodd" d="M326.6099853515625,182 L121.06332397460938,182 C114.99224853515625,182 110.06332397460938,186.92892456054688 110.06332397460938,193 L110.06332397460938,336.5 C110.06332397460938,337.70416259765625 110.25723266601562,338.8634338378906 110.61550903320312,339.94818115234375 C109.25772094726562,343.8680725097656 106.35333251953125,347.4959411621094 106.35333251953125,347.4959411621094 C109.73513793945312,347.4959411621094 112.34625244140625,346.3407897949219 114.18673706054688,345.0834655761719 C116.07070922851562,346.59521484375 118.46218872070312,347.5 121.06332397460938,347.5 L326.6099853515625,347.5 C332.6810302734375,347.5 337.6099853515625,342.571044921875 337.6099853515625,336.5 L337.6099853515625,193 C337.6099853515625,186.92892456054688 332.6810302734375,182 326.6099853515625,182Z"/>
  </defs>
  <g opacity="1">
    <g opacity="1">
      <g opacity="1">
        <g opacity="1">
          <use xlink:href="#path-1" fill="black" filter="url(#filter-2)" stroke="black" stroke-opacity="0" stroke-width="0"/>
          <use xlink:href="#path-1" fill="url(#radialGradient-3)" fill-opacity="1"/>
        </g>
        <g opacity="1">
          <use xlink:href="#path-4" fill="rgb(255,255,255)" fill-opacity="1"/>
        </g>
      </g>
      <g opacity="1">
        <use xlink:href="#path-5" fill="url(#radialGradient-6)" fill-opacity="1"/>
      </g>
      <g opacity="1">
        <use xlink:href="#rect-7" fill="rgb(255,255,255)" fill-opacity="1"/>
        <use xlink:href="#rect-7" fill-opacity="0" stroke="rgb(84,84,84)" stroke-opacity="1" stroke-width="2" mask="url(#mask-8)"/>
      </g>
      <g opacity="1">
        <use xlink:href="#rect-9" fill="rgb(255,255,255)" fill-opacity="1"/>
        <use xlink:href="#rect-9" fill-opacity="0" stroke="rgb(53,53,53)" stroke-opacity="1" stroke-width="2" mask="url(#mask-10)"/>
      </g>
      <g opacity="1">
        <use xlink:href="#ellipse-11" fill="rgb(53,53,53)" fill-opacity="1"/>
        <use xlink:href="#ellipse-11" fill-opacity="0" stroke="rgb(35,35,35)" stroke-opacity="1" stroke-width="1"/>
      </g>
      <g opacity="1">
        <use xlink:href="#ellipse-12" fill="url(#radialGradient-13)" fill-opacity="1"/>
        <use xlink:href="#ellipse-12" fill-opacity="0" stroke="rgb(35,35,35)" stroke-opacity="1" stroke-width="1"/>
      </g>
      <g opacity="1">
        <use xlink:href="#path-14" fill="rgb(53,53,53)" fill-opacity="1"/>
        <use xlink:href="#path-14" fill-opacity="0" stroke="rgb(35,35,35)" stroke-opacity="1" stroke-width="2" mask="url(#mask-15)"/>
      </g>
    </g>
    <g opacity="1">
      <g opacity="1">
        <use xlink:href="#rect-16" fill="rgb(245,250,251)" fill-opacity="1"/>
      </g>
      <g opacity="1">
        <use xlink:href="#path-17" fill-opacity="0" stroke="rgb(232,232,232)" stroke-opacity="1" stroke-width="1" stroke-linecap="square" stroke-linejoin="miter"/>
      </g>
      <g opacity="1">
        <g opacity="1">
          <use xlink:href="#ellipse-18" fill-opacity="0" stroke="rgb(41,131,255)" stroke-opacity="1" stroke-width="1"/>
        </g>
      </g>
      <g opacity="1">
        <use xlink:href="#path-19" fill-opacity="0" stroke="rgb(44,129,255)" stroke-opacity="1" stroke-width="2" stroke-linecap="round" stroke-linejoin="miter"/>
      </g>
      <g opacity="1">
        <g opacity="1">
          <use xlink:href="#ellipse-20" fill="rgb(216,216,216)" fill-opacity="1"/>
        </g>
        <g mask="url(#mask-21)">
          <g opacity="1">
            <g opacity="1">
              <use xlink:href="#path-22" fill="url(#radialGradient-23)" fill-opacity="1"/>
            </g>
            <g transform="translate(187.6213672733172, 127.23848058762927) rotate(4.000001430256669) translate(-187.6213672733172, -127.23848058762927)" opacity="1">
              <use xlink:href="#ellipse-24" fill="url(#radialGradient-25)" fill-opacity="1"/>
            </g>
            <g opacity="1">
              <use xlink:href="#path-26" fill="rgb(66,27,8)" fill-opacity="1"/>
            </g>
            <g opacity="1">
              <use xlink:href="#path-27" fill="rgb(0,91,130)" fill-opacity="1"/>
            </g>
          </g>
        </g>
      </g>
    </g>
    <g opacity="1">
      <g opacity="1">
        <g opacity="1">
          <use xlink:href="#path-28" fill="rgb(141,143,142)" fill-opacity="1"/>
          <use xlink:href="#path-28" fill-opacity="0" stroke="rgb(141,143,142)" stroke-opacity="1" stroke-width="2" mask="url(#mask-29)"/>
        </g>
        <g opacity="1">
          <use xlink:href="#rect-30" fill="rgb(0,0,0)" fill-opacity="1"/>
        </g>
      </g>
      <g opacity="1">
        <g opacity="1">
          <use xlink:href="#ellipse-31" fill="rgb(0,0,0)" fill-opacity="1"/>
        </g>
        <g opacity="1">
          <use xlink:href="#ellipse-32" fill="rgb(0,0,0)" fill-opacity="1"/>
        </g>
        <g opacity="1">
          <use xlink:href="#ellipse-33" fill="rgb(0,0,0)" fill-opacity="1"/>
        </g>
        <g opacity="1">
          <use xlink:href="#ellipse-34" fill="rgb(0,0,0)" fill-opacity="1"/>
        </g>
        <g opacity="1">
          <use xlink:href="#ellipse-35" fill="rgb(0,0,0)" fill-opacity="1"/>
        </g>
      </g>
      <g opacity="1">
        <g opacity="1">
          <use xlink:href="#path-36" fill-opacity="0" stroke="rgb(0,0,0)" stroke-opacity="1" stroke-width="1"/>
        </g>
        <g opacity="1">
          <use xlink:href="#path-37" fill-opacity="0" stroke="rgb(0,0,0)" stroke-opacity="1" stroke-width="1"/>
        </g>
        <g opacity="1">
          <use xlink:href="#ellipse-38" fill="rgb(0,0,0)" fill-opacity="1"/>
        </g>
      </g>
    </g>
    <g opacity="1">
      <g transform="translate(221.98165893554688, 264.75) scale(-1, 1) translate(-221.98165893554688, -264.75)" opacity="1">
        <use xlink:href="#path-39" fill="rgb(10,138,255)" fill-opacity="1"/>
      </g>      
      <g opacity="1">
        <g opacity="1">
          <rect xmlns="http://www.w3.org/2000/svg" class="phone-mock-text" fill="#FFFFFF" x="120" y="195" width="92" height="7" rx="4"/>
        </g>
        <g opacity="1">
          <rect xmlns="http://www.w3.org/2000/svg" class="phone-mock-text" fill="#FFFFFF" x="120" y="213" width="118" height="7" rx="4"/>
        </g>
        <g opacity="1">
          <rect xmlns="http://www.w3.org/2000/svg" class="phone-mock-text" fill="#FFFFFF" x="120" y="232" width="200" height="7" rx="4"/>
        </g>
        <g opacity="1">
          <rect xmlns="http://www.w3.org/2000/svg" class="phone-mock-text" fill="#FFFFFF" x="120" y="250" width="46" height="7" rx="4"/>
        </g>
        <g opacity="1">
          <rect xmlns="http://www.w3.org/2000/svg" class="phone-mock-text" fill="#FFFFFF" x="120" y="268" width="200" height="7" rx="4"/>
        </g>
        <g opacity="1">
          <rect xmlns="http://www.w3.org/2000/svg" class="phone-mock-text" fill="#FFFFFF" x="120" y="286" width="73" height="7" rx="4"/>
        </g>
        <g opacity="1">
          <rect xmlns="http://www.w3.org/2000/svg" class="phone-mock-text" fill="#FFFFFF" x="120" y="304" width="200" height="7" rx="4"/>
        </g>
        <g opacity="1">
          <rect xmlns="http://www.w3.org/2000/svg" class="phone-mock-text" fill="#FFFFFF" x="120" y="322" width="130" height="7" rx="4"/>
        </g>
      </g>
    </g>
  </g>
</svg>