<?xml version="1.0" encoding="UTF-8"?>
<svg id="slack" width="629px" height="386px" viewBox="0 0 629 386" version="1.1" xmlns="http://www.w3.org/2000/svg" xmlns:xlink="http://www.w3.org/1999/xlink">
    <!-- Generator: Sketch 53.2 (72643) - https://sketchapp.com -->
    <title>Slack</title>
    <desc>Created with Sketch.</desc>
    <defs>
        <filter x="-8.6%" y="-14.8%" width="117.2%" height="129.6%" filterUnits="objectBoundingBox" id="filter-1">
            <feOffset dx="0" dy="2" in="SourceAlpha" result="shadowOffsetOuter1"></feOffset>
            <feGaussianBlur stdDeviation="12" in="shadowOffsetOuter1" result="shadowBlurOuter1"></feGaussianBlur>
            <feColorMatrix values="0 0 0 0 0   0 0 0 0 0   0 0 0 0 0  0 0 0 0.248442963 0" type="matrix" in="shadowBlurOuter1" result="shadowMatrixOuter1"></feColorMatrix>
            <feMerge>
                <feMergeNode in="shadowMatrixOuter1"></feMergeNode>
                <feMergeNode in="SourceGraphic"></feMergeNode>
            </feMerge>
        </filter>
        <linearGradient x1="0%" y1="0%" x2="101.999998%" y2="100.999999%" id="linearGradient-2">
            <stop stop-color="#3023AE" offset="0%"></stop>
            <stop stop-color="#C86DD7" offset="100%"></stop>
        </linearGradient>
        <linearGradient x1="50%" y1="0%" x2="50%" y2="100%" id="linearGradient-3">
            <stop stop-color="#F5515F" offset="0%"></stop>
            <stop stop-color="#9F041B" offset="100%"></stop>
        </linearGradient>
    </defs>
    <g id="Website-Animations" stroke="none" stroke-width="1" fill="none" fill-rule="evenodd">
        <g id="Artboard" transform="translate(-95.000000, -216.000000)">
            <g id="Slack" filter="url(#filter-1)" transform="translate(119.000000, 238.000000)">
                <rect id="White-Background" fill="#FFFFFF" x="119" y="0" width="462" height="338"></rect>
                <g id="Search-Bar" transform="translate(449.000000, 9.000000)">
                    <rect id="Search-Field" stroke="#979797" fill="#FFFFFF" x="0.5" y="0.5" width="86" height="14" rx="5"></rect>
                    <g id="Icon" transform="translate(4.089104, 4.157071)" stroke="#616061" stroke-linecap="round" stroke-width="2">
                        <ellipse id="Oval" transform="translate(3.272760, 3.271520) rotate(-45.000000) translate(-3.272760, -3.271520) " cx="3.2727596" cy="3.27152015" rx="2.2727596" ry="2.27152015"></ellipse>
                        <path d="M5.75507997,4.72133136 L5.75507997,6.83374023" id="Line-7" transform="translate(5.755080, 5.753841) rotate(-45.000000) translate(-5.755080, -5.753841) "></path>
                    </g>
                </g>
                <rect id="Mid-Purple-Sidebar" fill="#400E40" x="28" y="0" width="91" height="338"></rect>
                <rect id="Dark-Purple-Sidebar" fill="#200620" x="0" y="0" width="28" height="338"></rect>
                <g id="Channel-Header" transform="translate(126.000000, 4.054795)">
                    <path d="M9.46214606,10.40625 L9.09495856,12.21875 L11.1105836,12.21875 L11.1105836,13.828125 L8.79027106,13.828125 L8.18870856,17 L6.46995856,17 L7.07933356,13.828125 L5.56370856,13.828125 L4.96995856,17 L3.29027106,17 L3.86839606,13.828125 L2.00902106,13.828125 L2.00902106,12.21875 L4.17308356,12.21875 L4.54027106,10.40625 L2.57152106,10.40625 L2.57152106,8.7734375 L4.82933356,8.7734375 L5.43089606,5.59375 L7.14183356,5.59375 L6.54027106,8.7734375 L8.08714606,8.7734375 L8.69652106,5.59375 L10.3762086,5.59375 L9.76683356,8.7734375 L11.6418336,8.7734375 L11.6418336,10.40625 L9.46214606,10.40625 Z M5.86839606,12.21875 L7.39964606,12.21875 L7.76683356,10.40625 L6.23558356,10.40625 L5.86839606,12.21875 Z M22.7902711,17 L20.3762086,17 L20.3762086,12.0703125 L15.8527711,12.0703125 L15.8527711,17 L13.4308961,17 L13.4308961,5.578125 L15.8527711,5.578125 L15.8527711,10.0546875 L20.3762086,10.0546875 L20.3762086,5.578125 L22.7902711,5.578125 L22.7902711,17 Z M29.1027711,9.796875 C28.5975602,9.796875 28.2017308,9.95702965 27.9152711,10.2773438 C27.6288113,10.5976579 27.4647504,11.0520804 27.4230836,11.640625 L30.7668336,11.640625 C30.7564168,11.0520804 30.6027725,10.5976579 30.3058961,10.2773438 C30.0090196,9.95702965 29.6079819,9.796875 29.1027711,9.796875 Z M29.4387086,17.15625 C28.0324515,17.15625 26.9335042,16.768233 26.1418336,15.9921875 C25.3501629,15.216142 24.9543336,14.1171946 24.9543336,12.6953125 C24.9543336,11.2317635 25.3202153,10.1002644 26.0519898,9.30078125 C26.7837643,8.50129809 27.7954729,8.1015625 29.0871461,8.1015625 C30.3215272,8.1015625 31.2824551,8.45312148 31.9699586,9.15625 C32.657462,9.85937852 33.0012086,10.830723 33.0012086,12.0703125 L33.0012086,13.2265625 L27.3683961,13.2265625 C27.3944379,13.9036492 27.5949567,14.4322898 27.9699586,14.8125 C28.3449604,15.1927102 28.8709968,15.3828125 29.5480836,15.3828125 C30.0741279,15.3828125 30.5715187,15.3281255 31.0402711,15.21875 C31.5090234,15.1093745 31.9986018,14.934897 32.5090211,14.6953125 L32.5090211,16.5390625 C32.0923523,16.7473969 31.6470443,16.9023432 31.1730836,17.0039062 C30.6991229,17.1054693 30.1210036,17.15625 29.4387086,17.15625 Z M37.3215211,17 L34.9387086,17 L34.9387086,4.84375 L37.3215211,4.84375 L37.3215211,17 Z M42.2043336,17 L39.8215211,17 L39.8215211,4.84375 L42.2043336,4.84375 L42.2043336,17 Z M46.6027711,12.6171875 C46.6027711,13.4817752 46.7446967,14.1354145 47.0285523,14.578125 C47.3124079,15.0208355 47.7746429,15.2421875 48.4152711,15.2421875 C49.0506909,15.2421875 49.5077176,15.0221376 49.7863648,14.5820312 C50.065012,14.1419249 50.2043336,13.4869835 50.2043336,12.6171875 C50.2043336,11.7525998 50.06371,11.1041688 49.7824586,10.671875 C49.5012072,10.2395812 49.0402743,10.0234375 48.3996461,10.0234375 C47.7642262,10.0234375 47.3058975,10.2382791 47.0246461,10.6679688 C46.7433947,11.0976584 46.6027711,11.7473915 46.6027711,12.6171875 Z M52.6418336,12.6171875 C52.6418336,14.0390696 52.2668373,15.1510377 51.5168336,15.953125 C50.7668298,16.7552123 49.7225694,17.15625 48.3840211,17.15625 C47.5454752,17.15625 46.8058993,16.9726581 46.1652711,16.6054688 C45.5246429,16.2382794 45.0324603,15.7109409 44.6887086,15.0234375 C44.3449568,14.3359341 44.1730836,13.5338588 44.1730836,12.6171875 C44.1730836,11.190097 44.5454757,10.0807331 45.2902711,9.2890625 C46.0350665,8.49739187 47.081931,8.1015625 48.4308961,8.1015625 C49.2694419,8.1015625 50.0090179,8.28385234 50.6496461,8.6484375 C51.2902743,9.01302266 51.7824568,9.53645492 52.1262086,10.21875 C52.4699603,10.9010451 52.6418336,11.7005162 52.6418336,12.6171875 Z M59.1340211,10.5859375 L63.6652711,10.5859375 L63.6652711,16.5078125 C62.9308924,16.747397 62.2394931,16.9153641 61.5910523,17.0117188 C60.9426116,17.1080734 60.2798578,17.15625 59.6027711,17.15625 C57.8788041,17.15625 56.562411,16.6497446 55.6535523,15.6367188 C54.7446936,14.6236929 54.2902711,13.1692803 54.2902711,11.2734375 C54.2902711,9.42967828 54.8176095,7.99219266 55.8723023,6.9609375 C56.9269951,5.92968234 58.38922,5.4140625 60.2590211,5.4140625 C61.4309019,5.4140625 62.561099,5.64843516 63.6496461,6.1171875 L62.8449586,8.0546875 C62.0116211,7.63801875 61.1444422,7.4296875 60.2433961,7.4296875 C59.1965158,7.4296875 58.3579825,7.78124648 57.7277711,8.484375 C57.0975596,9.18750352 56.7824586,10.1328066 56.7824586,11.3203125 C56.7824586,12.559902 57.0363623,13.5065071 57.5441773,14.1601562 C58.0519924,14.8138054 58.7902662,15.140625 59.7590211,15.140625 C60.2642319,15.140625 60.7772476,15.0885422 61.2980836,14.984375 L61.2980836,12.6015625 L59.1340211,12.6015625 L59.1340211,10.5859375 Z M71.0558961,8.1015625 C72.0871512,8.1015625 72.8944348,8.50390223 73.4777711,9.30859375 C74.0611073,10.1132853 74.3527711,11.2161388 74.3527711,12.6171875 C74.3527711,14.059903 74.0519928,15.1770794 73.4504273,15.96875 C72.8488618,16.7604206 72.0298596,17.15625 70.9933961,17.15625 C69.9673493,17.15625 69.1626698,16.7838579 68.5793336,16.0390625 L68.4152711,16.0390625 L68.0168336,17 L66.1965211,17 L66.1965211,4.84375 L68.5793336,4.84375 L68.5793336,7.671875 C68.5793336,8.0312518 68.5480839,8.60676687 68.4855836,9.3984375 L68.5793336,9.3984375 C69.136628,8.53384984 69.9621406,8.1015625 71.0558961,8.1015625 Z M70.2902711,10.0078125 C69.7017265,10.0078125 69.2720433,10.1888003 69.0012086,10.5507812 C68.7303739,10.9127622 68.5897503,11.5104125 68.5793336,12.34375 L68.5793336,12.6015625 C68.5793336,13.5390672 68.7186551,14.2109355 68.9973023,14.6171875 C69.2759495,15.0234395 69.7173514,15.2265625 70.3215211,15.2265625 C70.8111068,15.2265625 71.2004259,15.0013043 71.4894898,14.5507812 C71.7785538,14.1002582 71.9230836,13.4453168 71.9230836,12.5859375 C71.9230836,11.7265582 71.7772517,11.0820334 71.4855836,10.6523438 C71.1939154,10.2226541 70.7954819,10.0078125 70.2902711,10.0078125 Z M74.7512086,8.265625 L77.3605836,8.265625 L79.0090211,13.1796875 C79.1496468,13.606773 79.246,14.1119763 79.2980836,14.6953125 L79.3449586,14.6953125 C79.4022505,14.1588515 79.5142286,13.6536482 79.6808961,13.1796875 L81.2980836,8.265625 L83.8527711,8.265625 L80.1574586,18.1171875 C79.8189152,19.0286504 79.3358471,19.7109352 78.7082398,20.1640625 C78.0806325,20.6171898 77.3475669,20.84375 76.5090211,20.84375 C76.0975607,20.84375 75.6939189,20.7994796 75.2980836,20.7109375 L75.2980836,18.8203125 C75.5845433,18.8880212 75.8970402,18.921875 76.2355836,18.921875 C76.6574607,18.921875 77.0259466,18.79297 77.3410523,18.5351562 C77.6561581,18.2773425 77.9022493,17.8880234 78.0793336,17.3671875 L78.2199586,16.9375 L74.7512086,8.265625 Z M88.7199586,9.796875 C88.2147477,9.796875 87.8189183,9.95702965 87.5324586,10.2773438 C87.2459988,10.5976579 87.0819379,11.0520804 87.0402711,11.640625 L90.3840211,11.640625 C90.3736043,11.0520804 90.21996,10.5976579 89.9230836,10.2773438 C89.6262071,9.95702965 89.2251694,9.796875 88.7199586,9.796875 Z M89.0558961,17.15625 C87.649639,17.15625 86.5506917,16.768233 85.7590211,15.9921875 C84.9673504,15.216142 84.5715211,14.1171946 84.5715211,12.6953125 C84.5715211,11.2317635 84.9374028,10.1002644 85.6691773,9.30078125 C86.4009518,8.50129809 87.4126604,8.1015625 88.7043336,8.1015625 C89.9387147,8.1015625 90.8996426,8.45312148 91.5871461,9.15625 C92.2746495,9.85937852 92.6183961,10.830723 92.6183961,12.0703125 L92.6183961,13.2265625 L86.9855836,13.2265625 C87.0116254,13.9036492 87.2121442,14.4322898 87.5871461,14.8125 C87.9621479,15.1927102 88.4881843,15.3828125 89.1652711,15.3828125 C89.6913154,15.3828125 90.1887062,15.3281255 90.6574586,15.21875 C91.1262109,15.1093745 91.6157893,14.934897 92.1262086,14.6953125 L92.1262086,16.5390625 C91.7095398,16.7473969 91.2642318,16.9023432 90.7902711,17.0039062 C90.3163104,17.1054693 89.7381911,17.15625 89.0558961,17.15625 Z" id="#HelloGbye" fill="#000000" fill-rule="nonzero"></path>
                    <path d="M0,24.1952055 L320.800683,24.1952055" id="Line" stroke="#D6D6D6" stroke-linecap="square"></path>
                    <path d="M134.209402,23.9452055 L182.638156,23.9452055" id="Channel-Date" stroke="#000000" stroke-width="5" stroke-linecap="round"></path>
                </g>
                <g xmlns="http://www.w3.org/2000/svg" id="Avatar-1.1" transform="translate(130.000000, 35.793498)">
                    <rect class="slack-mock-text" fill="url(#linearGradient-2)" x="0" y="0.206501832" width="15" height="15"/>
                    <rect xmlns="http://www.w3.org/2000/svg" class="slack-mock-text" fill="#000000" x="18" y="0" width="15" height="5" rx="3"/>
                    <rect xmlns="http://www.w3.org/2000/svg" class="slack-mock-text" fill="#CCCCCC" x="35" y="0" width="20" height="5" rx="3"/>
                    <rect xmlns="http://www.w3.org/2000/svg" class="slack-mock-text" fill="#CCCCCC" x="18" y="10" width="92" height="5" rx="3"/>
                    <rect xmlns="http://www.w3.org/2000/svg" class="slack-mock-text" fill="#CCCCCC" x="18" y="23" width="290" height="5" rx="3"/>
                    <rect xmlns="http://www.w3.org/2000/svg" class="slack-mock-text" fill="#CCCCCC" x="18" y="35" width="290" height="5" rx="3"/>
                    <rect xmlns="http://www.w3.org/2000/svg" class="slack-mock-text" fill="#CCCCCC" x="18" y="47" width="87" height="5" rx="3"/>
                </g>
                <g xmlns="http://www.w3.org/2000/svg" id="Avatar-2" transform="translate(130.000000, 115.000000)">
                    <rect class="slack-mock-text" fill="url(#linearGradient-3)" x="0" y="0" width="15" height="15"/>
                    <rect xmlns="http://www.w3.org/2000/svg" class="slack-mock-text" fill="#000000" x="18" y="0" width="15" height="5" rx="3"/>
                    <rect xmlns="http://www.w3.org/2000/svg" class="slack-mock-text" fill="#CCCCCC" x="35" y="0" width="20" height="5" rx="3"/>
                    <rect xmlns="http://www.w3.org/2000/svg" class="slack-mock-text" fill="#CCCCCC" x="18" y="8" width="92" height="5" rx="3"/>
                    <rect xmlns="http://www.w3.org/2000/svg" class="slack-mock-text" fill="#CCCCCC" x="18" y="22" width="290" height="5" rx="3"/>
                </g>
                <g xmlns="http://www.w3.org/2000/svg" id="Avatar-1.2" transform="translate(130.000000, 169.000000)">
                    <rect class="slack-mock-text" fill="url(#linearGradient-2)" x="0" y="0" width="15" height="15"/>
                    <rect xmlns="http://www.w3.org/2000/svg" class="slack-mock-text" fill="#000000" x="18" y="0" width="15" height="5" rx="3"/>
                    <rect xmlns="http://www.w3.org/2000/svg" class="slack-mock-text" fill="#CCCCCC" x="35" y="0" width="20" height="5" rx="3"/>
                    <rect xmlns="http://www.w3.org/2000/svg" class="slack-mock-text" fill="#CCCCCC" x="18" y="9" width="92" height="5" rx="3"/>
                    <rect xmlns="http://www.w3.org/2000/svg" class="slack-mock-text" fill="#CCCCCC" x="18" y="23" width="290" height="5" rx="3"/>
                    <rect xmlns="http://www.w3.org/2000/svg" class="slack-mock-text" fill="#CCCCCC" x="18" y="35" width="130" height="5" rx="3"/>
                </g>
                <g id="Round-Buttons" transform="translate(4.000000, 3.000000)">
                    <ellipse id="Red" fill="#FF5E57" cx="2.42307692" cy="2.5" rx="2.42307692" ry="2.5"></ellipse>
                    <ellipse id="Gold" fill="#FFBE2F" cx="10.5" cy="2.5" rx="2.42307692" ry="2.5"></ellipse>
                    <ellipse id="Green" fill="#27CA42" cx="18.5769231" cy="2.5" rx="2.42307692" ry="2.5"></ellipse>
                </g>
                <g id="Right-Column" transform="translate(449.000000, 41.000000)">
                    <path d="M8.20616114,0.25 L94.7970197,0.25" id="Text-Line-1" stroke="#000000" stroke-width="5" stroke-linecap="round"></path>
                    <path d="M19.2076271,27 L67.8959839,27" id="Text-Line-2" stroke="#CCCCCC" stroke-width="5" stroke-linecap="round"></path>
                    <path d="M19.2083333,55 L43.635315,55" id="Text-Line-3" stroke="#CCCCCC" stroke-width="5" stroke-linecap="round"></path>
                    <path d="M19.20625,81.25 L51.7953411,81.25" id="Text-Line-4" stroke="#CCCCCC" stroke-width="5" stroke-linecap="round"></path>
                    <path d="M19.20625,108.25 L51.7953411,108.25" id="Text-Line-5" stroke="#CCCCCC" stroke-width="5" stroke-linecap="round"></path>
                    <path d="M28.20625,125.25 L60.7953411,125.25" id="Text-Line-6" stroke="#CCCCCC" stroke-width="5" stroke-linecap="round"></path>
                    <path d="M28.20625,139.25 L60.7953411,139.25" id="Text-Line-7" stroke="#CCCCCC" stroke-width="5" stroke-linecap="round"></path>
                    <path d="M28.20625,153.25 L60.7953411,153.25" id="Text-Line-8" stroke="#CCCCCC" stroke-width="5" stroke-linecap="round"></path>
                    <path d="M28.20625,166.25 L60.7953411,166.25" id="Text-Line-9" stroke="#CCCCCC" stroke-width="5" stroke-linecap="round"></path>
                    <path d="M19.2063492,204.25 L70.7227183,204.25" id="Text-Line-10" stroke="#CCCCCC" stroke-width="5" stroke-linecap="round"></path>
                    <path d="M19.2063107,233 L103.67764,233" id="Text-Line-11" stroke="#CCCCCC" stroke-width="5" stroke-linecap="round"></path>
                    <rect id="Rectangle-1" fill="#616061" x="5" y="23" width="8" height="8"></rect>
                    <rect id="Rectangle-2" fill="#1D9BD1" x="5" y="50" width="8" height="8"></rect>
                    <rect id="Rectangle-3" fill="#E7912D" x="5" y="77" width="8" height="8"></rect>
                    <rect id="Rectangle-4" fill="#017A5A" x="5" y="103" width="8" height="8"></rect>
                    <rect id="Rectangle-5" fill="#4A4A4A" x="14" y="122" width="8" height="8"></rect>
                    <rect id="Rectangle-6" fill="#4A4A4A" x="14" y="136" width="8" height="8"></rect>
                    <rect id="Rectangle-7" fill="#E4E4E4" x="14" y="148" width="8" height="8"></rect>
                    <rect id="Rectangle-8" fill="#E4E4E4" x="14" y="162" width="8" height="8"></rect>
                    <rect id="Rectangle-9" fill="#DE4F2B" x="5" y="200" width="8" height="8"></rect>
                    <rect id="Rectangle-10" fill="#E01E5A" x="5" y="229" width="8" height="8"></rect>
                    <circle id="Oval-1" stroke="#4DA28C" stroke-width="2" fill="#4DA28C" cx="8.5" cy="125.5" r="1.5"></circle>
                    <circle id="Oval-2" stroke="#4DA28C" stroke-width="2" fill="#4DA28C" cx="8.5" cy="139.5" r="1.5"></circle>
                    <circle id="Oval-3" stroke="#979797" stroke-width="2" cx="8.5" cy="152.5" r="1.5"></circle>
                    <circle id="Oval-4" stroke="#979797" stroke-width="2" cx="8.5" cy="165.5" r="1.5"></circle>
                    <path d="M0,15 L129,15" id="Line-1" stroke="#E5E5E5" stroke-linecap="square"></path>
                    <path d="M0,41 L129,41" id="Line-2" stroke="#E5E5E5" stroke-linecap="square"></path>
                    <path d="M0,67 L129,67" id="Line-3" stroke="#E5E5E5" stroke-linecap="square"></path>
                    <path d="M0,94 L129,94" id="Line-4" stroke="#E5E5E5" stroke-linecap="square"></path>
                    <path d="M0,190 L129,190" id="Line-5" stroke="#E5E5E5" stroke-linecap="square"></path>
                    <path d="M0,219 L129,219" id="Line-6" stroke="#E5E5E5" stroke-linecap="square"></path>
                    <polygon id="Triangle-1" fill="#606060" transform="translate(125.500000, 28.000000) rotate(-270.000000) translate(-125.500000, -28.000000) " points="125.5 27 127 29 124 29"></polygon>
                    <polygon id="Triangle-2" fill="#606060" transform="translate(125.500000, 55.000000) rotate(-270.000000) translate(-125.500000, -55.000000) " points="125.5 54 127 56 124 56"></polygon>
                    <polygon id="Triangle-3" fill="#606060" transform="translate(125.500000, 81.000000) rotate(-270.000000) translate(-125.500000, -81.000000) " points="125.5 80 127 82 124 82"></polygon>
                    <polygon id="Triangle-4" fill="#606060" transform="translate(125.500000, 108.000000) rotate(180.000000) translate(-125.500000, -108.000000) " points="125.5 107 127 109 124 109"></polygon>
                    <polygon id="Triangle-5" fill="#606060" transform="translate(125.500000, 208.000000) rotate(-270.000000) translate(-125.500000, -208.000000) " points="125.5 207 127 209 124 209"></polygon>
                    <polygon id="Triangle-6" fill="#606060" transform="translate(125.500000, 234.000000) rotate(-270.000000) translate(-125.500000, -234.000000) " points="125.5 233 127 235 124 235"></polygon>
                </g>
                <g id="New-Message-Box" transform="translate(127.000000, 289.000000)">
                    <rect id="Rectangle" stroke="#565556" stroke-width="2" fill="#FFFFFF" x="1" y="4" width="314" height="33" rx="6"></rect>
                    <path d="M28,4 L28,37" id="Line-3" stroke="#565556" stroke-width="2" stroke-linecap="square"></path>
                    <text id="+" font-family="OpenSans-Bold, Open Sans" font-size="28" font-weight="bold" fill="#565556">
                        <tspan x="6" y="30">+</tspan>
                    </text>
                    <path d="M42.3047284,25.1957259 L38.9141034,16.3363509 L38.8594159,16.3363509 C38.9232183,17.0381773 38.955119,17.8721534 38.955119,18.838304 L38.955119,25.1957259 L37.8818768,25.1957259 L37.8818768,15.2015853 L39.6318768,15.2015853 L42.7969159,23.4457259 L42.8516034,23.4457259 L46.0439862,15.2015853 L47.7803143,15.2015853 L47.7803143,25.1957259 L46.618205,25.1957259 L46.618205,18.7562728 C46.618205,18.0179878 46.6501057,17.2159125 46.7139081,16.3500228 L46.6592206,16.3500228 L43.2412518,25.1957259 L42.3047284,25.1957259 Z M53.5156659,25.3324447 C52.4082385,25.3324447 51.5343866,24.9952085 50.8940839,24.3207259 C50.2537812,23.6462434 49.9336347,22.7097293 49.9336347,21.5111556 C49.9336347,20.3034673 50.230995,19.344167 50.8257245,18.6332259 C51.420454,17.9222849 52.2191114,17.5668197 53.2217206,17.5668197 C54.1605274,17.5668197 54.9033585,17.8755731 55.4502362,18.4930892 C55.997114,19.1106053 56.2705487,19.925213 56.2705487,20.9369369 L56.2705487,21.6547103 L51.1094159,21.6547103 C51.1322025,22.534272 51.3543682,23.2019085 51.7759198,23.65764 C52.1974714,24.1133714 52.7910527,24.3412337 53.5566815,24.3412337 C54.3633262,24.3412337 55.1608443,24.1726156 55.9492597,23.8353744 L55.9492597,24.8470931 C55.548216,25.0202711 55.1688252,25.144456 54.8110761,25.2196517 C54.4533269,25.2948474 54.0215278,25.3324447 53.5156659,25.3324447 Z M53.2080487,18.517015 C52.6064832,18.517015 52.1268331,18.7129766 51.7690839,19.1049056 C51.4113347,19.4968346 51.2005621,20.0391469 51.1367597,20.7318587 L55.0537518,20.7318587 C55.0537518,20.0163604 54.8942482,19.4683515 54.5752362,19.0878158 C54.2562242,18.70728 53.8004996,18.517015 53.2080487,18.517015 Z M63.0381268,23.1517806 C63.0381268,23.8490497 62.7783638,24.3868048 62.25883,24.7650619 C61.7392961,25.143319 61.0101367,25.3324447 60.07133,25.3324447 C59.0778354,25.3324447 58.3031036,25.1752197 57.7471112,24.860765 L57.7471112,23.8080306 C58.1071391,23.9903232 58.4933657,24.1338764 58.9058026,24.2386947 C59.3182396,24.3435129 59.7158593,24.3959212 60.0986737,24.3959212 C60.6911246,24.3959212 61.1468492,24.3013584 61.4658612,24.1122298 C61.7848732,23.9231013 61.9443768,23.6348555 61.9443768,23.2474837 C61.9443768,22.9558156 61.8179133,22.7063064 61.5649823,22.4989486 C61.3120514,22.2915908 60.8187295,22.0466388 60.0850018,21.7640853 C59.3877327,21.5043184 58.8921322,21.2775954 58.5981854,21.0839095 C58.3042387,20.8902236 58.0854908,20.6703365 57.9419354,20.4242415 C57.79838,20.1781466 57.7266034,19.8842042 57.7266034,19.5424056 C57.7266034,18.9317255 57.9749733,18.4497967 58.4717206,18.0966048 C58.9684679,17.743413 59.6497762,17.5668197 60.5156659,17.5668197 C61.3223106,17.5668197 62.1107141,17.7308805 62.8809003,18.0590072 L62.47758,18.9818587 C61.7256231,18.6719613 61.0443148,18.517015 60.4336347,18.517015 C59.8958715,18.517015 59.4902766,18.601324 59.2168378,18.7699447 C58.9433989,18.9385653 58.8066815,19.1709849 58.8066815,19.4672103 C58.8066815,19.6677321 58.8579505,19.8386289 58.9604901,19.9799056 C59.0630297,20.1211824 59.2282299,20.2556211 59.4560956,20.3832259 C59.6839613,20.5108307 60.1214569,20.6953992 60.7685956,20.9369369 C61.6572719,21.2605062 62.2576891,21.5863493 62.5698651,21.9144759 C62.8820412,22.2426026 63.0381268,22.6550333 63.0381268,23.1517806 Z M69.7168378,23.1517806 C69.7168378,23.8490497 69.4570748,24.3868048 68.9375409,24.7650619 C68.4180071,25.143319 67.6888477,25.3324447 66.7500409,25.3324447 C65.7565464,25.3324447 64.9818145,25.1752197 64.4258222,24.860765 L64.4258222,23.8080306 C64.78585,23.9903232 65.1720766,24.1338764 65.5845136,24.2386947 C65.9969505,24.3435129 66.3945702,24.3959212 66.7773847,24.3959212 C67.3698355,24.3959212 67.8255601,24.3013584 68.1445722,24.1122298 C68.4635842,23.9231013 68.6230878,23.6348555 68.6230878,23.2474837 C68.6230878,22.9558156 68.4966242,22.7063064 68.2436932,22.4989486 C67.9907623,22.2915908 67.4974404,22.0466388 66.7637128,21.7640853 C66.0664437,21.5043184 65.5708432,21.2775954 65.2768964,21.0839095 C64.9829496,20.8902236 64.7642018,20.6703365 64.6206464,20.4242415 C64.477091,20.1781466 64.4053143,19.8842042 64.4053143,19.5424056 C64.4053143,18.9317255 64.6536843,18.4497967 65.1504315,18.0966048 C65.6471788,17.743413 66.3284871,17.5668197 67.1943768,17.5668197 C68.0010215,17.5668197 68.7894251,17.7308805 69.5596112,18.0590072 L69.1562909,18.9818587 C68.404334,18.6719613 67.7230257,18.517015 67.1123456,18.517015 C66.5745825,18.517015 66.1689876,18.601324 65.8955487,18.7699447 C65.6221098,18.9385653 65.4853925,19.1709849 65.4853925,19.4672103 C65.4853925,19.6677321 65.5366615,19.8386289 65.6392011,19.9799056 C65.7417406,20.1211824 65.9069408,20.2556211 66.1348065,20.3832259 C66.3626723,20.5108307 66.8001679,20.6953992 67.4473065,20.9369369 C68.3359828,21.2605062 68.9364,21.5863493 69.2485761,21.9144759 C69.5607521,22.2426026 69.7168378,22.6550333 69.7168378,23.1517806 Z M76.1699628,25.1957259 L75.9443768,24.1293197 L75.8896893,24.1293197 C75.5159896,24.5987231 75.1434347,24.916591 74.7720136,25.0829329 C74.4005924,25.2492749 73.9368926,25.3324447 73.3809003,25.3324447 C72.638058,25.3324447 72.0558698,25.1410403 71.6343182,24.7582259 C71.2127667,24.3754115 71.001994,23.8308206 71.001994,23.1244369 C71.001994,21.6114085 72.2119429,20.8184476 74.6318768,20.7455306 L75.9033612,20.704515 L75.9033612,20.2396712 C75.9033612,19.6517777 75.7768976,19.2177 75.5239667,18.9374251 C75.2710357,18.6571503 74.8665801,18.517015 74.3105878,18.517015 C73.6862357,18.517015 72.9798626,18.7084193 72.1914472,19.0912337 L71.8428143,18.2230697 C72.2119568,18.0225478 72.6164124,17.8653228 73.0561932,17.75139 C73.4959741,17.6374571 73.9368877,17.5804915 74.3789472,17.5804915 C75.2721808,17.5804915 75.9341208,17.7787317 76.364787,18.1752181 C76.7954532,18.5717045 77.0107831,19.2074403 77.0107831,20.0824447 L77.0107831,25.1957259 L76.1699628,25.1957259 Z M73.6064862,24.3959212 C74.31287,24.3959212 74.8677147,24.2022383 75.271037,23.8148665 C75.6743593,23.4274948 75.8760175,22.8851825 75.8760175,22.1879134 L75.8760175,21.5111556 L74.7412518,21.5590072 C73.8389036,21.5909084 73.1883567,21.7310437 72.7895917,21.9794173 C72.3908267,22.227791 72.1914472,22.6140176 72.1914472,23.1381087 C72.1914472,23.548267 72.3156321,23.8604384 72.5640057,24.0746322 C72.8123794,24.2888259 73.1598694,24.3959212 73.6064862,24.3959212 Z M85.4805097,17.7035384 L85.4805097,18.4213119 L84.0928143,18.5853744 C84.2204191,18.7448804 84.3343503,18.9533744 84.4346112,19.2108626 C84.5348721,19.4683509 84.5850018,19.7588753 84.5850018,20.0824447 C84.5850018,20.8161723 84.3343533,21.4017784 83.8330487,21.8392806 C83.3317441,22.2767828 82.6436,22.4955306 81.7685956,22.4955306 C81.5452872,22.4955306 81.3356539,22.4773016 81.1396893,22.4408431 C80.656614,22.6960527 80.41508,23.0173386 80.41508,23.4047103 C80.41508,23.6097894 80.499389,23.7613179 80.6680097,23.8593001 C80.8366303,23.9572824 81.1260154,24.0062728 81.5361737,24.0062728 L82.8623456,24.0062728 C83.6735476,24.0062728 84.296751,24.1771695 84.7319745,24.5189681 C85.167198,24.8607667 85.3848065,25.3575065 85.3848065,26.0092025 C85.3848065,26.8386337 85.0521276,27.4709516 84.3867597,27.9061751 C83.7213917,28.3413987 82.7506983,28.5590072 81.4746503,28.5590072 C80.4948277,28.5590072 79.7394641,28.3767173 79.208537,28.0121322 C78.6776099,27.647547 78.4121503,27.1325782 78.4121503,26.4672103 C78.4121503,26.0114788 78.5579822,25.6172771 78.8496503,25.2845931 C79.1413184,24.9519091 79.5514706,24.7263255 80.080119,24.6078353 C79.8887118,24.5212463 79.7280689,24.3868076 79.5981854,24.204515 C79.468302,24.0222224 79.4033612,23.8103105 79.4033612,23.5687728 C79.4033612,23.2953339 79.4762772,23.0560785 79.6221112,22.8509994 C79.7679453,22.6459202 79.9980862,22.44768 80.3125409,22.2562728 C79.9251692,22.0967668 79.6095799,21.8256106 79.3657636,21.4427962 C79.1219472,21.0599818 79.0000409,20.6224862 79.0000409,20.1302962 C79.0000409,19.3099796 79.2461322,18.6776617 79.7383222,18.2333236 C80.2305121,17.7889854 80.9277708,17.5668197 81.830119,17.5668197 C82.2220481,17.5668197 82.5752346,17.6123921 82.8896893,17.7035384 L85.4805097,17.7035384 Z M79.5059003,26.4535384 C79.5059003,26.8591394 79.676797,27.1667535 80.0185956,27.37639 C80.3603942,27.5860264 80.8502981,27.6908431 81.4883222,27.6908431 C82.4408009,27.6908431 83.1460347,27.5484292 83.6040448,27.263597 C84.0620549,26.9787649 84.2910565,26.5925382 84.2910565,26.1049056 C84.2910565,25.6993046 84.1657323,25.4178947 83.91508,25.2606673 C83.6644277,25.10344 83.1927527,25.0248275 82.5000409,25.0248275 L81.1396893,25.0248275 C80.6247128,25.0248275 80.2236752,25.1478731 79.9365643,25.3939681 C79.6494535,25.6400631 79.5059003,25.9932497 79.5059003,26.4535384 Z M80.1211347,20.1029525 C80.1211347,20.6270436 80.2692452,21.0235241 80.5654706,21.2924056 C80.861696,21.5612872 81.2741268,21.6957259 81.8027753,21.6957259 C82.9102027,21.6957259 83.4639081,21.1579709 83.4639081,20.0824447 C83.4639081,18.956788 82.9033668,18.3939681 81.7822675,18.3939681 C81.2490617,18.3939681 80.8389095,18.5375214 80.5517987,18.8246322 C80.2646879,19.111743 80.1211347,19.5378455 80.1211347,20.1029525 Z M90.1836347,25.3324447 C89.0762072,25.3324447 88.2023553,24.9952085 87.5620526,24.3207259 C86.9217499,23.6462434 86.6016034,22.7097293 86.6016034,21.5111556 C86.6016034,20.3034673 86.8989637,19.344167 87.4936932,18.6332259 C88.0884228,17.9222849 88.8870802,17.5668197 89.8896893,17.5668197 C90.8284961,17.5668197 91.5713272,17.8755731 92.118205,18.4930892 C92.6650827,19.1106053 92.9385175,19.925213 92.9385175,20.9369369 L92.9385175,21.6547103 L87.7773847,21.6547103 C87.8001712,22.534272 88.022337,23.2019085 88.4438886,23.65764 C88.8654401,24.1133714 89.4590215,24.3412337 90.2246503,24.3412337 C91.0312949,24.3412337 91.828813,24.1726156 92.6172284,23.8353744 L92.6172284,24.8470931 C92.2161847,25.0202711 91.836794,25.144456 91.4790448,25.2196517 C91.1212956,25.2948474 90.6894966,25.3324447 90.1836347,25.3324447 Z M89.8760175,18.517015 C89.274452,18.517015 88.7948018,18.7129766 88.4370526,19.1049056 C88.0793034,19.4968346 87.8685308,20.0391469 87.8047284,20.7318587 L91.7217206,20.7318587 C91.7217206,20.0163604 91.562217,19.4683515 91.243205,19.0878158 C90.924193,18.70728 90.4684683,18.517015 89.8760175,18.517015 Z M104.012736,19.0502181 L103.561564,21.3744369 L105.496135,21.3744369 L105.496135,22.2562728 L103.397502,22.2562728 L102.823283,25.1957259 L101.88676,25.1957259 L102.460978,22.2562728 L100.389689,22.2562728 L99.8291425,25.1957259 L98.899455,25.1957259 L99.44633,22.2562728 L97.6553143,22.2562728 L97.6553143,21.3744369 L99.6172284,21.3744369 L100.082072,19.0502181 L98.1885175,19.0502181 L98.1885175,18.182054 L100.232463,18.182054 L100.79301,15.2015853 L101.743205,15.2015853 L101.182658,18.182054 L103.267619,18.182054 L103.841838,15.2015853 L104.757853,15.2015853 L104.183635,18.182054 L105.988322,18.182054 L105.988322,19.0502181 L104.012736,19.0502181 Z M100.553752,21.3744369 L102.625041,21.3744369 L103.076213,19.0502181 L101.004924,19.0502181 L100.553752,21.3744369 Z M115.312541,25.1957259 L114.150432,25.1957259 L114.150432,20.4926009 L108.88676,20.4926009 L108.88676,25.1957259 L107.72465,25.1957259 L107.72465,15.2015853 L108.88676,15.2015853 L108.88676,19.4535384 L114.150432,19.4535384 L114.150432,15.2015853 L115.312541,15.2015853 L115.312541,25.1957259 Z M121.047892,25.3324447 C119.940465,25.3324447 119.066613,24.9952085 118.42631,24.3207259 C117.786008,23.6462434 117.465861,22.7097293 117.465861,21.5111556 C117.465861,20.3034673 117.763222,19.344167 118.357951,18.6332259 C118.952681,17.9222849 119.751338,17.5668197 120.753947,17.5668197 C121.692754,17.5668197 122.435585,17.8755731 122.982463,18.4930892 C123.529341,19.1106053 123.802775,19.925213 123.802775,20.9369369 L123.802775,21.6547103 L118.641642,21.6547103 C118.664429,22.534272 118.886595,23.2019085 119.308146,23.65764 C119.729698,24.1133714 120.323279,24.3412337 121.088908,24.3412337 C121.895553,24.3412337 122.693071,24.1726156 123.481486,23.8353744 L123.481486,24.8470931 C123.080443,25.0202711 122.701052,25.144456 122.343303,25.2196517 C121.985553,25.2948474 121.553754,25.3324447 121.047892,25.3324447 Z M120.740275,18.517015 C120.13871,18.517015 119.65906,18.7129766 119.30131,19.1049056 C118.943561,19.4968346 118.732789,20.0391469 118.668986,20.7318587 L122.585978,20.7318587 C122.585978,20.0163604 122.426475,19.4683515 122.107463,19.0878158 C121.788451,18.70728 121.332726,18.517015 120.740275,18.517015 Z M126.872111,25.1957259 L125.737346,25.1957259 L125.737346,14.5590072 L126.872111,14.5590072 L126.872111,25.1957259 Z M130.413127,25.1957259 L129.278361,25.1957259 L129.278361,14.5590072 L130.413127,14.5590072 L130.413127,25.1957259 Z M139.286174,21.4427962 C139.286174,22.6641565 138.97856,23.6177602 138.363322,24.3036361 C137.748085,24.9895119 136.898158,25.3324447 135.813517,25.3324447 C135.143592,25.3324447 134.548872,25.1752197 134.029338,24.860765 C133.509804,24.5463103 133.108766,24.0951429 132.826213,23.5072494 C132.543659,22.9193558 132.402385,22.2312116 132.402385,21.4427962 C132.402385,20.221436 132.70772,19.2701108 133.3184,18.5887923 C133.92908,17.9074738 134.776728,17.5668197 135.861369,17.5668197 C136.909551,17.5668197 137.742388,17.915449 138.359904,18.6127181 C138.97742,19.3099872 139.286174,20.2533372 139.286174,21.4427962 Z M133.578166,21.4427962 C133.578166,22.3998323 133.76957,23.1289916 134.152385,23.6302962 C134.535199,24.1316008 135.098019,24.3822494 135.840861,24.3822494 C136.583703,24.3822494 137.147663,24.1327401 137.532756,23.6337142 C137.917849,23.1346883 138.110392,22.4043896 138.110392,21.4427962 C138.110392,20.4903175 137.917849,19.7668547 137.532756,19.2723861 C137.147663,18.7779175 136.579146,18.5306869 135.827189,18.5306869 C135.084347,18.5306869 134.523806,18.7744995 134.145549,19.2621322 C133.767292,19.7497648 133.578166,20.4766456 133.578166,21.4427962 Z M145.841838,19.9593978 L149.239299,19.9593978 L149.239299,24.8197494 C148.71065,24.98837 148.172895,25.1159729 147.626017,25.2025619 C147.07914,25.2891508 146.445683,25.3324447 145.725627,25.3324447 C144.212598,25.3324447 143.03455,24.8824166 142.191447,23.982347 C141.348344,23.0822774 140.926799,21.8210595 140.926799,20.1986556 C140.926799,19.1595879 141.135293,18.249278 141.552287,17.4676986 C141.969281,16.6861191 142.569698,16.0891199 143.353557,15.6766829 C144.137415,15.264246 145.0557,15.0580306 146.108439,15.0580306 C147.174851,15.0580306 148.168331,15.2539922 149.088908,15.6459212 L148.637736,16.6713119 C147.735388,16.2884974 146.867233,16.0970931 146.033244,16.0970931 C144.816441,16.0970931 143.866255,16.4593942 143.182658,17.1840072 C142.499061,17.9086202 142.157267,18.9134929 142.157267,20.1986556 C142.157267,21.5476207 142.486528,22.5707224 143.14506,23.2679915 C143.803592,23.9652607 144.770868,24.31389 146.046916,24.31389 C146.739628,24.31389 147.416379,24.2341382 148.077189,24.0746322 L148.077189,20.9984603 L145.841838,20.9984603 L145.841838,19.9593978 Z M154.954142,17.5804915 C155.938522,17.5804915 156.703,17.9165884 157.247599,18.5887923 C157.792199,19.2609962 158.064494,20.2123213 158.064494,21.4427962 C158.064494,22.6732711 157.78992,23.6291535 157.240764,24.310472 C156.691607,24.9917905 155.929408,25.3324447 154.954142,25.3324447 C154.46651,25.3324447 154.021039,25.2424391 153.617717,25.0624251 C153.214394,24.8824112 152.876019,24.6055585 152.60258,24.2318587 L152.520549,24.2318587 L152.281291,25.1957259 L151.467814,25.1957259 L151.467814,14.5590072 L152.60258,14.5590072 L152.60258,17.1429915 C152.60258,17.7217705 152.584351,18.2412965 152.547892,18.7015853 L152.60258,18.7015853 C153.131228,17.9541857 153.915075,17.5804915 154.954142,17.5804915 Z M154.79008,18.5306869 C154.015337,18.5306869 153.457074,18.7528526 153.115275,19.1971908 C152.773477,19.6415289 152.60258,20.3900566 152.60258,21.4427962 C152.60258,22.4955359 152.778034,23.2486208 153.128947,23.7020736 C153.47986,24.1555264 154.04268,24.3822494 154.817424,24.3822494 C155.514693,24.3822494 156.034219,24.1281829 156.376017,23.6200423 C156.717816,23.1119018 156.888713,22.3816031 156.888713,21.4291244 C156.888713,20.4538591 156.717816,19.7269783 156.376017,19.2484603 C156.034219,18.7699423 155.505578,18.5306869 154.79008,18.5306869 Z M158.577189,17.7035384 L159.793986,17.7035384 L161.434611,21.9759994 C161.794639,22.9512646 162.017944,23.6553592 162.104533,24.088304 L162.159221,24.088304 C162.218466,23.855881 162.342651,23.4582613 162.531779,22.8954329 C162.720908,22.3326046 163.339554,20.6019904 164.387736,17.7035384 L165.604533,17.7035384 L162.384807,26.2347884 C162.065795,27.0778916 161.69324,27.6760301 161.267131,28.029222 C160.841022,28.3824139 160.318078,28.5590072 159.698283,28.5590072 C159.351927,28.5590072 159.010134,28.5202706 158.672892,28.4427962 L158.672892,27.5336165 C158.923545,27.5883043 159.203815,27.6156478 159.513713,27.6156478 C160.293014,27.6156478 160.848998,27.1781522 161.181682,26.3031478 L161.598674,25.2367415 L158.577189,17.7035384 Z M169.986369,25.3324447 C168.878942,25.3324447 168.00509,24.9952085 167.364787,24.3207259 C166.724484,23.6462434 166.404338,22.7097293 166.404338,21.5111556 C166.404338,20.3034673 166.701698,19.344167 167.296428,18.6332259 C167.891157,17.9222849 168.689815,17.5668197 169.692424,17.5668197 C170.63123,17.5668197 171.374062,17.8755731 171.920939,18.4930892 C172.467817,19.1106053 172.741252,19.925213 172.741252,20.9369369 L172.741252,21.6547103 L167.580119,21.6547103 C167.602906,22.534272 167.825071,23.2019085 168.246623,23.65764 C168.668175,24.1133714 169.261756,24.3412337 170.027385,24.3412337 C170.834029,24.3412337 171.631547,24.1726156 172.419963,23.8353744 L172.419963,24.8470931 C172.018919,25.0202711 171.639528,25.144456 171.281779,25.2196517 C170.92403,25.2948474 170.492231,25.3324447 169.986369,25.3324447 Z M169.678752,18.517015 C169.077186,18.517015 168.597536,18.7129766 168.239787,19.1049056 C167.882038,19.4968346 167.671265,20.0391469 167.607463,20.7318587 L171.524455,20.7318587 C171.524455,20.0163604 171.364951,19.4683515 171.045939,19.0878158 C170.726927,18.70728 170.271203,18.517015 169.678752,18.517015 Z" id="Message#HelloGbye" fill="#9B9B9B" fill-rule="nonzero"></path>
                </g>
                <g id="Sidebar-Channels" transform="translate(35.000000, 4.000000)">
                    <path d="M10.20625,25.25 L42.7953411,25.25" id="Text-Heading" stroke="#CCCCCC" stroke-width="5" stroke-linecap="round"></path>
                    <circle id="Oval" fill="#4DA28C" cx="1.5" cy="25.5" r="1.5"></circle>
                    <path d="M7.42285156,12 L5.76318359,12 L5.76318359,8.61083984 L2.65332031,8.61083984 L2.65332031,12 L0.98828125,12 L0.98828125,4.14746094 L2.65332031,4.14746094 L2.65332031,7.22509766 L5.76318359,7.22509766 L5.76318359,4.14746094 L7.42285156,4.14746094 L7.42285156,12 Z M11.7626953,7.04785156 C11.4153628,7.04785156 11.1432302,7.15795788 10.9462891,7.37817383 C10.749348,7.59838977 10.6365561,7.91080527 10.6079102,8.31542969 L12.9067383,8.31542969 C12.8995768,7.91080527 12.7939463,7.59838977 12.5898438,7.37817383 C12.3857412,7.15795788 12.1100278,7.04785156 11.7626953,7.04785156 Z M11.9936523,12.1074219 C11.0268506,12.1074219 10.2713243,11.8406602 9.72705078,11.3071289 C9.18277723,10.7735976 8.91064453,10.0180713 8.91064453,9.04052734 C8.91064453,8.03433742 9.16218824,7.25643178 9.6652832,6.70678711 C10.1683782,6.15714243 10.8639279,5.88232422 11.7519531,5.88232422 C12.6005902,5.88232422 13.2612281,6.12402102 13.7338867,6.60742188 C14.2065453,7.09082273 14.4428711,7.75862204 14.4428711,8.61083984 L14.4428711,9.40576172 L10.5703125,9.40576172 C10.5882162,9.87125884 10.7260729,10.2346992 10.9838867,10.4960938 C11.2417005,10.7574883 11.6033505,10.8881836 12.0688477,10.8881836 C12.4305031,10.8881836 12.7724593,10.8505863 13.0947266,10.7753906 C13.4169938,10.7001949 13.753579,10.5802417 14.1044922,10.4155273 L14.1044922,11.6831055 C13.8180324,11.8263354 13.5118831,11.932861 13.1860352,12.0026855 C12.8601872,12.0725101 12.4627302,12.1074219 11.9936523,12.1074219 Z M17.4130859,12 L15.7749023,12 L15.7749023,3.64257812 L17.4130859,3.64257812 L17.4130859,12 Z M20.7700195,12 L19.1318359,12 L19.1318359,3.64257812 L20.7700195,3.64257812 L20.7700195,12 Z M23.7939453,8.98681641 C23.7939453,9.58122042 23.8915192,10.0305974 24.0866699,10.3349609 C24.2818206,10.6393244 24.5996072,10.7915039 25.0400391,10.7915039 C25.4768902,10.7915039 25.791096,10.6402196 25.982666,10.3376465 C26.174236,10.0350734 26.2700195,9.58480117 26.2700195,8.98681641 C26.2700195,8.39241239 26.1733408,7.94661607 25.9799805,7.64941406 C25.7866201,7.35221206 25.4697288,7.20361328 25.0292969,7.20361328 C24.5924457,7.20361328 24.2773447,7.35131688 24.0839844,7.64672852 C23.890624,7.94214015 23.7939453,8.38883165 23.7939453,8.98681641 Z M27.9458008,8.98681641 C27.9458008,9.96436036 27.6879909,10.7288384 27.1723633,11.2802734 C26.6567357,11.8317085 25.9388067,12.1074219 25.0185547,12.1074219 C24.4420544,12.1074219 23.933596,11.9812024 23.4931641,11.7287598 C23.0527322,11.4763171 22.7143567,11.1137719 22.4780273,10.6411133 C22.241698,10.1684547 22.1235352,9.61702789 22.1235352,8.98681641 C22.1235352,8.00569171 22.3795547,7.24300402 22.8916016,6.69873047 C23.4036484,6.15445691 24.1233678,5.88232422 25.0507812,5.88232422 C25.6272815,5.88232422 26.13574,6.00764849 26.5761719,6.25830078 C27.0166038,6.50895308 27.3549793,6.86881276 27.5913086,7.33789062 C27.8276379,7.80696849 27.9458008,8.35660492 27.9458008,8.98681641 Z M32.4091797,7.59033203 L35.5244141,7.59033203 L35.5244141,11.6616211 C35.0195287,11.8263355 34.5441917,11.9418128 34.0983887,12.0080566 C33.6525857,12.0743005 33.1969424,12.1074219 32.7314453,12.1074219 C31.546218,12.1074219 30.6411978,11.7591994 30.0163574,11.0627441 C29.3915171,10.3662888 29.0791016,9.36638021 29.0791016,8.06298828 C29.0791016,6.79540382 29.4416468,5.80713245 30.166748,5.09814453 C30.8918493,4.38915661 31.897129,4.03466797 33.1826172,4.03466797 C33.9882853,4.03466797 34.7652957,4.19579917 35.5136719,4.51806641 L34.9604492,5.85009766 C34.3875297,5.56363789 33.7913442,5.42041016 33.171875,5.42041016 C32.4521448,5.42041016 31.8756532,5.66210696 31.4423828,6.14550781 C31.0091124,6.62890867 30.7924805,7.27880451 30.7924805,8.09521484 C30.7924805,8.94743265 30.9670393,9.59822366 31.3161621,10.0476074 C31.6652849,10.4969912 32.1728482,10.7216797 32.8388672,10.7216797 C33.1861997,10.7216797 33.5388979,10.6858728 33.8969727,10.6142578 L33.8969727,8.97607422 L32.4091797,8.97607422 L32.4091797,7.59033203 Z M40.6054688,5.88232422 C41.3144567,5.88232422 41.8694641,6.15893278 42.2705078,6.7121582 C42.6715515,7.26538363 42.8720703,8.02359544 42.8720703,8.98681641 C42.8720703,9.97868334 42.6652853,10.7467421 42.251709,11.2910156 C41.8381327,11.8352892 41.2750687,12.1074219 40.5625,12.1074219 C39.8570928,12.1074219 39.3038757,11.8514023 38.902832,11.3393555 L38.7900391,11.3393555 L38.5161133,12 L37.2646484,12 L37.2646484,3.64257812 L38.902832,3.64257812 L38.902832,5.58691406 C38.902832,5.83398561 38.8813479,6.22965223 38.8383789,6.77392578 L38.902832,6.77392578 C39.285972,6.17952177 39.8535119,5.88232422 40.6054688,5.88232422 Z M40.0791016,7.19287109 C39.6744771,7.19287109 39.3790699,7.31730019 39.1928711,7.56616211 C39.0066722,7.81502403 38.9099935,8.22590859 38.902832,8.79882812 L38.902832,8.97607422 C38.902832,9.62060869 38.9986156,10.0825181 39.1901855,10.3618164 C39.3817555,10.6411147 39.6852193,10.7807617 40.1005859,10.7807617 C40.4371762,10.7807617 40.704833,10.6258967 40.9035645,10.3161621 C41.1022959,10.0064275 41.2016602,9.5561553 41.2016602,8.96533203 C41.2016602,8.37450876 41.1014007,7.93139796 40.9008789,7.63598633 C40.7003571,7.34057469 40.426434,7.19287109 40.0791016,7.19287109 Z M43.1459961,5.99511719 L44.9399414,5.99511719 L46.0732422,9.37353516 C46.1699224,9.66715642 46.2361652,10.0144837 46.2719727,10.4155273 L46.3041992,10.4155273 C46.3435874,10.0467104 46.4205723,9.69938314 46.5351562,9.37353516 L47.6469727,5.99511719 L49.4033203,5.99511719 L46.862793,12.7680664 C46.6300444,13.3946971 46.2979351,13.863768 45.8664551,14.175293 C45.4349751,14.486818 44.9309925,14.6425781 44.3544922,14.6425781 C44.0716132,14.6425781 43.7941094,14.6121422 43.5219727,14.5512695 L43.5219727,13.2514648 C43.7189137,13.2980146 43.9337553,13.3212891 44.1665039,13.3212891 C44.4565444,13.3212891 44.7098785,13.2326669 44.9265137,13.0554199 C45.1431489,12.8781729 45.3123366,12.6105161 45.434082,12.2524414 L45.5307617,11.9570312 L43.1459961,5.99511719 Z M52.7495117,7.04785156 C52.4021793,7.04785156 52.1300466,7.15795788 51.9331055,7.37817383 C51.7361644,7.59838977 51.6233725,7.91080527 51.5947266,8.31542969 L53.8935547,8.31542969 C53.8863932,7.91080527 53.7807627,7.59838977 53.5766602,7.37817383 C53.3725576,7.15795788 53.0968442,7.04785156 52.7495117,7.04785156 Z M52.9804688,12.1074219 C52.013667,12.1074219 51.2581407,11.8406602 50.7138672,11.3071289 C50.1695936,10.7735976 49.8974609,10.0180713 49.8974609,9.04052734 C49.8974609,8.03433742 50.1490046,7.25643178 50.6520996,6.70678711 C51.1551946,6.15714243 51.8507443,5.88232422 52.7387695,5.88232422 C53.5874066,5.88232422 54.2480445,6.12402102 54.7207031,6.60742188 C55.1933617,7.09082273 55.4296875,7.75862204 55.4296875,8.61083984 L55.4296875,9.40576172 L51.5571289,9.40576172 C51.5750326,9.87125884 51.7128893,10.2346992 51.9707031,10.4960938 C52.2285169,10.7574883 52.5901669,10.8881836 53.0556641,10.8881836 C53.4173195,10.8881836 53.7592757,10.8505863 54.081543,10.7753906 C54.4038102,10.7001949 54.7403954,10.5802417 55.0913086,10.4155273 L55.0913086,11.6831055 C54.8048488,11.8263354 54.4986995,11.932861 54.1728516,12.0026855 C53.8470036,12.0725101 53.4495466,12.1074219 52.9804688,12.1074219 Z" id="HelloGbye" fill="#FFFFFF" fill-rule="nonzero"></path>
                    <rect id="Rectangle" fill="#260027" x="0" y="34" width="79" height="13" rx="4"></rect>
                    <path d="M12.2040816,40 L51.7209821,40" id="Text-Line-1" stroke="#957A97" stroke-width="4" stroke-linecap="round"></path>
                    <path d="M10.2040816,58 L49.7209821,58" id="Text-Line-2" stroke="#957A97" stroke-width="4" stroke-linecap="round"></path>
                    <rect id="Rectangle-1" fill="#957A97" x="69" y="5" width="9" height="9"></rect>
                    <rect id="Rectangle-2" fill="#957A97" x="2" y="37" width="5" height="5"></rect>
                    <rect id="Rectangle-3" fill="#957A97" x="0" y="55" width="5" height="5"></rect>
                </g>
            </g>
        </g>
    </g>
</svg>