<svg width="892" height="105" xmlns="http://www.w3.org/2000/svg"><g fill="none" fill-rule="evenodd"><path stroke="#E5E5E5" fill="#FFF" d="M.5.5h891v104H.5z"/><path d="M22.184 41.706v-17.16c0-.156.104-.26.26-.26h10.634c.156 0 .26.104.26.26v1.638c0 .156-.104.26-.26.26h-8.424c-.104 0-.156.052-.156.156v5.382c0 .104.052.156.156.156h7.15c.156 0 .26.104.26.26v1.638c0 .156-.104.26-.26.26h-7.15c-.104 0-.156.052-.156.156v7.254c0 .156-.104.26-.26.26h-1.794c-.156 0-.26-.104-.26-.26zm18.278.39h-.884c-2.184 0-3.042-1.04-3.042-3.276V24.546c0-.156.104-.26.26-.26h1.664c.156 0 .26.104.26.26V38.69c0 1.04.39 1.378 1.248 1.378h.494c.156 0 .26.104.26.26v1.508c0 .156-.104.26-.26.26zm4.004 4.55h-.676c-.156 0-.26-.104-.26-.26v-1.508c0-.156.104-.26.26-.26h.468c1.014 0 1.56-.442 2.106-1.872l.416-1.144-4.576-11.83c-.052-.156.026-.26.208-.26h1.82c.156 0 .26.078.312.26l3.276 8.996h.052l3.146-8.996c.052-.182.156-.26.312-.26h1.768c.156 0 .26.104.208.26l-4.914 13.156c-1.092 2.938-2.054 3.718-3.926 3.718zm20.202-4.68h-1.664c-.156 0-.26-.104-.26-.26v-10.27c0-.104-.052-.156-.156-.156h-1.066c-.156 0-.26-.104-.26-.26v-1.248c0-.156.104-.26.26-.26h1.066c.104 0 .156-.052.156-.156V28.29c0-2.938 1.196-4.004 3.796-4.004h.962c.156 0 .26.104.26.26v1.508c0 .156-.104.26-.26.26h-.676c-1.586 0-1.898.338-1.898 1.872v1.17c0 .104.052.156.156.156h2.418c.156 0 .26.104.26.26v1.248c0 .156-.104.26-.26.26h-2.418c-.104 0-.156.052-.156.156v10.27c0 .156-.104.26-.26.26zm7.852 0h-1.664c-.156 0-.26-.104-.26-.26V29.772c0-.156.104-.26.26-.26h1.664c.156 0 .26.104.26.26v1.274h.026c.546-1.066 1.638-1.82 3.302-1.82.988 0 1.924.364 2.548.936.13.13.156.234.052.364l-.962 1.274c-.104.13-.234.156-.364.052-.572-.364-1.196-.598-1.924-.598-1.898 0-2.678 1.482-2.678 3.64v6.812c0 .156-.104.26-.26.26zm12.844.286c-2.418 0-4.238-1.248-4.914-3.354-.286-.858-.416-1.716-.416-3.172 0-1.43.13-2.288.416-3.146.676-2.132 2.496-3.354 4.914-3.354 2.418 0 4.238 1.222 4.914 3.354.286.858.416 1.716.416 3.146 0 1.456-.13 2.314-.416 3.172-.676 2.106-2.496 3.354-4.914 3.354zm0-2.028c1.378 0 2.392-.702 2.808-1.95.208-.676.286-1.352.286-2.548s-.078-1.846-.286-2.522c-.416-1.248-1.43-1.95-2.808-1.95s-2.392.702-2.808 1.95c-.208.676-.286 1.326-.286 2.522 0 1.196.078 1.872.286 2.548.416 1.248 1.43 1.95 2.808 1.95zm26.416 1.742h-1.664c-.156 0-.26-.104-.26-.26v-7.28c0-2.002-.91-3.172-2.782-3.172-1.664 0-2.86 1.196-2.86 3.042v7.41c0 .156-.104.26-.26.26h-1.664c-.156 0-.26-.104-.26-.26v-7.28c0-2.002-.91-3.172-2.782-3.172-1.69 0-2.86 1.196-2.86 3.042v7.41c0 .156-.104.26-.26.26h-1.664c-.156 0-.26-.104-.26-.26V29.772c0-.156.104-.26.26-.26h1.664c.156 0 .26.104.26.26v1.144h.026c.598-.962 1.794-1.69 3.484-1.69s2.938.702 3.64 1.95h.026c.858-1.196 2.132-1.95 4.03-1.95 2.886 0 4.446 1.846 4.446 4.68v7.8c0 .156-.104.26-.26.26zm10.53-3.874c-.338-1.014-.468-2.028-.468-4.966s.13-3.952.468-4.966c.884-2.782 2.99-4.16 5.876-4.16 2.626 0 4.654 1.3 5.668 3.562.052.13.026.26-.104.338l-1.56.754a.259.259 0 0 1-.364-.13c-.702-1.378-1.794-2.366-3.64-2.366-1.924 0-3.094.936-3.666 2.6-.234.728-.338 1.586-.338 4.368s.104 3.64.338 4.368c.572 1.664 1.742 2.6 3.666 2.6 1.846 0 2.938-.988 3.64-2.366a.259.259 0 0 1 .364-.13l1.56.754c.13.078.156.208.104.338-1.014 2.262-3.042 3.562-5.668 3.562-2.886 0-4.992-1.378-5.876-4.16zm24.57 3.874h-1.664c-.156 0-.26-.104-.26-.26v-7.28c0-2.002-.91-3.172-2.782-3.172-1.69 0-2.86 1.196-2.86 3.042v7.41c0 .156-.104.26-.26.26h-1.664c-.156 0-.26-.104-.26-.26v-17.16c0-.156.104-.26.26-.26h1.664c.156 0 .26.104.26.26v6.37h.026c.598-.962 1.794-1.69 3.484-1.69 2.704 0 4.316 1.846 4.316 4.68v7.8c0 .156-.104.26-.26.26zm6.37-15.262h-1.768c-.156 0-.26-.104-.26-.26v-1.898c0-.156.104-.26.26-.26h1.768c.156 0 .26.104.26.26v1.898c0 .156-.104.26-.26.26zm-.052 15.262h-1.664c-.156 0-.26-.104-.26-.26V29.772c0-.156.104-.26.26-.26h1.664c.156 0 .26.104.26.26v11.934c0 .156-.104.26-.26.26zm3.77-6.24c0-1.378.156-2.392.39-3.146.702-2.158 2.522-3.354 4.914-3.354 1.898 0 3.354.806 4.264 2.106.078.13.078.234-.078.364l-1.144.936c-.13.104-.26.104-.364-.026-.728-.91-1.43-1.352-2.678-1.352-1.352 0-2.366.65-2.782 1.95-.208.65-.286 1.43-.286 2.522 0 1.118.078 1.898.286 2.548.416 1.3 1.43 1.95 2.782 1.95 1.248 0 1.95-.442 2.678-1.352.104-.13.234-.13.364-.026l1.144.936c.156.13.156.234.078.364-.91 1.3-2.366 2.106-4.264 2.106-2.392 0-4.212-1.196-4.914-3.354-.234-.754-.39-1.768-.39-3.172zm21.788 6.24h-1.534c-.156 0-.26-.104-.26-.26v-1.092h-.026c-.572.936-1.794 1.638-3.692 1.638-2.366 0-4.186-1.222-4.186-3.744 0-2.626 1.82-3.848 4.862-3.848h2.834c.104 0 .156-.052.156-.156v-.91c0-1.716-.676-2.444-2.99-2.444-1.404 0-2.288.364-3.016.884-.13.104-.286.104-.364-.026l-.702-1.196c-.078-.156-.052-.26.052-.364.936-.728 2.392-1.222 4.238-1.222 3.536 0 4.888 1.17 4.888 4.238v8.242c0 .156-.104.26-.26.26zm-4.992-1.586c1.95 0 3.146-.91 3.146-2.444v-1.378c0-.104-.052-.156-.156-.156h-2.496c-2.158 0-3.094.624-3.094 2.028 0 1.274.936 1.95 2.6 1.95zm13.468 6.552c-1.742 0-3.484-.754-4.316-1.846-.104-.13-.104-.234.026-.364l1.066-1.066c.13-.13.26-.13.39 0 .858.78 1.742 1.248 2.938 1.248 2.054 0 3.146-1.066 3.146-3.354v-1.456h-.026c-.572 1.04-1.638 1.716-3.458 1.716-2.106 0-3.562-1.066-4.186-3.016-.312-.936-.416-1.846-.416-3.276 0-1.43.104-2.34.416-3.276.624-1.95 2.08-3.016 4.186-3.016 1.82 0 2.886.676 3.458 1.716h.026v-1.17c0-.156.104-.26.26-.26h1.664c.156 0 .26.104.26.26V41.42c0 3.536-1.924 5.512-5.434 5.512zm.312-7.124c1.3 0 2.21-.598 2.652-1.872.208-.624.286-1.352.286-2.418s-.078-1.768-.286-2.418c-.442-1.274-1.352-1.846-2.652-1.846-1.352 0-2.21.65-2.626 1.846-.208.65-.312 1.404-.312 2.418 0 1.014.104 1.794.312 2.418.416 1.222 1.274 1.872 2.626 1.872zm13.962 2.444c-2.418 0-4.238-1.248-4.914-3.354-.286-.858-.416-1.716-.416-3.172 0-1.43.13-2.288.416-3.146.676-2.132 2.496-3.354 4.914-3.354 2.418 0 4.238 1.222 4.914 3.354.286.858.416 1.716.416 3.146 0 1.456-.13 2.314-.416 3.172-.676 2.106-2.496 3.354-4.914 3.354zm0-2.028c1.378 0 2.392-.702 2.808-1.95.208-.676.286-1.352.286-2.548s-.078-1.846-.286-2.522c-.416-1.248-1.43-1.95-2.808-1.95s-2.392.702-2.808 1.95c-.208.676-.286 1.326-.286 2.522 0 1.196.078 1.872.286 2.548.416 1.248 1.43 1.95 2.808 1.95zm19.656 1.872h-.962c-2.418 0-3.354-1.092-3.354-3.536v-7.124c0-.104-.052-.156-.156-.156h-1.04c-.156 0-.26-.104-.26-.26v-1.248c0-.156.104-.26.26-.26h1.04c.104 0 .156-.052.156-.156v-3.51c0-.156.104-.26.26-.26h1.664c.156 0 .26.104.26.26v3.51c0 .104.052.156.156.156h1.976c.156 0 .26.104.26.26v1.248c0 .156-.104.26-.26.26h-1.976c-.104 0-.156.052-.156.156v7.046c0 1.248.468 1.586 1.586 1.586h.546c.156 0 .26.104.26.26v1.508c0 .156-.104.26-.26.26zm8.216.156c-2.418 0-4.238-1.248-4.914-3.354-.286-.858-.416-1.716-.416-3.172 0-1.43.13-2.288.416-3.146.676-2.132 2.496-3.354 4.914-3.354 2.418 0 4.238 1.222 4.914 3.354.286.858.416 1.716.416 3.146 0 1.456-.13 2.314-.416 3.172-.676 2.106-2.496 3.354-4.914 3.354zm0-2.028c1.378 0 2.392-.702 2.808-1.95.208-.676.286-1.352.286-2.548s-.078-1.846-.286-2.522c-.416-1.248-1.43-1.95-2.808-1.95s-2.392.702-2.808 1.95c-.208.676-.286 1.326-.286 2.522 0 1.196.078 1.872.286 2.548.416 1.248 1.43 1.95 2.808 1.95zm15.132 1.482v-17.16c0-.156.104-.26.26-.26h1.664c.208 0 .338.052.442.26l8.008 13.26h.104v-13.26c0-.156.104-.26.26-.26h1.638c.156 0 .26.104.26.26v17.16c0 .156-.104.26-.26.26h-1.664c-.182 0-.338-.052-.442-.26l-8.034-13.208h-.078v13.208c0 .156-.104.26-.26.26h-1.638c-.156 0-.26-.104-.26-.26zm21.606.546c-2.522 0-4.316-1.222-4.992-3.38-.26-.806-.416-1.716-.416-3.146s.13-2.392.39-3.146c.702-2.158 2.522-3.354 4.888-3.354 2.392 0 4.186 1.222 4.888 3.354.26.806.39 1.664.39 3.562 0 .156-.104.26-.286.26H263.1c-.104 0-.156.052-.156.156 0 .676.078 1.092.208 1.508.494 1.43 1.612 2.158 3.146 2.158 1.482 0 2.522-.598 3.198-1.378.13-.13.26-.156.39-.052l1.066.962c.13.104.13.234.026.364-.988 1.248-2.678 2.132-4.862 2.132zM263.1 34.66h5.772c.104 0 .156-.052.156-.156 0-.572-.052-1.014-.182-1.404-.416-1.248-1.456-1.95-2.86-1.95s-2.444.702-2.86 1.95c-.13.39-.182.832-.182 1.404 0 .104.052.156.156.156zm23.868 7.306h-1.482c-.156 0-.26-.104-.312-.26l-2.808-8.918h-.052l-2.834 8.918c-.052.156-.156.26-.312.26h-1.508c-.156 0-.26-.104-.312-.26l-3.9-11.934c-.052-.156.026-.26.182-.26h1.768c.182 0 .26.052.338.26l2.756 8.996h.052l2.808-8.996c.052-.182.156-.26.312-.26h1.352c.156 0 .286.078.338.26l2.834 8.996h.052l2.678-8.996c.052-.208.156-.26.338-.26h1.768c.156 0 .234.104.182.26l-3.926 11.934c-.052.156-.13.26-.312.26zm16.146 0h-1.534c-.156 0-.26-.104-.26-.26v-1.092h-.026c-.572.936-1.794 1.638-3.692 1.638-2.366 0-4.186-1.222-4.186-3.744 0-2.626 1.82-3.848 4.862-3.848h2.834c.104 0 .156-.052.156-.156v-.91c0-1.716-.676-2.444-2.99-2.444-1.404 0-2.288.364-3.016.884-.13.104-.286.104-.364-.026l-.702-1.196c-.078-.156-.052-.26.052-.364.936-.728 2.392-1.222 4.238-1.222 3.536 0 4.888 1.17 4.888 4.238v8.242c0 .156-.104.26-.26.26zm-4.992-1.586c1.95 0 3.146-.91 3.146-2.444v-1.378c0-.104-.052-.156-.156-.156h-2.496c-2.158 0-3.094.624-3.094 2.028 0 1.274.936 1.95 2.6 1.95zm11.336 1.586h-1.664c-.156 0-.26-.104-.26-.26V29.772c0-.156.104-.26.26-.26h1.664c.156 0 .26.104.26.26v1.274h.026c.546-1.066 1.638-1.82 3.302-1.82.988 0 1.924.364 2.548.936.13.13.156.234.052.364l-.962 1.274c-.104.13-.234.156-.364.052-.572-.364-1.196-.598-1.924-.598-1.898 0-2.678 1.482-2.678 3.64v6.812c0 .156-.104.26-.26.26zm18.954 0h-1.924c-.182 0-.312-.078-.416-.26l-3.536-5.798-2.158 2.522v3.276c0 .156-.104.26-.26.26h-1.664c-.156 0-.26-.104-.26-.26v-17.16c0-.156.104-.26.26-.26h1.664c.156 0 .26.104.26.26v10.998l4.914-5.798c.156-.182.286-.234.468-.234h1.924c.156 0 .208.13.104.26l-3.822 4.446 4.602 7.488c.078.104 0 .26-.156.26zm13.884.286c-2.418 0-4.238-1.248-4.914-3.354-.286-.858-.416-1.716-.416-3.172 0-1.43.13-2.288.416-3.146.676-2.132 2.496-3.354 4.914-3.354 2.418 0 4.238 1.222 4.914 3.354.286.858.416 1.716.416 3.146 0 1.456-.13 2.314-.416 3.172-.676 2.106-2.496 3.354-4.914 3.354zm0-2.028c1.378 0 2.392-.702 2.808-1.95.208-.676.286-1.352.286-2.548s-.078-1.846-.286-2.522c-.416-1.248-1.43-1.95-2.808-1.95s-2.392.702-2.808 1.95c-.208.676-.286 1.326-.286 2.522 0 1.196.078 1.872.286 2.548.416 1.248 1.43 1.95 2.808 1.95zm18.59 1.742h-1.664c-.156 0-.26-.104-.26-.26v-7.28c0-2.002-.91-3.172-2.782-3.172-1.69 0-2.86 1.196-2.86 3.042v7.41c0 .156-.104.26-.26.26h-1.664c-.156 0-.26-.104-.26-.26V29.772c0-.156.104-.26.26-.26h1.664c.156 0 .26.104.26.26v1.144h.026c.598-.962 1.794-1.69 3.484-1.69 2.704 0 4.316 1.846 4.316 4.68v7.8c0 .156-.104.26-.26.26zm16.094 0h-1.794c-.156 0-.26-.104-.26-.26V26.6c0-.104-.052-.156-.156-.156h-4.836c-.156 0-.26-.104-.26-.26v-1.638c0-.156.104-.26.26-.26h12.298c.156 0 .26.104.26.26v1.638c0 .156-.104.26-.26.26h-4.836c-.104 0-.156.052-.156.156v15.106c0 .156-.104.26-.26.26zm16.302 0h-1.664c-.156 0-.26-.104-.26-.26v-1.17h-.026c-.65 1.04-1.794 1.716-3.406 1.716-2.73 0-4.316-1.872-4.316-4.706v-7.774c0-.156.104-.26.26-.26h1.664c.156 0 .26.104.26.26v7.254c0 2.028.91 3.198 2.756 3.198 1.69 0 2.808-1.196 2.808-3.068v-7.384c0-.156.104-.26.26-.26h1.664c.156 0 .26.104.26.26v11.934c0 .156-.104.26-.26.26zm9.178.286c-2.522 0-4.316-1.222-4.992-3.38-.26-.806-.416-1.716-.416-3.146s.13-2.392.39-3.146c.702-2.158 2.522-3.354 4.888-3.354 2.392 0 4.186 1.222 4.888 3.354.26.806.39 1.664.39 3.562 0 .156-.104.26-.286.26h-7.878c-.104 0-.156.052-.156.156 0 .676.078 1.092.208 1.508.494 1.43 1.612 2.158 3.146 2.158 1.482 0 2.522-.598 3.198-1.378.13-.13.26-.156.39-.052l1.066.962c.13.104.13.234.026.364-.988 1.248-2.678 2.132-4.862 2.132zm-3.016-7.592h5.772c.104 0 .156-.052.156-.156 0-.572-.052-1.014-.182-1.404-.416-1.248-1.456-1.95-2.86-1.95s-2.444.702-2.86 1.95c-.13.39-.182.832-.182 1.404 0 .104.052.156.156.156zm15.964 7.592c-2.418 0-4.134-.988-5.148-1.872a.251.251 0 0 1 0-.364l1.066-1.144a.251.251 0 0 1 .364 0c.936.806 2.34 1.43 3.848 1.43 1.82 0 2.73-.78 2.73-1.898 0-.988-.468-1.534-2.418-1.742l-1.326-.13c-2.444-.26-3.718-1.482-3.718-3.51 0-2.366 1.69-3.796 4.628-3.796 1.82 0 3.38.598 4.42 1.378.13.078.13.234.052.364l-.884 1.118c-.104.13-.234.13-.364.052-.806-.52-2.08-1.014-3.354-1.014-1.56 0-2.366.702-2.366 1.716 0 .988.598 1.508 2.444 1.69l1.3.13c2.522.234 3.744 1.508 3.744 3.51 0 2.444-1.768 4.082-5.018 4.082zm17.914-.286h-1.664c-.156 0-.26-.104-.26-.26V40.51h-.026c-.598.988-1.664 1.742-3.536 1.742-2.158 0-3.666-1.014-4.29-2.99-.338-.988-.442-1.976-.442-3.536 0-1.534.104-2.522.442-3.51.624-1.976 2.132-2.99 4.29-2.99 1.872 0 2.938.728 3.536 1.716h.026v-6.396c0-.156.104-.26.26-.26h1.664c.156 0 .26.104.26.26v17.16c0 .156-.104.26-.26.26zm-4.966-1.742c1.378 0 2.34-.65 2.756-1.898.208-.598.286-1.352.286-2.6s-.078-1.976-.286-2.6c-.416-1.248-1.378-1.872-2.756-1.872s-2.314.65-2.73 1.872c-.208.676-.286 1.482-.286 2.6 0 1.144.078 1.95.286 2.6.416 1.222 1.352 1.898 2.73 1.898zm18.564 1.742h-1.534c-.156 0-.26-.104-.26-.26v-1.092h-.026c-.572.936-1.794 1.638-3.692 1.638-2.366 0-4.186-1.222-4.186-3.744 0-2.626 1.82-3.848 4.862-3.848h2.834c.104 0 .156-.052.156-.156v-.91c0-1.716-.676-2.444-2.99-2.444-1.404 0-2.288.364-3.016.884-.13.104-.286.104-.364-.026l-.702-1.196c-.078-.156-.052-.26.052-.364.936-.728 2.392-1.222 4.238-1.222 3.536 0 4.888 1.17 4.888 4.238v8.242c0 .156-.104.26-.26.26zm-4.992-1.586c1.95 0 3.146-.91 3.146-2.444v-1.378c0-.104-.052-.156-.156-.156h-2.496c-2.158 0-3.094.624-3.094 2.028 0 1.274.936 1.95 2.6 1.95zm10.088 6.266h-.676c-.156 0-.26-.104-.26-.26v-1.508c0-.156.104-.26.26-.26h.468c1.014 0 1.56-.442 2.106-1.872l.416-1.144-4.576-11.83c-.052-.156.026-.26.208-.26h1.82c.156 0 .26.078.312.26l3.276 8.996h.052l3.146-8.996c.052-.182.156-.26.312-.26h1.768c.156 0 .26.104.208.26l-4.914 13.156c-1.092 2.938-2.054 3.718-3.926 3.718zm19.786-4.68h-1.664c-.156 0-.26-.104-.26-.26v-17.16c0-.156.104-.26.26-.26h1.664c.156 0 .26.104.26.26v6.396h.026c.598-.988 1.664-1.716 3.536-1.716 2.158 0 3.666 1.014 4.29 2.99.338.988.442 1.976.442 3.51 0 1.56-.104 2.548-.442 3.536-.624 1.976-2.132 2.99-4.29 2.99-1.872 0-2.938-.754-3.536-1.742h-.026v1.196c0 .156-.104.26-.26.26zm3.302-1.742c1.378 0 2.314-.676 2.73-1.898.208-.65.286-1.456.286-2.6 0-1.118-.078-1.924-.286-2.6-.416-1.222-1.352-1.872-2.73-1.872s-2.34.624-2.756 1.872c-.208.624-.286 1.352-.286 2.6s.078 2.002.286 2.6c.416 1.248 1.378 1.898 2.756 1.898zm13.416 2.028c-2.522 0-4.316-1.222-4.992-3.38-.26-.806-.416-1.716-.416-3.146s.13-2.392.39-3.146c.702-2.158 2.522-3.354 4.888-3.354 2.392 0 4.186 1.222 4.888 3.354.26.806.39 1.664.39 3.562 0 .156-.104.26-.286.26h-7.878c-.104 0-.156.052-.156.156 0 .676.078 1.092.208 1.508.494 1.43 1.612 2.158 3.146 2.158 1.482 0 2.522-.598 3.198-1.378.13-.13.26-.156.39-.052l1.066.962c.13.104.13.234.026.364-.988 1.248-2.678 2.132-4.862 2.132zm-3.016-7.592h5.772c.104 0 .156-.052.156-.156 0-.572-.052-1.014-.182-1.404-.416-1.248-1.456-1.95-2.86-1.95s-2.444.702-2.86 1.95c-.13.39-.182.832-.182 1.404 0 .104.052.156.156.156zm14.014 7.306h-1.664c-.156 0-.26-.104-.26-.26v-10.27c0-.104-.052-.156-.156-.156h-1.066c-.156 0-.26-.104-.26-.26v-1.248c0-.156.104-.26.26-.26h1.066c.104 0 .156-.052.156-.156V28.29c0-2.938 1.196-4.004 3.796-4.004h.962c.156 0 .26.104.26.26v1.508c0 .156-.104.26-.26.26h-.676c-1.586 0-1.898.338-1.898 1.872v1.17c0 .104.052.156.156.156h2.418c.156 0 .26.104.26.26v1.248c0 .156-.104.26-.26.26h-2.418c-.104 0-.156.052-.156.156v10.27c0 .156-.104.26-.26.26zm10.452.286c-2.418 0-4.238-1.248-4.914-3.354-.286-.858-.416-1.716-.416-3.172 0-1.43.13-2.288.416-3.146.676-2.132 2.496-3.354 4.914-3.354 2.418 0 4.238 1.222 4.914 3.354.286.858.416 1.716.416 3.146 0 1.456-.13 2.314-.416 3.172-.676 2.106-2.496 3.354-4.914 3.354zm0-2.028c1.378 0 2.392-.702 2.808-1.95.208-.676.286-1.352.286-2.548s-.078-1.846-.286-2.522c-.416-1.248-1.43-1.95-2.808-1.95s-2.392.702-2.808 1.95c-.208.676-.286 1.326-.286 2.522 0 1.196.078 1.872.286 2.548.416 1.248 1.43 1.95 2.808 1.95zm10.764 1.742h-1.664c-.156 0-.26-.104-.26-.26V29.772c0-.156.104-.26.26-.26h1.664c.156 0 .26.104.26.26v1.274h.026c.546-1.066 1.638-1.82 3.302-1.82.988 0 1.924.364 2.548.936.13.13.156.234.052.364l-.962 1.274c-.104.13-.234.156-.364.052-.572-.364-1.196-.598-1.924-.598-1.898 0-2.678 1.482-2.678 3.64v6.812c0 .156-.104.26-.26.26zm12.922.286c-2.522 0-4.316-1.222-4.992-3.38-.26-.806-.416-1.716-.416-3.146s.13-2.392.39-3.146c.702-2.158 2.522-3.354 4.888-3.354 2.392 0 4.186 1.222 4.888 3.354.26.806.39 1.664.39 3.562 0 .156-.104.26-.286.26h-7.878c-.104 0-.156.052-.156.156 0 .676.078 1.092.208 1.508.494 1.43 1.612 2.158 3.146 2.158 1.482 0 2.522-.598 3.198-1.378.13-.13.26-.156.39-.052l1.066.962c.13.104.13.234.026.364-.988 1.248-2.678 2.132-4.862 2.132zm-3.016-7.592h5.772c.104 0 .156-.052.156-.156 0-.572-.052-1.014-.182-1.404-.416-1.248-1.456-1.95-2.86-1.95s-2.444.702-2.86 1.95c-.13.39-.182.832-.182 1.404 0 .104.052.156.156.156zm22.126 7.046V27.042h-.052l-2.938 2.054c-.156.104-.286.052-.286-.156v-1.924c0-.156.052-.26.182-.364l3.042-2.21a.59.59 0 0 1 .416-.156h1.56c.156 0 .26.104.26.26v17.16c0 .156-.104.26-.26.26h-1.664c-.156 0-.26-.104-.26-.26zm9.958-2.808c-.208-.676-.39-1.612-.39-5.772s.182-5.096.39-5.772c.702-2.158 2.392-3.354 4.836-3.354 2.444 0 4.134 1.196 4.836 3.354.208.676.39 1.612.39 5.772s-.182 5.096-.39 5.772c-.702 2.158-2.392 3.354-4.836 3.354-2.444 0-4.134-1.196-4.836-3.354zm2.158-.442c.416 1.17 1.378 1.768 2.678 1.768s2.262-.598 2.678-1.768c.182-.546.286-1.3.286-5.33s-.104-4.784-.286-5.33c-.416-1.17-1.378-1.768-2.678-1.768s-2.262.598-2.678 1.768c-.182.546-.286 1.3-.286 5.33s.104 4.784.286 5.33zm20.93 3.51h-1.534c-.156 0-.26-.104-.26-.26v-1.092h-.026c-.572.936-1.794 1.638-3.692 1.638-2.366 0-4.186-1.222-4.186-3.744 0-2.626 1.82-3.848 4.862-3.848h2.834c.104 0 .156-.052.156-.156v-.91c0-1.716-.676-2.444-2.99-2.444-1.404 0-2.288.364-3.016.884-.13.104-.286.104-.364-.026l-.702-1.196c-.078-.156-.052-.26.052-.364.936-.728 2.392-1.222 4.238-1.222 3.536 0 4.888 1.17 4.888 4.238v8.242c0 .156-.104.26-.26.26zm-4.992-1.586c1.95 0 3.146-.91 3.146-2.444v-1.378c0-.104-.052-.156-.156-.156h-2.496c-2.158 0-3.094.624-3.094 2.028 0 1.274.936 1.95 2.6 1.95zm26.988 1.586h-1.664c-.156 0-.26-.104-.26-.26v-7.28c0-2.002-.91-3.172-2.782-3.172-1.664 0-2.86 1.196-2.86 3.042v7.41c0 .156-.104.26-.26.26h-1.664c-.156 0-.26-.104-.26-.26v-7.28c0-2.002-.91-3.172-2.782-3.172-1.69 0-2.86 1.196-2.86 3.042v7.41c0 .156-.104.26-.26.26h-1.664c-.156 0-.26-.104-.26-.26V29.772c0-.156.104-.26.26-.26h1.664c.156 0 .26.104.26.26v1.144h.026c.598-.962 1.794-1.69 3.484-1.69s2.938.702 3.64 1.95h.026c.858-1.196 2.132-1.95 4.03-1.95 2.886 0 4.446 1.846 4.446 4.68v7.8c0 .156-.104.26-.26.26zm19.708 0h-1.534c-.156 0-.26-.104-.26-.26v-1.092h-.026c-.572.936-1.794 1.638-3.692 1.638-2.366 0-4.186-1.222-4.186-3.744 0-2.626 1.82-3.848 4.862-3.848h2.834c.104 0 .156-.052.156-.156v-.91c0-1.716-.676-2.444-2.99-2.444-1.404 0-2.288.364-3.016.884-.13.104-.286.104-.364-.026l-.702-1.196c-.078-.156-.052-.26.052-.364.936-.728 2.392-1.222 4.238-1.222 3.536 0 4.888 1.17 4.888 4.238v8.242c0 .156-.104.26-.26.26zm-4.992-1.586c1.95 0 3.146-.91 3.146-2.444v-1.378c0-.104-.052-.156-.156-.156h-2.496c-2.158 0-3.094.624-3.094 2.028 0 1.274.936 1.95 2.6 1.95zm19.162 1.586h-1.664c-.156 0-.26-.104-.26-.26v-7.28c0-2.002-.91-3.172-2.782-3.172-1.69 0-2.86 1.196-2.86 3.042v7.41c0 .156-.104.26-.26.26h-1.664c-.156 0-.26-.104-.26-.26V29.772c0-.156.104-.26.26-.26h1.664c.156 0 .26.104.26.26v1.144h.026c.598-.962 1.794-1.69 3.484-1.69 2.704 0 4.316 1.846 4.316 4.68v7.8c0 .156-.104.26-.26.26zm13.858 0h-1.664c-.156 0-.26-.104-.26-.26V40.51h-.026c-.598.988-1.664 1.742-3.536 1.742-2.158 0-3.666-1.014-4.29-2.99-.338-.988-.442-1.976-.442-3.536 0-1.534.104-2.522.442-3.51.624-1.976 2.132-2.99 4.29-2.99 1.872 0 2.938.728 3.536 1.716h.026v-6.396c0-.156.104-.26.26-.26h1.664c.156 0 .26.104.26.26v17.16c0 .156-.104.26-.26.26zm-4.966-1.742c1.378 0 2.34-.65 2.756-1.898.208-.598.286-1.352.286-2.6s-.078-1.976-.286-2.6c-.416-1.248-1.378-1.872-2.756-1.872s-2.314.65-2.73 1.872c-.208.676-.286 1.482-.286 2.6 0 1.144.078 1.95.286 2.6.416 1.222 1.352 1.898 2.73 1.898zm20.306 1.872h-.962c-2.418 0-3.354-1.092-3.354-3.536v-7.124c0-.104-.052-.156-.156-.156h-1.04c-.156 0-.26-.104-.26-.26v-1.248c0-.156.104-.26.26-.26h1.04c.104 0 .156-.052.156-.156v-3.51c0-.156.104-.26.26-.26h1.664c.156 0 .26.104.26.26v3.51c0 .104.052.156.156.156h1.976c.156 0 .26.104.26.26v1.248c0 .156-.104.26-.26.26h-1.976c-.104 0-.156.052-.156.156v7.046c0 1.248.468 1.586 1.586 1.586h.546c.156 0 .26.104.26.26v1.508c0 .156-.104.26-.26.26zm13.39-.13h-1.664c-.156 0-.26-.104-.26-.26v-7.28c0-2.002-.91-3.172-2.782-3.172-1.69 0-2.86 1.196-2.86 3.042v7.41c0 .156-.104.26-.26.26h-1.664c-.156 0-.26-.104-.26-.26v-17.16c0-.156.104-.26.26-.26h1.664c.156 0 .26.104.26.26v6.37h.026c.598-.962 1.794-1.69 3.484-1.69 2.704 0 4.316 1.846 4.316 4.68v7.8c0 .156-.104.26-.26.26zm9.048.286c-2.522 0-4.316-1.222-4.992-3.38-.26-.806-.416-1.716-.416-3.146s.13-2.392.39-3.146c.702-2.158 2.522-3.354 4.888-3.354 2.392 0 4.186 1.222 4.888 3.354.26.806.39 1.664.39 3.562 0 .156-.104.26-.286.26h-7.878c-.104 0-.156.052-.156.156 0 .676.078 1.092.208 1.508.494 1.43 1.612 2.158 3.146 2.158 1.482 0 2.522-.598 3.198-1.378.13-.13.26-.156.39-.052l1.066.962c.13.104.13.234.026.364-.988 1.248-2.678 2.132-4.862 2.132zm-3.016-7.592h5.772c.104 0 .156-.052.156-.156 0-.572-.052-1.014-.182-1.404-.416-1.248-1.456-1.95-2.86-1.95s-2.444.702-2.86 1.95c-.13.39-.182.832-.182 1.404 0 .104.052.156.156.156zm21.424 7.306h-1.664c-.156 0-.26-.104-.26-.26v-7.28c0-2.002-.91-3.172-2.782-3.172-1.69 0-2.86 1.196-2.86 3.042v7.41c0 .156-.104.26-.26.26h-1.664c-.156 0-.26-.104-.26-.26V29.772c0-.156.104-.26.26-.26h1.664c.156 0 .26.104.26.26v1.144h.026c.598-.962 1.794-1.69 3.484-1.69 2.704 0 4.316 1.846 4.316 4.68v7.8c0 .156-.104.26-.26.26zm12.558 0h-1.664c-.156 0-.26-.104-.26-.26V29.772c0-.156.104-.26.26-.26h1.664c.156 0 .26.104.26.26v1.274h.026c.546-1.066 1.638-1.82 3.302-1.82.988 0 1.924.364 2.548.936.13.13.156.234.052.364l-.962 1.274c-.104.13-.234.156-.364.052-.572-.364-1.196-.598-1.924-.598-1.898 0-2.678 1.482-2.678 3.64v6.812c0 .156-.104.26-.26.26zm12.922.286c-2.522 0-4.316-1.222-4.992-3.38-.26-.806-.416-1.716-.416-3.146s.13-2.392.39-3.146c.702-2.158 2.522-3.354 4.888-3.354 2.392 0 4.186 1.222 4.888 3.354.26.806.39 1.664.39 3.562 0 .156-.104.26-.286.26h-7.878c-.104 0-.156.052-.156.156 0 .676.078 1.092.208 1.508.494 1.43 1.612 2.158 3.146 2.158 1.482 0 2.522-.598 3.198-1.378.13-.13.26-.156.39-.052l1.066.962c.13.104.13.234.026.364-.988 1.248-2.678 2.132-4.862 2.132zm-3.016-7.592h5.772c.104 0 .156-.052.156-.156 0-.572-.052-1.014-.182-1.404-.416-1.248-1.456-1.95-2.86-1.95s-2.444.702-2.86 1.95c-.13.39-.182.832-.182 1.404 0 .104.052.156.156.156zm16.25 7.436h-.962c-2.418 0-3.354-1.092-3.354-3.536v-7.124c0-.104-.052-.156-.156-.156h-1.04c-.156 0-.26-.104-.26-.26v-1.248c0-.156.104-.26.26-.26h1.04c.104 0 .156-.052.156-.156v-3.51c0-.156.104-.26.26-.26h1.664c.156 0 .26.104.26.26v3.51c0 .104.052.156.156.156h1.976c.156 0 .26.104.26.26v1.248c0 .156-.104.26-.26.26h-1.976c-.104 0-.156.052-.156.156v7.046c0 1.248.468 1.586 1.586 1.586h.546c.156 0 .26.104.26.26v1.508c0 .156-.104.26-.26.26zm13.13-.13h-1.664c-.156 0-.26-.104-.26-.26v-1.17h-.026c-.65 1.04-1.794 1.716-3.406 1.716-2.73 0-4.316-1.872-4.316-4.706v-7.774c0-.156.104-.26.26-.26h1.664c.156 0 .26.104.26.26v7.254c0 2.028.91 3.198 2.756 3.198 1.69 0 2.808-1.196 2.808-3.068v-7.384c0-.156.104-.26.26-.26h1.664c.156 0 .26.104.26.26v11.934c0 .156-.104.26-.26.26zm6.448 0h-1.664c-.156 0-.26-.104-.26-.26V29.772c0-.156.104-.26.26-.26h1.664c.156 0 .26.104.26.26v1.274h.026c.546-1.066 1.638-1.82 3.302-1.82.988 0 1.924.364 2.548.936.13.13.156.234.052.364l-.962 1.274c-.104.13-.234.156-.364.052-.572-.364-1.196-.598-1.924-.598-1.898 0-2.678 1.482-2.678 3.64v6.812c0 .156-.104.26-.26.26zm18.486 0h-1.664c-.156 0-.26-.104-.26-.26v-7.28c0-2.002-.91-3.172-2.782-3.172-1.69 0-2.86 1.196-2.86 3.042v7.41c0 .156-.104.26-.26.26h-1.664c-.156 0-.26-.104-.26-.26V29.772c0-.156.104-.26.26-.26h1.664c.156 0 .26.104.26.26v1.144h.026c.598-.962 1.794-1.69 3.484-1.69 2.704 0 4.316 1.846 4.316 4.68v7.8c0 .156-.104.26-.26.26zm-760.63 34h-1.794c-.156 0-.26-.104-.26-.26V60.6c0-.104-.052-.156-.156-.156h-4.836c-.156 0-.26-.104-.26-.26v-1.638c0-.156.104-.26.26-.26H33.13c.156 0 .26.104.26.26v1.638c0 .156-.104.26-.26.26h-4.836c-.104 0-.156.052-.156.156v15.106c0 .156-.104.26-.26.26zm17.966 0H44.18c-.156 0-.26-.104-.26-.26v-7.28c0-2.002-.91-3.172-2.782-3.172-1.69 0-2.86 1.196-2.86 3.042v7.41c0 .156-.104.26-.26.26h-1.664c-.156 0-.26-.104-.26-.26v-17.16c0-.156.104-.26.26-.26h1.664c.156 0 .26.104.26.26v6.37h.026c.598-.962 1.794-1.69 3.484-1.69 2.704 0 4.316 1.846 4.316 4.68v7.8c0 .156-.104.26-.26.26zm13.884 0h-1.664c-.156 0-.26-.104-.26-.26v-1.17h-.026c-.65 1.04-1.794 1.716-3.406 1.716-2.73 0-4.316-1.872-4.316-4.706v-7.774c0-.156.104-.26.26-.26h1.664c.156 0 .26.104.26.26v7.254c0 2.028.91 3.198 2.756 3.198 1.69 0 2.808-1.196 2.808-3.068v-7.384c0-.156.104-.26.26-.26h1.664c.156 0 .26.104.26.26v11.934c0 .156-.104.26-.26.26zm6.448 0h-1.664c-.156 0-.26-.104-.26-.26V63.772c0-.156.104-.26.26-.26h1.664c.156 0 .26.104.26.26v1.274h.026c.546-1.066 1.638-1.82 3.302-1.82.988 0 1.924.364 2.548.936.13.13.156.234.052.364l-.962 1.274c-.104.13-.234.156-.364.052-.572-.364-1.196-.598-1.924-.598-1.898 0-2.678 1.482-2.678 3.64v6.812c0 .156-.104.26-.26.26zm12.818.286c-2.418 0-4.134-.988-5.148-1.872a.251.251 0 0 1 0-.364l1.066-1.144a.251.251 0 0 1 .364 0c.936.806 2.34 1.43 3.848 1.43 1.82 0 2.73-.78 2.73-1.898 0-.988-.468-1.534-2.418-1.742l-1.326-.13c-2.444-.26-3.718-1.482-3.718-3.51 0-2.366 1.69-3.796 4.628-3.796 1.82 0 3.38.598 4.42 1.378.13.078.13.234.052.364l-.884 1.118c-.104.13-.234.13-.364.052-.806-.52-2.08-1.014-3.354-1.014-1.56 0-2.366.702-2.366 1.716 0 .988.598 1.508 2.444 1.69l1.3.13c2.522.234 3.744 1.508 3.744 3.51 0 2.444-1.768 4.082-5.018 4.082zm17.914-.286h-1.664c-.156 0-.26-.104-.26-.26V74.51h-.026c-.598.988-1.664 1.742-3.536 1.742-2.158 0-3.666-1.014-4.29-2.99-.338-.988-.442-1.976-.442-3.536 0-1.534.104-2.522.442-3.51.624-1.976 2.132-2.99 4.29-2.99 1.872 0 2.938.728 3.536 1.716h.026v-6.396c0-.156.104-.26.26-.26h1.664c.156 0 .26.104.26.26v17.16c0 .156-.104.26-.26.26zm-4.966-1.742c1.378 0 2.34-.65 2.756-1.898.208-.598.286-1.352.286-2.6s-.078-1.976-.286-2.6c-.416-1.248-1.378-1.872-2.756-1.872s-2.314.65-2.73 1.872c-.208.676-.286 1.482-.286 2.6 0 1.144.078 1.95.286 2.6.416 1.222 1.352 1.898 2.73 1.898zm18.564 1.742h-1.534c-.156 0-.26-.104-.26-.26v-1.092h-.026c-.572.936-1.794 1.638-3.692 1.638-2.366 0-4.186-1.222-4.186-3.744 0-2.626 1.82-3.848 4.862-3.848h2.834c.104 0 .156-.052.156-.156v-.91c0-1.716-.676-2.444-2.99-2.444-1.404 0-2.288.364-3.016.884-.13.104-.286.104-.364-.026l-.702-1.196c-.078-.156-.052-.26.052-.364.936-.728 2.392-1.222 4.238-1.222 3.536 0 4.888 1.17 4.888 4.238v8.242c0 .156-.104.26-.26.26zm-4.992-1.586c1.95 0 3.146-.91 3.146-2.444v-1.378c0-.104-.052-.156-.156-.156h-2.496c-2.158 0-3.094.624-3.094 2.028 0 1.274.936 1.95 2.6 1.95zm10.088 6.266h-.676c-.156 0-.26-.104-.26-.26v-1.508c0-.156.104-.26.26-.26h.468c1.014 0 1.56-.442 2.106-1.872l.416-1.144-4.576-11.83c-.052-.156.026-.26.208-.26h1.82c.156 0 .26.078.312.26l3.276 8.996h.052l3.146-8.996c.052-.182.156-.26.312-.26h1.768c.156 0 .26.104.208.26l-4.914 13.156c-1.092 2.938-2.054 3.718-3.926 3.718zm22.516-4.394c-2.522 0-4.316-1.222-4.992-3.38-.26-.806-.416-1.716-.416-3.146s.13-2.392.39-3.146c.702-2.158 2.522-3.354 4.888-3.354 2.392 0 4.186 1.222 4.888 3.354.26.806.39 1.664.39 3.562 0 .156-.104.26-.286.26h-7.878c-.104 0-.156.052-.156.156 0 .676.078 1.092.208 1.508.494 1.43 1.612 2.158 3.146 2.158 1.482 0 2.522-.598 3.198-1.378.13-.13.26-.156.39-.052l1.066.962c.13.104.13.234.026.364-.988 1.248-2.678 2.132-4.862 2.132zm-3.016-7.592h5.772c.104 0 .156-.052.156-.156 0-.572-.052-1.014-.182-1.404-.416-1.248-1.456-1.95-2.86-1.95s-2.444.702-2.86 1.95c-.13.39-.182.832-.182 1.404 0 .104.052.156.156.156zm16.484 7.306h-1.482c-.182 0-.26-.104-.312-.26l-4.472-11.934c-.052-.156.026-.26.208-.26h1.794c.182 0 .26.078.338.26l3.224 8.944h.052l3.146-8.944c.052-.182.156-.26.312-.26h1.768c.182 0 .26.104.208.26l-4.446 11.934c-.052.156-.156.26-.338.26zm12.142.286c-2.522 0-4.316-1.222-4.992-3.38-.26-.806-.416-1.716-.416-3.146s.13-2.392.39-3.146c.702-2.158 2.522-3.354 4.888-3.354 2.392 0 4.186 1.222 4.888 3.354.26.806.39 1.664.39 3.562 0 .156-.104.26-.286.26h-7.878c-.104 0-.156.052-.156.156 0 .676.078 1.092.208 1.508.494 1.43 1.612 2.158 3.146 2.158 1.482 0 2.522-.598 3.198-1.378.13-.13.26-.156.39-.052l1.066.962c.13.104.13.234.026.364-.988 1.248-2.678 2.132-4.862 2.132zm-3.016-7.592h5.772c.104 0 .156-.052.156-.156 0-.572-.052-1.014-.182-1.404-.416-1.248-1.456-1.95-2.86-1.95s-2.444.702-2.86 1.95c-.13.39-.182.832-.182 1.404 0 .104.052.156.156.156zm21.424 7.306h-1.664c-.156 0-.26-.104-.26-.26v-7.28c0-2.002-.91-3.172-2.782-3.172-1.69 0-2.86 1.196-2.86 3.042v7.41c0 .156-.104.26-.26.26h-1.664c-.156 0-.26-.104-.26-.26V63.772c0-.156.104-.26.26-.26h1.664c.156 0 .26.104.26.26v1.144h.026c.598-.962 1.794-1.69 3.484-1.69 2.704 0 4.316 1.846 4.316 4.68v7.8c0 .156-.104.26-.26.26zm6.37-15.262h-1.768c-.156 0-.26-.104-.26-.26v-1.898c0-.156.104-.26.26-.26h1.768c.156 0 .26.104.26.26v1.898c0 .156-.104.26-.26.26zm-.052 15.262h-1.664c-.156 0-.26-.104-.26-.26V63.772c0-.156.104-.26.26-.26h1.664c.156 0 .26.104.26.26v11.934c0 .156-.104.26-.26.26zm14.274 0h-1.664c-.156 0-.26-.104-.26-.26v-7.28c0-2.002-.91-3.172-2.782-3.172-1.69 0-2.86 1.196-2.86 3.042v7.41c0 .156-.104.26-.26.26h-1.664c-.156 0-.26-.104-.26-.26V63.772c0-.156.104-.26.26-.26h1.664c.156 0 .26.104.26.26v1.144h.026c.598-.962 1.794-1.69 3.484-1.69 2.704 0 4.316 1.846 4.316 4.68v7.8c0 .156-.104.26-.26.26zm8.45 4.966c-1.742 0-3.484-.754-4.316-1.846-.104-.13-.104-.234.026-.364l1.066-1.066c.13-.13.26-.13.39 0 .858.78 1.742 1.248 2.938 1.248 2.054 0 3.146-1.066 3.146-3.354v-1.456h-.026c-.572 1.04-1.638 1.716-3.458 1.716-2.106 0-3.562-1.066-4.186-3.016-.312-.936-.416-1.846-.416-3.276 0-1.43.104-2.34.416-3.276.624-1.95 2.08-3.016 4.186-3.016 1.82 0 2.886.676 3.458 1.716h.026v-1.17c0-.156.104-.26.26-.26h1.664c.156 0 .26.104.26.26V75.42c0 3.536-1.924 5.512-5.434 5.512zm.312-7.124c1.3 0 2.21-.598 2.652-1.872.208-.624.286-1.352.286-2.418s-.078-1.768-.286-2.418c-.442-1.274-1.352-1.846-2.652-1.846-1.352 0-2.21.65-2.626 1.846-.208.65-.312 1.404-.312 2.418 0 1.014.104 1.794.312 2.418.416 1.222 1.274 1.872 2.626 1.872zm17.966 2.158h-1.664c-.156 0-.26-.104-.26-.26v-10.27c0-.104-.052-.156-.156-.156h-1.066c-.156 0-.26-.104-.26-.26v-1.248c0-.156.104-.26.26-.26h1.066c.104 0 .156-.052.156-.156V62.29c0-2.938 1.196-4.004 3.796-4.004h.962c.156 0 .26.104.26.26v1.508c0 .156-.104.26-.26.26h-.676c-1.586 0-1.898.338-1.898 1.872v1.17c0 .104.052.156.156.156h2.418c.156 0 .26.104.26.26v1.248c0 .156-.104.26-.26.26h-2.418c-.104 0-.156.052-.156.156v10.27c0 .156-.104.26-.26.26zm7.852 0h-1.664c-.156 0-.26-.104-.26-.26V63.772c0-.156.104-.26.26-.26h1.664c.156 0 .26.104.26.26v1.274h.026c.546-1.066 1.638-1.82 3.302-1.82.988 0 1.924.364 2.548.936.13.13.156.234.052.364l-.962 1.274c-.104.13-.234.156-.364.052-.572-.364-1.196-.598-1.924-.598-1.898 0-2.678 1.482-2.678 3.64v6.812c0 .156-.104.26-.26.26zm12.844.286c-2.418 0-4.238-1.248-4.914-3.354-.286-.858-.416-1.716-.416-3.172 0-1.43.13-2.288.416-3.146.676-2.132 2.496-3.354 4.914-3.354 2.418 0 4.238 1.222 4.914 3.354.286.858.416 1.716.416 3.146 0 1.456-.13 2.314-.416 3.172-.676 2.106-2.496 3.354-4.914 3.354zm0-2.028c1.378 0 2.392-.702 2.808-1.95.208-.676.286-1.352.286-2.548s-.078-1.846-.286-2.522c-.416-1.248-1.43-1.95-2.808-1.95s-2.392.702-2.808 1.95c-.208.676-.286 1.326-.286 2.522 0 1.196.078 1.872.286 2.548.416 1.248 1.43 1.95 2.808 1.95zm26.416 1.742h-1.664c-.156 0-.26-.104-.26-.26v-7.28c0-2.002-.91-3.172-2.782-3.172-1.664 0-2.86 1.196-2.86 3.042v7.41c0 .156-.104.26-.26.26h-1.664c-.156 0-.26-.104-.26-.26v-7.28c0-2.002-.91-3.172-2.782-3.172-1.69 0-2.86 1.196-2.86 3.042v7.41c0 .156-.104.26-.26.26h-1.664c-.156 0-.26-.104-.26-.26V63.772c0-.156.104-.26.26-.26h1.664c.156 0 .26.104.26.26v1.144h.026c.598-.962 1.794-1.69 3.484-1.69s2.938.702 3.64 1.95h.026c.858-1.196 2.132-1.95 4.03-1.95 2.886 0 4.446 1.846 4.446 4.68v7.8c0 .156-.104.26-.26.26zm10.686-.26v-17.16c0-.156.104-.26.26-.26h1.794c.156 0 .26.104.26.26v15.106c0 .104.052.156.156.156h8.424c.156 0 .26.104.26.26v1.638c0 .156-.104.26-.26.26h-10.634c-.156 0-.26-.104-.26-.26zm13.052-3.588c-.312-1.014-.468-2.08-.468-4.992s.156-3.978.468-4.992c.884-2.73 3.068-4.134 6.058-4.134 3.094 0 4.992 1.56 5.876 3.51.078.156.052.286-.078.364l-1.56.754c-.156.078-.286.026-.364-.13-.858-1.586-2.002-2.34-3.874-2.34-2.002 0-3.276.936-3.822 2.626-.234.65-.364 1.638-.364 4.342 0 2.704.13 3.692.364 4.342.546 1.69 1.82 2.626 3.822 2.626 1.794 0 3.25-.884 3.796-2.548.182-.598.338-1.456.338-2.782 0-.104-.052-.156-.156-.156h-3.432c-.156 0-.26-.104-.26-.26V66.84c0-.156.104-.26.26-.26h5.642c.156 0 .26.104.26.26v1.326c0 1.586-.182 3.042-.442 3.9-.858 2.678-3.068 4.186-6.006 4.186-2.99 0-5.174-1.404-6.058-4.134zm14.17 3.588l6.136-17.16c.052-.156.13-.26.312-.26h1.69c.182 0 .286.104.338.26l6.058 17.16c.052.156-.026.26-.182.26h-1.82c-.182 0-.286-.078-.338-.26l-1.352-3.848h-7.15l-1.352 3.848c-.078.182-.182.26-.338.26h-1.82c-.156 0-.234-.104-.182-.26zm4.446-5.98h5.642l-2.782-8.034h-.052l-2.808 8.034zm28.158 6.24h-1.534c-.156 0-.26-.104-.26-.26v-1.092h-.026c-.572.936-1.794 1.638-3.692 1.638-2.366 0-4.186-1.222-4.186-3.744 0-2.626 1.82-3.848 4.862-3.848h2.834c.104 0 .156-.052.156-.156v-.91c0-1.716-.676-2.444-2.99-2.444-1.404 0-2.288.364-3.016.884-.13.104-.286.104-.364-.026l-.702-1.196c-.078-.156-.052-.26.052-.364.936-.728 2.392-1.222 4.238-1.222 3.536 0 4.888 1.17 4.888 4.238v8.242c0 .156-.104.26-.26.26zm-4.992-1.586c1.95 0 3.146-.91 3.146-2.444v-1.378c0-.104-.052-.156-.156-.156h-2.496c-2.158 0-3.094.624-3.094 2.028 0 1.274.936 1.95 2.6 1.95zm11.388-13.676h-1.768c-.156 0-.26-.104-.26-.26v-1.898c0-.156.104-.26.26-.26h1.768c.156 0 .26.104.26.26v1.898c0 .156-.104.26-.26.26zm-.052 15.262h-1.664c-.156 0-.26-.104-.26-.26V63.772c0-.156.104-.26.26-.26h1.664c.156 0 .26.104.26.26v11.934c0 .156-.104.26-.26.26zm6.448 0h-1.664c-.156 0-.26-.104-.26-.26V63.772c0-.156.104-.26.26-.26h1.664c.156 0 .26.104.26.26v1.274h.026c.546-1.066 1.638-1.82 3.302-1.82.988 0 1.924.364 2.548.936.13.13.156.234.052.364l-.962 1.274c-.104.13-.234.156-.364.052-.572-.364-1.196-.598-1.924-.598-1.898 0-2.678 1.482-2.678 3.64v6.812c0 .156-.104.26-.26.26zm10.66 4.68h-1.664c-.156 0-.26-.104-.26-.26V63.772c0-.156.104-.26.26-.26h1.664c.156 0 .26.104.26.26v1.17h.026c.598-.988 1.664-1.716 3.536-1.716 2.158 0 3.666 1.014 4.29 2.99.338.988.442 1.976.442 3.51 0 1.56-.104 2.548-.442 3.536-.624 1.976-2.132 2.99-4.29 2.99-1.872 0-2.938-.754-3.536-1.742h-.026v5.876c0 .156-.104.26-.26.26zm3.302-6.422c1.378 0 2.314-.676 2.73-1.898.208-.65.286-1.456.286-2.6 0-1.118-.078-1.924-.286-2.6-.416-1.222-1.352-1.872-2.73-1.872s-2.34.624-2.756 1.872c-.208.624-.286 1.352-.286 2.6s.078 2.002.286 2.6c.416 1.248 1.378 1.898 2.756 1.898zm13.338 2.028c-2.418 0-4.238-1.248-4.914-3.354-.286-.858-.416-1.716-.416-3.172 0-1.43.13-2.288.416-3.146.676-2.132 2.496-3.354 4.914-3.354 2.418 0 4.238 1.222 4.914 3.354.286.858.416 1.716.416 3.146 0 1.456-.13 2.314-.416 3.172-.676 2.106-2.496 3.354-4.914 3.354zm0-2.028c1.378 0 2.392-.702 2.808-1.95.208-.676.286-1.352.286-2.548s-.078-1.846-.286-2.522c-.416-1.248-1.43-1.95-2.808-1.95s-2.392.702-2.808 1.95c-.208.676-.286 1.326-.286 2.522 0 1.196.078 1.872.286 2.548.416 1.248 1.43 1.95 2.808 1.95zm10.764 1.742h-1.664c-.156 0-.26-.104-.26-.26V63.772c0-.156.104-.26.26-.26h1.664c.156 0 .26.104.26.26v1.274h.026c.546-1.066 1.638-1.82 3.302-1.82.988 0 1.924.364 2.548.936.13.13.156.234.052.364l-.962 1.274c-.104.13-.234.156-.364.052-.572-.364-1.196-.598-1.924-.598-1.898 0-2.678 1.482-2.678 3.64v6.812c0 .156-.104.26-.26.26zm13.312.13h-.962c-2.418 0-3.354-1.092-3.354-3.536v-7.124c0-.104-.052-.156-.156-.156h-1.04c-.156 0-.26-.104-.26-.26v-1.248c0-.156.104-.26.26-.26h1.04c.104 0 .156-.052.156-.156v-3.51c0-.156.104-.26.26-.26h1.664c.156 0 .26.104.26.26v3.51c0 .104.052.156.156.156h1.976c.156 0 .26.104.26.26v1.248c0 .156-.104.26-.26.26h-1.976c-.104 0-.156.052-.156.156v7.046c0 1.248.468 1.586 1.586 1.586h.546c.156 0 .26.104.26.26v1.508c0 .156-.104.26-.26.26zm3.458-.39V73.47c0-.156.104-.26.26-.26h1.976c.156 0 .26.104.26.26v2.236c0 .156-.104.26-.26.26h-1.976c-.156 0-.26-.104-.26-.26zm12.194 0v-17.16c0-.156.104-.26.26-.26h1.794c.156 0 .26.104.26.26v17.16c0 .156-.104.26-.26.26h-1.794c-.156 0-.26-.104-.26-.26zm25.064.26h-1.482c-.156 0-.26-.104-.312-.26l-2.808-8.918h-.052l-2.834 8.918c-.052.156-.156.26-.312.26h-1.508c-.156 0-.26-.104-.312-.26l-3.9-11.934c-.052-.156.026-.26.182-.26h1.768c.182 0 .26.052.338.26l2.756 8.996h.052l2.808-8.996c.052-.182.156-.26.312-.26h1.352c.156 0 .286.078.338.26l2.834 8.996h.052l2.678-8.996c.052-.208.156-.26.338-.26h1.768c.156 0 .234.104.182.26l-3.926 11.934c-.052.156-.13.26-.312.26zm16.146 0h-1.534c-.156 0-.26-.104-.26-.26v-1.092h-.026c-.572.936-1.794 1.638-3.692 1.638-2.366 0-4.186-1.222-4.186-3.744 0-2.626 1.82-3.848 4.862-3.848h2.834c.104 0 .156-.052.156-.156v-.91c0-1.716-.676-2.444-2.99-2.444-1.404 0-2.288.364-3.016.884-.13.104-.286.104-.364-.026l-.702-1.196c-.078-.156-.052-.26.052-.364.936-.728 2.392-1.222 4.238-1.222 3.536 0 4.888 1.17 4.888 4.238v8.242c0 .156-.104.26-.26.26zm-4.992-1.586c1.95 0 3.146-.91 3.146-2.444v-1.378c0-.104-.052-.156-.156-.156h-2.496c-2.158 0-3.094.624-3.094 2.028 0 1.274.936 1.95 2.6 1.95zm19.162 1.586h-1.664c-.156 0-.26-.104-.26-.26v-7.28c0-2.002-.91-3.172-2.782-3.172-1.69 0-2.86 1.196-2.86 3.042v7.41c0 .156-.104.26-.26.26h-1.664c-.156 0-.26-.104-.26-.26V63.772c0-.156.104-.26.26-.26h1.664c.156 0 .26.104.26.26v1.144h.026c.598-.962 1.794-1.69 3.484-1.69 2.704 0 4.316 1.846 4.316 4.68v7.8c0 .156-.104.26-.26.26zm8.97.13h-.962c-2.418 0-3.354-1.092-3.354-3.536v-7.124c0-.104-.052-.156-.156-.156h-1.04c-.156 0-.26-.104-.26-.26v-1.248c0-.156.104-.26.26-.26h1.04c.104 0 .156-.052.156-.156v-3.51c0-.156.104-.26.26-.26h1.664c.156 0 .26.104.26.26v3.51c0 .104.052.156.156.156h1.976c.156 0 .26.104.26.26v1.248c0 .156-.104.26-.26.26h-1.976c-.104 0-.156.052-.156.156v7.046c0 1.248.468 1.586 1.586 1.586h.546c.156 0 .26.104.26.26v1.508c0 .156-.104.26-.26.26zm14.456 0h-.962c-2.418 0-3.354-1.092-3.354-3.536v-7.124c0-.104-.052-.156-.156-.156h-1.04c-.156 0-.26-.104-.26-.26v-1.248c0-.156.104-.26.26-.26h1.04c.104 0 .156-.052.156-.156v-3.51c0-.156.104-.26.26-.26h1.664c.156 0 .26.104.26.26v3.51c0 .104.052.156.156.156h1.976c.156 0 .26.104.26.26v1.248c0 .156-.104.26-.26.26h-1.976c-.104 0-.156.052-.156.156v7.046c0 1.248.468 1.586 1.586 1.586h.546c.156 0 .26.104.26.26v1.508c0 .156-.104.26-.26.26zm8.216.156c-2.418 0-4.238-1.248-4.914-3.354-.286-.858-.416-1.716-.416-3.172 0-1.43.13-2.288.416-3.146.676-2.132 2.496-3.354 4.914-3.354 2.418 0 4.238 1.222 4.914 3.354.286.858.416 1.716.416 3.146 0 1.456-.13 2.314-.416 3.172-.676 2.106-2.496 3.354-4.914 3.354zm0-2.028c1.378 0 2.392-.702 2.808-1.95.208-.676.286-1.352.286-2.548s-.078-1.846-.286-2.522c-.416-1.248-1.43-1.95-2.808-1.95s-2.392.702-2.808 1.95c-.208.676-.286 1.326-.286 2.522 0 1.196.078 1.872.286 2.548.416 1.248 1.43 1.95 2.808 1.95zm17.42 1.742h-1.664c-.156 0-.26-.104-.26-.26v-10.27c0-.104-.052-.156-.156-.156h-1.066c-.156 0-.26-.104-.26-.26v-1.248c0-.156.104-.26.26-.26h1.066c.104 0 .156-.052.156-.156V62.29c0-2.938 1.196-4.004 3.796-4.004h.962c.156 0 .26.104.26.26v1.508c0 .156-.104.26-.26.26h-.676c-1.586 0-1.898.338-1.898 1.872v1.17c0 .104.052.156.156.156h2.418c.156 0 .26.104.26.26v1.248c0 .156-.104.26-.26.26h-2.418c-.104 0-.156.052-.156.156v10.27c0 .156-.104.26-.26.26zm9.802.13h-.884c-2.184 0-3.042-1.04-3.042-3.276V58.546c0-.156.104-.26.26-.26h1.664c.156 0 .26.104.26.26V72.69c0 1.04.39 1.378 1.248 1.378h.494c.156 0 .26.104.26.26v1.508c0 .156-.104.26-.26.26zm4.004 4.55h-.676c-.156 0-.26-.104-.26-.26v-1.508c0-.156.104-.26.26-.26h.468c1.014 0 1.56-.442 2.106-1.872l.416-1.144-4.576-11.83c-.052-.156.026-.26.208-.26h1.82c.156 0 .26.078.312.26l3.276 8.996h.052l3.146-8.996c.052-.182.156-.26.312-.26h1.768c.156 0 .26.104.208.26l-4.914 13.156c-1.092 2.938-2.054 3.718-3.926 3.718zm19.786-4.68h-1.664c-.156 0-.26-.104-.26-.26v-17.16c0-.156.104-.26.26-.26h1.664c.156 0 .26.104.26.26v6.396h.026c.598-.988 1.664-1.716 3.536-1.716 2.158 0 3.666 1.014 4.29 2.99.338.988.442 1.976.442 3.51 0 1.56-.104 2.548-.442 3.536-.624 1.976-2.132 2.99-4.29 2.99-1.872 0-2.938-.754-3.536-1.742h-.026v1.196c0 .156-.104.26-.26.26zm3.302-1.742c1.378 0 2.314-.676 2.73-1.898.208-.65.286-1.456.286-2.6 0-1.118-.078-1.924-.286-2.6-.416-1.222-1.352-1.872-2.73-1.872s-2.34.624-2.756 1.872c-.208.624-.286 1.352-.286 2.6s.078 2.002.286 2.6c.416 1.248 1.378 1.898 2.756 1.898zm18.252 1.742h-1.664c-.156 0-.26-.104-.26-.26v-1.17h-.026c-.65 1.04-1.794 1.716-3.406 1.716-2.73 0-4.316-1.872-4.316-4.706v-7.774c0-.156.104-.26.26-.26h1.664c.156 0 .26.104.26.26v7.254c0 2.028.91 3.198 2.756 3.198 1.69 0 2.808-1.196 2.808-3.068v-7.384c0-.156.104-.26.26-.26h1.664c.156 0 .26.104.26.26v11.934c0 .156-.104.26-.26.26zm8.814.286c-2.418 0-4.134-.988-5.148-1.872a.251.251 0 0 1 0-.364l1.066-1.144a.251.251 0 0 1 .364 0c.936.806 2.34 1.43 3.848 1.43 1.82 0 2.73-.78 2.73-1.898 0-.988-.468-1.534-2.418-1.742l-1.326-.13c-2.444-.26-3.718-1.482-3.718-3.51 0-2.366 1.69-3.796 4.628-3.796 1.82 0 3.38.598 4.42 1.378.13.078.13.234.052.364l-.884 1.118c-.104.13-.234.13-.364.052-.806-.52-2.08-1.014-3.354-1.014-1.56 0-2.366.702-2.366 1.716 0 .988.598 1.508 2.444 1.69l1.3.13c2.522.234 3.744 1.508 3.744 3.51 0 2.444-1.768 4.082-5.018 4.082zm10.426-15.548h-1.768c-.156 0-.26-.104-.26-.26v-1.898c0-.156.104-.26.26-.26h1.768c.156 0 .26.104.26.26v1.898c0 .156-.104.26-.26.26zm-.052 15.262h-1.664c-.156 0-.26-.104-.26-.26V63.772c0-.156.104-.26.26-.26h1.664c.156 0 .26.104.26.26v11.934c0 .156-.104.26-.26.26zm14.274 0h-1.664c-.156 0-.26-.104-.26-.26v-7.28c0-2.002-.91-3.172-2.782-3.172-1.69 0-2.86 1.196-2.86 3.042v7.41c0 .156-.104.26-.26.26h-1.664c-.156 0-.26-.104-.26-.26V63.772c0-.156.104-.26.26-.26h1.664c.156 0 .26.104.26.26v1.144h.026c.598-.962 1.794-1.69 3.484-1.69 2.704 0 4.316 1.846 4.316 4.68v7.8c0 .156-.104.26-.26.26zm9.048.286c-2.522 0-4.316-1.222-4.992-3.38-.26-.806-.416-1.716-.416-3.146s.13-2.392.39-3.146c.702-2.158 2.522-3.354 4.888-3.354 2.392 0 4.186 1.222 4.888 3.354.26.806.39 1.664.39 3.562 0 .156-.104.26-.286.26h-7.878c-.104 0-.156.052-.156.156 0 .676.078 1.092.208 1.508.494 1.43 1.612 2.158 3.146 2.158 1.482 0 2.522-.598 3.198-1.378.13-.13.26-.156.39-.052l1.066.962c.13.104.13.234.026.364-.988 1.248-2.678 2.132-4.862 2.132zm-3.016-7.592h5.772c.104 0 .156-.052.156-.156 0-.572-.052-1.014-.182-1.404-.416-1.248-1.456-1.95-2.86-1.95s-2.444.702-2.86 1.95c-.13.39-.182.832-.182 1.404 0 .104.052.156.156.156zm15.964 7.592c-2.418 0-4.134-.988-5.148-1.872a.251.251 0 0 1 0-.364l1.066-1.144a.251.251 0 0 1 .364 0c.936.806 2.34 1.43 3.848 1.43 1.82 0 2.73-.78 2.73-1.898 0-.988-.468-1.534-2.418-1.742l-1.326-.13c-2.444-.26-3.718-1.482-3.718-3.51 0-2.366 1.69-3.796 4.628-3.796 1.82 0 3.38.598 4.42 1.378.13.078.13.234.052.364l-.884 1.118c-.104.13-.234.13-.364.052-.806-.52-2.08-1.014-3.354-1.014-1.56 0-2.366.702-2.366 1.716 0 .988.598 1.508 2.444 1.69l1.3.13c2.522.234 3.744 1.508 3.744 3.51 0 2.444-1.768 4.082-5.018 4.082zm12.74 0c-2.418 0-4.134-.988-5.148-1.872a.251.251 0 0 1 0-.364l1.066-1.144a.251.251 0 0 1 .364 0c.936.806 2.34 1.43 3.848 1.43 1.82 0 2.73-.78 2.73-1.898 0-.988-.468-1.534-2.418-1.742l-1.326-.13c-2.444-.26-3.718-1.482-3.718-3.51 0-2.366 1.69-3.796 4.628-3.796 1.82 0 3.38.598 4.42 1.378.13.078.13.234.052.364l-.884 1.118c-.104.13-.234.13-.364.052-.806-.52-2.08-1.014-3.354-1.014-1.56 0-2.366.702-2.366 1.716 0 .988.598 1.508 2.444 1.69l1.3.13c2.522.234 3.744 1.508 3.744 3.51 0 2.444-1.768 4.082-5.018 4.082zm13.936-6.526c0-1.378.156-2.392.39-3.146.702-2.158 2.522-3.354 4.914-3.354 1.898 0 3.354.806 4.264 2.106.078.13.078.234-.078.364l-1.144.936c-.13.104-.26.104-.364-.026-.728-.91-1.43-1.352-2.678-1.352-1.352 0-2.366.65-2.782 1.95-.208.65-.286 1.43-.286 2.522 0 1.118.078 1.898.286 2.548.416 1.3 1.43 1.95 2.782 1.95 1.248 0 1.95-.442 2.678-1.352.104-.13.234-.13.364-.026l1.144.936c.156.13.156.234.078.364-.91 1.3-2.366 2.106-4.264 2.106-2.392 0-4.212-1.196-4.914-3.354-.234-.754-.39-1.768-.39-3.172zm16.9 6.37h-.884c-2.184 0-3.042-1.04-3.042-3.276V58.546c0-.156.104-.26.26-.26h1.664c.156 0 .26.104.26.26V72.69c0 1.04.39 1.378 1.248 1.378h.494c.156 0 .26.104.26.26v1.508c0 .156-.104.26-.26.26zm12.402-.13h-1.534c-.156 0-.26-.104-.26-.26v-1.092h-.026c-.572.936-1.794 1.638-3.692 1.638-2.366 0-4.186-1.222-4.186-3.744 0-2.626 1.82-3.848 4.862-3.848h2.834c.104 0 .156-.052.156-.156v-.91c0-1.716-.676-2.444-2.99-2.444-1.404 0-2.288.364-3.016.884-.13.104-.286.104-.364-.026l-.702-1.196c-.078-.156-.052-.26.052-.364.936-.728 2.392-1.222 4.238-1.222 3.536 0 4.888 1.17 4.888 4.238v8.242c0 .156-.104.26-.26.26zm-4.992-1.586c1.95 0 3.146-.91 3.146-2.444v-1.378c0-.104-.052-.156-.156-.156h-2.496c-2.158 0-3.094.624-3.094 2.028 0 1.274.936 1.95 2.6 1.95zm13.702 1.872c-2.418 0-4.134-.988-5.148-1.872a.251.251 0 0 1 0-.364l1.066-1.144a.251.251 0 0 1 .364 0c.936.806 2.34 1.43 3.848 1.43 1.82 0 2.73-.78 2.73-1.898 0-.988-.468-1.534-2.418-1.742l-1.326-.13c-2.444-.26-3.718-1.482-3.718-3.51 0-2.366 1.69-3.796 4.628-3.796 1.82 0 3.38.598 4.42 1.378.13.078.13.234.052.364l-.884 1.118c-.104.13-.234.13-.364.052-.806-.52-2.08-1.014-3.354-1.014-1.56 0-2.366.702-2.366 1.716 0 .988.598 1.508 2.444 1.69l1.3.13c2.522.234 3.744 1.508 3.744 3.51 0 2.444-1.768 4.082-5.018 4.082zm12.74 0c-2.418 0-4.134-.988-5.148-1.872a.251.251 0 0 1 0-.364l1.066-1.144a.251.251 0 0 1 .364 0c.936.806 2.34 1.43 3.848 1.43 1.82 0 2.73-.78 2.73-1.898 0-.988-.468-1.534-2.418-1.742l-1.326-.13c-2.444-.26-3.718-1.482-3.718-3.51 0-2.366 1.69-3.796 4.628-3.796 1.82 0 3.38.598 4.42 1.378.13.078.13.234.052.364l-.884 1.118c-.104.13-.234.13-.364.052-.806-.52-2.08-1.014-3.354-1.014-1.56 0-2.366.702-2.366 1.716 0 .988.598 1.508 2.444 1.69l1.3.13c2.522.234 3.744 1.508 3.744 3.51 0 2.444-1.768 4.082-5.018 4.082zm8.138-.546V73.47c0-.156.104-.26.26-.26h1.976c.156 0 .26.104.26.26v2.236c0 .156-.104.26-.26.26h-1.976c-.156 0-.26-.104-.26-.26z" fill="#666" fill-rule="nonzero"/></g></svg>