<svg viewBox="0 0 1173 247" xmlns="http://www.w3.org/2000/svg" xmlns:xlink="http://www.w3.org/1999/xlink"><defs><path id="a" d="M115.964 35l4.25-4.66a.565.565 0 0 0 .136-.467.567.567 0 0 0-.273-.384l-7.327-4.168h-.027c-.164-.082-.273-.247-.327-.439a.609.609 0 0 1 .163-.52c.137-.138.327-.193.545-.165l10.46 2.056c.163.028.327 0 .463-.11l4.413-3.674.027-.027c.3-.302.708-.466 1.144-.439a1.54 1.54 0 0 1 1.09.576c.463.576.38 1.453-.191 2.002l-.027.027-3.596 4.387a.58.58 0 0 0-.109.467l2.07 10.53a.626.626 0 0 1-.136.493l-.109.082a.52.52 0 0 1-.463.165.57.57 0 0 1-.409-.302v-.027l-4.222-7.431a.563.563 0 0 0-.38-.275.584.584 0 0 0-.464.137l-4.63 4.278a.555.555 0 0 0-.164.494l.654 3.702a.609.609 0 0 1-.164.52.6.6 0 0 1-.517.165.542.542 0 0 1-.436-.329l-1.907-3.839a.536.536 0 0 0-.245-.247l-3.95-1.864a.527.527 0 0 1-.3-.412.555.555 0 0 1 .164-.493l.136-.137a.536.536 0 0 1 .382-.165h.081l3.705.63c.19.083.381 0 .49-.136z"/><path id="c" d="M25.412 21.296a1.28 1.28 0 0 0-.016.14c-.27 4.868-4.126 8.682-8.78 8.682-2.378 0-4.607-.982-6.275-2.763l-.007-.008-8.094-8.491a1.305 1.305 0 0 1-.358-.906c0-.342.127-.663.358-.905a1.186 1.186 0 0 1 1.726 0l3.125 3.278c.317.333.795.432 1.21.253.414-.18.685-.605.685-1.076V3.163c0-.706.547-1.28 1.22-1.28.673 0 1.22.574 1.22 1.28v11.003c0 .643.498 1.164 1.11 1.164.613 0 1.11-.521 1.11-1.164v-4.89c0-.707.548-1.28 1.221-1.28s1.22.574 1.22 1.28v4.89c0 .643.498 1.165 1.11 1.165.613 0 1.11-.522 1.11-1.165v-2.445c0-.706.548-1.28 1.221-1.28s1.22.574 1.22 1.28v3.668c0 .643.498 1.164 1.11 1.164.614 0 1.11-.521 1.11-1.164v-1.223c0-.706.548-1.28 1.22-1.28.674 0 1.221.574 1.221 1.28v7.13h.003z"/><filter id="b" x="-29.8%" y="-17.7%" width="159.5%" height="149.6%" filterUnits="objectBoundingBox"><feOffset dy="2" in="SourceAlpha" result="shadowOffsetOuter1"/><feGaussianBlur stdDeviation="2" in="shadowOffsetOuter1" result="shadowBlurOuter1"/><feColorMatrix values="0 0 0 0 0 0 0 0 0 0 0 0 0 0 0 0 0 0 0.5 0" in="shadowBlurOuter1"/></filter></defs><g fill="none" fill-rule="evenodd"><path fill="#13172C" d="M0 0h1173v247H0z"/><g class="channel-header"><use fill="#FFF" xlink:href="#a"/><path d="M145.35 41.75l5.85-16.5c.05-.15.15-.25.325-.25h3.15c.175 0 .275.1.325.25l5.75 16.5c.05.15 0 .25-.175.25h-3.25c-.175 0-.275-.075-.325-.25l-.975-2.975h-5.95l-.95 2.975c-.05.175-.15.25-.325.25h-3.275c-.175 0-.225-.1-.175-.25zm5.75-6.1h3.925L153.1 29.7h-.075l-1.925 5.95zm12.825 6.1v-16.5c0-.15.1-.25.25-.25h3.175c.15 0 .25.1.25.25v16.5c0 .15-.1.25-.25.25h-3.175c-.15 0-.25-.1-.25-.25zM185 42h-3.55c-.225 0-.3-.075-.375-.25l-2.925-6.225h-2.275c-.1 0-.15.05-.15.15v6.075c0 .15-.1.25-.25.25H172.3c-.15 0-.25-.1-.25-.25v-16.5c0-.15.1-.25.25-.25h6.775c3.475 0 5.775 2.175 5.775 5.275 0 2.175-1.15 3.9-3.025 4.725l3.35 6.7c.075.15 0 .3-.175.3zm-6.125-9.6c1.4 0 2.3-.825 2.3-2.125 0-1.275-.9-2.1-2.3-2.1h-3c-.1 0-.15.05-.15.15v3.925c0 .1.05.15.15.15h3zm9.975 9.35v-16.5c0-.15.1-.25.25-.25h3.175c.15 0 .25.1.25.25v13.325c0 .1.05.15.15.15h7.5c.15 0 .25.1.25.25v2.775c0 .15-.1.25-.25.25H189.1c-.15 0-.25-.1-.25-.25zm14.95 0v-16.5c0-.15.1-.25.25-.25h3.175c.15 0 .25.1.25.25v16.5c0 .15-.1.25-.25.25h-3.175c-.15 0-.25-.1-.25-.25zm8.125 0v-16.5c0-.15.1-.25.25-.25h3c.175 0 .325.075.425.25l6 10.7h.125v-10.7c0-.15.1-.25.25-.25h2.825c.15 0 .25.1.25.25v16.5c0 .15-.1.25-.25.25h-2.975c-.2 0-.325-.075-.425-.25l-6.025-10.675h-.125V41.75c0 .15-.1.25-.25.25h-2.825c-.15 0-.25-.1-.25-.25zm17.575 0v-16.5c0-.15.1-.25.25-.25h10.9c.15 0 .25.1.25.25v2.675c0 .15-.1.25-.25.25h-7.325c-.1 0-.15.05-.15.15V31.7c0 .1.05.15.15.15h6.1c.15 0 .25.1.25.25v2.65c0 .15-.1.25-.25.25h-6.1c-.1 0-.15.05-.15.15v3.525c0 .1.05.15.15.15h7.325c.15 0 .25.1.25.25v2.675c0 .15-.1.25-.25.25h-10.9c-.15 0-.25-.1-.25-.25zm69.475.1v-9.9c0-.09.06-.15.15-.15h3.975c2.22 0 3.255 1.095 3.255 2.715 0 1.11-.51 1.8-1.185 2.175v.03c.675.255 1.365 1.095 1.365 2.31 0 2.01-1.335 2.97-3.54 2.97h-3.87c-.09 0-.15-.06-.15-.15zm2.295-5.88h1.56c.84 0 1.335-.45 1.335-1.2s-.495-1.185-1.335-1.185h-1.56c-.06 0-.09.03-.09.09v2.205c0 .06.03.09.09.09zm-.09 4.155c0 .06.03.09.09.09h1.68c.9 0 1.38-.48 1.38-1.275 0-.78-.48-1.275-1.38-1.275h-1.68c-.06 0-.09.03-.09.09v2.37zm11.4 2.04c-1.785 0-3.195-.825-3.72-2.475-.225-.705-.285-1.275-.285-2.79 0-1.515.06-2.085.285-2.79.525-1.65 1.935-2.475 3.72-2.475 1.785 0 3.195.825 3.72 2.475.225.705.285 1.275.285 2.79 0 1.515-.06 2.085-.285 2.79-.525 1.65-1.935 2.475-3.72 2.475zm0-1.95c.84 0 1.38-.42 1.605-1.125.12-.36.165-.855.165-2.19s-.045-1.83-.165-2.19c-.225-.705-.765-1.125-1.605-1.125s-1.38.42-1.605 1.125c-.12.36-.165.855-.165 2.19s.045 1.83.165 2.19c.225.705.765 1.125 1.605 1.125zm10.14 1.95c-1.785 0-3.195-.825-3.72-2.475-.225-.705-.285-1.275-.285-2.79 0-1.515.06-2.085.285-2.79.525-1.65 1.935-2.475 3.72-2.475 1.785 0 3.195.825 3.72 2.475.225.705.285 1.275.285 2.79 0 1.515-.06 2.085-.285 2.79-.525 1.65-1.935 2.475-3.72 2.475zm0-1.95c.84 0 1.38-.42 1.605-1.125.12-.36.165-.855.165-2.19s-.045-1.83-.165-2.19c-.225-.705-.765-1.125-1.605-1.125s-1.38.42-1.605 1.125c-.12.36-.165.855-.165 2.19s.045 1.83.165 2.19c.225.705.765 1.125 1.605 1.125zm6.405 1.635v-9.9c0-.09.06-.15.15-.15h1.905c.09 0 .15.06.15.15v4.41l3.39-4.425c.075-.105.135-.135.255-.135h2.175c.09 0 .135.105.06.195l-3.09 3.87 3.375 5.955c.06.105.015.18-.09.18H335.2c-.12 0-.165-.03-.225-.135l-2.31-4.29-1.335 1.68v2.595c0 .09-.06.15-.15.15h-1.905c-.09 0-.15-.06-.15-.15zm39.865-2.19c-.225-.66-.285-1.185-.285-2.76 0-1.575.06-2.1.285-2.76.54-1.665 1.845-2.505 3.63-2.505 1.725 0 2.985.84 3.555 2.265.045.075.015.15-.075.18l-1.635.735c-.09.045-.165.015-.21-.075-.285-.66-.765-1.155-1.62-1.155-.795 0-1.305.42-1.53 1.125-.12.375-.165.735-.165 2.19s.045 1.815.165 2.19c.225.705.735 1.125 1.53 1.125.855 0 1.335-.495 1.62-1.155.045-.09.12-.12.21-.075l1.635.735c.09.03.12.105.075.18-.57 1.425-1.83 2.265-3.555 2.265-1.785 0-3.09-.84-3.63-2.505zm9.33 2.19v-9.9c0-.09.06-.15.15-.15h1.905c.09 0 .15.06.15.15v3.825c0 .06.03.09.09.09h3.33c.06 0 .09-.03.09-.09V31.95c0-.09.06-.15.15-.15h1.905c.09 0 .15.06.15.15v9.9c0 .09-.06.15-.15.15h-1.905c-.09 0-.15-.06-.15-.15v-3.93c0-.06-.03-.09-.09-.09h-3.33c-.06 0-.09.03-.09.09v3.93c0 .09-.06.15-.15.15h-1.905c-.09 0-.15-.06-.15-.15zm10.59 0v-9.9c0-.09.06-.15.15-.15h6.54c.09 0 .15.06.15.15v1.605c0 .09-.06.15-.15.15h-4.395c-.06 0-.09.03-.09.09v2.025c0 .06.03.09.09.09h3.66c.09 0 .15.06.15.15v1.59c0 .09-.06.15-.15.15h-3.66c-.06 0-.09.03-.09.09v2.115c0 .06.03.09.09.09h4.395c.09 0 .15.06.15.15v1.605c0 .09-.06.15-.15.15h-6.54c-.09 0-.15-.06-.15-.15zm9.21-2.19c-.225-.66-.285-1.185-.285-2.76 0-1.575.06-2.1.285-2.76.54-1.665 1.845-2.505 3.63-2.505 1.725 0 2.985.84 3.555 2.265.045.075.015.15-.075.18l-1.635.735c-.09.045-.165.015-.21-.075-.285-.66-.765-1.155-1.62-1.155-.795 0-1.305.42-1.53 1.125-.12.375-.165.735-.165 2.19s.045 1.815.165 2.19c.225.705.735 1.125 1.53 1.125.855 0 1.335-.495 1.62-1.155.045-.09.12-.12.21-.075l1.635.735c.09.03.12.105.075.18-.57 1.425-1.83 2.265-3.555 2.265-1.785 0-3.09-.84-3.63-2.505zm9.33 2.19v-9.9c0-.09.06-.15.15-.15h1.905c.09 0 .15.06.15.15v4.41l3.39-4.425c.075-.105.135-.135.255-.135h2.175c.09 0 .135.105.06.195l-3.09 3.87 3.375 5.955c.06.105.015.18-.09.18h-2.205c-.12 0-.165-.03-.225-.135l-2.31-4.29-1.335 1.68v2.595c0 .09-.06.15-.15.15H407.6c-.09 0-.15-.06-.15-.15zm14.655 0v-9.9c0-.09.06-.15.15-.15h1.905c.09 0 .15.06.15.15v9.9c0 .09-.06.15-.15.15h-1.905c-.09 0-.15-.06-.15-.15zm4.875 0v-9.9c0-.09.06-.15.15-.15h1.8c.105 0 .195.045.255.15l3.6 6.42h.075v-6.42c0-.09.06-.15.15-.15h1.695c.09 0 .15.06.15.15v9.9c0 .09-.06.15-.15.15h-1.785c-.12 0-.195-.045-.255-.15l-3.615-6.405h-.075v6.405c0 .09-.06.15-.15.15h-1.695c-.09 0-.15-.06-.15-.15zm39.995 0v-9.9c0-.09.06-.15.15-.15h6.54c.09 0 .15.06.15.15v1.605c0 .09-.06.15-.15.15h-4.395c-.06 0-.09.03-.09.09v2.145c0 .06.03.09.09.09h3.66c.09 0 .15.06.15.15v1.59c0 .09-.06.15-.15.15h-3.66c-.06 0-.09.03-.09.09v3.84c0 .09-.06.15-.15.15h-1.905c-.09 0-.15-.06-.15-.15zm9.075 0v-9.9c0-.09.06-.15.15-.15h1.905c.09 0 .15.06.15.15v7.995c0 .06.03.09.09.09h4.5c.09 0 .15.06.15.15v1.665c0 .09-.06.15-.15.15H476.2c-.09 0-.15-.06-.15-.15zm8.97 0v-9.9c0-.09.06-.15.15-.15h1.905c.09 0 .15.06.15.15v9.9c0 .09-.06.15-.15.15h-1.905c-.09 0-.15-.06-.15-.15zm4.89-2.16c-.225-.705-.285-1.275-.285-2.79 0-1.515.06-2.085.285-2.79.525-1.65 1.935-2.475 3.75-2.475 1.905 0 3.15.945 3.63 2.175.045.09.03.18-.06.225l-1.605.675c-.105.03-.18 0-.21-.075-.405-.69-.915-1.05-1.755-1.05-.87 0-1.41.435-1.635 1.14-.12.36-.165.84-.165 2.175s.045 1.83.165 2.19c.225.705.78 1.125 1.665 1.125.765 0 1.425-.375 1.635-1.05.075-.255.12-.57.12-1.005 0-.06-.03-.09-.09-.09h-1.38c-.09 0-.15-.06-.15-.15v-1.44c0-.09.06-.15.15-.15h3.51c.09 0 .15.06.15.15v.84c0 .9-.075 1.74-.255 2.295-.51 1.635-1.92 2.55-3.72 2.55-1.815 0-3.225-.825-3.75-2.475zm10.125 2.16v-9.9c0-.09.06-.15.15-.15h1.905c.09 0 .15.06.15.15v3.825c0 .06.03.09.09.09h3.33c.06 0 .09-.03.09-.09V31.95c0-.09.06-.15.15-.15h1.905c.09 0 .15.06.15.15v9.9c0 .09-.06.15-.15.15H505.9c-.09 0-.15-.06-.15-.15v-3.93c0-.06-.03-.09-.09-.09h-3.33c-.06 0-.09.03-.09.09v3.93c0 .09-.06.15-.15.15h-1.905c-.09 0-.15-.06-.15-.15zm14.745.15h-1.905c-.09 0-.15-.06-.15-.15v-7.995c0-.06-.03-.09-.09-.09h-2.58c-.09 0-.15-.06-.15-.15V31.95c0-.09.06-.15.15-.15h7.545c.09 0 .15.06.15.15v1.665c0 .09-.06.15-.15.15h-2.58c-.06 0-.09.03-.09.09v7.995c0 .09-.06.15-.15.15zm12.45.165c-1.59 0-3.135-.63-3.93-1.395-.06-.06-.09-.165-.015-.255l1.14-1.305c.06-.075.15-.075.225-.015.675.54 1.59 1.05 2.67 1.05 1.065 0 1.665-.495 1.665-1.215 0-.6-.36-.975-1.575-1.14l-.54-.075c-2.07-.285-3.225-1.26-3.225-3.06 0-1.875 1.41-3.12 3.615-3.12 1.35 0 2.61.405 3.465 1.065.09.06.105.12.03.225l-.915 1.365c-.06.075-.135.09-.21.045-.78-.51-1.53-.78-2.37-.78-.9 0-1.365.465-1.365 1.11 0 .585.42.96 1.59 1.125l.54.075c2.1.285 3.21 1.245 3.21 3.09 0 1.845-1.365 3.21-4.005 3.21zM537.415 42h-1.905c-.09 0-.15-.06-.15-.15v-7.995c0-.06-.03-.09-.09-.09h-2.58c-.09 0-.15-.06-.15-.15V31.95c0-.09.06-.15.15-.15h7.545c.09 0 .15.06.15.15v1.665c0 .09-.06.15-.15.15h-2.58c-.06 0-.09.03-.09.09v7.995c0 .09-.06.15-.15.15zm3.195-.15l3.51-9.9c.03-.09.09-.15.195-.15h1.89c.105 0 .165.06.195.15l3.45 9.9c.03.09 0 .15-.105.15h-1.95c-.105 0-.165-.045-.195-.15l-.585-1.785h-3.57l-.57 1.785c-.03.105-.09.15-.195.15h-1.965c-.105 0-.135-.06-.105-.15zm3.45-3.66h2.355l-1.155-3.57h-.045l-1.155 3.57zM554.95 42h-1.905c-.09 0-.15-.06-.15-.15v-7.995c0-.06-.03-.09-.09-.09h-2.58c-.09 0-.15-.06-.15-.15V31.95c0-.09.06-.15.15-.15h7.545c.09 0 .15.06.15.15v1.665c0 .09-.06.15-.15.15h-2.58c-.06 0-.09.03-.09.09v7.995c0 .09-.06.15-.15.15zm8.79.165c-2.295 0-3.915-1.38-3.915-3.915v-6.3c0-.09.06-.15.15-.15h1.905c.09 0 .15.06.15.15v6.36c0 1.215.675 1.905 1.71 1.905 1.02 0 1.695-.69 1.695-1.905v-6.36c0-.09.06-.15.15-.15h1.905c.09 0 .15.06.15.15v6.3c0 2.535-1.62 3.915-3.9 3.915zm9.96 0c-1.59 0-3.135-.63-3.93-1.395-.06-.06-.09-.165-.015-.255l1.14-1.305c.06-.075.15-.075.225-.015.675.54 1.59 1.05 2.67 1.05 1.065 0 1.665-.495 1.665-1.215 0-.6-.36-.975-1.575-1.14l-.54-.075c-2.07-.285-3.225-1.26-3.225-3.06 0-1.875 1.41-3.12 3.615-3.12 1.35 0 2.61.405 3.465 1.065.09.06.105.12.03.225l-.915 1.365c-.06.075-.135.09-.21.045-.78-.51-1.53-.78-2.37-.78-.9 0-1.365.465-1.365 1.11 0 .585.42.96 1.59 1.125l.54.075c2.1.285 3.21 1.245 3.21 3.09 0 1.845-1.365 3.21-4.005 3.21z" fill="#FFF" fill-rule="nonzero"/><path fill="#DB4145" d="M298 48h41v4h-41z"/></g><g class="channel-tools"><g transform="translate(1075 101)"><circle fill="#DB4145" cx="23" cy="23" r="23"/><path d="M11.5 23h23.434m-9.954-9.953L34.934 23m-9.954 9.953L34.934 23" stroke="#FFF" stroke-linecap="round" stroke-width="5"/></g><path fill="#E51937" d="M877 178h34v17h-34z"/><path d="M888.678 191h-2.309l-3.726-6.48h-.053c.074 1.144.111 1.96.111 2.449V191h-1.623v-8.566h2.291l3.72 6.416h.042a51.947 51.947 0 0 1-.088-2.362v-4.054h1.635V191zm7.09 0h-4.934v-8.566h4.934v1.488h-3.118v1.88h2.9v1.489h-2.9v2.209h3.118v1.5zm10.13 0h-2.068l-1.16-4.5c-.043-.16-.116-.491-.22-.993a11.336 11.336 0 0 1-.179-1.01c-.023.21-.082.549-.175 1.016-.094.466-.166.8-.217.999L900.725 191h-2.063l-2.185-8.566h1.787l1.095 4.675c.192.864.33 1.612.416 2.245.024-.223.078-.568.162-1.035.084-.466.163-.829.237-1.087l1.248-4.798h1.717l1.248 4.798c.054.215.123.543.205.985.082.441.144.82.187 1.137.04-.305.102-.685.188-1.14.086-.455.164-.823.234-1.105l1.09-4.675h1.787l-2.18 8.566zm-16.941 20h-1.86l-4.564-7.395h-.051l.032.413c.059.787.089 1.506.089 2.158V211h-1.378v-9.28h1.84l4.552 7.357h.038a43.054 43.054 0 0 1-.05-1.064 36.739 36.739 0 0 1-.039-1.431v-4.862h1.39V211zm6.684 0l-.299-.978h-.05c-.339.428-.68.719-1.022.873-.343.155-.783.232-1.32.232-.69 0-1.23-.186-1.616-.559-.387-.372-.581-.899-.581-1.58 0-.724.269-1.27.806-1.638.538-.368 1.356-.57 2.457-.603l1.212-.038v-.375c0-.448-.105-.783-.314-1.006-.21-.222-.534-.333-.975-.333-.36 0-.704.053-1.034.159-.33.106-.648.23-.952.374l-.483-1.066c.381-.199.798-.35 1.25-.454.454-.104.88-.155 1.283-.155.893 0 1.567.194 2.022.584.455.389.682 1 .682 1.834V211h-1.066zm-2.222-1.016c.542 0 .976-.15 1.304-.453.328-.303.492-.727.492-1.273v-.61l-.901.039c-.703.025-1.213.142-1.533.352-.32.21-.48.53-.48.961 0 .314.094.556.28.727.186.172.466.257.838.257zm7.985-.063c.364 0 .728-.057 1.092-.171v1.123a3.011 3.011 0 0 1-.638.181c-.26.049-.53.073-.81.073-1.413 0-2.12-.745-2.12-2.234v-3.784h-.958v-.66l1.029-.546.507-1.485h.92v1.561h2v1.13h-2v3.758c0 .36.09.625.27.797.18.171.416.257.708.257zM908.85 211l-.21-.92h-.076a2.116 2.116 0 0 1-.885.768 2.96 2.96 0 0 1-1.31.279c-.851 0-1.486-.212-1.905-.635-.42-.423-.629-1.064-.629-1.923v-4.59h1.505v4.33c0 .537.11.94.33 1.209.22.269.565.403 1.035.403.626 0 1.086-.187 1.38-.562.294-.374.441-1.002.441-1.882v-3.498h1.498V211h-1.174zm6.862-7.147c.3 0 .548.02.743.063l-.146 1.39a2.82 2.82 0 0 0-.66-.076c-.597 0-1.08.195-1.451.584-.37.39-.555.895-.555 1.517V211h-1.492v-7.02h1.168l.197 1.237h.076c.233-.419.536-.75.91-.996a2.165 2.165 0 0 1 1.21-.368zm6.176 7.147l-.298-.978h-.05c-.34.428-.68.719-1.023.873-.343.155-.783.232-1.32.232-.69 0-1.228-.186-1.616-.559-.387-.372-.58-.899-.58-1.58 0-.724.268-1.27.806-1.638.537-.368 1.356-.57 2.456-.603l1.213-.038v-.375c0-.448-.105-.783-.315-1.006-.21-.222-.534-.333-.974-.333-.36 0-.705.053-1.035.159-.33.106-.647.23-.952.374l-.482-1.066c.38-.199.797-.35 1.25-.454.453-.104.88-.155 1.282-.155.893 0 1.567.194 2.022.584.455.389.683 1 .683 1.834V211h-1.067zm-2.221-1.016c.541 0 .976-.15 1.304-.453.328-.303.492-.727.492-1.273v-.61l-.901.039c-.703.025-1.214.142-1.533.352-.32.21-.48.53-.48.961 0 .314.093.556.28.727.186.172.465.257.838.257zm6.861 1.016h-1.491v-9.877h1.491V211zm5.669 0v-9.28h1.517v7.979h3.93V211h-5.447zm11.28 0l-.299-.978h-.05c-.34.428-.68.719-1.023.873-.342.155-.782.232-1.32.232-.69 0-1.228-.186-1.615-.559-.388-.372-.581-.899-.581-1.58 0-.724.269-1.27.806-1.638.537-.368 1.356-.57 2.457-.603l1.212-.038v-.375c0-.448-.105-.783-.314-1.006-.21-.222-.535-.333-.975-.333-.36 0-.704.053-1.034.159-.33.106-.648.23-.952.374l-.483-1.066c.381-.199.798-.35 1.25-.454.453-.104.88-.155 1.283-.155.893 0 1.567.194 2.022.584.455.389.682 1 .682 1.834V211h-1.066zm-2.222-1.016c.542 0 .976-.15 1.304-.453.328-.303.492-.727.492-1.273v-.61l-.901.039c-.703.025-1.214.142-1.533.352-.32.21-.48.53-.48.961 0 .314.094.556.28.727.186.172.465.257.838.257zM952.8 211h-1.498v-4.316c0-.542-.109-.946-.327-1.213-.218-.266-.564-.4-1.038-.4-.63 0-1.091.186-1.383.559-.292.372-.438.996-.438 1.872V211h-1.492v-7.02h1.168l.21.92h.076c.211-.334.512-.593.901-.775a3.02 3.02 0 0 1 1.295-.272c1.684 0 2.526.856 2.526 2.57V211zm8.005-7.02v.818l-1.2.223c.11.148.201.33.273.545.072.216.108.445.108.686 0 .724-.25 1.293-.75 1.707-.499.415-1.186.623-2.062.623a3.34 3.34 0 0 1-.61-.051c-.321.199-.482.431-.482.698 0 .16.075.281.225.362.15.08.427.12.829.12h1.225c.774 0 1.362.165 1.764.496.402.33.603.806.603 1.428 0 .795-.327 1.409-.983 1.84-.656.432-1.604.648-2.844.648-.957 0-1.687-.17-2.19-.508-.504-.338-.755-.82-.755-1.447 0-.432.136-.795.409-1.089.273-.294.655-.498 1.146-.612a1.121 1.121 0 0 1-.492-.41 1.034 1.034 0 0 1-.194-.593c0-.263.074-.485.222-.667.148-.182.369-.361.66-.54a1.955 1.955 0 0 1-.885-.764c-.226-.353-.34-.767-.34-1.241 0-.762.24-1.352.72-1.771.481-.419 1.166-.628 2.054-.628a5.086 5.086 0 0 1 1.118.126h2.43zm-5.516 8.112c0 .321.144.569.434.742.29.174.698.26 1.222.26.813 0 1.418-.116 1.816-.348.398-.233.596-.542.596-.927 0-.305-.109-.522-.327-.65-.217-.13-.623-.194-1.215-.194h-1.13c-.427 0-.767.1-1.019.301-.252.201-.377.473-.377.816zm.64-5.84c0 .44.114.779.34 1.016.227.237.551.355.975.355.863 0 1.295-.461 1.295-1.384 0-.457-.107-.81-.321-1.057-.214-.247-.538-.371-.974-.371-.432 0-.759.123-.981.368-.222.246-.333.603-.333 1.073zm11.13 4.748l-.21-.92h-.076a2.116 2.116 0 0 1-.885.768 2.96 2.96 0 0 1-1.31.279c-.851 0-1.486-.212-1.905-.635-.42-.423-.629-1.064-.629-1.923v-4.59h1.505v4.33c0 .537.11.94.33 1.209.22.269.565.403 1.035.403.626 0 1.086-.187 1.38-.562.294-.374.441-1.002.441-1.882v-3.498h1.498V211h-1.174zm7.693 0l-.298-.978h-.05c-.34.428-.68.719-1.023.873-.342.155-.783.232-1.32.232-.69 0-1.228-.186-1.615-.559-.388-.372-.581-.899-.581-1.58 0-.724.268-1.27.806-1.638.537-.368 1.356-.57 2.456-.603l1.213-.038v-.375c0-.448-.105-.783-.314-1.006-.21-.222-.535-.333-.975-.333-.36 0-.704.053-1.034.159-.33.106-.648.23-.953.374l-.482-1.066c.38-.199.798-.35 1.25-.454.453-.104.88-.155 1.283-.155.893 0 1.567.194 2.021.584.455.389.683 1 .683 1.834V211h-1.067zm-2.221-1.016c.541 0 .976-.15 1.304-.453.328-.303.492-.727.492-1.273v-.61l-.901.039c-.703.025-1.214.142-1.533.352-.32.21-.48.53-.48.961 0 .314.094.556.28.727.186.172.465.257.838.257zm11.299-6.005v.82l-1.2.222c.11.148.2.33.273.545.072.216.108.445.108.686 0 .724-.25 1.293-.75 1.707-.499.415-1.186.623-2.062.623-.225 0-.428-.017-.61-.051-.321.199-.482.431-.482.698 0 .16.075.281.225.362.15.08.427.12.829.12h1.225c.774 0 1.362.165 1.764.496.402.33.603.806.603 1.428 0 .795-.328 1.409-.983 1.84-.656.432-1.604.648-2.844.648-.957 0-1.687-.17-2.19-.508-.504-.338-.756-.82-.756-1.447 0-.432.137-.795.41-1.089.273-.294.655-.498 1.146-.612a1.121 1.121 0 0 1-.492-.41 1.034 1.034 0 0 1-.194-.593c0-.263.074-.485.222-.667.148-.182.368-.361.66-.54a1.955 1.955 0 0 1-.885-.764c-.226-.353-.34-.767-.34-1.241 0-.762.24-1.352.72-1.771.481-.419 1.166-.628 2.054-.628a5.086 5.086 0 0 1 1.117.126h2.432zm-5.516 8.113c0 .321.144.569.434.742.29.174.697.26 1.222.26.813 0 1.418-.116 1.816-.348.397-.233.596-.542.596-.927 0-.305-.109-.522-.327-.65-.217-.13-.623-.194-1.215-.194h-1.13c-.427 0-.767.1-1.019.301-.252.201-.378.473-.378.816zm.64-5.84c0 .44.114.779.34 1.016.227.237.551.355.975.355.863 0 1.294-.461 1.294-1.384 0-.457-.106-.81-.32-1.057-.214-.247-.539-.371-.974-.371-.432 0-.759.123-.981.368-.222.246-.333.603-.333 1.073zm9.243 4.875c-1.092 0-1.946-.318-2.561-.955-.616-.637-.924-1.514-.924-2.631 0-1.147.286-2.049.857-2.705.571-.656 1.356-.983 2.355-.983.927 0 1.659.28 2.196.844.538.563.806 1.337.806 2.323v.806h-4.678c.021.681.205 1.205.552 1.571.347.366.836.55 1.467.55.414 0 .8-.04 1.158-.118a6.072 6.072 0 0 0 1.152-.39v1.212a4.58 4.58 0 0 1-1.104.368 6.773 6.773 0 0 1-1.276.108zm-.273-6.145c-.474 0-.854.15-1.14.451-.285.3-.456.739-.51 1.314h3.186c-.008-.58-.148-1.019-.419-1.317-.27-.298-.643-.448-1.117-.448zm13.584 3.498c0 .825-.298 1.473-.895 1.942-.597.47-1.42.705-2.47.705-1.049 0-1.908-.163-2.577-.489v-1.434c.424.199.873.355 1.35.47.475.114.919.17 1.33.17.6 0 1.043-.114 1.329-.342.286-.229.428-.535.428-.92 0-.347-.13-.642-.393-.883-.262-.241-.804-.527-1.625-.857-.846-.342-1.443-.734-1.79-1.174-.347-.44-.52-.97-.52-1.587 0-.774.274-1.384.825-1.828.55-.444 1.288-.667 2.215-.667.889 0 1.773.195 2.653.584l-.482 1.238c-.825-.347-1.562-.52-2.21-.52-.49 0-.862.107-1.116.32a1.053 1.053 0 0 0-.381.848c0 .24.05.447.152.619.102.17.269.333.502.485.232.153.651.354 1.256.603.682.284 1.181.548 1.498.794.318.245.55.522.699.831.148.31.222.673.222 1.092zm4.703 2.647c-1.091 0-1.945-.318-2.56-.955-.617-.637-.924-1.514-.924-2.631 0-1.147.285-2.049.857-2.705.57-.656 1.356-.983 2.355-.983.926 0 1.658.28 2.196.844.537.563.806 1.337.806 2.323v.806h-4.678c.02.681.205 1.205.552 1.571.347.366.836.55 1.466.55.415 0 .801-.04 1.159-.118a6.072 6.072 0 0 0 1.152-.39v1.212a4.58 4.58 0 0 1-1.105.368 6.773 6.773 0 0 1-1.276.108zm-.273-6.145c-.473 0-.853.15-1.139.451-.286.3-.456.739-.51 1.314h3.186c-.009-.58-.148-1.019-.42-1.317-.27-.298-.643-.448-1.116-.448zm9.09 6.018l-.298-.978h-.05c-.34.428-.68.719-1.023.873-.343.155-.783.232-1.32.232-.69 0-1.228-.186-1.616-.559-.387-.372-.58-.899-.58-1.58 0-.724.268-1.27.806-1.638.537-.368 1.356-.57 2.456-.603l1.213-.038v-.375c0-.448-.105-.783-.314-1.006-.21-.222-.535-.333-.975-.333-.36 0-.704.053-1.034.159-.33.106-.648.23-.953.374l-.482-1.066c.38-.199.798-.35 1.25-.454.453-.104.88-.155 1.283-.155.893 0 1.566.194 2.021.584.455.389.683 1 .683 1.834V211h-1.067zm-2.221-1.016c.541 0 .976-.15 1.304-.453.328-.303.492-.727.492-1.273v-.61l-.901.039c-.703.025-1.214.142-1.533.352-.32.21-.48.53-.48.961 0 .314.094.556.28.727.186.172.465.257.838.257zm8.93-6.131c.301 0 .549.02.743.063l-.146 1.39a2.82 2.82 0 0 0-.66-.076c-.596 0-1.08.195-1.45.584-.37.39-.556.895-.556 1.517V211h-1.491v-7.02h1.168l.197 1.237h.076a2.78 2.78 0 0 1 .91-.996 2.165 2.165 0 0 1 1.21-.368zm4.616 7.274c-1.063 0-1.87-.31-2.422-.93-.552-.62-.828-1.51-.828-2.67 0-1.18.288-2.088.866-2.722.578-.635 1.412-.952 2.504-.952.74 0 1.407.137 2 .412l-.451 1.2c-.63-.246-1.151-.368-1.562-.368-1.214 0-1.821.806-1.821 2.418 0 .787.151 1.379.454 1.774.302.396.745.594 1.33.594.664 0 1.292-.165 1.885-.495v1.301a2.946 2.946 0 0 1-.854.336c-.303.068-.67.102-1.101.102zm9.781-.127h-1.498v-4.316c0-.542-.109-.946-.327-1.213-.218-.266-.564-.4-1.037-.4-.627 0-1.087.188-1.381.562-.294.375-.441 1.002-.441 1.882V211h-1.492v-9.877h1.492v2.507c0 .402-.026.832-.076 1.289h.095c.203-.339.485-.601.847-.787.362-.186.784-.28 1.267-.28 1.7 0 2.551.857 2.551 2.571V211z" fill="#FFF" fill-rule="nonzero"/><path d="M601.019 125.545l-7.019 7.02m-7.019-7.02l7.019 7.02" stroke="#DB4145" stroke-linecap="round" stroke-width="2"/><path d="M464.95 136h-2c-.175 0-.25-.075-.325-.25l-3.4-6.95h-3.75c-.1 0-.15.05-.15.15v6.8c0 .15-.1.25-.25.25h-1.725c-.15 0-.25-.1-.25-.25v-16.5c0-.15.1-.25.25-.25h6.15c3.175 0 5.325 1.95 5.325 4.9 0 2.3-1.3 3.975-3.35 4.625l3.625 7.175c.1.15.025.3-.15.3zm-5.5-9.275c1.975 0 3.15-1.05 3.15-2.825 0-1.775-1.175-2.825-3.15-2.825h-3.975c-.1 0-.15.05-.15.15v5.35c0 .1.05.15.15.15h3.975zm13.65 9.55c-2.425 0-4.15-1.175-4.8-3.25-.25-.775-.4-1.65-.4-3.025s.125-2.3.375-3.025c.675-2.075 2.425-3.225 4.7-3.225 2.3 0 4.025 1.175 4.7 3.225.25.775.375 1.6.375 3.425 0 .15-.1.25-.275.25H470.2c-.1 0-.15.05-.15.15 0 .65.075 1.05.2 1.45.475 1.375 1.55 2.075 3.025 2.075 1.425 0 2.425-.575 3.075-1.325.125-.125.25-.15.375-.05l1.025.925c.125.1.125.225.025.35-.95 1.2-2.575 2.05-4.675 2.05zm-2.9-7.3h5.55c.1 0 .15-.05.15-.15 0-.55-.05-.975-.175-1.35-.4-1.2-1.4-1.875-2.75-1.875s-2.35.675-2.75 1.875c-.125.375-.175.8-.175 1.35 0 .1.05.15.15.15zm16.025 7.15h-.925c-2.325 0-3.225-1.05-3.225-3.4v-6.85c0-.1-.05-.15-.15-.15h-1c-.15 0-.25-.1-.25-.25v-1.2c0-.15.1-.25.25-.25h1c.1 0 .15-.05.15-.15V120.5c0-.15.1-.25.25-.25h1.6c.15 0 .25.1.25.25v3.375c0 .1.05.15.15.15h1.9c.15 0 .25.1.25.25v1.2c0 .15-.1.25-.25.25h-1.9c-.1 0-.15.05-.15.15v6.775c0 1.2.45 1.525 1.525 1.525h.525c.15 0 .25.1.25.25v1.45c0 .15-.1.25-.25.25zM499.25 136h-1.6c-.15 0-.25-.1-.25-.25v-1.125h-.025c-.625 1-1.725 1.65-3.275 1.65-2.625 0-4.15-1.8-4.15-4.525v-7.475c0-.15.1-.25.25-.25h1.6c.15 0 .25.1.25.25v6.975c0 1.95.875 3.075 2.65 3.075 1.625 0 2.7-1.15 2.7-2.95v-7.1c0-.15.1-.25.25-.25h1.6c.15 0 .25.1.25.25v11.475c0 .15-.1.25-.25.25zm6.6 0h-1.6c-.15 0-.25-.1-.25-.25v-11.475c0-.15.1-.25.25-.25h1.6c.15 0 .25.1.25.25v1.225h.025c.525-1.025 1.575-1.75 3.175-1.75.95 0 1.85.35 2.45.9.125.125.15.225.05.35l-.925 1.225c-.1.125-.225.15-.35.05-.55-.35-1.15-.575-1.85-.575-1.825 0-2.575 1.425-2.575 3.5v6.55c0 .15-.1.25-.25.25zm18.175 0h-1.6c-.15 0-.25-.1-.25-.25v-7c0-1.925-.875-3.05-2.675-3.05-1.625 0-2.75 1.15-2.75 2.925v7.125c0 .15-.1.25-.25.25h-1.6c-.15 0-.25-.1-.25-.25v-11.475c0-.15.1-.25.25-.25h1.6c.15 0 .25.1.25.25v1.1h.025c.575-.925 1.725-1.625 3.35-1.625 2.6 0 4.15 1.775 4.15 4.5v7.5c0 .15-.1.25-.25.25zm-478.45 0H43.85c-.15 0-.25-.1-.25-.25v-14.525c0-.1-.05-.15-.15-.15H38.8c-.15 0-.25-.1-.25-.25v-1.575c0-.15.1-.25.25-.25h11.825c.15 0 .25.1.25.25v1.575c0 .15-.1.25-.25.25h-4.65c-.1 0-.15.05-.15.15v14.525c0 .15-.1.25-.25.25zm11.05.275c-2.325 0-4.075-1.2-4.725-3.225-.275-.825-.4-1.65-.4-3.05 0-1.375.125-2.2.4-3.025.65-2.05 2.4-3.225 4.725-3.225 2.325 0 4.075 1.175 4.725 3.225.275.825.4 1.65.4 3.025 0 1.4-.125 2.225-.4 3.05-.65 2.025-2.4 3.225-4.725 3.225zm0-1.95c1.325 0 2.3-.675 2.7-1.875.2-.65.275-1.3.275-2.45 0-1.15-.075-1.775-.275-2.425-.4-1.2-1.375-1.875-2.7-1.875-1.325 0-2.3.675-2.7 1.875-.2.65-.275 1.275-.275 2.425s.075 1.8.275 2.45c.4 1.2 1.375 1.875 2.7 1.875zM67.375 136h-1.6c-.15 0-.25-.1-.25-.25v-11.475c0-.15.1-.25.25-.25h1.6c.15 0 .25.1.25.25v1.225h.025c.525-1.025 1.575-1.75 3.175-1.75.95 0 1.85.35 2.45.9.125.125.15.225.05.35l-.925 1.225c-.1.125-.225.15-.35.05-.55-.35-1.15-.575-1.85-.575-1.825 0-2.575 1.425-2.575 3.5v6.55c0 .15-.1.25-.25.25zm12.75.275c-2.325 0-4.075-1.2-4.725-3.225-.275-.825-.4-1.65-.4-3.05 0-1.375.125-2.2.4-3.025.65-2.05 2.4-3.225 4.725-3.225 2.325 0 4.075 1.175 4.725 3.225.275.825.4 1.65.4 3.025 0 1.4-.125 2.225-.4 3.05-.65 2.025-2.4 3.225-4.725 3.225zm0-1.95c1.325 0 2.3-.675 2.7-1.875.2-.65.275-1.3.275-2.45 0-1.15-.075-1.775-.275-2.425-.4-1.2-1.375-1.875-2.7-1.875-1.325 0-2.3.675-2.7 1.875-.2.65-.275 1.275-.275 2.425s.075 1.8.275 2.45c.4 1.2 1.375 1.875 2.7 1.875zM98.4 136h-1.6c-.15 0-.25-.1-.25-.25v-7c0-1.925-.875-3.05-2.675-3.05-1.625 0-2.75 1.15-2.75 2.925v7.125c0 .15-.1.25-.25.25h-1.6c-.15 0-.25-.1-.25-.25v-11.475c0-.15.1-.25.25-.25h1.6c.15 0 .25.1.25.25v1.1h.025c.575-.925 1.725-1.625 3.35-1.625 2.6 0 4.15 1.775 4.15 4.5v7.5c0 .15-.1.25-.25.25zm9.025.125h-.925c-2.325 0-3.225-1.05-3.225-3.4v-6.85c0-.1-.05-.15-.15-.15h-1c-.15 0-.25-.1-.25-.25v-1.2c0-.15.1-.25.25-.25h1c.1 0 .15-.05.15-.15V120.5c0-.15.1-.25.25-.25h1.6c.15 0 .25.1.25.25v3.375c0 .1.05.15.15.15h1.9c.15 0 .25.1.25.25v1.2c0 .15-.1.25-.25.25h-1.9c-.1 0-.15.05-.15.15v6.775c0 1.2.45 1.525 1.525 1.525h.525c.15 0 .25.1.25.25v1.45c0 .15-.1.25-.25.25zm8.3.15c-2.325 0-4.075-1.2-4.725-3.225-.275-.825-.4-1.65-.4-3.05 0-1.375.125-2.2.4-3.025.65-2.05 2.4-3.225 4.725-3.225 2.325 0 4.075 1.175 4.725 3.225.275.825.4 1.65.4 3.025 0 1.4-.125 2.225-.4 3.05-.65 2.025-2.4 3.225-4.725 3.225zm0-1.95c1.325 0 2.3-.675 2.7-1.875.2-.65.275-1.3.275-2.45 0-1.15-.075-1.775-.275-2.425-.4-1.2-1.375-1.875-2.7-1.875-1.325 0-2.3.675-2.7 1.875-.2.65-.275 1.275-.275 2.425s.075 1.8.275 2.45c.4 1.2 1.375 1.875 2.7 1.875zM135.95 136h-1.7c-.15 0-.25-.1-.25-.25v-6.7l-5.025-9.775c-.05-.15.025-.275.2-.275h1.775c.175 0 .275.075.375.25l3.8 7.275h.05l3.775-7.275c.075-.175.175-.25.35-.25h1.725c.2 0 .25.125.2.275l-5.025 9.775v6.7c0 .15-.1.25-.25.25zm13.55 0h-1.7c-.15 0-.25-.1-.25-.25v-6.7l-5.025-9.775c-.05-.15.025-.275.2-.275h1.775c.175 0 .275.075.375.25l3.8 7.275h.05l3.775-7.275c.075-.175.175-.25.35-.25h1.725c.2 0 .25.125.2.275l-5.025 9.775v6.7c0 .15-.1.25-.25.25zm18.05 0H157.1c-.15 0-.25-.1-.25-.25v-1.575c0-.1.025-.175.1-.275l8.3-12.8v-.025h-7.85c-.15 0-.25-.1-.25-.25v-1.575c0-.15.1-.25.25-.25h10.15c.15 0 .25.1.25.25v1.575c0 .1-.025.175-.1.275l-8.325 12.8v.025h8.175c.15 0 .25.1.25.25v1.575c0 .15-.1.25-.25.25z" fill="#FFF" fill-rule="nonzero"/><path d="M451 143.5h150" stroke="#FFF" stroke-width=".5" stroke-linecap="square"/><path d="M1036.519 125.545l-7.019 7.02m-7.019-7.02l7.019 7.02" stroke="#DB4145" stroke-linecap="round" stroke-width="2"/><path d="M833.1 135.75v-14.1h-.05l-2.825 1.975c-.15.1-.275.05-.275-.15v-1.85c0-.15.05-.25.175-.35l2.925-2.125c.125-.1.225-.15.4-.15h1.5c.15 0 .25.1.25.25v16.5c0 .15-.1.25-.25.25h-1.6c-.15 0-.25-.1-.25-.25zm18.325.25H849.7c-.15 0-.25-.1-.25-.25v-16.5c0-.15.1-.25.25-.25h6.05c3.275 0 5.4 2 5.4 5.075s-2.125 5.075-5.4 5.075h-3.925c-.1 0-.15.05-.15.15v6.45c0 .15-.1.25-.25.25zm4.2-8.925c2.1 0 3.325-1.15 3.325-3s-1.225-3-3.325-3h-3.8c-.1 0-.15.05-.15.15v5.7c0 .1.05.15.15.15h3.8zm17.2 8.925h-1.475c-.15 0-.25-.1-.25-.25v-1.05h-.025c-.55.9-1.725 1.575-3.55 1.575-2.275 0-4.025-1.175-4.025-3.6 0-2.525 1.75-3.7 4.675-3.7h2.725c.1 0 .15-.05.15-.15v-.875c0-1.65-.65-2.35-2.875-2.35-1.35 0-2.2.35-2.9.85-.125.1-.275.1-.35-.025l-.675-1.15c-.075-.15-.05-.25.05-.35.9-.7 2.3-1.175 4.075-1.175 3.4 0 4.7 1.125 4.7 4.075v7.925c0 .15-.1.25-.25.25zm-4.8-1.525c1.875 0 3.025-.875 3.025-2.35V130.8c0-.1-.05-.15-.15-.15h-2.4c-2.075 0-2.975.6-2.975 1.95 0 1.225.9 1.875 2.5 1.875zm13.575 1.8c-2.325 0-3.975-.95-4.95-1.8-.1-.1-.1-.25 0-.35l1.025-1.1c.1-.1.25-.1.35 0 .9.775 2.25 1.375 3.7 1.375 1.75 0 2.625-.75 2.625-1.825 0-.95-.45-1.475-2.325-1.675l-1.275-.125c-2.35-.25-3.575-1.425-3.575-3.375 0-2.275 1.625-3.65 4.45-3.65 1.75 0 3.25.575 4.25 1.325.125.075.125.225.05.35l-.85 1.075c-.1.125-.225.125-.35.05-.775-.5-2-.975-3.225-.975-1.5 0-2.275.675-2.275 1.65 0 .95.575 1.45 2.35 1.625l1.25.125c2.425.225 3.6 1.45 3.6 3.375 0 2.35-1.7 3.925-4.825 3.925zm12.65 0c-2.325 0-3.975-.95-4.95-1.8-.1-.1-.1-.25 0-.35l1.025-1.1c.1-.1.25-.1.35 0 .9.775 2.25 1.375 3.7 1.375 1.75 0 2.625-.75 2.625-1.825 0-.95-.45-1.475-2.325-1.675l-1.275-.125c-2.35-.25-3.575-1.425-3.575-3.375 0-2.275 1.625-3.65 4.45-3.65 1.75 0 3.25.575 4.25 1.325.125.075.125.225.05.35l-.85 1.075c-.1.125-.225.125-.35.05-.775-.5-2-.975-3.225-.975-1.5 0-2.275.675-2.275 1.65 0 .95.575 1.45 2.35 1.625l1.25.125c2.425.225 3.6 1.45 3.6 3.375 0 2.35-1.7 3.925-4.825 3.925zm13 0c-2.425 0-4.15-1.175-4.8-3.25-.25-.775-.4-1.65-.4-3.025s.125-2.3.375-3.025c.675-2.075 2.425-3.225 4.7-3.225 2.3 0 4.025 1.175 4.7 3.225.25.775.375 1.6.375 3.425 0 .15-.1.25-.275.25h-7.575c-.1 0-.15.05-.15.15 0 .65.075 1.05.2 1.45.475 1.375 1.55 2.075 3.025 2.075 1.425 0 2.425-.575 3.075-1.325.125-.125.25-.15.375-.05l1.025.925c.125.1.125.225.025.35-.95 1.2-2.575 2.05-4.675 2.05zm-2.9-7.3h5.55c.1 0 .15-.05.15-.15 0-.55-.05-.975-.175-1.35-.4-1.2-1.4-1.875-2.75-1.875s-2.35.675-2.75 1.875c-.125.375-.175.8-.175 1.35 0 .1.05.15.15.15zm21 7.025h-1.6c-.15 0-.25-.1-.25-.25v-7c0-1.925-.875-3.05-2.675-3.05-1.625 0-2.75 1.15-2.75 2.925v7.125c0 .15-.1.25-.25.25h-1.6c-.15 0-.25-.1-.25-.25v-11.475c0-.15.1-.25.25-.25h1.6c.15 0 .25.1.25.25v1.1h.025c.575-.925 1.725-1.625 3.35-1.625 2.6 0 4.15 1.775 4.15 4.5v7.5c0 .15-.1.25-.25.25zm8.525 4.775c-1.675 0-3.35-.725-4.15-1.775-.1-.125-.1-.225.025-.35l1.025-1.025c.125-.125.25-.125.375 0 .825.75 1.675 1.2 2.825 1.2 1.975 0 3.025-1.025 3.025-3.225v-1.4h-.025c-.55 1-1.575 1.65-3.325 1.65-2.025 0-3.425-1.025-4.025-2.9-.3-.9-.4-1.775-.4-3.15s.1-2.25.4-3.15c.6-1.875 2-2.9 4.025-2.9 1.75 0 2.775.65 3.325 1.65H937v-1.125c0-.15.1-.25.25-.25h1.6c.15 0 .25.1.25.25v11.2c0 3.4-1.85 5.3-5.225 5.3zm.3-6.85c1.25 0 2.125-.575 2.55-1.8.2-.6.275-1.3.275-2.325 0-1.025-.075-1.7-.275-2.325-.425-1.225-1.3-1.775-2.55-1.775-1.3 0-2.125.625-2.525 1.775-.2.625-.3 1.35-.3 2.325 0 .975.1 1.725.3 2.325.4 1.175 1.225 1.8 2.525 1.8zm13.9 2.35c-2.425 0-4.15-1.175-4.8-3.25-.25-.775-.4-1.65-.4-3.025s.125-2.3.375-3.025c.675-2.075 2.425-3.225 4.7-3.225 2.3 0 4.025 1.175 4.7 3.225.25.775.375 1.6.375 3.425 0 .15-.1.25-.275.25h-7.575c-.1 0-.15.05-.15.15 0 .65.075 1.05.2 1.45.475 1.375 1.55 2.075 3.025 2.075 1.425 0 2.425-.575 3.075-1.325.125-.125.25-.15.375-.05l1.025.925c.125.1.125.225.025.35-.95 1.2-2.575 2.05-4.675 2.05zm-2.9-7.3h5.55c.1 0 .15-.05.15-.15 0-.55-.05-.975-.175-1.35-.4-1.2-1.4-1.875-2.75-1.875s-2.35.675-2.75 1.875c-.125.375-.175.8-.175 1.35 0 .1.05.15.15.15zM958.65 136h-1.6c-.15 0-.25-.1-.25-.25v-11.475c0-.15.1-.25.25-.25h1.6c.15 0 .25.1.25.25v1.225h.025c.525-1.025 1.575-1.75 3.175-1.75.95 0 1.85.35 2.45.9.125.125.15.225.05.35l-.925 1.225c-.1.125-.225.15-.35.05-.55-.35-1.15-.575-1.85-.575-1.825 0-2.575 1.425-2.575 3.5v6.55c0 .15-.1.25-.25.25z" fill="#FFF" fill-rule="nonzero"/><path d="M827 143.5h210" stroke="#FFF" stroke-width=".5" stroke-linecap="square"/><path d="M319.423 161h-1.036c-.09 0-.15-.06-.15-.15v-8.715c0-.06-.03-.09-.09-.09h-2.79c-.09 0-.15-.06-.15-.15v-.945c0-.09.06-.15.15-.15h7.095c.09 0 .15.06.15.15v.945c0 .09-.06.15-.15.15h-2.79c-.06 0-.09.03-.09.09v8.715c0 .09-.06.15-.15.15zm7.11.165c-1.396 0-2.446-.72-2.836-1.935-.164-.495-.24-.99-.24-1.83 0-.825.076-1.32.24-1.815.39-1.23 1.44-1.935 2.836-1.935 1.394 0 2.445.705 2.834 1.935.166.495.24.99.24 1.815 0 .84-.075 1.335-.24 1.83-.39 1.215-1.44 1.935-2.834 1.935zm0-1.17c.794 0 1.38-.405 1.62-1.125.12-.39.164-.78.164-1.47s-.045-1.065-.165-1.455c-.24-.72-.825-1.125-1.62-1.125-.794 0-1.38.405-1.62 1.125-.12.39-.164.765-.164 1.455 0 .69.045 1.08.165 1.47.24.72.825 1.125 1.62 1.125z" fill="#FFF" fill-rule="nonzero"/><path d="M248 143.5h150" stroke="#FFF" stroke-width=".5" stroke-linecap="square"/><path d="M95.682 160.85v-9.9c0-.09.06-.15.15-.15h6.136c.09 0 .15.06.15.15v.945c0 .09-.06.15-.15.15h-4.86c-.06 0-.09.03-.09.09v3.105c0 .06.03.09.09.09h4.124c.09 0 .15.06.15.15v.945c0 .09-.06.15-.15.15h-4.125c-.06 0-.09.03-.09.09v4.185c0 .09-.06.15-.15.15h-1.035c-.09 0-.15-.06-.15-.15zm9.78.15h-.96c-.09 0-.15-.06-.15-.15v-6.885c0-.09.06-.15.15-.15h.96c.09 0 .15.06.15.15v.735h.016c.314-.615.945-1.05 1.904-1.05.57 0 1.11.21 1.47.54.076.075.09.135.03.21l-.554.735c-.06.075-.135.09-.21.03-.33-.21-.69-.345-1.11-.345-1.096 0-1.546.855-1.546 2.1v3.93c0 .09-.06.15-.15.15zm8.13.165c-1.394 0-2.445-.72-2.835-1.935-.165-.495-.24-.99-.24-1.83 0-.825.076-1.32.24-1.815.39-1.23 1.44-1.935 2.835-1.935s2.445.705 2.835 1.935c.165.495.24.99.24 1.815 0 .84-.075 1.335-.24 1.83-.39 1.215-1.44 1.935-2.835 1.935zm0-1.17c.796 0 1.38-.405 1.62-1.125.12-.39.165-.78.165-1.47s-.044-1.065-.164-1.455c-.24-.72-.825-1.125-1.62-1.125-.796 0-1.38.405-1.62 1.125-.12.39-.165.765-.165 1.455 0 .69.044 1.08.164 1.47.24.72.826 1.125 1.62 1.125zm15.96 1.005h-.96c-.09 0-.15-.06-.15-.15v-4.2c0-1.155-.525-1.83-1.605-1.83-.96 0-1.65.69-1.65 1.755v4.275c0 .09-.06.15-.15.15h-.96c-.09 0-.15-.06-.15-.15v-4.2c0-1.155-.525-1.83-1.605-1.83-.975 0-1.65.69-1.65 1.755v4.275c0 .09-.06.15-.15.15h-.96c-.09 0-.15-.06-.15-.15v-6.885c0-.09.06-.15.15-.15h.96c.09 0 .15.06.15.15v.66h.016c.344-.555 1.034-.975 2.01-.975.975 0 1.695.405 2.1 1.125h.014c.496-.69 1.23-1.125 2.326-1.125 1.665 0 2.564 1.065 2.564 2.7v4.5c0 .09-.06.15-.15.15z" fill="#FFF" fill-rule="nonzero"/><path d="M38 143.5h150" stroke="#FFF" stroke-width=".5" stroke-linecap="square"/><path d="M641.1 135.75v-16.5c0-.15.1-.25.25-.25h10.225c.15 0 .25.1.25.25v1.575c0 .15-.1.25-.25.25h-8.1c-.1 0-.15.05-.15.15v5.175c0 .1.05.15.15.15h6.875c.15 0 .25.1.25.25v1.575c0 .15-.1.25-.25.25h-6.875c-.1 0-.15.05-.15.15v6.975c0 .15-.1.25-.25.25h-1.725c-.15 0-.25-.1-.25-.25zm17.675.525c-2.425 0-4.15-1.175-4.8-3.25-.25-.775-.4-1.65-.4-3.025s.125-2.3.375-3.025c.675-2.075 2.425-3.225 4.7-3.225 2.3 0 4.025 1.175 4.7 3.225.25.775.375 1.6.375 3.425 0 .15-.1.25-.275.25h-7.575c-.1 0-.15.05-.15.15 0 .65.075 1.05.2 1.45.475 1.375 1.55 2.075 3.025 2.075 1.425 0 2.425-.575 3.075-1.325.125-.125.25-.15.375-.05l1.025.925c.125.1.125.225.025.35-.95 1.2-2.575 2.05-4.675 2.05zm-2.9-7.3h5.55c.1 0 .15-.05.15-.15 0-.55-.05-.975-.175-1.35-.4-1.2-1.4-1.875-2.75-1.875s-2.35.675-2.75 1.875c-.125.375-.175.8-.175 1.35 0 .1.05.15.15.15zM669.35 136h-1.6c-.15 0-.25-.1-.25-.25v-16.5c0-.15.1-.25.25-.25h1.6c.15 0 .25.1.25.25v6.15h.025c.575-.95 1.6-1.65 3.4-1.65 2.075 0 3.525.975 4.125 2.875.325.95.425 1.9.425 3.375 0 1.5-.1 2.45-.425 3.4-.6 1.9-2.05 2.875-4.125 2.875-1.8 0-2.825-.725-3.4-1.675h-.025v1.15c0 .15-.1.25-.25.25zm3.175-1.675c1.325 0 2.225-.65 2.625-1.825.2-.625.275-1.4.275-2.5 0-1.075-.075-1.85-.275-2.5-.4-1.175-1.3-1.8-2.625-1.8s-2.25.6-2.65 1.8c-.2.6-.275 1.3-.275 2.5s.075 1.925.275 2.5c.4 1.2 1.325 1.825 2.65 1.825zm15.15 1.425v-1.3c0-.15.025-.225.125-.35l6.125-7.8c.75-.95 1.2-1.875 1.2-2.95 0-1.525-1.025-2.675-2.675-2.675-1.625 0-2.525.975-2.775 2.5-.025.15-.125.225-.275.2l-1.525-.325c-.15-.05-.225-.15-.2-.3.225-2.025 1.825-4.025 4.825-4.025 2.975 0 4.775 2 4.775 4.625 0 1.525-.625 2.775-1.65 4.075l-5.25 6.6v.025h6.65c.15 0 .25.1.25.25v1.45c0 .15-.1.25-.25.25h-9.1c-.15 0-.25-.1-.25-.25zm18.075 0v-14.1h-.05l-2.825 1.975c-.15.1-.275.05-.275-.15v-1.85c0-.15.05-.25.175-.35l2.925-2.125c.125-.1.225-.15.4-.15h1.5c.15 0 .25.1.25.25v16.5c0 .15-.1.25-.25.25H706c-.15 0-.25-.1-.25-.25z" fill="#FFF" fill-rule="nonzero"/><path d="M639 143.5h150" stroke="#FFF" stroke-width=".5" stroke-linecap="square"/><path d="M785.826 122.958h-1.165v-1.164h-.776v1.164h-6.21v-1.164h-.776v1.164h-1.164c-1.07 0-1.941.871-1.941 1.941v8.928c0 1.07.87 1.94 1.94 1.94h10.092c1.07 0 1.94-.87 1.94-1.94v-8.928c0-1.07-.87-1.94-1.94-1.94zm1.164 10.868c0 .642-.522 1.164-1.164 1.164h-10.091a1.166 1.166 0 0 1-1.165-1.164v-6.986h12.42v6.986zm0-7.763h-12.42V124.9c0-.643.522-1.165 1.165-1.165h1.164v.776h.776v-.775h6.21v.776h.776v-.776h1.165c.642 0 1.164.521 1.164 1.164v1.164z" fill="#FFF" fill-rule="nonzero"/><g class="cursor-hand" fill-rule="nonzero"><path d="M926.936 215.704a3.21 3.21 0 0 0-1.293.271c-.368-1.52-1.688-2.65-3.256-2.65a3.21 3.21 0 0 0-1.293.271c-.369-1.52-1.689-2.65-3.256-2.65-.42 0-.82.081-1.19.229v-2.663c0-1.937-1.507-3.512-3.358-3.512-1.852 0-3.358 1.575-3.358 3.512v13.158l-1.2-1.255a3.258 3.258 0 0 0-4.749 0 3.57 3.57 0 0 0-.983 2.483c0 .938.35 1.82.983 2.483l7.895 8.257c2.038 2.168 4.76 3.362 7.666 3.362 5.62 0 10.29-4.54 10.718-10.372.021-.089.032-.18.032-.276v-7.136c0-1.936-1.506-3.512-3.358-3.512z" fill="#373636"/><g transform="translate(903 205)"><use fill="#000" filter="url(#b)" xlink:href="#c"/><use fill="#FFF" xlink:href="#c"/></g></g></g><g class="nlp-box"><path stroke="#E5E5E5" fill="#FFF" d="M101.5 89.5h891v104h-891z"/><path d="M123.184 130.706v-17.16c0-.156.104-.26.26-.26h10.634c.156 0 .26.104.26.26v1.638c0 .156-.104.26-.26.26h-8.424c-.104 0-.156.052-.156.156v5.382c0 .104.052.156.156.156h7.15c.156 0 .26.104.26.26v1.638c0 .156-.104.26-.26.26h-7.15c-.104 0-.156.052-.156.156v7.254c0 .156-.104.26-.26.26h-1.794c-.156 0-.26-.104-.26-.26zm18.278.39h-.884c-2.184 0-3.042-1.04-3.042-3.276v-14.274c0-.156.104-.26.26-.26h1.664c.156 0 .26.104.26.26v14.144c0 1.04.39 1.378 1.248 1.378h.494c.156 0 .26.104.26.26v1.508c0 .156-.104.26-.26.26zm4.004 4.55h-.676c-.156 0-.26-.104-.26-.26v-1.508c0-.156.104-.26.26-.26h.468c1.014 0 1.56-.442 2.106-1.872l.416-1.144-4.576-11.83c-.052-.156.026-.26.208-.26h1.82c.156 0 .26.078.312.26l3.276 8.996h.052l3.146-8.996c.052-.182.156-.26.312-.26h1.768c.156 0 .26.104.208.26l-4.914 13.156c-1.092 2.938-2.054 3.718-3.926 3.718zm20.202-4.68h-1.664c-.156 0-.26-.104-.26-.26v-10.27c0-.104-.052-.156-.156-.156h-1.066c-.156 0-.26-.104-.26-.26v-1.248c0-.156.104-.26.26-.26h1.066c.104 0 .156-.052.156-.156v-1.066c0-2.938 1.196-4.004 3.796-4.004h.962c.156 0 .26.104.26.26v1.508c0 .156-.104.26-.26.26h-.676c-1.586 0-1.898.338-1.898 1.872v1.17c0 .104.052.156.156.156h2.418c.156 0 .26.104.26.26v1.248c0 .156-.104.26-.26.26h-2.418c-.104 0-.156.052-.156.156v10.27c0 .156-.104.26-.26.26zm7.852 0h-1.664c-.156 0-.26-.104-.26-.26v-11.934c0-.156.104-.26.26-.26h1.664c.156 0 .26.104.26.26v1.274h.026c.546-1.066 1.638-1.82 3.302-1.82.988 0 1.924.364 2.548.936.13.13.156.234.052.364l-.962 1.274c-.104.13-.234.156-.364.052-.572-.364-1.196-.598-1.924-.598-1.898 0-2.678 1.482-2.678 3.64v6.812c0 .156-.104.26-.26.26zm12.844.286c-2.418 0-4.238-1.248-4.914-3.354-.286-.858-.416-1.716-.416-3.172 0-1.43.13-2.288.416-3.146.676-2.132 2.496-3.354 4.914-3.354 2.418 0 4.238 1.222 4.914 3.354.286.858.416 1.716.416 3.146 0 1.456-.13 2.314-.416 3.172-.676 2.106-2.496 3.354-4.914 3.354zm0-2.028c1.378 0 2.392-.702 2.808-1.95.208-.676.286-1.352.286-2.548s-.078-1.846-.286-2.522c-.416-1.248-1.43-1.95-2.808-1.95s-2.392.702-2.808 1.95c-.208.676-.286 1.326-.286 2.522 0 1.196.078 1.872.286 2.548.416 1.248 1.43 1.95 2.808 1.95zm26.416 1.742h-1.664c-.156 0-.26-.104-.26-.26v-7.28c0-2.002-.91-3.172-2.782-3.172-1.664 0-2.86 1.196-2.86 3.042v7.41c0 .156-.104.26-.26.26h-1.664c-.156 0-.26-.104-.26-.26v-7.28c0-2.002-.91-3.172-2.782-3.172-1.69 0-2.86 1.196-2.86 3.042v7.41c0 .156-.104.26-.26.26h-1.664c-.156 0-.26-.104-.26-.26v-11.934c0-.156.104-.26.26-.26h1.664c.156 0 .26.104.26.26v1.144h.026c.598-.962 1.794-1.69 3.484-1.69s2.938.702 3.64 1.95h.026c.858-1.196 2.132-1.95 4.03-1.95 2.886 0 4.446 1.846 4.446 4.68v7.8c0 .156-.104.26-.26.26zm10.53-3.874c-.338-1.014-.468-2.028-.468-4.966s.13-3.952.468-4.966c.884-2.782 2.99-4.16 5.876-4.16 2.626 0 4.654 1.3 5.668 3.562.052.13.026.26-.104.338l-1.56.754a.259.259 0 0 1-.364-.13c-.702-1.378-1.794-2.366-3.64-2.366-1.924 0-3.094.936-3.666 2.6-.234.728-.338 1.586-.338 4.368s.104 3.64.338 4.368c.572 1.664 1.742 2.6 3.666 2.6 1.846 0 2.938-.988 3.64-2.366a.259.259 0 0 1 .364-.13l1.56.754c.13.078.156.208.104.338-1.014 2.262-3.042 3.562-5.668 3.562-2.886 0-4.992-1.378-5.876-4.16zm24.57 3.874h-1.664c-.156 0-.26-.104-.26-.26v-7.28c0-2.002-.91-3.172-2.782-3.172-1.69 0-2.86 1.196-2.86 3.042v7.41c0 .156-.104.26-.26.26h-1.664c-.156 0-.26-.104-.26-.26v-17.16c0-.156.104-.26.26-.26h1.664c.156 0 .26.104.26.26v6.37h.026c.598-.962 1.794-1.69 3.484-1.69 2.704 0 4.316 1.846 4.316 4.68v7.8c0 .156-.104.26-.26.26zm6.37-15.262h-1.768c-.156 0-.26-.104-.26-.26v-1.898c0-.156.104-.26.26-.26h1.768c.156 0 .26.104.26.26v1.898c0 .156-.104.26-.26.26zm-.052 15.262h-1.664c-.156 0-.26-.104-.26-.26v-11.934c0-.156.104-.26.26-.26h1.664c.156 0 .26.104.26.26v11.934c0 .156-.104.26-.26.26zm3.77-6.24c0-1.378.156-2.392.39-3.146.702-2.158 2.522-3.354 4.914-3.354 1.898 0 3.354.806 4.264 2.106.078.13.078.234-.078.364l-1.144.936c-.13.104-.26.104-.364-.026-.728-.91-1.43-1.352-2.678-1.352-1.352 0-2.366.65-2.782 1.95-.208.65-.286 1.43-.286 2.522 0 1.118.078 1.898.286 2.548.416 1.3 1.43 1.95 2.782 1.95 1.248 0 1.95-.442 2.678-1.352.104-.13.234-.13.364-.026l1.144.936c.156.13.156.234.078.364-.91 1.3-2.366 2.106-4.264 2.106-2.392 0-4.212-1.196-4.914-3.354-.234-.754-.39-1.768-.39-3.172zm21.788 6.24h-1.534c-.156 0-.26-.104-.26-.26v-1.092h-.026c-.572.936-1.794 1.638-3.692 1.638-2.366 0-4.186-1.222-4.186-3.744 0-2.626 1.82-3.848 4.862-3.848h2.834c.104 0 .156-.052.156-.156v-.91c0-1.716-.676-2.444-2.99-2.444-1.404 0-2.288.364-3.016.884-.13.104-.286.104-.364-.026l-.702-1.196c-.078-.156-.052-.26.052-.364.936-.728 2.392-1.222 4.238-1.222 3.536 0 4.888 1.17 4.888 4.238v8.242c0 .156-.104.26-.26.26zm-4.992-1.586c1.95 0 3.146-.91 3.146-2.444v-1.378c0-.104-.052-.156-.156-.156h-2.496c-2.158 0-3.094.624-3.094 2.028 0 1.274.936 1.95 2.6 1.95zm13.468 6.552c-1.742 0-3.484-.754-4.316-1.846-.104-.13-.104-.234.026-.364l1.066-1.066c.13-.13.26-.13.39 0 .858.78 1.742 1.248 2.938 1.248 2.054 0 3.146-1.066 3.146-3.354v-1.456h-.026c-.572 1.04-1.638 1.716-3.458 1.716-2.106 0-3.562-1.066-4.186-3.016-.312-.936-.416-1.846-.416-3.276 0-1.43.104-2.34.416-3.276.624-1.95 2.08-3.016 4.186-3.016 1.82 0 2.886.676 3.458 1.716h.026v-1.17c0-.156.104-.26.26-.26h1.664c.156 0 .26.104.26.26v11.648c0 3.536-1.924 5.512-5.434 5.512zm.312-7.124c1.3 0 2.21-.598 2.652-1.872.208-.624.286-1.352.286-2.418s-.078-1.768-.286-2.418c-.442-1.274-1.352-1.846-2.652-1.846-1.352 0-2.21.65-2.626 1.846-.208.65-.312 1.404-.312 2.418 0 1.014.104 1.794.312 2.418.416 1.222 1.274 1.872 2.626 1.872zm13.962 2.444c-2.418 0-4.238-1.248-4.914-3.354-.286-.858-.416-1.716-.416-3.172 0-1.43.13-2.288.416-3.146.676-2.132 2.496-3.354 4.914-3.354 2.418 0 4.238 1.222 4.914 3.354.286.858.416 1.716.416 3.146 0 1.456-.13 2.314-.416 3.172-.676 2.106-2.496 3.354-4.914 3.354zm0-2.028c1.378 0 2.392-.702 2.808-1.95.208-.676.286-1.352.286-2.548s-.078-1.846-.286-2.522c-.416-1.248-1.43-1.95-2.808-1.95s-2.392.702-2.808 1.95c-.208.676-.286 1.326-.286 2.522 0 1.196.078 1.872.286 2.548.416 1.248 1.43 1.95 2.808 1.95zm19.656 1.872h-.962c-2.418 0-3.354-1.092-3.354-3.536v-7.124c0-.104-.052-.156-.156-.156h-1.04c-.156 0-.26-.104-.26-.26v-1.248c0-.156.104-.26.26-.26h1.04c.104 0 .156-.052.156-.156v-3.51c0-.156.104-.26.26-.26h1.664c.156 0 .26.104.26.26v3.51c0 .104.052.156.156.156h1.976c.156 0 .26.104.26.26v1.248c0 .156-.104.26-.26.26h-1.976c-.104 0-.156.052-.156.156v7.046c0 1.248.468 1.586 1.586 1.586h.546c.156 0 .26.104.26.26v1.508c0 .156-.104.26-.26.26zm8.216.156c-2.418 0-4.238-1.248-4.914-3.354-.286-.858-.416-1.716-.416-3.172 0-1.43.13-2.288.416-3.146.676-2.132 2.496-3.354 4.914-3.354 2.418 0 4.238 1.222 4.914 3.354.286.858.416 1.716.416 3.146 0 1.456-.13 2.314-.416 3.172-.676 2.106-2.496 3.354-4.914 3.354zm0-2.028c1.378 0 2.392-.702 2.808-1.95.208-.676.286-1.352.286-2.548s-.078-1.846-.286-2.522c-.416-1.248-1.43-1.95-2.808-1.95s-2.392.702-2.808 1.95c-.208.676-.286 1.326-.286 2.522 0 1.196.078 1.872.286 2.548.416 1.248 1.43 1.95 2.808 1.95zm15.132 1.482v-17.16c0-.156.104-.26.26-.26h1.664c.208 0 .338.052.442.26l8.008 13.26h.104v-13.26c0-.156.104-.26.26-.26h1.638c.156 0 .26.104.26.26v17.16c0 .156-.104.26-.26.26h-1.664c-.182 0-.338-.052-.442-.26l-8.034-13.208h-.078v13.208c0 .156-.104.26-.26.26h-1.638c-.156 0-.26-.104-.26-.26zm21.606.546c-2.522 0-4.316-1.222-4.992-3.38-.26-.806-.416-1.716-.416-3.146s.13-2.392.39-3.146c.702-2.158 2.522-3.354 4.888-3.354 2.392 0 4.186 1.222 4.888 3.354.26.806.39 1.664.39 3.562 0 .156-.104.26-.286.26H364.1c-.104 0-.156.052-.156.156 0 .676.078 1.092.208 1.508.494 1.43 1.612 2.158 3.146 2.158 1.482 0 2.522-.598 3.198-1.378.13-.13.26-.156.39-.052l1.066.962c.13.104.13.234.026.364-.988 1.248-2.678 2.132-4.862 2.132zm-3.016-7.592h5.772c.104 0 .156-.052.156-.156 0-.572-.052-1.014-.182-1.404-.416-1.248-1.456-1.95-2.86-1.95s-2.444.702-2.86 1.95c-.13.39-.182.832-.182 1.404 0 .104.052.156.156.156zm23.868 7.306h-1.482c-.156 0-.26-.104-.312-.26l-2.808-8.918h-.052l-2.834 8.918c-.052.156-.156.26-.312.26h-1.508c-.156 0-.26-.104-.312-.26l-3.9-11.934c-.052-.156.026-.26.182-.26h1.768c.182 0 .26.052.338.26l2.756 8.996h.052l2.808-8.996c.052-.182.156-.26.312-.26h1.352c.156 0 .286.078.338.26l2.834 8.996h.052l2.678-8.996c.052-.208.156-.26.338-.26h1.768c.156 0 .234.104.182.26l-3.926 11.934c-.052.156-.13.26-.312.26zm16.146 0h-1.534c-.156 0-.26-.104-.26-.26v-1.092h-.026c-.572.936-1.794 1.638-3.692 1.638-2.366 0-4.186-1.222-4.186-3.744 0-2.626 1.82-3.848 4.862-3.848h2.834c.104 0 .156-.052.156-.156v-.91c0-1.716-.676-2.444-2.99-2.444-1.404 0-2.288.364-3.016.884-.13.104-.286.104-.364-.026l-.702-1.196c-.078-.156-.052-.26.052-.364.936-.728 2.392-1.222 4.238-1.222 3.536 0 4.888 1.17 4.888 4.238v8.242c0 .156-.104.26-.26.26zm-4.992-1.586c1.95 0 3.146-.91 3.146-2.444v-1.378c0-.104-.052-.156-.156-.156h-2.496c-2.158 0-3.094.624-3.094 2.028 0 1.274.936 1.95 2.6 1.95zm11.336 1.586h-1.664c-.156 0-.26-.104-.26-.26v-11.934c0-.156.104-.26.26-.26h1.664c.156 0 .26.104.26.26v1.274h.026c.546-1.066 1.638-1.82 3.302-1.82.988 0 1.924.364 2.548.936.13.13.156.234.052.364l-.962 1.274c-.104.13-.234.156-.364.052-.572-.364-1.196-.598-1.924-.598-1.898 0-2.678 1.482-2.678 3.64v6.812c0 .156-.104.26-.26.26zm18.954 0h-1.924c-.182 0-.312-.078-.416-.26l-3.536-5.798-2.158 2.522v3.276c0 .156-.104.26-.26.26h-1.664c-.156 0-.26-.104-.26-.26v-17.16c0-.156.104-.26.26-.26h1.664c.156 0 .26.104.26.26v10.998l4.914-5.798c.156-.182.286-.234.468-.234h1.924c.156 0 .208.13.104.26l-3.822 4.446 4.602 7.488c.078.104 0 .26-.156.26zm13.884.286c-2.418 0-4.238-1.248-4.914-3.354-.286-.858-.416-1.716-.416-3.172 0-1.43.13-2.288.416-3.146.676-2.132 2.496-3.354 4.914-3.354 2.418 0 4.238 1.222 4.914 3.354.286.858.416 1.716.416 3.146 0 1.456-.13 2.314-.416 3.172-.676 2.106-2.496 3.354-4.914 3.354zm0-2.028c1.378 0 2.392-.702 2.808-1.95.208-.676.286-1.352.286-2.548s-.078-1.846-.286-2.522c-.416-1.248-1.43-1.95-2.808-1.95s-2.392.702-2.808 1.95c-.208.676-.286 1.326-.286 2.522 0 1.196.078 1.872.286 2.548.416 1.248 1.43 1.95 2.808 1.95zm18.59 1.742h-1.664c-.156 0-.26-.104-.26-.26v-7.28c0-2.002-.91-3.172-2.782-3.172-1.69 0-2.86 1.196-2.86 3.042v7.41c0 .156-.104.26-.26.26h-1.664c-.156 0-.26-.104-.26-.26v-11.934c0-.156.104-.26.26-.26h1.664c.156 0 .26.104.26.26v1.144h.026c.598-.962 1.794-1.69 3.484-1.69 2.704 0 4.316 1.846 4.316 4.68v7.8c0 .156-.104.26-.26.26zm16.094 0h-1.794c-.156 0-.26-.104-.26-.26V115.6c0-.104-.052-.156-.156-.156h-4.836c-.156 0-.26-.104-.26-.26v-1.638c0-.156.104-.26.26-.26h12.298c.156 0 .26.104.26.26v1.638c0 .156-.104.26-.26.26h-4.836c-.104 0-.156.052-.156.156v15.106c0 .156-.104.26-.26.26zm16.302 0h-1.664c-.156 0-.26-.104-.26-.26v-1.17h-.026c-.65 1.04-1.794 1.716-3.406 1.716-2.73 0-4.316-1.872-4.316-4.706v-7.774c0-.156.104-.26.26-.26h1.664c.156 0 .26.104.26.26v7.254c0 2.028.91 3.198 2.756 3.198 1.69 0 2.808-1.196 2.808-3.068v-7.384c0-.156.104-.26.26-.26h1.664c.156 0 .26.104.26.26v11.934c0 .156-.104.26-.26.26zm9.178.286c-2.522 0-4.316-1.222-4.992-3.38-.26-.806-.416-1.716-.416-3.146s.13-2.392.39-3.146c.702-2.158 2.522-3.354 4.888-3.354 2.392 0 4.186 1.222 4.888 3.354.26.806.39 1.664.39 3.562 0 .156-.104.26-.286.26h-7.878c-.104 0-.156.052-.156.156 0 .676.078 1.092.208 1.508.494 1.43 1.612 2.158 3.146 2.158 1.482 0 2.522-.598 3.198-1.378.13-.13.26-.156.39-.052l1.066.962c.13.104.13.234.026.364-.988 1.248-2.678 2.132-4.862 2.132zm-3.016-7.592h5.772c.104 0 .156-.052.156-.156 0-.572-.052-1.014-.182-1.404-.416-1.248-1.456-1.95-2.86-1.95s-2.444.702-2.86 1.95c-.13.39-.182.832-.182 1.404 0 .104.052.156.156.156zm15.964 7.592c-2.418 0-4.134-.988-5.148-1.872a.251.251 0 0 1 0-.364l1.066-1.144a.251.251 0 0 1 .364 0c.936.806 2.34 1.43 3.848 1.43 1.82 0 2.73-.78 2.73-1.898 0-.988-.468-1.534-2.418-1.742l-1.326-.13c-2.444-.26-3.718-1.482-3.718-3.51 0-2.366 1.69-3.796 4.628-3.796 1.82 0 3.38.598 4.42 1.378.13.078.13.234.052.364l-.884 1.118c-.104.13-.234.13-.364.052-.806-.52-2.08-1.014-3.354-1.014-1.56 0-2.366.702-2.366 1.716 0 .988.598 1.508 2.444 1.69l1.3.13c2.522.234 3.744 1.508 3.744 3.51 0 2.444-1.768 4.082-5.018 4.082zm17.914-.286h-1.664c-.156 0-.26-.104-.26-.26v-1.196h-.026c-.598.988-1.664 1.742-3.536 1.742-2.158 0-3.666-1.014-4.29-2.99-.338-.988-.442-1.976-.442-3.536 0-1.534.104-2.522.442-3.51.624-1.976 2.132-2.99 4.29-2.99 1.872 0 2.938.728 3.536 1.716h.026v-6.396c0-.156.104-.26.26-.26h1.664c.156 0 .26.104.26.26v17.16c0 .156-.104.26-.26.26zm-4.966-1.742c1.378 0 2.34-.65 2.756-1.898.208-.598.286-1.352.286-2.6s-.078-1.976-.286-2.6c-.416-1.248-1.378-1.872-2.756-1.872s-2.314.65-2.73 1.872c-.208.676-.286 1.482-.286 2.6 0 1.144.078 1.95.286 2.6.416 1.222 1.352 1.898 2.73 1.898zm18.564 1.742h-1.534c-.156 0-.26-.104-.26-.26v-1.092h-.026c-.572.936-1.794 1.638-3.692 1.638-2.366 0-4.186-1.222-4.186-3.744 0-2.626 1.82-3.848 4.862-3.848h2.834c.104 0 .156-.052.156-.156v-.91c0-1.716-.676-2.444-2.99-2.444-1.404 0-2.288.364-3.016.884-.13.104-.286.104-.364-.026l-.702-1.196c-.078-.156-.052-.26.052-.364.936-.728 2.392-1.222 4.238-1.222 3.536 0 4.888 1.17 4.888 4.238v8.242c0 .156-.104.26-.26.26zm-4.992-1.586c1.95 0 3.146-.91 3.146-2.444v-1.378c0-.104-.052-.156-.156-.156h-2.496c-2.158 0-3.094.624-3.094 2.028 0 1.274.936 1.95 2.6 1.95zm10.088 6.266h-.676c-.156 0-.26-.104-.26-.26v-1.508c0-.156.104-.26.26-.26h.468c1.014 0 1.56-.442 2.106-1.872l.416-1.144-4.576-11.83c-.052-.156.026-.26.208-.26h1.82c.156 0 .26.078.312.26l3.276 8.996h.052l3.146-8.996c.052-.182.156-.26.312-.26h1.768c.156 0 .26.104.208.26l-4.914 13.156c-1.092 2.938-2.054 3.718-3.926 3.718zm19.786-4.68h-1.664c-.156 0-.26-.104-.26-.26v-17.16c0-.156.104-.26.26-.26h1.664c.156 0 .26.104.26.26v6.396h.026c.598-.988 1.664-1.716 3.536-1.716 2.158 0 3.666 1.014 4.29 2.99.338.988.442 1.976.442 3.51 0 1.56-.104 2.548-.442 3.536-.624 1.976-2.132 2.99-4.29 2.99-1.872 0-2.938-.754-3.536-1.742h-.026v1.196c0 .156-.104.26-.26.26zm3.302-1.742c1.378 0 2.314-.676 2.73-1.898.208-.65.286-1.456.286-2.6 0-1.118-.078-1.924-.286-2.6-.416-1.222-1.352-1.872-2.73-1.872s-2.34.624-2.756 1.872c-.208.624-.286 1.352-.286 2.6s.078 2.002.286 2.6c.416 1.248 1.378 1.898 2.756 1.898zm13.416 2.028c-2.522 0-4.316-1.222-4.992-3.38-.26-.806-.416-1.716-.416-3.146s.13-2.392.39-3.146c.702-2.158 2.522-3.354 4.888-3.354 2.392 0 4.186 1.222 4.888 3.354.26.806.39 1.664.39 3.562 0 .156-.104.26-.286.26h-7.878c-.104 0-.156.052-.156.156 0 .676.078 1.092.208 1.508.494 1.43 1.612 2.158 3.146 2.158 1.482 0 2.522-.598 3.198-1.378.13-.13.26-.156.39-.052l1.066.962c.13.104.13.234.026.364-.988 1.248-2.678 2.132-4.862 2.132zm-3.016-7.592h5.772c.104 0 .156-.052.156-.156 0-.572-.052-1.014-.182-1.404-.416-1.248-1.456-1.95-2.86-1.95s-2.444.702-2.86 1.95c-.13.39-.182.832-.182 1.404 0 .104.052.156.156.156zm14.014 7.306h-1.664c-.156 0-.26-.104-.26-.26v-10.27c0-.104-.052-.156-.156-.156h-1.066c-.156 0-.26-.104-.26-.26v-1.248c0-.156.104-.26.26-.26h1.066c.104 0 .156-.052.156-.156v-1.066c0-2.938 1.196-4.004 3.796-4.004h.962c.156 0 .26.104.26.26v1.508c0 .156-.104.26-.26.26h-.676c-1.586 0-1.898.338-1.898 1.872v1.17c0 .104.052.156.156.156h2.418c.156 0 .26.104.26.26v1.248c0 .156-.104.26-.26.26h-2.418c-.104 0-.156.052-.156.156v10.27c0 .156-.104.26-.26.26zm10.452.286c-2.418 0-4.238-1.248-4.914-3.354-.286-.858-.416-1.716-.416-3.172 0-1.43.13-2.288.416-3.146.676-2.132 2.496-3.354 4.914-3.354 2.418 0 4.238 1.222 4.914 3.354.286.858.416 1.716.416 3.146 0 1.456-.13 2.314-.416 3.172-.676 2.106-2.496 3.354-4.914 3.354zm0-2.028c1.378 0 2.392-.702 2.808-1.95.208-.676.286-1.352.286-2.548s-.078-1.846-.286-2.522c-.416-1.248-1.43-1.95-2.808-1.95s-2.392.702-2.808 1.95c-.208.676-.286 1.326-.286 2.522 0 1.196.078 1.872.286 2.548.416 1.248 1.43 1.95 2.808 1.95zm10.764 1.742h-1.664c-.156 0-.26-.104-.26-.26v-11.934c0-.156.104-.26.26-.26h1.664c.156 0 .26.104.26.26v1.274h.026c.546-1.066 1.638-1.82 3.302-1.82.988 0 1.924.364 2.548.936.13.13.156.234.052.364l-.962 1.274c-.104.13-.234.156-.364.052-.572-.364-1.196-.598-1.924-.598-1.898 0-2.678 1.482-2.678 3.64v6.812c0 .156-.104.26-.26.26zm12.922.286c-2.522 0-4.316-1.222-4.992-3.38-.26-.806-.416-1.716-.416-3.146s.13-2.392.39-3.146c.702-2.158 2.522-3.354 4.888-3.354 2.392 0 4.186 1.222 4.888 3.354.26.806.39 1.664.39 3.562 0 .156-.104.26-.286.26h-7.878c-.104 0-.156.052-.156.156 0 .676.078 1.092.208 1.508.494 1.43 1.612 2.158 3.146 2.158 1.482 0 2.522-.598 3.198-1.378.13-.13.26-.156.39-.052l1.066.962c.13.104.13.234.026.364-.988 1.248-2.678 2.132-4.862 2.132zm-3.016-7.592h5.772c.104 0 .156-.052.156-.156 0-.572-.052-1.014-.182-1.404-.416-1.248-1.456-1.95-2.86-1.95s-2.444.702-2.86 1.95c-.13.39-.182.832-.182 1.404 0 .104.052.156.156.156zm22.126 7.046v-14.664h-.052l-2.938 2.054c-.156.104-.286.052-.286-.156v-1.924c0-.156.052-.26.182-.364l3.042-2.21a.59.59 0 0 1 .416-.156h1.56c.156 0 .26.104.26.26v17.16c0 .156-.104.26-.26.26h-1.664c-.156 0-.26-.104-.26-.26zm9.958-2.808c-.208-.676-.39-1.612-.39-5.772s.182-5.096.39-5.772c.702-2.158 2.392-3.354 4.836-3.354 2.444 0 4.134 1.196 4.836 3.354.208.676.39 1.612.39 5.772s-.182 5.096-.39 5.772c-.702 2.158-2.392 3.354-4.836 3.354-2.444 0-4.134-1.196-4.836-3.354zm2.158-.442c.416 1.17 1.378 1.768 2.678 1.768s2.262-.598 2.678-1.768c.182-.546.286-1.3.286-5.33s-.104-4.784-.286-5.33c-.416-1.17-1.378-1.768-2.678-1.768s-2.262.598-2.678 1.768c-.182.546-.286 1.3-.286 5.33s.104 4.784.286 5.33zm20.93 3.51h-1.534c-.156 0-.26-.104-.26-.26v-1.092h-.026c-.572.936-1.794 1.638-3.692 1.638-2.366 0-4.186-1.222-4.186-3.744 0-2.626 1.82-3.848 4.862-3.848h2.834c.104 0 .156-.052.156-.156v-.91c0-1.716-.676-2.444-2.99-2.444-1.404 0-2.288.364-3.016.884-.13.104-.286.104-.364-.026l-.702-1.196c-.078-.156-.052-.26.052-.364.936-.728 2.392-1.222 4.238-1.222 3.536 0 4.888 1.17 4.888 4.238v8.242c0 .156-.104.26-.26.26zm-4.992-1.586c1.95 0 3.146-.91 3.146-2.444v-1.378c0-.104-.052-.156-.156-.156h-2.496c-2.158 0-3.094.624-3.094 2.028 0 1.274.936 1.95 2.6 1.95zm26.988 1.586h-1.664c-.156 0-.26-.104-.26-.26v-7.28c0-2.002-.91-3.172-2.782-3.172-1.664 0-2.86 1.196-2.86 3.042v7.41c0 .156-.104.26-.26.26h-1.664c-.156 0-.26-.104-.26-.26v-7.28c0-2.002-.91-3.172-2.782-3.172-1.69 0-2.86 1.196-2.86 3.042v7.41c0 .156-.104.26-.26.26h-1.664c-.156 0-.26-.104-.26-.26v-11.934c0-.156.104-.26.26-.26h1.664c.156 0 .26.104.26.26v1.144h.026c.598-.962 1.794-1.69 3.484-1.69s2.938.702 3.64 1.95h.026c.858-1.196 2.132-1.95 4.03-1.95 2.886 0 4.446 1.846 4.446 4.68v7.8c0 .156-.104.26-.26.26zm19.708 0h-1.534c-.156 0-.26-.104-.26-.26v-1.092h-.026c-.572.936-1.794 1.638-3.692 1.638-2.366 0-4.186-1.222-4.186-3.744 0-2.626 1.82-3.848 4.862-3.848h2.834c.104 0 .156-.052.156-.156v-.91c0-1.716-.676-2.444-2.99-2.444-1.404 0-2.288.364-3.016.884-.13.104-.286.104-.364-.026l-.702-1.196c-.078-.156-.052-.26.052-.364.936-.728 2.392-1.222 4.238-1.222 3.536 0 4.888 1.17 4.888 4.238v8.242c0 .156-.104.26-.26.26zm-4.992-1.586c1.95 0 3.146-.91 3.146-2.444v-1.378c0-.104-.052-.156-.156-.156h-2.496c-2.158 0-3.094.624-3.094 2.028 0 1.274.936 1.95 2.6 1.95zm19.162 1.586h-1.664c-.156 0-.26-.104-.26-.26v-7.28c0-2.002-.91-3.172-2.782-3.172-1.69 0-2.86 1.196-2.86 3.042v7.41c0 .156-.104.26-.26.26h-1.664c-.156 0-.26-.104-.26-.26v-11.934c0-.156.104-.26.26-.26h1.664c.156 0 .26.104.26.26v1.144h.026c.598-.962 1.794-1.69 3.484-1.69 2.704 0 4.316 1.846 4.316 4.68v7.8c0 .156-.104.26-.26.26zm13.858 0h-1.664c-.156 0-.26-.104-.26-.26v-1.196h-.026c-.598.988-1.664 1.742-3.536 1.742-2.158 0-3.666-1.014-4.29-2.99-.338-.988-.442-1.976-.442-3.536 0-1.534.104-2.522.442-3.51.624-1.976 2.132-2.99 4.29-2.99 1.872 0 2.938.728 3.536 1.716h.026v-6.396c0-.156.104-.26.26-.26h1.664c.156 0 .26.104.26.26v17.16c0 .156-.104.26-.26.26zm-4.966-1.742c1.378 0 2.34-.65 2.756-1.898.208-.598.286-1.352.286-2.6s-.078-1.976-.286-2.6c-.416-1.248-1.378-1.872-2.756-1.872s-2.314.65-2.73 1.872c-.208.676-.286 1.482-.286 2.6 0 1.144.078 1.95.286 2.6.416 1.222 1.352 1.898 2.73 1.898zm20.306 1.872h-.962c-2.418 0-3.354-1.092-3.354-3.536v-7.124c0-.104-.052-.156-.156-.156h-1.04c-.156 0-.26-.104-.26-.26v-1.248c0-.156.104-.26.26-.26h1.04c.104 0 .156-.052.156-.156v-3.51c0-.156.104-.26.26-.26h1.664c.156 0 .26.104.26.26v3.51c0 .104.052.156.156.156h1.976c.156 0 .26.104.26.26v1.248c0 .156-.104.26-.26.26h-1.976c-.104 0-.156.052-.156.156v7.046c0 1.248.468 1.586 1.586 1.586h.546c.156 0 .26.104.26.26v1.508c0 .156-.104.26-.26.26zm13.39-.13h-1.664c-.156 0-.26-.104-.26-.26v-7.28c0-2.002-.91-3.172-2.782-3.172-1.69 0-2.86 1.196-2.86 3.042v7.41c0 .156-.104.26-.26.26h-1.664c-.156 0-.26-.104-.26-.26v-17.16c0-.156.104-.26.26-.26h1.664c.156 0 .26.104.26.26v6.37h.026c.598-.962 1.794-1.69 3.484-1.69 2.704 0 4.316 1.846 4.316 4.68v7.8c0 .156-.104.26-.26.26zm9.048.286c-2.522 0-4.316-1.222-4.992-3.38-.26-.806-.416-1.716-.416-3.146s.13-2.392.39-3.146c.702-2.158 2.522-3.354 4.888-3.354 2.392 0 4.186 1.222 4.888 3.354.26.806.39 1.664.39 3.562 0 .156-.104.26-.286.26h-7.878c-.104 0-.156.052-.156.156 0 .676.078 1.092.208 1.508.494 1.43 1.612 2.158 3.146 2.158 1.482 0 2.522-.598 3.198-1.378.13-.13.26-.156.39-.052l1.066.962c.13.104.13.234.026.364-.988 1.248-2.678 2.132-4.862 2.132zm-3.016-7.592h5.772c.104 0 .156-.052.156-.156 0-.572-.052-1.014-.182-1.404-.416-1.248-1.456-1.95-2.86-1.95s-2.444.702-2.86 1.95c-.13.39-.182.832-.182 1.404 0 .104.052.156.156.156zm21.424 7.306h-1.664c-.156 0-.26-.104-.26-.26v-7.28c0-2.002-.91-3.172-2.782-3.172-1.69 0-2.86 1.196-2.86 3.042v7.41c0 .156-.104.26-.26.26h-1.664c-.156 0-.26-.104-.26-.26v-11.934c0-.156.104-.26.26-.26h1.664c.156 0 .26.104.26.26v1.144h.026c.598-.962 1.794-1.69 3.484-1.69 2.704 0 4.316 1.846 4.316 4.68v7.8c0 .156-.104.26-.26.26zm12.558 0h-1.664c-.156 0-.26-.104-.26-.26v-11.934c0-.156.104-.26.26-.26h1.664c.156 0 .26.104.26.26v1.274h.026c.546-1.066 1.638-1.82 3.302-1.82.988 0 1.924.364 2.548.936.13.13.156.234.052.364l-.962 1.274c-.104.13-.234.156-.364.052-.572-.364-1.196-.598-1.924-.598-1.898 0-2.678 1.482-2.678 3.64v6.812c0 .156-.104.26-.26.26zm12.922.286c-2.522 0-4.316-1.222-4.992-3.38-.26-.806-.416-1.716-.416-3.146s.13-2.392.39-3.146c.702-2.158 2.522-3.354 4.888-3.354 2.392 0 4.186 1.222 4.888 3.354.26.806.39 1.664.39 3.562 0 .156-.104.26-.286.26h-7.878c-.104 0-.156.052-.156.156 0 .676.078 1.092.208 1.508.494 1.43 1.612 2.158 3.146 2.158 1.482 0 2.522-.598 3.198-1.378.13-.13.26-.156.39-.052l1.066.962c.13.104.13.234.026.364-.988 1.248-2.678 2.132-4.862 2.132zm-3.016-7.592h5.772c.104 0 .156-.052.156-.156 0-.572-.052-1.014-.182-1.404-.416-1.248-1.456-1.95-2.86-1.95s-2.444.702-2.86 1.95c-.13.39-.182.832-.182 1.404 0 .104.052.156.156.156zm16.25 7.436h-.962c-2.418 0-3.354-1.092-3.354-3.536v-7.124c0-.104-.052-.156-.156-.156h-1.04c-.156 0-.26-.104-.26-.26v-1.248c0-.156.104-.26.26-.26h1.04c.104 0 .156-.052.156-.156v-3.51c0-.156.104-.26.26-.26h1.664c.156 0 .26.104.26.26v3.51c0 .104.052.156.156.156h1.976c.156 0 .26.104.26.26v1.248c0 .156-.104.26-.26.26h-1.976c-.104 0-.156.052-.156.156v7.046c0 1.248.468 1.586 1.586 1.586h.546c.156 0 .26.104.26.26v1.508c0 .156-.104.26-.26.26zm13.13-.13h-1.664c-.156 0-.26-.104-.26-.26v-1.17h-.026c-.65 1.04-1.794 1.716-3.406 1.716-2.73 0-4.316-1.872-4.316-4.706v-7.774c0-.156.104-.26.26-.26h1.664c.156 0 .26.104.26.26v7.254c0 2.028.91 3.198 2.756 3.198 1.69 0 2.808-1.196 2.808-3.068v-7.384c0-.156.104-.26.26-.26h1.664c.156 0 .26.104.26.26v11.934c0 .156-.104.26-.26.26zm6.448 0h-1.664c-.156 0-.26-.104-.26-.26v-11.934c0-.156.104-.26.26-.26h1.664c.156 0 .26.104.26.26v1.274h.026c.546-1.066 1.638-1.82 3.302-1.82.988 0 1.924.364 2.548.936.13.13.156.234.052.364l-.962 1.274c-.104.13-.234.156-.364.052-.572-.364-1.196-.598-1.924-.598-1.898 0-2.678 1.482-2.678 3.64v6.812c0 .156-.104.26-.26.26zm18.486 0h-1.664c-.156 0-.26-.104-.26-.26v-7.28c0-2.002-.91-3.172-2.782-3.172-1.69 0-2.86 1.196-2.86 3.042v7.41c0 .156-.104.26-.26.26h-1.664c-.156 0-.26-.104-.26-.26v-11.934c0-.156.104-.26.26-.26h1.664c.156 0 .26.104.26.26v1.144h.026c.598-.962 1.794-1.69 3.484-1.69 2.704 0 4.316 1.846 4.316 4.68v7.8c0 .156-.104.26-.26.26zm-760.63 34h-1.794c-.156 0-.26-.104-.26-.26V149.6c0-.104-.052-.156-.156-.156h-4.836c-.156 0-.26-.104-.26-.26v-1.638c0-.156.104-.26.26-.26h12.298c.156 0 .26.104.26.26v1.638c0 .156-.104.26-.26.26h-4.836c-.104 0-.156.052-.156.156v15.106c0 .156-.104.26-.26.26zm17.966 0h-1.664c-.156 0-.26-.104-.26-.26v-7.28c0-2.002-.91-3.172-2.782-3.172-1.69 0-2.86 1.196-2.86 3.042v7.41c0 .156-.104.26-.26.26h-1.664c-.156 0-.26-.104-.26-.26v-17.16c0-.156.104-.26.26-.26h1.664c.156 0 .26.104.26.26v6.37h.026c.598-.962 1.794-1.69 3.484-1.69 2.704 0 4.316 1.846 4.316 4.68v7.8c0 .156-.104.26-.26.26zm13.884 0h-1.664c-.156 0-.26-.104-.26-.26v-1.17h-.026c-.65 1.04-1.794 1.716-3.406 1.716-2.73 0-4.316-1.872-4.316-4.706v-7.774c0-.156.104-.26.26-.26h1.664c.156 0 .26.104.26.26v7.254c0 2.028.91 3.198 2.756 3.198 1.69 0 2.808-1.196 2.808-3.068v-7.384c0-.156.104-.26.26-.26h1.664c.156 0 .26.104.26.26v11.934c0 .156-.104.26-.26.26zm6.448 0h-1.664c-.156 0-.26-.104-.26-.26v-11.934c0-.156.104-.26.26-.26h1.664c.156 0 .26.104.26.26v1.274h.026c.546-1.066 1.638-1.82 3.302-1.82.988 0 1.924.364 2.548.936.13.13.156.234.052.364l-.962 1.274c-.104.13-.234.156-.364.052-.572-.364-1.196-.598-1.924-.598-1.898 0-2.678 1.482-2.678 3.64v6.812c0 .156-.104.26-.26.26zm12.818.286c-2.418 0-4.134-.988-5.148-1.872a.251.251 0 0 1 0-.364l1.066-1.144a.251.251 0 0 1 .364 0c.936.806 2.34 1.43 3.848 1.43 1.82 0 2.73-.78 2.73-1.898 0-.988-.468-1.534-2.418-1.742l-1.326-.13c-2.444-.26-3.718-1.482-3.718-3.51 0-2.366 1.69-3.796 4.628-3.796 1.82 0 3.38.598 4.42 1.378.13.078.13.234.052.364l-.884 1.118c-.104.13-.234.13-.364.052-.806-.52-2.08-1.014-3.354-1.014-1.56 0-2.366.702-2.366 1.716 0 .988.598 1.508 2.444 1.69l1.3.13c2.522.234 3.744 1.508 3.744 3.51 0 2.444-1.768 4.082-5.018 4.082zm17.914-.286h-1.664c-.156 0-.26-.104-.26-.26v-1.196h-.026c-.598.988-1.664 1.742-3.536 1.742-2.158 0-3.666-1.014-4.29-2.99-.338-.988-.442-1.976-.442-3.536 0-1.534.104-2.522.442-3.51.624-1.976 2.132-2.99 4.29-2.99 1.872 0 2.938.728 3.536 1.716h.026v-6.396c0-.156.104-.26.26-.26h1.664c.156 0 .26.104.26.26v17.16c0 .156-.104.26-.26.26zm-4.966-1.742c1.378 0 2.34-.65 2.756-1.898.208-.598.286-1.352.286-2.6s-.078-1.976-.286-2.6c-.416-1.248-1.378-1.872-2.756-1.872s-2.314.65-2.73 1.872c-.208.676-.286 1.482-.286 2.6 0 1.144.078 1.95.286 2.6.416 1.222 1.352 1.898 2.73 1.898zm18.564 1.742h-1.534c-.156 0-.26-.104-.26-.26v-1.092h-.026c-.572.936-1.794 1.638-3.692 1.638-2.366 0-4.186-1.222-4.186-3.744 0-2.626 1.82-3.848 4.862-3.848h2.834c.104 0 .156-.052.156-.156v-.91c0-1.716-.676-2.444-2.99-2.444-1.404 0-2.288.364-3.016.884-.13.104-.286.104-.364-.026l-.702-1.196c-.078-.156-.052-.26.052-.364.936-.728 2.392-1.222 4.238-1.222 3.536 0 4.888 1.17 4.888 4.238v8.242c0 .156-.104.26-.26.26zm-4.992-1.586c1.95 0 3.146-.91 3.146-2.444v-1.378c0-.104-.052-.156-.156-.156h-2.496c-2.158 0-3.094.624-3.094 2.028 0 1.274.936 1.95 2.6 1.95zm10.088 6.266h-.676c-.156 0-.26-.104-.26-.26v-1.508c0-.156.104-.26.26-.26h.468c1.014 0 1.56-.442 2.106-1.872l.416-1.144-4.576-11.83c-.052-.156.026-.26.208-.26h1.82c.156 0 .26.078.312.26l3.276 8.996h.052l3.146-8.996c.052-.182.156-.26.312-.26h1.768c.156 0 .26.104.208.26l-4.914 13.156c-1.092 2.938-2.054 3.718-3.926 3.718zm22.516-4.394c-2.522 0-4.316-1.222-4.992-3.38-.26-.806-.416-1.716-.416-3.146s.13-2.392.39-3.146c.702-2.158 2.522-3.354 4.888-3.354 2.392 0 4.186 1.222 4.888 3.354.26.806.39 1.664.39 3.562 0 .156-.104.26-.286.26h-7.878c-.104 0-.156.052-.156.156 0 .676.078 1.092.208 1.508.494 1.43 1.612 2.158 3.146 2.158 1.482 0 2.522-.598 3.198-1.378.13-.13.26-.156.39-.052l1.066.962c.13.104.13.234.026.364-.988 1.248-2.678 2.132-4.862 2.132zm-3.016-7.592h5.772c.104 0 .156-.052.156-.156 0-.572-.052-1.014-.182-1.404-.416-1.248-1.456-1.95-2.86-1.95s-2.444.702-2.86 1.95c-.13.39-.182.832-.182 1.404 0 .104.052.156.156.156zm16.484 7.306h-1.482c-.182 0-.26-.104-.312-.26l-4.472-11.934c-.052-.156.026-.26.208-.26h1.794c.182 0 .26.078.338.26l3.224 8.944h.052l3.146-8.944c.052-.182.156-.26.312-.26h1.768c.182 0 .26.104.208.26l-4.446 11.934c-.052.156-.156.26-.338.26zm12.142.286c-2.522 0-4.316-1.222-4.992-3.38-.26-.806-.416-1.716-.416-3.146s.13-2.392.39-3.146c.702-2.158 2.522-3.354 4.888-3.354 2.392 0 4.186 1.222 4.888 3.354.26.806.39 1.664.39 3.562 0 .156-.104.26-.286.26h-7.878c-.104 0-.156.052-.156.156 0 .676.078 1.092.208 1.508.494 1.43 1.612 2.158 3.146 2.158 1.482 0 2.522-.598 3.198-1.378.13-.13.26-.156.39-.052l1.066.962c.13.104.13.234.026.364-.988 1.248-2.678 2.132-4.862 2.132zm-3.016-7.592h5.772c.104 0 .156-.052.156-.156 0-.572-.052-1.014-.182-1.404-.416-1.248-1.456-1.95-2.86-1.95s-2.444.702-2.86 1.95c-.13.39-.182.832-.182 1.404 0 .104.052.156.156.156zm21.424 7.306h-1.664c-.156 0-.26-.104-.26-.26v-7.28c0-2.002-.91-3.172-2.782-3.172-1.69 0-2.86 1.196-2.86 3.042v7.41c0 .156-.104.26-.26.26h-1.664c-.156 0-.26-.104-.26-.26v-11.934c0-.156.104-.26.26-.26h1.664c.156 0 .26.104.26.26v1.144h.026c.598-.962 1.794-1.69 3.484-1.69 2.704 0 4.316 1.846 4.316 4.68v7.8c0 .156-.104.26-.26.26zm6.37-15.262h-1.768c-.156 0-.26-.104-.26-.26v-1.898c0-.156.104-.26.26-.26h1.768c.156 0 .26.104.26.26v1.898c0 .156-.104.26-.26.26zm-.052 15.262h-1.664c-.156 0-.26-.104-.26-.26v-11.934c0-.156.104-.26.26-.26h1.664c.156 0 .26.104.26.26v11.934c0 .156-.104.26-.26.26zm14.274 0h-1.664c-.156 0-.26-.104-.26-.26v-7.28c0-2.002-.91-3.172-2.782-3.172-1.69 0-2.86 1.196-2.86 3.042v7.41c0 .156-.104.26-.26.26h-1.664c-.156 0-.26-.104-.26-.26v-11.934c0-.156.104-.26.26-.26h1.664c.156 0 .26.104.26.26v1.144h.026c.598-.962 1.794-1.69 3.484-1.69 2.704 0 4.316 1.846 4.316 4.68v7.8c0 .156-.104.26-.26.26zm8.45 4.966c-1.742 0-3.484-.754-4.316-1.846-.104-.13-.104-.234.026-.364l1.066-1.066c.13-.13.26-.13.39 0 .858.78 1.742 1.248 2.938 1.248 2.054 0 3.146-1.066 3.146-3.354v-1.456h-.026c-.572 1.04-1.638 1.716-3.458 1.716-2.106 0-3.562-1.066-4.186-3.016-.312-.936-.416-1.846-.416-3.276 0-1.43.104-2.34.416-3.276.624-1.95 2.08-3.016 4.186-3.016 1.82 0 2.886.676 3.458 1.716h.026v-1.17c0-.156.104-.26.26-.26h1.664c.156 0 .26.104.26.26v11.648c0 3.536-1.924 5.512-5.434 5.512zm.312-7.124c1.3 0 2.21-.598 2.652-1.872.208-.624.286-1.352.286-2.418s-.078-1.768-.286-2.418c-.442-1.274-1.352-1.846-2.652-1.846-1.352 0-2.21.65-2.626 1.846-.208.65-.312 1.404-.312 2.418 0 1.014.104 1.794.312 2.418.416 1.222 1.274 1.872 2.626 1.872zm17.966 2.158h-1.664c-.156 0-.26-.104-.26-.26v-10.27c0-.104-.052-.156-.156-.156h-1.066c-.156 0-.26-.104-.26-.26v-1.248c0-.156.104-.26.26-.26h1.066c.104 0 .156-.052.156-.156v-1.066c0-2.938 1.196-4.004 3.796-4.004h.962c.156 0 .26.104.26.26v1.508c0 .156-.104.26-.26.26h-.676c-1.586 0-1.898.338-1.898 1.872v1.17c0 .104.052.156.156.156h2.418c.156 0 .26.104.26.26v1.248c0 .156-.104.26-.26.26h-2.418c-.104 0-.156.052-.156.156v10.27c0 .156-.104.26-.26.26zm7.852 0h-1.664c-.156 0-.26-.104-.26-.26v-11.934c0-.156.104-.26.26-.26h1.664c.156 0 .26.104.26.26v1.274h.026c.546-1.066 1.638-1.82 3.302-1.82.988 0 1.924.364 2.548.936.13.13.156.234.052.364l-.962 1.274c-.104.13-.234.156-.364.052-.572-.364-1.196-.598-1.924-.598-1.898 0-2.678 1.482-2.678 3.64v6.812c0 .156-.104.26-.26.26zm12.844.286c-2.418 0-4.238-1.248-4.914-3.354-.286-.858-.416-1.716-.416-3.172 0-1.43.13-2.288.416-3.146.676-2.132 2.496-3.354 4.914-3.354 2.418 0 4.238 1.222 4.914 3.354.286.858.416 1.716.416 3.146 0 1.456-.13 2.314-.416 3.172-.676 2.106-2.496 3.354-4.914 3.354zm0-2.028c1.378 0 2.392-.702 2.808-1.95.208-.676.286-1.352.286-2.548s-.078-1.846-.286-2.522c-.416-1.248-1.43-1.95-2.808-1.95s-2.392.702-2.808 1.95c-.208.676-.286 1.326-.286 2.522 0 1.196.078 1.872.286 2.548.416 1.248 1.43 1.95 2.808 1.95zm26.416 1.742h-1.664c-.156 0-.26-.104-.26-.26v-7.28c0-2.002-.91-3.172-2.782-3.172-1.664 0-2.86 1.196-2.86 3.042v7.41c0 .156-.104.26-.26.26h-1.664c-.156 0-.26-.104-.26-.26v-7.28c0-2.002-.91-3.172-2.782-3.172-1.69 0-2.86 1.196-2.86 3.042v7.41c0 .156-.104.26-.26.26h-1.664c-.156 0-.26-.104-.26-.26v-11.934c0-.156.104-.26.26-.26h1.664c.156 0 .26.104.26.26v1.144h.026c.598-.962 1.794-1.69 3.484-1.69s2.938.702 3.64 1.95h.026c.858-1.196 2.132-1.95 4.03-1.95 2.886 0 4.446 1.846 4.446 4.68v7.8c0 .156-.104.26-.26.26zm10.686-.26v-17.16c0-.156.104-.26.26-.26h1.794c.156 0 .26.104.26.26v15.106c0 .104.052.156.156.156h8.424c.156 0 .26.104.26.26v1.638c0 .156-.104.26-.26.26h-10.634c-.156 0-.26-.104-.26-.26zm13.052-3.588c-.312-1.014-.468-2.08-.468-4.992s.156-3.978.468-4.992c.884-2.73 3.068-4.134 6.058-4.134 3.094 0 4.992 1.56 5.876 3.51.078.156.052.286-.078.364l-1.56.754c-.156.078-.286.026-.364-.13-.858-1.586-2.002-2.34-3.874-2.34-2.002 0-3.276.936-3.822 2.626-.234.65-.364 1.638-.364 4.342 0 2.704.13 3.692.364 4.342.546 1.69 1.82 2.626 3.822 2.626 1.794 0 3.25-.884 3.796-2.548.182-.598.338-1.456.338-2.782 0-.104-.052-.156-.156-.156h-3.432c-.156 0-.26-.104-.26-.26v-1.508c0-.156.104-.26.26-.26h5.642c.156 0 .26.104.26.26v1.326c0 1.586-.182 3.042-.442 3.9-.858 2.678-3.068 4.186-6.006 4.186-2.99 0-5.174-1.404-6.058-4.134zm14.17 3.588l6.136-17.16c.052-.156.13-.26.312-.26h1.69c.182 0 .286.104.338.26l6.058 17.16c.052.156-.026.26-.182.26h-1.82c-.182 0-.286-.078-.338-.26l-1.352-3.848h-7.15l-1.352 3.848c-.078.182-.182.26-.338.26h-1.82c-.156 0-.234-.104-.182-.26zm4.446-5.98h5.642l-2.782-8.034h-.052l-2.808 8.034zm28.158 6.24h-1.534c-.156 0-.26-.104-.26-.26v-1.092h-.026c-.572.936-1.794 1.638-3.692 1.638-2.366 0-4.186-1.222-4.186-3.744 0-2.626 1.82-3.848 4.862-3.848h2.834c.104 0 .156-.052.156-.156v-.91c0-1.716-.676-2.444-2.99-2.444-1.404 0-2.288.364-3.016.884-.13.104-.286.104-.364-.026l-.702-1.196c-.078-.156-.052-.26.052-.364.936-.728 2.392-1.222 4.238-1.222 3.536 0 4.888 1.17 4.888 4.238v8.242c0 .156-.104.26-.26.26zm-4.992-1.586c1.95 0 3.146-.91 3.146-2.444v-1.378c0-.104-.052-.156-.156-.156h-2.496c-2.158 0-3.094.624-3.094 2.028 0 1.274.936 1.95 2.6 1.95zm11.388-13.676h-1.768c-.156 0-.26-.104-.26-.26v-1.898c0-.156.104-.26.26-.26h1.768c.156 0 .26.104.26.26v1.898c0 .156-.104.26-.26.26zm-.052 15.262h-1.664c-.156 0-.26-.104-.26-.26v-11.934c0-.156.104-.26.26-.26h1.664c.156 0 .26.104.26.26v11.934c0 .156-.104.26-.26.26zm6.448 0h-1.664c-.156 0-.26-.104-.26-.26v-11.934c0-.156.104-.26.26-.26h1.664c.156 0 .26.104.26.26v1.274h.026c.546-1.066 1.638-1.82 3.302-1.82.988 0 1.924.364 2.548.936.13.13.156.234.052.364l-.962 1.274c-.104.13-.234.156-.364.052-.572-.364-1.196-.598-1.924-.598-1.898 0-2.678 1.482-2.678 3.64v6.812c0 .156-.104.26-.26.26zm10.66 4.68h-1.664c-.156 0-.26-.104-.26-.26v-16.614c0-.156.104-.26.26-.26h1.664c.156 0 .26.104.26.26v1.17h.026c.598-.988 1.664-1.716 3.536-1.716 2.158 0 3.666 1.014 4.29 2.99.338.988.442 1.976.442 3.51 0 1.56-.104 2.548-.442 3.536-.624 1.976-2.132 2.99-4.29 2.99-1.872 0-2.938-.754-3.536-1.742h-.026v5.876c0 .156-.104.26-.26.26zm3.302-6.422c1.378 0 2.314-.676 2.73-1.898.208-.65.286-1.456.286-2.6 0-1.118-.078-1.924-.286-2.6-.416-1.222-1.352-1.872-2.73-1.872s-2.34.624-2.756 1.872c-.208.624-.286 1.352-.286 2.6s.078 2.002.286 2.6c.416 1.248 1.378 1.898 2.756 1.898zm13.338 2.028c-2.418 0-4.238-1.248-4.914-3.354-.286-.858-.416-1.716-.416-3.172 0-1.43.13-2.288.416-3.146.676-2.132 2.496-3.354 4.914-3.354 2.418 0 4.238 1.222 4.914 3.354.286.858.416 1.716.416 3.146 0 1.456-.13 2.314-.416 3.172-.676 2.106-2.496 3.354-4.914 3.354zm0-2.028c1.378 0 2.392-.702 2.808-1.95.208-.676.286-1.352.286-2.548s-.078-1.846-.286-2.522c-.416-1.248-1.43-1.95-2.808-1.95s-2.392.702-2.808 1.95c-.208.676-.286 1.326-.286 2.522 0 1.196.078 1.872.286 2.548.416 1.248 1.43 1.95 2.808 1.95zm10.764 1.742h-1.664c-.156 0-.26-.104-.26-.26v-11.934c0-.156.104-.26.26-.26h1.664c.156 0 .26.104.26.26v1.274h.026c.546-1.066 1.638-1.82 3.302-1.82.988 0 1.924.364 2.548.936.13.13.156.234.052.364l-.962 1.274c-.104.13-.234.156-.364.052-.572-.364-1.196-.598-1.924-.598-1.898 0-2.678 1.482-2.678 3.64v6.812c0 .156-.104.26-.26.26zm13.312.13h-.962c-2.418 0-3.354-1.092-3.354-3.536v-7.124c0-.104-.052-.156-.156-.156h-1.04c-.156 0-.26-.104-.26-.26v-1.248c0-.156.104-.26.26-.26h1.04c.104 0 .156-.052.156-.156v-3.51c0-.156.104-.26.26-.26h1.664c.156 0 .26.104.26.26v3.51c0 .104.052.156.156.156h1.976c.156 0 .26.104.26.26v1.248c0 .156-.104.26-.26.26h-1.976c-.104 0-.156.052-.156.156v7.046c0 1.248.468 1.586 1.586 1.586h.546c.156 0 .26.104.26.26v1.508c0 .156-.104.26-.26.26zm3.458-.39v-2.236c0-.156.104-.26.26-.26h1.976c.156 0 .26.104.26.26v2.236c0 .156-.104.26-.26.26h-1.976c-.156 0-.26-.104-.26-.26zm12.194 0v-17.16c0-.156.104-.26.26-.26h1.794c.156 0 .26.104.26.26v17.16c0 .156-.104.26-.26.26h-1.794c-.156 0-.26-.104-.26-.26zm25.064.26h-1.482c-.156 0-.26-.104-.312-.26l-2.808-8.918h-.052l-2.834 8.918c-.052.156-.156.26-.312.26h-1.508c-.156 0-.26-.104-.312-.26l-3.9-11.934c-.052-.156.026-.26.182-.26h1.768c.182 0 .26.052.338.26l2.756 8.996h.052l2.808-8.996c.052-.182.156-.26.312-.26h1.352c.156 0 .286.078.338.26l2.834 8.996h.052l2.678-8.996c.052-.208.156-.26.338-.26h1.768c.156 0 .234.104.182.26l-3.926 11.934c-.052.156-.13.26-.312.26zm16.146 0h-1.534c-.156 0-.26-.104-.26-.26v-1.092h-.026c-.572.936-1.794 1.638-3.692 1.638-2.366 0-4.186-1.222-4.186-3.744 0-2.626 1.82-3.848 4.862-3.848h2.834c.104 0 .156-.052.156-.156v-.91c0-1.716-.676-2.444-2.99-2.444-1.404 0-2.288.364-3.016.884-.13.104-.286.104-.364-.026l-.702-1.196c-.078-.156-.052-.26.052-.364.936-.728 2.392-1.222 4.238-1.222 3.536 0 4.888 1.17 4.888 4.238v8.242c0 .156-.104.26-.26.26zm-4.992-1.586c1.95 0 3.146-.91 3.146-2.444v-1.378c0-.104-.052-.156-.156-.156h-2.496c-2.158 0-3.094.624-3.094 2.028 0 1.274.936 1.95 2.6 1.95zm19.162 1.586h-1.664c-.156 0-.26-.104-.26-.26v-7.28c0-2.002-.91-3.172-2.782-3.172-1.69 0-2.86 1.196-2.86 3.042v7.41c0 .156-.104.26-.26.26h-1.664c-.156 0-.26-.104-.26-.26v-11.934c0-.156.104-.26.26-.26h1.664c.156 0 .26.104.26.26v1.144h.026c.598-.962 1.794-1.69 3.484-1.69 2.704 0 4.316 1.846 4.316 4.68v7.8c0 .156-.104.26-.26.26zm8.97.13h-.962c-2.418 0-3.354-1.092-3.354-3.536v-7.124c0-.104-.052-.156-.156-.156h-1.04c-.156 0-.26-.104-.26-.26v-1.248c0-.156.104-.26.26-.26h1.04c.104 0 .156-.052.156-.156v-3.51c0-.156.104-.26.26-.26h1.664c.156 0 .26.104.26.26v3.51c0 .104.052.156.156.156h1.976c.156 0 .26.104.26.26v1.248c0 .156-.104.26-.26.26h-1.976c-.104 0-.156.052-.156.156v7.046c0 1.248.468 1.586 1.586 1.586h.546c.156 0 .26.104.26.26v1.508c0 .156-.104.26-.26.26zm14.456 0h-.962c-2.418 0-3.354-1.092-3.354-3.536v-7.124c0-.104-.052-.156-.156-.156h-1.04c-.156 0-.26-.104-.26-.26v-1.248c0-.156.104-.26.26-.26h1.04c.104 0 .156-.052.156-.156v-3.51c0-.156.104-.26.26-.26h1.664c.156 0 .26.104.26.26v3.51c0 .104.052.156.156.156h1.976c.156 0 .26.104.26.26v1.248c0 .156-.104.26-.26.26h-1.976c-.104 0-.156.052-.156.156v7.046c0 1.248.468 1.586 1.586 1.586h.546c.156 0 .26.104.26.26v1.508c0 .156-.104.26-.26.26zm8.216.156c-2.418 0-4.238-1.248-4.914-3.354-.286-.858-.416-1.716-.416-3.172 0-1.43.13-2.288.416-3.146.676-2.132 2.496-3.354 4.914-3.354 2.418 0 4.238 1.222 4.914 3.354.286.858.416 1.716.416 3.146 0 1.456-.13 2.314-.416 3.172-.676 2.106-2.496 3.354-4.914 3.354zm0-2.028c1.378 0 2.392-.702 2.808-1.95.208-.676.286-1.352.286-2.548s-.078-1.846-.286-2.522c-.416-1.248-1.43-1.95-2.808-1.95s-2.392.702-2.808 1.95c-.208.676-.286 1.326-.286 2.522 0 1.196.078 1.872.286 2.548.416 1.248 1.43 1.95 2.808 1.95zm17.42 1.742h-1.664c-.156 0-.26-.104-.26-.26v-10.27c0-.104-.052-.156-.156-.156h-1.066c-.156 0-.26-.104-.26-.26v-1.248c0-.156.104-.26.26-.26h1.066c.104 0 .156-.052.156-.156v-1.066c0-2.938 1.196-4.004 3.796-4.004h.962c.156 0 .26.104.26.26v1.508c0 .156-.104.26-.26.26h-.676c-1.586 0-1.898.338-1.898 1.872v1.17c0 .104.052.156.156.156h2.418c.156 0 .26.104.26.26v1.248c0 .156-.104.26-.26.26h-2.418c-.104 0-.156.052-.156.156v10.27c0 .156-.104.26-.26.26zm9.802.13h-.884c-2.184 0-3.042-1.04-3.042-3.276v-14.274c0-.156.104-.26.26-.26h1.664c.156 0 .26.104.26.26v14.144c0 1.04.39 1.378 1.248 1.378h.494c.156 0 .26.104.26.26v1.508c0 .156-.104.26-.26.26zm4.004 4.55h-.676c-.156 0-.26-.104-.26-.26v-1.508c0-.156.104-.26.26-.26h.468c1.014 0 1.56-.442 2.106-1.872l.416-1.144-4.576-11.83c-.052-.156.026-.26.208-.26h1.82c.156 0 .26.078.312.26l3.276 8.996h.052l3.146-8.996c.052-.182.156-.26.312-.26h1.768c.156 0 .26.104.208.26l-4.914 13.156c-1.092 2.938-2.054 3.718-3.926 3.718zm19.786-4.68h-1.664c-.156 0-.26-.104-.26-.26v-17.16c0-.156.104-.26.26-.26h1.664c.156 0 .26.104.26.26v6.396h.026c.598-.988 1.664-1.716 3.536-1.716 2.158 0 3.666 1.014 4.29 2.99.338.988.442 1.976.442 3.51 0 1.56-.104 2.548-.442 3.536-.624 1.976-2.132 2.99-4.29 2.99-1.872 0-2.938-.754-3.536-1.742h-.026v1.196c0 .156-.104.26-.26.26zm3.302-1.742c1.378 0 2.314-.676 2.73-1.898.208-.65.286-1.456.286-2.6 0-1.118-.078-1.924-.286-2.6-.416-1.222-1.352-1.872-2.73-1.872s-2.34.624-2.756 1.872c-.208.624-.286 1.352-.286 2.6s.078 2.002.286 2.6c.416 1.248 1.378 1.898 2.756 1.898zm18.252 1.742h-1.664c-.156 0-.26-.104-.26-.26v-1.17h-.026c-.65 1.04-1.794 1.716-3.406 1.716-2.73 0-4.316-1.872-4.316-4.706v-7.774c0-.156.104-.26.26-.26h1.664c.156 0 .26.104.26.26v7.254c0 2.028.91 3.198 2.756 3.198 1.69 0 2.808-1.196 2.808-3.068v-7.384c0-.156.104-.26.26-.26h1.664c.156 0 .26.104.26.26v11.934c0 .156-.104.26-.26.26zm8.814.286c-2.418 0-4.134-.988-5.148-1.872a.251.251 0 0 1 0-.364l1.066-1.144a.251.251 0 0 1 .364 0c.936.806 2.34 1.43 3.848 1.43 1.82 0 2.73-.78 2.73-1.898 0-.988-.468-1.534-2.418-1.742l-1.326-.13c-2.444-.26-3.718-1.482-3.718-3.51 0-2.366 1.69-3.796 4.628-3.796 1.82 0 3.38.598 4.42 1.378.13.078.13.234.052.364l-.884 1.118c-.104.13-.234.13-.364.052-.806-.52-2.08-1.014-3.354-1.014-1.56 0-2.366.702-2.366 1.716 0 .988.598 1.508 2.444 1.69l1.3.13c2.522.234 3.744 1.508 3.744 3.51 0 2.444-1.768 4.082-5.018 4.082zm10.426-15.548h-1.768c-.156 0-.26-.104-.26-.26v-1.898c0-.156.104-.26.26-.26h1.768c.156 0 .26.104.26.26v1.898c0 .156-.104.26-.26.26zm-.052 15.262h-1.664c-.156 0-.26-.104-.26-.26v-11.934c0-.156.104-.26.26-.26h1.664c.156 0 .26.104.26.26v11.934c0 .156-.104.26-.26.26zm14.274 0h-1.664c-.156 0-.26-.104-.26-.26v-7.28c0-2.002-.91-3.172-2.782-3.172-1.69 0-2.86 1.196-2.86 3.042v7.41c0 .156-.104.26-.26.26h-1.664c-.156 0-.26-.104-.26-.26v-11.934c0-.156.104-.26.26-.26h1.664c.156 0 .26.104.26.26v1.144h.026c.598-.962 1.794-1.69 3.484-1.69 2.704 0 4.316 1.846 4.316 4.68v7.8c0 .156-.104.26-.26.26zm9.048.286c-2.522 0-4.316-1.222-4.992-3.38-.26-.806-.416-1.716-.416-3.146s.13-2.392.39-3.146c.702-2.158 2.522-3.354 4.888-3.354 2.392 0 4.186 1.222 4.888 3.354.26.806.39 1.664.39 3.562 0 .156-.104.26-.286.26h-7.878c-.104 0-.156.052-.156.156 0 .676.078 1.092.208 1.508.494 1.43 1.612 2.158 3.146 2.158 1.482 0 2.522-.598 3.198-1.378.13-.13.26-.156.39-.052l1.066.962c.13.104.13.234.026.364-.988 1.248-2.678 2.132-4.862 2.132zm-3.016-7.592h5.772c.104 0 .156-.052.156-.156 0-.572-.052-1.014-.182-1.404-.416-1.248-1.456-1.95-2.86-1.95s-2.444.702-2.86 1.95c-.13.39-.182.832-.182 1.404 0 .104.052.156.156.156zm15.964 7.592c-2.418 0-4.134-.988-5.148-1.872a.251.251 0 0 1 0-.364l1.066-1.144a.251.251 0 0 1 .364 0c.936.806 2.34 1.43 3.848 1.43 1.82 0 2.73-.78 2.73-1.898 0-.988-.468-1.534-2.418-1.742l-1.326-.13c-2.444-.26-3.718-1.482-3.718-3.51 0-2.366 1.69-3.796 4.628-3.796 1.82 0 3.38.598 4.42 1.378.13.078.13.234.052.364l-.884 1.118c-.104.13-.234.13-.364.052-.806-.52-2.08-1.014-3.354-1.014-1.56 0-2.366.702-2.366 1.716 0 .988.598 1.508 2.444 1.69l1.3.13c2.522.234 3.744 1.508 3.744 3.51 0 2.444-1.768 4.082-5.018 4.082zm12.74 0c-2.418 0-4.134-.988-5.148-1.872a.251.251 0 0 1 0-.364l1.066-1.144a.251.251 0 0 1 .364 0c.936.806 2.34 1.43 3.848 1.43 1.82 0 2.73-.78 2.73-1.898 0-.988-.468-1.534-2.418-1.742l-1.326-.13c-2.444-.26-3.718-1.482-3.718-3.51 0-2.366 1.69-3.796 4.628-3.796 1.82 0 3.38.598 4.42 1.378.13.078.13.234.052.364l-.884 1.118c-.104.13-.234.13-.364.052-.806-.52-2.08-1.014-3.354-1.014-1.56 0-2.366.702-2.366 1.716 0 .988.598 1.508 2.444 1.69l1.3.13c2.522.234 3.744 1.508 3.744 3.51 0 2.444-1.768 4.082-5.018 4.082zm13.936-6.526c0-1.378.156-2.392.39-3.146.702-2.158 2.522-3.354 4.914-3.354 1.898 0 3.354.806 4.264 2.106.078.13.078.234-.078.364l-1.144.936c-.13.104-.26.104-.364-.026-.728-.91-1.43-1.352-2.678-1.352-1.352 0-2.366.65-2.782 1.95-.208.65-.286 1.43-.286 2.522 0 1.118.078 1.898.286 2.548.416 1.3 1.43 1.95 2.782 1.95 1.248 0 1.95-.442 2.678-1.352.104-.13.234-.13.364-.026l1.144.936c.156.13.156.234.078.364-.91 1.3-2.366 2.106-4.264 2.106-2.392 0-4.212-1.196-4.914-3.354-.234-.754-.39-1.768-.39-3.172zm16.9 6.37h-.884c-2.184 0-3.042-1.04-3.042-3.276v-14.274c0-.156.104-.26.26-.26h1.664c.156 0 .26.104.26.26v14.144c0 1.04.39 1.378 1.248 1.378h.494c.156 0 .26.104.26.26v1.508c0 .156-.104.26-.26.26zm12.402-.13h-1.534c-.156 0-.26-.104-.26-.26v-1.092h-.026c-.572.936-1.794 1.638-3.692 1.638-2.366 0-4.186-1.222-4.186-3.744 0-2.626 1.82-3.848 4.862-3.848h2.834c.104 0 .156-.052.156-.156v-.91c0-1.716-.676-2.444-2.99-2.444-1.404 0-2.288.364-3.016.884-.13.104-.286.104-.364-.026l-.702-1.196c-.078-.156-.052-.26.052-.364.936-.728 2.392-1.222 4.238-1.222 3.536 0 4.888 1.17 4.888 4.238v8.242c0 .156-.104.26-.26.26zm-4.992-1.586c1.95 0 3.146-.91 3.146-2.444v-1.378c0-.104-.052-.156-.156-.156h-2.496c-2.158 0-3.094.624-3.094 2.028 0 1.274.936 1.95 2.6 1.95zm13.702 1.872c-2.418 0-4.134-.988-5.148-1.872a.251.251 0 0 1 0-.364l1.066-1.144a.251.251 0 0 1 .364 0c.936.806 2.34 1.43 3.848 1.43 1.82 0 2.73-.78 2.73-1.898 0-.988-.468-1.534-2.418-1.742l-1.326-.13c-2.444-.26-3.718-1.482-3.718-3.51 0-2.366 1.69-3.796 4.628-3.796 1.82 0 3.38.598 4.42 1.378.13.078.13.234.052.364l-.884 1.118c-.104.13-.234.13-.364.052-.806-.52-2.08-1.014-3.354-1.014-1.56 0-2.366.702-2.366 1.716 0 .988.598 1.508 2.444 1.69l1.3.13c2.522.234 3.744 1.508 3.744 3.51 0 2.444-1.768 4.082-5.018 4.082zm12.74 0c-2.418 0-4.134-.988-5.148-1.872a.251.251 0 0 1 0-.364l1.066-1.144a.251.251 0 0 1 .364 0c.936.806 2.34 1.43 3.848 1.43 1.82 0 2.73-.78 2.73-1.898 0-.988-.468-1.534-2.418-1.742l-1.326-.13c-2.444-.26-3.718-1.482-3.718-3.51 0-2.366 1.69-3.796 4.628-3.796 1.82 0 3.38.598 4.42 1.378.13.078.13.234.052.364l-.884 1.118c-.104.13-.234.13-.364.052-.806-.52-2.08-1.014-3.354-1.014-1.56 0-2.366.702-2.366 1.716 0 .988.598 1.508 2.444 1.69l1.3.13c2.522.234 3.744 1.508 3.744 3.51 0 2.444-1.768 4.082-5.018 4.082zm8.138-.546v-2.236c0-.156.104-.26.26-.26h1.976c.156 0 .26.104.26.26v2.236c0 .156-.104.26-.26.26h-1.976c-.156 0-.26-.104-.26-.26z" fill="#666" fill-rule="nonzero"/></g></g></svg>