<svg width="503" height="482" xmlns="http://www.w3.org/2000/svg"><g filter="url(#filter-1)" transform="translate(24 22)" fill="none" fill-rule="evenodd"><path stroke="#999" fill="#FFF" d="M.5.5h454v433H.5z"/><path stroke="#979797" fill="#333" d="M.5.5h454v36.118H.5z"/><path d="M16.28 21.943v-9.24c0-.084.056-.14.14-.14h1.288c.112 0 .182.042.238.14l3.878 6.566h.056v-6.566c0-.084.056-.14.14-.14h1.218c.084 0 .14.056.14.14v9.24c0 .084-.056.14-.14.14h-1.274c-.112 0-.182-.042-.238-.14l-3.892-6.552h-.056v6.552c0 .084-.056.14-.14.14H16.42c-.084 0-.14-.056-.14-.14zm11.858.294c-1.428 0-2.436-.7-2.814-1.876-.14-.434-.238-.952-.238-1.652s.084-1.232.224-1.666c.378-1.176 1.414-1.862 2.758-1.862 1.386 0 2.394.714 2.772 1.862.154.476.224.938.224 2.03 0 .084-.056.14-.154.14h-4.158c-.056 0-.084.028-.084.084 0 .196.042.364.098.518.224.658.756 1.022 1.512 1.022s1.246-.28 1.582-.644c.07-.07.14-.084.21-.028l.826.728c.07.056.07.126.014.196-.574.672-1.526 1.148-2.772 1.148zm1.344-4.284c0-.238-.028-.406-.084-.574-.182-.546-.686-.868-1.316-.868-.644 0-1.148.322-1.33.868a1.713 1.713 0 0 0-.084.574c0 .056.028.084.084.084h2.646c.056 0 .084-.028.084-.084zm10.15 4.13h-1.148c-.084 0-.14-.056-.168-.14l-1.302-4.312h-.028l-1.316 4.312c-.028.084-.084.14-.168.14h-1.148c-.084 0-.14-.056-.168-.14l-2.128-6.468c-.028-.084.014-.14.098-.14H33.5c.098 0 .154.042.182.14l1.302 4.452h.028l1.288-4.452a.193.193 0 0 1 .182-.14h1.008c.084 0 .154.056.182.14l1.372 4.452h.028l1.232-4.452c.028-.098.084-.14.182-.14h1.344c.084 0 .126.056.098.14L39.8 21.943c-.028.084-.084.14-.168.14zm6.986-.14v-9.24c0-.084.056-.14.14-.14h1.246c.126 0 .196.042.238.14l2.618 5.866h.056l2.576-5.866c.042-.098.112-.14.238-.14h1.232c.084 0 .14.056.14.14v9.24c0 .084-.056.14-.14.14h-1.218c-.084 0-.14-.056-.14-.14V16.12h-.056l-2.016 4.48c-.056.126-.14.182-.266.182h-.812c-.126 0-.21-.056-.266-.182l-2.016-4.48h-.056v5.824c0 .084-.056.14-.14.14h-1.218c-.084 0-.14-.056-.14-.14zm13.244.294c-1.428 0-2.436-.7-2.814-1.876-.14-.434-.238-.952-.238-1.652s.084-1.232.224-1.666c.378-1.176 1.414-1.862 2.758-1.862 1.386 0 2.394.714 2.772 1.862.154.476.224.938.224 2.03 0 .084-.056.14-.154.14h-4.158c-.056 0-.084.028-.084.084 0 .196.042.364.098.518.224.658.756 1.022 1.512 1.022s1.246-.28 1.582-.644c.07-.07.14-.084.21-.028l.826.728c.07.056.07.126.014.196-.574.672-1.526 1.148-2.772 1.148zm1.344-4.284c0-.238-.028-.406-.084-.574-.182-.546-.686-.868-1.316-.868-.644 0-1.148.322-1.33.868a1.713 1.713 0 0 0-.084.574c0 .056.028.084.084.084h2.646c.056 0 .084-.028.084-.084zm5.754 4.284c-1.386 0-2.338-.546-2.898-1.064a.135.135 0 0 1 0-.196l.798-.84a.135.135 0 0 1 .196 0c.49.448 1.274.77 1.974.77.826 0 1.246-.336 1.246-.798 0-.406-.238-.658-1.12-.742l-.728-.07c-1.372-.14-2.072-.84-2.072-1.988 0-1.302.938-2.128 2.618-2.128 1.05 0 1.932.35 2.534.826.07.056.07.14.028.196l-.686.826c-.056.07-.126.07-.196.028a3.258 3.258 0 0 0-1.764-.56c-.672 0-1.022.294-1.022.7 0 .392.238.63 1.106.714l.728.07c1.414.14 2.086.868 2.086 1.974 0 1.344-.98 2.282-2.828 2.282zm6.972 0c-1.386 0-2.338-.546-2.898-1.064a.135.135 0 0 1 0-.196l.798-.84a.135.135 0 0 1 .196 0c.49.448 1.274.77 1.974.77.826 0 1.246-.336 1.246-.798 0-.406-.238-.658-1.12-.742l-.728-.07c-1.372-.14-2.072-.84-2.072-1.988 0-1.302.938-2.128 2.618-2.128 1.05 0 1.932.35 2.534.826.07.056.07.14.028.196l-.686.826c-.056.07-.126.07-.196.028a3.258 3.258 0 0 0-1.764-.56c-.672 0-1.022.294-1.022.7 0 .392.238.63 1.106.714l.728.07c1.414.14 2.086.868 2.086 1.974 0 1.344-.98 2.282-2.828 2.282zm9.674-.154H82.43c-.084 0-.14-.056-.14-.14v-.49h-.014c-.322.462-.952.784-1.904.784-1.232 0-2.268-.644-2.268-2.058 0-1.47 1.036-2.142 2.702-2.142h1.372c.056 0 .084-.028.084-.084v-.322c0-.77-.364-1.12-1.498-1.12-.756 0-1.218.21-1.54.462-.07.056-.154.042-.196-.028l-.518-.924c-.042-.07-.028-.14.028-.182.546-.392 1.288-.658 2.394-.658 2.058 0 2.814.7 2.814 2.352v4.41c0 .084-.056.14-.14.14zm-2.842-1.12c.966 0 1.498-.378 1.498-1.148v-.518c0-.056-.028-.084-.084-.084h-1.12c-1.008 0-1.456.28-1.456.91 0 .56.406.84 1.162.84zm7.28 3.794c-.938 0-1.932-.392-2.45-1.008-.056-.07-.056-.126.014-.196l.826-.826c.07-.07.14-.07.21 0 .42.406.91.63 1.47.63 1.036 0 1.512-.56 1.512-1.61v-.63h-.014c-.308.476-.882.784-1.75.784-1.134 0-1.946-.574-2.296-1.638-.168-.518-.224-.98-.224-1.722s.056-1.19.224-1.708c.35-1.078 1.162-1.652 2.296-1.652.868 0 1.442.308 1.75.798h.014v-.504c0-.084.056-.14.14-.14h1.288c.084 0 .14.056.14.14v6.188c0 1.932-1.078 3.094-3.15 3.094zm.224-4.242c.644 0 1.022-.308 1.204-.868.112-.308.154-.644.154-1.106 0-.448-.042-.784-.154-1.106-.182-.546-.56-.854-1.204-.854-.63 0-1.008.308-1.19.854-.112.322-.154.658-.154 1.106 0 .462.042.798.154 1.106.182.56.56.868 1.19.868zm7.658 1.722c-1.428 0-2.436-.7-2.814-1.876-.14-.434-.238-.952-.238-1.652s.084-1.232.224-1.666c.378-1.176 1.414-1.862 2.758-1.862 1.386 0 2.394.714 2.772 1.862.154.476.224.938.224 2.03 0 .084-.056.14-.154.14H94.54c-.056 0-.084.028-.084.084 0 .196.042.364.098.518.224.658.756 1.022 1.512 1.022s1.246-.28 1.582-.644c.07-.07.14-.084.21-.028l.826.728c.07.056.07.126.014.196-.574.672-1.526 1.148-2.772 1.148zm1.344-4.284c0-.238-.028-.406-.084-.574-.182-.546-.686-.868-1.316-.868-.644 0-1.148.322-1.33.868a1.713 1.713 0 0 0-.084.574c0 .056.028.084.084.084h2.646c.056 0 .084-.028.084-.084z" fill="#FFF" fill-rule="nonzero"/><path d="M0 76.5h453.84M0 117.5h453.84" stroke="#CCC"/><path d="M19.151 62h-1.173c-.102 0-.17-.068-.17-.17v-9.877c0-.068-.034-.102-.102-.102h-3.162c-.102 0-.17-.068-.17-.17V50.61c0-.102.068-.17.17-.17h8.041c.102 0 .17.068.17.17v1.071c0 .102-.068.17-.17.17h-3.162c-.068 0-.102.034-.102.102v9.877c0 .102-.068.17-.17.17zm7.242.187c-1.581 0-2.771-.816-3.213-2.193-.187-.561-.272-1.122-.272-2.074 0-.935.085-1.496.272-2.057.442-1.394 1.632-2.193 3.213-2.193 1.581 0 2.771.799 3.213 2.193.187.561.272 1.122.272 2.057 0 .952-.085 1.513-.272 2.074-.442 1.377-1.632 2.193-3.213 2.193zm0-1.326c.901 0 1.564-.459 1.836-1.275.136-.442.187-.884.187-1.666 0-.782-.051-1.207-.187-1.649-.272-.816-.935-1.275-1.836-1.275s-1.564.459-1.836 1.275c-.136.442-.187.867-.187 1.649s.051 1.224.187 1.666c.272.816.935 1.275 1.836 1.275zm-7.463 40.326c-1.632 0-3.213-.663-4.063-1.445-.068-.068-.085-.17-.017-.255l.748-.884c.068-.085.153-.085.238-.017.748.595 1.904 1.19 3.23 1.19 1.598 0 2.55-.799 2.55-1.972 0-.986-.561-1.649-2.414-1.887l-.578-.085c-2.244-.306-3.4-1.377-3.4-3.196 0-2.057 1.479-3.383 3.774-3.383 1.36 0 2.669.442 3.519 1.071.085.068.102.153.034.238l-.578.935c-.068.085-.153.085-.238.034-.935-.578-1.802-.867-2.788-.867-1.411 0-2.193.765-2.193 1.87 0 .969.646 1.615 2.431 1.853l.561.085c2.261.306 3.4 1.343 3.4 3.23 0 2.023-1.428 3.485-4.216 3.485zM31.646 101h-1.088c-.102 0-.17-.068-.17-.17v-.765h-.017c-.425.68-1.173 1.122-2.227 1.122-1.785 0-2.822-1.224-2.822-3.077v-5.083c0-.102.068-.17.17-.17h1.088c.102 0 .17.068.17.17v4.743c0 1.326.595 2.091 1.802 2.091 1.105 0 1.836-.782 1.836-2.006v-4.828c0-.102.068-.17.17-.17h1.088c.102 0 .17.068.17.17v7.803c0 .102-.068.17-.17.17zm4.216 0h-1.088c-.102 0-.17-.068-.17-.17V89.61c0-.102.068-.17.17-.17h1.088c.102 0 .17.068.17.17v4.182h.017c.391-.646 1.088-1.122 2.312-1.122 1.411 0 2.397.663 2.805 1.955.221.646.289 1.292.289 2.295 0 1.02-.068 1.666-.289 2.312-.408 1.292-1.394 1.955-2.805 1.955-1.224 0-1.921-.493-2.312-1.139h-.017v.782c0 .102-.068.17-.17.17zm2.159-1.139c.901 0 1.513-.442 1.785-1.241.136-.425.187-.952.187-1.7 0-.731-.051-1.258-.187-1.7-.272-.799-.884-1.224-1.785-1.224-.901 0-1.53.408-1.802 1.224-.136.408-.187.884-.187 1.7s.051 1.309.187 1.7c.272.816.901 1.241 1.802 1.241zm7.021-8.84h-1.156c-.102 0-.17-.068-.17-.17V89.61c0-.102.068-.17.17-.17h1.156c.102 0 .17.068.17.17v1.241c0 .102-.068.17-.17.17zm-2.295 13.039h-.34c-.102 0-.17-.068-.17-.17v-.986c0-.102.068-.17.17-.17h.272c.799 0 1.071-.221 1.071-1.088v-8.619c0-.102.068-.17.17-.17h1.088c.102 0 .17.068.17.17v8.585c0 1.751-.782 2.448-2.431 2.448zm8.262-2.873c-1.649 0-2.822-.799-3.264-2.21-.17-.527-.272-1.122-.272-2.057 0-.935.085-1.564.255-2.057.459-1.411 1.649-2.193 3.196-2.193 1.564 0 2.737.799 3.196 2.193.17.527.255 1.088.255 2.329 0 .102-.068.17-.187.17h-5.151c-.068 0-.102.034-.102.102 0 .442.051.714.136.986.323.935 1.054 1.411 2.057 1.411.969 0 1.649-.391 2.091-.901.085-.085.17-.102.255-.034l.697.629c.085.068.085.153.017.238-.646.816-1.751 1.394-3.179 1.394zm-1.972-4.964h3.774c.068 0 .102-.034.102-.102 0-.374-.034-.663-.119-.918-.272-.816-.952-1.275-1.87-1.275-.918 0-1.598.459-1.87 1.275-.085.255-.119.544-.119.918 0 .068.034.102.102.102zm7.14.697c0-.901.102-1.564.255-2.057.459-1.411 1.649-2.193 3.213-2.193 1.241 0 2.193.527 2.788 1.377.051.085.051.153-.051.238l-.748.612c-.085.068-.17.068-.238-.017-.476-.595-.935-.884-1.751-.884-.884 0-1.547.425-1.819 1.275-.136.425-.187.935-.187 1.649 0 .731.051 1.241.187 1.666.272.85.935 1.275 1.819 1.275.816 0 1.275-.289 1.751-.884.068-.085.153-.085.238-.017l.748.612c.102.085.102.153.051.238-.595.85-1.547 1.377-2.788 1.377-1.564 0-2.754-.782-3.213-2.193-.153-.493-.255-1.156-.255-2.074zm11.509 4.165h-.629c-1.581 0-2.193-.714-2.193-2.312v-4.658c0-.068-.034-.102-.102-.102h-.68c-.102 0-.17-.068-.17-.17v-.816c0-.102.068-.17.17-.17h.68c.068 0 .102-.034.102-.102V90.46c0-.102.068-.17.17-.17h1.088c.102 0 .17.068.17.17v2.295c0 .068.034.102.102.102h1.292c.102 0 .17.068.17.17v.816c0 .102-.068.17-.17.17h-1.292c-.068 0-.102.034-.102.102v4.607c0 .816.306 1.037 1.037 1.037h.357c.102 0 .17.068.17.17v.986c0 .102-.068.17-.17.17z" fill="#999" fill-rule="nonzero"/><path d="M61.784 62h-1.568c-.096 0-.16-.064-.16-.16v-8.928c0-.064-.032-.096-.096-.096h-2.848c-.096 0-.16-.064-.16-.16V51.28c0-.096.064-.16.16-.16h7.776c.096 0 .16.064.16.16v1.376c0 .096-.064.16-.16.16H62.04c-.064 0-.096.032-.096.096v8.928c0 .096-.064.16-.16.16zm5.744 0h-1.472c-.096 0-.16-.064-.16-.16v-7.392c0-.096.064-.16.16-.16h1.472c.096 0 .16.064.16.16v.656h.016c.368-.592 1.024-.992 2-.992.608 0 1.216.24 1.616.64.08.08.096.144.032.224l-.848 1.072c-.064.08-.144.096-.224.032-.352-.224-.72-.368-1.136-.368-1.008 0-1.456.72-1.456 1.952v4.176c0 .096-.064.16-.16.16zm10.784 0h-1.344c-.096 0-.16-.064-.16-.16v-.56h-.016c-.368.528-1.088.896-2.176.896-1.408 0-2.592-.736-2.592-2.352 0-1.68 1.184-2.448 3.088-2.448h1.568c.064 0 .096-.032.096-.096v-.368c0-.88-.416-1.28-1.712-1.28-.864 0-1.392.24-1.76.528-.08.064-.176.048-.224-.032l-.592-1.056c-.048-.08-.032-.16.032-.208.624-.448 1.472-.752 2.736-.752 2.352 0 3.216.8 3.216 2.688v5.04c0 .096-.064.16-.16.16zm-3.248-1.28c1.104 0 1.712-.432 1.712-1.312v-.592c0-.064-.032-.096-.096-.096H75.4c-1.152 0-1.664.32-1.664 1.04 0 .64.464.96 1.328.96zm9.04 1.28h-1.28c-.112 0-.176-.064-.208-.16l-2.72-7.392c-.032-.096.032-.16.128-.16h1.568c.096 0 .16.064.192.16l1.696 5.008h.032l1.664-5.008c.032-.096.096-.16.192-.16h1.536c.096 0 .16.064.128.16l-2.72 7.392c-.032.096-.096.16-.208.16zm7.392.176c-1.632 0-2.784-.8-3.216-2.144-.16-.496-.272-1.088-.272-1.888 0-.8.096-1.408.256-1.904.432-1.344 1.616-2.128 3.152-2.128 1.584 0 2.736.816 3.168 2.128.176.544.256 1.072.256 2.32 0 .096-.064.16-.176.16h-4.752c-.064 0-.096.032-.096.096 0 .224.048.416.112.592.256.752.864 1.168 1.728 1.168s1.424-.32 1.808-.736c.08-.08.16-.096.24-.032l.944.832c.08.064.08.144.016.224-.656.768-1.744 1.312-3.168 1.312zm1.536-4.896c0-.272-.032-.464-.096-.656-.208-.624-.784-.992-1.504-.992-.736 0-1.312.368-1.52.992a1.958 1.958 0 0 0-.096.656c0 .064.032.096.096.096h3.024c.064 0 .096-.032.096-.096zm6.512 4.816h-.704c-1.504 0-2.112-.72-2.112-2.208V51.28c0-.096.064-.16.16-.16h1.472c.096 0 .16.064.16.16v8.512c0 .528.208.704.672.704h.352c.096 0 .16.064.16.16v1.28c0 .096-.064.16-.16.16zm4.768-.256l3.728-10.56c.032-.096.096-.16.208-.16h1.472c.112 0 .176.064.208.16l3.68 10.56c.032.096 0 .16-.112.16h-1.568c-.112 0-.176-.048-.208-.16l-.72-2.112h-4.096l-.72 2.112c-.032.112-.096.16-.208.16h-1.552c-.112 0-.144-.064-.112-.16zm3.168-3.792h2.944l-1.44-4.224h-.048l-1.456 4.224zm10.224 7.008c-1.072 0-2.208-.448-2.8-1.152-.064-.08-.064-.144.016-.224l.944-.944c.08-.08.16-.08.24 0 .48.464 1.04.72 1.68.72 1.184 0 1.728-.64 1.728-1.84v-.72h-.016c-.352.544-1.008.896-2 .896-1.296 0-2.224-.656-2.624-1.872-.192-.592-.256-1.12-.256-1.968 0-.848.064-1.36.256-1.952.4-1.232 1.328-1.888 2.624-1.888.992 0 1.648.352 2 .912h.016v-.576c0-.096.064-.16.16-.16h1.472c.096 0 .16.064.16.16v7.072c0 2.208-1.232 3.536-3.6 3.536zm.256-4.848c.736 0 1.168-.352 1.376-.992.128-.352.176-.736.176-1.264 0-.512-.048-.896-.176-1.264-.208-.624-.64-.976-1.376-.976-.72 0-1.152.352-1.36.976-.128.368-.176.752-.176 1.264 0 .528.048.912.176 1.264.208.64.64.992 1.36.992zm8.752 1.968c-1.632 0-2.784-.8-3.216-2.144-.16-.496-.272-1.088-.272-1.888 0-.8.096-1.408.256-1.904.432-1.344 1.616-2.128 3.152-2.128 1.584 0 2.736.816 3.168 2.128.176.544.256 1.072.256 2.32 0 .096-.064.16-.176.16h-4.752c-.064 0-.096.032-.096.096 0 .224.048.416.112.592.256.752.864 1.168 1.728 1.168s1.424-.32 1.808-.736c.08-.08.16-.096.24-.032l.944.832c.08.064.08.144.016.224-.656.768-1.744 1.312-3.168 1.312zm1.536-4.896c0-.272-.032-.464-.096-.656-.208-.624-.784-.992-1.504-.992-.736 0-1.312.368-1.52.992a1.958 1.958 0 0 0-.096.656c0 .064.032.096.096.096h3.024c.064 0 .096-.032.096-.096zm10.08 4.72h-1.472c-.096 0-.16-.064-.16-.16v-4.448c0-.992-.496-1.68-1.456-1.68-.928 0-1.472.688-1.472 1.68v4.448c0 .096-.064.16-.16.16h-1.472c-.096 0-.16-.064-.16-.16v-7.392c0-.096.064-.16.16-.16h1.472c.096 0 .16.064.16.16v.56h.016c.336-.48 1.008-.896 2.032-.896 1.648 0 2.672 1.216 2.672 2.864v4.864c0 .096-.064.16-.16.16zm5.44.096H143c-1.552 0-2.144-.752-2.144-2.256v-4.064c0-.064-.032-.096-.096-.096h-.512c-.096 0-.16-.064-.16-.16v-1.072c0-.096.064-.16.16-.16h.512c.064 0 .096-.032.096-.096V52.08c0-.096.064-.16.16-.16h1.472c.096 0 .16.064.16.16v2.112c0 .064.032.096.096.096h1.024c.096 0 .16.064.16.16v1.072c0 .096-.064.16-.16.16h-1.024c-.064 0-.096.032-.096.096v4c0 .544.224.72.72.72h.4c.096 0 .16.064.16.16v1.28c0 .096-.064.16-.16.16zM89.184 101h-1.568c-.096 0-.16-.064-.16-.16v-8.928c0-.064-.032-.096-.096-.096h-2.848c-.096 0-.16-.064-.16-.16V90.28c0-.096.064-.16.16-.16h7.776c.096 0 .16.064.16.16v1.376c0 .096-.064.16-.16.16H89.44c-.064 0-.096.032-.096.096v8.928c0 .096-.064.16-.16.16zm5.744 0h-1.472c-.096 0-.16-.064-.16-.16v-7.392c0-.096.064-.16.16-.16h1.472c.096 0 .16.064.16.16v.656h.016c.368-.592 1.024-.992 2-.992.608 0 1.216.24 1.616.64.08.08.096.144.032.224l-.848 1.072c-.064.08-.144.096-.224.032-.352-.224-.72-.368-1.136-.368-1.008 0-1.456.72-1.456 1.952v4.176c0 .096-.064.16-.16.16zm10.784 0h-1.344c-.096 0-.16-.064-.16-.16v-.56h-.016c-.368.528-1.088.896-2.176.896-1.408 0-2.592-.736-2.592-2.352 0-1.68 1.184-2.448 3.088-2.448h1.568c.064 0 .096-.032.096-.096v-.368c0-.88-.416-1.28-1.712-1.28-.864 0-1.392.24-1.76.528-.08.064-.176.048-.224-.032l-.592-1.056c-.048-.08-.032-.16.032-.208.624-.448 1.472-.752 2.736-.752 2.352 0 3.216.8 3.216 2.688v5.04c0 .096-.064.16-.16.16zm-3.248-1.28c1.104 0 1.712-.432 1.712-1.312v-.592c0-.064-.032-.096-.096-.096h-1.28c-1.152 0-1.664.32-1.664 1.04 0 .64.464.96 1.328.96zm9.04 1.28h-1.28c-.112 0-.176-.064-.208-.16l-2.72-7.392c-.032-.096.032-.16.128-.16h1.568c.096 0 .16.064.192.16l1.696 5.008h.032l1.664-5.008c.032-.096.096-.16.192-.16h1.536c.096 0 .16.064.128.16l-2.72 7.392c-.032.096-.096.16-.208.16zm7.392.176c-1.632 0-2.784-.8-3.216-2.144-.16-.496-.272-1.088-.272-1.888 0-.8.096-1.408.256-1.904.432-1.344 1.616-2.128 3.152-2.128 1.584 0 2.736.816 3.168 2.128.176.544.256 1.072.256 2.32 0 .096-.064.16-.176.16h-4.752c-.064 0-.096.032-.096.096 0 .224.048.416.112.592.256.752.864 1.168 1.728 1.168s1.424-.32 1.808-.736c.08-.08.16-.096.24-.032l.944.832c.08.064.08.144.016.224-.656.768-1.744 1.312-3.168 1.312zm1.536-4.896c0-.272-.032-.464-.096-.656-.208-.624-.784-.992-1.504-.992-.736 0-1.312.368-1.52.992a1.958 1.958 0 0 0-.096.656c0 .064.032.096.096.096h3.024c.064 0 .096-.032.096-.096zm6.512 4.816h-.704c-1.504 0-2.112-.72-2.112-2.208V90.28c0-.096.064-.16.16-.16h1.472c.096 0 .16.064.16.16v8.512c0 .528.208.704.672.704h.352c.096 0 .16.064.16.16v1.28c0 .096-.064.16-.16.16zm13.632-.096H138.8c-.128 0-.192-.048-.24-.16l-2.08-4.24h-1.872c-.064 0-.096.032-.096.096v4.144c0 .096-.064.16-.16.16h-1.568c-.096 0-.16-.064-.16-.16V90.28c0-.096.064-.16.16-.16h4.208c2 0 3.472 1.328 3.472 3.248 0 1.424-.816 2.528-2.064 2.992l2.288 4.432c.064.112 0 .208-.112.208zm-3.648-6.096c.992 0 1.664-.608 1.664-1.536 0-.944-.672-1.552-1.664-1.552h-2.32c-.064 0-.096.032-.096.096v2.896c0 .064.032.096.096.096h2.32zm8.432 6.272c-1.632 0-2.784-.8-3.216-2.144-.16-.496-.272-1.088-.272-1.888 0-.8.096-1.408.256-1.904.432-1.344 1.616-2.128 3.152-2.128 1.584 0 2.736.816 3.168 2.128.176.544.256 1.072.256 2.32 0 .096-.064.16-.176.16h-4.752c-.064 0-.096.032-.096.096 0 .224.048.416.112.592.256.752.864 1.168 1.728 1.168s1.424-.32 1.808-.736c.08-.08.16-.096.24-.032l.944.832c.08.064.08.144.016.224-.656.768-1.744 1.312-3.168 1.312zm1.536-4.896c0-.272-.032-.464-.096-.656-.208-.624-.784-.992-1.504-.992-.736 0-1.312.368-1.52.992a1.958 1.958 0 0 0-.096.656c0 .064.032.096.096.096h3.024c.064 0 .096-.032.096-.096zm6.576 4.896c-1.584 0-2.672-.624-3.312-1.216a.155.155 0 0 1 0-.224l.912-.96a.155.155 0 0 1 .224 0c.56.512 1.456.88 2.256.88.944 0 1.424-.384 1.424-.912 0-.464-.272-.752-1.28-.848l-.832-.08c-1.568-.16-2.368-.96-2.368-2.272 0-1.488 1.072-2.432 2.992-2.432 1.2 0 2.208.4 2.896.944.08.064.08.16.032.224l-.784.944c-.064.08-.144.08-.224.032-.48-.336-1.248-.64-2.016-.64s-1.168.336-1.168.8c0 .448.272.72 1.264.816l.832.08c1.616.16 2.384.992 2.384 2.256 0 1.536-1.12 2.608-3.232 2.608zm8.192 0c-1.632 0-2.784-.8-3.216-2.144-.16-.496-.272-1.088-.272-1.888 0-.8.096-1.408.256-1.904.432-1.344 1.616-2.128 3.152-2.128 1.584 0 2.736.816 3.168 2.128.176.544.256 1.072.256 2.32 0 .096-.064.16-.176.16h-4.752c-.064 0-.096.032-.096.096 0 .224.048.416.112.592.256.752.864 1.168 1.728 1.168s1.424-.32 1.808-.736c.08-.08.16-.096.24-.032l.944.832c.08.064.08.144.016.224-.656.768-1.744 1.312-3.168 1.312zm1.536-4.896c0-.272-.032-.464-.096-.656-.208-.624-.784-.992-1.504-.992-.736 0-1.312.368-1.52.992a1.958 1.958 0 0 0-.096.656c0 .064.032.096.096.096h3.024c.064 0 .096-.032.096-.096zm5.36 4.72h-1.472c-.096 0-.16-.064-.16-.16v-7.392c0-.096.064-.16.16-.16h1.472c.096 0 .16.064.16.16v.656h.016c.368-.592 1.024-.992 2-.992.608 0 1.216.24 1.616.64.08.08.096.144.032.224l-.848 1.072c-.064.08-.144.096-.224.032-.352-.224-.72-.368-1.136-.368-1.008 0-1.456.72-1.456 1.952v4.176c0 .096-.064.16-.16.16zm8.496 0h-1.28c-.112 0-.176-.064-.208-.16l-2.72-7.392c-.032-.096.032-.16.128-.16h1.568c.096 0 .16.064.192.16l1.696 5.008h.032l1.664-5.008c.032-.096.096-.16.192-.16h1.536c.096 0 .16.064.128.16l-2.72 7.392c-.032.096-.096.16-.208.16zm10.336 0h-1.344c-.096 0-.16-.064-.16-.16v-.56h-.016c-.368.528-1.088.896-2.176.896-1.408 0-2.592-.736-2.592-2.352 0-1.68 1.184-2.448 3.088-2.448h1.568c.064 0 .096-.032.096-.096v-.368c0-.88-.416-1.28-1.712-1.28-.864 0-1.392.24-1.76.528-.08.064-.176.048-.224-.032l-.592-1.056c-.048-.08-.032-.16.032-.208.624-.448 1.472-.752 2.736-.752 2.352 0 3.216.8 3.216 2.688v5.04c0 .096-.064.16-.16.16zm-3.248-1.28c1.104 0 1.712-.432 1.712-1.312v-.592c0-.064-.032-.096-.096-.096h-1.28c-1.152 0-1.664.32-1.664 1.04 0 .64.464.96 1.328.96zm8.704 1.376h-.768c-1.552 0-2.144-.752-2.144-2.256v-4.064c0-.064-.032-.096-.096-.096h-.512c-.096 0-.16-.064-.16-.16v-1.072c0-.096.064-.16.16-.16h.512c.064 0 .096-.032.096-.096V91.08c0-.096.064-.16.16-.16h1.472c.096 0 .16.064.16.16v2.112c0 .064.032.096.096.096h1.024c.096 0 .16.064.16.16v1.072c0 .096-.064.16-.16.16h-1.024c-.064 0-.096.032-.096.096v4c0 .544.224.72.72.72h.4c.096 0 .16.064.16.16v1.28c0 .096-.064.16-.16.16zm3.744-9.264h-1.472c-.096 0-.16-.064-.16-.16V90.28c0-.096.064-.16.16-.16h1.472c.096 0 .16.064.16.16v1.392c0 .096-.064.16-.16.16zm0 9.168h-1.472c-.096 0-.16-.064-.16-.16v-7.392c0-.096.064-.16.16-.16h1.472c.096 0 .16.064.16.16v7.392c0 .096-.064.16-.16.16zm5.52.176c-1.568 0-2.752-.784-3.184-2.128-.176-.544-.256-1.056-.256-1.904 0-.848.08-1.36.256-1.904.432-1.344 1.616-2.128 3.184-2.128 1.552 0 2.736.784 3.168 2.128.176.544.256 1.056.256 1.904 0 .848-.08 1.36-.256 1.904-.432 1.344-1.616 2.128-3.168 2.128zm0-1.6c.72 0 1.216-.368 1.44-1.008.128-.4.16-.768.16-1.424 0-.656-.032-1.008-.16-1.424-.224-.64-.72-1.008-1.44-1.008s-1.232.368-1.456 1.008c-.128.416-.16.768-.16 1.424 0 .656.032 1.024.16 1.424.224.64.736 1.008 1.456 1.008zM213.808 101h-1.472c-.096 0-.16-.064-.16-.16v-4.448c0-.992-.496-1.68-1.456-1.68-.928 0-1.472.688-1.472 1.68v4.448c0 .096-.064.16-.16.16h-1.472c-.096 0-.16-.064-.16-.16v-7.392c0-.096.064-.16.16-.16h1.472c.096 0 .16.064.16.16v.56h.016c.336-.48 1.008-.896 2.032-.896 1.648 0 2.672 1.216 2.672 2.864v4.864c0 .096-.064.16-.16.16zm5.264.176c-1.584 0-2.672-.624-3.312-1.216a.155.155 0 0 1 0-.224l.912-.96a.155.155 0 0 1 .224 0c.56.512 1.456.88 2.256.88.944 0 1.424-.384 1.424-.912 0-.464-.272-.752-1.28-.848l-.832-.08c-1.568-.16-2.368-.96-2.368-2.272 0-1.488 1.072-2.432 2.992-2.432 1.2 0 2.208.4 2.896.944.08.064.08.16.032.224l-.784.944c-.064.08-.144.08-.224.032-.48-.336-1.248-.64-2.016-.64s-1.168.336-1.168.8c0 .448.272.72 1.264.816l.832.08c1.616.16 2.384.992 2.384 2.256 0 1.536-1.12 2.608-3.232 2.608z" fill="#333" fill-rule="nonzero"/><g opacity=".4" transform="translate(10 124)" fill="#333"><rect width="187.357" height="9.533" rx="3"/><rect y="21.926" width="240.615" height="9.533" rx="3"/><rect y="43.852" width="408" height="9.533" rx="3"/><rect y="57.198" width="93.203" height="9.533" rx="3"/><rect y="79.125" width="408" height="9.533" rx="3"/><rect y="92.471" width="149.315" height="9.533" rx="3"/><rect y="114.874" width="408" height="9.533" rx="3"/><rect y="128.22" width="264.392" height="9.533" rx="3"/><rect y="150.623" width="233.958" height="9.533" rx="3"/><rect y="172.549" width="400.392" height="9.533" rx="3"/><rect y="185.895" width="408" height="9.533" rx="3"/><rect y="199.241" width="154.07" height="9.533" rx="3"/><rect y="221.644" width="408" height="9.533" rx="3"/><rect y="234.99" width="264.392" height="9.533" rx="3"/></g><g transform="translate(9 397)"><rect fill="#4A90E2" width="86" height="28" rx="3"/><path d="M32.117 18.62c-1.4 0-2.758-.56-3.5-1.26-.056-.056-.084-.14-.028-.21l.868-1.008c.056-.07.14-.07.196-.014.616.49 1.526 1.008 2.59 1.008 1.134 0 1.792-.574 1.792-1.372 0-.686-.42-1.134-1.736-1.316l-.504-.07c-1.834-.252-2.87-1.134-2.87-2.716 0-1.722 1.26-2.87 3.22-2.87 1.19 0 2.324.378 3.08.952.07.056.084.112.028.196l-.672 1.036c-.056.07-.126.084-.196.042-.77-.504-1.484-.742-2.282-.742-.966 0-1.498.532-1.498 1.274 0 .658.462 1.106 1.75 1.288l.504.07c1.834.252 2.842 1.12 2.842 2.758 0 1.694-1.218 2.954-3.584 2.954zm7.882 0c-1.428 0-2.436-.7-2.814-1.876-.14-.434-.238-.952-.238-1.652s.084-1.232.224-1.666c.378-1.176 1.414-1.862 2.758-1.862 1.386 0 2.394.714 2.772 1.862.154.476.224.938.224 2.03 0 .084-.056.14-.154.14h-4.158c-.056 0-.084.028-.084.084 0 .196.042.364.098.518.224.658.756 1.022 1.512 1.022s1.246-.28 1.582-.644c.07-.07.14-.084.21-.028l.826.728c.07.056.07.126.014.196-.574.672-1.526 1.148-2.772 1.148zm1.344-4.284c0-.238-.028-.406-.084-.574-.182-.546-.686-.868-1.316-.868-.644 0-1.148.322-1.33.868a1.713 1.713 0 0 0-.084.574c0 .056.028.084.084.084h2.646c.056 0 .084-.028.084-.084zm8.82 4.13h-1.288c-.084 0-.14-.056-.14-.14v-3.892c0-.868-.434-1.47-1.274-1.47-.812 0-1.288.602-1.288 1.47v3.892c0 .084-.056.14-.14.14h-1.288c-.084 0-.14-.056-.14-.14v-6.468c0-.084.056-.14.14-.14h1.288c.084 0 .14.056.14.14v.49h.014c.294-.42.882-.784 1.778-.784 1.442 0 2.338 1.064 2.338 2.506v4.256c0 .084-.056.14-.14.14zm7.56 0h-1.288c-.084 0-.14-.056-.14-.14v-.504h-.014c-.322.462-.882.798-1.792.798-1.148 0-1.988-.546-2.338-1.624-.168-.518-.238-.994-.238-1.904 0-.91.07-1.386.238-1.904.35-1.078 1.19-1.624 2.338-1.624.91 0 1.47.336 1.792.798h.014V9.086c0-.084.056-.14.14-.14h1.288c.084 0 .14.056.14.14v9.24c0 .084-.056.14-.14.14zm-2.828-1.246c.644 0 1.078-.308 1.26-.868.098-.308.14-.644.14-1.26s-.042-.952-.14-1.26c-.182-.56-.616-.868-1.26-.868-.63 0-1.064.308-1.246.868-.098.308-.14.644-.14 1.26s.042.952.14 1.26c.182.56.616.868 1.246.868z" fill="#FFF" fill-rule="nonzero"/></g><path d="M424 397h23v23h-23z"/><path d="M429.75 417.125h11.5v-13.417h-11.5v13.417zm12.458-16.292h-3.354l-.958-.958h-4.792l-.958.958h-3.354v1.917h13.416v-1.917z" fill="#999" fill-rule="nonzero"/></g></svg>