<svg width="892" height="105" xmlns="http://www.w3.org/2000/svg"><g fill="none" fill-rule="evenodd"><path stroke="#E5E5E5" fill="#FFF" d="M.5.5h891v104H.5z"/><path d="M27.54 42.252c-2.496 0-4.914-1.014-6.214-2.21-.104-.104-.13-.26-.026-.39l1.144-1.352c.104-.13.234-.13.364-.026 1.144.91 2.912 1.82 4.94 1.82 2.444 0 3.9-1.222 3.9-3.016 0-1.508-.858-2.522-3.692-2.886l-.884-.13c-3.432-.468-5.2-2.106-5.2-4.888 0-3.146 2.262-5.174 5.772-5.174 2.08 0 4.082.676 5.382 1.638.13.104.156.234.052.364l-.884 1.43c-.104.13-.234.13-.364.052-1.43-.884-2.756-1.326-4.264-1.326-2.158 0-3.354 1.17-3.354 2.86 0 1.482.988 2.47 3.718 2.834l.858.13c3.458.468 5.2 2.054 5.2 4.94 0 3.094-2.184 5.33-6.448 5.33zm14.534-.156h-.962c-2.418 0-3.354-1.092-3.354-3.536v-7.124c0-.104-.052-.156-.156-.156h-1.04c-.156 0-.26-.104-.26-.26v-1.248c0-.156.104-.26.26-.26h1.04c.104 0 .156-.052.156-.156v-3.51c0-.156.104-.26.26-.26h1.664c.156 0 .26.104.26.26v3.51c0 .104.052.156.156.156h1.976c.156 0 .26.104.26.26v1.248c0 .156-.104.26-.26.26h-1.976c-.104 0-.156.052-.156.156v7.046c0 1.248.468 1.586 1.586 1.586h.546c.156 0 .26.104.26.26v1.508c0 .156-.104.26-.26.26zm12.714-.13h-1.534c-.156 0-.26-.104-.26-.26v-1.092h-.026c-.572.936-1.794 1.638-3.692 1.638-2.366 0-4.186-1.222-4.186-3.744 0-2.626 1.82-3.848 4.862-3.848h2.834c.104 0 .156-.052.156-.156v-.91c0-1.716-.676-2.444-2.99-2.444-1.404 0-2.288.364-3.016.884-.13.104-.286.104-.364-.026l-.702-1.196c-.078-.156-.052-.26.052-.364.936-.728 2.392-1.222 4.238-1.222 3.536 0 4.888 1.17 4.888 4.238v8.242c0 .156-.104.26-.26.26zm-4.992-1.586c1.95 0 3.146-.91 3.146-2.444v-1.378c0-.104-.052-.156-.156-.156H50.29c-2.158 0-3.094.624-3.094 2.028 0 1.274.936 1.95 2.6 1.95zm10.088 6.266h-.676c-.156 0-.26-.104-.26-.26v-1.508c0-.156.104-.26.26-.26h.468c1.014 0 1.56-.442 2.106-1.872l.416-1.144-4.576-11.83c-.052-.156.026-.26.208-.26h1.82c.156 0 .26.078.312.26l3.276 8.996h.052l3.146-8.996c.052-.182.156-.26.312-.26h1.768c.156 0 .26.104.208.26L63.81 42.928c-1.092 2.938-2.054 3.718-3.926 3.718zm19.838-19.942h-1.768c-.156 0-.26-.104-.26-.26v-1.898c0-.156.104-.26.26-.26h1.768c.156 0 .26.104.26.26v1.898c0 .156-.104.26-.26.26zm-.052 15.262h-1.664c-.156 0-.26-.104-.26-.26V29.772c0-.156.104-.26.26-.26h1.664c.156 0 .26.104.26.26v11.934c0 .156-.104.26-.26.26zm14.274 0H92.28c-.156 0-.26-.104-.26-.26v-7.28c0-2.002-.91-3.172-2.782-3.172-1.69 0-2.86 1.196-2.86 3.042v7.41c0 .156-.104.26-.26.26h-1.664c-.156 0-.26-.104-.26-.26V29.772c0-.156.104-.26.26-.26h1.664c.156 0 .26.104.26.26v1.144h.026c.598-.962 1.794-1.69 3.484-1.69 2.704 0 4.316 1.846 4.316 4.68v7.8c0 .156-.104.26-.26.26zm16.094 0h-1.794c-.156 0-.26-.104-.26-.26V26.6c0-.104-.052-.156-.156-.156h-4.836c-.156 0-.26-.104-.26-.26v-1.638c0-.156.104-.26.26-.26h12.298c.156 0 .26.104.26.26v1.638c0 .156-.104.26-.26.26h-4.836c-.104 0-.156.052-.156.156v15.106c0 .156-.104.26-.26.26zm11.076.286c-2.418 0-4.238-1.248-4.914-3.354-.286-.858-.416-1.716-.416-3.172 0-1.43.13-2.288.416-3.146.676-2.132 2.496-3.354 4.914-3.354 2.418 0 4.238 1.222 4.914 3.354.286.858.416 1.716.416 3.146 0 1.456-.13 2.314-.416 3.172-.676 2.106-2.496 3.354-4.914 3.354zm0-2.028c1.378 0 2.392-.702 2.808-1.95.208-.676.286-1.352.286-2.548s-.078-1.846-.286-2.522c-.416-1.248-1.43-1.95-2.808-1.95s-2.392.702-2.808 1.95c-.208.676-.286 1.326-.286 2.522 0 1.196.078 1.872.286 2.548.416 1.248 1.43 1.95 2.808 1.95zm10.764 1.742h-1.664c-.156 0-.26-.104-.26-.26V29.772c0-.156.104-.26.26-.26h1.664c.156 0 .26.104.26.26v1.274h.026c.546-1.066 1.638-1.82 3.302-1.82.988 0 1.924.364 2.548.936.13.13.156.234.052.364l-.962 1.274c-.104.13-.234.156-.364.052-.572-.364-1.196-.598-1.924-.598-1.898 0-2.678 1.482-2.678 3.64v6.812c0 .156-.104.26-.26.26zm12.844.286c-2.418 0-4.238-1.248-4.914-3.354-.286-.858-.416-1.716-.416-3.172 0-1.43.13-2.288.416-3.146.676-2.132 2.496-3.354 4.914-3.354 2.418 0 4.238 1.222 4.914 3.354.286.858.416 1.716.416 3.146 0 1.456-.13 2.314-.416 3.172-.676 2.106-2.496 3.354-4.914 3.354zm0-2.028c1.378 0 2.392-.702 2.808-1.95.208-.676.286-1.352.286-2.548s-.078-1.846-.286-2.522c-.416-1.248-1.43-1.95-2.808-1.95s-2.392.702-2.808 1.95c-.208.676-.286 1.326-.286 2.522 0 1.196.078 1.872.286 2.548.416 1.248 1.43 1.95 2.808 1.95zm18.59 1.742h-1.664c-.156 0-.26-.104-.26-.26v-7.28c0-2.002-.91-3.172-2.782-3.172-1.69 0-2.86 1.196-2.86 3.042v7.41c0 .156-.104.26-.26.26h-1.664c-.156 0-.26-.104-.26-.26V29.772c0-.156.104-.26.26-.26h1.664c.156 0 .26.104.26.26v1.144h.026c.598-.962 1.794-1.69 3.484-1.69 2.704 0 4.316 1.846 4.316 4.68v7.8c0 .156-.104.26-.26.26zm8.97.13h-.962c-2.418 0-3.354-1.092-3.354-3.536v-7.124c0-.104-.052-.156-.156-.156h-1.04c-.156 0-.26-.104-.26-.26v-1.248c0-.156.104-.26.26-.26h1.04c.104 0 .156-.052.156-.156v-3.51c0-.156.104-.26.26-.26h1.664c.156 0 .26.104.26.26v3.51c0 .104.052.156.156.156h1.976c.156 0 .26.104.26.26v1.248c0 .156-.104.26-.26.26h-1.976c-.104 0-.156.052-.156.156v7.046c0 1.248.468 1.586 1.586 1.586h.546c.156 0 .26.104.26.26v1.508c0 .156-.104.26-.26.26zm8.216.156c-2.418 0-4.238-1.248-4.914-3.354-.286-.858-.416-1.716-.416-3.172 0-1.43.13-2.288.416-3.146.676-2.132 2.496-3.354 4.914-3.354 2.418 0 4.238 1.222 4.914 3.354.286.858.416 1.716.416 3.146 0 1.456-.13 2.314-.416 3.172-.676 2.106-2.496 3.354-4.914 3.354zm0-2.028c1.378 0 2.392-.702 2.808-1.95.208-.676.286-1.352.286-2.548s-.078-1.846-.286-2.522c-.416-1.248-1.43-1.95-2.808-1.95s-2.392.702-2.808 1.95c-.208.676-.286 1.326-.286 2.522 0 1.196.078 1.872.286 2.548.416 1.248 1.43 1.95 2.808 1.95zm17.42 1.742h-1.664c-.156 0-.26-.104-.26-.26v-10.27c0-.104-.052-.156-.156-.156h-1.066c-.156 0-.26-.104-.26-.26v-1.248c0-.156.104-.26.26-.26h1.066c.104 0 .156-.052.156-.156V28.29c0-2.938 1.196-4.004 3.796-4.004h.962c.156 0 .26.104.26.26v1.508c0 .156-.104.26-.26.26h-.676c-1.586 0-1.898.338-1.898 1.872v1.17c0 .104.052.156.156.156h2.418c.156 0 .26.104.26.26v1.248c0 .156-.104.26-.26.26h-2.418c-.104 0-.156.052-.156.156v10.27c0 .156-.104.26-.26.26zm7.852 0h-1.664c-.156 0-.26-.104-.26-.26V29.772c0-.156.104-.26.26-.26h1.664c.156 0 .26.104.26.26v1.274h.026c.546-1.066 1.638-1.82 3.302-1.82.988 0 1.924.364 2.548.936.13.13.156.234.052.364l-.962 1.274c-.104.13-.234.156-.364.052-.572-.364-1.196-.598-1.924-.598-1.898 0-2.678 1.482-2.678 3.64v6.812c0 .156-.104.26-.26.26zm12.844.286c-2.418 0-4.238-1.248-4.914-3.354-.286-.858-.416-1.716-.416-3.172 0-1.43.13-2.288.416-3.146.676-2.132 2.496-3.354 4.914-3.354 2.418 0 4.238 1.222 4.914 3.354.286.858.416 1.716.416 3.146 0 1.456-.13 2.314-.416 3.172-.676 2.106-2.496 3.354-4.914 3.354zm0-2.028c1.378 0 2.392-.702 2.808-1.95.208-.676.286-1.352.286-2.548s-.078-1.846-.286-2.522c-.416-1.248-1.43-1.95-2.808-1.95s-2.392.702-2.808 1.95c-.208.676-.286 1.326-.286 2.522 0 1.196.078 1.872.286 2.548.416 1.248 1.43 1.95 2.808 1.95zm26.416 1.742h-1.664c-.156 0-.26-.104-.26-.26v-7.28c0-2.002-.91-3.172-2.782-3.172-1.664 0-2.86 1.196-2.86 3.042v7.41c0 .156-.104.26-.26.26h-1.664c-.156 0-.26-.104-.26-.26v-7.28c0-2.002-.91-3.172-2.782-3.172-1.69 0-2.86 1.196-2.86 3.042v7.41c0 .156-.104.26-.26.26h-1.664c-.156 0-.26-.104-.26-.26V29.772c0-.156.104-.26.26-.26h1.664c.156 0 .26.104.26.26v1.144h.026c.598-.962 1.794-1.69 3.484-1.69s2.938.702 3.64 1.95h.026c.858-1.196 2.132-1.95 4.03-1.95 2.886 0 4.446 1.846 4.446 4.68v7.8c0 .156-.104.26-.26.26zm9.36-1.534a.251.251 0 0 1 0-.364l1.3-1.118c.13-.104.26-.078.39.052.546.52 1.482 1.092 2.574 1.092 2.054 0 3.276-1.196 3.276-3.796V24.546c0-.156.104-.26.26-.26h1.794c.156 0 .26.104.26.26v11.752c0 3.926-2.21 5.954-5.668 5.954-1.716 0-3.328-.78-4.186-1.82zm23.53 1.534h-1.664c-.156 0-.26-.104-.26-.26v-1.17h-.026c-.65 1.04-1.794 1.716-3.406 1.716-2.73 0-4.316-1.872-4.316-4.706v-7.774c0-.156.104-.26.26-.26h1.664c.156 0 .26.104.26.26v7.254c0 2.028.91 3.198 2.756 3.198 1.69 0 2.808-1.196 2.808-3.068v-7.384c0-.156.104-.26.26-.26h1.664c.156 0 .26.104.26.26v11.934c0 .156-.104.26-.26.26zm14.274 0h-1.664c-.156 0-.26-.104-.26-.26v-7.28c0-2.002-.91-3.172-2.782-3.172-1.69 0-2.86 1.196-2.86 3.042v7.41c0 .156-.104.26-.26.26h-1.664c-.156 0-.26-.104-.26-.26V29.772c0-.156.104-.26.26-.26h1.664c.156 0 .26.104.26.26v1.144h.026c.598-.962 1.794-1.69 3.484-1.69 2.704 0 4.316 1.846 4.316 4.68v7.8c0 .156-.104.26-.26.26zm9.048.286c-2.522 0-4.316-1.222-4.992-3.38-.26-.806-.416-1.716-.416-3.146s.13-2.392.39-3.146c.702-2.158 2.522-3.354 4.888-3.354 2.392 0 4.186 1.222 4.888 3.354.26.806.39 1.664.39 3.562 0 .156-.104.26-.286.26h-7.878c-.104 0-.156.052-.156.156 0 .676.078 1.092.208 1.508.494 1.43 1.612 2.158 3.146 2.158 1.482 0 2.522-.598 3.198-1.378.13-.13.26-.156.39-.052l1.066.962c.13.104.13.234.026.364-.988 1.248-2.678 2.132-4.862 2.132zm-3.016-7.592h5.772c.104 0 .156-.052.156-.156 0-.572-.052-1.014-.182-1.404-.416-1.248-1.456-1.95-2.86-1.95s-2.444.702-2.86 1.95c-.13.39-.182.832-.182 1.404 0 .104.052.156.156.156zm19.604 7.02l6.032-15.288v-.078h-5.382c-.104 0-.156.052-.156.156v2.21c0 .156-.104.26-.26.26h-1.56c-.156 0-.26-.104-.26-.26v-4.134c0-.156.104-.26.26-.26h9.438c.156 0 .26.104.26.26v1.612c0 .104-.026.182-.052.26l-6.084 15.314c-.078.182-.13.234-.338.234h-1.742c-.156 0-.234-.104-.156-.286zm23.218.416h-.962c-2.418 0-3.354-1.092-3.354-3.536v-7.124c0-.104-.052-.156-.156-.156h-1.04c-.156 0-.26-.104-.26-.26v-1.248c0-.156.104-.26.26-.26h1.04c.104 0 .156-.052.156-.156v-3.51c0-.156.104-.26.26-.26h1.664c.156 0 .26.104.26.26v3.51c0 .104.052.156.156.156h1.976c.156 0 .26.104.26.26v1.248c0 .156-.104.26-.26.26h-1.976c-.104 0-.156.052-.156.156v7.046c0 1.248.468 1.586 1.586 1.586h.546c.156 0 .26.104.26.26v1.508c0 .156-.104.26-.26.26zm8.216.156c-2.418 0-4.238-1.248-4.914-3.354-.286-.858-.416-1.716-.416-3.172 0-1.43.13-2.288.416-3.146.676-2.132 2.496-3.354 4.914-3.354 2.418 0 4.238 1.222 4.914 3.354.286.858.416 1.716.416 3.146 0 1.456-.13 2.314-.416 3.172-.676 2.106-2.496 3.354-4.914 3.354zm0-2.028c1.378 0 2.392-.702 2.808-1.95.208-.676.286-1.352.286-2.548s-.078-1.846-.286-2.522c-.416-1.248-1.43-1.95-2.808-1.95s-2.392.702-2.808 1.95c-.208.676-.286 1.326-.286 2.522 0 1.196.078 1.872.286 2.548.416 1.248 1.43 1.95 2.808 1.95zm13.806.208a.251.251 0 0 1 0-.364l1.3-1.118c.13-.104.26-.078.39.052.546.52 1.482 1.092 2.574 1.092 2.054 0 3.276-1.196 3.276-3.796V24.546c0-.156.104-.26.26-.26h1.794c.156 0 .26.104.26.26v11.752c0 3.926-2.21 5.954-5.668 5.954-1.716 0-3.328-.78-4.186-1.82zm23.53 1.534h-1.664c-.156 0-.26-.104-.26-.26v-1.17h-.026c-.65 1.04-1.794 1.716-3.406 1.716-2.73 0-4.316-1.872-4.316-4.706v-7.774c0-.156.104-.26.26-.26h1.664c.156 0 .26.104.26.26v7.254c0 2.028.91 3.198 2.756 3.198 1.69 0 2.808-1.196 2.808-3.068v-7.384c0-.156.104-.26.26-.26h1.664c.156 0 .26.104.26.26v11.934c0 .156-.104.26-.26.26zm14.274 0h-1.664c-.156 0-.26-.104-.26-.26v-7.28c0-2.002-.91-3.172-2.782-3.172-1.69 0-2.86 1.196-2.86 3.042v7.41c0 .156-.104.26-.26.26h-1.664c-.156 0-.26-.104-.26-.26V29.772c0-.156.104-.26.26-.26h1.664c.156 0 .26.104.26.26v1.144h.026c.598-.962 1.794-1.69 3.484-1.69 2.704 0 4.316 1.846 4.316 4.68v7.8c0 .156-.104.26-.26.26zm9.048.286c-2.522 0-4.316-1.222-4.992-3.38-.26-.806-.416-1.716-.416-3.146s.13-2.392.39-3.146c.702-2.158 2.522-3.354 4.888-3.354 2.392 0 4.186 1.222 4.888 3.354.26.806.39 1.664.39 3.562 0 .156-.104.26-.286.26h-7.878c-.104 0-.156.052-.156.156 0 .676.078 1.092.208 1.508.494 1.43 1.612 2.158 3.146 2.158 1.482 0 2.522-.598 3.198-1.378.13-.13.26-.156.39-.052l1.066.962c.13.104.13.234.026.364-.988 1.248-2.678 2.132-4.862 2.132zm-3.016-7.592h5.772c.104 0 .156-.052.156-.156 0-.572-.052-1.014-.182-1.404-.416-1.248-1.456-1.95-2.86-1.95s-2.444.702-2.86 1.95c-.13.39-.182.832-.182 1.404 0 .104.052.156.156.156zm20.306 7.046l3.952-7.332-.052-.052c-.338.234-1.04.416-1.794.416-2.782 0-5.018-2.028-5.018-5.252 0-3.458 2.366-5.486 5.434-5.486 3.094 0 5.408 2.028 5.408 5.408 0 1.404-.494 2.782-1.17 4.03l-4.498 8.346c-.078.156-.156.182-.338.182h-1.768c-.182 0-.234-.104-.156-.26zm2.522-8.996c1.924 0 3.172-1.352 3.172-3.328 0-1.976-1.248-3.354-3.172-3.354-1.924 0-3.198 1.378-3.198 3.354 0 1.976 1.274 3.328 3.198 3.328zm24.492 9.256h-1.534c-.156 0-.26-.104-.26-.26v-1.092h-.026c-.572.936-1.794 1.638-3.692 1.638-2.366 0-4.186-1.222-4.186-3.744 0-2.626 1.82-3.848 4.862-3.848h2.834c.104 0 .156-.052.156-.156v-.91c0-1.716-.676-2.444-2.99-2.444-1.404 0-2.288.364-3.016.884-.13.104-.286.104-.364-.026l-.702-1.196c-.078-.156-.052-.26.052-.364.936-.728 2.392-1.222 4.238-1.222 3.536 0 4.888 1.17 4.888 4.238v8.242c0 .156-.104.26-.26.26zm-4.992-1.586c1.95 0 3.146-.91 3.146-2.444v-1.378c0-.104-.052-.156-.156-.156h-2.496c-2.158 0-3.094.624-3.094 2.028 0 1.274.936 1.95 2.6 1.95zm13.988 1.716h-.962c-2.418 0-3.354-1.092-3.354-3.536v-7.124c0-.104-.052-.156-.156-.156h-1.04c-.156 0-.26-.104-.26-.26v-1.248c0-.156.104-.26.26-.26h1.04c.104 0 .156-.052.156-.156v-3.51c0-.156.104-.26.26-.26h1.664c.156 0 .26.104.26.26v3.51c0 .104.052.156.156.156h1.976c.156 0 .26.104.26.26v1.248c0 .156-.104.26-.26.26h-1.976c-.104 0-.156.052-.156.156v7.046c0 1.248.468 1.586 1.586 1.586h.546c.156 0 .26.104.26.26v1.508c0 .156-.104.26-.26.26zm18.954-.13h-1.534c-.156 0-.26-.104-.26-.26v-1.092h-.026c-.572.936-1.794 1.638-3.692 1.638-2.366 0-4.186-1.222-4.186-3.744 0-2.626 1.82-3.848 4.862-3.848h2.834c.104 0 .156-.052.156-.156v-.91c0-1.716-.676-2.444-2.99-2.444-1.404 0-2.288.364-3.016.884-.13.104-.286.104-.364-.026l-.702-1.196c-.078-.156-.052-.26.052-.364.936-.728 2.392-1.222 4.238-1.222 3.536 0 4.888 1.17 4.888 4.238v8.242c0 .156-.104.26-.26.26zm-4.992-1.586c1.95 0 3.146-.91 3.146-2.444v-1.378c0-.104-.052-.156-.156-.156h-2.496c-2.158 0-3.094.624-3.094 2.028 0 1.274.936 1.95 2.6 1.95zm17.992 1.586h-1.664c-.156 0-.26-.104-.26-.26v-10.27c0-.104-.052-.156-.156-.156h-1.066c-.156 0-.26-.104-.26-.26v-1.248c0-.156.104-.26.26-.26h1.066c.104 0 .156-.052.156-.156V28.29c0-2.938 1.196-4.004 3.796-4.004h.962c.156 0 .26.104.26.26v1.508c0 .156-.104.26-.26.26h-.676c-1.586 0-1.898.338-1.898 1.872v1.17c0 .104.052.156.156.156h2.418c.156 0 .26.104.26.26v1.248c0 .156-.104.26-.26.26h-2.418c-.104 0-.156.052-.156.156v10.27c0 .156-.104.26-.26.26zm10.452.286c-2.418 0-4.238-1.248-4.914-3.354-.286-.858-.416-1.716-.416-3.172 0-1.43.13-2.288.416-3.146.676-2.132 2.496-3.354 4.914-3.354 2.418 0 4.238 1.222 4.914 3.354.286.858.416 1.716.416 3.146 0 1.456-.13 2.314-.416 3.172-.676 2.106-2.496 3.354-4.914 3.354zm0-2.028c1.378 0 2.392-.702 2.808-1.95.208-.676.286-1.352.286-2.548s-.078-1.846-.286-2.522c-.416-1.248-1.43-1.95-2.808-1.95s-2.392.702-2.808 1.95c-.208.676-.286 1.326-.286 2.522 0 1.196.078 1.872.286 2.548.416 1.248 1.43 1.95 2.808 1.95zm18.33 1.742h-1.664c-.156 0-.26-.104-.26-.26v-1.17h-.026c-.65 1.04-1.794 1.716-3.406 1.716-2.73 0-4.316-1.872-4.316-4.706v-7.774c0-.156.104-.26.26-.26h1.664c.156 0 .26.104.26.26v7.254c0 2.028.91 3.198 2.756 3.198 1.69 0 2.808-1.196 2.808-3.068v-7.384c0-.156.104-.26.26-.26h1.664c.156 0 .26.104.26.26v11.934c0 .156-.104.26-.26.26zm6.448 0h-1.664c-.156 0-.26-.104-.26-.26V29.772c0-.156.104-.26.26-.26h1.664c.156 0 .26.104.26.26v1.274h.026c.546-1.066 1.638-1.82 3.302-1.82.988 0 1.924.364 2.548.936.13.13.156.234.052.364l-.962 1.274c-.104.13-.234.156-.364.052-.572-.364-1.196-.598-1.924-.598-1.898 0-2.678 1.482-2.678 3.64v6.812c0 .156-.104.26-.26.26zm7.722-5.902c-.156 0-.26-.104-.26-.26v-1.508c0-.156.104-.26.26-.26h6.916c.156 0 .26.104.26.26v1.508c0 .156-.104.26-.26.26h-6.916zm14.82 6.188c-2.418 0-4.134-.988-5.148-1.872a.251.251 0 0 1 0-.364l1.066-1.144a.251.251 0 0 1 .364 0c.936.806 2.34 1.43 3.848 1.43 1.82 0 2.73-.78 2.73-1.898 0-.988-.468-1.534-2.418-1.742l-1.326-.13c-2.444-.26-3.718-1.482-3.718-3.51 0-2.366 1.69-3.796 4.628-3.796 1.82 0 3.38.598 4.42 1.378.13.078.13.234.052.364l-.884 1.118c-.104.13-.234.13-.364.052-.806-.52-2.08-1.014-3.354-1.014-1.56 0-2.366.702-2.366 1.716 0 .988.598 1.508 2.444 1.69l1.3.13c2.522.234 3.744 1.508 3.744 3.51 0 2.444-1.768 4.082-5.018 4.082zm13.026-.156h-.962c-2.418 0-3.354-1.092-3.354-3.536v-7.124c0-.104-.052-.156-.156-.156h-1.04c-.156 0-.26-.104-.26-.26v-1.248c0-.156.104-.26.26-.26h1.04c.104 0 .156-.052.156-.156v-3.51c0-.156.104-.26.26-.26h1.664c.156 0 .26.104.26.26v3.51c0 .104.052.156.156.156h1.976c.156 0 .26.104.26.26v1.248c0 .156-.104.26-.26.26h-1.976c-.104 0-.156.052-.156.156v7.046c0 1.248.468 1.586 1.586 1.586h.546c.156 0 .26.104.26.26v1.508c0 .156-.104.26-.26.26zm12.714-.13h-1.534c-.156 0-.26-.104-.26-.26v-1.092h-.026c-.572.936-1.794 1.638-3.692 1.638-2.366 0-4.186-1.222-4.186-3.744 0-2.626 1.82-3.848 4.862-3.848h2.834c.104 0 .156-.052.156-.156v-.91c0-1.716-.676-2.444-2.99-2.444-1.404 0-2.288.364-3.016.884-.13.104-.286.104-.364-.026l-.702-1.196c-.078-.156-.052-.26.052-.364.936-.728 2.392-1.222 4.238-1.222 3.536 0 4.888 1.17 4.888 4.238v8.242c0 .156-.104.26-.26.26zm-4.992-1.586c1.95 0 3.146-.91 3.146-2.444v-1.378c0-.104-.052-.156-.156-.156h-2.496c-2.158 0-3.094.624-3.094 2.028 0 1.274.936 1.95 2.6 1.95zm11.336 1.586h-1.664c-.156 0-.26-.104-.26-.26V29.772c0-.156.104-.26.26-.26h1.664c.156 0 .26.104.26.26v1.274h.026c.546-1.066 1.638-1.82 3.302-1.82.988 0 1.924.364 2.548.936.13.13.156.234.052.364l-.962 1.274c-.104.13-.234.156-.364.052-.572-.364-1.196-.598-1.924-.598-1.898 0-2.678 1.482-2.678 3.64v6.812c0 .156-.104.26-.26.26zm24.726 0h-1.664c-.156 0-.26-.104-.26-.26v-7.28c0-2.002-.91-3.172-2.782-3.172-1.69 0-2.86 1.196-2.86 3.042v7.41c0 .156-.104.26-.26.26h-1.664c-.156 0-.26-.104-.26-.26v-17.16c0-.156.104-.26.26-.26h1.664c.156 0 .26.104.26.26v6.37h.026c.598-.962 1.794-1.69 3.484-1.69 2.704 0 4.316 1.846 4.316 4.68v7.8c0 .156-.104.26-.26.26zm8.97.286c-2.418 0-4.238-1.248-4.914-3.354-.286-.858-.416-1.716-.416-3.172 0-1.43.13-2.288.416-3.146.676-2.132 2.496-3.354 4.914-3.354 2.418 0 4.238 1.222 4.914 3.354.286.858.416 1.716.416 3.146 0 1.456-.13 2.314-.416 3.172-.676 2.106-2.496 3.354-4.914 3.354zm0-2.028c1.378 0 2.392-.702 2.808-1.95.208-.676.286-1.352.286-2.548s-.078-1.846-.286-2.522c-.416-1.248-1.43-1.95-2.808-1.95s-2.392.702-2.808 1.95c-.208.676-.286 1.326-.286 2.522 0 1.196.078 1.872.286 2.548.416 1.248 1.43 1.95 2.808 1.95zm13.416 1.872h-.962c-2.418 0-3.354-1.092-3.354-3.536v-7.124c0-.104-.052-.156-.156-.156h-1.04c-.156 0-.26-.104-.26-.26v-1.248c0-.156.104-.26.26-.26h1.04c.104 0 .156-.052.156-.156v-3.51c0-.156.104-.26.26-.26h1.664c.156 0 .26.104.26.26v3.51c0 .104.052.156.156.156h1.976c.156 0 .26.104.26.26v1.248c0 .156-.104.26-.26.26h-1.976c-.104 0-.156.052-.156.156v7.046c0 1.248.468 1.586 1.586 1.586h.546c.156 0 .26.104.26.26v1.508c0 .156-.104.26-.26.26zm8.294.156c-2.522 0-4.316-1.222-4.992-3.38-.26-.806-.416-1.716-.416-3.146s.13-2.392.39-3.146c.702-2.158 2.522-3.354 4.888-3.354 2.392 0 4.186 1.222 4.888 3.354.26.806.39 1.664.39 3.562 0 .156-.104.26-.286.26h-7.878c-.104 0-.156.052-.156.156 0 .676.078 1.092.208 1.508.494 1.43 1.612 2.158 3.146 2.158 1.482 0 2.522-.598 3.198-1.378.13-.13.26-.156.39-.052l1.066.962c.13.104.13.234.026.364-.988 1.248-2.678 2.132-4.862 2.132zm-3.016-7.592h5.772c.104 0 .156-.052.156-.156 0-.572-.052-1.014-.182-1.404-.416-1.248-1.456-1.95-2.86-1.95s-2.444.702-2.86 1.95c-.13.39-.182.832-.182 1.404 0 .104.052.156.156.156zm15.548 7.436h-.884c-2.184 0-3.042-1.04-3.042-3.276V24.546c0-.156.104-.26.26-.26h1.664c.156 0 .26.104.26.26V38.69c0 1.04.39 1.378 1.248 1.378h.494c.156 0 .26.104.26.26v1.508c0 .156-.104.26-.26.26zm19.318-.13h-1.664c-.156 0-.26-.104-.26-.26v-7.28c0-2.002-.91-3.172-2.782-3.172-1.69 0-2.86 1.196-2.86 3.042v7.41c0 .156-.104.26-.26.26h-1.664c-.156 0-.26-.104-.26-.26V29.772c0-.156.104-.26.26-.26h1.664c.156 0 .26.104.26.26v1.144h.026c.598-.962 1.794-1.69 3.484-1.69 2.704 0 4.316 1.846 4.316 4.68v7.8c0 .156-.104.26-.26.26zm9.048.286c-2.522 0-4.316-1.222-4.992-3.38-.26-.806-.416-1.716-.416-3.146s.13-2.392.39-3.146c.702-2.158 2.522-3.354 4.888-3.354 2.392 0 4.186 1.222 4.888 3.354.26.806.39 1.664.39 3.562 0 .156-.104.26-.286.26h-7.878c-.104 0-.156.052-.156.156 0 .676.078 1.092.208 1.508.494 1.43 1.612 2.158 3.146 2.158 1.482 0 2.522-.598 3.198-1.378.13-.13.26-.156.39-.052l1.066.962c.13.104.13.234.026.364-.988 1.248-2.678 2.132-4.862 2.132zm-3.016-7.592h5.772c.104 0 .156-.052.156-.156 0-.572-.052-1.014-.182-1.404-.416-1.248-1.456-1.95-2.86-1.95s-2.444.702-2.86 1.95c-.13.39-.182.832-.182 1.404 0 .104.052.156.156.156zm20.748 7.306h-1.534c-.156 0-.26-.104-.26-.26v-1.092h-.026c-.572.936-1.794 1.638-3.692 1.638-2.366 0-4.186-1.222-4.186-3.744 0-2.626 1.82-3.848 4.862-3.848h2.834c.104 0 .156-.052.156-.156v-.91c0-1.716-.676-2.444-2.99-2.444-1.404 0-2.288.364-3.016.884-.13.104-.286.104-.364-.026l-.702-1.196c-.078-.156-.052-.26.052-.364.936-.728 2.392-1.222 4.238-1.222 3.536 0 4.888 1.17 4.888 4.238v8.242c0 .156-.104.26-.26.26zm-4.992-1.586c1.95 0 3.146-.91 3.146-2.444v-1.378c0-.104-.052-.156-.156-.156h-2.496c-2.158 0-3.094.624-3.094 2.028 0 1.274.936 1.95 2.6 1.95zm11.336 1.586h-1.664c-.156 0-.26-.104-.26-.26V29.772c0-.156.104-.26.26-.26h1.664c.156 0 .26.104.26.26v1.274h.026c.546-1.066 1.638-1.82 3.302-1.82.988 0 1.924.364 2.548.936.13.13.156.234.052.364l-.962 1.274c-.104.13-.234.156-.364.052-.572-.364-1.196-.598-1.924-.598-1.898 0-2.678 1.482-2.678 3.64v6.812c0 .156-.104.26-.26.26zm19.552.13h-.962c-2.418 0-3.354-1.092-3.354-3.536v-7.124c0-.104-.052-.156-.156-.156h-1.04c-.156 0-.26-.104-.26-.26v-1.248c0-.156.104-.26.26-.26h1.04c.104 0 .156-.052.156-.156v-3.51c0-.156.104-.26.26-.26h1.664c.156 0 .26.104.26.26v3.51c0 .104.052.156.156.156h1.976c.156 0 .26.104.26.26v1.248c0 .156-.104.26-.26.26h-1.976c-.104 0-.156.052-.156.156v7.046c0 1.248.468 1.586 1.586 1.586h.546c.156 0 .26.104.26.26v1.508c0 .156-.104.26-.26.26zm13.39-.13h-1.664c-.156 0-.26-.104-.26-.26v-7.28c0-2.002-.91-3.172-2.782-3.172-1.69 0-2.86 1.196-2.86 3.042v7.41c0 .156-.104.26-.26.26h-1.664c-.156 0-.26-.104-.26-.26v-17.16c0-.156.104-.26.26-.26h1.664c.156 0 .26.104.26.26v6.37h.026c.598-.962 1.794-1.69 3.484-1.69 2.704 0 4.316 1.846 4.316 4.68v7.8c0 .156-.104.26-.26.26zm9.048.286c-2.522 0-4.316-1.222-4.992-3.38-.26-.806-.416-1.716-.416-3.146s.13-2.392.39-3.146c.702-2.158 2.522-3.354 4.888-3.354 2.392 0 4.186 1.222 4.888 3.354.26.806.39 1.664.39 3.562 0 .156-.104.26-.286.26h-7.878c-.104 0-.156.052-.156.156 0 .676.078 1.092.208 1.508.494 1.43 1.612 2.158 3.146 2.158 1.482 0 2.522-.598 3.198-1.378.13-.13.26-.156.39-.052l1.066.962c.13.104.13.234.026.364-.988 1.248-2.678 2.132-4.862 2.132zm-3.016-7.592h5.772c.104 0 .156-.052.156-.156 0-.572-.052-1.014-.182-1.404-.416-1.248-1.456-1.95-2.86-1.95s-2.444.702-2.86 1.95c-.13.39-.182.832-.182 1.404 0 .104.052.156.156.156zm17.81 3.432c-.338-1.014-.468-2.028-.468-4.966s.13-3.952.468-4.966c.884-2.782 2.99-4.16 5.876-4.16 2.626 0 4.654 1.3 5.668 3.562.052.13.026.26-.104.338l-1.56.754a.259.259 0 0 1-.364-.13c-.702-1.378-1.794-2.366-3.64-2.366-1.924 0-3.094.936-3.666 2.6-.234.728-.338 1.586-.338 4.368s.104 3.64.338 4.368c.572 1.664 1.742 2.6 3.666 2.6 1.846 0 2.938-.988 3.64-2.366a.259.259 0 0 1 .364-.13l1.56.754c.13.078.156.208.104.338-1.014 2.262-3.042 3.562-5.668 3.562-2.886 0-4.992-1.378-5.876-4.16zm14.872 3.614v-17.16c0-.156.104-.26.26-.26h1.664c.208 0 .338.052.442.26l8.008 13.26h.104v-13.26c0-.156.104-.26.26-.26h1.638c.156 0 .26.104.26.26v17.16c0 .156-.104.26-.26.26h-1.664c-.182 0-.338-.052-.442-.26l-8.034-13.208h-.078v13.208c0 .156-.104.26-.26.26h-1.638c-.156 0-.26-.104-.26-.26zm28.652.26h-1.794c-.156 0-.26-.104-.26-.26V26.6c0-.104-.052-.156-.156-.156h-4.836c-.156 0-.26-.104-.26-.26v-1.638c0-.156.104-.26.26-.26h12.298c.156 0 .26.104.26.26v1.638c0 .156-.104.26-.26.26h-4.836c-.104 0-.156.052-.156.156v15.106c0 .156-.104.26-.26.26zm11.076.286c-2.418 0-4.238-1.248-4.914-3.354-.286-.858-.416-1.716-.416-3.172 0-1.43.13-2.288.416-3.146.676-2.132 2.496-3.354 4.914-3.354 2.418 0 4.238 1.222 4.914 3.354.286.858.416 1.716.416 3.146 0 1.456-.13 2.314-.416 3.172-.676 2.106-2.496 3.354-4.914 3.354zm0-2.028c1.378 0 2.392-.702 2.808-1.95.208-.676.286-1.352.286-2.548s-.078-1.846-.286-2.522c-.416-1.248-1.43-1.95-2.808-1.95s-2.392.702-2.808 1.95c-.208.676-.286 1.326-.286 2.522 0 1.196.078 1.872.286 2.548.416 1.248 1.43 1.95 2.808 1.95zm20.93 1.742h-1.482c-.156 0-.26-.104-.312-.26l-2.808-8.918h-.052l-2.834 8.918c-.052.156-.156.26-.312.26h-1.508c-.156 0-.26-.104-.312-.26l-3.9-11.934c-.052-.156.026-.26.182-.26h1.768c.182 0 .26.052.338.26l2.756 8.996h.052l2.808-8.996c.052-.182.156-.26.312-.26h1.352c.156 0 .286.078.338.26l2.834 8.996h.052l2.678-8.996c.052-.208.156-.26.338-.26h1.768c.156 0 .234.104.182.26l-3.926 11.934c-.052.156-.13.26-.312.26zm11.83.286c-2.522 0-4.316-1.222-4.992-3.38-.26-.806-.416-1.716-.416-3.146s.13-2.392.39-3.146c.702-2.158 2.522-3.354 4.888-3.354 2.392 0 4.186 1.222 4.888 3.354.26.806.39 1.664.39 3.562 0 .156-.104.26-.286.26h-7.878c-.104 0-.156.052-.156.156 0 .676.078 1.092.208 1.508.494 1.43 1.612 2.158 3.146 2.158 1.482 0 2.522-.598 3.198-1.378.13-.13.26-.156.39-.052l1.066.962c.13.104.13.234.026.364-.988 1.248-2.678 2.132-4.862 2.132zm-3.016-7.592h5.772c.104 0 .156-.052.156-.156 0-.572-.052-1.014-.182-1.404-.416-1.248-1.456-1.95-2.86-1.95s-2.444.702-2.86 1.95c-.13.39-.182.832-.182 1.404 0 .104.052.156.156.156zm13.598 7.306h-1.664c-.156 0-.26-.104-.26-.26V29.772c0-.156.104-.26.26-.26h1.664c.156 0 .26.104.26.26v1.274h.026c.546-1.066 1.638-1.82 3.302-1.82.988 0 1.924.364 2.548.936.13.13.156.234.052.364l-.962 1.274c-.104.13-.234.156-.364.052-.572-.364-1.196-.598-1.924-.598-1.898 0-2.678 1.482-2.678 3.64v6.812c0 .156-.104.26-.26.26zm6.682-.26V39.47c0-.156.104-.26.26-.26h1.976c.156 0 .26.104.26.26v2.236c0 .156-.104.26-.26.26h-1.976c-.156 0-.26-.104-.26-.26z" fill="#666" fill-rule="nonzero"/></g></svg>