<svg width="327" height="454" xmlns="http://www.w3.org/2000/svg" xmlns:xlink="http://www.w3.org/1999/xlink"><defs><rect id="a" x="0" y="0" width="313" height="47" rx="4"/><filter x="-1%" y="-6.4%" width="101.9%" height="112.8%" filterUnits="objectBoundingBox" id="b"><feOffset in="SourceAlpha" result="shadowOffsetOuter1"/><feGaussianBlur stdDeviation="1" in="shadowOffsetOuter1" result="shadowBlurOuter1"/><feColorMatrix values="0 0 0 0 0 0 0 0 0 0 0 0 0 0 0 0 0 0 0.257048234 0" in="shadowBlurOuter1"/></filter><path id="d" d="M7.063 0L8 .75l-4 3.2-4-3.2L.938 0 4 2.45z"/><rect id="f" x="0" y="0" width="313" height="65" rx="4"/><filter x="-2.2%" y="-7.7%" width="104.5%" height="121.5%" filterUnits="objectBoundingBox" id="g"><feOffset dy="2" in="SourceAlpha" result="shadowOffsetOuter1"/><feGaussianBlur stdDeviation="2" in="shadowOffsetOuter1" result="shadowBlurOuter1"/><feColorMatrix values="0 0 0 0 0 0 0 0 0 0 0 0 0 0 0 0 0 0 0.245103034 0" in="shadowBlurOuter1"/></filter><path d="M16.334 18.46l1.436-1.435c.087-.087.13-.218.087-.305L16.03 7.712c-.043-.13 0-.217.087-.304l4.091-4.091a1.786 1.786 0 0 0 0-2.524 1.786 1.786 0 0 0-2.524 0l-4.221 4.221c-.087.087-.174.13-.305.087L4.02 3.404c-.13 0-.218 0-.305.087l-1.48 1.523c-.173.174-.13.479.088.566L9.24 8.626c.217.087.261.392.087.566l-4.482 4.482c-.087.087-.218.13-.305.087l-2.959-.61c-.13-.043-.218 0-.305.088l-.87.87c-.174.174-.13.435.087.566l2.96 1.436c0 .043.043.043.086.087l1.262 1.262c.044.043.044.043.044.087l1.523 3.002c.087.218.391.262.565.087l.74-.74c.087-.086.13-.217.087-.304l-.609-3.003c-.043-.13 0-.217.087-.304l4.743-4.743c.174-.175.436-.131.566.087l3.264 6.745c.087.217.348.26.522.087z" id="i"/><rect id="j" x="0" y="0" width="313" height="92" rx="4"/><filter x="-2.2%" y="-5.4%" width="104.5%" height="115.2%" filterUnits="objectBoundingBox" id="k"><feOffset dy="2" in="SourceAlpha" result="shadowOffsetOuter1"/><feGaussianBlur stdDeviation="2" in="shadowOffsetOuter1" result="shadowBlurOuter1"/><feColorMatrix values="0 0 0 0 0 0 0 0 0 0 0 0 0 0 0 0 0 0 0.245103034 0" in="shadowBlurOuter1"/></filter><path d="M20.596 15.165L12.622 1.237A2.457 2.457 0 0 0 10.497 0C9.623 0 8.81.474 8.372 1.237L.328 15.289a2.5 2.5 0 0 0 0 2.474A2.457 2.457 0 0 0 2.452 19h16.095C19.899 19 21 17.89 21 16.526c0-.487-.14-.957-.404-1.361zm-2.05 2.185H2.452a.82.82 0 0 1-.708-.412.833.833 0 0 1 0-.825L9.79 2.062a.819.819 0 0 1 .708-.412.82.82 0 0 1 .709.412l7.987 13.951a.76.76 0 0 0 .031.05c.092.137.14.297.14.463a.823.823 0 0 1-.818.824zM10.5 12.782a.918.918 0 0 0 .914-.921V7.07a.917.917 0 0 0-.914-.922.918.918 0 0 0-.914.922v4.79c0 .51.41.922.914.922zm0 .541c-.308 0-.607.125-.827.344a1.192 1.192 0 0 0 0 1.666c.22.22.521.346.827.346.306 0 .608-.127.825-.346a1.184 1.184 0 0 0 0-1.666 1.17 1.17 0 0 0-.825-.344z" id="m"/><rect id="o" x="0" y="0" width="313" height="65" rx="4"/><filter x="-2.2%" y="-7.7%" width="104.5%" height="121.5%" filterUnits="objectBoundingBox" id="p"><feOffset dy="2" in="SourceAlpha" result="shadowOffsetOuter1"/><feGaussianBlur stdDeviation="2" in="shadowOffsetOuter1" result="shadowBlurOuter1"/><feColorMatrix values="0 0 0 0 0 0 0 0 0 0 0 0 0 0 0 0 0 0 0.245103034 0" in="shadowBlurOuter1"/></filter><path d="M16.334 18.46l1.436-1.435c.087-.087.13-.218.087-.305L16.03 7.712c-.043-.13 0-.217.087-.304l4.091-4.091a1.786 1.786 0 0 0 0-2.524 1.786 1.786 0 0 0-2.524 0l-4.221 4.221c-.087.087-.174.13-.305.087L4.02 3.404c-.13 0-.218 0-.305.087l-1.48 1.523c-.173.174-.13.479.088.566L9.24 8.626c.217.087.261.392.087.566l-4.482 4.482c-.087.087-.218.13-.305.087l-2.959-.61c-.13-.043-.218 0-.305.088l-.87.87c-.174.174-.13.435.087.566l2.96 1.436c0 .043.043.043.086.087l1.262 1.262c.044.043.044.043.044.087l1.523 3.002c.087.218.391.262.565.087l.74-.74c.087-.086.13-.217.087-.304l-.609-3.003c-.043-.13 0-.217.087-.304l4.743-4.743c.174-.175.436-.131.566.087l3.264 6.745c.087.217.348.26.522.087z" id="r"/><path id="t" d="M0 0h151v21H0z"/><filter x="-4%" y="-28.6%" width="107.9%" height="157.1%" filterUnits="objectBoundingBox" id="s"><feOffset in="SourceAlpha" result="shadowOffsetOuter1"/><feGaussianBlur stdDeviation="2" in="shadowOffsetOuter1" result="shadowBlurOuter1"/><feComposite in="shadowBlurOuter1" in2="SourceAlpha" operator="out" result="shadowBlurOuter1"/><feColorMatrix values="0 0 0 0 0 0 0 0 0 0 0 0 0 0 0 0 0 0 0.253000453 0" in="shadowBlurOuter1"/></filter><path id="v" d="M0 0h151v21H0z"/><filter x="-4%" y="-28.6%" width="107.9%" height="157.1%" filterUnits="objectBoundingBox" id="u"><feOffset in="SourceAlpha" result="shadowOffsetOuter1"/><feGaussianBlur stdDeviation="2" in="shadowOffsetOuter1" result="shadowBlurOuter1"/><feComposite in="shadowBlurOuter1" in2="SourceAlpha" operator="out" result="shadowBlurOuter1"/><feColorMatrix values="0 0 0 0 0 0 0 0 0 0 0 0 0 0 0 0 0 0 0.253000453 0" in="shadowBlurOuter1"/></filter><path d="M0 2.492A2.498 2.498 0 0 1 2.507 0h258.986A2.496 2.496 0 0 1 264 2.492v39.016A2.498 2.498 0 0 1 261.493 44H2.507A2.496 2.496 0 0 1 0 41.508V2.492z" id="x"/><filter x="-2.7%" y="-11.4%" width="105.3%" height="131.8%" filterUnits="objectBoundingBox" id="w"><feOffset dy="2" in="SourceAlpha" result="shadowOffsetOuter1"/><feGaussianBlur stdDeviation="2" in="shadowOffsetOuter1" result="shadowBlurOuter1"/><feColorMatrix values="0 0 0 0 0 0 0 0 0 0 0 0 0 0 0 0 0 0 0.248907343 0" in="shadowBlurOuter1"/></filter></defs><g fill="none" fill-rule="evenodd"><g class="itinerary-2-card" transform="translate(8 2)"><mask id="c" fill="#fff"><use xlink:href="#a"/></mask><use fill="#000" filter="url(#b)" xlink:href="#a"/><use fill="#FFF" xlink:href="#a"/><path fill="#7ED321" mask="url(#c)" d="M0-2h313v4H0z"/><path d="M242.03 19h-.69c-.06 0-.1-.04-.1-.1v-5.81c0-.04-.02-.06-.06-.06h-1.86c-.06 0-.1-.04-.1-.1v-.63c0-.06.04-.1.1-.1h4.73c.06 0 .1.04.1.1v.63c0 .06-.04.1-.1.1h-1.86c-.04 0-.06.02-.06.06v5.81c0 .06-.04.1-.1.1zm5.19.11c-1.14 0-1.96-.54-2.31-1.59-.13-.39-.18-.8-.18-1.92 0-1.12.05-1.53.18-1.92.35-1.05 1.17-1.59 2.31-1.59 1.15 0 1.97.54 2.32 1.59.13.39.18.8.18 1.92 0 1.12-.05 1.53-.18 1.92-.35 1.05-1.17 1.59-2.32 1.59zm0-.83c.76 0 1.24-.36 1.45-1.01.08-.25.15-.69.15-1.67s-.07-1.42-.15-1.67c-.21-.65-.69-1.01-1.45-1.01-.75 0-1.23.36-1.44 1.01-.08.25-.15.69-.15 1.67s.07 1.42.15 1.67c.21.65.69 1.01 1.44 1.01zm5.89.72h-.69c-.06 0-.1-.04-.1-.1v-5.81c0-.04-.02-.06-.06-.06h-1.86c-.06 0-.1-.04-.1-.1v-.63c0-.06.04-.1.1-.1h4.73c.06 0 .1.04.1.1v.63c0 .06-.04.1-.1.1h-1.86c-.04 0-.06.02-.06.06v5.81c0 .06-.04.1-.1.1zm1.86-.1l2.36-6.6c.02-.06.05-.1.12-.1h.65c.07 0 .11.04.13.1l2.33 6.6c.02.06-.01.1-.07.1h-.7c-.07 0-.11-.03-.13-.1l-.52-1.48h-2.75l-.52 1.48c-.03.07-.07.1-.13.1h-.7c-.06 0-.09-.04-.07-.1zm1.71-2.3h2.17l-1.07-3.09h-.02l-1.08 3.09zm4.96 2.3v-6.6c0-.06.04-.1.1-.1h.69c.06 0 .1.04.1.1v5.81c0 .04.02.06.06.06h3.24c.06 0 .1.04.1.1v.63c0 .06-.04.1-.1.1h-4.09c-.06 0-.1-.04-.1-.1zm-21.536 15.124c-.08-.064-.096-.16-.032-.24l.848-1.072c.064-.08.16-.08.224-.016.464.384 1.2.784 2.048.864v-3.28c-1.824-.304-2.928-1.44-2.928-3.072 0-1.776 1.216-3.056 2.928-3.232v-.832c0-.096.064-.16.16-.16h.624c.096 0 .16.064.16.16v.832c.928.08 1.776.4 2.448.848.08.064.096.128.032.224l-.736 1.088c-.064.08-.144.08-.224.032a3.994 3.994 0 0 0-1.52-.576v3.12c1.936.32 2.944 1.44 2.944 3.088 0 1.808-1.12 3.072-2.944 3.328v.848c0 .096-.064.16-.16.16h-.624c-.096 0-.16-.064-.16-.16v-.816a5.258 5.258 0 0 1-3.088-1.136zm3.088-5.504v-2.928c-.72.144-1.184.72-1.184 1.488 0 .672.272 1.184 1.184 1.44zm.944 4.992c.784-.192 1.2-.752 1.2-1.648 0-.608-.288-1.136-1.2-1.408v3.056zm4.544 1.328v-1.2c0-.096.016-.144.08-.208l3.84-4.784c.432-.528.704-1.04.704-1.664 0-.816-.528-1.44-1.44-1.44-.864 0-1.36.528-1.472 1.36-.016.096-.08.144-.176.128l-1.408-.288c-.096-.016-.144-.096-.128-.192.144-1.28 1.168-2.608 3.232-2.608 2.032 0 3.2 1.344 3.2 3.04 0 .976-.384 1.776-1.024 2.544l-3.168 3.84v.032h4.032c.096 0 .16.064.16.16v1.28c0 .096-.064.16-.16.16h-6.112c-.096 0-.16-.064-.16-.16zm8.288 1.776v-3.408c0-.096.064-.16.16-.16h1.504c.096 0 .16.064.16.16v1.744c0 .16-.016.24-.112.336l-1.328 1.376c-.08.08-.144.112-.224.112-.096 0-.16-.064-.16-.16zm6.432-1.776v-8.576h-.032l-1.664 1.168c-.096.064-.176.032-.176-.096v-1.632a.26.26 0 0 1 .112-.224l1.744-1.264a.418.418 0 0 1 .288-.096h1.36c.096 0 .16.064.16.16v10.56c0 .096-.064.16-.16.16h-1.472c-.096 0-.16-.064-.16-.16zm8.384 0v-8.576h-.032l-1.664 1.168c-.096.064-.176.032-.176-.096v-1.632a.26.26 0 0 1 .112-.224l1.744-1.264a.418.418 0 0 1 .288-.096h1.36c.096 0 .16.064.16.16v10.56c0 .096-.064.16-.16.16h-1.472c-.096 0-.16-.064-.16-.16zm6.656-.016l3.552-9.056v-.048h-2.704c-.064 0-.096.032-.096.096v1.248c0 .096-.064.16-.16.16h-1.376c-.096 0-.16-.064-.16-.16V24.28c0-.096.064-.16.16-.16h6.096c.096 0 .16.064.16.16v1.248a.72.72 0 0 1-.048.288l-3.6 9.04c-.048.112-.08.144-.208.144h-1.52c-.096 0-.144-.064-.096-.176zm7.216.016v-1.632c0-.096.064-.16.16-.16h1.6c.096 0 .16.064.16.16v1.632c0 .096-.064.16-.16.16h-1.6c-.096 0-.16-.064-.16-.16zm3.872-1.792c-.144-.448-.224-.96-.224-3.488s.08-3.04.224-3.488c.432-1.36 1.472-2.128 3.088-2.128s2.656.768 3.104 2.128c.144.448.224.96.224 3.488s-.08 3.04-.224 3.488c-.448 1.36-1.488 2.128-3.104 2.128s-2.656-.768-3.088-2.128zm1.76-.336c.208.576.656.864 1.328.864s1.136-.288 1.344-.864c.112-.336.144-.704.144-3.152 0-2.448-.032-2.816-.144-3.152-.208-.576-.672-.864-1.344-.864s-1.12.288-1.328.864c-.112.336-.144.704-.144 3.152 0 2.448.032 2.816.144 3.152zm6.624.224c-.016-.08.032-.16.128-.192l1.36-.336c.096-.016.16.032.192.128.208.608.704 1.04 1.504 1.04.624 0 1.152-.32 1.344-.896.112-.288.144-.64.144-1.2 0-.592-.048-.928-.144-1.2-.208-.64-.736-.896-1.36-.896-.72 0-1.152.384-1.328.752-.048.112-.08.16-.192.16h-1.344c-.096 0-.16-.064-.16-.16V24.28c0-.096.064-.16.16-.16h5.792c.096 0 .16.064.16.16v1.28c0 .096-.064.16-.16.16H299.8c-.064 0-.096.032-.096.096v2.448h.048c.256-.208.816-.48 1.6-.48 1.392 0 2.416.656 2.8 1.84.144.464.24.976.24 1.856 0 .72-.08 1.28-.224 1.712-.416 1.264-1.632 1.984-3.072 1.984-1.68 0-2.944-.896-3.184-2.24z" fill="#575757" fill-rule="nonzero"/><g transform="translate(112 33)"><mask id="e" fill="#fff"><use xlink:href="#d"/></mask><use fill="#333" xlink:href="#d"/><g mask="url(#e)" fill="#333"><path d="M-32-27.2h72v57.6h-72z"/></g></g><path d="M32.427 32.231c-3.035-1.333-6.406-2.99-6.689-4.02v-1.083c.63-.732 1.127-1.753 1.42-2.95.707-.563.883-1.725.298-2.542v-2.424c0-2.5-1.226-4.212-4.027-4.212-2.73 0-4.028 1.712-4.028 4.212v2.425c-.585.816-.408 1.978.297 2.542.294 1.196.791 2.217 1.42 2.95v1.081c-.281 1.03-3.652 2.687-6.688 4.021-.259.115-.43.4-.43.72v2.707c0 .425.3.77.668.77h17.521c.369 0 .668-.345.668-.77v-2.707c0-.32-.171-.606-.43-.72z" fill="#595959"/><rect class="mock-text" fill="#D8D8D8" x="47" y="12" width="101" height="8" rx="4"/><rect class="mock-text" fill="#D8D8D8" x="47" y="29" width="60" height="8" rx="4"/></g><g class="itinerary-2-card" transform="translate(10 98)"><mask id="h" fill="#fff"><use xlink:href="#f"/></mask><use fill="#000" filter="url(#g)" xlink:href="#f"/><use fill="#FFF" xlink:href="#f"/><path fill="#7ED321" mask="url(#h)" d="M0-2h313v4H0z"/><use fill="#CCC" xlink:href="#i" transform="translate(11 13)"/><rect class="mock-text" fill="#666" x="45" y="10" width="34" height="4" rx="2"/><rect class="mock-text" fill="#CCC" x="45" y="22" width="42" height="4" rx="2"/><rect class="mock-text" fill="#666" x="45" y="37" width="55" height="4" rx="2"/><rect class="mock-text" fill="#CCC" x="45" y="49" width="63" height="4" rx="2"/><rect class="mock-text" fill="#666" x="125" y="10" width="34" height="4" rx="2"/><rect class="mock-text" fill="#CCC" x="125" y="22" width="34" height="4" rx="2"/><rect class="mock-text" fill="#666" x="125" y="37" width="47" height="4" rx="2"/><rect class="mock-text" fill="#CCC" x="211" y="10" width="97" height="4" rx="2"/><rect class="mock-text" fill="#666" x="274" y="25" width="34" height="4" rx="2"/></g><g class="itinerary-2-card has-error" transform="translate(10 175)"><mask id="l" fill="#fff"><use xlink:href="#j"/></mask><use fill="#000" filter="url(#k)" xlink:href="#j"/><use fill="#FFF" xlink:href="#j"/><path class="warning-stripe" fill="#F5A623" mask="url(#l)" d="M0-2h313v4H0z"/><path d="M9.35 25.882H32v4.706h-1.474v-3.294H9.349v3.294H8V16h1.35v9.882zm2.885-2.823a1.882 1.882 0 1 1 0-3.765 1.882 1.882 0 0 1 0 3.765zm-1.882 1.882V23.53h4.235v-3.764H16v5.176h-5.647zm6.588-5.176H31.06v5.176H16.94v-5.176z" fill="#CCC"/><rect class="mock-text" fill="#666" x="45" y="15" width="126" height="4" rx="2"/><rect class="mock-text" fill="#CCC" x="45" y="29" width="149" height="4" rx="2"/><rect class="mock-text" fill="#CCC" x="45" y="43" width="149" height="4" rx="2"/><rect class="mock-text" fill="#666" x="45" y="56" width="48" height="4" rx="2"/><rect class="mock-text" fill="#666" x="124" y="56" width="48" height="4" rx="2"/><rect class="mock-text" fill="#CCC" x="211" y="14.5" width="97" height="4" rx="2"/><rect class="mock-text" fill="#666" x="274" y="55" width="34" height="4" rx="2"/><g class="warning-icon"><path d="M30.596 54.165l-7.974-13.928A2.457 2.457 0 0 0 20.497 39c-.874 0-1.688.474-2.125 1.237l-8.044 14.052a2.5 2.5 0 0 0 0 2.474A2.457 2.457 0 0 0 12.452 58h16.095C29.899 58 31 56.89 31 55.526c0-.487-.14-.957-.404-1.361z" fill="#FFF" fill-rule="nonzero"/><g transform="translate(10 39)"><mask id="n" fill="#fff"><use xlink:href="#m"/></mask><use fill="#DB4145" fill-rule="nonzero" xlink:href="#m"/><path fill="#F5A623" mask="url(#n)" d="M0 0h21v19H0z"/></g></g></g><g class="itinerary-2-card" transform="translate(10 315)"><mask id="q" fill="#fff"><use xlink:href="#o"/></mask><use fill="#000" filter="url(#p)" xlink:href="#o"/><use fill="#FFF" xlink:href="#o"/><path fill="#7ED321" mask="url(#q)" d="M0-2h313v4H0z"/><use fill="#CCC" xlink:href="#r" transform="translate(11 13)"/><rect class="mock-text" fill="#666" x="45" y="10" width="34" height="4" rx="2"/><rect class="mock-text" fill="#CCC" x="45" y="22" width="42" height="4" rx="2"/><rect class="mock-text" fill="#666" x="45" y="37" width="55" height="4" rx="2"/><rect class="mock-text" fill="#CCC" x="45" y="49" width="63" height="4" rx="2"/><rect class="mock-text" fill="#666" x="125" y="10" width="34" height="4" rx="2"/><rect class="mock-text" fill="#CCC" x="125" y="22" width="34" height="4" rx="2"/><rect class="mock-text" fill="#666" x="125" y="37" width="47" height="4" rx="2"/><rect class="mock-text" fill="#CCC" x="211" y="10" width="97" height="4" rx="2"/><rect class="mock-text" fill="#666" x="274" y="25" width="34" height="4" rx="2"/></g><g class="itinerary-2-date"><path d="M160 76.199h163" stroke="#979797" opacity=".2" stroke-linecap="square" stroke-dasharray="2,4"/><g transform="translate(4 65)"><use fill="#000" filter="url(#s)" xlink:href="#t"/><use fill-opacity=".6" fill="#333" xlink:href="#t"/></g><path d="M17.472 81H15.44c-.096 0-.16-.064-.16-.16v-8.528c0-.064-.032-.096-.096-.096h-2.752c-.096 0-.16-.064-.16-.16V70.28c0-.096.064-.16.16-.16h8.048c.096 0 .16.064.16.16v1.776c0 .096-.064.16-.16.16h-2.752c-.064 0-.096.032-.096.096v8.528c0 .096-.064.16-.16.16zm8.608.176c-2.448 0-4.176-1.472-4.176-4.176v-6.72c0-.096.064-.16.16-.16h2.032c.096 0 .16.064.16.16v6.784c0 1.296.72 2.032 1.824 2.032 1.088 0 1.808-.736 1.808-2.032V70.28c0-.096.064-.16.16-.16h2.032c.096 0 .16.064.16.16V77c0 2.704-1.728 4.176-4.16 4.176zm6.192-.336V70.28c0-.096.064-.16.16-.16h6.976c.096 0 .16.064.16.16v1.712c0 .096-.064.16-.16.16H34.72c-.064 0-.096.032-.096.096v2.16c0 .064.032.096.096.096h3.904c.096 0 .16.064.16.16v1.696c0 .096-.064.16-.16.16H34.72c-.064 0-.096.032-.096.096v2.256c0 .064.032.096.096.096h4.688c.096 0 .16.064.16.16v1.712c0 .096-.064.16-.16.16h-6.976c-.096 0-.16-.064-.16-.16zm8.96 1.712V78.92c0-.096.064-.16.16-.16H43.2c.096 0 .16.064.16.16v1.936c0 .144-.048.224-.144.32l-1.584 1.44c-.096.08-.16.112-.24.112-.096 0-.16-.064-.16-.176zm7.088-1.712l3.744-10.56c.032-.096.096-.16.208-.16h2.016c.112 0 .176.064.208.16l3.68 10.56c.032.096 0 .16-.112.16h-2.08c-.112 0-.176-.048-.208-.16l-.624-1.904h-3.808l-.608 1.904c-.032.112-.096.16-.208.16h-2.096c-.112 0-.144-.064-.112-.16zM52 76.936h2.512l-1.232-3.808h-.048L52 76.936zM61.632 81H59.6c-.096 0-.16-.064-.16-.16V70.28c0-.096.064-.16.16-.16h4.224c2.368 0 3.792 1.424 3.792 3.504 0 2.048-1.44 3.488-3.792 3.488h-1.936c-.064 0-.096.032-.096.096v3.632c0 .096-.064.16-.16.16zm2.048-5.92c.992 0 1.584-.576 1.584-1.456s-.592-1.472-1.584-1.472h-1.792c-.064 0-.096.032-.096.096v2.736c0 .064.032.096.096.096h1.792zM77.408 81h-2.272c-.144 0-.192-.048-.24-.16l-1.872-3.984h-1.456c-.064 0-.096.032-.096.096v3.888c0 .096-.064.16-.16.16H69.28c-.096 0-.16-.064-.16-.16V70.28c0-.096.064-.16.16-.16h4.336c2.224 0 3.696 1.392 3.696 3.376 0 1.392-.736 2.496-1.936 3.024l2.144 4.288c.048.096 0 .192-.112.192zm-3.92-6.144c.896 0 1.472-.528 1.472-1.36 0-.816-.576-1.344-1.472-1.344h-1.92c-.064 0-.096.032-.096.096v2.512c0 .064.032.096.096.096h1.92zm9.392 5.984v-1.488a.3.3 0 0 1 .08-.224l3.824-4.544c.416-.48.64-.944.64-1.504 0-.72-.432-1.248-1.184-1.248-.736 0-1.184.448-1.28 1.28 0 .096-.064.144-.176.128l-1.76-.288c-.096-.016-.144-.096-.128-.192.112-1.504 1.328-2.816 3.424-2.816 2.08 0 3.344 1.344 3.344 3.104 0 1.04-.416 1.856-1.104 2.64l-2.864 3.376v.032h3.808c.096 0 .16.064.16.16v1.584c0 .096-.064.16-.16.16H83.04c-.096 0-.16-.064-.16-.16zm8.816 1.712V78.92c0-.096.064-.16.16-.16h1.808c.096 0 .16.064.16.16v1.936c0 .144-.048.224-.144.32l-1.584 1.44c-.096.08-.16.112-.24.112-.096 0-.16-.064-.16-.176zM99.6 80.84v-1.488a.3.3 0 0 1 .08-.224l3.824-4.544c.416-.48.64-.944.64-1.504 0-.72-.432-1.248-1.184-1.248-.736 0-1.184.448-1.28 1.28 0 .096-.064.144-.176.128l-1.76-.288c-.096-.016-.144-.096-.128-.192.112-1.504 1.328-2.816 3.424-2.816 2.08 0 3.344 1.344 3.344 3.104 0 1.04-.416 1.856-1.104 2.64l-2.864 3.376v.032h3.808c.096 0 .16.064.16.16v1.584c0 .096-.064.16-.16.16H99.76c-.096 0-.16-.064-.16-.16zm9.024-1.888c-.16-.48-.24-.976-.24-3.392s.08-2.912.24-3.392c.448-1.392 1.568-2.224 3.28-2.224 1.712 0 2.832.832 3.28 2.224.16.48.24.976.24 3.392s-.08 2.912-.24 3.392c-.448 1.392-1.568 2.224-3.28 2.224-1.712 0-2.832-.832-3.28-2.224zm2.176-.4c.16.496.528.736 1.104.736.56 0 .944-.24 1.104-.736.096-.288.128-.608.128-2.992s-.032-2.704-.128-2.992c-.16-.496-.544-.736-1.104-.736-.576 0-.944.24-1.104.736-.096.288-.128.608-.128 2.992s.032 2.704.128 2.992zm9.424 2.288v-8.192h-.032l-1.728 1.184c-.096.064-.176.032-.176-.096v-1.984a.26.26 0 0 1 .112-.224l1.824-1.312a.447.447 0 0 1 .288-.096h1.792c.096 0 .16.064.16.16v10.56c0 .096-.064.16-.16.16h-1.92c-.096 0-.16-.064-.16-.16zm7.344 0l2.304-4.208-.032-.032c-.112.048-.384.096-.672.096-1.712 0-3.12-1.28-3.12-3.28 0-2.192 1.584-3.472 3.648-3.472 2.08 0 3.648 1.28 3.648 3.424 0 .928-.288 1.76-.8 2.688l-2.64 4.832c-.048.096-.08.112-.192.112h-2.032c-.128 0-.16-.064-.112-.16zm2.128-5.984c.88 0 1.44-.624 1.44-1.52 0-.88-.56-1.504-1.44-1.504-.88 0-1.44.624-1.44 1.504 0 .896.56 1.52 1.44 1.52z" fill="#FFF" fill-rule="nonzero"/></g><g class="itinerary-2-date"><path d="M160 293.5h163" stroke="#979797" opacity=".2" stroke-linecap="square" stroke-dasharray="2,4"/><g transform="translate(4 283)"><use fill="#000" filter="url(#u)" xlink:href="#v"/><use fill-opacity=".6" fill="#333" xlink:href="#v"/></g><path d="M13.04 298.84v-10.56c0-.096.064-.16.16-.16h1.904c.128 0 .208.048.256.16l2.752 6.208h.064l2.704-6.208c.048-.112.128-.16.256-.16h1.872c.096 0 .16.064.16.16v10.56c0 .096-.064.16-.16.16H21.2c-.096 0-.16-.064-.16-.16v-6.128h-.064l-2.016 4.592c-.064.144-.16.208-.304.208h-1.104c-.144 0-.24-.064-.304-.208l-2.016-4.592h-.064v6.128c0 .096-.064.16-.16.16H13.2c-.096 0-.16-.064-.16-.16zm16.192.336c-1.904 0-3.408-.88-3.968-2.64-.24-.752-.304-1.36-.304-2.976 0-1.616.064-2.224.304-2.976.56-1.76 2.064-2.64 3.968-2.64s3.408.88 3.968 2.64c.24.752.304 1.36.304 2.976 0 1.616-.064 2.224-.304 2.976-.56 1.76-2.064 2.64-3.968 2.64zm0-2.08c.896 0 1.472-.448 1.712-1.2.128-.384.176-.912.176-2.336s-.048-1.952-.176-2.336c-.24-.752-.816-1.2-1.712-1.2s-1.472.448-1.712 1.2c-.128.384-.176.912-.176 2.336s.048 1.952.176 2.336c.24.752.816 1.2 1.712 1.2zm6.064 1.744v-10.56c0-.096.064-.16.16-.16h1.92c.112 0 .208.048.272.16l3.84 6.848h.08v-6.848c0-.096.064-.16.16-.16h1.808c.096 0 .16.064.16.16v10.56c0 .096-.064.16-.16.16h-1.904c-.128 0-.208-.048-.272-.16l-3.856-6.832h-.08v6.832c0 .096-.064.16-.16.16h-1.808c-.096 0-.16-.064-.16-.16zm10.4 1.712v-3.632c0-.096.064-.16.16-.16h1.808c.096 0 .16.064.16.16v1.936c0 .144-.048.224-.144.32l-1.584 1.44c-.096.08-.16.112-.24.112-.096 0-.16-.064-.16-.176zm7.088-1.712l3.744-10.56c.032-.096.096-.16.208-.16h2.016c.112 0 .176.064.208.16l3.68 10.56c.032.096 0 .16-.112.16h-2.08c-.112 0-.176-.048-.208-.16l-.624-1.904h-3.808l-.608 1.904c-.032.112-.096.16-.208.16h-2.096c-.112 0-.144-.064-.112-.16zm3.68-3.904h2.512l-1.232-3.808h-.048l-1.232 3.808zM66.096 299h-2.032c-.096 0-.16-.064-.16-.16v-10.56c0-.096.064-.16.16-.16h4.224c2.368 0 3.792 1.424 3.792 3.504 0 2.048-1.44 3.488-3.792 3.488h-1.936c-.064 0-.096.032-.096.096v3.632c0 .096-.064.16-.16.16zm2.048-5.92c.992 0 1.584-.576 1.584-1.456s-.592-1.472-1.584-1.472h-1.792c-.064 0-.096.032-.096.096v2.736c0 .064.032.096.096.096h1.792zM81.872 299H79.6c-.144 0-.192-.048-.24-.16l-1.872-3.984h-1.456c-.064 0-.096.032-.096.096v3.888c0 .096-.064.16-.16.16h-2.032c-.096 0-.16-.064-.16-.16v-10.56c0-.096.064-.16.16-.16h4.336c2.224 0 3.696 1.392 3.696 3.376 0 1.392-.736 2.496-1.936 3.024l2.144 4.288c.048.096 0 .192-.112.192zm-3.92-6.144c.896 0 1.472-.528 1.472-1.36 0-.816-.576-1.344-1.472-1.344h-1.92c-.064 0-.096.032-.096.096v2.512c0 .064.032.096.096.096h1.92zm9.12 3.008c0-1.216.608-2.08 1.296-2.544v-.032c-.512-.368-1.056-1.152-1.056-2.176 0-1.68 1.232-3.168 3.44-3.168s3.44 1.488 3.44 3.168c0 1.024-.544 1.808-1.056 2.176v.032c.688.464 1.296 1.328 1.296 2.544 0 2-1.568 3.312-3.68 3.312s-3.68-1.312-3.68-3.312zm3.68-3.488c.752 0 1.248-.576 1.248-1.264 0-.704-.496-1.28-1.248-1.28s-1.248.576-1.248 1.28c0 .688.496 1.264 1.248 1.264zm-1.472 3.392c0 .896.592 1.52 1.472 1.52s1.472-.624 1.472-1.52c0-.88-.592-1.504-1.472-1.504s-1.472.624-1.472 1.504zm6.88 4.784v-3.632c0-.096.064-.16.16-.16h1.808c.096 0 .16.064.16.16v1.936c0 .144-.048.224-.144.32l-1.584 1.44c-.096.08-.16.112-.24.112-.096 0-.16-.064-.16-.176zm7.904-1.712v-1.488a.3.3 0 0 1 .08-.224l3.824-4.544c.416-.48.64-.944.64-1.504 0-.72-.432-1.248-1.184-1.248-.736 0-1.184.448-1.28 1.28 0 .096-.064.144-.176.128l-1.76-.288c-.096-.016-.144-.096-.128-.192.112-1.504 1.328-2.816 3.424-2.816 2.08 0 3.344 1.344 3.344 3.104 0 1.04-.416 1.856-1.104 2.64l-2.864 3.376v.032h3.808c.096 0 .16.064.16.16v1.584c0 .096-.064.16-.16.16h-6.464c-.096 0-.16-.064-.16-.16zm9.024-1.888c-.16-.48-.24-.976-.24-3.392s.08-2.912.24-3.392c.448-1.392 1.568-2.224 3.28-2.224 1.712 0 2.832.832 3.28 2.224.16.48.24.976.24 3.392s-.08 2.912-.24 3.392c-.448 1.392-1.568 2.224-3.28 2.224-1.712 0-2.832-.832-3.28-2.224zm2.176-.4c.16.496.528.736 1.104.736.56 0 .944-.24 1.104-.736.096-.288.128-.608.128-2.992s-.032-2.704-.128-2.992c-.16-.496-.544-.736-1.104-.736-.576 0-.944.24-1.104.736-.096.288-.128.608-.128 2.992s.032 2.704.128 2.992zm9.424 2.288v-8.192h-.032l-1.728 1.184c-.096.064-.176.032-.176-.096v-1.984a.26.26 0 0 1 .112-.224l1.824-1.312a.447.447 0 0 1 .288-.096h1.792c.096 0 .16.064.16.16v10.56c0 .096-.064.16-.16.16h-1.92c-.096 0-.16-.064-.16-.16zm7.344 0l2.304-4.208-.032-.032c-.112.048-.384.096-.672.096-1.712 0-3.12-1.28-3.12-3.28 0-2.192 1.584-3.472 3.648-3.472 2.08 0 3.648 1.28 3.648 3.424 0 .928-.288 1.76-.8 2.688l-2.64 4.832c-.048.096-.08.112-.192.112h-2.032c-.128 0-.16-.064-.112-.16zm2.128-5.984c.88 0 1.44-.624 1.44-1.52 0-.88-.56-1.504-1.44-1.504-.88 0-1.44.624-1.44 1.504 0 .896.56 1.52 1.44 1.52z" fill="#FFF" fill-rule="nonzero"/></g><g transform="translate(35 404)"><use fill="#000" filter="url(#w)" xlink:href="#x"/><use fill="#4C8CA7" xlink:href="#x"/></g><path d="M125.06 431.8v-13.2c0-.12.08-.2.2-.2h5.06c2.88 0 4.24 1.44 4.24 3.62 0 1.54-.72 2.42-1.58 2.88v.04c.84.32 1.82 1.4 1.82 3.06 0 2.7-1.7 4-4.68 4h-4.86c-.12 0-.2-.08-.2-.2zm2.48-7.74h2.72c1.2 0 1.94-.72 1.94-1.78 0-1.08-.74-1.8-1.94-1.8h-2.72c-.08 0-.12.04-.12.12v3.34c0 .08.04.12.12.12zm-.12 5.74c0 .08.04.12.12.12h2.84c1.32 0 2.06-.76 2.06-1.9 0-1.12-.74-1.88-2.06-1.88h-2.84c-.08 0-.12.04-.12.12v3.54zm13.52 2.42c-1.96 0-3.44-.98-3.98-2.66-.22-.68-.32-1.32-.32-2.38 0-1.06.1-1.7.32-2.38.54-1.68 2.02-2.66 3.98-2.66 1.94 0 3.42.98 3.96 2.66.22.68.32 1.32.32 2.38 0 1.06-.1 1.7-.32 2.38-.54 1.68-2.02 2.66-3.96 2.66zm0-2c.9 0 1.52-.46 1.8-1.26.16-.5.2-.96.2-1.78 0-.82-.04-1.26-.2-1.78-.28-.8-.9-1.26-1.8-1.26s-1.54.46-1.82 1.26c-.16.52-.2.96-.2 1.78 0 .82.04 1.28.2 1.78.28.8.92 1.26 1.82 1.26zm10.46 2c-1.96 0-3.44-.98-3.98-2.66-.22-.68-.32-1.32-.32-2.38 0-1.06.1-1.7.32-2.38.54-1.68 2.02-2.66 3.98-2.66 1.94 0 3.42.98 3.96 2.66.22.68.32 1.32.32 2.38 0 1.06-.1 1.7-.32 2.38-.54 1.68-2.02 2.66-3.96 2.66zm0-2c.9 0 1.52-.46 1.8-1.26.16-.5.2-.96.2-1.78 0-.82-.04-1.26-.2-1.78-.28-.8-.9-1.26-1.8-1.26s-1.54.46-1.82 1.26c-.16.52-.2.96-.2 1.78 0 .82.04 1.28.2 1.78.28.8.92 1.26 1.82 1.26zm15.08 1.78h-2.1c-.14 0-.24-.06-.32-.2l-2.44-4.04-1.3 1.5v2.54c0 .12-.08.2-.2.2h-1.84c-.12 0-.2-.08-.2-.2v-13.2c0-.12.08-.2.2-.2h1.84c.12 0 .2.08.2.2v7.84l3.3-3.88c.12-.14.22-.2.38-.2h2.04c.12 0 .16.12.08.2l-3.06 3.52 3.52 5.72c.06.08.02.2-.1.2zm6.8-.2v-13.2c0-.12.08-.2.2-.2h1.84c.16 0 .26.06.34.2l5.54 9.38h.08v-9.38c0-.12.08-.2.2-.2h1.74c.12 0 .2.08.2.2v13.2c0 .12-.08.2-.2.2h-1.82c-.16 0-.26-.06-.34-.2l-5.56-9.36h-.08v9.36c0 .12-.08.2-.2.2h-1.74c-.12 0-.2-.08-.2-.2zm16.88.42c-1.96 0-3.44-.98-3.98-2.66-.22-.68-.32-1.32-.32-2.38 0-1.06.1-1.7.32-2.38.54-1.68 2.02-2.66 3.98-2.66 1.94 0 3.42.98 3.96 2.66.22.68.32 1.32.32 2.38 0 1.06-.1 1.7-.32 2.38-.54 1.68-2.02 2.66-3.96 2.66zm0-2c.9 0 1.52-.46 1.8-1.26.16-.5.2-.96.2-1.78 0-.82-.04-1.26-.2-1.78-.28-.8-.9-1.26-1.8-1.26s-1.54.46-1.82 1.26c-.16.52-.2.96-.2 1.78 0 .82.04 1.28.2 1.78.28.8.92 1.26 1.82 1.26zm16.52 1.78h-1.64c-.12 0-.2-.08-.24-.2l-1.86-6.16h-.04l-1.88 6.16c-.04.12-.12.2-.24.2h-1.64c-.12 0-.2-.08-.24-.2l-3.04-9.24c-.04-.12.02-.2.14-.2h1.92c.14 0 .22.06.26.2l1.86 6.36h.04l1.84-6.36c.04-.12.14-.2.26-.2h1.44c.12 0 .22.08.26.2l1.96 6.36h.04l1.76-6.36c.04-.14.12-.2.26-.2h1.92c.12 0 .18.08.14.2l-3.04 9.24c-.04.12-.12.2-.24.2z" fill="#F7F7F7" fill-rule="nonzero"/></g></svg>