<svg width="331" height="431" xmlns="http://www.w3.org/2000/svg" xmlns:xlink="http://www.w3.org/1999/xlink"><defs><rect id="a" x="0" y="0" width="313" height="47" rx="4"/><filter x="-1%" y="-6.4%" width="101.9%" height="112.8%" filterUnits="objectBoundingBox" id="b"><feOffset in="SourceAlpha" result="shadowOffsetOuter1"/><feGaussianBlur stdDeviation="1" in="shadowOffsetOuter1" result="shadowBlurOuter1"/><feColorMatrix values="0 0 0 0 0 0 0 0 0 0 0 0 0 0 0 0 0 0 0.257048234 0" in="shadowBlurOuter1"/></filter><path id="d" d="M7.063 0L8 .75l-4 3.2-4-3.2L.938 0 4 2.45z"/><path id="g" d="M0 63h151v21H0z"/><filter x="-4%" y="-28.6%" width="107.9%" height="157.1%" filterUnits="objectBoundingBox" id="f"><feOffset in="SourceAlpha" result="shadowOffsetOuter1"/><feGaussianBlur stdDeviation="2" in="shadowOffsetOuter1" result="shadowBlurOuter1"/><feComposite in="shadowBlurOuter1" in2="SourceAlpha" operator="out" result="shadowBlurOuter1"/><feColorMatrix values="0 0 0 0 0 0 0 0 0 0 0 0 0 0 0 0 0 0 0.253000453 0" in="shadowBlurOuter1"/></filter><rect id="h" x="0" y="0" width="313" height="65" rx="4"/><filter x="-2.2%" y="-7.7%" width="104.5%" height="121.5%" filterUnits="objectBoundingBox" id="i"><feOffset dy="2" in="SourceAlpha" result="shadowOffsetOuter1"/><feGaussianBlur stdDeviation="2" in="shadowOffsetOuter1" result="shadowBlurOuter1"/><feColorMatrix values="0 0 0 0 0 0 0 0 0 0 0 0 0 0 0 0 0 0 0.245103034 0" in="shadowBlurOuter1"/></filter><path d="M16.334 18.46l1.436-1.435c.087-.087.13-.218.087-.305L16.03 7.712c-.043-.13 0-.217.087-.304l4.091-4.091a1.786 1.786 0 0 0 0-2.524 1.786 1.786 0 0 0-2.524 0l-4.221 4.221c-.087.087-.174.13-.305.087L4.02 3.404c-.13 0-.218 0-.305.087l-1.48 1.523c-.173.174-.13.479.088.566L9.24 8.626c.217.087.261.392.087.566l-4.482 4.482c-.087.087-.218.13-.305.087l-2.959-.61c-.13-.043-.218 0-.305.088l-.87.87c-.174.174-.13.435.087.566l2.96 1.436c0 .043.043.043.086.087l1.262 1.262c.044.043.044.043.044.087l1.523 3.002c.087.218.391.262.565.087l.74-.74c.087-.086.13-.217.087-.304l-.609-3.003c-.043-.13 0-.217.087-.304l4.743-4.743c.174-.175.436-.131.566.087l3.264 6.745c.087.217.348.26.522.087z" id="k"/><rect id="l" x="0" y="0" width="313" height="65" rx="4"/><filter x="-2.2%" y="-7.7%" width="104.5%" height="121.5%" filterUnits="objectBoundingBox" id="m"><feOffset dy="2" in="SourceAlpha" result="shadowOffsetOuter1"/><feGaussianBlur stdDeviation="2" in="shadowOffsetOuter1" result="shadowBlurOuter1"/><feColorMatrix values="0 0 0 0 0 0 0 0 0 0 0 0 0 0 0 0 0 0 0.245103034 0" in="shadowBlurOuter1"/></filter><path d="M16.334 18.46l1.436-1.435c.087-.087.13-.218.087-.305L16.03 7.712c-.043-.13 0-.217.087-.304l4.091-4.091a1.786 1.786 0 0 0 0-2.524 1.786 1.786 0 0 0-2.524 0l-4.221 4.221c-.087.087-.174.13-.305.087L4.02 3.404c-.13 0-.218 0-.305.087l-1.48 1.523c-.173.174-.13.479.088.566L9.24 8.626c.217.087.261.392.087.566l-4.482 4.482c-.087.087-.218.13-.305.087l-2.959-.61c-.13-.043-.218 0-.305.088l-.87.87c-.174.174-.13.435.087.566l2.96 1.436c0 .043.043.043.086.087l1.262 1.262c.044.043.044.043.044.087l1.523 3.002c.087.218.391.262.565.087l.74-.74c.087-.086.13-.217.087-.304l-.609-3.003c-.043-.13 0-.217.087-.304l4.743-4.743c.174-.175.436-.131.566.087l3.264 6.745c.087.217.348.26.522.087z" id="o"/><rect id="p" x="0" y="0" width="313" height="92" rx="4"/><filter x="-2.2%" y="-5.4%" width="104.5%" height="115.2%" filterUnits="objectBoundingBox" id="q"><feOffset dy="2" in="SourceAlpha" result="shadowOffsetOuter1"/><feGaussianBlur stdDeviation="2" in="shadowOffsetOuter1" result="shadowBlurOuter1"/><feColorMatrix values="0 0 0 0 0 0 0 0 0 0 0 0 0 0 0 0 0 0 0.245103034 0" in="shadowBlurOuter1"/></filter><path id="t" d="M0 244h151v21H0z"/><filter x="-4%" y="-28.6%" width="107.9%" height="157.1%" filterUnits="objectBoundingBox" id="s"><feOffset in="SourceAlpha" result="shadowOffsetOuter1"/><feGaussianBlur stdDeviation="2" in="shadowOffsetOuter1" result="shadowBlurOuter1"/><feComposite in="shadowBlurOuter1" in2="SourceAlpha" operator="out" result="shadowBlurOuter1"/><feColorMatrix values="0 0 0 0 0 0 0 0 0 0 0 0 0 0 0 0 0 0 0.253000453 0" in="shadowBlurOuter1"/></filter></defs><g fill="none" fill-rule="evenodd"><path d="M37 383.492A2.498 2.498 0 0 1 39.507 381h258.986a2.496 2.496 0 0 1 2.507 2.492v39.016a2.498 2.498 0 0 1-2.507 2.492H39.507A2.496 2.496 0 0 1 37 422.508v-39.016z" fill="#E57A7C"/><path d="M127.06 408.8v-13.2c0-.12.08-.2.2-.2h5.06c2.88 0 4.24 1.44 4.24 3.62 0 1.54-.72 2.42-1.58 2.88v.04c.84.32 1.82 1.4 1.82 3.06 0 2.7-1.7 4-4.68 4h-4.86c-.12 0-.2-.08-.2-.2zm2.48-7.74h2.72c1.2 0 1.94-.72 1.94-1.78 0-1.08-.74-1.8-1.94-1.8h-2.72c-.08 0-.12.04-.12.12v3.34c0 .08.04.12.12.12zm-.12 5.74c0 .08.04.12.12.12h2.84c1.32 0 2.06-.76 2.06-1.9 0-1.12-.74-1.88-2.06-1.88h-2.84c-.08 0-.12.04-.12.12v3.54zm13.52 2.42c-1.96 0-3.44-.98-3.98-2.66-.22-.68-.32-1.32-.32-2.38 0-1.06.1-1.7.32-2.38.54-1.68 2.02-2.66 3.98-2.66 1.94 0 3.42.98 3.96 2.66.22.68.32 1.32.32 2.38 0 1.06-.1 1.7-.32 2.38-.54 1.68-2.02 2.66-3.96 2.66zm0-2c.9 0 1.52-.46 1.8-1.26.16-.5.2-.96.2-1.78 0-.82-.04-1.26-.2-1.78-.28-.8-.9-1.26-1.8-1.26s-1.54.46-1.82 1.26c-.16.52-.2.96-.2 1.78 0 .82.04 1.28.2 1.78.28.8.92 1.26 1.82 1.26zm10.46 2c-1.96 0-3.44-.98-3.98-2.66-.22-.68-.32-1.32-.32-2.38 0-1.06.1-1.7.32-2.38.54-1.68 2.02-2.66 3.98-2.66 1.94 0 3.42.98 3.96 2.66.22.68.32 1.32.32 2.38 0 1.06-.1 1.7-.32 2.38-.54 1.68-2.02 2.66-3.96 2.66zm0-2c.9 0 1.52-.46 1.8-1.26.16-.5.2-.96.2-1.78 0-.82-.04-1.26-.2-1.78-.28-.8-.9-1.26-1.8-1.26s-1.54.46-1.82 1.26c-.16.52-.2.96-.2 1.78 0 .82.04 1.28.2 1.78.28.8.92 1.26 1.82 1.26zm15.08 1.78h-2.1c-.14 0-.24-.06-.32-.2l-2.44-4.04-1.3 1.5v2.54c0 .12-.08.2-.2.2h-1.84c-.12 0-.2-.08-.2-.2v-13.2c0-.12.08-.2.2-.2h1.84c.12 0 .2.08.2.2v7.84l3.3-3.88c.12-.14.22-.2.38-.2h2.04c.12 0 .16.12.08.2l-3.06 3.52 3.52 5.72c.06.08.02.2-.1.2zm6.8-.2v-13.2c0-.12.08-.2.2-.2h1.84c.16 0 .26.06.34.2l5.54 9.38h.08v-9.38c0-.12.08-.2.2-.2h1.74c.12 0 .2.08.2.2v13.2c0 .12-.08.2-.2.2h-1.82c-.16 0-.26-.06-.34-.2l-5.56-9.36h-.08v9.36c0 .12-.08.2-.2.2h-1.74c-.12 0-.2-.08-.2-.2zm16.88.42c-1.96 0-3.44-.98-3.98-2.66-.22-.68-.32-1.32-.32-2.38 0-1.06.1-1.7.32-2.38.54-1.68 2.02-2.66 3.98-2.66 1.94 0 3.42.98 3.96 2.66.22.68.32 1.32.32 2.38 0 1.06-.1 1.7-.32 2.38-.54 1.68-2.02 2.66-3.96 2.66zm0-2c.9 0 1.52-.46 1.8-1.26.16-.5.2-.96.2-1.78 0-.82-.04-1.26-.2-1.78-.28-.8-.9-1.26-1.8-1.26s-1.54.46-1.82 1.26c-.16.52-.2.96-.2 1.78 0 .82.04 1.28.2 1.78.28.8.92 1.26 1.82 1.26zm16.52 1.78h-1.64c-.12 0-.2-.08-.24-.2l-1.86-6.16h-.04l-1.88 6.16c-.04.12-.12.2-.24.2h-1.64c-.12 0-.2-.08-.24-.2l-3.04-9.24c-.04-.12.02-.2.14-.2h1.92c.14 0 .22.06.26.2l1.86 6.36h.04l1.84-6.36c.04-.12.14-.2.26-.2h1.44c.12 0 .22.08.26.2l1.96 6.36h.04l1.76-6.36c.04-.14.12-.2.26-.2h1.92c.12 0 .18.08.14.2l-3.04 9.24c-.04.12-.12.2-.24.2z" fill="#F7F7F7" fill-rule="nonzero"/><g transform="translate(10 3)"><mask id="c" fill="#fff"><use xlink:href="#a"/></mask><use fill="#000" filter="url(#b)" xlink:href="#a"/><use fill="#FFF" xlink:href="#a"/><path fill="#7ED321" mask="url(#c)" d="M0-2h313v4H0z"/><path d="M242.03 19h-.69c-.06 0-.1-.04-.1-.1v-5.81c0-.04-.02-.06-.06-.06h-1.86c-.06 0-.1-.04-.1-.1v-.63c0-.06.04-.1.1-.1h4.73c.06 0 .1.04.1.1v.63c0 .06-.04.1-.1.1h-1.86c-.04 0-.06.02-.06.06v5.81c0 .06-.04.1-.1.1zm5.19.11c-1.14 0-1.96-.54-2.31-1.59-.13-.39-.18-.8-.18-1.92 0-1.12.05-1.53.18-1.92.35-1.05 1.17-1.59 2.31-1.59 1.15 0 1.97.54 2.32 1.59.13.39.18.8.18 1.92 0 1.12-.05 1.53-.18 1.92-.35 1.05-1.17 1.59-2.32 1.59zm0-.83c.76 0 1.24-.36 1.45-1.01.08-.25.15-.69.15-1.67s-.07-1.42-.15-1.67c-.21-.65-.69-1.01-1.45-1.01-.75 0-1.23.36-1.44 1.01-.08.25-.15.69-.15 1.67s.07 1.42.15 1.67c.21.65.69 1.01 1.44 1.01zm5.89.72h-.69c-.06 0-.1-.04-.1-.1v-5.81c0-.04-.02-.06-.06-.06h-1.86c-.06 0-.1-.04-.1-.1v-.63c0-.06.04-.1.1-.1h4.73c.06 0 .1.04.1.1v.63c0 .06-.04.1-.1.1h-1.86c-.04 0-.06.02-.06.06v5.81c0 .06-.04.1-.1.1zm1.86-.1l2.36-6.6c.02-.06.05-.1.12-.1h.65c.07 0 .11.04.13.1l2.33 6.6c.02.06-.01.1-.07.1h-.7c-.07 0-.11-.03-.13-.1l-.52-1.48h-2.75l-.52 1.48c-.03.07-.07.1-.13.1h-.7c-.06 0-.09-.04-.07-.1zm1.71-2.3h2.17l-1.07-3.09h-.02l-1.08 3.09zm4.96 2.3v-6.6c0-.06.04-.1.1-.1h.69c.06 0 .1.04.1.1v5.81c0 .04.02.06.06.06h3.24c.06 0 .1.04.1.1v.63c0 .06-.04.1-.1.1h-4.09c-.06 0-.1-.04-.1-.1zm-21.536 15.124c-.08-.064-.096-.16-.032-.24l.848-1.072c.064-.08.16-.08.224-.016.464.384 1.2.784 2.048.864v-3.28c-1.824-.304-2.928-1.44-2.928-3.072 0-1.776 1.216-3.056 2.928-3.232v-.832c0-.096.064-.16.16-.16h.624c.096 0 .16.064.16.16v.832c.928.08 1.776.4 2.448.848.08.064.096.128.032.224l-.736 1.088c-.064.08-.144.08-.224.032a3.994 3.994 0 0 0-1.52-.576v3.12c1.936.32 2.944 1.44 2.944 3.088 0 1.808-1.12 3.072-2.944 3.328v.848c0 .096-.064.16-.16.16h-.624c-.096 0-.16-.064-.16-.16v-.816a5.258 5.258 0 0 1-3.088-1.136zm3.088-5.504v-2.928c-.72.144-1.184.72-1.184 1.488 0 .672.272 1.184 1.184 1.44zm.944 4.992c.784-.192 1.2-.752 1.2-1.648 0-.608-.288-1.136-1.2-1.408v3.056zm4.368-.672c-.016-.096.032-.176.128-.208l1.392-.32c.08-.016.16.016.192.112.224.64.752 1.152 1.648 1.152 1.008 0 1.6-.688 1.6-1.616 0-1.104-.704-1.776-1.776-1.776h-.464c-.096 0-.16-.064-.16-.16V28.76c0-.096.064-.16.16-.16h.432c.96 0 1.584-.624 1.584-1.584 0-.864-.544-1.472-1.456-1.472-.8 0-1.264.448-1.456 1.12-.032.096-.096.128-.192.112l-1.36-.32c-.096-.016-.144-.096-.128-.192.24-1.312 1.44-2.32 3.2-2.32 2.032 0 3.2 1.248 3.2 3.008 0 .912-.416 1.728-1.216 2.256v.032c.64.272 1.44 1.216 1.44 2.64 0 1.984-1.456 3.296-3.408 3.296-1.696 0-3.024-.848-3.36-2.336zm8.464 3.776v-3.408c0-.096.064-.16.16-.16h1.504c.096 0 .16.064.16.16v1.744c0 .16-.016.24-.112.336l-1.328 1.376c-.08.08-.144.112-.224.112-.096 0-.16-.064-.16-.16zm6.432-1.776v-8.576h-.032l-1.664 1.168c-.096.064-.176.032-.176-.096v-1.632a.26.26 0 0 1 .112-.224l1.744-1.264a.418.418 0 0 1 .288-.096h1.36c.096 0 .16.064.16.16v10.56c0 .096-.064.16-.16.16h-1.472c-.096 0-.16-.064-.16-.16zm8.384 0v-8.576h-.032l-1.664 1.168c-.096.064-.176.032-.176-.096v-1.632a.26.26 0 0 1 .112-.224l1.744-1.264a.418.418 0 0 1 .288-.096h1.36c.096 0 .16.064.16.16v10.56c0 .096-.064.16-.16.16h-1.472c-.096 0-.16-.064-.16-.16zm6.656-.016l3.552-9.056v-.048h-2.704c-.064 0-.096.032-.096.096v1.248c0 .096-.064.16-.16.16h-1.376c-.096 0-.16-.064-.16-.16V24.28c0-.096.064-.16.16-.16h6.096c.096 0 .16.064.16.16v1.248a.72.72 0 0 1-.048.288l-3.6 9.04c-.048.112-.08.144-.208.144h-1.52c-.096 0-.144-.064-.096-.176zm7.216.016v-1.632c0-.096.064-.16.16-.16h1.6c.096 0 .16.064.16.16v1.632c0 .096-.064.16-.16.16h-1.6c-.096 0-.16-.064-.16-.16zm3.872-1.792c-.144-.448-.224-.96-.224-3.488s.08-3.04.224-3.488c.432-1.36 1.472-2.128 3.088-2.128s2.656.768 3.104 2.128c.144.448.224.96.224 3.488s-.08 3.04-.224 3.488c-.448 1.36-1.488 2.128-3.104 2.128s-2.656-.768-3.088-2.128zm1.76-.336c.208.576.656.864 1.328.864s1.136-.288 1.344-.864c.112-.336.144-.704.144-3.152 0-2.448-.032-2.816-.144-3.152-.208-.576-.672-.864-1.344-.864s-1.12.288-1.328.864c-.112.336-.144.704-.144 3.152 0 2.448.032 2.816.144 3.152zm6.624.224c-.016-.08.032-.16.128-.192l1.36-.336c.096-.016.16.032.192.128.208.608.704 1.04 1.504 1.04.624 0 1.152-.32 1.344-.896.112-.288.144-.64.144-1.2 0-.592-.048-.928-.144-1.2-.208-.64-.736-.896-1.36-.896-.72 0-1.152.384-1.328.752-.048.112-.08.16-.192.16h-1.344c-.096 0-.16-.064-.16-.16V24.28c0-.096.064-.16.16-.16h5.792c.096 0 .16.064.16.16v1.28c0 .096-.064.16-.16.16H299.8c-.064 0-.096.032-.096.096v2.448h.048c.256-.208.816-.48 1.6-.48 1.392 0 2.416.656 2.8 1.84.144.464.24.976.24 1.856 0 .72-.08 1.28-.224 1.712-.416 1.264-1.632 1.984-3.072 1.984-1.68 0-2.944-.896-3.184-2.24z" fill="#575757" fill-rule="nonzero"/><path d="M111 30h10v10h-10z"/><g transform="translate(112 33)"><mask id="e" fill="#fff"><use xlink:href="#d"/></mask><use fill="#333" xlink:href="#d"/><g mask="url(#e)" fill="#333"><path d="M-32-27.2h72v57.6h-72z"/></g></g><path d="M32.427 32.231c-3.035-1.333-6.406-2.99-6.689-4.02v-1.083c.63-.732 1.127-1.753 1.42-2.95.707-.563.883-1.725.298-2.542v-2.424c0-2.5-1.226-4.212-4.027-4.212-2.73 0-4.028 1.712-4.028 4.212v2.425c-.585.816-.408 1.978.297 2.542.294 1.196.791 2.217 1.42 2.95v1.081c-.281 1.03-3.652 2.687-6.688 4.021-.259.115-.43.4-.43.72v2.707c0 .425.3.77.668.77h17.521c.369 0 .668-.345.668-.77v-2.707c0-.32-.171-.606-.43-.72z" fill="#595959"/><rect class="itinerary-mock-text" fill="#D8D8D8" x="47" y="12" width="101" height="6" rx="3"/><rect class="itinerary-mock-text" fill="#D8D8D8" x="47" y="29" width="60" height="6" rx="3"/></g><g class="itinerary-date"><path d="M162 77.199h163" stroke="#979797" opacity=".2" stroke-linecap="square" stroke-dasharray="2,4"/><g transform="translate(6 3)"><use fill="#000" filter="url(#f)" xlink:href="#g"/><use fill-opacity=".6" fill="#333" xlink:href="#g"/></g><path d="M18.704 82.176c-1.696 0-3.344-.672-4.192-1.488-.064-.064-.096-.176-.016-.272l1.216-1.392c.064-.08.16-.08.24-.016.72.576 1.696 1.12 2.848 1.12 1.136 0 1.776-.528 1.776-1.296 0-.64-.384-1.04-1.68-1.216l-.576-.08c-2.208-.304-3.44-1.344-3.44-3.264 0-2 1.504-3.328 3.856-3.328 1.44 0 2.784.432 3.696 1.136.096.064.112.128.032.24l-.976 1.456c-.064.08-.144.096-.224.048-.832-.544-1.632-.832-2.528-.832-.96 0-1.456.496-1.456 1.184 0 .624.448 1.024 1.696 1.2l.576.08c2.24.304 3.424 1.328 3.424 3.296 0 1.968-1.456 3.424-4.272 3.424zm9.984 0c-2.448 0-4.176-1.472-4.176-4.176v-6.72c0-.096.064-.16.16-.16h2.032c.096 0 .16.064.16.16v6.784c0 1.296.72 2.032 1.824 2.032 1.088 0 1.808-.736 1.808-2.032V71.28c0-.096.064-.16.16-.16h2.032c.096 0 .16.064.16.16V78c0 2.704-1.728 4.176-4.16 4.176zm6.192-.336V71.28c0-.096.064-.16.16-.16h1.92c.112 0 .208.048.272.16l3.84 6.848h.08V71.28c0-.096.064-.16.16-.16h1.808c.096 0 .16.064.16.16v10.56c0 .096-.064.16-.16.16h-1.904c-.128 0-.208-.048-.272-.16l-3.856-6.832h-.08v6.832c0 .096-.064.16-.16.16H35.04c-.096 0-.16-.064-.16-.16zm10.4 1.712V79.92c0-.096.064-.16.16-.16h1.808c.096 0 .16.064.16.16v1.936c0 .144-.048.224-.144.32l-1.584 1.44c-.096.08-.16.112-.24.112-.096 0-.16-.064-.16-.176zm7.2-2.768c-.048-.08-.048-.16.016-.224l1.488-1.136c.064-.048.144-.048.224.032.272.32.752.64 1.328.64 1.024 0 1.6-.656 1.6-1.888V71.28c0-.096.064-.16.16-.16h2.032c.096 0 .16.064.16.16v6.816c0 2.672-1.488 4.08-3.968 4.08-1.328 0-2.528-.592-3.04-1.392zm8.224 1.056l3.744-10.56c.032-.096.096-.16.208-.16h2.016c.112 0 .176.064.208.16l3.68 10.56c.032.096 0 .16-.112.16h-2.08c-.112 0-.176-.048-.208-.16l-.624-1.904h-3.808l-.608 1.904c-.032.112-.096.16-.208.16h-2.096c-.112 0-.144-.064-.112-.16zm3.68-3.904h2.512l-1.232-3.808h-.048l-1.232 3.808zm7.44 3.904V71.28c0-.096.064-.16.16-.16h1.92c.112 0 .208.048.272.16l3.84 6.848h.08V71.28c0-.096.064-.16.16-.16h1.808c.096 0 .16.064.16.16v10.56c0 .096-.064.16-.16.16H78.16c-.128 0-.208-.048-.272-.16l-3.856-6.832h-.08v6.832c0 .096-.064.16-.16.16h-1.808c-.096 0-.16-.064-.16-.16zm15.344-.016l3.456-8.704v-.048h-2.288c-.064 0-.096.032-.096.096v1.136c0 .096-.064.16-.16.16h-1.776c-.096 0-.16-.064-.16-.16V71.28c0-.096.064-.16.16-.16h6.512c.096 0 .16.064.16.16v1.664c0 .08-.016.144-.032.192l-3.456 8.72c-.048.112-.112.144-.224.144h-2c-.096 0-.144-.064-.096-.176zm7.728 1.728V79.92c0-.096.064-.16.16-.16h1.808c.096 0 .16.064.16.16v1.936c0 .144-.048.224-.144.32l-1.584 1.44c-.096.08-.16.112-.24.112-.096 0-.16-.064-.16-.176zm7.904-1.712v-1.488a.3.3 0 0 1 .08-.224l3.824-4.544c.416-.48.64-.944.64-1.504 0-.72-.432-1.248-1.184-1.248-.736 0-1.184.448-1.28 1.28 0 .096-.064.144-.176.128l-1.76-.288c-.096-.016-.144-.096-.128-.192.112-1.504 1.328-2.816 3.424-2.816 2.08 0 3.344 1.344 3.344 3.104 0 1.04-.416 1.856-1.104 2.64l-2.864 3.376v.032h3.808c.096 0 .16.064.16.16v1.584c0 .096-.064.16-.16.16h-6.464c-.096 0-.16-.064-.16-.16zm9.024-1.888c-.16-.48-.24-.976-.24-3.392s.08-2.912.24-3.392c.448-1.392 1.568-2.224 3.28-2.224 1.712 0 2.832.832 3.28 2.224.16.48.24.976.24 3.392s-.08 2.912-.24 3.392c-.448 1.392-1.568 2.224-3.28 2.224-1.712 0-2.832-.832-3.28-2.224zm2.176-.4c.16.496.528.736 1.104.736.56 0 .944-.24 1.104-.736.096-.288.128-.608.128-2.992s-.032-2.704-.128-2.992c-.16-.496-.544-.736-1.104-.736-.576 0-.944.24-1.104.736-.096.288-.128.608-.128 2.992s.032 2.704.128 2.992zm9.424 2.288v-8.192h-.032l-1.728 1.184c-.096.064-.176.032-.176-.096v-1.984a.26.26 0 0 1 .112-.224l1.824-1.312a.447.447 0 0 1 .288-.096h1.792c.096 0 .16.064.16.16v10.56c0 .096-.064.16-.16.16h-1.92c-.096 0-.16-.064-.16-.16zm5.792-2.976c0-1.216.608-2.08 1.296-2.544v-.032c-.512-.368-1.056-1.152-1.056-2.176 0-1.68 1.232-3.168 3.44-3.168s3.44 1.488 3.44 3.168c0 1.024-.544 1.808-1.056 2.176v.032c.688.464 1.296 1.328 1.296 2.544 0 2-1.568 3.312-3.68 3.312s-3.68-1.312-3.68-3.312zm3.68-3.488c.752 0 1.248-.576 1.248-1.264 0-.704-.496-1.28-1.248-1.28s-1.248.576-1.248 1.28c0 .688.496 1.264 1.248 1.264zm-1.472 3.392c0 .896.592 1.52 1.472 1.52s1.472-.624 1.472-1.52c0-.88-.592-1.504-1.472-1.504s-1.472.624-1.472 1.504z" fill="#FFF" fill-rule="nonzero"/></g><g transform="translate(12 99)"><mask id="j" fill="#fff"><use xlink:href="#h"/></mask><use fill="#000" filter="url(#i)" xlink:href="#h"/><use fill="#FFF" xlink:href="#h"/><path fill="#7ED321" mask="url(#j)" d="M0-2h313v4H0z"/><use fill="#CCC" xlink:href="#k" transform="translate(11 13)"/><rect class="itinerary-mock-text" fill="#666" x="45" y="10" width="34" height="4" rx="2"/><rect class="itinerary-mock-text" fill="#666" x="45" y="37" width="55" height="4" rx="2"/><rect class="itinerary-mock-text" fill="#CCC" x="45" y="22" width="42" height="4" rx="2"/><rect class="itinerary-mock-text" fill="#CCC" x="45" y="49" width="63" height="4" rx="2"/><rect class="itinerary-mock-text" fill="#666" x="125" y="10" width="34" height="4" rx="2"/><rect class="itinerary-mock-text" fill="#666" x="274" y="25" width="34" height="4" rx="2"/><rect class="itinerary-mock-text" fill="#666" x="125" y="37" width="47" height="4" rx="2"/><rect class="itinerary-mock-text" fill="#CCC" x="125" y="22" width="34" height="4" rx="2"/><rect class="itinerary-mock-text" fill="#CCC" x="211" y="10" width="97" height="4" rx="2"/></g><g transform="translate(12 279)"><mask id="n" fill="#fff"><use xlink:href="#l"/></mask><use fill="#000" filter="url(#m)" xlink:href="#l"/><use fill="#FFF" xlink:href="#l"/><path fill="#7ED321" mask="url(#n)" d="M0-2h313v4H0z"/><use fill="#CCC" xlink:href="#o" transform="translate(11 13)"/><rect class="itinerary-mock-text" fill="#666" x="45" y="10" width="34" height="4" rx="2"/><rect class="itinerary-mock-text" fill="#666" x="45" y="37" width="55" height="4" rx="2"/><rect class="itinerary-mock-text" fill="#CCC" x="45" y="22" width="42" height="4" rx="2"/><rect class="itinerary-mock-text" fill="#CCC" x="45" y="49" width="63" height="4" rx="2"/><rect class="itinerary-mock-text" fill="#666" x="125" y="10" width="34" height="4" rx="2"/><rect class="itinerary-mock-text" fill="#666" x="274" y="25" width="34" height="4" rx="2"/><rect class="itinerary-mock-text" fill="#666" x="125" y="37" width="47" height="4" rx="2"/><rect class="itinerary-mock-text" fill="#CCC" x="125" y="22" width="34" height="4" rx="2"/><rect class="itinerary-mock-text" fill="#CCC" x="211" y="10" width="97" height="4" rx="2"/></g><g transform="translate(12 176)"><mask id="r" fill="#fff"><use xlink:href="#p"/></mask><use fill="#000" filter="url(#q)" xlink:href="#p"/><use fill="#FFF" xlink:href="#p"/><path fill="#7ED321" mask="url(#r)" d="M0-2h313v4H0z"/><g transform="translate(8 16)" fill="#CCC"><path d="M1.35 9.882V0H0v14.588h1.35v-3.294h21.176v3.294H24V9.882h-1.474z"/><circle cx="4.235" cy="5.176" r="1.882"/><path d="M2.353 8.941H8V3.765H6.588v3.764H2.353zm6.588-5.176h14.118v5.176H8.941z"/></g><rect class="itinerary-mock-text" fill="#666" x="45" y="15" width="126" height="4" rx="2"/><rect class="itinerary-mock-text" fill="#CCC" x="45" y="29" width="149" height="4" rx="2"/><rect class="itinerary-mock-text" fill="#CCC" x="45" y="43" width="149" height="4" rx="2"/><rect class="itinerary-mock-text" fill="#666" x="45" y="56" width="48" height="4" rx="2"/><rect class="itinerary-mock-text" fill="#666" x="124" y="56" width="48" height="4" rx="2"/><rect class="itinerary-mock-text" fill="#666" x="274" y="55" width="34" height="4" rx="2"/><rect class="itinerary-mock-text" fill="#CCC" x="211" y="14.5" width="97" height="4" rx="2"/></g><g class="itinerary-date"><g transform="translate(6 3)"><use fill="#000" filter="url(#s)" xlink:href="#t"/><use fill-opacity=".6" fill="#333" xlink:href="#t"/></g><path d="M19.472 263H17.44c-.096 0-.16-.064-.16-.16v-8.528c0-.064-.032-.096-.096-.096h-2.752c-.096 0-.16-.064-.16-.16v-1.776c0-.096.064-.16.16-.16h8.048c.096 0 .16.064.16.16v1.776c0 .096-.064.16-.16.16h-2.752c-.064 0-.096.032-.096.096v8.528c0 .096-.064.16-.16.16zm8.608.176c-2.448 0-4.176-1.472-4.176-4.176v-6.72c0-.096.064-.16.16-.16h2.032c.096 0 .16.064.16.16v6.784c0 1.296.72 2.032 1.824 2.032 1.088 0 1.808-.736 1.808-2.032v-6.784c0-.096.064-.16.16-.16h2.032c.096 0 .16.064.16.16V259c0 2.704-1.728 4.176-4.16 4.176zm6.192-.336v-10.56c0-.096.064-.16.16-.16h6.976c.096 0 .16.064.16.16v1.712c0 .096-.064.16-.16.16H36.72c-.064 0-.096.032-.096.096v2.16c0 .064.032.096.096.096h3.904c.096 0 .16.064.16.16v1.696c0 .096-.064.16-.16.16H36.72c-.064 0-.096.032-.096.096v2.256c0 .064.032.096.096.096h4.688c.096 0 .16.064.16.16v1.712c0 .096-.064.16-.16.16h-6.976c-.096 0-.16-.064-.16-.16zm8.96 1.712v-3.632c0-.096.064-.16.16-.16H45.2c.096 0 .16.064.16.16v1.936c0 .144-.048.224-.144.32l-1.584 1.44c-.096.08-.16.112-.24.112-.096 0-.16-.064-.16-.176zm7.2-2.768c-.048-.08-.048-.16.016-.224l1.488-1.136c.064-.048.144-.048.224.032.272.32.752.64 1.328.64 1.024 0 1.6-.656 1.6-1.888v-6.928c0-.096.064-.16.16-.16h2.032c.096 0 .16.064.16.16v6.816c0 2.672-1.488 4.08-3.968 4.08-1.328 0-2.528-.592-3.04-1.392zm8.224 1.056l3.744-10.56c.032-.096.096-.16.208-.16h2.016c.112 0 .176.064.208.16l3.68 10.56c.032.096 0 .16-.112.16h-2.08c-.112 0-.176-.048-.208-.16l-.624-1.904H61.68l-.608 1.904c-.032.112-.096.16-.208.16h-2.096c-.112 0-.144-.064-.112-.16zm3.68-3.904h2.512l-1.232-3.808h-.048l-1.232 3.808zm7.44 3.904v-10.56c0-.096.064-.16.16-.16h1.92c.112 0 .208.048.272.16l3.84 6.848h.08v-6.848c0-.096.064-.16.16-.16h1.808c.096 0 .16.064.16.16v10.56c0 .096-.064.16-.16.16h-1.904c-.128 0-.208-.048-.272-.16l-3.856-6.832h-.08v6.832c0 .096-.064.16-.16.16h-1.808c-.096 0-.16-.064-.16-.16zm15.536 0l2.304-4.208-.032-.032c-.112.048-.384.096-.672.096-1.712 0-3.12-1.28-3.12-3.28 0-2.192 1.584-3.472 3.648-3.472 2.08 0 3.648 1.28 3.648 3.424 0 .928-.288 1.76-.8 2.688l-2.64 4.832c-.048.096-.08.112-.192.112h-2.032c-.128 0-.16-.064-.112-.16zm2.128-5.984c.88 0 1.44-.624 1.44-1.52 0-.88-.56-1.504-1.44-1.504-.88 0-1.44.624-1.44 1.504 0 .896.56 1.52 1.44 1.52zm5.408 7.696v-3.632c0-.096.064-.16.16-.16h1.808c.096 0 .16.064.16.16v1.936c0 .144-.048.224-.144.32l-1.584 1.44c-.096.08-.16.112-.24.112-.096 0-.16-.064-.16-.176zm7.904-1.712v-1.488a.3.3 0 0 1 .08-.224l3.824-4.544c.416-.48.64-.944.64-1.504 0-.72-.432-1.248-1.184-1.248-.736 0-1.184.448-1.28 1.28 0 .096-.064.144-.176.128l-1.76-.288c-.096-.016-.144-.096-.128-.192.112-1.504 1.328-2.816 3.424-2.816 2.08 0 3.344 1.344 3.344 3.104 0 1.04-.416 1.856-1.104 2.64l-2.864 3.376v.032h3.808c.096 0 .16.064.16.16v1.584c0 .096-.064.16-.16.16h-6.464c-.096 0-.16-.064-.16-.16zm9.024-1.888c-.16-.48-.24-.976-.24-3.392s.08-2.912.24-3.392c.448-1.392 1.568-2.224 3.28-2.224 1.712 0 2.832.832 3.28 2.224.16.48.24.976.24 3.392s-.08 2.912-.24 3.392c-.448 1.392-1.568 2.224-3.28 2.224-1.712 0-2.832-.832-3.28-2.224zm2.176-.4c.16.496.528.736 1.104.736.56 0 .944-.24 1.104-.736.096-.288.128-.608.128-2.992s-.032-2.704-.128-2.992c-.16-.496-.544-.736-1.104-.736-.576 0-.944.24-1.104.736-.096.288-.128.608-.128 2.992s.032 2.704.128 2.992zm9.424 2.288v-8.192h-.032l-1.728 1.184c-.096.064-.176.032-.176-.096v-1.984a.26.26 0 0 1 .112-.224l1.824-1.312a.447.447 0 0 1 .288-.096h1.792c.096 0 .16.064.16.16v10.56c0 .096-.064.16-.16.16h-1.92c-.096 0-.16-.064-.16-.16zm5.792-2.976c0-1.216.608-2.08 1.296-2.544v-.032c-.512-.368-1.056-1.152-1.056-2.176 0-1.68 1.232-3.168 3.44-3.168s3.44 1.488 3.44 3.168c0 1.024-.544 1.808-1.056 2.176v.032c.688.464 1.296 1.328 1.296 2.544 0 2-1.568 3.312-3.68 3.312s-3.68-1.312-3.68-3.312zm3.68-3.488c.752 0 1.248-.576 1.248-1.264 0-.704-.496-1.28-1.248-1.28s-1.248.576-1.248 1.28c0 .688.496 1.264 1.248 1.264zm-1.472 3.392c0 .896.592 1.52 1.472 1.52s1.472-.624 1.472-1.52c0-.88-.592-1.504-1.472-1.504s-1.472.624-1.472 1.504z" fill="#FFF" fill-rule="nonzero"/><path d="M162 257.5h163" stroke="#979797" opacity=".2" stroke-linecap="square" stroke-dasharray="2,4"/></g></g></svg>