<svg width="892" height="105" xmlns="http://www.w3.org/2000/svg"><g fill="none" fill-rule="evenodd"><path stroke="#E5E5E5" fill="#FFF" d="M.5.5h891v104H.5z"/><path d="M22.184 43.266v-17.16c0-.156.104-.26.26-.26h10.634c.156 0 .26.104.26.26v1.638c0 .156-.104.26-.26.26h-8.424c-.104 0-.156.052-.156.156v5.382c0 .104.052.156.156.156h7.15c.156 0 .26.104.26.26v1.638c0 .156-.104.26-.26.26h-7.15c-.104 0-.156.052-.156.156v7.254c0 .156-.104.26-.26.26h-1.794c-.156 0-.26-.104-.26-.26zm18.278.39h-.884c-2.184 0-3.042-1.04-3.042-3.276V26.106c0-.156.104-.26.26-.26h1.664c.156 0 .26.104.26.26V40.25c0 1.04.39 1.378 1.248 1.378h.494c.156 0 .26.104.26.26v1.508c0 .156-.104.26-.26.26zm4.004 4.55h-.676c-.156 0-.26-.104-.26-.26v-1.508c0-.156.104-.26.26-.26h.468c1.014 0 1.56-.442 2.106-1.872l.416-1.144-4.576-11.83c-.052-.156.026-.26.208-.26h1.82c.156 0 .26.078.312.26l3.276 8.996h.052l3.146-8.996c.052-.182.156-.26.312-.26h1.768c.156 0 .26.104.208.26l-4.914 13.156c-1.092 2.938-2.054 3.718-3.926 3.718zm22.438-4.55h-.962c-2.418 0-3.354-1.092-3.354-3.536v-7.124c0-.104-.052-.156-.156-.156h-1.04c-.156 0-.26-.104-.26-.26v-1.248c0-.156.104-.26.26-.26h1.04c.104 0 .156-.052.156-.156v-3.51c0-.156.104-.26.26-.26h1.664c.156 0 .26.104.26.26v3.51c0 .104.052.156.156.156h1.976c.156 0 .26.104.26.26v1.248c0 .156-.104.26-.26.26h-1.976c-.104 0-.156.052-.156.156v7.046c0 1.248.468 1.586 1.586 1.586h.546c.156 0 .26.104.26.26v1.508c0 .156-.104.26-.26.26zm8.216.156c-2.418 0-4.238-1.248-4.914-3.354-.286-.858-.416-1.716-.416-3.172 0-1.43.13-2.288.416-3.146.676-2.132 2.496-3.354 4.914-3.354 2.418 0 4.238 1.222 4.914 3.354.286.858.416 1.716.416 3.146 0 1.456-.13 2.314-.416 3.172-.676 2.106-2.496 3.354-4.914 3.354zm0-2.028c1.378 0 2.392-.702 2.808-1.95.208-.676.286-1.352.286-2.548s-.078-1.846-.286-2.522c-.416-1.248-1.43-1.95-2.808-1.95s-2.392.702-2.808 1.95c-.208.676-.286 1.326-.286 2.522 0 1.196.078 1.872.286 2.548.416 1.248 1.43 1.95 2.808 1.95zm15.132 1.482v-17.16c0-.156.104-.26.26-.26h1.664c.208 0 .338.052.442.26l8.008 13.26h.104v-13.26c0-.156.104-.26.26-.26h1.638c.156 0 .26.104.26.26v17.16c0 .156-.104.26-.26.26h-1.664c-.182 0-.338-.052-.442-.26l-8.034-13.208h-.078v13.208c0 .156-.104.26-.26.26h-1.638c-.156 0-.26-.104-.26-.26zm22.542.26h-1.768c-.156 0-.26-.104-.26-.26v-6.968l-5.226-10.166c-.052-.156.026-.286.208-.286h1.846c.182 0 .286.078.39.26l3.952 7.566h.052l3.926-7.566c.078-.182.182-.26.364-.26h1.794c.208 0 .26.13.208.286l-5.226 10.166v6.968c0 .156-.104.26-.26.26zm7.67-3.874c-.338-1.014-.468-2.028-.468-4.966s.13-3.952.468-4.966c.884-2.782 2.99-4.16 5.876-4.16 2.626 0 4.654 1.3 5.668 3.562.052.13.026.26-.104.338l-1.56.754a.259.259 0 0 1-.364-.13c-.702-1.378-1.794-2.366-3.64-2.366-1.924 0-3.094.936-3.666 2.6-.234.728-.338 1.586-.338 4.368s.104 3.64.338 4.368c.572 1.664 1.742 2.6 3.666 2.6 1.846 0 2.938-.988 3.64-2.366a.259.259 0 0 1 .364-.13l1.56.754c.13.078.156.208.104.338-1.014 2.262-3.042 3.562-5.668 3.562-2.886 0-4.992-1.378-5.876-4.16zm25.636 4.16c-2.418 0-4.238-1.248-4.914-3.354-.286-.858-.416-1.716-.416-3.172 0-1.43.13-2.288.416-3.146.676-2.132 2.496-3.354 4.914-3.354 2.418 0 4.238 1.222 4.914 3.354.286.858.416 1.716.416 3.146 0 1.456-.13 2.314-.416 3.172-.676 2.106-2.496 3.354-4.914 3.354zm0-2.028c1.378 0 2.392-.702 2.808-1.95.208-.676.286-1.352.286-2.548s-.078-1.846-.286-2.522c-.416-1.248-1.43-1.95-2.808-1.95s-2.392.702-2.808 1.95c-.208.676-.286 1.326-.286 2.522 0 1.196.078 1.872.286 2.548.416 1.248 1.43 1.95 2.808 1.95zm18.59 1.742h-1.664c-.156 0-.26-.104-.26-.26v-7.28c0-2.002-.91-3.172-2.782-3.172-1.69 0-2.86 1.196-2.86 3.042v7.41c0 .156-.104.26-.26.26H155.2c-.156 0-.26-.104-.26-.26V31.332c0-.156.104-.26.26-.26h1.664c.156 0 .26.104.26.26v1.144h.026c.598-.962 1.794-1.69 3.484-1.69 2.704 0 4.316 1.846 4.316 4.68v7.8c0 .156-.104.26-.26.26zm9.36-1.534a.251.251 0 0 1 0-.364l1.3-1.118c.13-.104.26-.078.39.052.546.52 1.482 1.092 2.574 1.092 2.054 0 3.276-1.196 3.276-3.796V26.106c0-.156.104-.26.26-.26h1.794c.156 0 .26.104.26.26v11.752c0 3.926-2.21 5.954-5.668 5.954-1.716 0-3.328-.78-4.186-1.82zm23.53 1.534h-1.664c-.156 0-.26-.104-.26-.26v-1.17h-.026c-.65 1.04-1.794 1.716-3.406 1.716-2.73 0-4.316-1.872-4.316-4.706v-7.774c0-.156.104-.26.26-.26h1.664c.156 0 .26.104.26.26v7.254c0 2.028.91 3.198 2.756 3.198 1.69 0 2.808-1.196 2.808-3.068v-7.384c0-.156.104-.26.26-.26h1.664c.156 0 .26.104.26.26v11.934c0 .156-.104.26-.26.26zm8.398.13h-.884c-2.184 0-3.042-1.04-3.042-3.276V26.106c0-.156.104-.26.26-.26h1.664c.156 0 .26.104.26.26V40.25c0 1.04.39 1.378 1.248 1.378h.494c.156 0 .26.104.26.26v1.508c0 .156-.104.26-.26.26zm4.004 4.55h-.676c-.156 0-.26-.104-.26-.26v-1.508c0-.156.104-.26.26-.26h.468c1.014 0 1.56-.442 2.106-1.872l.416-1.144-4.576-11.83c-.052-.156.026-.26.208-.26h1.82c.156 0 .26.078.312.26l3.276 8.996h.052l3.146-8.996c.052-.182.156-.26.312-.26h1.768c.156 0 .26.104.208.26l-4.914 13.156c-1.092 2.938-2.054 3.718-3.926 3.718zm22.074-4.94V28.602h-.052l-2.938 2.054c-.156.104-.286.052-.286-.156v-1.924c0-.156.052-.26.182-.364l3.042-2.21a.59.59 0 0 1 .416-.156h1.56c.156 0 .26.104.26.26v17.16c0 .156-.104.26-.26.26h-1.664c-.156 0-.26-.104-.26-.26zm9.802 0v-1.352c0-.156.026-.234.13-.364l6.37-8.112c.78-.988 1.248-1.95 1.248-3.068 0-1.586-1.066-2.782-2.782-2.782-1.69 0-2.626 1.014-2.886 2.6-.026.156-.13.234-.286.208l-1.586-.338c-.156-.052-.234-.156-.208-.312.234-2.106 1.898-4.186 5.018-4.186 3.094 0 4.966 2.08 4.966 4.81 0 1.586-.65 2.886-1.716 4.238l-5.46 6.864v.026h6.916c.156 0 .26.104.26.26v1.508c0 .156-.104.26-.26.26h-9.464c-.156 0-.26-.104-.26-.26zm18.746.39h-.962c-2.418 0-3.354-1.092-3.354-3.536v-7.124c0-.104-.052-.156-.156-.156h-1.04c-.156 0-.26-.104-.26-.26v-1.248c0-.156.104-.26.26-.26h1.04c.104 0 .156-.052.156-.156v-3.51c0-.156.104-.26.26-.26h1.664c.156 0 .26.104.26.26v3.51c0 .104.052.156.156.156h1.976c.156 0 .26.104.26.26v1.248c0 .156-.104.26-.26.26h-1.976c-.104 0-.156.052-.156.156v7.046c0 1.248.468 1.586 1.586 1.586h.546c.156 0 .26.104.26.26v1.508c0 .156-.104.26-.26.26zm13.39-.13h-1.664c-.156 0-.26-.104-.26-.26v-7.28c0-2.002-.91-3.172-2.782-3.172-1.69 0-2.86 1.196-2.86 3.042v7.41c0 .156-.104.26-.26.26h-1.664c-.156 0-.26-.104-.26-.26v-17.16c0-.156.104-.26.26-.26h1.664c.156 0 .26.104.26.26v6.37h.026c.598-.962 1.794-1.69 3.484-1.69 2.704 0 4.316 1.846 4.316 4.68v7.8c0 .156-.104.26-.26.26zm4.082-2.496c0-.156.104-.26.26-.26h1.82c.156 0 .26.104.26.26v2.418c0 .26-.026.39-.156.572l-1.612 2.132c-.104.13-.208.182-.338.182a.233.233 0 0 1-.234-.234v-5.07zm16.276 2.782c-2.418 0-4.134-.988-5.148-1.872a.251.251 0 0 1 0-.364l1.066-1.144a.251.251 0 0 1 .364 0c.936.806 2.34 1.43 3.848 1.43 1.82 0 2.73-.78 2.73-1.898 0-.988-.468-1.534-2.418-1.742l-1.326-.13c-2.444-.26-3.718-1.482-3.718-3.51 0-2.366 1.69-3.796 4.628-3.796 1.82 0 3.38.598 4.42 1.378.13.078.13.234.052.364l-.884 1.118c-.104.13-.234.13-.364.052-.806-.52-2.08-1.014-3.354-1.014-1.56 0-2.366.702-2.366 1.716 0 .988.598 1.508 2.444 1.69l1.3.13c2.522.234 3.744 1.508 3.744 3.51 0 2.444-1.768 4.082-5.018 4.082zm13.026-.156h-.962c-2.418 0-3.354-1.092-3.354-3.536v-7.124c0-.104-.052-.156-.156-.156h-1.04c-.156 0-.26-.104-.26-.26v-1.248c0-.156.104-.26.26-.26h1.04c.104 0 .156-.052.156-.156v-3.51c0-.156.104-.26.26-.26h1.664c.156 0 .26.104.26.26v3.51c0 .104.052.156.156.156h1.976c.156 0 .26.104.26.26v1.248c0 .156-.104.26-.26.26h-1.976c-.104 0-.156.052-.156.156v7.046c0 1.248.468 1.586 1.586 1.586h.546c.156 0 .26.104.26.26v1.508c0 .156-.104.26-.26.26zm12.714-.13h-1.534c-.156 0-.26-.104-.26-.26v-1.092h-.026c-.572.936-1.794 1.638-3.692 1.638-2.366 0-4.186-1.222-4.186-3.744 0-2.626 1.82-3.848 4.862-3.848h2.834c.104 0 .156-.052.156-.156v-.91c0-1.716-.676-2.444-2.99-2.444-1.404 0-2.288.364-3.016.884-.13.104-.286.104-.364-.026l-.702-1.196c-.078-.156-.052-.26.052-.364.936-.728 2.392-1.222 4.238-1.222 3.536 0 4.888 1.17 4.888 4.238v8.242c0 .156-.104.26-.26.26zM315.1 41.94c1.95 0 3.146-.91 3.146-2.444v-1.378c0-.104-.052-.156-.156-.156h-2.496c-2.158 0-3.094.624-3.094 2.028 0 1.274.936 1.95 2.6 1.95zm10.088 6.266h-.676c-.156 0-.26-.104-.26-.26v-1.508c0-.156.104-.26.26-.26h.468c1.014 0 1.56-.442 2.106-1.872l.416-1.144-4.576-11.83c-.052-.156.026-.26.208-.26h1.82c.156 0 .26.078.312.26l3.276 8.996h.052l3.146-8.996c.052-.182.156-.26.312-.26h1.768c.156 0 .26.104.208.26l-4.914 13.156c-1.092 2.938-2.054 3.718-3.926 3.718zm17.784-4.94v-1.352c0-.156.026-.234.13-.364l6.37-8.112c.78-.988 1.248-1.95 1.248-3.068 0-1.586-1.066-2.782-2.782-2.782-1.69 0-2.626 1.014-2.886 2.6-.026.156-.13.234-.286.208l-1.586-.338c-.156-.052-.234-.156-.208-.312.234-2.106 1.898-4.186 5.018-4.186 3.094 0 4.966 2.08 4.966 4.81 0 1.586-.65 2.886-1.716 4.238l-5.46 6.864v.026h6.916c.156 0 .26.104.26.26v1.508c0 .156-.104.26-.26.26h-9.464c-.156 0-.26-.104-.26-.26zm30.16.26h-1.664c-.156 0-.26-.104-.26-.26v-7.28c0-2.002-.91-3.172-2.782-3.172-1.69 0-2.86 1.196-2.86 3.042v7.41c0 .156-.104.26-.26.26h-1.664c-.156 0-.26-.104-.26-.26V31.332c0-.156.104-.26.26-.26h1.664c.156 0 .26.104.26.26v1.144h.026c.598-.962 1.794-1.69 3.484-1.69 2.704 0 4.316 1.846 4.316 4.68v7.8c0 .156-.104.26-.26.26zm6.37-15.262h-1.768c-.156 0-.26-.104-.26-.26v-1.898c0-.156.104-.26.26-.26h1.768c.156 0 .26.104.26.26v1.898c0 .156-.104.26-.26.26zm-.052 15.262h-1.664c-.156 0-.26-.104-.26-.26V31.332c0-.156.104-.26.26-.26h1.664c.156 0 .26.104.26.26v11.934c0 .156-.104.26-.26.26zm8.58 4.966c-1.742 0-3.484-.754-4.316-1.846-.104-.13-.104-.234.026-.364l1.066-1.066c.13-.13.26-.13.39 0 .858.78 1.742 1.248 2.938 1.248 2.054 0 3.146-1.066 3.146-3.354v-1.456h-.026c-.572 1.04-1.638 1.716-3.458 1.716-2.106 0-3.562-1.066-4.186-3.016-.312-.936-.416-1.846-.416-3.276 0-1.43.104-2.34.416-3.276.624-1.95 2.08-3.016 4.186-3.016 1.82 0 2.886.676 3.458 1.716h.026v-1.17c0-.156.104-.26.26-.26h1.664c.156 0 .26.104.26.26V42.98c0 3.536-1.924 5.512-5.434 5.512zm.312-7.124c1.3 0 2.21-.598 2.652-1.872.208-.624.286-1.352.286-2.418s-.078-1.768-.286-2.418c-.442-1.274-1.352-1.846-2.652-1.846-1.352 0-2.21.65-2.626 1.846-.208.65-.312 1.404-.312 2.418 0 1.014.104 1.794.312 2.418.416 1.222 1.274 1.872 2.626 1.872zm19.136 2.158h-1.664c-.156 0-.26-.104-.26-.26v-7.28c0-2.002-.91-3.172-2.782-3.172-1.69 0-2.86 1.196-2.86 3.042v7.41c0 .156-.104.26-.26.26h-1.664c-.156 0-.26-.104-.26-.26v-17.16c0-.156.104-.26.26-.26h1.664c.156 0 .26.104.26.26v6.37h.026c.598-.962 1.794-1.69 3.484-1.69 2.704 0 4.316 1.846 4.316 4.68v7.8c0 .156-.104.26-.26.26zm8.97.13h-.962c-2.418 0-3.354-1.092-3.354-3.536v-7.124c0-.104-.052-.156-.156-.156h-1.04c-.156 0-.26-.104-.26-.26v-1.248c0-.156.104-.26.26-.26h1.04c.104 0 .156-.052.156-.156v-3.51c0-.156.104-.26.26-.26h1.664c.156 0 .26.104.26.26v3.51c0 .104.052.156.156.156h1.976c.156 0 .26.104.26.26v1.248c0 .156-.104.26-.26.26h-1.976c-.104 0-.156.052-.156.156v7.046c0 1.248.468 1.586 1.586 1.586h.546c.156 0 .26.104.26.26v1.508c0 .156-.104.26-.26.26zm7.93.156c-2.418 0-4.134-.988-5.148-1.872a.251.251 0 0 1 0-.364l1.066-1.144a.251.251 0 0 1 .364 0c.936.806 2.34 1.43 3.848 1.43 1.82 0 2.73-.78 2.73-1.898 0-.988-.468-1.534-2.418-1.742l-1.326-.13c-2.444-.26-3.718-1.482-3.718-3.51 0-2.366 1.69-3.796 4.628-3.796 1.82 0 3.38.598 4.42 1.378.13.078.13.234.052.364l-.884 1.118c-.104.13-.234.13-.364.052-.806-.52-2.08-1.014-3.354-1.014-1.56 0-2.366.702-2.366 1.716 0 .988.598 1.508 2.444 1.69l1.3.13c2.522.234 3.744 1.508 3.744 3.51 0 2.444-1.768 4.082-5.018 4.082zm24.44-.286h-1.664c-.156 0-.26-.104-.26-.26v-7.28c0-2.002-.91-3.172-2.782-3.172-1.69 0-2.86 1.196-2.86 3.042v7.41c0 .156-.104.26-.26.26h-1.664c-.156 0-.26-.104-.26-.26V31.332c0-.156.104-.26.26-.26h1.664c.156 0 .26.104.26.26v1.144h.026c.598-.962 1.794-1.69 3.484-1.69 2.704 0 4.316 1.846 4.316 4.68v7.8c0 .156-.104.26-.26.26zm9.048.286c-2.522 0-4.316-1.222-4.992-3.38-.26-.806-.416-1.716-.416-3.146s.13-2.392.39-3.146c.702-2.158 2.522-3.354 4.888-3.354 2.392 0 4.186 1.222 4.888 3.354.26.806.39 1.664.39 3.562 0 .156-.104.26-.286.26h-7.878c-.104 0-.156.052-.156.156 0 .676.078 1.092.208 1.508.494 1.43 1.612 2.158 3.146 2.158 1.482 0 2.522-.598 3.198-1.378.13-.13.26-.156.39-.052l1.066.962c.13.104.13.234.026.364-.988 1.248-2.678 2.132-4.862 2.132zm-3.016-7.592h5.772c.104 0 .156-.052.156-.156 0-.572-.052-1.014-.182-1.404-.416-1.248-1.456-1.95-2.86-1.95s-2.444.702-2.86 1.95c-.13.39-.182.832-.182 1.404 0 .104.052.156.156.156zm20.748 7.306h-1.534c-.156 0-.26-.104-.26-.26v-1.092h-.026c-.572.936-1.794 1.638-3.692 1.638-2.366 0-4.186-1.222-4.186-3.744 0-2.626 1.82-3.848 4.862-3.848h2.834c.104 0 .156-.052.156-.156v-.91c0-1.716-.676-2.444-2.99-2.444-1.404 0-2.288.364-3.016.884-.13.104-.286.104-.364-.026l-.702-1.196c-.078-.156-.052-.26.052-.364.936-.728 2.392-1.222 4.238-1.222 3.536 0 4.888 1.17 4.888 4.238v8.242c0 .156-.104.26-.26.26zm-4.992-1.586c1.95 0 3.146-.91 3.146-2.444v-1.378c0-.104-.052-.156-.156-.156H471.1c-2.158 0-3.094.624-3.094 2.028 0 1.274.936 1.95 2.6 1.95zm11.336 1.586h-1.664c-.156 0-.26-.104-.26-.26V31.332c0-.156.104-.26.26-.26h1.664c.156 0 .26.104.26.26v1.274h.026c.546-1.066 1.638-1.82 3.302-1.82.988 0 1.924.364 2.548.936.13.13.156.234.052.364l-.962 1.274c-.104.13-.234.156-.364.052-.572-.364-1.196-.598-1.924-.598-1.898 0-2.678 1.482-2.678 3.64v6.812c0 .156-.104.26-.26.26zm20.436 0h-1.794c-.156 0-.26-.104-.26-.26V28.16c0-.104-.052-.156-.156-.156h-4.836c-.156 0-.26-.104-.26-.26v-1.638c0-.156.104-.26.26-.26h12.298c.156 0 .26.104.26.26v1.638c0 .156-.104.26-.26.26h-4.836c-.104 0-.156.052-.156.156v15.106c0 .156-.104.26-.26.26zm10.192-15.262h-1.768c-.156 0-.26-.104-.26-.26v-1.898c0-.156.104-.26.26-.26h1.768c.156 0 .26.104.26.26v1.898c0 .156-.104.26-.26.26zm-.052 15.262h-1.664c-.156 0-.26-.104-.26-.26V31.332c0-.156.104-.26.26-.26h1.664c.156 0 .26.104.26.26v11.934c0 .156-.104.26-.26.26zm22.1 0h-1.664c-.156 0-.26-.104-.26-.26v-7.28c0-2.002-.91-3.172-2.782-3.172-1.664 0-2.86 1.196-2.86 3.042v7.41c0 .156-.104.26-.26.26h-1.664c-.156 0-.26-.104-.26-.26v-7.28c0-2.002-.91-3.172-2.782-3.172-1.69 0-2.86 1.196-2.86 3.042v7.41c0 .156-.104.26-.26.26h-1.664c-.156 0-.26-.104-.26-.26V31.332c0-.156.104-.26.26-.26h1.664c.156 0 .26.104.26.26v1.144h.026c.598-.962 1.794-1.69 3.484-1.69s2.938.702 3.64 1.95h.026c.858-1.196 2.132-1.95 4.03-1.95 2.886 0 4.446 1.846 4.446 4.68v7.8c0 .156-.104.26-.26.26zm9.048.286c-2.522 0-4.316-1.222-4.992-3.38-.26-.806-.416-1.716-.416-3.146s.13-2.392.39-3.146c.702-2.158 2.522-3.354 4.888-3.354 2.392 0 4.186 1.222 4.888 3.354.26.806.39 1.664.39 3.562 0 .156-.104.26-.286.26h-7.878c-.104 0-.156.052-.156.156 0 .676.078 1.092.208 1.508.494 1.43 1.612 2.158 3.146 2.158 1.482 0 2.522-.598 3.198-1.378.13-.13.26-.156.39-.052l1.066.962c.13.104.13.234.026.364-.988 1.248-2.678 2.132-4.862 2.132zm-3.016-7.592h5.772c.104 0 .156-.052.156-.156 0-.572-.052-1.014-.182-1.404-.416-1.248-1.456-1.95-2.86-1.95s-2.444.702-2.86 1.95c-.13.39-.182.832-.182 1.404 0 .104.052.156.156.156zm15.964 7.592c-2.418 0-4.134-.988-5.148-1.872a.251.251 0 0 1 0-.364l1.066-1.144a.251.251 0 0 1 .364 0c.936.806 2.34 1.43 3.848 1.43 1.82 0 2.73-.78 2.73-1.898 0-.988-.468-1.534-2.418-1.742l-1.326-.13c-2.444-.26-3.718-1.482-3.718-3.51 0-2.366 1.69-3.796 4.628-3.796 1.82 0 3.38.598 4.42 1.378.13.078.13.234.052.364l-.884 1.118c-.104.13-.234.13-.364.052-.806-.52-2.08-1.014-3.354-1.014-1.56 0-2.366.702-2.366 1.716 0 .988.598 1.508 2.444 1.69l1.3.13c2.522.234 3.744 1.508 3.744 3.51 0 2.444-1.768 4.082-5.018 4.082zm20.098 0c-2.496 0-4.914-1.014-6.214-2.21-.104-.104-.13-.26-.026-.39l1.144-1.352c.104-.13.234-.13.364-.026 1.144.91 2.912 1.82 4.94 1.82 2.444 0 3.9-1.222 3.9-3.016 0-1.508-.858-2.522-3.692-2.886l-.884-.13c-3.432-.468-5.2-2.106-5.2-4.888 0-3.146 2.262-5.174 5.772-5.174 2.08 0 4.082.676 5.382 1.638.13.104.156.234.052.364l-.884 1.43c-.104.13-.234.13-.364.052-1.43-.884-2.756-1.326-4.264-1.326-2.158 0-3.354 1.17-3.354 2.86 0 1.482.988 2.47 3.718 2.834l.858.13c3.458.468 5.2 2.054 5.2 4.94 0 3.094-2.184 5.33-6.448 5.33zm19.422 4.394h-1.664c-.156 0-.26-.104-.26-.26V42.07h-.026c-.598.988-1.664 1.742-3.536 1.742-2.158 0-3.666-1.014-4.29-2.99-.338-.988-.442-1.976-.442-3.536 0-1.534.104-2.522.442-3.51.624-1.976 2.132-2.99 4.29-2.99 1.872 0 2.938.728 3.536 1.716h.026v-1.17c0-.156.104-.26.26-.26h1.664c.156 0 .26.104.26.26v16.614c0 .156-.104.26-.26.26zm-4.966-6.422c1.378 0 2.34-.65 2.756-1.898.208-.598.286-1.352.286-2.6s-.078-1.976-.286-2.6c-.416-1.248-1.378-1.872-2.756-1.872s-2.314.65-2.73 1.872c-.208.676-.286 1.482-.286 2.6 0 1.144.078 1.95.286 2.6.416 1.222 1.352 1.898 2.73 1.898zm18.98 1.742h-1.664c-.156 0-.26-.104-.26-.26v-1.17h-.026c-.65 1.04-1.794 1.716-3.406 1.716-2.73 0-4.316-1.872-4.316-4.706v-7.774c0-.156.104-.26.26-.26h1.664c.156 0 .26.104.26.26v7.254c0 2.028.91 3.198 2.756 3.198 1.69 0 2.808-1.196 2.808-3.068v-7.384c0-.156.104-.26.26-.26h1.664c.156 0 .26.104.26.26v11.934c0 .156-.104.26-.26.26zm13.598 0h-1.534c-.156 0-.26-.104-.26-.26v-1.092h-.026c-.572.936-1.794 1.638-3.692 1.638-2.366 0-4.186-1.222-4.186-3.744 0-2.626 1.82-3.848 4.862-3.848h2.834c.104 0 .156-.052.156-.156v-.91c0-1.716-.676-2.444-2.99-2.444-1.404 0-2.288.364-3.016.884-.13.104-.286.104-.364-.026l-.702-1.196c-.078-.156-.052-.26.052-.364.936-.728 2.392-1.222 4.238-1.222 3.536 0 4.888 1.17 4.888 4.238v8.242c0 .156-.104.26-.26.26zm-4.992-1.586c1.95 0 3.146-.91 3.146-2.444v-1.378c0-.104-.052-.156-.156-.156h-2.496c-2.158 0-3.094.624-3.094 2.028 0 1.274.936 1.95 2.6 1.95zm11.336 1.586h-1.664c-.156 0-.26-.104-.26-.26V31.332c0-.156.104-.26.26-.26h1.664c.156 0 .26.104.26.26v1.274h.026c.546-1.066 1.638-1.82 3.302-1.82.988 0 1.924.364 2.548.936.13.13.156.234.052.364l-.962 1.274c-.104.13-.234.156-.364.052-.572-.364-1.196-.598-1.924-.598-1.898 0-2.678 1.482-2.678 3.64v6.812c0 .156-.104.26-.26.26zm12.922.286c-2.522 0-4.316-1.222-4.992-3.38-.26-.806-.416-1.716-.416-3.146s.13-2.392.39-3.146c.702-2.158 2.522-3.354 4.888-3.354 2.392 0 4.186 1.222 4.888 3.354.26.806.39 1.664.39 3.562 0 .156-.104.26-.286.26h-7.878c-.104 0-.156.052-.156.156 0 .676.078 1.092.208 1.508.494 1.43 1.612 2.158 3.146 2.158 1.482 0 2.522-.598 3.198-1.378.13-.13.26-.156.39-.052l1.066.962c.13.104.13.234.026.364-.988 1.248-2.678 2.132-4.862 2.132zm-3.016-7.592h5.772c.104 0 .156-.052.156-.156 0-.572-.052-1.014-.182-1.404-.416-1.248-1.456-1.95-2.86-1.95s-2.444.702-2.86 1.95c-.13.39-.182.832-.182 1.404 0 .104.052.156.156.156zm20.514 9.23c-2.054-3.146-3.094-6.89-3.094-10.452 0-3.562 1.04-7.332 3.094-10.452.13-.182.234-.26.416-.26h.91c.156 0 .234.104.156.26-1.56 3.12-2.47 6.89-2.47 10.452 0 3.562.936 7.384 2.47 10.452.078.156 0 .26-.156.26h-.91c-.182 0-.286-.078-.416-.26zm14.3-1.924h-1.664c-.156 0-.26-.104-.26-.26v-1.17h-.026c-.65 1.04-1.794 1.716-3.406 1.716-2.73 0-4.316-1.872-4.316-4.706v-7.774c0-.156.104-.26.26-.26h1.664c.156 0 .26.104.26.26v7.254c0 2.028.91 3.198 2.756 3.198 1.69 0 2.808-1.196 2.808-3.068v-7.384c0-.156.104-.26.26-.26h1.664c.156 0 .26.104.26.26v11.934c0 .156-.104.26-.26.26zm14.274 0h-1.664c-.156 0-.26-.104-.26-.26v-7.28c0-2.002-.91-3.172-2.782-3.172-1.69 0-2.86 1.196-2.86 3.042v7.41c0 .156-.104.26-.26.26h-1.664c-.156 0-.26-.104-.26-.26V31.332c0-.156.104-.26.26-.26h1.664c.156 0 .26.104.26.26v1.144h.026c.598-.962 1.794-1.69 3.484-1.69 2.704 0 4.316 1.846 4.316 4.68v7.8c0 .156-.104.26-.26.26zm13.858 0h-1.664c-.156 0-.26-.104-.26-.26V42.07h-.026c-.598.988-1.664 1.742-3.536 1.742-2.158 0-3.666-1.014-4.29-2.99-.338-.988-.442-1.976-.442-3.536 0-1.534.104-2.522.442-3.51.624-1.976 2.132-2.99 4.29-2.99 1.872 0 2.938.728 3.536 1.716h.026v-6.396c0-.156.104-.26.26-.26h1.664c.156 0 .26.104.26.26v17.16c0 .156-.104.26-.26.26zm-4.966-1.742c1.378 0 2.34-.65 2.756-1.898.208-.598.286-1.352.286-2.6s-.078-1.976-.286-2.6c-.416-1.248-1.378-1.872-2.756-1.872s-2.314.65-2.73 1.872c-.208.676-.286 1.482-.286 2.6 0 1.144.078 1.95.286 2.6.416 1.222 1.352 1.898 2.73 1.898zm14.144 2.028c-2.522 0-4.316-1.222-4.992-3.38-.26-.806-.416-1.716-.416-3.146s.13-2.392.39-3.146c.702-2.158 2.522-3.354 4.888-3.354 2.392 0 4.186 1.222 4.888 3.354.26.806.39 1.664.39 3.562 0 .156-.104.26-.286.26h-7.878c-.104 0-.156.052-.156.156 0 .676.078 1.092.208 1.508.494 1.43 1.612 2.158 3.146 2.158 1.482 0 2.522-.598 3.198-1.378.13-.13.26-.156.39-.052l1.066.962c.13.104.13.234.026.364-.988 1.248-2.678 2.132-4.862 2.132zm-3.016-7.592h5.772c.104 0 .156-.052.156-.156 0-.572-.052-1.014-.182-1.404-.416-1.248-1.456-1.95-2.86-1.95s-2.444.702-2.86 1.95c-.13.39-.182.832-.182 1.404 0 .104.052.156.156.156zm13.598 7.306h-1.664c-.156 0-.26-.104-.26-.26V31.332c0-.156.104-.26.26-.26h1.664c.156 0 .26.104.26.26v1.274h.026c.546-1.066 1.638-1.82 3.302-1.82.988 0 1.924.364 2.548.936.13.13.156.234.052.364l-.962 1.274c-.104.13-.234.156-.364.052-.572-.364-1.196-.598-1.924-.598-1.898 0-2.678 1.482-2.678 3.64v6.812c0 .156-.104.26-.26.26zm14.43-1.456c-.104-.078-.13-.26-.026-.364l.962-1.3c.104-.13.26-.104.364-.026.91.65 2.184 1.3 3.666 1.404v-6.24c-3.12-.572-4.68-2.288-4.68-4.836 0-2.886 1.898-4.862 4.68-5.122V24.26c0-.156.104-.26.26-.26h.754c.156 0 .26.104.26.26v1.326c1.482.13 2.834.624 3.874 1.3.13.104.156.208.052.364l-.832 1.274c-.104.13-.234.156-.364.078-.884-.52-1.794-.858-2.73-.962v5.98c3.172.546 4.732 2.236 4.732 4.836 0 2.886-1.768 4.94-4.732 5.278v1.378c0 .156-.104.26-.26.26h-.754c-.156 0-.26-.104-.26-.26v-1.3c-1.95-.078-3.692-.78-4.966-1.742zm4.966-8.684V27.64c-1.56.208-2.548 1.3-2.548 2.886 0 1.43.624 2.392 2.548 2.86zm1.274 8.32c1.612-.286 2.6-1.378 2.6-3.12 0-1.404-.702-2.366-2.6-2.808v5.928zm8.008-1.638c-.026-.156.052-.26.208-.312l1.586-.39c.156-.052.26.026.312.182.364 1.118 1.274 2.236 3.146 2.236 1.898 0 3.042-1.326 3.042-3.12 0-1.976-1.274-3.276-3.25-3.276h-.78c-.156 0-.26-.104-.26-.26V33.62c0-.156.104-.26.26-.26h.754c1.768 0 2.938-1.17 2.938-2.964 0-1.638-1.066-2.808-2.834-2.808-1.638 0-2.496.962-2.808 2.158-.052.156-.156.234-.312.208l-1.56-.39c-.156-.026-.234-.156-.208-.312.364-1.976 2.132-3.692 4.966-3.692 3.12 0 4.992 2.002 4.992 4.784 0 1.768-.962 3.042-2.184 3.796v.052c1.092.468 2.522 1.976 2.522 4.394 0 3.094-2.21 5.226-5.278 5.226-2.86 0-4.758-1.586-5.252-3.744zm14.56.39c-.208-.676-.39-1.612-.39-5.772s.182-5.096.39-5.772c.702-2.158 2.392-3.354 4.836-3.354 2.444 0 4.134 1.196 4.836 3.354.208.676.39 1.612.39 5.772s-.182 5.096-.39 5.772c-.702 2.158-2.392 3.354-4.836 3.354-2.444 0-4.134-1.196-4.836-3.354zm2.158-.442c.416 1.17 1.378 1.768 2.678 1.768s2.262-.598 2.678-1.768c.182-.546.286-1.3.286-5.33s-.104-4.784-.286-5.33c-.416-1.17-1.378-1.768-2.678-1.768s-2.262.598-2.678 1.768c-.182.546-.286 1.3-.286 5.33s.104 4.784.286 5.33zm11.934.442c-.208-.676-.39-1.612-.39-5.772s.182-5.096.39-5.772c.702-2.158 2.392-3.354 4.836-3.354 2.444 0 4.134 1.196 4.836 3.354.208.676.39 1.612.39 5.772s-.182 5.096-.39 5.772c-.702 2.158-2.392 3.354-4.836 3.354-2.444 0-4.134-1.196-4.836-3.354zm2.158-.442c.416 1.17 1.378 1.768 2.678 1.768s2.262-.598 2.678-1.768c.182-.546.286-1.3.286-5.33s-.104-4.784-.286-5.33c-.416-1.17-1.378-1.768-2.678-1.768s-2.262.598-2.678 1.768c-.182.546-.286 1.3-.286 5.33s.104 4.784.286 5.33zm11.31 3.536l5.746-17.732c.052-.156.156-.26.338-.26h1.404c.156 0 .234.104.182.26l-5.772 17.732c-.052.156-.156.26-.338.26h-1.378c-.156 0-.234-.104-.182-.26zm21.138-.026h-1.664c-.156 0-.26-.104-.26-.26v-7.28c0-2.002-.91-3.172-2.782-3.172-1.69 0-2.86 1.196-2.86 3.042v7.41c0 .156-.104.26-.26.26h-1.664c-.156 0-.26-.104-.26-.26V31.332c0-.156.104-.26.26-.26h1.664c.156 0 .26.104.26.26v1.144h.026c.598-.962 1.794-1.69 3.484-1.69 2.704 0 4.316 1.846 4.316 4.68v7.8c0 .156-.104.26-.26.26zm6.37-15.262h-1.768c-.156 0-.26-.104-.26-.26v-1.898c0-.156.104-.26.26-.26h1.768c.156 0 .26.104.26.26v1.898c0 .156-.104.26-.26.26zm-.052 15.262h-1.664c-.156 0-.26-.104-.26-.26V31.332c0-.156.104-.26.26-.26h1.664c.156 0 .26.104.26.26v11.934c0 .156-.104.26-.26.26zm8.58 4.966c-1.742 0-3.484-.754-4.316-1.846-.104-.13-.104-.234.026-.364l1.066-1.066c.13-.13.26-.13.39 0 .858.78 1.742 1.248 2.938 1.248 2.054 0 3.146-1.066 3.146-3.354v-1.456h-.026c-.572 1.04-1.638 1.716-3.458 1.716-2.106 0-3.562-1.066-4.186-3.016-.312-.936-.416-1.846-.416-3.276 0-1.43.104-2.34.416-3.276.624-1.95 2.08-3.016 4.186-3.016 1.82 0 2.886.676 3.458 1.716h.026v-1.17c0-.156.104-.26.26-.26h1.664c.156 0 .26.104.26.26V42.98c0 3.536-1.924 5.512-5.434 5.512zm.312-7.124c1.3 0 2.21-.598 2.652-1.872.208-.624.286-1.352.286-2.418s-.078-1.768-.286-2.418c-.442-1.274-1.352-1.846-2.652-1.846-1.352 0-2.21.65-2.626 1.846-.208.65-.312 1.404-.312 2.418 0 1.014.104 1.794.312 2.418.416 1.222 1.274 1.872 2.626 1.872zm19.136 2.158h-1.664c-.156 0-.26-.104-.26-.26v-7.28c0-2.002-.91-3.172-2.782-3.172-1.69 0-2.86 1.196-2.86 3.042v7.41c0 .156-.104.26-.26.26h-1.664c-.156 0-.26-.104-.26-.26v-17.16c0-.156.104-.26.26-.26h1.664c.156 0 .26.104.26.26v6.37h.026c.598-.962 1.794-1.69 3.484-1.69 2.704 0 4.316 1.846 4.316 4.68v7.8c0 .156-.104.26-.26.26zm8.97.13h-.962c-2.418 0-3.354-1.092-3.354-3.536v-7.124c0-.104-.052-.156-.156-.156h-1.04c-.156 0-.26-.104-.26-.26v-1.248c0-.156.104-.26.26-.26h1.04c.104 0 .156-.052.156-.156v-3.51c0-.156.104-.26.26-.26h1.664c.156 0 .26.104.26.26v3.51c0 .104.052.156.156.156h1.976c.156 0 .26.104.26.26v1.248c0 .156-.104.26-.26.26h-1.976c-.104 0-.156.052-.156.156v7.046c0 1.248.468 1.586 1.586 1.586h.546c.156 0 .26.104.26.26v1.508c0 .156-.104.26-.26.26zm2.704 1.794c1.534-3.068 2.47-6.89 2.47-10.452 0-3.562-.91-7.332-2.47-10.452-.078-.156 0-.26.156-.26h.91c.182 0 .286.078.416.26 2.054 3.12 3.094 6.89 3.094 10.452 0 3.562-1.04 7.306-3.094 10.452-.13.182-.234.26-.416.26h-.91c-.156 0-.234-.104-.156-.26zM26.708 77.656h-.962c-2.418 0-3.354-1.092-3.354-3.536v-7.124c0-.104-.052-.156-.156-.156h-1.04c-.156 0-.26-.104-.26-.26v-1.248c0-.156.104-.26.26-.26h1.04c.104 0 .156-.052.156-.156v-3.51c0-.156.104-.26.26-.26h1.664c.156 0 .26.104.26.26v3.51c0 .104.052.156.156.156h1.976c.156 0 .26.104.26.26v1.248c0 .156-.104.26-.26.26h-1.976c-.104 0-.156.052-.156.156v7.046c0 1.248.468 1.586 1.586 1.586h.546c.156 0 .26.104.26.26v1.508c0 .156-.104.26-.26.26zm13.39-.13h-1.664c-.156 0-.26-.104-.26-.26v-7.28c0-2.002-.91-3.172-2.782-3.172-1.69 0-2.86 1.196-2.86 3.042v7.41c0 .156-.104.26-.26.26h-1.664c-.156 0-.26-.104-.26-.26v-17.16c0-.156.104-.26.26-.26h1.664c.156 0 .26.104.26.26v6.37h.026c.598-.962 1.794-1.69 3.484-1.69 2.704 0 4.316 1.846 4.316 4.68v7.8c0 .156-.104.26-.26.26zm9.048.286c-2.522 0-4.316-1.222-4.992-3.38-.26-.806-.416-1.716-.416-3.146s.13-2.392.39-3.146c.702-2.158 2.522-3.354 4.888-3.354 2.392 0 4.186 1.222 4.888 3.354.26.806.39 1.664.39 3.562 0 .156-.104.26-.286.26H46.13c-.104 0-.156.052-.156.156 0 .676.078 1.092.208 1.508.494 1.43 1.612 2.158 3.146 2.158 1.482 0 2.522-.598 3.198-1.378.13-.13.26-.156.39-.052l1.066.962c.13.104.13.234.026.364-.988 1.248-2.678 2.132-4.862 2.132zM46.13 70.22h5.772c.104 0 .156-.052.156-.156 0-.572-.052-1.014-.182-1.404-.416-1.248-1.456-1.95-2.86-1.95s-2.444.702-2.86 1.95c-.13.39-.182.832-.182 1.404 0 .104.052.156.156.156zm21.424 7.306H65.89c-.156 0-.26-.104-.26-.26v-7.28c0-2.002-.91-3.172-2.782-3.172-1.69 0-2.86 1.196-2.86 3.042v7.41c0 .156-.104.26-.26.26h-1.664c-.156 0-.26-.104-.26-.26V65.332c0-.156.104-.26.26-.26h1.664c.156 0 .26.104.26.26v1.144h.026c.598-.962 1.794-1.69 3.484-1.69 2.704 0 4.316 1.846 4.316 4.68v7.8c0 .156-.104.26-.26.26zm12.558 0h-1.664c-.156 0-.26-.104-.26-.26V65.332c0-.156.104-.26.26-.26h1.664c.156 0 .26.104.26.26v1.274h.026c.546-1.066 1.638-1.82 3.302-1.82.988 0 1.924.364 2.548.936.13.13.156.234.052.364l-.962 1.274c-.104.13-.234.156-.364.052-.572-.364-1.196-.598-1.924-.598-1.898 0-2.678 1.482-2.678 3.64v6.812c0 .156-.104.26-.26.26zm12.922.286c-2.522 0-4.316-1.222-4.992-3.38-.26-.806-.416-1.716-.416-3.146s.13-2.392.39-3.146c.702-2.158 2.522-3.354 4.888-3.354 2.392 0 4.186 1.222 4.888 3.354.26.806.39 1.664.39 3.562 0 .156-.104.26-.286.26h-7.878c-.104 0-.156.052-.156.156 0 .676.078 1.092.208 1.508.494 1.43 1.612 2.158 3.146 2.158 1.482 0 2.522-.598 3.198-1.378.13-.13.26-.156.39-.052l1.066.962c.13.104.13.234.026.364-.988 1.248-2.678 2.132-4.862 2.132zm-3.016-7.592h5.772c.104 0 .156-.052.156-.156 0-.572-.052-1.014-.182-1.404-.416-1.248-1.456-1.95-2.86-1.95s-2.444.702-2.86 1.95c-.13.39-.182.832-.182 1.404 0 .104.052.156.156.156zm16.25 7.436h-.962c-2.418 0-3.354-1.092-3.354-3.536v-7.124c0-.104-.052-.156-.156-.156h-1.04c-.156 0-.26-.104-.26-.26v-1.248c0-.156.104-.26.26-.26h1.04c.104 0 .156-.052.156-.156v-3.51c0-.156.104-.26.26-.26h1.664c.156 0 .26.104.26.26v3.51c0 .104.052.156.156.156h1.976c.156 0 .26.104.26.26v1.248c0 .156-.104.26-.26.26h-1.976c-.104 0-.156.052-.156.156v7.046c0 1.248.468 1.586 1.586 1.586h.546c.156 0 .26.104.26.26v1.508c0 .156-.104.26-.26.26zm13.13-.13h-1.664c-.156 0-.26-.104-.26-.26v-1.17h-.026c-.65 1.04-1.794 1.716-3.406 1.716-2.73 0-4.316-1.872-4.316-4.706v-7.774c0-.156.104-.26.26-.26h1.664c.156 0 .26.104.26.26v7.254c0 2.028.91 3.198 2.756 3.198 1.69 0 2.808-1.196 2.808-3.068v-7.384c0-.156.104-.26.26-.26h1.664c.156 0 .26.104.26.26v11.934c0 .156-.104.26-.26.26zm6.448 0h-1.664c-.156 0-.26-.104-.26-.26V65.332c0-.156.104-.26.26-.26h1.664c.156 0 .26.104.26.26v1.274h.026c.546-1.066 1.638-1.82 3.302-1.82.988 0 1.924.364 2.548.936.13.13.156.234.052.364l-.962 1.274c-.104.13-.234.156-.364.052-.572-.364-1.196-.598-1.924-.598-1.898 0-2.678 1.482-2.678 3.64v6.812c0 .156-.104.26-.26.26zm18.486 0h-1.664c-.156 0-.26-.104-.26-.26v-7.28c0-2.002-.91-3.172-2.782-3.172-1.69 0-2.86 1.196-2.86 3.042v7.41c0 .156-.104.26-.26.26h-1.664c-.156 0-.26-.104-.26-.26V65.332c0-.156.104-.26.26-.26h1.664c.156 0 .26.104.26.26v1.144h.026c.598-.962 1.794-1.69 3.484-1.69 2.704 0 4.316 1.846 4.316 4.68v7.8c0 .156-.104.26-.26.26zm4.082-.26V75.03c0-.156.104-.26.26-.26h1.976c.156 0 .26.104.26.26v2.236c0 .156-.104.26-.26.26h-1.976c-.156 0-.26-.104-.26-.26z" fill="#666" fill-rule="nonzero"/></g></svg>