<svg height="auto" viewBox="0 0 1173 247" xmlns="http://www.w3.org/2000/svg" xmlns:xlink="http://www.w3.org/1999/xlink"><defs><path id="b" d="M25.412 21.296a1.28 1.28 0 0 0-.016.14c-.27 4.868-4.126 8.682-8.78 8.682-2.378 0-4.607-.982-6.275-2.763l-.007-.008-8.094-8.491a1.305 1.305 0 0 1-.358-.906c0-.342.127-.663.358-.905a1.186 1.186 0 0 1 1.726 0l3.125 3.278c.317.333.795.432 1.21.253.414-.18.685-.605.685-1.076V3.163c0-.706.547-1.28 1.22-1.28.673 0 1.22.574 1.22 1.28v11.003c0 .643.498 1.164 1.11 1.164.613 0 1.11-.521 1.11-1.164v-4.89c0-.707.548-1.28 1.221-1.28s1.22.574 1.22 1.28v4.89c0 .643.498 1.165 1.11 1.165.613 0 1.11-.522 1.11-1.165v-2.445c0-.706.548-1.28 1.221-1.28s1.22.574 1.22 1.28v3.668c0 .643.498 1.164 1.11 1.164.614 0 1.11-.521 1.11-1.164v-1.223c0-.706.548-1.28 1.22-1.28.674 0 1.221.574 1.221 1.28v7.13h.003z"/><filter id="a" x="-29.8%" y="-17.7%" width="159.5%" height="149.6%" filterUnits="objectBoundingBox"><feOffset dy="2" in="SourceAlpha" result="shadowOffsetOuter1"/><feGaussianBlur stdDeviation="2" in="shadowOffsetOuter1" result="shadowBlurOuter1"/><feColorMatrix values="0 0 0 0 0 0 0 0 0 0 0 0 0 0 0 0 0 0 0.5 0" in="shadowBlurOuter1"/></filter></defs><g fill="none" fill-rule="evenodd"><path fill="#EDC642" d="M0 0h1173v247H0z"/><g class="channel-header"><path fill="#005B82" d="M288 48h63v4h-63z"/><path d="M288.975 41.85v-9.9c0-.09.06-.15.15-.15h6.54c.09 0 .15.06.15.15v1.605c0 .09-.06.15-.15.15h-4.395c-.06 0-.09.03-.09.09v2.145c0 .06.03.09.09.09h3.66c.09 0 .15.06.15.15v1.59c0 .09-.06.15-.15.15h-3.66c-.06 0-.09.03-.09.09v3.84c0 .09-.06.15-.15.15h-1.905c-.09 0-.15-.06-.15-.15zm9.075 0v-9.9c0-.09.06-.15.15-.15h1.905c.09 0 .15.06.15.15v7.995c0 .06.03.09.09.09h4.5c.09 0 .15.06.15.15v1.665c0 .09-.06.15-.15.15H298.2c-.09 0-.15-.06-.15-.15zm8.97 0v-9.9c0-.09.06-.15.15-.15h1.905c.09 0 .15.06.15.15v9.9c0 .09-.06.15-.15.15h-1.905c-.09 0-.15-.06-.15-.15zm4.89-2.16c-.225-.705-.285-1.275-.285-2.79 0-1.515.06-2.085.285-2.79.525-1.65 1.935-2.475 3.75-2.475 1.905 0 3.15.945 3.63 2.175.045.09.03.18-.06.225l-1.605.675c-.105.03-.18 0-.21-.075-.405-.69-.915-1.05-1.755-1.05-.87 0-1.41.435-1.635 1.14-.12.36-.165.84-.165 2.175s.045 1.83.165 2.19c.225.705.78 1.125 1.665 1.125.765 0 1.425-.375 1.635-1.05.075-.255.12-.57.12-1.005 0-.06-.03-.09-.09-.09h-1.38c-.09 0-.15-.06-.15-.15v-1.44c0-.09.06-.15.15-.15h3.51c.09 0 .15.06.15.15v.84c0 .9-.075 1.74-.255 2.295-.51 1.635-1.92 2.55-3.72 2.55-1.815 0-3.225-.825-3.75-2.475zm10.125 2.16v-9.9c0-.09.06-.15.15-.15h1.905c.09 0 .15.06.15.15v3.825c0 .06.03.09.09.09h3.33c.06 0 .09-.03.09-.09V31.95c0-.09.06-.15.15-.15h1.905c.09 0 .15.06.15.15v9.9c0 .09-.06.15-.15.15H327.9c-.09 0-.15-.06-.15-.15v-3.93c0-.06-.03-.09-.09-.09h-3.33c-.06 0-.09.03-.09.09v3.93c0 .09-.06.15-.15.15h-1.905c-.09 0-.15-.06-.15-.15zm14.745.15h-1.905c-.09 0-.15-.06-.15-.15v-7.995c0-.06-.03-.09-.09-.09h-2.58c-.09 0-.15-.06-.15-.15V31.95c0-.09.06-.15.15-.15h7.545c.09 0 .15.06.15.15v1.665c0 .09-.06.15-.15.15h-2.58c-.06 0-.09.03-.09.09v7.995c0 .09-.06.15-.15.15zm8.355.165c-1.59 0-3.135-.63-3.93-1.395-.06-.06-.09-.165-.015-.255l1.14-1.305c.06-.075.15-.075.225-.015.675.54 1.59 1.05 2.67 1.05 1.065 0 1.665-.495 1.665-1.215 0-.6-.36-.975-1.575-1.14l-.54-.075c-2.07-.285-3.225-1.26-3.225-3.06 0-1.875 1.41-3.12 3.615-3.12 1.35 0 2.61.405 3.465 1.065.09.06.105.12.03.225l-.915 1.365c-.06.075-.135.09-.21.045-.78-.51-1.53-.78-2.37-.78-.9 0-1.365.465-1.365 1.11 0 .585.42.96 1.59 1.125l.54.075c2.1.285 3.21 1.245 3.21 3.09 0 1.845-1.365 3.21-4.005 3.21zm-193.541-7.934c-2.499 0-4.473-1.155-5.208-3.465-.315-.987-.399-1.785-.399-3.906 0-2.121.084-2.919.399-3.906.735-2.31 2.709-3.465 5.208-3.465s4.473 1.155 5.208 3.465c.315.987.399 1.785.399 3.906 0 2.121-.084 2.919-.399 3.906-.735 2.31-2.709 3.465-5.208 3.465zm0-2.73c1.176 0 1.932-.588 2.247-1.575.168-.504.231-1.197.231-3.066 0-1.869-.063-2.562-.231-3.066-.315-.987-1.071-1.575-2.247-1.575s-1.932.588-2.247 1.575c-.168.504-.231 1.197-.231 3.066 0 1.869.063 2.562.231 3.066.315.987 1.071 1.575 2.247 1.575zm9.441 2.289V19.93c0-.126.084-.21.21-.21h2.52a.39.39 0 0 1 .357.21l5.04 8.988h.105V19.93c0-.126.084-.21.21-.21h2.373c.126 0 .21.084.21.21v13.86c0 .126-.084.21-.21.21h-2.499c-.168 0-.273-.063-.357-.21l-5.06-8.967h-.106v8.967c0 .126-.084.21-.21.21h-2.373c-.126 0-.21-.084-.21-.21zm15.238 0V19.93c0-.126.084-.21.21-.21h2.667c.126 0 .21.084.21.21v11.193c0 .084.042.126.126.126h6.3c.126 0 .21.084.21.21v2.331c0 .126-.084.21-.21.21h-9.303c-.126 0-.21-.084-.21-.21zm13.032 0V19.93c0-.126.084-.21.21-.21h2.667c.126 0 .21.084.21.21v13.86c0 .126-.084.21-.21.21h-2.667c-.126 0-.21-.084-.21-.21zm7.3 0V19.93c0-.126.083-.21.21-.21h2.52a.39.39 0 0 1 .356.21l5.04 8.988h.105V19.93c0-.126.084-.21.21-.21h2.373c.126 0 .21.084.21.21v13.86c0 .126-.084.21-.21.21h-2.499c-.168 0-.273-.063-.357-.21l-5.06-8.967h-.106v8.967c0 .126-.084.21-.21.21h-2.373c-.126 0-.21-.084-.21-.21zm15.237 0V19.93c0-.126.084-.21.21-.21h9.156c.126 0 .21.084.21.21v2.247c0 .126-.084.21-.21.21h-6.153c-.084 0-.126.042-.126.126v2.835c0 .084.042.126.126.126h5.124c.126 0 .21.084.21.21v2.226c0 .126-.084.21-.21.21h-5.124c-.084 0-.126.042-.126.126v2.961c0 .084.042.126.126.126h6.153c.126 0 .21.084.21.21v2.247c0 .126-.084.21-.21.21h-9.156c-.126 0-.21-.084-.21-.21zM152.182 55h-2.667c-.126 0-.21-.084-.21-.21V43.597c0-.084-.042-.126-.126-.126h-3.612c-.126 0-.21-.084-.21-.21V40.93c0-.126.084-.21.21-.21h10.563c.126 0 .21.084.21.21v2.331c0 .126-.084.21-.21.21h-3.612c-.084 0-.126.042-.126.126V54.79c0 .126-.084.21-.21.21zm18.24 0h-2.982c-.189 0-.252-.063-.315-.21l-2.457-5.229h-1.91c-.085 0-.127.042-.127.126v5.103c0 .126-.084.21-.21.21h-2.667c-.126 0-.21-.084-.21-.21V40.93c0-.126.084-.21.21-.21h5.691c2.92 0 4.851 1.827 4.851 4.431 0 1.827-.966 3.276-2.54 3.969l2.813 5.628c.063.126 0 .252-.147.252zm-5.145-8.064c1.176 0 1.932-.693 1.932-1.785 0-1.071-.756-1.764-1.932-1.764h-2.52c-.084 0-.126.042-.126.126v3.297c0 .084.042.126.126.126h2.52zm7.783 7.854l4.914-13.86c.042-.126.126-.21.273-.21h2.646c.147 0 .23.084.273.21l4.83 13.86c.042.126 0 .21-.147.21h-2.73c-.147 0-.231-.063-.273-.21l-.82-2.499h-4.997l-.798 2.499c-.042.147-.126.21-.273.21h-2.751c-.147 0-.19-.084-.147-.21zm4.83-5.124h3.297l-1.617-4.998h-.063l-1.617 4.998zM194.408 55h-2.436c-.147 0-.23-.084-.273-.21l-4.536-13.839c-.042-.147.042-.231.19-.231h2.73c.146 0 .23.063.272.21l2.856 9.366h.063l2.772-9.366c.042-.147.126-.21.273-.21h2.71c.125 0 .21.084.167.231L194.66 54.79c-.042.126-.126.21-.252.21zm7.866-.21V40.93c0-.126.084-.21.21-.21h9.156c.126 0 .21.084.21.21v2.247c0 .126-.084.21-.21.21h-6.153c-.084 0-.126.042-.126.126v2.835c0 .084.042.126.126.126h5.124c.126 0 .21.084.21.21v2.226c0 .126-.084.21-.21.21h-5.124c-.084 0-.126.042-.126.126v2.961c0 .084.042.126.126.126h6.153c.126 0 .21.084.21.21v2.247c0 .126-.084.21-.21.21h-9.156c-.126 0-.21-.084-.21-.21zm13.348 0V40.93c0-.126.084-.21.21-.21h2.667c.126 0 .21.084.21.21v11.193c0 .084.042.126.126.126h6.3c.126 0 .21.084.21.21v2.331c0 .126-.084.21-.21.21h-9.303c-.126 0-.21-.084-.21-.21zm165.353-12.94v-9.9c0-.09.06-.15.15-.15h1.905c.09 0 .15.06.15.15v3.825c0 .06.03.09.09.09h3.33c.06 0 .09-.03.09-.09V31.95c0-.09.06-.15.15-.15h1.905c.09 0 .15.06.15.15v9.9c0 .09-.06.15-.15.15h-1.905c-.09 0-.15-.06-.15-.15v-3.93c0-.06-.03-.09-.09-.09h-3.33c-.06 0-.09.03-.09.09v3.93c0 .09-.06.15-.15.15h-1.905c-.09 0-.15-.06-.15-.15zm14.325.315c-1.785 0-3.195-.825-3.72-2.475-.225-.705-.285-1.275-.285-2.79 0-1.515.06-2.085.285-2.79.525-1.65 1.935-2.475 3.72-2.475 1.785 0 3.195.825 3.72 2.475.225.705.285 1.275.285 2.79 0 1.515-.06 2.085-.285 2.79-.525 1.65-1.935 2.475-3.72 2.475zm0-1.95c.84 0 1.38-.42 1.605-1.125.12-.36.165-.855.165-2.19s-.045-1.83-.165-2.19c-.225-.705-.765-1.125-1.605-1.125s-1.38.42-1.605 1.125c-.12.36-.165.855-.165 2.19s.045 1.83.165 2.19c.225.705.765 1.125 1.605 1.125zM405.59 42h-1.905c-.09 0-.15-.06-.15-.15v-7.995c0-.06-.03-.09-.09-.09h-2.58c-.09 0-.15-.06-.15-.15V31.95c0-.09.06-.15.15-.15h7.545c.09 0 .15.06.15.15v1.665c0 .09-.06.15-.15.15h-2.58c-.06 0-.09.03-.09.09v7.995c0 .09-.06.15-.15.15zm4.92-.15v-9.9c0-.09.06-.15.15-.15h6.54c.09 0 .15.06.15.15v1.605c0 .09-.06.15-.15.15h-4.395c-.06 0-.09.03-.09.09v2.025c0 .06.03.09.09.09h3.66c.09 0 .15.06.15.15v1.59c0 .09-.06.15-.15.15h-3.66c-.06 0-.09.03-.09.09v2.115c0 .06.03.09.09.09h4.395c.09 0 .15.06.15.15v1.605c0 .09-.06.15-.15.15h-6.54c-.09 0-.15-.06-.15-.15zm9.195 0v-9.9c0-.09.06-.15.15-.15h1.905c.09 0 .15.06.15.15v7.995c0 .06.03.09.09.09h4.5c.09 0 .15.06.15.15v1.665c0 .09-.06.15-.15.15h-6.645c-.09 0-.15-.06-.15-.15zm12.405.315c-1.59 0-3.135-.63-3.93-1.395-.06-.06-.09-.165-.015-.255l1.14-1.305c.06-.075.15-.075.225-.015.675.54 1.59 1.05 2.67 1.05 1.065 0 1.665-.495 1.665-1.215 0-.6-.36-.975-1.575-1.14l-.54-.075c-2.07-.285-3.225-1.26-3.225-3.06 0-1.875 1.41-3.12 3.615-3.12 1.35 0 2.61.405 3.465 1.065.09.06.105.12.03.225l-.915 1.365c-.06.075-.135.09-.21.045-.78-.51-1.53-.78-2.37-.78-.9 0-1.365.465-1.365 1.11 0 .585.42.96 1.59 1.125l.54.075c2.1.285 3.21 1.245 3.21 3.09 0 1.845-1.365 3.21-4.005 3.21zM472.205 42H470.3c-.09 0-.15-.06-.15-.15v-3.915l-3.015-5.985c-.03-.075 0-.15.105-.15h1.95c.105 0 .18.045.225.15l1.845 3.72h.045l1.845-3.72a.225.225 0 0 1 .225-.15h1.89c.105 0 .15.075.105.15l-3.015 5.985v3.915c0 .09-.06.15-.15.15zm8.535.165c-1.785 0-3.195-.825-3.72-2.475-.225-.705-.285-1.275-.285-2.79 0-1.515.06-2.085.285-2.79.525-1.65 1.935-2.475 3.72-2.475 1.785 0 3.195.825 3.72 2.475.225.705.285 1.275.285 2.79 0 1.515-.06 2.085-.285 2.79-.525 1.65-1.935 2.475-3.72 2.475zm0-1.95c.84 0 1.38-.42 1.605-1.125.12-.36.165-.855.165-2.19s-.045-1.83-.165-2.19c-.225-.705-.765-1.125-1.605-1.125s-1.38.42-1.605 1.125c-.12.36-.165.855-.165 2.19s.045 1.83.165 2.19c.225.705.765 1.125 1.605 1.125zm10.275 1.95c-2.295 0-3.915-1.38-3.915-3.915v-6.3c0-.09.06-.15.15-.15h1.905c.09 0 .15.06.15.15v6.36c0 1.215.675 1.905 1.71 1.905 1.02 0 1.695-.69 1.695-1.905v-6.36c0-.09.06-.15.15-.15h1.905c.09 0 .15.06.15.15v6.3c0 2.535-1.62 3.915-3.9 3.915zM505.31 42h-2.13c-.135 0-.18-.045-.225-.15l-1.755-3.735h-1.365c-.06 0-.09.03-.09.09v3.645c0 .09-.06.15-.15.15h-1.905c-.09 0-.15-.06-.15-.15v-9.9c0-.09.06-.15.15-.15h4.065c2.085 0 3.465 1.305 3.465 3.165 0 1.305-.69 2.34-1.815 2.835l2.01 4.02c.045.09 0 .18-.105.18zm-3.675-5.76c.84 0 1.38-.495 1.38-1.275 0-.765-.54-1.26-1.38-1.26h-1.8c-.06 0-.09.03-.09.09v2.355c0 .06.03.09.09.09h1.8zm10.245 5.61v-9.9c0-.09.06-.15.15-.15h3.975c2.22 0 3.255 1.095 3.255 2.715 0 1.11-.51 1.8-1.185 2.175v.03c.675.255 1.365 1.095 1.365 2.31 0 2.01-1.335 2.97-3.54 2.97h-3.87c-.09 0-.15-.06-.15-.15zm2.295-5.88h1.56c.84 0 1.335-.45 1.335-1.2s-.495-1.185-1.335-1.185h-1.56c-.06 0-.09.03-.09.09v2.205c0 .06.03.09.09.09zm-.09 4.155c0 .06.03.09.09.09h1.68c.9 0 1.38-.48 1.38-1.275 0-.78-.48-1.275-1.38-1.275h-1.68c-.06 0-.09.03-.09.09v2.37zm11.4 2.04c-1.785 0-3.195-.825-3.72-2.475-.225-.705-.285-1.275-.285-2.79 0-1.515.06-2.085.285-2.79.525-1.65 1.935-2.475 3.72-2.475 1.785 0 3.195.825 3.72 2.475.225.705.285 1.275.285 2.79 0 1.515-.06 2.085-.285 2.79-.525 1.65-1.935 2.475-3.72 2.475zm0-1.95c.84 0 1.38-.42 1.605-1.125.12-.36.165-.855.165-2.19s-.045-1.83-.165-2.19c-.225-.705-.765-1.125-1.605-1.125s-1.38.42-1.605 1.125c-.12.36-.165.855-.165 2.19s.045 1.83.165 2.19c.225.705.765 1.125 1.605 1.125zm10.14 1.95c-1.785 0-3.195-.825-3.72-2.475-.225-.705-.285-1.275-.285-2.79 0-1.515.06-2.085.285-2.79.525-1.65 1.935-2.475 3.72-2.475 1.785 0 3.195.825 3.72 2.475.225.705.285 1.275.285 2.79 0 1.515-.06 2.085-.285 2.79-.525 1.65-1.935 2.475-3.72 2.475zm0-1.95c.84 0 1.38-.42 1.605-1.125.12-.36.165-.855.165-2.19s-.045-1.83-.165-2.19c-.225-.705-.765-1.125-1.605-1.125s-1.38.42-1.605 1.125c-.12.36-.165.855-.165 2.19s.045 1.83.165 2.19c.225.705.765 1.125 1.605 1.125zm6.405 1.635v-9.9c0-.09.06-.15.15-.15h1.905c.09 0 .15.06.15.15v4.41l3.39-4.425c.075-.105.135-.135.255-.135h2.175c.09 0 .135.105.06.195l-3.09 3.87 3.375 5.955c.06.105.015.18-.09.18h-2.205c-.12 0-.165-.03-.225-.135l-2.31-4.29-1.335 1.68v2.595c0 .09-.06.15-.15.15h-1.905c-.09 0-.15-.06-.15-.15zm10.395 0v-9.9c0-.09.06-.15.15-.15h1.905c.09 0 .15.06.15.15v9.9c0 .09-.06.15-.15.15h-1.905c-.09 0-.15-.06-.15-.15zm4.875 0v-9.9c0-.09.06-.15.15-.15h1.8c.105 0 .195.045.255.15l3.6 6.42h.075v-6.42c0-.09.06-.15.15-.15h1.695c.09 0 .15.06.15.15v9.9c0 .09-.06.15-.15.15h-1.785c-.12 0-.195-.045-.255-.15l-3.615-6.405h-.075v6.405c0 .09-.06.15-.15.15h-1.695c-.09 0-.15-.06-.15-.15zm10.56-2.16c-.225-.705-.285-1.275-.285-2.79 0-1.515.06-2.085.285-2.79.525-1.65 1.935-2.475 3.75-2.475 1.905 0 3.15.945 3.63 2.175.045.09.03.18-.06.225l-1.605.675c-.105.03-.18 0-.21-.075-.405-.69-.915-1.05-1.755-1.05-.87 0-1.41.435-1.635 1.14-.12.36-.165.84-.165 2.175s.045 1.83.165 2.19c.225.705.78 1.125 1.665 1.125.765 0 1.425-.375 1.635-1.05.075-.255.12-.57.12-1.005 0-.06-.03-.09-.09-.09h-1.38c-.09 0-.15-.06-.15-.15v-1.44c0-.09.06-.15.15-.15h3.51c.09 0 .15.06.15.15v.84c0 .9-.075 1.74-.255 2.295-.51 1.635-1.92 2.55-3.72 2.55-1.815 0-3.225-.825-3.75-2.475zm13.56 2.475c-1.59 0-3.135-.63-3.93-1.395-.06-.06-.09-.165-.015-.255l1.14-1.305c.06-.075.15-.075.225-.015.675.54 1.59 1.05 2.67 1.05 1.065 0 1.665-.495 1.665-1.215 0-.6-.36-.975-1.575-1.14l-.54-.075c-2.07-.285-3.225-1.26-3.225-3.06 0-1.875 1.41-3.12 3.615-3.12 1.35 0 2.61.405 3.465 1.065.09.06.105.12.03.225l-.915 1.365c-.06.075-.135.09-.21.045-.78-.51-1.53-.78-2.37-.78-.9 0-1.365.465-1.365 1.11 0 .585.42.96 1.59 1.125l.54.075c2.1.285 3.21 1.245 3.21 3.09 0 1.845-1.365 3.21-4.005 3.21zM121 22c-6.617 0-12 5.383-12 12s5.383 12 12 12 12-5.383 12-12-5.383-12-12-12zm9.431 16.435h-3.467c.285-1.083.475-2.3.53-3.652h3.9a10.34 10.34 0 0 1-.963 3.652zm-19.826-3.652h3.77c.056 1.353.246 2.569.53 3.652h-3.336a10.34 10.34 0 0 1-.964-3.652zm.964-5.218h3.336a17.148 17.148 0 0 0-.53 3.652h-3.77a10.34 10.34 0 0 1 .964-3.652zM121.783 28v-4.184c.509.425 1.937 1.778 2.984 4.184h-2.984zm3.553 1.565c.314 1.061.53 2.279.593 3.652h-4.146v-3.652h3.553zm-5.119-5.855V28h-3.127c1.16-2.686 2.799-4.04 3.127-4.29zm0 5.855v3.652h-4.277a15.45 15.45 0 0 1 .584-3.652h3.693zm-4.277 5.218h4.277v3.652h-3.684a15.322 15.322 0 0 1-.593-3.652zM120.217 40v4.29c-.33-.257-1.957-1.63-3.114-4.29h3.114zm1.566 4.185V40h2.997c-1.048 2.424-2.483 3.763-2.997 4.185zm0-5.75v-3.652h4.147a15.457 15.457 0 0 1-.585 3.652h-3.562zm5.712-5.218a17.149 17.149 0 0 0-.53-3.652h3.466a10.34 10.34 0 0 1 .964 3.652h-3.9zM129.523 28h-3.054a14.019 14.019 0 0 0-2.248-3.92 10.47 10.47 0 0 1 5.302 3.92zm-11.927-3.853A14.013 14.013 0 0 0 115.401 28h-2.924a10.47 10.47 0 0 1 5.12-3.853zM112.477 40h2.924a14.013 14.013 0 0 0 2.195 3.853A10.47 10.47 0 0 1 112.477 40zm11.744 3.92a14.017 14.017 0 0 0 2.248-3.92h3.054a10.47 10.47 0 0 1-5.302 3.92z" fill="#003D4C" fill-rule="nonzero"/></g><g class="channel-tools"><g transform="translate(1075 101)"><circle fill="#FFF" cx="23" cy="23" r="23"/><path d="M11.5 23h23.434m-9.954-9.953L34.934 23m-9.954 9.953L34.934 23" stroke="#005B82" stroke-linecap="round" stroke-width="5"/></g><path fill="#005B82" d="M877 178h34v17h-34z"/><path d="M888.678 191h-2.309l-3.726-6.48h-.053c.074 1.144.111 1.96.111 2.449V191h-1.623v-8.566h2.291l3.72 6.416h.042a51.947 51.947 0 0 1-.088-2.362v-4.054h1.635V191zm7.09 0h-4.934v-8.566h4.934v1.488h-3.118v1.88h2.9v1.489h-2.9v2.209h3.118v1.5zm10.13 0h-2.068l-1.16-4.5c-.043-.16-.116-.491-.22-.993a11.336 11.336 0 0 1-.179-1.01c-.023.21-.082.549-.175 1.016-.094.466-.166.8-.217.999L900.725 191h-2.063l-2.185-8.566h1.787l1.095 4.675c.192.864.33 1.612.416 2.245.024-.223.078-.568.162-1.035.084-.466.163-.829.237-1.087l1.248-4.798h1.717l1.248 4.798c.054.215.123.543.205.985.082.441.144.82.187 1.137.04-.305.102-.685.188-1.14.086-.455.164-.823.234-1.105l1.09-4.675h1.787l-2.18 8.566z" fill="#FFF" fill-rule="nonzero"/><path d="M888.957 211h-1.86l-4.564-7.395h-.051l.032.413c.059.787.089 1.506.089 2.158V211h-1.378v-9.28h1.84l4.552 7.357h.038a43.054 43.054 0 0 1-.05-1.064 36.739 36.739 0 0 1-.039-1.431v-4.862h1.39V211zm6.684 0l-.299-.978h-.05c-.339.428-.68.719-1.022.873-.343.155-.783.232-1.32.232-.69 0-1.23-.186-1.616-.559-.387-.372-.581-.899-.581-1.58 0-.724.269-1.27.806-1.638.538-.368 1.356-.57 2.457-.603l1.212-.038v-.375c0-.448-.105-.783-.314-1.006-.21-.222-.534-.333-.975-.333-.36 0-.704.053-1.034.159-.33.106-.648.23-.952.374l-.483-1.066c.381-.199.798-.35 1.25-.454.454-.104.88-.155 1.283-.155.893 0 1.567.194 2.022.584.455.389.682 1 .682 1.834V211h-1.066zm-2.222-1.016c.542 0 .976-.15 1.304-.453.328-.303.492-.727.492-1.273v-.61l-.901.039c-.703.025-1.213.142-1.533.352-.32.21-.48.53-.48.961 0 .314.094.556.28.727.186.172.466.257.838.257zm7.985-.063c.364 0 .728-.057 1.092-.171v1.123a3.011 3.011 0 0 1-.638.181c-.26.049-.53.073-.81.073-1.413 0-2.12-.745-2.12-2.234v-3.784h-.958v-.66l1.029-.546.507-1.485h.92v1.561h2v1.13h-2v3.758c0 .36.09.625.27.797.18.171.416.257.708.257zM908.85 211l-.21-.92h-.076a2.116 2.116 0 0 1-.885.768 2.96 2.96 0 0 1-1.31.279c-.851 0-1.486-.212-1.905-.635-.42-.423-.629-1.064-.629-1.923v-4.59h1.505v4.33c0 .537.11.94.33 1.209.22.269.565.403 1.035.403.626 0 1.086-.187 1.38-.562.294-.374.441-1.002.441-1.882v-3.498h1.498V211h-1.174zm6.862-7.147c.3 0 .548.02.743.063l-.146 1.39a2.82 2.82 0 0 0-.66-.076c-.597 0-1.08.195-1.451.584-.37.39-.555.895-.555 1.517V211h-1.492v-7.02h1.168l.197 1.237h.076c.233-.419.536-.75.91-.996a2.165 2.165 0 0 1 1.21-.368zm6.176 7.147l-.298-.978h-.05c-.34.428-.68.719-1.023.873-.343.155-.783.232-1.32.232-.69 0-1.228-.186-1.616-.559-.387-.372-.58-.899-.58-1.58 0-.724.268-1.27.806-1.638.537-.368 1.356-.57 2.456-.603l1.213-.038v-.375c0-.448-.105-.783-.315-1.006-.21-.222-.534-.333-.974-.333-.36 0-.705.053-1.035.159-.33.106-.647.23-.952.374l-.482-1.066c.38-.199.797-.35 1.25-.454.453-.104.88-.155 1.282-.155.893 0 1.567.194 2.022.584.455.389.683 1 .683 1.834V211h-1.067zm-2.221-1.016c.541 0 .976-.15 1.304-.453.328-.303.492-.727.492-1.273v-.61l-.901.039c-.703.025-1.214.142-1.533.352-.32.21-.48.53-.48.961 0 .314.093.556.28.727.186.172.465.257.838.257zm6.861 1.016h-1.491v-9.877h1.491V211zm5.669 0v-9.28h1.517v7.979h3.93V211h-5.447zm11.28 0l-.299-.978h-.05c-.34.428-.68.719-1.023.873-.342.155-.782.232-1.32.232-.69 0-1.228-.186-1.615-.559-.388-.372-.581-.899-.581-1.58 0-.724.269-1.27.806-1.638.537-.368 1.356-.57 2.457-.603l1.212-.038v-.375c0-.448-.105-.783-.314-1.006-.21-.222-.535-.333-.975-.333-.36 0-.704.053-1.034.159-.33.106-.648.23-.952.374l-.483-1.066c.381-.199.798-.35 1.25-.454.453-.104.88-.155 1.283-.155.893 0 1.567.194 2.022.584.455.389.682 1 .682 1.834V211h-1.066zm-2.222-1.016c.542 0 .976-.15 1.304-.453.328-.303.492-.727.492-1.273v-.61l-.901.039c-.703.025-1.214.142-1.533.352-.32.21-.48.53-.48.961 0 .314.094.556.28.727.186.172.465.257.838.257zM952.8 211h-1.498v-4.316c0-.542-.109-.946-.327-1.213-.218-.266-.564-.4-1.038-.4-.63 0-1.091.186-1.383.559-.292.372-.438.996-.438 1.872V211h-1.492v-7.02h1.168l.21.92h.076c.211-.334.512-.593.901-.775a3.02 3.02 0 0 1 1.295-.272c1.684 0 2.526.856 2.526 2.57V211zm8.005-7.02v.818l-1.2.223c.11.148.201.33.273.545.072.216.108.445.108.686 0 .724-.25 1.293-.75 1.707-.499.415-1.186.623-2.062.623a3.34 3.34 0 0 1-.61-.051c-.321.199-.482.431-.482.698 0 .16.075.281.225.362.15.08.427.12.829.12h1.225c.774 0 1.362.165 1.764.496.402.33.603.806.603 1.428 0 .795-.327 1.409-.983 1.84-.656.432-1.604.648-2.844.648-.957 0-1.687-.17-2.19-.508-.504-.338-.755-.82-.755-1.447 0-.432.136-.795.409-1.089.273-.294.655-.498 1.146-.612a1.121 1.121 0 0 1-.492-.41 1.034 1.034 0 0 1-.194-.593c0-.263.074-.485.222-.667.148-.182.369-.361.66-.54a1.955 1.955 0 0 1-.885-.764c-.226-.353-.34-.767-.34-1.241 0-.762.24-1.352.72-1.771.481-.419 1.166-.628 2.054-.628a5.086 5.086 0 0 1 1.118.126h2.43zm-5.516 8.112c0 .321.144.569.434.742.29.174.698.26 1.222.26.813 0 1.418-.116 1.816-.348.398-.233.596-.542.596-.927 0-.305-.109-.522-.327-.65-.217-.13-.623-.194-1.215-.194h-1.13c-.427 0-.767.1-1.019.301-.252.201-.377.473-.377.816zm.64-5.84c0 .44.114.779.34 1.016.227.237.551.355.975.355.863 0 1.295-.461 1.295-1.384 0-.457-.107-.81-.321-1.057-.214-.247-.538-.371-.974-.371-.432 0-.759.123-.981.368-.222.246-.333.603-.333 1.073zm11.13 4.748l-.21-.92h-.076a2.116 2.116 0 0 1-.885.768 2.96 2.96 0 0 1-1.31.279c-.851 0-1.486-.212-1.905-.635-.42-.423-.629-1.064-.629-1.923v-4.59h1.505v4.33c0 .537.11.94.33 1.209.22.269.565.403 1.035.403.626 0 1.086-.187 1.38-.562.294-.374.441-1.002.441-1.882v-3.498h1.498V211h-1.174zm7.693 0l-.298-.978h-.05c-.34.428-.68.719-1.023.873-.342.155-.783.232-1.32.232-.69 0-1.228-.186-1.615-.559-.388-.372-.581-.899-.581-1.58 0-.724.268-1.27.806-1.638.537-.368 1.356-.57 2.456-.603l1.213-.038v-.375c0-.448-.105-.783-.314-1.006-.21-.222-.535-.333-.975-.333-.36 0-.704.053-1.034.159-.33.106-.648.23-.953.374l-.482-1.066c.38-.199.798-.35 1.25-.454.453-.104.88-.155 1.283-.155.893 0 1.567.194 2.021.584.455.389.683 1 .683 1.834V211h-1.067zm-2.221-1.016c.541 0 .976-.15 1.304-.453.328-.303.492-.727.492-1.273v-.61l-.901.039c-.703.025-1.214.142-1.533.352-.32.21-.48.53-.48.961 0 .314.094.556.28.727.186.172.465.257.838.257zm11.299-6.005v.82l-1.2.222c.11.148.2.33.273.545.072.216.108.445.108.686 0 .724-.25 1.293-.75 1.707-.499.415-1.186.623-2.062.623-.225 0-.428-.017-.61-.051-.321.199-.482.431-.482.698 0 .16.075.281.225.362.15.08.427.12.829.12h1.225c.774 0 1.362.165 1.764.496.402.33.603.806.603 1.428 0 .795-.328 1.409-.983 1.84-.656.432-1.604.648-2.844.648-.957 0-1.687-.17-2.19-.508-.504-.338-.756-.82-.756-1.447 0-.432.137-.795.41-1.089.273-.294.655-.498 1.146-.612a1.121 1.121 0 0 1-.492-.41 1.034 1.034 0 0 1-.194-.593c0-.263.074-.485.222-.667.148-.182.368-.361.66-.54a1.955 1.955 0 0 1-.885-.764c-.226-.353-.34-.767-.34-1.241 0-.762.24-1.352.72-1.771.481-.419 1.166-.628 2.054-.628a5.086 5.086 0 0 1 1.117.126h2.432zm-5.516 8.113c0 .321.144.569.434.742.29.174.697.26 1.222.26.813 0 1.418-.116 1.816-.348.397-.233.596-.542.596-.927 0-.305-.109-.522-.327-.65-.217-.13-.623-.194-1.215-.194h-1.13c-.427 0-.767.1-1.019.301-.252.201-.378.473-.378.816zm.64-5.84c0 .44.114.779.34 1.016.227.237.551.355.975.355.863 0 1.294-.461 1.294-1.384 0-.457-.106-.81-.32-1.057-.214-.247-.539-.371-.974-.371-.432 0-.759.123-.981.368-.222.246-.333.603-.333 1.073zm9.243 4.875c-1.092 0-1.946-.318-2.561-.955-.616-.637-.924-1.514-.924-2.631 0-1.147.286-2.049.857-2.705.571-.656 1.356-.983 2.355-.983.927 0 1.659.28 2.196.844.538.563.806 1.337.806 2.323v.806h-4.678c.021.681.205 1.205.552 1.571.347.366.836.55 1.467.55.414 0 .8-.04 1.158-.118a6.072 6.072 0 0 0 1.152-.39v1.212a4.58 4.58 0 0 1-1.104.368 6.773 6.773 0 0 1-1.276.108zm-.273-6.145c-.474 0-.854.15-1.14.451-.285.3-.456.739-.51 1.314h3.186c-.008-.58-.148-1.019-.419-1.317-.27-.298-.643-.448-1.117-.448zm13.584 3.498c0 .825-.298 1.473-.895 1.942-.597.47-1.42.705-2.47.705-1.049 0-1.908-.163-2.577-.489v-1.434c.424.199.873.355 1.35.47.475.114.919.17 1.33.17.6 0 1.043-.114 1.329-.342.286-.229.428-.535.428-.92 0-.347-.13-.642-.393-.883-.262-.241-.804-.527-1.625-.857-.846-.342-1.443-.734-1.79-1.174-.347-.44-.52-.97-.52-1.587 0-.774.274-1.384.825-1.828.55-.444 1.288-.667 2.215-.667.889 0 1.773.195 2.653.584l-.482 1.238c-.825-.347-1.562-.52-2.21-.52-.49 0-.862.107-1.116.32a1.053 1.053 0 0 0-.381.848c0 .24.05.447.152.619.102.17.269.333.502.485.232.153.651.354 1.256.603.682.284 1.181.548 1.498.794.318.245.55.522.699.831.148.31.222.673.222 1.092zm4.703 2.647c-1.091 0-1.945-.318-2.56-.955-.617-.637-.924-1.514-.924-2.631 0-1.147.285-2.049.857-2.705.57-.656 1.356-.983 2.355-.983.926 0 1.658.28 2.196.844.537.563.806 1.337.806 2.323v.806h-4.678c.02.681.205 1.205.552 1.571.347.366.836.55 1.466.55.415 0 .801-.04 1.159-.118a6.072 6.072 0 0 0 1.152-.39v1.212a4.58 4.58 0 0 1-1.105.368 6.773 6.773 0 0 1-1.276.108zm-.273-6.145c-.473 0-.853.15-1.139.451-.286.3-.456.739-.51 1.314h3.186c-.009-.58-.148-1.019-.42-1.317-.27-.298-.643-.448-1.116-.448zm9.09 6.018l-.298-.978h-.05c-.34.428-.68.719-1.023.873-.343.155-.783.232-1.32.232-.69 0-1.228-.186-1.616-.559-.387-.372-.58-.899-.58-1.58 0-.724.268-1.27.806-1.638.537-.368 1.356-.57 2.456-.603l1.213-.038v-.375c0-.448-.105-.783-.314-1.006-.21-.222-.535-.333-.975-.333-.36 0-.704.053-1.034.159-.33.106-.648.23-.953.374l-.482-1.066c.38-.199.798-.35 1.25-.454.453-.104.88-.155 1.283-.155.893 0 1.566.194 2.021.584.455.389.683 1 .683 1.834V211h-1.067zm-2.221-1.016c.541 0 .976-.15 1.304-.453.328-.303.492-.727.492-1.273v-.61l-.901.039c-.703.025-1.214.142-1.533.352-.32.21-.48.53-.48.961 0 .314.094.556.28.727.186.172.465.257.838.257zm8.93-6.131c.301 0 .549.02.743.063l-.146 1.39a2.82 2.82 0 0 0-.66-.076c-.596 0-1.08.195-1.45.584-.37.39-.556.895-.556 1.517V211h-1.491v-7.02h1.168l.197 1.237h.076a2.78 2.78 0 0 1 .91-.996 2.165 2.165 0 0 1 1.21-.368zm4.616 7.274c-1.063 0-1.87-.31-2.422-.93-.552-.62-.828-1.51-.828-2.67 0-1.18.288-2.088.866-2.722.578-.635 1.412-.952 2.504-.952.74 0 1.407.137 2 .412l-.451 1.2c-.63-.246-1.151-.368-1.562-.368-1.214 0-1.821.806-1.821 2.418 0 .787.151 1.379.454 1.774.302.396.745.594 1.33.594.664 0 1.292-.165 1.885-.495v1.301a2.946 2.946 0 0 1-.854.336c-.303.068-.67.102-1.101.102zm9.781-.127h-1.498v-4.316c0-.542-.109-.946-.327-1.213-.218-.266-.564-.4-1.037-.4-.627 0-1.087.188-1.381.562-.294.375-.441 1.002-.441 1.882V211h-1.492v-9.877h1.492v2.507c0 .402-.026.832-.076 1.289h.095c.203-.339.485-.601.847-.787.362-.186.784-.28 1.267-.28 1.7 0 2.551.857 2.551 2.571V211z" fill="#003D4C" fill-rule="nonzero"/><path d="M601.019 125.545l-7.019 7.02m-7.019-7.02l7.019 7.02" stroke="#005B82" stroke-linecap="round" stroke-width="2"/><path d="M464.95 136h-2c-.175 0-.25-.075-.325-.25l-3.4-6.95h-3.75c-.1 0-.15.05-.15.15v6.8c0 .15-.1.25-.25.25h-1.725c-.15 0-.25-.1-.25-.25v-16.5c0-.15.1-.25.25-.25h6.15c3.175 0 5.325 1.95 5.325 4.9 0 2.3-1.3 3.975-3.35 4.625l3.625 7.175c.1.15.025.3-.15.3zm-5.5-9.275c1.975 0 3.15-1.05 3.15-2.825 0-1.775-1.175-2.825-3.15-2.825h-3.975c-.1 0-.15.05-.15.15v5.35c0 .1.05.15.15.15h3.975zm13.65 9.55c-2.425 0-4.15-1.175-4.8-3.25-.25-.775-.4-1.65-.4-3.025s.125-2.3.375-3.025c.675-2.075 2.425-3.225 4.7-3.225 2.3 0 4.025 1.175 4.7 3.225.25.775.375 1.6.375 3.425 0 .15-.1.25-.275.25H470.2c-.1 0-.15.05-.15.15 0 .65.075 1.05.2 1.45.475 1.375 1.55 2.075 3.025 2.075 1.425 0 2.425-.575 3.075-1.325.125-.125.25-.15.375-.05l1.025.925c.125.1.125.225.025.35-.95 1.2-2.575 2.05-4.675 2.05zm-2.9-7.3h5.55c.1 0 .15-.05.15-.15 0-.55-.05-.975-.175-1.35-.4-1.2-1.4-1.875-2.75-1.875s-2.35.675-2.75 1.875c-.125.375-.175.8-.175 1.35 0 .1.05.15.15.15zm16.025 7.15h-.925c-2.325 0-3.225-1.05-3.225-3.4v-6.85c0-.1-.05-.15-.15-.15h-1c-.15 0-.25-.1-.25-.25v-1.2c0-.15.1-.25.25-.25h1c.1 0 .15-.05.15-.15V120.5c0-.15.1-.25.25-.25h1.6c.15 0 .25.1.25.25v3.375c0 .1.05.15.15.15h1.9c.15 0 .25.1.25.25v1.2c0 .15-.1.25-.25.25h-1.9c-.1 0-.15.05-.15.15v6.775c0 1.2.45 1.525 1.525 1.525h.525c.15 0 .25.1.25.25v1.45c0 .15-.1.25-.25.25zM499.25 136h-1.6c-.15 0-.25-.1-.25-.25v-1.125h-.025c-.625 1-1.725 1.65-3.275 1.65-2.625 0-4.15-1.8-4.15-4.525v-7.475c0-.15.1-.25.25-.25h1.6c.15 0 .25.1.25.25v6.975c0 1.95.875 3.075 2.65 3.075 1.625 0 2.7-1.15 2.7-2.95v-7.1c0-.15.1-.25.25-.25h1.6c.15 0 .25.1.25.25v11.475c0 .15-.1.25-.25.25zm6.6 0h-1.6c-.15 0-.25-.1-.25-.25v-11.475c0-.15.1-.25.25-.25h1.6c.15 0 .25.1.25.25v1.225h.025c.525-1.025 1.575-1.75 3.175-1.75.95 0 1.85.35 2.45.9.125.125.15.225.05.35l-.925 1.225c-.1.125-.225.15-.35.05-.55-.35-1.15-.575-1.85-.575-1.825 0-2.575 1.425-2.575 3.5v6.55c0 .15-.1.25-.25.25zm18.175 0h-1.6c-.15 0-.25-.1-.25-.25v-7c0-1.925-.875-3.05-2.675-3.05-1.625 0-2.75 1.15-2.75 2.925v7.125c0 .15-.1.25-.25.25h-1.6c-.15 0-.25-.1-.25-.25v-11.475c0-.15.1-.25.25-.25h1.6c.15 0 .25.1.25.25v1.1h.025c.575-.925 1.725-1.625 3.35-1.625 2.6 0 4.15 1.775 4.15 4.5v7.5c0 .15-.1.25-.25.25zm-478.45 0H43.85c-.15 0-.25-.1-.25-.25v-14.525c0-.1-.05-.15-.15-.15H38.8c-.15 0-.25-.1-.25-.25v-1.575c0-.15.1-.25.25-.25h11.825c.15 0 .25.1.25.25v1.575c0 .15-.1.25-.25.25h-4.65c-.1 0-.15.05-.15.15v14.525c0 .15-.1.25-.25.25zm11.05.275c-2.325 0-4.075-1.2-4.725-3.225-.275-.825-.4-1.65-.4-3.05 0-1.375.125-2.2.4-3.025.65-2.05 2.4-3.225 4.725-3.225 2.325 0 4.075 1.175 4.725 3.225.275.825.4 1.65.4 3.025 0 1.4-.125 2.225-.4 3.05-.65 2.025-2.4 3.225-4.725 3.225zm0-1.95c1.325 0 2.3-.675 2.7-1.875.2-.65.275-1.3.275-2.45 0-1.15-.075-1.775-.275-2.425-.4-1.2-1.375-1.875-2.7-1.875-1.325 0-2.3.675-2.7 1.875-.2.65-.275 1.275-.275 2.425s.075 1.8.275 2.45c.4 1.2 1.375 1.875 2.7 1.875zM67.375 136h-1.6c-.15 0-.25-.1-.25-.25v-11.475c0-.15.1-.25.25-.25h1.6c.15 0 .25.1.25.25v1.225h.025c.525-1.025 1.575-1.75 3.175-1.75.95 0 1.85.35 2.45.9.125.125.15.225.05.35l-.925 1.225c-.1.125-.225.15-.35.05-.55-.35-1.15-.575-1.85-.575-1.825 0-2.575 1.425-2.575 3.5v6.55c0 .15-.1.25-.25.25zm12.75.275c-2.325 0-4.075-1.2-4.725-3.225-.275-.825-.4-1.65-.4-3.05 0-1.375.125-2.2.4-3.025.65-2.05 2.4-3.225 4.725-3.225 2.325 0 4.075 1.175 4.725 3.225.275.825.4 1.65.4 3.025 0 1.4-.125 2.225-.4 3.05-.65 2.025-2.4 3.225-4.725 3.225zm0-1.95c1.325 0 2.3-.675 2.7-1.875.2-.65.275-1.3.275-2.45 0-1.15-.075-1.775-.275-2.425-.4-1.2-1.375-1.875-2.7-1.875-1.325 0-2.3.675-2.7 1.875-.2.65-.275 1.275-.275 2.425s.075 1.8.275 2.45c.4 1.2 1.375 1.875 2.7 1.875zM98.4 136h-1.6c-.15 0-.25-.1-.25-.25v-7c0-1.925-.875-3.05-2.675-3.05-1.625 0-2.75 1.15-2.75 2.925v7.125c0 .15-.1.25-.25.25h-1.6c-.15 0-.25-.1-.25-.25v-11.475c0-.15.1-.25.25-.25h1.6c.15 0 .25.1.25.25v1.1h.025c.575-.925 1.725-1.625 3.35-1.625 2.6 0 4.15 1.775 4.15 4.5v7.5c0 .15-.1.25-.25.25zm9.025.125h-.925c-2.325 0-3.225-1.05-3.225-3.4v-6.85c0-.1-.05-.15-.15-.15h-1c-.15 0-.25-.1-.25-.25v-1.2c0-.15.1-.25.25-.25h1c.1 0 .15-.05.15-.15V120.5c0-.15.1-.25.25-.25h1.6c.15 0 .25.1.25.25v3.375c0 .1.05.15.15.15h1.9c.15 0 .25.1.25.25v1.2c0 .15-.1.25-.25.25h-1.9c-.1 0-.15.05-.15.15v6.775c0 1.2.45 1.525 1.525 1.525h.525c.15 0 .25.1.25.25v1.45c0 .15-.1.25-.25.25zm8.3.15c-2.325 0-4.075-1.2-4.725-3.225-.275-.825-.4-1.65-.4-3.05 0-1.375.125-2.2.4-3.025.65-2.05 2.4-3.225 4.725-3.225 2.325 0 4.075 1.175 4.725 3.225.275.825.4 1.65.4 3.025 0 1.4-.125 2.225-.4 3.05-.65 2.025-2.4 3.225-4.725 3.225zm0-1.95c1.325 0 2.3-.675 2.7-1.875.2-.65.275-1.3.275-2.45 0-1.15-.075-1.775-.275-2.425-.4-1.2-1.375-1.875-2.7-1.875-1.325 0-2.3.675-2.7 1.875-.2.65-.275 1.275-.275 2.425s.075 1.8.275 2.45c.4 1.2 1.375 1.875 2.7 1.875zM135.95 136h-1.7c-.15 0-.25-.1-.25-.25v-6.7l-5.025-9.775c-.05-.15.025-.275.2-.275h1.775c.175 0 .275.075.375.25l3.8 7.275h.05l3.775-7.275c.075-.175.175-.25.35-.25h1.725c.2 0 .25.125.2.275l-5.025 9.775v6.7c0 .15-.1.25-.25.25zm13.55 0h-1.7c-.15 0-.25-.1-.25-.25v-6.7l-5.025-9.775c-.05-.15.025-.275.2-.275h1.775c.175 0 .275.075.375.25l3.8 7.275h.05l3.775-7.275c.075-.175.175-.25.35-.25h1.725c.2 0 .25.125.2.275l-5.025 9.775v6.7c0 .15-.1.25-.25.25zm18.05 0H157.1c-.15 0-.25-.1-.25-.25v-1.575c0-.1.025-.175.1-.275l8.3-12.8v-.025h-7.85c-.15 0-.25-.1-.25-.25v-1.575c0-.15.1-.25.25-.25h10.15c.15 0 .25.1.25.25v1.575c0 .1-.025.175-.1.275l-8.325 12.8v.025h8.175c.15 0 .25.1.25.25v1.575c0 .15-.1.25-.25.25z" fill="#003D4C" fill-rule="nonzero"/><path d="M451 143.5h150" stroke="#003D4C" stroke-width=".5" stroke-linecap="square"/><path d="M1036.519 125.545l-7.019 7.02m-7.019-7.02l7.019 7.02" stroke="#005B82" stroke-linecap="round" stroke-width="2"/><path d="M833.1 135.75v-14.1h-.05l-2.825 1.975c-.15.1-.275.05-.275-.15v-1.85c0-.15.05-.25.175-.35l2.925-2.125c.125-.1.225-.15.4-.15h1.5c.15 0 .25.1.25.25v16.5c0 .15-.1.25-.25.25h-1.6c-.15 0-.25-.1-.25-.25zm18.325.25H849.7c-.15 0-.25-.1-.25-.25v-16.5c0-.15.1-.25.25-.25h6.05c3.275 0 5.4 2 5.4 5.075s-2.125 5.075-5.4 5.075h-3.925c-.1 0-.15.05-.15.15v6.45c0 .15-.1.25-.25.25zm4.2-8.925c2.1 0 3.325-1.15 3.325-3s-1.225-3-3.325-3h-3.8c-.1 0-.15.05-.15.15v5.7c0 .1.05.15.15.15h3.8zm17.2 8.925h-1.475c-.15 0-.25-.1-.25-.25v-1.05h-.025c-.55.9-1.725 1.575-3.55 1.575-2.275 0-4.025-1.175-4.025-3.6 0-2.525 1.75-3.7 4.675-3.7h2.725c.1 0 .15-.05.15-.15v-.875c0-1.65-.65-2.35-2.875-2.35-1.35 0-2.2.35-2.9.85-.125.1-.275.1-.35-.025l-.675-1.15c-.075-.15-.05-.25.05-.35.9-.7 2.3-1.175 4.075-1.175 3.4 0 4.7 1.125 4.7 4.075v7.925c0 .15-.1.25-.25.25zm-4.8-1.525c1.875 0 3.025-.875 3.025-2.35V130.8c0-.1-.05-.15-.15-.15h-2.4c-2.075 0-2.975.6-2.975 1.95 0 1.225.9 1.875 2.5 1.875zm13.575 1.8c-2.325 0-3.975-.95-4.95-1.8-.1-.1-.1-.25 0-.35l1.025-1.1c.1-.1.25-.1.35 0 .9.775 2.25 1.375 3.7 1.375 1.75 0 2.625-.75 2.625-1.825 0-.95-.45-1.475-2.325-1.675l-1.275-.125c-2.35-.25-3.575-1.425-3.575-3.375 0-2.275 1.625-3.65 4.45-3.65 1.75 0 3.25.575 4.25 1.325.125.075.125.225.05.35l-.85 1.075c-.1.125-.225.125-.35.05-.775-.5-2-.975-3.225-.975-1.5 0-2.275.675-2.275 1.65 0 .95.575 1.45 2.35 1.625l1.25.125c2.425.225 3.6 1.45 3.6 3.375 0 2.35-1.7 3.925-4.825 3.925zm12.65 0c-2.325 0-3.975-.95-4.95-1.8-.1-.1-.1-.25 0-.35l1.025-1.1c.1-.1.25-.1.35 0 .9.775 2.25 1.375 3.7 1.375 1.75 0 2.625-.75 2.625-1.825 0-.95-.45-1.475-2.325-1.675l-1.275-.125c-2.35-.25-3.575-1.425-3.575-3.375 0-2.275 1.625-3.65 4.45-3.65 1.75 0 3.25.575 4.25 1.325.125.075.125.225.05.35l-.85 1.075c-.1.125-.225.125-.35.05-.775-.5-2-.975-3.225-.975-1.5 0-2.275.675-2.275 1.65 0 .95.575 1.45 2.35 1.625l1.25.125c2.425.225 3.6 1.45 3.6 3.375 0 2.35-1.7 3.925-4.825 3.925zm13 0c-2.425 0-4.15-1.175-4.8-3.25-.25-.775-.4-1.65-.4-3.025s.125-2.3.375-3.025c.675-2.075 2.425-3.225 4.7-3.225 2.3 0 4.025 1.175 4.7 3.225.25.775.375 1.6.375 3.425 0 .15-.1.25-.275.25h-7.575c-.1 0-.15.05-.15.15 0 .65.075 1.05.2 1.45.475 1.375 1.55 2.075 3.025 2.075 1.425 0 2.425-.575 3.075-1.325.125-.125.25-.15.375-.05l1.025.925c.125.1.125.225.025.35-.95 1.2-2.575 2.05-4.675 2.05zm-2.9-7.3h5.55c.1 0 .15-.05.15-.15 0-.55-.05-.975-.175-1.35-.4-1.2-1.4-1.875-2.75-1.875s-2.35.675-2.75 1.875c-.125.375-.175.8-.175 1.35 0 .1.05.15.15.15zm21 7.025h-1.6c-.15 0-.25-.1-.25-.25v-7c0-1.925-.875-3.05-2.675-3.05-1.625 0-2.75 1.15-2.75 2.925v7.125c0 .15-.1.25-.25.25h-1.6c-.15 0-.25-.1-.25-.25v-11.475c0-.15.1-.25.25-.25h1.6c.15 0 .25.1.25.25v1.1h.025c.575-.925 1.725-1.625 3.35-1.625 2.6 0 4.15 1.775 4.15 4.5v7.5c0 .15-.1.25-.25.25zm8.525 4.775c-1.675 0-3.35-.725-4.15-1.775-.1-.125-.1-.225.025-.35l1.025-1.025c.125-.125.25-.125.375 0 .825.75 1.675 1.2 2.825 1.2 1.975 0 3.025-1.025 3.025-3.225v-1.4h-.025c-.55 1-1.575 1.65-3.325 1.65-2.025 0-3.425-1.025-4.025-2.9-.3-.9-.4-1.775-.4-3.15s.1-2.25.4-3.15c.6-1.875 2-2.9 4.025-2.9 1.75 0 2.775.65 3.325 1.65H937v-1.125c0-.15.1-.25.25-.25h1.6c.15 0 .25.1.25.25v11.2c0 3.4-1.85 5.3-5.225 5.3zm.3-6.85c1.25 0 2.125-.575 2.55-1.8.2-.6.275-1.3.275-2.325 0-1.025-.075-1.7-.275-2.325-.425-1.225-1.3-1.775-2.55-1.775-1.3 0-2.125.625-2.525 1.775-.2.625-.3 1.35-.3 2.325 0 .975.1 1.725.3 2.325.4 1.175 1.225 1.8 2.525 1.8zm13.9 2.35c-2.425 0-4.15-1.175-4.8-3.25-.25-.775-.4-1.65-.4-3.025s.125-2.3.375-3.025c.675-2.075 2.425-3.225 4.7-3.225 2.3 0 4.025 1.175 4.7 3.225.25.775.375 1.6.375 3.425 0 .15-.1.25-.275.25h-7.575c-.1 0-.15.05-.15.15 0 .65.075 1.05.2 1.45.475 1.375 1.55 2.075 3.025 2.075 1.425 0 2.425-.575 3.075-1.325.125-.125.25-.15.375-.05l1.025.925c.125.1.125.225.025.35-.95 1.2-2.575 2.05-4.675 2.05zm-2.9-7.3h5.55c.1 0 .15-.05.15-.15 0-.55-.05-.975-.175-1.35-.4-1.2-1.4-1.875-2.75-1.875s-2.35.675-2.75 1.875c-.125.375-.175.8-.175 1.35 0 .1.05.15.15.15zM958.65 136h-1.6c-.15 0-.25-.1-.25-.25v-11.475c0-.15.1-.25.25-.25h1.6c.15 0 .25.1.25.25v1.225h.025c.525-1.025 1.575-1.75 3.175-1.75.95 0 1.85.35 2.45.9.125.125.15.225.05.35l-.925 1.225c-.1.125-.225.15-.35.05-.55-.35-1.15-.575-1.85-.575-1.825 0-2.575 1.425-2.575 3.5v6.55c0 .15-.1.25-.25.25z" fill="#003D4C" fill-rule="nonzero"/><path d="M827 143.5h210" stroke="#003D4C" stroke-width=".5" stroke-linecap="square"/><path d="M319.423 161h-1.036c-.09 0-.15-.06-.15-.15v-8.715c0-.06-.03-.09-.09-.09h-2.79c-.09 0-.15-.06-.15-.15v-.945c0-.09.06-.15.15-.15h7.095c.09 0 .15.06.15.15v.945c0 .09-.06.15-.15.15h-2.79c-.06 0-.09.03-.09.09v8.715c0 .09-.06.15-.15.15zm7.11.165c-1.396 0-2.446-.72-2.836-1.935-.164-.495-.24-.99-.24-1.83 0-.825.076-1.32.24-1.815.39-1.23 1.44-1.935 2.836-1.935 1.394 0 2.445.705 2.834 1.935.166.495.24.99.24 1.815 0 .84-.075 1.335-.24 1.83-.39 1.215-1.44 1.935-2.834 1.935zm0-1.17c.794 0 1.38-.405 1.62-1.125.12-.39.164-.78.164-1.47s-.045-1.065-.165-1.455c-.24-.72-.825-1.125-1.62-1.125-.794 0-1.38.405-1.62 1.125-.12.39-.164.765-.164 1.455 0 .69.045 1.08.165 1.47.24.72.825 1.125 1.62 1.125z" fill="#003D4C" fill-rule="nonzero"/><path d="M248 143.5h150" stroke="#003D4C" stroke-width=".5" stroke-linecap="square"/><path d="M95.682 160.85v-9.9c0-.09.06-.15.15-.15h6.136c.09 0 .15.06.15.15v.945c0 .09-.06.15-.15.15h-4.86c-.06 0-.09.03-.09.09v3.105c0 .06.03.09.09.09h4.124c.09 0 .15.06.15.15v.945c0 .09-.06.15-.15.15h-4.125c-.06 0-.09.03-.09.09v4.185c0 .09-.06.15-.15.15h-1.035c-.09 0-.15-.06-.15-.15zm9.78.15h-.96c-.09 0-.15-.06-.15-.15v-6.885c0-.09.06-.15.15-.15h.96c.09 0 .15.06.15.15v.735h.016c.314-.615.945-1.05 1.904-1.05.57 0 1.11.21 1.47.54.076.075.09.135.03.21l-.554.735c-.06.075-.135.09-.21.03-.33-.21-.69-.345-1.11-.345-1.096 0-1.546.855-1.546 2.1v3.93c0 .09-.06.15-.15.15zm8.13.165c-1.394 0-2.445-.72-2.835-1.935-.165-.495-.24-.99-.24-1.83 0-.825.076-1.32.24-1.815.39-1.23 1.44-1.935 2.835-1.935s2.445.705 2.835 1.935c.165.495.24.99.24 1.815 0 .84-.075 1.335-.24 1.83-.39 1.215-1.44 1.935-2.835 1.935zm0-1.17c.796 0 1.38-.405 1.62-1.125.12-.39.165-.78.165-1.47s-.044-1.065-.164-1.455c-.24-.72-.825-1.125-1.62-1.125-.796 0-1.38.405-1.62 1.125-.12.39-.165.765-.165 1.455 0 .69.044 1.08.164 1.47.24.72.826 1.125 1.62 1.125zm15.96 1.005h-.96c-.09 0-.15-.06-.15-.15v-4.2c0-1.155-.525-1.83-1.605-1.83-.96 0-1.65.69-1.65 1.755v4.275c0 .09-.06.15-.15.15h-.96c-.09 0-.15-.06-.15-.15v-4.2c0-1.155-.525-1.83-1.605-1.83-.975 0-1.65.69-1.65 1.755v4.275c0 .09-.06.15-.15.15h-.96c-.09 0-.15-.06-.15-.15v-6.885c0-.09.06-.15.15-.15h.96c.09 0 .15.06.15.15v.66h.016c.344-.555 1.034-.975 2.01-.975.975 0 1.695.405 2.1 1.125h.014c.496-.69 1.23-1.125 2.326-1.125 1.665 0 2.564 1.065 2.564 2.7v4.5c0 .09-.06.15-.15.15z" fill="#003D4C" fill-rule="nonzero"/><path d="M38 143.5h150" stroke="#003D4C" stroke-width=".5" stroke-linecap="square"/><path d="M641.1 135.75v-16.5c0-.15.1-.25.25-.25h10.225c.15 0 .25.1.25.25v1.575c0 .15-.1.25-.25.25h-8.1c-.1 0-.15.05-.15.15v5.175c0 .1.05.15.15.15h6.875c.15 0 .25.1.25.25v1.575c0 .15-.1.25-.25.25h-6.875c-.1 0-.15.05-.15.15v6.975c0 .15-.1.25-.25.25h-1.725c-.15 0-.25-.1-.25-.25zm17.675.525c-2.425 0-4.15-1.175-4.8-3.25-.25-.775-.4-1.65-.4-3.025s.125-2.3.375-3.025c.675-2.075 2.425-3.225 4.7-3.225 2.3 0 4.025 1.175 4.7 3.225.25.775.375 1.6.375 3.425 0 .15-.1.25-.275.25h-7.575c-.1 0-.15.05-.15.15 0 .65.075 1.05.2 1.45.475 1.375 1.55 2.075 3.025 2.075 1.425 0 2.425-.575 3.075-1.325.125-.125.25-.15.375-.05l1.025.925c.125.1.125.225.025.35-.95 1.2-2.575 2.05-4.675 2.05zm-2.9-7.3h5.55c.1 0 .15-.05.15-.15 0-.55-.05-.975-.175-1.35-.4-1.2-1.4-1.875-2.75-1.875s-2.35.675-2.75 1.875c-.125.375-.175.8-.175 1.35 0 .1.05.15.15.15zM669.35 136h-1.6c-.15 0-.25-.1-.25-.25v-16.5c0-.15.1-.25.25-.25h1.6c.15 0 .25.1.25.25v6.15h.025c.575-.95 1.6-1.65 3.4-1.65 2.075 0 3.525.975 4.125 2.875.325.95.425 1.9.425 3.375 0 1.5-.1 2.45-.425 3.4-.6 1.9-2.05 2.875-4.125 2.875-1.8 0-2.825-.725-3.4-1.675h-.025v1.15c0 .15-.1.25-.25.25zm3.175-1.675c1.325 0 2.225-.65 2.625-1.825.2-.625.275-1.4.275-2.5 0-1.075-.075-1.85-.275-2.5-.4-1.175-1.3-1.8-2.625-1.8s-2.25.6-2.65 1.8c-.2.6-.275 1.3-.275 2.5s.075 1.925.275 2.5c.4 1.2 1.325 1.825 2.65 1.825zm15.15 1.425v-1.3c0-.15.025-.225.125-.35l6.125-7.8c.75-.95 1.2-1.875 1.2-2.95 0-1.525-1.025-2.675-2.675-2.675-1.625 0-2.525.975-2.775 2.5-.025.15-.125.225-.275.2l-1.525-.325c-.15-.05-.225-.15-.2-.3.225-2.025 1.825-4.025 4.825-4.025 2.975 0 4.775 2 4.775 4.625 0 1.525-.625 2.775-1.65 4.075l-5.25 6.6v.025h6.65c.15 0 .25.1.25.25v1.45c0 .15-.1.25-.25.25h-9.1c-.15 0-.25-.1-.25-.25zm18.075 0v-14.1h-.05l-2.825 1.975c-.15.1-.275.05-.275-.15v-1.85c0-.15.05-.25.175-.35l2.925-2.125c.125-.1.225-.15.4-.15h1.5c.15 0 .25.1.25.25v16.5c0 .15-.1.25-.25.25H706c-.15 0-.25-.1-.25-.25z" fill="#003D4C" fill-rule="nonzero"/><path d="M639 143.5h150" stroke="#003D4C" stroke-width=".5" stroke-linecap="square"/><path d="M785.826 122.958h-1.165v-1.164h-.776v1.164h-6.21v-1.164h-.776v1.164h-1.164c-1.07 0-1.941.871-1.941 1.941v8.928c0 1.07.87 1.94 1.94 1.94h10.092c1.07 0 1.94-.87 1.94-1.94v-8.928c0-1.07-.87-1.94-1.94-1.94zm1.164 10.868c0 .642-.522 1.164-1.164 1.164h-10.091a1.166 1.166 0 0 1-1.165-1.164v-6.986h12.42v6.986zm0-7.763h-12.42V124.9c0-.643.522-1.165 1.165-1.165h1.164v.776h.776v-.775h6.21v.776h.776v-.776h1.165c.642 0 1.164.521 1.164 1.164v1.164z" fill="#005B82" fill-rule="nonzero"/><g class="cursor-hand" fill-rule="nonzero"><path d="M926.936 215.704a3.21 3.21 0 0 0-1.293.271c-.368-1.52-1.688-2.65-3.256-2.65a3.21 3.21 0 0 0-1.293.271c-.369-1.52-1.689-2.65-3.256-2.65-.42 0-.82.081-1.19.229v-2.663c0-1.937-1.507-3.512-3.358-3.512-1.852 0-3.358 1.575-3.358 3.512v13.158l-1.2-1.255a3.258 3.258 0 0 0-4.749 0 3.57 3.57 0 0 0-.983 2.483c0 .938.35 1.82.983 2.483l7.895 8.257c2.038 2.168 4.76 3.362 7.666 3.362 5.62 0 10.29-4.54 10.718-10.372.021-.089.032-.18.032-.276v-7.136c0-1.936-1.506-3.512-3.358-3.512z" fill="#373636"/><g transform="translate(903 205)"><use fill="#000" filter="url(#a)" xlink:href="#b"/><use fill="#FFF" xlink:href="#b"/></g></g></g></g></svg>