<svg xmlns="http://www.w3.org/2000/svg" xmlns:xlink="http://www.w3.org/1999/xlink" height="760" width="371"><defs><path id="f" opacity="1" fill-rule="evenodd" d="M2.473 42c0-23.18 18.82-42 42-42H329c23.18 0 42 18.82 42 42v676c0 23.18-18.82 42-42 42H44.473c-23.18 0-42-18.82-42-42V287.889A3.003 3.003 0 0 1 0 284.935v-50.846a3.003 3.003 0 0 1 2.473-2.953V217.45A3.003 3.003 0 0 1 0 214.496V163.65a3.003 3.003 0 0 1 2.473-2.953v-32.223A3.003 3.003 0 0 1 0 125.52V99.39a3.003 3.003 0 0 1 2.473-2.954V42z"/><filter id="g" filterUnits="userSpaceOnUse" x="-50%" y="-50%" width="200%" height="200%"><feOffset in="SourceAlpha" result="shadow-1-feOffset-shadow" dy="2"/><feGaussianBlur in="shadow-1-feOffset-shadow" result="shadow-1-feGaussianBlur-shadow" stdDeviation="2"/><feColorMatrix in="shadow-1-feGaussianBlur-shadow" result="shadow-1-feColorMatrix-shadow" values="0 0 0 0 0 0 0 0 0 0 0 0 0 0 0 0 0 0 0.5 0"/></filter><radialGradient id="h" cx=".5" cy=".5" r="1.393"><stop offset="1" stop-color="#EDEDED"/><stop offset="0" stop-color="#FFF"/></radialGradient><path id="i" opacity="1" fill-rule="evenodd" d="M56.84 12.358h259.793c23.18 0 42 18.82 42 42v651.284c0 23.18-18.82 42-42 42H56.84c-23.18 0-42-18.82-42-42V54.358c0-23.18 18.82-42 42-42z"/><path id="j" opacity="1" fill-rule="evenodd" d="M215.18 708.098c0-15.687-12.745-28.423-28.443-28.423-15.699 0-28.444 12.736-28.444 28.423 0 15.687 12.745 28.422 28.444 28.422 15.698 0 28.443-12.735 28.443-28.422zm-3.71 0c0-13.641-11.083-24.716-24.733-24.716-13.651 0-24.734 11.075-24.734 24.716 0 13.64 11.083 24.715 24.734 24.715 13.65 0 24.733-11.075 24.733-24.715z"/><radialGradient id="k" cx=".5" cy=".5" r="1.788"><stop offset="1"/><stop offset="0" stop-color="#FFF"/></radialGradient><rect id="a" opacity="1" x="23.497" y="91.447" width="326.48" height="575.87" rx="0" ry="0"/><mask id="l" maskUnits="userSpaceOnUse" maskContentUnits="userSpaceOnUse"><path d="M0 0h371v760H0z"/><use xlink:href="#a" fill="#fff"/></mask><rect id="b" opacity="1" x="24.733" y="92.683" width="324.007" height="573.398" rx="0" ry="0"/><mask id="m" maskUnits="userSpaceOnUse" maskContentUnits="userSpaceOnUse"><path d="M0 0h371v760H0z"/><use xlink:href="#b" fill="#fff"/></mask><ellipse id="n" opacity="1" rx="3.71" ry="3.707" cx="185.5" cy="25.951"/><ellipse id="o" opacity="1" rx="5.565" ry="5.561" cx="127.995" cy="48.813"/><radialGradient id="p" cx=".5" cy=".5" r=".937"><stop offset="1" stop-color="#10254D"/><stop offset="0" stop-color="#1D4D92"/></radialGradient><path id="c" opacity="1" fill-rule="evenodd" d="M158.82 46.96h54.597c1.655 0 3 1.344 3 3v.178c0 1.656-1.345 3-3 3H158.82c-1.656 0-3-1.344-3-3v-.179c0-1.655 1.344-3 3-3z"/><mask id="q" maskUnits="userSpaceOnUse" maskContentUnits="userSpaceOnUse"><path d="M0 0h371v760H0z"/><use xlink:href="#c" fill="#fff"/></mask><rect id="r" opacity="1" x="25.97" y="93.919" width="321.533" height="72.911" rx="0" ry="0"/><path id="s" opacity="1" fill-rule="evenodd" d="M25.97 168.065h321.533"/><ellipse id="t" opacity="1" rx="9.275" ry="9.268" cx="324.625" cy="130.374"/><path id="u" opacity="1" fill-rule="evenodd" d="M48.23 123.577l-8.657 7.415 8.657 7.415"/><ellipse id="d" opacity="1" rx="17.932" ry="17.919" cx="186.118" cy="129.138"/><mask id="v" maskUnits="userSpaceOnUse" maskContentUnits="userSpaceOnUse"><path d="M0 0h371v760H0z"/><use xlink:href="#d" fill="#fff"/></mask><path id="w" opacity="1" fill-rule="evenodd" d="M178.08 142.114s2.473-3.707 2.473-6.179h12.367s0 6.179 1.237 7.415c0 0-1.237 4.943-3.71 4.943h-7.42s-4.364-3.268-4.947-6.18z"/><radialGradient id="x" cx=".634" cy=".884" r=".654"><stop offset="1" stop-color="#EEB794"/><stop offset="0" stop-color="#FFE4D2"/></radialGradient><ellipse id="y" opacity="1" rx="8.657" ry="12.976" cx="187.621" cy="127.238"/><radialGradient id="z" cx=".5" cy=".548" r=".507"><stop offset="1" stop-color="#FBD1B6"/><stop offset="0" stop-color="#FFE4D2"/></radialGradient><path id="A" opacity="1" fill-rule="evenodd" d="M178.986 126.633s2.186-7.427 7.132-7.427c1.278 0 4.531-.273 5.565 0 2.969.784 3.135 4.476 4.574 8.636l1.61-5.5-.704-4.972s-3.8-4.108-5.48-4.915c-2.151-1.033-4.175 0-5.565 0-3.71 0-8.038 3.63-8.038 6.751 0 3.121.906 7.427.906 7.427z"/><path id="B" opacity="1" fill-rule="evenodd" d="M170.66 142.114l8.326-2.472s.33 6.18 5.277 8.65h6.184s2.473-1.42 3.71-7.506l8.656 1.328-9.893 7.414h-17.313l-4.947-7.414z"/><path id="e" opacity="1" fill-rule="evenodd" d="M321.533 106.276v-8.65h19.787v2.472h1.237v3.707h-1.237v2.471h-19.787z"/><mask id="C" maskUnits="userSpaceOnUse" maskContentUnits="userSpaceOnUse"><path d="M0 0h371v760H0z"/><use xlink:href="#e" fill="#fff"/></mask><rect id="D" opacity="1" x="322.77" y="98.862" width="17.313" height="6.179" rx="0" ry="0"/><ellipse id="E" opacity="1" rx="2.473" ry="2.472" cx="33.39" cy="102.569"/><ellipse id="F" opacity="1" rx="2.473" ry="2.472" cx="39.573" cy="102.569"/><ellipse id="G" opacity="1" rx="2.473" ry="2.472" cx="45.757" cy="102.569"/><ellipse id="H" opacity="1" rx="2.473" ry="2.472" cx="51.94" cy="102.569"/><ellipse id="I" opacity="1" rx="2.473" ry="2.472" cx="58.123" cy="102.569"/><path id="J" opacity="1" fill-rule="evenodd" d="M63.07 101.333s2.473-3.707 6.183-3.707 6.184 3.707 6.184 3.707"/><path id="K" opacity="1" fill-rule="evenodd" d="M65.543 103.805s1.484-2.472 3.71-2.472 3.71 2.472 3.71 2.472"/><ellipse id="L" opacity="1" rx="1.237" ry="1.236" cx="69.253" cy="105.041"/><path id="M" opacity="1" fill-rule="evenodd" d="M326.61 182H121.063c-6.07 0-11 4.929-11 11v143.5c0 1.204.194 2.363.553 3.448-1.358 3.92-4.263 7.548-4.263 7.548 3.382 0 5.993-1.155 7.834-2.413a10.951 10.951 0 0 0 6.876 2.417H326.61c6.071 0 11-4.929 11-11V193c0-6.071-4.929-11-11-11z"/></defs><use xlink:href="#f" filter="url(#g)" stroke="#000" stroke-opacity="0" stroke-width="0"/><use xlink:href="#f" fill="url(#h)"/><use xlink:href="#i" fill="#FFF"/><use xlink:href="#j" fill="url(#k)"/><use xlink:href="#a" fill="#FFF"/><use xlink:href="#a" fill-opacity="0" stroke="#545454" stroke-width="2" mask="url(#l)"/><use xlink:href="#b" fill="#FFF"/><use xlink:href="#b" fill-opacity="0" stroke="#353535" stroke-width="2" mask="url(#m)"/><use xlink:href="#n" fill="#353535"/><use xlink:href="#n" fill-opacity="0" stroke="#232323"/><use xlink:href="#o" fill="url(#p)"/><use xlink:href="#o" fill-opacity="0" stroke="#232323"/><use xlink:href="#c" fill="#353535"/><use xlink:href="#c" fill-opacity="0" stroke="#232323" stroke-width="2" mask="url(#q)"/><use xlink:href="#r" fill="#F5FAFB"/><use xlink:href="#s" fill-opacity="0" stroke="#E8E8E8" stroke-linecap="square"/><use xlink:href="#t" fill-opacity="0" stroke="#2983FF"/><use xlink:href="#u" fill-opacity="0" stroke="#2C81FF" stroke-width="2" stroke-linecap="round"/><use xlink:href="#d" fill="#D8D8D8"/><g mask="url(#v)"><use xlink:href="#w" fill="url(#x)"/><use xlink:href="#y" fill="url(#z)" transform="rotate(4 187.621 127.238)"/><use xlink:href="#A" fill="#421B08"/><use xlink:href="#B" fill="#005B82"/></g><use xlink:href="#e" fill="#8D8F8E"/><use xlink:href="#e" fill-opacity="0" stroke="#8D8F8E" stroke-width="2" mask="url(#C)"/><use xlink:href="#D"/><use xlink:href="#E"/><use xlink:href="#F"/><use xlink:href="#G"/><use xlink:href="#H"/><use xlink:href="#I"/><use xlink:href="#J" fill-opacity="0" stroke="#000"/><use xlink:href="#K" fill-opacity="0" stroke="#000"/><use xlink:href="#L"/><use xlink:href="#M" fill="#0A8AFF" transform="matrix(-1 0 0 1 443.963 0)"/><rect xmlns="http://www.w3.org/2000/svg" class="phone-mock-text" fill="#FFF" x="120" y="195" width="92" height="7" rx="4"/><rect xmlns="http://www.w3.org/2000/svg" class="phone-mock-text" fill="#FFF" x="120" y="213" width="118" height="7" rx="4"/><rect xmlns="http://www.w3.org/2000/svg" class="phone-mock-text" fill="#FFF" x="120" y="232" width="200" height="7" rx="4"/><rect xmlns="http://www.w3.org/2000/svg" class="phone-mock-text" fill="#FFF" x="120" y="250" width="46" height="7" rx="4"/><rect xmlns="http://www.w3.org/2000/svg" class="phone-mock-text" fill="#FFF" x="120" y="268" width="200" height="7" rx="4"/><rect xmlns="http://www.w3.org/2000/svg" class="phone-mock-text" fill="#FFF" x="120" y="286" width="73" height="7" rx="4"/><rect xmlns="http://www.w3.org/2000/svg" class="phone-mock-text" fill="#FFF" x="120" y="304" width="200" height="7" rx="4"/><rect xmlns="http://www.w3.org/2000/svg" class="phone-mock-text" fill="#FFF" x="120" y="322" width="130" height="7" rx="4"/></svg>