<svg width="629" height="386" xmlns="http://www.w3.org/2000/svg"><defs><filter x="-8.6%" y="-14.8%" width="117.2%" height="129.6%" filterUnits="objectBoundingBox" id="a"><feOffset dy="2" in="SourceAlpha" result="shadowOffsetOuter1"/><feGaussianBlur stdDeviation="12" in="shadowOffsetOuter1" result="shadowBlurOuter1"/><feColorMatrix values="0 0 0 0 0 0 0 0 0 0 0 0 0 0 0 0 0 0 0.248442963 0" in="shadowBlurOuter1" result="shadowMatrixOuter1"/><feMerge><feMergeNode in="shadowMatrixOuter1"/><feMergeNode in="SourceGraphic"/></feMerge></filter><linearGradient x1="0%" y1="0%" x2="102%" y2="101%" id="b"><stop stop-color="#3023AE" offset="0%"/><stop stop-color="#C86DD7" offset="100%"/></linearGradient><linearGradient x1="50%" y1="0%" x2="50%" y2="100%" id="c"><stop stop-color="#F5515F" offset="0%"/><stop stop-color="#9F041B" offset="100%"/></linearGradient></defs><g filter="url(#a)" transform="translate(24 22)" fill="none" fill-rule="evenodd"><path fill="#FFF" d="M119 0h462v338H119z"/><g transform="translate(449 9)"><rect stroke="#979797" fill="#FFF" x=".5" y=".5" width="86" height="14" rx="5"/><g transform="translate(4.09 4.157)" stroke="#616061" stroke-linecap="round" stroke-width="2"><ellipse transform="rotate(-45 3.273 3.272)" cx="3.273" cy="3.272" rx="2.273" ry="2.272"/><path d="M5.025 5.024l1.494 1.493"/></g></g><path fill="#400E40" d="M28 0h91v338H28z"/><path fill="#200620" d="M0 0h28v338H0z"/><path d="M135.462 14.461l-.367 1.813h2.016v1.609h-2.32l-.602 3.172h-1.719l.61-3.172h-1.516l-.594 3.172h-1.68l.578-3.172h-1.859v-1.61h2.164l.367-1.812h-1.968v-1.633h2.257l.602-3.18h1.71l-.6 3.18h1.546l.61-3.18h1.68l-.61 3.18h1.875v1.633h-2.18zm-3.594 1.813h1.532l.367-1.813h-1.531l-.368 1.813zm16.922 4.78h-2.414v-4.929h-4.523v4.93h-2.422V9.633h2.422v4.476h4.523V9.633h2.414v11.422zm6.313-7.202c-.505 0-.901.16-1.188.48-.286.32-.45.775-.492 1.363h3.344c-.01-.588-.164-1.043-.461-1.363-.297-.32-.698-.48-1.203-.48zm.336 7.359c-1.407 0-2.505-.388-3.297-1.164-.792-.776-1.188-1.875-1.188-3.297 0-1.463.366-2.595 1.098-3.394.732-.8 1.743-1.2 3.035-1.2 1.235 0 2.195.352 2.883 1.055.687.703 1.031 1.675 1.031 2.914v1.156h-5.633c.026.677.227 1.206.602 1.586.375.38.901.57 1.578.57.526 0 1.024-.054 1.492-.163a7.47 7.47 0 0 0 1.469-.524v1.844a5.595 5.595 0 0 1-1.336.465c-.474.101-1.052.152-1.734.152zm7.883-.156h-2.383V8.899h2.383v12.156zm4.882 0h-2.382V8.899h2.382v12.156zm4.399-4.383c0 .865.142 1.518.426 1.96.283.444.746.665 1.386.665.636 0 1.093-.22 1.371-.66.279-.44.418-1.095.418-1.965 0-.865-.14-1.513-.422-1.945-.28-.433-.742-.649-1.382-.649-.636 0-1.094.215-1.375.645-.282.43-.422 1.08-.422 1.949zm6.039 0c0 1.422-.375 2.534-1.125 3.336s-1.794 1.203-3.133 1.203c-.839 0-1.578-.184-2.219-.55a3.665 3.665 0 0 1-1.476-1.583c-.344-.687-.516-1.49-.516-2.406 0-1.427.372-2.536 1.117-3.328.745-.792 1.792-1.188 3.14-1.188.84 0 1.579.183 2.22.547a3.65 3.65 0 0 1 1.476 1.57c.344.683.516 1.482.516 2.399zm6.492-2.031h4.531v5.922c-.734.24-1.426.407-2.074.504a13.51 13.51 0 0 1-1.988.144c-1.724 0-3.04-.506-3.95-1.52-.908-1.013-1.363-2.467-1.363-4.363 0-1.844.528-3.281 1.582-4.312 1.055-1.032 2.517-1.547 4.387-1.547 1.172 0 2.302.234 3.39.703l-.804 1.937a5.747 5.747 0 0 0-2.602-.625c-1.046 0-1.885.352-2.515 1.055-.63.703-.946 1.649-.946 2.836 0 1.24.254 2.186.762 2.84.508.654 1.246.98 2.215.98.505 0 1.018-.052 1.54-.156v-2.383h-2.165v-2.015zm11.922-2.485c1.031 0 1.838.403 2.422 1.207.583.805.875 1.908.875 3.309 0 1.443-.301 2.56-.903 3.352-.601.791-1.42 1.187-2.457 1.187-1.026 0-1.83-.372-2.414-1.117h-.164l-.398.96h-1.82V8.9h2.382v2.828c0 .359-.03.935-.093 1.726h.093c.558-.864 1.383-1.297 2.477-1.297zm-.766 1.907c-.588 0-1.018.18-1.289.543-.27.362-.411.96-.422 1.793v.257c0 .938.14 1.61.418 2.016.279.406.72.61 1.325.61.49 0 .878-.226 1.167-.676.29-.45.434-1.106.434-1.965 0-.86-.146-1.504-.437-1.934-.292-.43-.69-.644-1.196-.644zm4.461-1.743h2.61l1.648 4.914c.14.428.237.933.29 1.516h.046c.057-.536.17-1.042.336-1.516l1.617-4.914h2.555l-3.696 9.852c-.338.911-.821 1.594-1.449 2.047-.627.453-1.36.68-2.199.68a5.53 5.53 0 0 1-1.21-.133v-1.89c.286.067.598.1.937.1.421 0 .79-.128 1.105-.386.315-.258.561-.647.738-1.168l.141-.43-3.469-8.672zm13.969 1.532c-.505 0-.901.16-1.188.48-.286.32-.45.775-.492 1.363h3.344c-.01-.588-.164-1.043-.46-1.363-.298-.32-.699-.48-1.204-.48zm.336 7.359c-1.406 0-2.505-.388-3.297-1.164-.792-.776-1.187-1.875-1.187-3.297 0-1.463.365-2.595 1.097-3.394.732-.8 1.744-1.2 3.035-1.2 1.235 0 2.196.352 2.883 1.055.688.703 1.031 1.675 1.031 2.914v1.156h-5.632c.026.677.226 1.206.601 1.586.375.38.901.57 1.578.57.526 0 1.024-.054 1.492-.163.47-.11.959-.284 1.47-.524v1.844a5.595 5.595 0 0 1-1.337.465c-.474.101-1.052.152-1.734.152z" fill="#000" fill-rule="nonzero"/><path d="M126 28.25h320.8" stroke="#D6D6D6" stroke-linecap="square"/><path d="M260.21 28h48.428" stroke="#000" stroke-width="5" stroke-linecap="round"/><g xmlns="http://www.w3.org/2000/svg" transform="translate(130 35.793)"><path class="slack-mock-text" fill="url(#b)" d="M0 .207h15v15H0z"/><rect xmlns="http://www.w3.org/2000/svg" class="slack-mock-text" fill="#000" x="18" width="15" height="5" rx="3"/><rect xmlns="http://www.w3.org/2000/svg" class="slack-mock-text" fill="#CCC" x="35" width="20" height="5" rx="3"/><rect xmlns="http://www.w3.org/2000/svg" class="slack-mock-text" fill="#CCC" x="18" y="10" width="92" height="5" rx="3"/><rect xmlns="http://www.w3.org/2000/svg" class="slack-mock-text" fill="#CCC" x="18" y="23" width="290" height="5" rx="3"/><rect xmlns="http://www.w3.org/2000/svg" class="slack-mock-text" fill="#CCC" x="18" y="35" width="290" height="5" rx="3"/><rect xmlns="http://www.w3.org/2000/svg" class="slack-mock-text" fill="#CCC" x="18" y="47" width="87" height="5" rx="3"/></g><g xmlns="http://www.w3.org/2000/svg" transform="translate(130 115)"><path class="slack-mock-text" fill="url(#c)" d="M0 0h15v15H0z"/><rect xmlns="http://www.w3.org/2000/svg" class="slack-mock-text" fill="#000" x="18" width="15" height="5" rx="3"/><rect xmlns="http://www.w3.org/2000/svg" class="slack-mock-text" fill="#CCC" x="35" width="20" height="5" rx="3"/><rect xmlns="http://www.w3.org/2000/svg" class="slack-mock-text" fill="#CCC" x="18" y="8" width="92" height="5" rx="3"/><rect xmlns="http://www.w3.org/2000/svg" class="slack-mock-text" fill="#CCC" x="18" y="22" width="290" height="5" rx="3"/></g><g xmlns="http://www.w3.org/2000/svg" transform="translate(130 169)"><path class="slack-mock-text" fill="url(#b)" d="M0 0h15v15H0z"/><rect xmlns="http://www.w3.org/2000/svg" class="slack-mock-text" fill="#000" x="18" width="15" height="5" rx="3"/><rect xmlns="http://www.w3.org/2000/svg" class="slack-mock-text" fill="#CCC" x="35" width="20" height="5" rx="3"/><rect xmlns="http://www.w3.org/2000/svg" class="slack-mock-text" fill="#CCC" x="18" y="9" width="92" height="5" rx="3"/><rect xmlns="http://www.w3.org/2000/svg" class="slack-mock-text" fill="#CCC" x="18" y="23" width="290" height="5" rx="3"/><rect xmlns="http://www.w3.org/2000/svg" class="slack-mock-text" fill="#CCC" x="18" y="35" width="130" height="5" rx="3"/></g><g transform="translate(4 3)"><ellipse fill="#FF5E57" cx="2.423" cy="2.5" rx="2.423" ry="2.5"/><ellipse fill="#FFBE2F" cx="10.5" cy="2.5" rx="2.423" ry="2.5"/><ellipse fill="#27CA42" cx="18.577" cy="2.5" rx="2.423" ry="2.5"/></g><g transform="translate(449 41)"><path d="M8.206.25h86.591" stroke="#000" stroke-width="5" stroke-linecap="round"/><path d="M19.208 27h48.688M19.208 55h24.427M19.206 81.25h32.59m-32.59 27h32.59m-23.59 17h32.59m-32.59 14h32.59m-32.59 14h32.59m-32.59 13h32.59m-41.59 38h51.517M19.206 233h84.472" stroke="#CCC" stroke-width="5" stroke-linecap="round"/><path fill="#616061" d="M5 23h8v8H5z"/><path fill="#1D9BD1" d="M5 50h8v8H5z"/><path fill="#E7912D" d="M5 77h8v8H5z"/><path fill="#017A5A" d="M5 103h8v8H5z"/><path fill="#4A4A4A" d="M14 122h8v8h-8zm0 14h8v8h-8z"/><path fill="#E4E4E4" d="M14 148h8v8h-8zm0 14h8v8h-8z"/><path fill="#DE4F2B" d="M5 200h8v8H5z"/><path fill="#E01E5A" d="M5 229h8v8H5z"/><circle stroke="#4DA28C" stroke-width="2" fill="#4DA28C" cx="8.5" cy="125.5" r="1.5"/><circle stroke="#4DA28C" stroke-width="2" fill="#4DA28C" cx="8.5" cy="139.5" r="1.5"/><circle stroke="#979797" stroke-width="2" cx="8.5" cy="152.5" r="1.5"/><circle stroke="#979797" stroke-width="2" cx="8.5" cy="165.5" r="1.5"/><path d="M0 15h129M0 41h129M0 67h129M0 94h129M0 190h129M0 219h129" stroke="#E5E5E5" stroke-linecap="square"/><path fill="#606060" d="M126.5 28l-2 1.5v-3zm0 27l-2 1.5v-3zm0 26l-2 1.5v-3zm-1 28l-1.5-2h3zm1 99l-2 1.5v-3zm0 26l-2 1.5v-3z"/></g><g transform="translate(127 289)"><rect stroke="#565556" stroke-width="2" fill="#FFF" x="1" y="4" width="314" height="33" rx="6"/><path d="M28 4v33" stroke="#565556" stroke-width="2" stroke-linecap="square"/><text font-family="OpenSans-Bold, Open Sans" font-size="28" font-weight="bold" fill="#565556"><tspan x="6" y="30">+</tspan></text><path d="M42.305 25.196l-3.39-8.86h-.056c.064.702.096 1.536.096 2.502v6.358h-1.073v-9.994h1.75l3.165 8.244h.055l3.192-8.244h1.736v9.994h-1.162v-6.44c0-.738.032-1.54.096-2.406h-.055l-3.418 8.846h-.936zm11.21.136c-1.107 0-1.98-.337-2.62-1.011-.641-.675-.961-1.611-.961-2.81 0-1.208.297-2.167.892-2.878.594-.71 1.393-1.066 2.396-1.066.939 0 1.681.309 2.228.926.547.618.82 1.432.82 2.444v.718h-5.16c.022.88.244 1.547.666 2.003.421.455 1.015.683 1.78.683a6.02 6.02 0 0 0 2.393-.506v1.012c-.4.173-.78.297-1.138.373a6.42 6.42 0 0 1-1.295.112zm-.307-6.815c-.602 0-1.081.196-1.439.588-.358.392-.568.934-.632 1.627h3.917c0-.716-.16-1.264-.479-1.644-.319-.38-.775-.571-1.367-.571zm9.83 4.635c0 .697-.26 1.235-.78 1.613-.519.378-1.248.567-2.187.567-.993 0-1.768-.157-2.324-.471v-1.053c.36.182.746.326 1.159.43.412.106.81.158 1.193.158.592 0 1.048-.095 1.367-.284.319-.189.478-.477.478-.865 0-.291-.126-.54-.379-.748-.253-.207-.746-.452-1.48-.735-.697-.26-1.193-.486-1.487-.68a2.031 2.031 0 0 1-.656-.66 1.72 1.72 0 0 1-.215-.882c0-.61.248-1.092.745-1.445.496-.354 1.178-.53 2.044-.53a5.98 5.98 0 0 1 2.365.492l-.403.923c-.752-.31-1.434-.465-2.044-.465-.538 0-.944.084-1.217.253-.274.169-.41.401-.41.697 0 .2.051.372.153.513.103.141.268.276.496.403.228.128.665.312 1.313.554.888.324 1.489.65 1.8.977.313.329.47.741.47 1.238zm6.679 0c0 .697-.26 1.235-.78 1.613-.519.378-1.248.567-2.187.567-.993 0-1.768-.157-2.324-.471v-1.053c.36.182.746.326 1.159.43.412.106.81.158 1.192.158.593 0 1.049-.095 1.368-.284.319-.189.478-.477.478-.865 0-.291-.126-.54-.38-.748-.252-.207-.746-.452-1.48-.735-.697-.26-1.192-.486-1.486-.68a2.031 2.031 0 0 1-.656-.66 1.72 1.72 0 0 1-.216-.882c0-.61.249-1.092.745-1.445.497-.354 1.178-.53 2.044-.53a5.98 5.98 0 0 1 2.366.492l-.404.923c-.752-.31-1.433-.465-2.044-.465-.537 0-.943.084-1.216.253-.274.169-.41.401-.41.697 0 .2.05.372.153.513.103.141.268.276.496.403.228.128.665.312 1.312.554.889.324 1.49.65 1.802.977.312.329.468.741.468 1.238zm6.453 2.044l-.226-1.067h-.054c-.374.47-.747.788-1.118.954-.371.166-.835.25-1.391.25-.743 0-1.325-.192-1.747-.575-.421-.383-.632-.927-.632-1.634 0-1.513 1.21-2.306 3.63-2.378l1.271-.041v-.465c0-.588-.126-1.022-.379-1.303-.253-.28-.657-.42-1.213-.42-.625 0-1.331.191-2.12.574l-.348-.868a5.35 5.35 0 0 1 1.213-.472c.44-.114.88-.17 1.323-.17.893 0 1.555.198 1.986.594.43.397.646 1.032.646 1.907v5.114h-.841zm-2.564-.8c.707 0 1.262-.194 1.665-.581.403-.388.605-.93.605-1.627v-.677l-1.135.048c-.902.032-1.553.172-1.951.42-.4.249-.599.635-.599 1.16 0 .41.125.721.373.936.248.214.596.32 1.042.32zm11.875-6.692v.717l-1.388.164a2.429 2.429 0 0 1 .492 1.497c0 .734-.25 1.32-.752 1.757-.501.438-1.19.657-2.064.657-.224 0-.433-.019-.63-.055-.482.255-.724.576-.724.964a.49.49 0 0 0 .253.454c.169.098.458.147.868.147h1.326c.812 0 1.435.171 1.87.513.435.342.653.839.653 1.49 0 .83-.333 1.462-.998 1.897-.666.435-1.636.653-2.912.653-.98 0-1.736-.182-2.266-.547-.531-.364-.797-.88-.797-1.545 0-.456.146-.85.438-1.182.291-.333.701-.559 1.23-.677a1.187 1.187 0 0 1-.482-.403 1.067 1.067 0 0 1-.195-.636c0-.274.073-.513.22-.718.145-.205.375-.403.69-.595a2.024 2.024 0 0 1-.947-.813A2.39 2.39 0 0 1 79 20.13c0-.82.246-1.452.738-1.897.493-.444 1.19-.666 2.092-.666.392 0 .745.045 1.06.137h2.59zm-5.975 8.75c0 .405.17.713.513.922.341.21.831.315 1.47.315.952 0 1.657-.143 2.115-.427.458-.285.687-.671.687-1.16 0-.405-.125-.686-.376-.843-.25-.158-.722-.236-1.415-.236h-1.36c-.515 0-.916.123-1.203.369-.288.246-.431.6-.431 1.06zm.615-6.351c0 .524.148.92.444 1.19.297.268.71.403 1.238.403 1.107 0 1.66-.538 1.66-1.614 0-1.125-.56-1.688-1.68-1.688-.534 0-.944.144-1.231.43-.287.288-.43.714-.43 1.279zm10.063 5.23c-1.108 0-1.982-.338-2.622-1.012-.64-.675-.96-1.611-.96-2.81 0-1.208.297-2.167.892-2.878.594-.71 1.393-1.066 2.396-1.066.938 0 1.681.309 2.228.926.547.618.82 1.432.82 2.444v.718h-5.16c.022.88.244 1.547.666 2.003.421.455 1.015.683 1.78.683a6.02 6.02 0 0 0 2.393-.506v1.012c-.4.173-.78.297-1.138.373a6.42 6.42 0 0 1-1.295.112zm-.308-6.816c-.602 0-1.081.196-1.439.588-.358.392-.568.934-.632 1.627h3.917c0-.716-.16-1.264-.479-1.644-.319-.38-.775-.571-1.367-.571zm14.137.533l-.451 2.324h1.934v.882h-2.098l-.575 2.94h-.936l.574-2.94h-2.071l-.56 2.94h-.93l.546-2.94h-1.79v-.882h1.961l.465-2.324H98.19v-.868h2.043l.561-2.98h.95l-.56 2.98h2.085l.574-2.98h.916l-.574 2.98h1.804v.868h-1.975zm-3.46 2.324h2.072l.451-2.324h-2.071l-.451 2.324zm14.76 3.822h-1.163v-4.703h-5.263v4.703h-1.162v-9.994h1.162v4.252h5.263v-4.252h1.163v9.994zm5.735.136c-1.108 0-1.981-.337-2.622-1.011-.64-.675-.96-1.611-.96-2.81 0-1.208.297-2.167.892-2.878.595-.71 1.393-1.066 2.396-1.066.939 0 1.682.309 2.228.926.547.618.82 1.432.82 2.444v.718h-5.16c.022.88.245 1.547.666 2.003.422.455 1.015.683 1.78.683.808 0 1.605-.168 2.393-.506v1.012c-.4.173-.78.297-1.138.373-.357.075-.79.112-1.295.112zm-.308-6.815c-.601 0-1.08.196-1.439.588-.357.392-.568.934-.632 1.627h3.917c0-.716-.16-1.264-.479-1.644-.319-.38-.774-.571-1.367-.571zm6.132 6.679h-1.135V14.559h1.135v10.637zm3.541 0h-1.135V14.559h1.135v10.637zm8.873-3.753c0 1.221-.307 2.175-.923 2.86-.615.687-1.465 1.03-2.55 1.03-.67 0-1.264-.158-1.784-.472a3.113 3.113 0 0 1-1.203-1.354c-.282-.588-.424-1.276-.424-2.064 0-1.222.306-2.173.916-2.854.611-.682 1.459-1.022 2.543-1.022 1.049 0 1.881.348 2.499 1.046.617.697.926 1.64.926 2.83zm-5.708 0c0 .957.192 1.686.574 2.187.383.502.946.752 1.689.752.743 0 1.307-.25 1.692-.748.385-.5.577-1.23.577-2.191 0-.953-.192-1.676-.577-2.17-.385-.495-.954-.742-1.706-.742-.743 0-1.303.243-1.681.731-.379.488-.568 1.215-.568 2.18zm12.264-1.484h3.397v4.86c-.528.17-1.066.297-1.613.384-.547.086-1.18.13-1.9.13-1.513 0-2.691-.45-3.535-1.35-.843-.9-1.264-2.162-1.264-3.784 0-1.04.208-1.95.625-2.731a4.23 4.23 0 0 1 1.802-1.791c.783-.413 1.702-.619 2.754-.619 1.067 0 2.06.196 2.98.588l-.45 1.025c-.903-.383-1.77-.574-2.605-.574-1.217 0-2.167.362-2.85 1.087-.684.725-1.026 1.73-1.026 3.015 0 1.349.33 2.372.988 3.069.659.697 1.626 1.046 2.902 1.046.693 0 1.37-.08 2.03-.24v-3.076h-2.235V19.96zm9.112-2.379c.985 0 1.749.337 2.294 1.009.544.672.816 1.623.816 2.854 0 1.23-.274 2.186-.823 2.867-.55.682-1.312 1.022-2.287 1.022-.487 0-.933-.09-1.336-.27a2.513 2.513 0 0 1-1.015-.83h-.082l-.24.964h-.813V14.559h1.135v2.584c0 .579-.019 1.098-.055 1.559h.055c.528-.748 1.312-1.122 2.351-1.122zm-.164.95c-.775 0-1.333.223-1.675.667-.342.445-.512 1.193-.512 2.246s.175 1.806.526 2.26c.35.453.914.68 1.688.68.698 0 1.217-.255 1.559-.763.342-.508.513-1.238.513-2.19 0-.976-.171-1.703-.513-2.182-.342-.478-.87-.717-1.586-.717zm3.787-.826h1.217l1.64 4.272c.36.975.584 1.68.67 2.112h.055c.06-.232.184-.63.373-1.193.189-.562.808-2.293 1.856-5.191h1.217l-3.22 8.53c-.32.844-.692 1.442-1.118 1.795-.426.353-.949.53-1.569.53a4.59 4.59 0 0 1-1.025-.116v-.91c.25.055.53.083.84.083.78 0 1.336-.438 1.669-1.313l.417-1.066-3.022-7.533zm11.41 7.628c-1.108 0-1.982-.337-2.622-1.011-.64-.675-.96-1.611-.96-2.81 0-1.208.297-2.167.891-2.878.595-.71 1.394-1.066 2.396-1.066.94 0 1.682.309 2.229.926.547.618.82 1.432.82 2.444v.718h-5.16c.022.88.244 1.547.666 2.003.421.455 1.015.683 1.78.683a6.02 6.02 0 0 0 2.393-.506v1.012a6.07 6.07 0 0 1-1.138.373c-.358.075-.79.112-1.296.112zm-.308-6.815c-.602 0-1.081.196-1.44.588-.357.392-.568.934-.632 1.627h3.917c0-.716-.159-1.264-.478-1.644-.32-.38-.775-.571-1.367-.571z" fill="#9B9B9B" fill-rule="nonzero"/></g><g transform="translate(35 4)"><path d="M10.206 25.25h32.59" stroke="#CCC" stroke-width="5" stroke-linecap="round"/><circle fill="#4DA28C" cx="1.5" cy="25.5" r="1.5"/><path d="M7.423 12h-1.66V8.61h-3.11V12H.988V4.147h1.665v3.078h3.11V4.147h1.66V12zm4.34-4.952c-.348 0-.62.11-.817.33-.197.22-.31.533-.338.937h2.299c-.007-.404-.113-.717-.317-.937-.204-.22-.48-.33-.827-.33zm.23 5.06c-.966 0-1.722-.267-2.266-.8-.544-.534-.816-1.29-.816-2.267 0-1.007.251-1.785.754-2.334.503-.55 1.199-.825 2.087-.825.849 0 1.51.242 1.982.725.473.484.709 1.152.709 2.004v.795H10.57c.018.465.156.829.414 1.09.258.261.62.392 1.085.392.362 0 .703-.037 1.026-.113a5.133 5.133 0 0 0 1.01-.36v1.268c-.287.143-.593.25-.919.32a5.79 5.79 0 0 1-1.192.104zm5.42-.108h-1.638V3.643h1.638V12zm3.357 0h-1.638V3.643h1.638V12zm3.024-3.013c0 .594.098 1.044.293 1.348.195.304.513.457.953.457.437 0 .751-.152.943-.454.191-.303.287-.753.287-1.351 0-.595-.097-1.04-.29-1.338-.193-.297-.51-.445-.95-.445-.438 0-.753.147-.946.443-.193.295-.29.742-.29 1.34zm4.152 0c0 .977-.258 1.742-.774 2.293-.515.552-1.233.827-2.153.827-.577 0-1.085-.126-1.526-.378a2.52 2.52 0 0 1-1.015-1.088c-.236-.473-.354-1.024-.354-1.654 0-.981.256-1.744.768-2.288.512-.545 1.231-.817 2.159-.817.576 0 1.085.126 1.525.376.44.251.779.61 1.015 1.08.237.469.355 1.019.355 1.649zm4.463-1.397h3.115v4.072a8.8 8.8 0 0 1-1.426.346 9.31 9.31 0 0 1-1.367.1c-1.185 0-2.09-.349-2.715-1.045-.624-.697-.937-1.697-.937-3 0-1.268.363-2.256 1.088-2.965.725-.709 1.73-1.063 3.016-1.063.805 0 1.582.16 2.33.483L34.96 5.85a3.951 3.951 0 0 0-1.788-.43c-.72 0-1.296.242-1.73.726-.433.483-.65 1.133-.65 1.95 0 .851.175 1.502.524 1.952.35.449.857.674 1.523.674.347 0 .7-.036 1.058-.108V8.976h-1.488V7.59zm8.196-1.708c.71 0 1.264.277 1.666.83.4.553.601 1.312.601 2.275 0 .992-.207 1.76-.62 2.304-.414.544-.977.816-1.69.816-.705 0-1.258-.256-1.66-.768h-.112l-.274.661h-1.251V3.643h1.638v1.944c0 .247-.022.643-.065 1.187h.065c.383-.594.95-.892 1.702-.892zm-.526 1.31c-.405 0-.7.125-.886.374-.186.249-.283.66-.29 1.233v.177c0 .645.096 1.107.287 1.386.192.28.495.419.91.419.337 0 .605-.155.804-.465.198-.31.298-.76.298-1.35 0-.591-.1-1.035-.301-1.33a.943.943 0 0 0-.822-.443zm3.067-1.197h1.794l1.133 3.379c.097.293.163.64.199 1.042h.032c.04-.37.117-.717.231-1.042l1.112-3.379h1.756l-2.54 6.773c-.233.627-.565 1.096-.997 1.407-.431.312-.935.468-1.512.468-.282 0-.56-.03-.832-.092v-1.3a2.8 2.8 0 0 0 .645.07c.29 0 .543-.088.76-.266.216-.177.385-.444.507-.803l.097-.295-2.385-5.962zm9.604 1.053c-.348 0-.62.11-.817.33-.197.22-.31.533-.338.937h2.299c-.008-.404-.113-.717-.317-.937-.204-.22-.48-.33-.827-.33zm.23 5.06c-.966 0-1.722-.267-2.266-.8-.544-.534-.817-1.29-.817-2.267 0-1.007.252-1.785.755-2.334.503-.55 1.199-.825 2.087-.825.848 0 1.509.242 1.982.725.472.484.709 1.152.709 2.004v.795h-3.873c.018.465.156.829.414 1.09.258.261.62.392 1.085.392.361 0 .703-.037 1.026-.113a5.133 5.133 0 0 0 1.01-.36v1.268c-.287.143-.593.25-.92.32a5.79 5.79 0 0 1-1.192.104z" fill="#FFF" fill-rule="nonzero"/><rect fill="#260027" y="34" width="79" height="13" rx="4"/><path d="M12.204 40h39.517M10.204 58h39.517" stroke="#957A97" stroke-width="4" stroke-linecap="round"/><path fill="#957A97" d="M69 5h9v9h-9zM2 37h5v5H2zM0 55h5v5H0z"/></g></g></svg>